<?xml version="1.0" encoding="UTF-8" standalone="no"?>
<svg
   xmlns:dc="http://purl.org/dc/elements/1.1/"
   xmlns:cc="http://creativecommons.org/ns#"
   xmlns:rdf="http://www.w3.org/1999/02/22-rdf-syntax-ns#"
   xmlns:svg="http://www.w3.org/2000/svg"
   xmlns="http://www.w3.org/2000/svg"
   xmlns:sodipodi="http://sodipodi.sourceforge.net/DTD/sodipodi-0.dtd"
   xmlns:inkscape="http://www.inkscape.org/namespaces/inkscape"
   width="68.993mm"
   height="17.804mm"
   version="1.1"
   viewBox="0 0 68.993 17.804"
   id="svg102"
   sodipodi:docname="logo.svg"
   inkscape:version="0.92.3 (2405546, 2018-03-11)">
  <metadata
     id="metadata108">
    <rdf:RDF>
      <cc:Work
         rdf:about="">
        <dc:format>image/svg+xml</dc:format>
        <dc:type
           rdf:resource="http://purl.org/dc/dcmitype/StillImage" />
      </cc:Work>
    </rdf:RDF>
  </metadata>
  <defs
     id="defs106" />
  <sodipodi:namedview
     pagecolor="#ffffff"
     bordercolor="#666666"
     borderopacity="1"
     objecttolerance="10"
     gridtolerance="10"
     guidetolerance="10"
     inkscape:pageopacity="0"
     inkscape:pageshadow="2"
     inkscape:window-width="1920"
     inkscape:window-height="1051"
     id="namedview104"
     showgrid="false"
     inkscape:zoom="1.3000414"
     inkscape:cx="36.537299"
     inkscape:cy="33.645356"
     inkscape:window-x="-9"
     inkscape:window-y="-9"
     inkscape:window-maximized="1"
     inkscape:current-layer="svg102" />
  <g
     transform="translate(-18.891 -14.1)"
     id="g100"
     style="fill:#e2f1f6;fill-opacity:1">
    <g
       transform="matrix(.89608 0 0 .89139 2.3869 2.4264)"
       style="fill:#e2f1f6;fill-opacity:1"
       id="g10">
      <path
         d="m19.851 30.188-0.5537 0.35958 0.88746 1.3666-0.20608 0.13383-0.88746-1.3666-0.5537 0.35958-0.11896-0.18318 1.3135-0.85299z"
         style="dominant-baseline:auto;fill:#e2f1f6;font-feature-settings:normal;font-variant-alternates:normal;font-variant-caps:normal;font-variant-ligatures:normal;font-variant-numeric:normal;font-variant-position:normal;shape-padding:0;text-decoration-color:#000000;text-decoration-line:none;text-decoration-style:solid;text-indent:0;text-orientation:mixed;text-transform:none;white-space:normal;fill-opacity:1"
         id="path2" />
      <path
         d="m21.905 30.797-0.19567 0.12707-0.42987-0.66195q-0.05204-0.08014-0.1067-0.14379-0.05533-0.06469-0.10599-0.08802-0.05441-0.02682-0.11684-0.01587-0.06311 0.0099-0.14117 0.0606-0.08014 0.05204-0.14188 0.14837-0.06174 0.09633-0.102 0.20978l0.5637 0.86802-0.19567 0.12707-1.0517-1.6195 0.19567-0.12707 0.38053 0.58597q0.04225-0.13546 0.11237-0.24166 0.07012-0.10621 0.17316-0.17312 0.18838-0.12234 0.36093-0.0731 0.17255 0.04923 0.31111 0.2626z"
         style="dominant-baseline:auto;fill:#e2f1f6;font-feature-settings:normal;font-variant-alternates:normal;font-variant-caps:normal;font-variant-ligatures:normal;font-variant-numeric:normal;font-variant-position:normal;shape-padding:0;text-decoration-color:#000000;text-decoration-line:none;text-decoration-style:solid;text-indent:0;text-orientation:mixed;text-transform:none;white-space:normal;fill-opacity:1"
         id="path4" />
      <path
         d="m22.891 29.359-0.85658 0.55627q0.06962 0.1072 0.15393 0.16639 0.08363 0.05815 0.17296 0.07265 0.08657 0.01481 0.17668-0.0082 0.09116-0.02368 0.18067-0.08181 0.11865-0.07705 0.20793-0.20162 0.08964-0.12628 0.1109-0.2052l0.01041-0.0068 0.13856 0.21336q-0.07184 0.10584-0.15663 0.20086-0.08479 0.09502-0.19824 0.16869-0.28934 0.1879-0.55309 0.13722-0.26443-0.05172-0.45165-0.34002-0.1852-0.28518-0.13894-0.55346 0.0473-0.26895 0.30125-0.43387 0.23522-0.15275 0.45142-0.09783 0.21724 0.05425 0.38148 0.30716zm-0.2878-0.02619q-0.10107-0.15336-0.23284-0.18765-0.13073-0.03496-0.28685 0.06642-0.15716 0.10206-0.19068 0.25552-0.03248 0.15279 0.04425 0.29828z"
         style="dominant-baseline:auto;fill:#e2f1f6;font-feature-settings:normal;font-variant-alternates:normal;font-variant-caps:normal;font-variant-ligatures:normal;font-variant-numeric:normal;font-variant-position:normal;shape-padding:0;text-decoration-color:#000000;text-decoration-line:none;text-decoration-style:solid;text-indent:0;text-orientation:mixed;text-transform:none;white-space:normal;fill-opacity:1"
         id="path6" />
      <path
         d="m26.195 28.016q-0.14166 0.2237-0.33641 0.44896-0.19417 0.22252-0.4175 0.36756-0.28785 0.18693-0.57928 0.2633-0.29144 0.07637-0.56331 0.02714-0.2746-0.04981-0.52301-0.22952-0.24949-0.18136-0.45898-0.50395-0.38353-0.59058-0.26074-1.1548 0.12336-0.56696 0.72552-0.95801 0.21009-0.13644 0.46176-0.22696 0.25225-0.09325 0.58378-0.13686l0.25246 0.38876-0.02978 0.01934q-0.07707-0.0064-0.21657-0.0075-0.1395-0.0011-0.26173 0.01709-0.14745 0.02284-0.31451 0.0843-0.16648 0.05873-0.35011 0.17797-0.41357 0.26858-0.48213 0.69176-0.06798 0.42046 0.22638 0.87373 0.31047 0.47809 0.73489 0.58113 0.42334 0.10139 0.85676-0.18008 0.15881-0.10313 0.29556-0.23662 0.1384-0.13456 0.22528-0.26154l-0.39212-0.60381-0.66006 0.42865-0.18693-0.28785 0.9843-0.63921z"
         style="dominant-baseline:auto;fill:#e2f1f6;font-feature-settings:normal;font-variant-alternates:normal;font-variant-caps:normal;font-variant-ligatures:normal;font-variant-numeric:normal;font-variant-position:normal;shape-padding:0;text-decoration-color:#000000;text-decoration-line:none;text-decoration-style:solid;text-indent:0;text-orientation:mixed;text-transform:none;white-space:normal;fill-opacity:1"
         id="path8" />
    </g>
    <g
       transform="matrix(.89608 0 0 .89139 3.4462 1.3727)"
       style="fill:#e2f1f6;fill-opacity:1"
       id="g18">
      <path
         d="m38.077 20.021-0.32755 0.21271-1.3783-2.1224 0.25299 1.889-0.1952 0.12677-1.6178-1.0026 1.3783 2.1224-0.30604 0.19875-1.5996-2.4632 0.44666-0.29006 1.5473 0.9449-0.25535-1.7839 0.45493-0.29543z"
         style="dominant-baseline:auto;fill:#e2f1f6;font-feature-settings:normal;font-variant-alternates:normal;font-variant-caps:normal;font-variant-ligatures:normal;font-variant-numeric:normal;font-variant-position:normal;shape-padding:0;text-decoration-color:#000000;text-decoration-line:none;text-decoration-style:solid;text-indent:0;text-orientation:mixed;text-transform:none;white-space:normal;fill-opacity:1"
         id="path12" />
      <path
         d="m40.025 17.008q0.21808 0.33582 0.24811 0.70439 0.03169 0.3675-0.11374 0.67596-0.10106 0.2138-0.27942 0.39548-0.1767 0.18061-0.51583 0.40084l-0.62201 0.40394-1.5996-2.4632 0.61539-0.39964q0.36063-0.2342 0.60676-0.31877 0.24671-0.0873 0.45302-0.09193 0.35351-0.0061 0.66386 0.16392 0.31035 0.17006 0.54348 0.52904zm-0.34566 0.21742q-0.188-0.2895-0.41783-0.42248-0.22983-0.13298-0.50412-0.11714-0.19929 0.01182-0.38348 0.08675-0.18526 0.07327-0.41355 0.22152l-0.3077 0.19982 1.2344 1.9008 0.3077-0.19982q0.23656-0.15363 0.38936-0.30224 0.15445-0.14969 0.24044-0.3396 0.10735-0.2367 0.07372-0.48768-0.03198-0.25206-0.21891-0.5399z"
         style="dominant-baseline:auto;fill:#e2f1f6;font-feature-settings:normal;font-variant-alternates:normal;font-variant-caps:normal;font-variant-ligatures:normal;font-variant-numeric:normal;font-variant-position:normal;shape-padding:0;text-decoration-color:#000000;text-decoration-line:none;text-decoration-style:solid;text-indent:0;text-orientation:mixed;text-transform:none;white-space:normal;fill-opacity:1"
         id="path14" />
      <path
         d="m43.143 16.477q-0.0652 0.09879-0.11709 0.18187-0.05023 0.08201-0.14463 0.19741-0.0805 0.09696-0.18564 0.19582-0.10241 0.09944-0.24468 0.19183-0.26799 0.17404-0.53636 0.24248-0.26778 0.06571-0.53411 0.01053-0.26087-0.05402-0.50705-0.23754-0.24725-0.18517-0.45567-0.5061-0.19767-0.30439-0.26742-0.60012-0.06975-0.29574-0.01506-0.56645 0.05295-0.26252 0.21983-0.49085 0.16854-0.2294 0.43984-0.40558 0.19851-0.12892 0.42653-0.20878 0.22967-0.08094 0.54962-0.11703l0.25246 0.38876-0.02481 0.01611q-0.31413-0.03825-0.56479 0.01399-0.25066 0.05224-0.47895 0.20049-0.18693 0.1214-0.29772 0.28036-0.11021 0.15624-0.14494 0.3599-0.03357 0.1982 0.02546 0.43034 0.05961 0.22941 0.22075 0.47755 0.16866 0.25972 0.35954 0.40154 0.19253 0.14074 0.37964 0.18622 0.1953 0.04721 0.38782 0.0069 0.1931-0.04309 0.36515-0.15481 0.23656-0.15363 0.39071-0.36897 0.15414-0.21535 0.22918-0.49457l0.02316-0.01504z"
         style="dominant-baseline:auto;fill:#e2f1f6;font-feature-settings:normal;font-variant-alternates:normal;font-variant-caps:normal;font-variant-ligatures:normal;font-variant-numeric:normal;font-variant-position:normal;shape-padding:0;text-decoration-color:#000000;text-decoration-line:none;text-decoration-style:solid;text-indent:0;text-orientation:mixed;text-transform:none;white-space:normal;fill-opacity:1"
         id="path16" />
    </g>
    <path
       d="m33.467 31.822h-2.6837v-0.55352q0.27955-0.23836 0.55911-0.47672 0.28221-0.23836 0.52449-0.47407 0.51118-0.49261 0.70021-0.78129 0.18903-0.29133 0.18903-0.62768 0-0.30722-0.205-0.47937-0.20234-0.17481-0.56709-0.17481-0.24228 0-0.52449 0.08474-0.28221 0.08474-0.55112 0.25955h-0.02662v-0.55617q0.18903-0.0927 0.50319-0.16949 0.31683-0.07681 0.61235-0.07681 0.60969 0 0.9558 0.29398 0.34611 0.29133 0.34611 0.79188 0 0.22512-0.05857 0.4211-0.05592 0.19334-0.16773 0.36813-0.10384 0.16421-0.24494 0.32311-0.13844 0.1589-0.33812 0.35224-0.28488 0.27809-0.58839 0.54028-0.30351 0.25955-0.56709 0.48202h2.1326z"
       style="dominant-baseline:auto;fill:#e2f1f6;font-feature-settings:normal;font-variant-alternates:normal;font-variant-caps:normal;font-variant-ligatures:normal;font-variant-numeric:normal;font-variant-position:normal;shape-padding:0;text-decoration-color:#000000;text-decoration-line:none;text-decoration-style:solid;text-indent:0;text-orientation:mixed;text-transform:none;white-space:normal;fill-opacity:1"
       id="path20" />
    <path
       d="m36.934 29.849q0 1.062-0.33546 1.5599-0.3328 0.49526-1.0357 0.49526-0.71352 0-1.0437-0.5032-0.32747-0.50321-0.32747-1.5467 0-1.0514 0.3328-1.552 0.3328-0.5032 1.0383-0.5032 0.71352 0 1.041 0.51115 0.33014 0.5085 0.33014 1.5387zm-0.70021 1.2024q0.09319-0.21452 0.12514-0.5032 0.03462-0.29133 0.03462-0.69919 0-0.40256-0.03462-0.69919-0.03195-0.29662-0.12779-0.5032-0.09319-0.20393-0.25559-0.30722-0.15974-0.10329-0.41267-0.10329-0.25027 0-0.41534 0.10329-0.16241 0.10329-0.25825 0.31252-0.09051 0.19598-0.12514 0.51115-0.03195 0.31517-0.03195 0.69124 0 0.41316 0.0293 0.69124t0.12514 0.49791q0.08786 0.20658 0.2476 0.31517 0.16241 0.10859 0.42865 0.10859 0.25027 0 0.41533-0.10329 0.16506-0.10329 0.25559-0.31252z"
       style="dominant-baseline:auto;fill:#e2f1f6;font-feature-settings:normal;font-variant-alternates:normal;font-variant-caps:normal;font-variant-ligatures:normal;font-variant-numeric:normal;font-variant-position:normal;shape-padding:0;text-decoration-color:#000000;text-decoration-line:none;text-decoration-style:solid;text-indent:0;text-orientation:mixed;text-transform:none;white-space:normal;fill-opacity:1"
       id="path22" />
    <path
       d="m40.411 31.822h-2.6837v-0.55352q0.27955-0.23836 0.5591-0.47672 0.28222-0.23836 0.52449-0.47407 0.51118-0.49261 0.70021-0.78129 0.18903-0.29133 0.18903-0.62768 0-0.30722-0.20501-0.47937-0.20234-0.17481-0.56709-0.17481-0.24228 0-0.52449 0.08474-0.28221 0.08474-0.55112 0.25955h-0.02662v-0.55617q0.18903-0.0927 0.50319-0.16949 0.31683-0.07681 0.61236-0.07681 0.60969 0 0.9558 0.29398 0.34611 0.29133 0.34611 0.79188 0 0.22512-0.05857 0.4211-0.05591 0.19334-0.16773 0.36813-0.10384 0.16421-0.24494 0.32311-0.13844 0.1589-0.33812 0.35224-0.28488 0.27809-0.58839 0.54028-0.30351 0.25955-0.56709 0.48202h2.1326z"
       style="dominant-baseline:auto;fill:#e2f1f6;font-feature-settings:normal;font-variant-alternates:normal;font-variant-caps:normal;font-variant-ligatures:normal;font-variant-numeric:normal;font-variant-position:normal;shape-padding:0;text-decoration-color:#000000;text-decoration-line:none;text-decoration-style:solid;text-indent:0;text-orientation:mixed;text-transform:none;white-space:normal;fill-opacity:1"
       id="path24" />
    <path
       d="m43.877 29.849q0 1.062-0.33546 1.5599-0.3328 0.49526-1.0357 0.49526-0.71352 0-1.0437-0.5032-0.32748-0.50321-0.32748-1.5467 0-1.0514 0.3328-1.552 0.3328-0.5032 1.0383-0.5032 0.71352 0 1.041 0.51115 0.33014 0.5085 0.33014 1.5387zm-0.70021 1.2024q0.09318-0.21452 0.12514-0.5032 0.03462-0.29133 0.03462-0.69919 0-0.40256-0.03462-0.69919-0.03195-0.29662-0.12779-0.5032-0.09318-0.20393-0.25559-0.30722-0.15974-0.10329-0.41267-0.10329-0.25026 0-0.41534 0.10329-0.16241 0.10329-0.25825 0.31252-0.09051 0.19598-0.12514 0.51115-0.03195 0.31517-0.03195 0.69124 0 0.41316 0.0293 0.69124 0.02928 0.27809 0.12514 0.49791 0.08786 0.20658 0.2476 0.31517 0.16241 0.10859 0.42865 0.10859 0.25027 0 0.41534-0.10329 0.16506-0.10329 0.25559-0.31252z"
       style="dominant-baseline:auto;fill:#e2f1f6;font-feature-settings:normal;font-variant-alternates:normal;font-variant-caps:normal;font-variant-ligatures:normal;font-variant-numeric:normal;font-variant-position:normal;shape-padding:0;text-decoration-color:#000000;text-decoration-line:none;text-decoration-style:solid;text-indent:0;text-orientation:mixed;text-transform:none;white-space:normal;fill-opacity:1"
       id="path26" />
    <g
       transform="matrix(.77759 0 0 .77352 15.224 4.8622)"
       style="fill:#e2f1f6;fill-opacity:1"
       id="g50">
      <path
         d="m39.932 31.326q0 0.1292-0.06089 0.25543-0.0594 0.12623-0.16781 0.21385-0.11881 0.09504-0.27771 0.14851-0.15742 0.05346-0.38018 0.05346-0.2391 0-0.43067-0.04455-0.19009-0.04455-0.3876-0.13217v-0.3683h0.02079q0.16781 0.1396 0.3876 0.21534 0.21979 0.07574 0.41285 0.07574 0.27325 0 0.42473-0.10247 0.15296-0.10247 0.15296-0.27325 0-0.14702-0.07277-0.21682-0.07128-0.0698-0.21831-0.10841-0.11138-0.0297-0.24207-0.04901-0.1292-0.01931-0.27474-0.04901-0.29404-0.06237-0.43661-0.21236-0.14108-0.15148-0.14108-0.39355 0-0.27771 0.23464-0.45443 0.23464-0.17821 0.59552-0.17821 0.23316 0 0.4277 0.04455 0.19454 0.04455 0.34454 0.1099v0.34751h-0.02079q-0.12623-0.10693-0.33266-0.17672-0.20494-0.07128-0.42028-0.07128-0.23613 0-0.38018 0.09802-0.14257 0.09801-0.14257 0.25246 0 0.13811 0.07128 0.21682 0.07128 0.07871 0.25098 0.12029 0.09504 0.02079 0.27028 0.05049 0.17524 0.0297 0.29702 0.06089 0.24652 0.06534 0.37127 0.19751 0.12475 0.13217 0.12475 0.36978z"
         style="dominant-baseline:auto;fill:#e2f1f6;font-feature-settings:normal;font-variant-alternates:normal;font-variant-caps:normal;font-variant-ligatures:normal;font-variant-numeric:normal;font-variant-position:normal;shape-padding:0;text-decoration-color:#000000;text-decoration-line:none;text-decoration-style:solid;text-indent:0;text-orientation:mixed;text-transform:none;white-space:normal;fill-opacity:1"
         id="path28" />
      <path
         d="m41.795 31.128q0 0.40542-0.20791 0.64007-0.20791 0.23464-0.5569 0.23464-0.35196 0-0.55987-0.23464-0.20643-0.23464-0.20643-0.64007 0-0.40543 0.20643-0.64007 0.20791-0.23613 0.55987-0.23613 0.34899 0 0.5569 0.23613 0.20791 0.23464 0.20791 0.64007zm-0.2881 0q0-0.32226-0.12623-0.4782-0.12623-0.15742-0.35048-0.15742-0.22722 0-0.35345 0.15742-0.12475 0.15593-0.12475 0.4782 0 0.31186 0.12623 0.47374 0.12623 0.16039 0.35196 0.16039 0.22276 0 0.34899-0.1589 0.12772-0.16039 0.12772-0.47522z"
         style="dominant-baseline:auto;fill:#e2f1f6;font-feature-settings:normal;font-variant-alternates:normal;font-variant-caps:normal;font-variant-ligatures:normal;font-variant-numeric:normal;font-variant-position:normal;shape-padding:0;text-decoration-color:#000000;text-decoration-line:none;text-decoration-style:solid;text-indent:0;text-orientation:mixed;text-transform:none;white-space:normal;fill-opacity:1"
         id="path30" />
      <path
         d="m43.604 31.957h-0.27919v-0.18415q-0.14108 0.11138-0.27028 0.17078-0.1292 0.0594-0.28514 0.0594-0.26137 0-0.40691-0.1589-0.14554-0.16039-0.14554-0.46928v-1.0767h0.27919v0.94451q0 0.12623 0.01188 0.21682 0.01188 0.0891 0.05049 0.15296 0.0401 0.06534 0.10395 0.09504 0.06386 0.0297 0.18564 0.0297 0.10841 0 0.23613-0.05643 0.1292-0.05643 0.24058-0.14405v-1.2386h0.27919z"
         style="dominant-baseline:auto;fill:#e2f1f6;font-feature-settings:normal;font-variant-alternates:normal;font-variant-caps:normal;font-variant-ligatures:normal;font-variant-numeric:normal;font-variant-position:normal;shape-padding:0;text-decoration-color:#000000;text-decoration-line:none;text-decoration-style:solid;text-indent:0;text-orientation:mixed;text-transform:none;white-space:normal;fill-opacity:1"
         id="path32" />
      <path
         d="m45.015 31.942q-0.07871 0.02079-0.17227 0.03416-0.09207 0.01337-0.16484 0.01337-0.25395 0-0.38612-0.13663-0.13217-0.13663-0.13217-0.4381v-0.88213h-0.1886v-0.23464h0.1886v-0.47671h0.27919v0.47671h0.57621v0.23464h-0.57621v0.7559q0 0.13069 0.0059 0.20494 0.0059 0.07277 0.04158 0.13663 0.03267 0.0594 0.0891 0.08762 0.05792 0.02673 0.17524 0.02673 0.06831 0 0.14257-0.01931 0.07425-0.02079 0.10692-0.03416h0.01485z"
         style="dominant-baseline:auto;fill:#e2f1f6;font-feature-settings:normal;font-variant-alternates:normal;font-variant-caps:normal;font-variant-ligatures:normal;font-variant-numeric:normal;font-variant-position:normal;shape-padding:0;text-decoration-color:#000000;text-decoration-line:none;text-decoration-style:solid;text-indent:0;text-orientation:mixed;text-transform:none;white-space:normal;fill-opacity:1"
         id="path34" />
      <path
         d="m46.741 31.957h-0.27919v-0.94451q0-0.11435-0.01337-0.21385-0.01337-0.10098-0.04901-0.15742-0.03713-0.06237-0.10693-0.09207-0.0698-0.03119-0.18118-0.03119-0.11435 0-0.2391 0.05643-0.12475 0.05643-0.2391 0.14405v1.2386h-0.27919v-2.3108h0.27919v0.8361q0.13068-0.10841 0.27028-0.1693 0.1396-0.06089 0.28662-0.06089 0.2688 0 0.40988 0.16187 0.14108 0.16187 0.14108 0.46631z"
         style="dominant-baseline:auto;fill:#e2f1f6;font-feature-settings:normal;font-variant-alternates:normal;font-variant-caps:normal;font-variant-ligatures:normal;font-variant-numeric:normal;font-variant-position:normal;shape-padding:0;text-decoration-color:#000000;text-decoration-line:none;text-decoration-style:solid;text-indent:0;text-orientation:mixed;text-transform:none;white-space:normal;fill-opacity:1"
         id="path36" />
      <path
         d="m50.113 31.957h-0.31335l-0.21682-0.61631h-0.95639l-0.21682 0.61631h-0.2985l0.80491-2.2113h0.39206zm-0.62076-0.86877-0.3876-1.0856-0.38909 1.0856z"
         style="dominant-baseline:auto;fill:#e2f1f6;font-feature-settings:normal;font-variant-alternates:normal;font-variant-caps:normal;font-variant-ligatures:normal;font-variant-numeric:normal;font-variant-position:normal;shape-padding:0;text-decoration-color:#000000;text-decoration-line:none;text-decoration-style:solid;text-indent:0;text-orientation:mixed;text-transform:none;white-space:normal;fill-opacity:1"
         id="path38" />
      <path
         d="m51.319 29.916h-0.01485q-0.04604-0.01337-0.12029-0.02673-0.07425-0.01485-0.13069-0.01485-0.17969 0-0.26137 0.08019-0.08019 0.07871-0.08019 0.28662v0.05643h0.50344v0.23464h-0.49453v1.4242h-0.27919v-1.4242h-0.1886v-0.23464h0.1886v-0.05495q0-0.29553 0.14702-0.45295 0.14702-0.1589 0.42473-0.1589 0.09356 0 0.16781 0.0089 0.07574 0.0089 0.13811 0.02079z"
         style="dominant-baseline:auto;fill:#e2f1f6;font-feature-settings:normal;font-variant-alternates:normal;font-variant-caps:normal;font-variant-ligatures:normal;font-variant-numeric:normal;font-variant-position:normal;shape-padding:0;text-decoration-color:#000000;text-decoration-line:none;text-decoration-style:solid;text-indent:0;text-orientation:mixed;text-transform:none;white-space:normal;fill-opacity:1"
         id="path40" />
      <path
         d="m52.531 30.602h-0.01485q-0.06237-0.01485-0.12178-0.02079-0.05792-0.0074-0.13811-0.0074-0.1292 0-0.24949 0.05792-0.12029 0.05643-0.23167 0.14702v1.1777h-0.27919v-1.6588h0.27919v0.24504q0.16633-0.13366 0.29256-0.1886 0.12772-0.05643 0.25989-0.05643 0.07277 0 0.10544 0.0045 0.03267 3e-3 0.09801 0.01337z"
         style="dominant-baseline:auto;fill:#e2f1f6;font-feature-settings:normal;font-variant-alternates:normal;font-variant-caps:normal;font-variant-ligatures:normal;font-variant-numeric:normal;font-variant-position:normal;shape-padding:0;text-decoration-color:#000000;text-decoration-line:none;text-decoration-style:solid;text-indent:0;text-orientation:mixed;text-transform:none;white-space:normal;fill-opacity:1"
         id="path42" />
      <path
         d="m53.097 30.02h-0.31484v-0.28959h0.31484zm-0.01782 1.9365h-0.2792v-1.6588h0.2792z"
         style="dominant-baseline:auto;fill:#e2f1f6;font-feature-settings:normal;font-variant-alternates:normal;font-variant-caps:normal;font-variant-ligatures:normal;font-variant-numeric:normal;font-variant-position:normal;shape-padding:0;text-decoration-color:#000000;text-decoration-line:none;text-decoration-style:solid;text-indent:0;text-orientation:mixed;text-transform:none;white-space:normal;fill-opacity:1"
         id="path44" />
      <path
         d="m54.861 31.853q-0.1396 0.06683-0.26583 0.10395-0.12475 0.03713-0.26583 0.03713-0.17969 0-0.32969-0.05198-0.14999-0.05346-0.25692-0.16039-0.10841-0.10693-0.16781-0.27028-0.0594-0.16336-0.0594-0.38166 0-0.40691 0.22276-0.63858 0.22425-0.23167 0.59106-0.23167 0.14257 0 0.27919 0.0401 0.13811 0.0401 0.25246 0.09801v0.31038h-0.01485q-0.12772-0.0995-0.26434-0.15296-0.13514-0.05346-0.26434-0.05346-0.23761 0-0.37572 0.16039-0.13663 0.1589-0.13663 0.4678 0 0.29998 0.13366 0.46186 0.13514 0.16039 0.37869 0.16039 0.08465 0 0.17227-0.02228 0.08762-0.02228 0.15742-0.05792 0.06089-0.03119 0.11435-0.06534 0.05346-0.03564 0.08465-0.06089h0.01485z"
         style="dominant-baseline:auto;fill:#e2f1f6;font-feature-settings:normal;font-variant-alternates:normal;font-variant-caps:normal;font-variant-ligatures:normal;font-variant-numeric:normal;font-variant-position:normal;shape-padding:0;text-decoration-color:#000000;text-decoration-line:none;text-decoration-style:solid;text-indent:0;text-orientation:mixed;text-transform:none;white-space:normal;fill-opacity:1"
         id="path46" />
      <path
         d="m56.51 31.957h-0.27771v-0.17672q-0.03713 0.02525-0.10098 0.07128-0.06237 0.04455-0.12178 0.07128-0.0698 0.03416-0.16039 0.05643-0.09059 0.02376-0.21237 0.02376-0.22425 0-0.38018-0.14851-0.15593-0.14851-0.15593-0.37869 0-0.1886 0.08019-0.30444 0.08168-0.11732 0.23167-0.18415 0.15148-0.06683 0.36384-0.09059 0.21236-0.02376 0.45592-0.03564v-0.04307q0-0.09505-0.03416-0.15742-0.03267-0.06237-0.09504-0.09802-0.0594-0.03416-0.14257-0.04604-0.08316-0.01188-0.17375-0.01188-0.1099 0-0.24504 0.0297-0.13514 0.02822-0.27919 0.08316h-0.01485v-0.28365q0.08168-0.02228 0.23613-0.04901 0.15445-0.02673 0.30444-0.02673 0.17524 0 0.30444 0.0297 0.13069 0.02822 0.22573 0.09802 0.09356 0.06831 0.14257 0.17672 0.04901 0.10841 0.04901 0.2688zm-0.27771-0.4084v-0.46186q-0.12772 0.0074-0.30147 0.02228-0.17227 0.01485-0.27325 0.04307-0.12029 0.03416-0.19454 0.10692-0.07425 0.07128-0.07425 0.19752 0 0.14257 0.08613 0.21534 0.08613 0.07128 0.26286 0.07128 0.14702 0 0.2688-0.05643 0.12178-0.05792 0.22573-0.13811z"
         style="dominant-baseline:auto;fill:#e2f1f6;font-feature-settings:normal;font-variant-alternates:normal;font-variant-caps:normal;font-variant-ligatures:normal;font-variant-numeric:normal;font-variant-position:normal;shape-padding:0;text-decoration-color:#000000;text-decoration-line:none;text-decoration-style:solid;text-indent:0;text-orientation:mixed;text-transform:none;white-space:normal;fill-opacity:1"
         id="path48" />
    </g>
    <flowRoot
       transform="matrix(.26483 0 0 .26344 -.017369 .13807)"
       style="dominant-baseline:auto;fill:#e2f1f6;font-family:sans-serif;font-feature-settings:normal;font-size:24.189px;font-variant-alternates:normal;font-variant-caps:normal;font-variant-ligatures:normal;font-variant-numeric:normal;font-variant-position:normal;letter-spacing:0px;line-height:1.25;shape-padding:0;stroke-width:0.60473;text-decoration-color:#000000;text-decoration-line:none;text-decoration-style:solid;text-indent:0;text-orientation:mixed;text-transform:none;white-space:normal;word-spacing:0px;fill-opacity:1"
       xml:space="preserve"
       id="flowRoot58"><flowRegion
         style="fill:#e2f1f6;fill-opacity:1"
         id="flowRegion54"><rect
           x="-307.15"
           y="-176.79"
           width="603.25"
           height="227.6"
           style="fill:#e2f1f6;fill-opacity:1"
           id="rect52" /></flowRegion><flowPara
         id="flowPara56" /></flowRoot>    <g
       transform="matrix(.40226 0 0 .40015 17.536 -32.115)"
       style="dominant-baseline:auto;fill:#e2f1f6;font-feature-settings:normal;font-variant-alternates:normal;font-variant-caps:normal;font-variant-ligatures:normal;font-variant-numeric:normal;font-variant-position:normal;shape-padding:0;stroke-width:0.60473;text-decoration-color:#000000;text-decoration-line:none;text-decoration-style:solid;text-indent:0;text-orientation:mixed;text-transform:none;white-space:normal;fill-opacity:1"
       aria-label="athArt Competition "
       id="g94">
      <path
         d="m41.928 143.75q0 0.24803-1.7244 2.2914-1.3937 1.6772-2.1969 1.6772-0.54332 0-0.88584-0.40158-0.34252-0.41339-0.34252-1.0276 0-0.6378 0.37796-1.3819-1.1811 1.6536-1.8071 2.2323t-1.2166 0.57875q-0.626 0-1.0512-0.5315-0.4252-0.54332-0.4252-1.3583 0-2.2678 3.2008-4.0158 1.4055-0.77954 2.2678-0.77954 0.7323 0 0.7323 0.70867 0 0.20079-0.09449 0.5315l0.60237-1.1457q0.35434 0.0827 0.626 0.0827 0.3189 0 0.82679-0.0827l-2.0906 3.4607q-1.0866 1.8189-1.0866 2.3977 0 0.55513 0.46064 0.55513 0.47245 0 1.5118-1.0748 1.0394-1.0866 2.1142-2.6693 0.07087-0.11811 0.12992-0.11811 0.07087 0 0.07087 0.0709zm-3.2481-1.9607q0-0.57875-0.53151-0.57875-1.0866 0-2.8583 2.126-1.7599 2.126-1.7599 3.4371 0 0.76773 0.68505 0.76773 0.81498 0 2.8229-2.7048 1.6418-2.2205 1.6418-3.0473z"
         style="fill:#e2f1f6;fill-opacity:1"
         id="path60" />
      <path
         d="m46.298 141.03-0.09449 0.17716h-1.5473l-2.6339 4.5001q-0.48426 0.81498-0.48426 1.2992 0 0.5315 0.55513 0.5315 1.0748 0 3.626-3.7442 0.08268-0.11811 0.14174-0.11811 0.07087 0 0.07087 0.0709-0.01181 0.0354-0.11811 0.18898l-0.50788 0.69686q-2.2205 3.0827-3.3426 3.0827-0.55513 0-0.93309-0.40158-0.36615-0.40158-0.36615-1.004 0-0.70867 0.626-1.7717l1.9843-3.3308h-1.2047l0.11811-0.17716h1.1811l1.3819-2.2914q0.35434 0.0945 0.67324 0.0945 0.33071 0 0.68505-0.0945l-1.3583 2.2914z"
         style="fill:#e2f1f6;fill-opacity:1"
         id="path62" />
      <path
         d="m53.503 143.73q0 0.0945-0.11811 0.2126l-0.50788 0.69686q-2.2205 3.0827-3.3071 3.0827-0.56694 0-0.93309-0.40158-0.35434-0.41339-0.35434-1.0276 0-0.82678 0.89765-2.1614 1.4055-2.067 1.4055-2.4567 0-0.46064-0.48426-0.46064-0.70867 0-1.937 1.3937-1.1811 1.3347-3.2481 5.0552-0.35434-0.0709-0.60237-0.0709-0.25985 0-0.69686 0.0709l1.7362-3.1418q0.35434-0.67324 1.0866-1.9843 0.38977-0.63781 2.3977-4.0631l1.7953-3.0473q0.35434 0.0709 0.60237 0.0709 0.47245 0 0.89765-0.11811-1.2284 1.9725-3.6615 5.9056-0.07087 0.11811-1.8307 3.0473 2.2205-3.2953 3.5079-3.2953 0.50788 0 0.86222 0.43701 0.36615 0.43702 0.36615 1.063 0 0.81498-1.0394 2.3504-1.1575 1.7126-1.1575 2.1496 0 0.50788 0.50788 0.50788 0.92128 0 3.0473-2.9764l0.36615-0.50788 0.2126-0.25985q0.05906-0.11811 0.14174-0.11811 0.04725 0 0.04725 0.0473z"
         style="fill:#e2f1f6;fill-opacity:1"
         id="path64" />
      <path
         d="m72.413 135.45q0 0.12993-0.43702 0.626-1.2047 1.3819-2.2796 1.3819-0.68505 0-1.1221-0.47245-0.4252-0.48426-0.4252-1.2638 0-0.66143 0.77954-2.1378 0.36615-0.68505 0.36615-1.1339 0-0.59056-0.66143-1.004-0.64962-0.42521-1.5945-0.42521-2.7048 0-5.0198 2.0788-2.3032 2.0788-2.3032 4.5001 0 1.2284 0.76773 2.0079 0.77954 0.77954 2.0079 0.77954 1.3347 0 2.6811-0.96852 1.3583-0.98033 1.9134-2.3504 0.03543-0.11811 0.09449-0.11811 0.1063 0 0.1063 0.11811 0 0.24804-0.41339 0.88584-0.41339 0.626-0.85041 1.0512-1.5945 1.5709-3.5788 1.5709-1.3465 0-2.1615-0.82679-0.81498-0.82678-0.81498-2.1969 0-2.4922 2.3977-4.6182 2.4095-2.126 5.2206-2.126 1.2402 0 1.937 0.61419 0.70867 0.61418 0.70867 1.689 0 0.80316-0.56694 1.9016-0.50788 1.004-0.50788 1.3583 0 0.87403 1.0394 0.87403 1.1811 0 2.4449-1.7481 0.1063-0.14174 0.17717-0.14174 0.09449 0 0.09449 0.0945zm12.65-2.1496q0 0.2126-0.24804 0.2126-0.1063 0-0.79135-0.14173-1.2638-0.25985-2.1024-0.25985-1.9016 0.57875-3.3662 2.2441-1.4528 1.6654-3.319 5.3977-2.8583 5.7284-7.323 6.7678 0.93309 0.14173 1.6181 0.14173 2.1733 0 3.6497-1.3937 1.4292-1.3465 2.3741-2.8583 0.1063-0.16535 0.16536-0.16535 0.07087 0 0.08268 0.0472 0 0.17717-1.3583 1.8307-1.2638 1.5473-2.3032 2.1378-1.0394 0.57875-2.5394 0.57875-0.86222 0-2.1024-0.24803-0.75592 0.24803-1.7362 0.24803-0.68505 0-0.68505-0.24803 0-0.28347 0.92128-0.28347 0.64962 0 1.5 0.11811 1.8307-0.43702 2.7638-1.441 0.9449-1.004 3.626-5.4332h-4.5473q-2.8938 3.0473-4.4765 4.3347-3.6969 3-6.9686 3-1.8662 0-3.1772-0.87403-1.2992-0.87403-1.2992-2.126 0-0.64962 0.38977-1.1103 0.40158-0.46064 0.96852-0.46064 0.76773 0 0.76773 0.74411 0 0.38977-0.27166 0.67324-0.25985 0.27166-0.61418 0.27166-0.55513 0-0.55513-0.53151l0.02362-0.23622q0.02362-0.0473 0.02362-0.12993 0-0.11811-0.1063-0.11811-0.11811 0-0.23622 0.29528-0.11811 0.29528-0.11811 0.60238 0 1.1575 1.2166 1.9607 1.2166 0.79135 2.9882 0.79135 2.5394 0 5.5867-2.4922 0.69686-0.55512 1.5473-1.4646 1.689-1.7717 2.693-2.7638l0.35434-0.36615h-2.2914l0.14174-0.2126q1.1339 0 2.3268 0.0236 3.4607-3.8505 6.7088-5.6222 3.2599-1.7835 6.8859-1.8071 0.8386-0.16535 1.5709-0.16535 1.6418 0 1.6418 0.5315zm-3.7442-0.14173q-3.0827 0.15354-5.7166 1.7717t-6.071 5.4332h4.4765q1.5118-2.6339 3.6497-4.7245 2.1024-2.0788 3.6615-2.4804z"
         style="fill:#e2f1f6;fill-opacity:1"
         id="path66" />
      <path
         d="m82.216 143.75q0 0.0945-0.70867 0.86222-0.89765 0.99214-1.689 0.99214-0.89765 0-0.89765-1.0394 0-0.33071 0.14174-0.83859-0.74411 0.64961-1.2166 1.2874-0.46064 0.63781-1.6063 2.5985-0.626-0.0472-0.7323-0.0472-0.04725 0-0.72048 0.0472l1.937-3.1418q1.4528-2.3622 1.4528-2.9292 0-0.33072-0.27166-0.33072-0.66143 0-2.3977 2.5394-0.1063 0.16536-0.18898 0.16536-0.04725-0.0118-0.04725-0.0709 0.01181-0.0591 0.04725-0.0945l0.2126-0.29528q1.8189-2.4213 2.4685-2.4213 0.9449 0 0.9449 1.2166 0 0.90947-0.96852 2.4095 0.61418-0.70867 1.1693-1.1575 0.44883-1.0512 1.1103-1.7599 0.67324-0.70867 1.2047-0.70867 0.36615 0 0.36615 0.3189 0 0.56694-1.6418 1.6181-0.25985 0.16535-0.77954 0.48426l-0.14173 0.11811q-0.16536 0.54332-0.16536 0.89765 0 0.99215 0.74411 0.99215 0.92128 0 2.0079-1.5236 0.23622-0.25985 0.29528-0.25985 0.07087 0 0.07087 0.0709z"
         style="fill:#e2f1f6;fill-opacity:1"
         id="path68" />
      <path
         d="m86.551 141.03-0.09449 0.17716h-1.5473l-2.6339 4.5001q-0.48426 0.81498-0.48426 1.2992 0 0.5315 0.55513 0.5315 1.0748 0 3.626-3.7442 0.08268-0.11811 0.14174-0.11811 0.07087 0 0.07087 0.0709-0.01181 0.0354-0.11811 0.18898l-0.50788 0.69686q-2.2205 3.0827-3.3426 3.0827-0.55513 0-0.93309-0.40158-0.36615-0.40158-0.36615-1.004 0-0.70867 0.626-1.7717l1.9843-3.3308h-1.2047l0.11811-0.17716h1.1811l1.3819-2.2914q0.35434 0.0945 0.67324 0.0945 0.33072 0 0.68505-0.0945l-1.3583 2.2914z"
         style="fill:#e2f1f6;fill-opacity:1"
         id="path70" />
      <path
         d="m110.95 134.34q0 0.76773-1.063 1.5945 0.96852 1.4292 0.96852 2.6339 0 0.29528-0.17717 0.29528-0.14174 0-0.14174-0.38977 0-1.1811-0.82678-2.3977-1.7126 1.2756-4.6654 2.2087-2.941 0.92127-5.2206 0.92127-0.3189 0-0.55513-0.0236-1.8898 2.6339-1.8898 5.0788 0 1.6654 1.0276 2.6339 1.0394 0.96853 2.8229 0.96853 3.3662 0 6.0001-3.2245 1.5945-1.9488 1.5945-3.6969 0-0.92128-0.55513-1.4646-0.55513-0.54331-1.4764-0.54331-1.4764 0-3.1772 1.5591-1.689 1.5473-1.689 2.8938 0 0.11811 0.0709 0.11811 0.059-0.0118 0.0945-0.0472 0.3189-0.28347 0.59056-0.28347 0.60237 0 0.60237 0.64962 0 0.87403-0.85041 0.87403-0.77954 0-0.77954-0.9449 0-1.689 1.7126-3.3426 1.7126-1.6654 3.4725-1.6654 2.2678 0 2.2678 2.4922 0 2.5748-2.4686 4.7009-2.4567 2.1142-5.4568 2.1142-2.0906 0-3.5197-1.4055-1.4173-1.4055-1.4173-3.4725 0-2.0079 1.4055-4.1221-5.1143-0.9449-5.1143-4.0394 0-1.8426 1.9016-3.0827 1.9016-1.2402 4.7363-1.2402 3.9568 0 7.9962 2.6339 0.69687-0.14173 1.4292-0.14173 2.3504 0 2.3504 1.1575zm-0.18898 0q0-0.96852-1.8898-0.96852-0.59056 0-1.4055 0.16536 1.4055 0.96852 2.3268 2.2559 0.96852-0.82679 0.96852-1.4528zm-1.1457 1.5709q-0.90947-1.311-2.4449-2.3268-2.2087 0.60237-4.3111 2.0788-2.1024 1.4646-3.4489 3.3426 2.4685 0 5.4568-0.89765 3.0001-0.90946 4.7481-2.1969zm-2.7756-2.5394q-3.5906-2.0788-7.6419-2.0788-2.504 0-4.382 1.1811-1.8662 1.1811-1.8662 2.7638 0 2.8229 4.7954 3.6497 2.9764-4.1457 9.0946-5.5158z"
         style="fill:#e2f1f6;fill-opacity:1"
         id="path72" />
      <path
         d="m116.78 143.73q0 0.18898-0.69686 0.88584-1.0394 1.0394-1.9134 1.0394-0.36615 0-0.64962-0.14174-1.5591 2.2087-2.9292 2.2087-0.70867 0-1.2166-0.57875-0.49607-0.59056-0.49607-1.4055 0-1.8189 2.3859-3.5079 1.6772-1.1929 2.7638-1.1929 1.0158 0 1.0158 1.0866 0 1.3583-1.4292 3.2717 0.23622 0.14173 0.5315 0.14173 0.53151 0 1.2402-0.49607 0.70868-0.49607 1.1575-1.1929 0.12993-0.16536 0.18898-0.16536 0.0473 0 0.0473 0.0473zm-1.9134-1.5827q0-0.95671-0.86222-0.95671-1.0748 0-2.6221 2.0552-1.5473 2.0552-1.5473 3.4607 0 0.81498 0.77954 0.81498 1.2756 0 2.7874-2.1024-0.34253-0.37796-0.34253-0.77954 0-0.57875 0.46064-1.1929 0.46064-0.61419 0.89765-0.61419 0.18898 0 0.25985 0.23623 0.18898-0.4134 0.18898-0.92128z"
         style="fill:#e2f1f6;fill-opacity:1"
         id="path74" />
      <path
         d="m129.96 143.75q-0.0118 0.0354-0.11811 0.18898l-0.50788 0.69686q-2.2205 3.0827-3.2835 3.0827-0.55513 0-0.90947-0.41339-0.35433-0.4134-0.35433-1.063 0-0.66143 0.44882-1.4292 0.0827-0.14174 0.86222-1.2638 0.99215-1.4174 0.99215-1.8544 0-0.48426-0.48426-0.48426-1.5591 0-5.3505 6.4017-0.23623-0.0472-0.64962-0.0472-0.48426 0-0.82678 0.0472l1.6772-2.6575q1.6418-2.6221 1.6418-3.2126 0-0.53151-0.43701-0.53151-0.64962 0-2.126 1.8662-1.4764 1.8662-2.9292 4.5355-0.27166-0.0472-0.69686-0.0472-0.46064 0-0.80317 0.0472l1.689-2.6575q1.7481-2.7402 1.7481-3.3898 0-0.35434-0.27166-0.35434-0.57875 0-2.3977 2.5394-0.11811 0.16536-0.18898 0.16536-0.0472-0.0118-0.0472-0.0709 0-0.1063 1.0866-1.4764 1.063-1.3347 1.6418-1.3347 0.37796 0 0.64962 0.36614 0.27166 0.35434 0.27166 0.85041 0 0.68505-0.69686 1.9016 2.126-3.1182 3.1654-3.1182 0.49607 0 0.81497 0.40158t0.3189 1.004q0 0.67324-0.62599 1.7126 2.2441-3.1182 3.3662-3.1182 0.50788 0 0.85041 0.43701 0.35433 0.43702 0.35433 1.063 0 0.7323-0.57875 1.7126-0.0118 0.0118-1.0158 1.5118-0.57875 0.85041-0.57875 1.2992 0 0.48426 0.48426 0.48426 0.92127 0 3.0473-2.9764l0.36615-0.50788 0.2126-0.25985q0.0591-0.11811 0.11812-0.11811 0.0709 0 0.0709 0.0709z"
         style="fill:#e2f1f6;fill-opacity:1"
         id="path76" />
      <path
         d="m135.63 142.92q0 1.9252-2.3977 3.5079-1.9488 1.2874-3.0473 1.2874-0.75591 0-0.75591-0.70867 0-0.21261 0.11811-0.57875l-4.5237 7.5474q-0.4134-0.0945-0.67324-0.0945-0.38977 0-0.76773 0.14174l9.697-15.945q0.3189 0.1063 0.62599 0.1063 0.3189 0 0.77954-0.1063l-3.5079 5.6694q1.2638-1.6772 1.8307-2.1969 0.57875-0.51969 1.1457-0.51969 0.62599 0 1.0512 0.54331 0.4252 0.54332 0.4252 1.3465zm-0.87403-0.9449q0-0.76773-0.68505-0.76773-0.86222 0-2.8938 2.7756-1.5709 2.1496-1.5709 2.9528 0 0.60237 0.55513 0.60237 1.0866 0 2.8347-2.1142 1.7599-2.126 1.7599-3.4489z"
         style="fill:#e2f1f6;fill-opacity:1"
         id="path78" />
      <path
         d="m142.38 143.75q0 0.0354-0.2126 0.30709l-0.50788 0.63781q-2.4449 3.0237-4.193 3.0237-0.82678 0-1.3937-0.59056-0.55513-0.60237-0.55513-1.5 0-2.126 2.9646-3.7442 1.5591-0.8504 2.5394-0.8504 0.42521 0 0.72049 0.25984 0.30709 0.24804 0.30709 0.61419 0 0.8504-1.1103 1.4528-1.1102 0.59056-3.7087 1.1102-0.80317 1.2166-0.80317 2.0315 0 1.0158 1.0984 1.0158 1.8662 0 4.5709-3.6497 0.14174-0.18898 0.23623-0.18898 0.0472 0.0118 0.0472 0.0709zm-0.99214-2.1851q0-0.37796-0.41339-0.37796-0.626 0-1.6536 0.87403-1.0158 0.86222-1.9961 2.2441 1.7008-0.43702 2.8819-1.2284 1.1811-0.80317 1.1811-1.5118z"
         style="fill:#e2f1f6;fill-opacity:1"
         id="path80" />
      <path
         d="m146.74 141.03-0.0945 0.17716h-1.5473l-2.6339 4.5001q-0.48426 0.81498-0.48426 1.2992 0 0.5315 0.55513 0.5315 1.0748 0 3.626-3.7442 0.0827-0.11811 0.14173-0.11811 0.0709 0 0.0709 0.0709-0.0118 0.0354-0.11811 0.18898l-0.50789 0.69686q-2.2205 3.0827-3.3426 3.0827-0.55512 0-0.93308-0.40158-0.36615-0.40158-0.36615-1.004 0-0.70867 0.62599-1.7717l1.9843-3.3308h-1.2047l0.11811-0.17716h1.1811l1.3819-2.2914q0.35434 0.0945 0.67324 0.0945 0.33072 0 0.68506-0.0945l-1.3583 2.2914z"
         style="fill:#e2f1f6;fill-opacity:1"
         id="path82" />
      <path
         d="m150.27 138.86q0 0.41339-0.35434 0.77954-0.34252 0.35434-0.75591 0.35434-0.53151 0-0.53151-0.53151 0-0.38977 0.36615-0.74411 0.36615-0.36614 0.76773-0.36614 0.50788 0 0.50788 0.50788zm0.16536 4.8898q-0.0118 0.0354-0.11811 0.18898l-0.50789 0.69686q-2.2205 3.0827-3.3898 3.0827-0.55513 0-0.93309-0.38977-0.36614-0.40158-0.36614-0.99214 0-0.68505 0.81497-2.0788l1.8426-3.13q0.36615 0.0827 0.57875 0.0827 0.31891 0 0.89766-0.0827l-2.6812 4.4056q-0.57875 0.95671-0.57875 1.4764 0 0.5315 0.55512 0.5315 1.0512 0 3.6969-3.7442 0.059-0.11811 0.11811-0.11811 0.0709 0 0.0709 0.0709z"
         style="fill:#e2f1f6;fill-opacity:1"
         id="path84" />
      <path
         d="m154.82 141.03-0.0945 0.17716h-1.5473l-2.6339 4.5001q-0.48426 0.81498-0.48426 1.2992 0 0.5315 0.55513 0.5315 1.0748 0 3.626-3.7442 0.0827-0.11811 0.14173-0.11811 0.0709 0 0.0709 0.0709-0.0118 0.0354-0.11811 0.18898l-0.50789 0.69686q-2.2205 3.0827-3.3426 3.0827-0.55513 0-0.93309-0.40158-0.36615-0.40158-0.36615-1.004 0-0.70867 0.626-1.7717l1.9843-3.3308h-1.2047l0.11811-0.17716h1.1811l1.3819-2.2914q0.35433 0.0945 0.67324 0.0945 0.33071 0 0.68505-0.0945l-1.3583 2.2914z"
         style="fill:#e2f1f6;fill-opacity:1"
         id="path86" />
      <path
         d="m158.35 138.86q0 0.41339-0.35434 0.77954-0.34252 0.35434-0.75591 0.35434-0.53151 0-0.53151-0.53151 0-0.38977 0.36615-0.74411 0.36615-0.36614 0.76773-0.36614 0.50788 0 0.50788 0.50788zm0.16536 4.8898q-0.0118 0.0354-0.11811 0.18898l-0.50789 0.69686q-2.2205 3.0827-3.3898 3.0827-0.55513 0-0.93309-0.38977-0.36614-0.40158-0.36614-0.99214 0-0.68505 0.81497-2.0788l1.8426-3.13q0.36615 0.0827 0.57875 0.0827 0.31891 0 0.89766-0.0827l-2.6812 4.4056q-0.57875 0.95671-0.57875 1.4764 0 0.5315 0.55512 0.5315 1.0512 0 3.6969-3.7442 0.0591-0.11811 0.11811-0.11811 0.0709 0 0.0709 0.0709z"
         style="fill:#e2f1f6;fill-opacity:1"
         id="path88" />
      <path
         d="m165.53 143.73q0 0.18898-0.69686 0.88584-1.0394 1.0394-1.9134 1.0394-0.36615 0-0.64962-0.14174-1.5591 2.2087-2.9292 2.2087-0.70868 0-1.2166-0.57875-0.49607-0.59056-0.49607-1.4055 0-1.8189 2.3859-3.5079 1.6772-1.1929 2.7638-1.1929 1.0158 0 1.0158 1.0866 0 1.3583-1.4292 3.2717 0.23623 0.14173 0.53151 0.14173 0.5315 0 1.2402-0.49607 0.70867-0.49607 1.1575-1.1929 0.12992-0.16536 0.18898-0.16536 0.0472 0 0.0472 0.0473zm-1.9134-1.5827q0-0.95671-0.86222-0.95671-1.0748 0-2.6221 2.0552-1.5473 2.0552-1.5473 3.4607 0 0.81498 0.77954 0.81498 1.2756 0 2.7874-2.1024-0.34253-0.37796-0.34253-0.77954 0-0.57875 0.46064-1.1929 0.46064-0.61419 0.89765-0.61419 0.18898 0 0.25985 0.23623 0.18898-0.4134 0.18898-0.92128z"
         style="fill:#e2f1f6;fill-opacity:1"
         id="path90" />
      <path
         d="m175.04 143.75q0 0.24803-1.7126 2.2914-1.4055 1.6772-2.2087 1.6772-0.53151 0-0.89766-0.41339-0.35433-0.4134-0.35433-1.0158 0-0.5315 0.2126-0.98033 0.22441-0.46064 1.1457-1.8071 0.95671-1.4174 0.95671-1.8071 0-0.48426-0.50789-0.48426-1.7244 0-5.315 6.4017-0.57875-0.0472-0.69686-0.0472-0.41339 0-0.77954 0.0472l1.8426-2.9174q1.5709-2.504 1.5709-3.13 0-0.35434-0.29528-0.35434-0.60237 0-2.374 2.5394-0.10631 0.15354-0.16536 0.16536-0.0591 0-0.0709-0.0709 0.0118-0.0591 0.0472-0.0945l0.22441-0.29528q1.8071-2.4213 2.4331-2.4213 0.40158 0 0.68505 0.36614 0.28347 0.36615 0.28347 0.87403 0 0.75592-0.88584 2.1024 1.3937-1.9252 2.1378-2.6339 0.75592-0.70867 1.3937-0.70867 0.51969 0 0.87403 0.4252t0.35434 1.0512q0 0.79135-1.0866 2.4213-1.1102 1.6654-1.1102 2.126 0 0.48426 0.48426 0.48426 1.0512 0 3.626-3.7442 0.0591-0.11811 0.11812-0.11811 0.0709 0 0.0709 0.0709z"
         style="fill:#e2f1f6;fill-opacity:1"
         id="path92" />
    </g>
    <g
       transform="matrix(.83944 -.54228 .54514 .83504 -.017369 .13807)"
       style="dominant-baseline:auto;fill:#e2f1f6;font-feature-settings:normal;font-variant-alternates:normal;font-variant-caps:normal;font-variant-ligatures:normal;font-variant-numeric:normal;font-variant-position:normal;shape-padding:0;text-decoration-color:#000000;text-decoration-line:none;text-decoration-style:solid;text-indent:0;text-orientation:mixed;text-transform:none;white-space:normal;fill-opacity:1"
       aria-label="M"
       id="g98">
      <path
         d="m19.213 31.388q0 0.02373-0.12816 0.09019-0.55537 0.2943-0.97784 0.84967-0.42246 0.55537-0.9636 1.7041-0.78797 1.6709-1.4098 2.4019-0.61708 0.731-1.5285 1.049 0.42246 0.06171 0.65031 0.06171 0.731 0 1.1677-0.30854 0.44145-0.31329 1.2437-1.3956 0.05222-0.06645 0.0807-0.06645 0.01899 0.0047 0.01899 0.02848 0 0.04747-0.4462 0.61234-0.54588 0.69303-0.97784 0.94461-0.42721 0.25158-1.0538 0.25158-0.38924 0-0.84018-0.08544-0.31804 0.10443-0.65031 0.10443-0.25158 0-0.25158-0.09494 0-0.11867 0.35126-0.11867 0.19462 0 0.51265 0.04747h0.06171q0.50316-0.18038 0.84967-0.56961 0.35126-0.39398 0.84018-1.3244 0.99208-1.8845 1.5712-2.6677 0.56012-0.74999 1.3433-1.2816 0.39398-0.26107 0.5079-0.26107 0.02848 0 0.02848 0.02848zm2.2832 1.2864q0 0.18512-0.04272 0.36076-0.03797 0.17088-0.08069 0.17088-0.03323 0-0.03323-0.02848 0.0047-0.01899 0.0095-0.03798 0.0712-0.16614 0.0712-0.4462 0-0.63132-0.50316-1.068-0.50316-0.44145-1.2294-0.44145-1.1725 0-2.4019 1.1487-0.48417 0.45094-0.83543 0.87815-0.33702 0.40348-1.3196 1.7088-1.4525 1.9224-2.3829 2.4019-0.41772 0.2136-0.53639 0.2136-0.02848 0-0.02848-0.03323 0.0047-0.0047 0.09968-0.07595 0.46518-0.34652 0.7405-0.93037 0.25633-0.53639 0.92088-2.5395 0.56487-1.7088 1.2911-2.4493 0.02848-0.02848 0.02848-0.04747-0.06171-0.01899-0.28006 0.20411-0.70727 0.70252-1.6614 2.5253-0.5886 1.1202-1.0348 1.6993-0.44145 0.57436-1.0538 1.0111-1.0063 0.72151-2.0221 0.72151-0.6598 0-1.0775-0.27531-0.41297-0.28006-0.41297-0.71676 0-0.24683 0.1424-0.41297 0.1424-0.17088 0.35601-0.17088 0.30854 0 0.30854 0.30379 0 0.15664-0.099682 0.27057-0.099682 0.10918-0.24209 0.10918-0.23259 0-0.23259-0.25633 0-0.09494-0.037974-0.09494-0.075949 0-0.075949 0.26107 0 0.38924 0.38449 0.64082 0.38924 0.24683 0.99682 0.24683 1.2389 0 2.4304-1.2864 0.47942-0.5174 0.8117-1.0063 0.33228-0.49366 1.3244-2.1408 0.41772-0.69778 0.93986-1.2674 0.52689-0.56961 0.74999-0.56961 0.03323 0 0.03323 0.02848-0.0047 0.01899-0.01899 0.03797-0.44145 0.48417-0.79746 1.8275-0.53164 1.9699-1.0016 2.8671-0.46518 0.87341-1.1962 1.3244-0.01899 0.0047-0.01899 0.01899 0.0047 0.0047 0.01899 0.0095 0.10918 0 0.53164-0.30379 0.51265-0.36076 0.94461-0.86391 0.43196-0.50316 1.5664-2.0601 0.80221-1.1013 1.2721-1.6092 0.47468-0.51265 1.049-0.90189 0.89714-0.60284 1.8085-0.60284 0.79746 0 1.3101 0.46518 0.5174 0.46518 0.5174 1.1819zm-7.5236-0.26582q0 0.10443-0.27057 0.40822-0.40822 0.46044-0.78796 0.46044-0.26107 0-0.44145-0.18987-0.18038-0.19462-0.18038-0.47468 0-0.27057 0.19462-0.65031 0.24209-0.47468 0.24209-0.6693 0-0.24209-0.22784-0.38924-0.22785-0.14715-0.5981-0.14715-1.0585 0-1.9889 0.85442-0.93037 0.85442-0.93037 1.818 0 0.49841 0.30379 0.81645 0.30854 0.31329 0.78797 0.31329 0.42721 0 0.86392-0.24209 0.44145-0.24683 0.71202-0.63132 0.01899-0.02373 0.02848-0.02373 0.03798 0 0.03798 0.04272 0 0.09494-0.30379 0.3655-0.62658 0.56487-1.3576 0.56487-0.51265 0-0.83543-0.33228-0.32278-0.33228-0.32278-0.86391 0-1.0301 0.94936-1.894 0.9541-0.86392 2.0838-0.86392 0.46518 0 0.72626 0.23259 0.26582 0.23259 0.26582 0.64082 0 0.30379-0.30379 0.92562-0.10443 0.21835-0.10443 0.34652 0 0.36076 0.38924 0.36076 0.23259 0 0.5174-0.2231 0.28955-0.2231 0.46518-0.54588 0.02373-0.04747 0.04747-0.04747 0.03797 0 0.03797 0.03797z"
         style="fill:#e2f1f6;stroke-width:0.24304;fill-opacity:1"
         id="path96" />
    </g>
  </g>
</svg>
