<svg width="90.33mm" height="35.19mm" version="1.1" viewBox="0 0 90.33 35.19" xmlns="http://www.w3.org/2000/svg"><defs><clipPath id="clipPath3951"><path d="m0 500h500v-500h-500z"/></clipPath></defs><g transform="matrix(.9875 0 0 .9945 82.27 -116.9)" style="stroke-width:1.009"><g transform="matrix(.3528 0 0 -.3528 -98.17 223.8)" style="stroke-width:1.009"><g clip-path="url(#clipPath3951)" style="stroke-width:1.009"><g transform="translate(120.1,241.3)" style="stroke-width:1.009"><path id="liner" d="m0 0c-34.29-12.87-66.42-11.78-71.76 2.452-2.16 5.752 0.393 12.77 6.465 19.94-9.886-9.053-14.66-18.33-11.94-25.58 5.34-14.23 37.47-15.32 71.76-2.452 20.43 7.667 37.01 18.56 45.96 29.13-9.49-8.69-23.69-17.18-40.48-23.48" style="fill:#007a93;stroke-width:1.009"/></g><g transform="translate(59.92,238.4)" style="stroke-width:1.009"><path d="m0 0c1.786-0.65 3.807-1.172 5.956-1.559 4.304-0.783 9.088-1.065 14-0.978 4.92 0.089 9.992 0.536 15.05 1.267 5.065 0.725 10.12 1.731 15.07 2.939 2.467 0.612 4.931 1.248 7.31 1.973l0.911 0.277 0.868 0.279c0.578 0.187 1.154 0.365 1.735 0.57 1.163 0.389 2.309 0.803 3.447 1.219 4.536 1.694 8.853 3.582 12.86 5.572 4.01 1.984 7.716 4.058 11.06 6.113 1.889 1.158 3.655 2.313 5.3 3.442-4.021 23.47-24.46 41.32-49.07 41.32-27.5 0-49.8-22.29-49.8-49.8 0-3.627 0.391-7.163 1.128-10.57 1.089-0.76 2.529-1.478 4.176-2.074" style="fill:none;stroke-width:.7568;stroke:#001d3f"/></g><g transform="translate(149.9,253.7)" style="stroke-width:1.009"><path d="m0 0c-3.158-2.467-6.697-5.001-10.58-7.493-3.878-2.497-8.104-4.94-12.63-7.23-1.134-0.564-2.282-1.13-3.453-1.673-0.578-0.279-1.183-0.544-1.784-0.815l-0.905-0.405-0.88-0.379c-2.4-1.031-4.826-2.03-7.313-2.983-4.967-1.904-10.12-3.629-15.38-5.08-5.263-1.454-10.64-2.634-16.08-3.428-5.436-0.784-10.93-1.195-16.47-0.914-0.458 0.023-0.918 0.06-1.377 0.094 8.935-13.33 24.14-22.1 41.39-22.1 27.5 0 49.8 22.29 49.8 49.8 0 1.983-0.12 3.938-0.346 5.861-1.256-1.062-2.587-2.147-3.999-3.245" style="fill:none;stroke-width:.7568;stroke:#001d3f"/></g></g></g></g><text x="42.02354" y="28.467075" style="fill:#002142;font-family:sans-serif;font-feature-settings:normal;font-size:12px;font-variant-caps:normal;font-variant-ligatures:normal;font-variant-numeric:normal;letter-spacing:0px;line-height:1.25;stroke-width:.2646;word-spacing:0px" xml:space="preserve"><tspan x="42.02354" y="28.467075" style="fill:#002142;font-family:sans-serif;font-feature-settings:normal;font-size:12px;font-variant-caps:normal;font-variant-ligatures:normal;font-variant-numeric:normal;stroke-width:.2646">Planet</tspan></text><text x="42.027157" y="34.955227" style="fill:#002142;font-family:sans-serif;font-feature-settings:normal;font-size:6.022px;font-variant-caps:normal;font-variant-ligatures:normal;font-variant-numeric:normal;letter-spacing:0px;line-height:1.25;stroke-width:.2646;word-spacing:0px" xml:space="preserve"><tspan x="42.027157" y="34.955227" style="fill:#002142;font-family:sans-serif;font-feature-settings:normal;font-size:6.022px;font-variant-caps:normal;font-variant-ligatures:normal;font-variant-numeric:normal;stroke-width:.2646">Smart Solutions</tspan></text></svg>
