<svg width="72.9mm" height="51.92mm" version="1.1" viewBox="0 0 72.9 51.92" xmlns="http://www.w3.org/2000/svg"><defs><clipPath id="clipPath3951"><path d="m0 500h500v-500h-500z"/></clipPath><filter id="filter880" style="color-interpolation-filters:sRGB"><feBlend in2="BackgroundImage" mode="multiply"/></filter></defs><g transform="matrix(.1711 0 .05764 .09324 -.9655 21.24)" style="fill:#fff;stroke-opacity:.2588;stroke-width:4.19;stroke:#002142"><g id="XMLID_110_" style="fill:#fff;stroke-opacity:.2588;stroke-width:4.19;stroke:#002142"><path id="XMLID_138_" d="m3.396 35.51 96.6 96.6v-128.3l-89.31 26.79c-2.942 0.883-5.446 2.619-7.294 4.881z" style="fill:#fff;stroke-opacity:.2588;stroke-width:4.19;stroke:#002142"/><path id="XMLID_169_" d="m324 32.98c-3.805-2.83-8.724-3.697-13.26-2.332l-80.69 24.21v103.8l100 96.66v-210.3c0-4.743-2.242-9.205-6.046-12.04z" style="fill:#fff;stroke-opacity:.2588;stroke-width:4.19;stroke:#002142"/><path id="XMLID_197_" d="m0 285c0 4.74 2.242 9.203 6.046 12.03 3.804 2.832 8.723 3.697 13.26 2.334l80.69-24.21v-100.6l-100-100z" style="fill:#fff;stroke-opacity:.2588;stroke-width:4.19;stroke:#002142"/><polygon id="XMLID_221_" points="200 132.9 130 258.9 130 281.5 200 323.5" style="fill:#fff;stroke-opacity:.2588;stroke-width:4.19;stroke:#002142"/><path id="XMLID_222_" d="m230 326.2 89.31-26.79c3.121-0.936 5.754-2.828 7.627-5.295l-96.94-93.7z" style="fill:#fff;stroke-opacity:.2588;stroke-width:4.19;stroke:#002142"/><polygon id="XMLID_223_" points="130 6.506 130 168.3 130 197.1 200 71.12 200 48.52" style="fill:#fff;stroke-opacity:.2588;stroke-width:4.19;stroke:#002142"/></g></g><g transform="translate(-43.23 13.55)"><g transform="matrix(.09046 0 0 .09014 49.4 -13.01)" style="filter:url(#filter880);stroke-width:3.907"><path transform="matrix(2.925,0,0,2.935,6.651e-6,7.978e-7)" d="m54.7 0c-30.16 0-54.7 24.45-54.7 54.51v0.354c0 14.56 5.692 28.25 16.02 38.53l4.236 4.218c11.2 11.16 30.32 37.27 34.43 52.26 4.127-15.01 23.25-41.12 34.46-52.26l4.236-4.218c10.33-10.29 16.02-23.98 16.02-38.53v-0.354c0-30.06-24.54-54.51-54.7-54.51zm0 149.9s-0.2578-1.662 0 0c0 0-4.53 6.8e-4 -0.0014 6.8e-4 4.53 0 0.0014-6.8e-4 0.0014-6.8e-4 0.2578-1.662 0 0 0 0s-0.259 0.0307 0 0zm49.23-95.05s-38.69-8.169-47.99 1.091c-14.53 14.48-1.295 73.52-1.244 93.92-0.2765 1.779 0 0 0 0-0.1495-20.63 16.77-73.89 2.243-88.37-9.296-9.267 12.09-5.167-0.9994-5.55l-50.48-1.476c-27.04-0.7905 24.33 7.025 51.48 7.025s-0.9994-32.6-0.9994-5.55z" style="enable-background:new;fill:#fff;filter:url(#filter880);stroke-width:1.333"/><path d="m160 0c-88.22 0-160 71.78-160 160v1.039c0 42.74 16.65 82.92 46.86 113.1l12.39 12.38c32.75 32.76 88.67 109.4 100.7 153.4 12.07-44.07 68-120.7 100.8-153.4l12.39-12.38c30.21-30.21 46.86-70.4 46.86-113.1v-1.039c0-88.22-71.78-160-160-160zm0 440s-0.7539-4.879 0 0c0 0-13.25 2e-3 -4e-3 2e-3 13.25 0 4e-3 -2e-3 4e-3 -2e-3 0.7539-4.879 0 0 0 0s-0.7576 0.0901 0 0zm144-279c0 38.46-14.98 74.62-42.18 101.8l-12.39 12.39c-42.49 42.5-80.3 105.4-89.43 164.7-0.8086 5.223 0 0 0 0-9.137-59.38-46.95-122.3-89.43-164.8l-12.39-12.38c-27.19-27.2-42.18-63.36-42.18-101.8v-1.039c0-79.4 64.6-144 144-144s144 64.6 144 144z" style="fill:#002142;stroke-width:3.907"/></g><g transform="matrix(.6664 0 0 .6686 104.5 -88.86)" style="filter:url(#filter880);stroke-width:1.498"><g transform="matrix(.3528 0 0 -.3528 -98.17 223.8)" style="stroke-width:1.498"><g clip-path="url(#clipPath3951)" style="stroke-width:1.498"><g transform="translate(120.1,241.3)" style="stroke-width:1.498"><path d="m7.522 5.186c-41.56-17.75-81.01-17.03-88.11 0.9026-2.869 7.249-0.0061 16.3 7.167 25.67-11.78-11.93-17.28-23.94-13.67-33.08 7.093-17.93 46.54-18.65 88.11-0.9026 24.76 10.57 44.68 27.4 55.26 41.22-11.31-11.45-28.4-25.12-48.75-33.81" style="fill:#00a4b2;stroke-width:1.498"/></g><g transform="translate(59.92,238.4)" style="stroke-width:1.498"><path d="m1.373 2.599c1.757-0.65 3.744-1.172 5.858-1.559 4.233-0.783 8.938-1.065 13.77-0.978 4.839 0.089 9.827 0.536 14.8 1.267 4.981 0.725 9.953 1.731 14.82 2.939 2.426 0.612 4.85 1.248 7.189 1.973l0.896 0.277 0.8537 0.279c0.5685 0.187 1.135 0.365 1.706 0.57 1.144 0.389 2.271 0.803 3.39 1.219 4.461 1.694 8.707 3.582 12.65 5.572 3.944 1.984 7.589 4.058 10.88 6.113 1.858 1.158 3.595 2.313 5.212 3.442-3.955 23.47-24.06 41.32-48.26 41.32-27.05 0-48.98-22.29-48.98-49.8 0-3.627 0.3845-7.163 1.109-10.57 1.071-0.76 2.487-1.478 4.107-2.074" style="fill:#002142;stroke-width:1.498"/></g><g transform="translate(149.9,253.7)" style="stroke-width:1.498"><path d="m0 0c-3.158-2.467-6.697-5.001-10.58-7.493-3.878-2.497-8.104-4.94-12.63-7.23-1.134-0.564-2.282-1.13-3.453-1.673-0.578-0.279-1.183-0.544-1.784-0.815l-0.905-0.405-0.88-0.379c-2.4-1.031-4.826-2.03-7.313-2.983-4.967-1.904-10.12-3.629-15.38-5.08-5.263-1.454-10.64-2.634-16.08-3.428-5.436-0.784-10.93-1.195-16.47-0.914-0.458 0.023-0.918 0.06-1.377 0.094 8.935-13.33 24.14-22.1 41.39-22.1 27.5 0 49.8 22.29 49.8 49.8 0 1.983-0.12 3.938-0.346 5.861-1.256-1.062-2.587-2.147-3.999-3.245" style="fill:#002142;stroke-width:1.498"/></g></g></g></g></g></svg>
