<svg width="333" height="333" version="1.1" viewBox="0 0 88.11 88.11" xmlns="http://www.w3.org/2000/svg"><path d="m44.3 0.2354c-20.53 0-37.23 14.31-37.23 31.9v0.2071c0 8.52 3.874 16.53 10.9 22.55l2.883 2.468c7.623 6.53 20.64 21.81 23.44 30.58 2.809-8.783 15.83-24.06 23.46-30.58l2.883-2.468c7.031-6.021 10.9-14.03 10.9-22.55v-0.2071c0-17.59-16.7-31.9-37.23-31.9zm0 87.71s-0.1755-0.9725 0 0c0 0-3.083 3.98e-4 -9.53e-4 3.98e-4 3.083 0 9.53e-4 -3.98e-4 9.53e-4 -3.98e-4 0.1755-0.9725 0 0 0 0s-0.1763 0.01796 0 0zm33.51-55.62s-26.34-4.78-32.67 0.6384c-9.89 8.473-0.8815 43.02-0.8468 54.96-0.1882 1.041 0 0 0 0-0.1018-12.07 11.41-43.24 1.527-51.71-6.327-5.422 8.229-3.023-0.6803-3.247l-34.36-0.8637c-18.41-0.4625 16.56 4.111 35.04 4.111 18.48 0-0.6803-19.08-0.6803-3.247z" style="enable-background:new;fill:#fff;stroke-width:.3527"/><g transform="translate(0,-208.9)"><ellipse cx="37.4" cy="223.1" rx="8.214" ry="7.688" style="fill:#002142;paint-order:normal"/><ellipse cx="20.97" cy="237.4" rx="4.694" ry="4.393" style="fill:#002142;paint-order:normal"/><ellipse cx="59.51" cy="230.5" rx="6.745" ry="6.312" style="fill:#002142;paint-order:normal"/><ellipse cx="60.79" cy="257.1" rx="4.694" ry="4.393" style="fill:#002142;paint-order:normal"/><ellipse cx="33.3" cy="264.5" rx="2.579" ry="2.414" style="fill:#002142;paint-order:normal"/><ellipse cx="49.72" cy="264.9" rx="3.491" ry="3.267" style="fill:#002142;paint-order:normal"/><path d="m45.33 209.1c-21.26-0.8723-38.6 14.47-38.6 32.26v0.2092c0 8.617 4.017 16.72 11.31 22.8l2.989 2.497c7.904 6.605 21.4 22.06 24.3 30.93 0.0021-7e-3 0.0056-0.0147 0.0083-0.022-2.21-11.97-11.33-24.64-21.57-33.21l-2.988-2.496c-6.56-5.484-10.18-12.78-10.18-20.52v-0.2092c0-16.01 15.77-31.71 34.92-32.14 1.647-0.037 1.626-0.0185-0.1764-0.0925zm-0.0028 88.65c7.06e-4 5e-3 0.0021 0.0108 0.0028 0.0161 0.0035-0.0193 0.0088-0.0385 0.01242-0.0578-0.0042 0.0137-0.01066 0.028-0.01517 0.0416zm0.01517-0.0416c2.955-8.895 16.4-24.29 24.3-30.86-10.23 8.557-22.07 18.93-24.3 30.86z" style="fill:#002142;stroke-width:.3528"/><path d="m30.36 243.6-9.481-5.953" style="fill:#002142;stroke-width:.7936;stroke:#002142"/><path d="m40.07 241.9-2.203-16.58" style="fill:#002142;stroke-width:1.058;stroke:#002142"/><path d="m48.9 243.1 6.619-7.92" style="fill:#002142;stroke-width:.7936;stroke:#002142"/><path d="m50.2 255.6 14.14 1.879" style="fill:#002142;stroke-width:.5292;stroke:#002142"/><path d="m45.8 258.5 3.483 6.267" style="fill:#002142;stroke-width:.2645;stroke:#002142"/><path d="m36.71 259.5-3.438 4.565" style="fill:#002142;stroke-width:.2645;stroke:#002142"/><path d="m88.65 228.7c-7.074 6.527-17.7 14.25-30.21 18.98l-0.0041-1.3e-4c-25.55 9.66-49.48 8.493-53.46-2.194-1.608-4.321-1.26-8.405 3.266-13.79-7.369 6.802-9.175 12.31-7.348 18.02 3.977 10.69 27.91 11.86 53.46 2.194 15.22-5.754 27.62-15.29 34.29-23.22z" style="fill:#00a6b1;stroke-width:.3528"/><path d="m53.8 248a13.49 12.63 0 0 0-0.1378-1.065 13.49 12.63 0 0 0-0.295-1.232 13.49 12.63 0 0 0-0.4259-1.197 13.49 12.63 0 0 0-0.5513-1.153 13.49 12.63 0 0 0-0.6713-1.095 13.49 12.63 0 0 0-0.784-1.027 13.49 12.63 0 0 0-0.8906-0.9484 13.49 12.63 0 0 0-0.9866-0.8606 13.49 12.63 0 0 0-1.073-0.7648 13.49 12.63 0 0 0-1.151-0.6591 13.49 12.63 0 0 0-1.214-0.5495 13.49 12.63 0 0 0-1.268-0.4334 13.49 12.63 0 0 0-1.307-0.3122 13.49 12.63 0 0 0-1.334-0.1884 13.49 12.63 0 0 0-1.346-0.0632 13.49 12.63 0 0 0-0.9555 0.031 13.49 12.63 0 0 0-1.339 0.1522 13.49 12.63 0 0 0-1.316 0.2773 13.49 12.63 0 0 0-1.279 0.3973 13.49 12.63 0 0 0-1.232 0.5159 13.49 12.63 0 0 0-1.17 0.6282 13.49 12.63 0 0 0-1.097 0.7351 13.49 12.63 0 0 0-1.013 0.8322 13.49 12.63 0 0 0-0.9195 0.9246 13.49 12.63 0 0 0-0.8172 1.005 13.49 12.63 0 0 0-0.7043 1.076 13.49 12.63 0 0 0-0.5871 1.138 13.49 12.63 0 0 0-0.4631 1.186 13.49 12.63 0 0 0-0.3336 1.223 13.49 12.63 0 0 0-0.2013 1.249 13.49 12.63 0 0 0-0.06753 1.261 13.49 12.63 0 0 0 0.03444 0.8929 13.49 12.63 0 0 0 0.1612 1.254 13.49 12.63 0 0 0 0.1433 0.5972c0.8913 0.0262 1.771 0.0734 2.684 0.058 3.034-0.0524 6.163-0.3165 9.28-0.747 3.123-0.4269 6.24-1.018 9.294-1.73 1.521-0.3603 3.042-0.7351 4.509-1.162l0.561-0.1625z" style="fill:#002142;stroke-width:.3528"/><path d="m32.98 259.7a13.49 12.63 0 0 0 0.9012 0.5186 13.49 12.63 0 0 0 1.216 0.5482 13.49 12.63 0 0 0 1.267 0.4334 13.49 12.63 0 0 0 1.307 0.3122 13.49 12.63 0 0 0 1.334 0.1884 13.49 12.63 0 0 0 1.348 0.0632 13.49 12.63 0 0 0 0.9541-0.031 13.49 12.63 0 0 0 1.339-0.1522 13.49 12.63 0 0 0 1.316-0.2761 13.49 12.63 0 0 0 1.28-0.3986 13.49 12.63 0 0 0 1.231-0.5159 13.49 12.63 0 0 0 1.17-0.6282 13.49 12.63 0 0 0 1.097-0.7338 13.49 12.63 0 0 0 1.015-0.8335 13.49 12.63 0 0 0 0.9195-0.9233 13.49 12.63 0 0 0 0.8158-1.006 13.49 12.63 0 0 0 0.7057-1.076 13.49 12.63 0 0 0 0.561-1.087c-1.048 0.4107-2.09 0.8262-3.167 1.214-3.115 1.121-6.346 2.137-9.647 2.991-2.28 0.5914-4.629 0.9774-6.966 1.393z" style="fill:#002142;stroke-width:.3528"/></g></svg>
