<?xml version="1.0" encoding="utf-8"?>
<!-- Svg Vector Icons : http://www.onlinewebfonts.com/icon -->
<!DOCTYPE svg PUBLIC "-//W3C//DTD SVG 1.1//EN" "http://www.w3.org/Graphics/SVG/1.1/DTD/svg11.dtd">
<svg version="1.1" xmlns="http://www.w3.org/2000/svg" xmlns:xlink="http://www.w3.org/1999/xlink" x="0px" y="0px" viewBox="0 0 1000 1000" enable-background="new 0 0 1000 1000" xml:space="preserve">
<metadata> Svg Vector Icons : http://www.onlinewebfonts.com/icon </metadata>
<g><path d="M492.6,874.7c3.1,2.7,6.4,3.8,9.8,3.8c8.8,0,18.3-6.9,25.9-12.3l34.3-24.6c4.7-1.1,9-2.4,12.8-4.1c1.6,0.9,3.4,1.9,5.2,3l9.6,5.8l14.2-19.4l-9.6-5.8c-0.3-0.3-0.6-0.4-0.9-0.6c4.1-9.4,2.5-20.3-4.5-31c-9.8-15.1-32-30.5-54-28.7c-16.8,1.3-24.1,8.9-27.2,15c-7.1,14.1,2.5,32.4,9.4,42.8c-0.5,0.6-0.9,1.1-1.3,1.6c-3.3-0.2-6.7-0.6-10.2-1c-38.4-4.3-45.7-11.9-47.1-14.1c-2-3.5,1.6-10.5,4.7-16.8c4.6-9,10.3-20.2,3.5-30.7c-6.9-10.7-22.5-13.1-35.4-14.1c-26.1-1.8-38.1,7.6-43.5,15.9c-19.7,30.8,23,92.1,31.8,104.1l21.4-12.9c-17.7-24-39.7-66-31-79.3c2.9-4.6,12.1-4.9,19.3-4.4c10.1,0.7,14,2.4,14.8,2c-0.4,2.1-2.7,6.7-4.1,9.8c-5.2,10.2-12.2,24.1-3.8,37.9c8.1,13.2,27.6,21.2,62.9,25.4C482.8,865.9,487.7,870.2,492.6,874.7L492.6,874.7z M531.5,785.4c0,0,1.2-1,6-1.4c0.4,0,0.7,0,1.1,0c9.3,0,22.5,7.9,28.8,17.5c0.9,1.5,2.5,4.2,2.8,7l-1.8-0.8l-17,12.1c-0.9,0.3-2,0.4-3,0.4l0.8-0.9l-5.7-7.1C534.9,801.5,529.7,788.4,531.5,785.4L531.5,785.4z M625,878.4l2.2-23.3c-66.9-5.3-106.1,43.7-107.7,45.8l20.9,13.5C540.8,914,572.3,874.3,625,878.4L625,878.4z M666.8,883.2l3.2-23.6l-25.4-2.8l-3.2,23.6L666.8,883.2L666.8,883.2z M790,694.1l-8.1,7.4l-11.5,10.5v235.3H61.3V52.7h709.2v384.1l51.3-46.7V6H10v988h811.8V665.2L790,694.1L790,694.1L790,694.1z M245,122.7h341.8v46.7H245V122.7L245,122.7z M140.6,243.3h534.1v26.3H140.6V243.3L140.6,243.3z M140.6,321.9h534.1v26.5H140.6V321.9L140.6,321.9z M140.6,402.8h534.1v26.4H140.6V402.8L140.6,402.8z M140.6,484.9h534.1v26.2H140.6V484.9L140.6,484.9z M893.2,359.1l-45.2,41.1l96.8,88.2l45.3-41.3L893.2,359.1L893.2,359.1z M617.5,610l96.8,88.2L934.1,498l-96.8-88.1L617.5,610L617.5,610z M697.5,713.5l-96.9-88.1l-10.5,9.6l-27.4,113l124.2-24.8L697.5,713.5L697.5,713.5z"/></g>
</svg>