<?xml version="1.0"?>
<svg xmlns="http://www.w3.org/2000/svg" viewBox="0 0 16 16">
    <path style="line-height:normal;text-indent:0;text-align:start;text-decoration-line:none;text-decoration-style:solid;text-decoration-color:#000;text-transform:none;block-progression:tb;isolation:auto;mix-blend-mode:normal" d="M 6.5 1 C 5.6774686 1 5 1.6774686 5 2.5 L 5 3 L 2.5 3 C 1.673 3 1 3.673 1 4.5 L 1 12.5 C 1 13.327 1.673 14 2.5 14 L 9 14 L 9 13.914062 L 8.2929688 13.207031 L 8.0859375 13 L 2.5 13 C 2.225 13 2 12.776 2 12.5 L 2 10 L 9 10 L 9 9 L 2 9 L 2 4.5 C 2 4.224 2.225 4 2.5 4 L 13.5 4 C 13.775 4 14 4.224 14 4.5 L 14 9 L 15 9 L 15 4.5 C 15 3.673 14.327 3 13.5 3 L 11 3 L 11 2.5 C 11 1.6774686 10.322531 1 9.5 1 L 6.5 1 z M 6.5 2 L 9.5 2 C 9.7814686 2 10 2.2185314 10 2.5 L 10 3 L 6 3 L 6 2.5 C 6 2.2185314 6.2185314 2 6.5 2 z M 7 7 L 7 8 L 9 8 L 9 7 L 7 7 z M 12.5 9 L 11.5 10 L 10 10 L 10 11.5 L 9 12.5 L 10 13.5 L 10 15 L 11.5 15 L 12.5 16 L 13.5 15 L 15 15 L 15 13.5 L 16 12.5 L 15 11.5 L 15 10 L 13.5 10 L 12.5 9 z M 12.5 10.414062 L 12.792969 10.707031 L 13.085938 11 L 13.5 11 L 14 11 L 14 11.5 L 14 11.914062 L 14.292969 12.207031 L 14.585938 12.5 L 14.292969 12.792969 L 14 13.085938 L 14 13.5 L 14 14 L 13.5 14 L 13.085938 14 L 12.792969 14.292969 L 12.5 14.585938 L 12.207031 14.292969 L 11.914062 14 L 11.5 14 L 11 14 L 11 13.5 L 11 13.085938 L 10.707031 12.792969 L 10.414062 12.5 L 10.707031 12.207031 L 11 11.914062 L 11 11.5 L 11 11 L 11.5 11 L 11.914062 11 L 12.207031 10.707031 L 12.5 10.414062 z" font-weight="400" font-family="sans-serif" white-space="normal" overflow="visible"/>
</svg>
