<?xml version="1.0" encoding="utf-8"?>
<!-- Svg Vector Icons : http://www.onlinewebfonts.com/icon -->
<!DOCTYPE svg PUBLIC "-//W3C//DTD SVG 1.1//EN" "http://www.w3.org/Graphics/SVG/1.1/DTD/svg11.dtd">
<svg version="1.1" xmlns="http://www.w3.org/2000/svg" xmlns:xlink="http://www.w3.org/1999/xlink" x="0px" y="0px" viewBox="0 0 1000 1000" enable-background="new 0 0 1000 1000" xml:space="preserve">
<metadata> Svg Vector Icons : http://www.onlinewebfonts.com/icon </metadata>
<g><g transform="translate(0.000000,511.000000) scale(0.100000,-0.100000)"><path d="M1914.4,4677v-228.6l-691.4-8.6l-694.2-8.6l-134.3-80c-88.6-51.4-162.9-125.7-214.3-214.3l-80-134.3V-125.6c0-4556.9-14.3-4191.2,174.3-4382.6c191.4-188.6-211.4-174.3,4725.5-174.3s4534.1-14.3,4725.5,174.3c188.6,191.4,174.3-174.3,174.3,4382.6c0,3959.8-2.8,4131.2-51.4,4225.5c-71.4,128.6-180,228.6-320,291.4c-100,45.7-194.3,54.3-777.1,54.3h-665.7v228.6v228.6H7857h-228.6v-228.6v-228.6h-342.8h-342.8v228.6v228.6h-228.6h-228.6v-228.6v-228.6h-342.8H5800v228.6v228.6h-228.6h-228.6v-228.6v-228.6H5000h-342.8v228.6v228.6h-228.6H4200v-228.6v-228.6h-342.8h-342.8v228.6v228.6h-228.6h-228.6v-228.6v-228.6h-342.8h-342.8v228.6v228.6H2143h-228.6V4677z M1914.4,3759.9v-228.6H2143h228.6v228.6v228.6h342.8h342.8v-228.6v-228.6h228.6h228.6v228.6v228.6h342.8H4200v-228.6v-228.6h228.6h228.6v228.6v228.6H5000h342.8v-228.6v-228.6h228.6H5800v228.6v228.6h342.8h342.8v-228.6v-228.6h228.6h228.6v228.6v228.6h342.8h342.8v-228.6v-228.6H7857h228.6v228.6v228.6h634.3c548.5,0,640-5.7,685.7-48.6c48.6-42.9,51.4-208.6,51.4-4056.9c0-3971.2,0-4008.4-57.1-4065.5s-94.3-57.1-4405.5-57.1c-4005.5,0-4351.2,2.8-4399.8,48.6c-48.6,42.9-51.4,208.6-51.4,4059.8c0,3697,2.8,4019.8,48.6,4068.4c42.9,45.7,102.8,51.4,685.7,51.4h637.1V3759.9z"/><path d="M3137.2,1222.9c-957.1-388.6-1737.1-711.4-1737.1-720c0-11.4,794.2-308.6,1762.8-662.8l1762.7-645.7l1699.9,622.8c937.1,340,1731.3,631.4,1768.5,640c34.3,11.4,62.9,28.6,62.9,40c0,25.7-3488.4,1434.2-3542.7,1431.4C4891.4,1928.6,4091.5,1611.5,3137.2,1222.9z M6054.2,1000.1C7008.5,614.4,7265.6,503,7197,503c-8.6,0-522.9-185.7-1142.8-414.3L4928.6-325.6l-1148.5,420c-631.4,231.4-1145.6,425.7-1140,431.4c20,20,2234.2,914.2,2271.3,917.1C4931.4,1445.8,5445.7,1245.8,6054.2,1000.1z"/><path d="M2600.1-1077v-811.4l225.7-102.8c282.9-131.4,785.7-282.9,1205.7-368.6c274.3-54.3,414.3-65.7,897.1-62.9c525.7,0,600,5.7,914.2,80c397.1,91.4,777.1,228.6,1151.4,408.5l262.9,128.6v768.5c0,422.9-5.7,768.5-11.4,768.5c-5.7,0-531.4-185.7-1165.7-414.3L4928.6-1097L3800.1-694.1c-620,222.9-1145.7,411.4-1162.8,417.1C2608.7-265.6,2600.1-437,2600.1-1077z M6788.5-1511.2c-17.1-45.7-448.6-225.7-757.1-314.3c-859.9-251.4-1871.3-194.3-2817,160l-157.1,57.1v342.8c0,185.7,11.4,340,22.9,340c14.3,0,420-140,902.8-314.3c480-171.4,911.4-314.3,954.2-311.4c42.9,0,477.1,145.7,962.8,320l885.7,320l8.6-282.9C6797.1-1351.2,6797.1-1494.1,6788.5-1511.2z"/></g></g>
</svg>