<svg xmlns:dc="http://purl.org/dc/elements/1.1/" xmlns:cc="http://creativecommons.org/ns#" xmlns:rdf="http://www.w3.org/1999/02/22-rdf-syntax-ns#" xmlns:svg="http://www.w3.org/2000/svg" xmlns="http://www.w3.org/2000/svg" width="33.32753mm" height="32.858688mm" viewBox="0 0 33.32753 32.858688" version="1.1" id="svg1117" enable-background="new">
  
  
  
  <g xmlns:inkscape="http://www.inkscape.org/namespaces/inkscape" inkscape:label="Layer 1" inkscape:groupmode="layer" id="layer1" transform="translate(23.467337,-186.0766)" style="opacity:1;">
    <path inkscape:connector-curvature="0" id="path1620" style="fill:#00597d;fill-opacity:1;fill-rule:nonzero;stroke:none;stroke-width:0.49767023" d="m 7.5788739,205.52308 c 0.6275622,0 1.6990462,-0.20504 1.9563417,-1.55124 -0.043297,-0.003 -0.1005294,-0.005 -0.1647288,-0.005 -0.501154,0 -1.2884683,0.13288 -1.7139763,0.88734 0.1144641,-0.34787 0.2189749,-0.69226 0.3145275,-1.02769 -0.00647,0.0334 -0.014432,0.0647 -0.018911,0.10103 h 0.00448 c 0.4036106,0 1.7070089,-0.11596 1.9035887,-1.57463 h -0.011446 c -0.4439219,0 -1.3894953,0.11895 -1.7647387,1.06352 0.092069,-0.34438 0.1731892,-0.67932 0.2468444,-1.0023 0.1468128,-0.0239 0.4110757,-0.0866 0.6683712,-0.23689 0.4742797,-0.2782 0.7091801,-0.72013 0.6982313,-1.31634 -0.2582908,0.0403 -0.8943134,0.19857 -1.2013759,0.77686 0.042302,-0.20902 0.080125,-0.41058 0.1139664,-0.60417 0.3906712,-0.39017 1.1506136,-1.37058 0.1264083,-2.32362 0,0 -9.954e-4,0.007 -0.00149,0.0124 -0.00348,-0.004 -0.00697,-0.007 -0.00697,-0.007 -0.00149,0.0433 -0.3433925,4.90404 -2.9516822,9.19993 -2.4042449,3.95997 -7.4262353,9.33082 -17.2980225,9.93251 l 0.699227,1.0879 c 5.7132543,-0.4917 9.6294214,-2.52816 12.3750682,-4.91001 -0.028865,0.0284 -0.056734,0.0532 -0.085599,0.0841 0.2418677,0.18016 0.9555268,0.65494 1.8130127,0.65494 0.6862872,0 1.3123564,-0.30358 1.8627797,-0.90078 -0.2408724,-0.18066 -0.9530385,-0.65544 -1.8070407,-0.65544 -0.5106096,0 -0.9888707,0.16871 -1.4278159,0.50016 0.4190384,-0.38271 0.8092118,-0.77089 1.1725111,-1.16405 0.2363934,0.13835 0.8241419,0.43497 1.5089362,0.43497 h 9.953e-4 c 0.7475007,0 1.387007,-0.34987 1.9011003,-1.04312 -0.2244493,-0.13288 -0.8241419,-0.44591 -1.5228709,-0.44591 -0.5220561,0 -0.9913591,0.17468 -1.4039278,0.51508 0.3508576,-0.40759 0.6753386,-0.81369 0.974936,-1.2163 -0.00896,0.0164 -0.018414,0.0299 -0.026377,0.0458 0.1861287,0.0722 0.6076554,0.21201 1.0998513,0.21201 0.888839,0 1.5641775,-0.43596 2.008597,-1.29593 -0.185631,-0.0717 -0.605167,-0.21251 -1.0978605,-0.21251 -0.6225855,0 -1.1386695,0.22047 -1.5482521,0.64648 0.3010905,-0.43298 0.5763021,-0.855 0.8261326,-1.26209 -0.00995,0.0204 -0.0214,0.0398 -0.030358,0.0617 0.1622405,0.0518 0.4956795,0.14034 0.8893367,0.14034 0.6375156,0 1.488034,-0.23789 1.9802299,-1.34222 -0.1622405,-0.0517 -0.4966749,-0.13984 -0.8883414,-0.13984 -0.5155864,0 -1.1735064,0.15527 -1.667693,0.80672 0.2453515,-0.4275 0.4693031,-0.86595 0.6738455,-1.30937 0.1189432,0.0219 0.2961138,0.0478 0.5066283,0.0478 0.6584178,0 1.5124199,-0.24187 1.89264,-1.37208 -0.1149619,-0.0234 -0.3135323,-0.0562 -0.5529117,-0.0562 -0.5051353,0 -1.1217487,0.14433 -1.5562148,0.72212 0.1348686,-0.32099 0.2607792,-0.64398 0.377234,-0.96448 0.041804,0.003 0.093562,0.006 0.1527848,0.006"/>
    <path inkscape:connector-curvature="0" id="path1624" style="fill:#00597d;fill-opacity:1;fill-rule:nonzero;stroke:none;stroke-width:0.49767023" d="m -21.186017,205.52308 c -0.627065,0 -1.698549,-0.20504 -1.956839,-1.55124 0.04429,-0.003 0.101027,-0.005 0.165226,-0.005 0.501154,0 1.287971,0.13288 1.714474,0.88734 -0.115459,-0.34787 -0.219472,-0.69226 -0.315025,-1.02769 0.0065,0.0334 0.01443,0.0647 0.01941,0.10103 h -0.005 c -0.40361,0 -1.707009,-0.11596 -1.903588,-1.57463 h 0.01145 c 0.443424,0 1.389495,0.11895 1.765236,1.06352 -0.09157,-0.34438 -0.173687,-0.67932 -0.246844,-1.0023 -0.14731,-0.0239 -0.412071,-0.0866 -0.668869,-0.23689 -0.475275,-0.2782 -0.709678,-0.72013 -0.698729,-1.31634 0.258291,0.0403 0.895807,0.19857 1.201874,0.77686 -0.0423,-0.20902 -0.07963,-0.41058 -0.114464,-0.60417 -0.390672,-0.39017 -1.149121,-1.37058 -0.125413,-2.32362 0,0 9.95e-4,0.007 0.002,0.0124 0.0025,-0.004 0.0065,-0.007 0.0065,-0.007 9.95e-4,0.0433 0.342895,4.90404 2.951185,9.19993 2.403249,3.95997 7.426235,9.33082 17.2980218,9.93251 l -0.698729,1.0879 c -5.7142497,-0.4917 -9.6304168,-2.52816 -12.3755658,-4.91001 0.02837,0.0284 0.05673,0.0532 0.0851,0.0841 -0.240873,0.18016 -0.956025,0.65494 -1.81152,0.65494 -0.686785,0 -1.31385,-0.30358 -1.863775,-0.90078 0.24137,-0.18066 0.953536,-0.65544 1.808036,-0.65544 0.510112,0 0.987875,0.16871 1.42682,0.50016 -0.41854,-0.38271 -0.808714,-0.77089 -1.172511,-1.16405 -0.236393,0.13835 -0.824639,0.43497 -1.508438,0.43497 -0.748994,0 -1.387505,-0.34987 -1.903091,-1.04312 0.223951,-0.13288 0.825137,-0.44591 1.523368,-0.44591 0.523052,0 0.99136,0.17468 1.404923,0.51508 -0.351355,-0.40759 -0.676831,-0.81369 -0.975931,-1.2163 0.008,0.0164 0.01841,0.0299 0.02687,0.0458 -0.186626,0.0722 -0.607157,0.21201 -1.100349,0.21201 -0.889336,0 -1.565172,-0.43596 -2.008597,-1.29593 0.186129,-0.0717 0.605665,-0.21251 1.097861,-0.21251 0.623083,0 1.138669,0.22047 1.547754,0.64648 -0.300592,-0.43298 -0.575804,-0.855 -0.826132,-1.26209 0.01,0.0204 0.0209,0.0398 0.03086,0.0617 -0.16224,0.0518 -0.496675,0.14034 -0.889336,0.14034 -0.637516,0 -1.488034,-0.23789 -1.98023,-1.34222 0.16224,-0.0517 0.496675,-0.13984 0.889336,-0.13984 0.515089,0 1.172512,0.15527 1.666698,0.80672 -0.244356,-0.4275 -0.468308,-0.86595 -0.674343,-1.30937 -0.118446,0.0219 -0.295119,0.0478 -0.505135,0.0478 -0.659413,0 -1.51242,-0.24187 -1.893636,-1.37208 0.114464,-0.0234 0.31403,-0.0562 0.55341,-0.0562 0.503144,0 1.120255,0.14433 1.555717,0.72212 -0.134869,-0.32099 -0.260779,-0.64398 -0.377732,-0.96448 -0.04131,0.003 -0.09257,0.006 -0.152287,0.006"/>
    <path inkscape:connector-curvature="0" id="path1628" style="fill:#ffffff;fill-opacity:1;fill-rule:nonzero;stroke:none;stroke-width:0.49767023" d="m 2.6965709,203.26793 c -1.81848706,5.1688 -4.9209633,7.68104 -9.4826088,7.68104 h -0.00199 c -4.5571661,0 -7.6681031,-2.53613 -9.5114731,-7.75569 -0.937113,-2.6496 -1.326789,-5.45198 -1.487537,-7.50238 h 2.990003 l 0.605665,-1.88418 c 1.190925,-3.69769 4.7313505,-5.01154 7.4023467,-5.01353 h 0.032349 c 2.6371546,0.0114 6.13926007,1.32878 7.32222223,5.00358 l 0.60566467,1.88368 2.9949795,9.9e-4 c -0.1990681,2.8004 -0.7051987,5.41217 -1.4696202,7.58649"/>
    <path inkscape:connector-curvature="0" id="path1632" style="fill:#42883e;fill-opacity:1;fill-rule:nonzero;stroke:none;stroke-width:0.49767023" d="m -16.298713,203.19676 c -0.291635,-0.82514 -0.526037,-1.66321 -0.720627,-2.49134 h 7.6556618 v 9.93201 c -3.1796148,-0.82016 -5.4619308,-3.27119 -6.9350348,-7.44067"/>
    <path inkscape:connector-curvature="0" id="path1636" style="fill:#f89c0e;fill-opacity:1;fill-rule:nonzero;stroke:none;stroke-width:0.49767023" d="m -7.5741041,195.60237 0.3817131,-6.85839 c -0.17518,0.008 -0.3518529,0.0204 -0.5315118,0.0398 l -0.047776,0.005 v 10.29928 H 3.7921865 l 0.00747,-0.0463 c 0.033344,-0.19907 0.063204,-0.40013 0.094557,-0.60318 l -8.1593036,0.45288 c -0.025381,-0.1065 -0.052753,-0.2125 -0.084604,-0.31701 l 8.3971899,-1.25911 c 0.056237,-0.46781 0.1000318,-0.93661 0.1383524,-1.40642 l -8.6664296,2.30472 c -0.034339,-0.0826 -0.069176,-0.16224 -0.1079944,-0.24137 l 6.7090925,-2.35199 -0.9261643,-0.002 -0.23490039,-0.73008 -5.72519841,2.75411 c -0.048772,-0.0826 -0.1015248,-0.16374 -0.1557708,-0.24336 l 5.61720398,-3.32842 -0.095055,-0.29761 c -0.0865946,-0.26924 -0.18712401,-0.52554 -0.2976068,-0.77039 l -5.44401478,4.10329 c -0.058227,-0.0702 -0.1189432,-0.13935 -0.181152,-0.20703 l 5.21857019,-4.66914 c -0.20802616,-0.33991 -0.44093583,-0.65096 -0.69126396,-0.93562 l -4.78509933,5.34796 c -0.075646,-0.0692 -0.1537802,-0.13487 -0.2344027,-0.19956 l 4.3157963,-5.83917 c -0.3015882,-0.2568 -0.6215901,-0.48374 -0.9530385,-0.6833 l -3.6578763,6.30797 c -0.071167,-0.0483 -0.144822,-0.0926 -0.2184772,-0.13537 l 3.152741,-6.5573 c -0.3603133,-0.16871 -0.7285893,-0.30706 -1.0978606,-0.42003 l -2.3828451,6.80166 c -0.089581,-0.0413 -0.1806543,-0.0806 -0.271728,-0.11596 l 1.7667294,-6.90717 c -0.3931595,-0.0756 -0.7798493,-0.12392 -1.1550926,-0.14631 l -0.9729454,6.92807 c -0.092567,-0.0269 -0.1891146,-0.0523 -0.285165,-0.0737"/>
    <path inkscape:connector-curvature="0" id="path1640" style="fill:#ee262a;fill-opacity:1;fill-rule:nonzero;stroke:none;stroke-width:0.49767023" d="m -6.7861751,211.00237 c -0.3010905,0 -0.609646,-0.0124 -0.9172063,-0.0378 l -0.049269,-0.004 V 200.64585 H 3.5036548 l -0.015926,0.0662 c -0.2115098,0.91522 -0.4593496,1.78166 -0.7390403,2.57146 -1.82644975,5.19319 -4.9453491,7.71887 -9.5328734,7.71887 z"/>
    <path inkscape:connector-curvature="0" id="path1644" style="fill:#fbc617;fill-opacity:1;fill-rule:nonzero;stroke:none;stroke-width:0.49767023" d="m -17.411206,199.09572 -0.0085,-0.0453 c -0.19011,-1.08144 -0.331946,-2.21065 -0.421029,-3.3543 l -0.0055,-0.0587 h 3.008914 l 0.593721,-1.84636 c 0.982401,-3.05022 3.469259,-4.22572 4.864229,-4.6557 l 0.069674,-0.0219 v 9.98227 z"/>
    <path inkscape:connector-curvature="0" id="path1648" style="fill:#00597d;fill-opacity:1;fill-rule:nonzero;stroke:none;stroke-width:0.49767023" d="m -8.3165781,211.39284 c -0.2284306,-0.0304 -0.4270011,-0.0627 -0.6061624,-0.0975 l -0.4414335,-0.0841 v -10.5093 h -8.22201 l -0.09257,-0.42949 c -0.0423,-0.19658 -0.08162,-0.39117 -0.119441,-0.58526 l -0.12591,-0.64747 h 8.559928 V 188.6085 l 0.4170477,-0.0995 c 0.2005611,-0.0478 0.4065966,-0.0901 0.6111391,-0.12442 l 0.6340318,-0.10849 v 10.76361 h 12.023713 l -0.1219292,0.64498 c -0.037325,0.19409 -0.077637,0.38569 -0.1174501,0.5773 l -0.091074,0.43148 -0.4419312,0.008 H -7.7019554 v 10.77107 z"/>
    <path inkscape:connector-curvature="0" id="path1652" style="fill:#ffffff;fill-opacity:1;fill-rule:nonzero;stroke:none;stroke-width:0.49767023" d="m -8.2453521,199.58343 v -10.66358 c -0.19011,0.0324 -0.3822107,0.0712 -0.5743115,0.11745 v 10.54613 h -8.4454644 c 0.03683,0.19061 0.07664,0.38122 0.118446,0.5758 h 8.3270184 v 10.60386 c 0.1876217,0.0363 0.3802201,0.0657 0.5743115,0.0911 V 200.15923 H 3.5494326 c 0.039316,-0.1916 0.07913,-0.38221 0.1164548,-0.5758 z"/>
    <path inkscape:connector-curvature="0" id="path1656" style="fill:#00597d;fill-opacity:1;fill-rule:nonzero;stroke:none;stroke-width:0.49767023" d="m 2.6965709,203.26793 c -1.81848706,5.1688 -4.9209633,7.68104 -9.4826088,7.68104 h -0.00199 c -4.5571661,0 -7.6681031,-2.53613 -9.5114731,-7.75569 -0.937113,-2.6496 -1.326789,-5.45198 -1.487537,-7.50238 h 2.990003 l 0.605665,-1.88418 c 1.190925,-3.69769 4.7313505,-5.01154 7.4023467,-5.01353 h 0.032349 c 2.6371546,0.0114 6.13926007,1.32878 7.32222223,5.00358 l 0.60566467,1.88368 2.9949795,9.9e-4 c -0.1990681,2.8004 -0.7051987,5.41217 -1.4696202,7.58649 M 1.5678548,195.13699 1.083124,193.63005 c -1.27304049,-3.95449 -5.010544,-5.36787 -7.8397993,-5.38081 h -0.032846 c -2.8541389,0.002 -6.6379257,1.41438 -7.9184317,5.39126 l -0.485228,1.50595 h -3.176629 c 0.136361,2.18676 0.520563,5.29272 1.557707,8.22848 1.929468,5.46293 5.207622,8.1165 10.0240747,8.1165 h 0.00199 c 4.820434,0 8.0896298,-2.63068 9.9952091,-8.04384 0.8365837,-2.37439 1.3661049,-5.26585 1.5363081,-8.3096 z"/>
    <path inkscape:connector-curvature="0" id="path1660" style="fill:#00597d;fill-opacity:1;fill-rule:nonzero;stroke:none;stroke-width:0.19999999;stroke-miterlimit:4;stroke-dasharray:none;paint-order:stroke fill markers" d="m -6.7861751,212.57854 h -0.00199 c -5.2593789,0 -8.9759799,-2.97408 -11.0482789,-8.84211 -1.27752,-3.61607 -1.60001,-7.46505 -1.671177,-9.6762 h 3.52251 l 0.243361,-0.75347 c 1.458671,-4.53129 5.733659,-6.14125 8.9520919,-6.14324 h 0.034837 c 3.195043,0.0129 7.42076097,1.62439 8.8729627,6.13378 l 0.2413701,0.75347 3.5175333,0.001 c -0.09406,3.55934 -0.6688688,6.98978 -1.6428095,9.75682 -2.047913,5.81876 -5.756054,8.76945 -11.0204098,8.76945 m 9.9369817,-19.61368 c -1.6204143,-5.03742 -6.2995099,-6.88577 -9.9369817,-6.88826 h -0.00199 -0.00149 -4.977e-4 c -3.636975,0.002 -8.364344,1.8598 -9.986748,6.89771 h -3.836042 c 0,2.07778 0.0632,20.69164 13.82279,20.69164 h 0.00199 0.00199 c 13.8372234,0 13.7645635,-18.62282 13.7645635,-20.6996 z"/>
    <path inkscape:connector-curvature="0" id="path1664" style="fill:#ffffff;fill-opacity:1;fill-rule:nonzero;stroke:none;stroke-width:0.49767023" d="M -9.3635601,201.27292 H -16.88286 c 0.05026,0.19011 0.10252,0.38221 0.156766,0.57431 h 7.3625339 z"/>
    <path inkscape:connector-curvature="0" id="path1668" style="fill:#ffffff;fill-opacity:1;fill-rule:nonzero;stroke:none;stroke-width:0.49767023" d="m -16.364541,202.9975 h 7.0012249 v -0.57481 h -7.1908369 c 0.06071,0.19111 0.12392,0.3837 0.189612,0.57481"/>
    <path inkscape:connector-curvature="0" id="path1672" style="fill:#ffffff;fill-opacity:1;fill-rule:nonzero;stroke:none;stroke-width:0.49767023" d="m -15.933006,204.14746 h 6.5692472 v -0.57531 h -6.7931992 c 0.07316,0.19509 0.147808,0.38819 0.223952,0.57531"/>
    <path inkscape:connector-curvature="0" id="path1676" style="fill:#ffffff;fill-opacity:1;fill-rule:nonzero;stroke:none;stroke-width:0.49767023" d="m -15.414184,205.29774 h 6.0506748 v -0.57531 H -15.68641 c 0.08859,0.19658 0.179659,0.38769 0.272226,0.57531"/>
    <path inkscape:connector-curvature="0" id="path1680" style="fill:#ffffff;fill-opacity:1;fill-rule:nonzero;stroke:none;stroke-width:0.49767023" d="m -14.771697,206.4477 h 5.4081825 v -0.57531 h -5.7456025 c 0.109487,0.19758 0.221961,0.38868 0.33742,0.57531"/>
    <path inkscape:connector-curvature="0" id="path1684" style="fill:#ffffff;fill-opacity:1;fill-rule:nonzero;stroke:none;stroke-width:0.49767023" d="m -13.963395,207.59731 h 4.599966 V 207.023 h -5.029455 c 0.139347,0.19807 0.283174,0.39017 0.429489,0.57431"/>
    <path inkscape:connector-curvature="0" id="path1688" style="fill:#ffffff;fill-opacity:1;fill-rule:nonzero;stroke:none;stroke-width:0.49767023" d="m -12.87892,208.74793 h 3.5155426 v -0.5763 h -4.1067746 c 0.19011,0.20504 0.389178,0.39515 0.591232,0.5763"/>
    <path inkscape:connector-curvature="0" id="path1692" style="fill:#ffffff;fill-opacity:1;fill-rule:nonzero;stroke:none;stroke-width:0.49767023" d="m -11.24959,209.89725 h 1.8861702 v -0.5758 h -2.8058652 c 0.295119,0.2135 0.602181,0.4046 0.919695,0.5758"/>
    <path inkscape:connector-curvature="0" id="path1696" style="fill:#ffffff;fill-opacity:1;fill-rule:nonzero;stroke:none;stroke-width:0.49767023" d="m -9.3635601,210.63735 v -0.16523 h -0.5578883 c 0.1836403,0.0607 0.3687736,0.11646 0.5578883,0.16523"/>
  </g>
</svg>