<?xml version="1.0" encoding="utf-8"?>
<!-- Svg Vector Icons : http://www.onlinewebfonts.com/icon -->
<!DOCTYPE svg PUBLIC "-//W3C//DTD SVG 1.1//EN" "http://www.w3.org/Graphics/SVG/1.1/DTD/svg11.dtd">
<svg version="1.1" xmlns="http://www.w3.org/2000/svg" xmlns:xlink="http://www.w3.org/1999/xlink" x="0px" y="0px" viewBox="0 0 1000 1000" enable-background="new 0 0 1000 1000" xml:space="preserve">
<metadata> Svg Vector Icons : http://www.onlinewebfonts.com/icon </metadata>
<g fill="#e9e9ff"><path d="M234.8,45.3l144.1,186.1l2.4,3.2c6.4,9.1,11.3,19.2,14.2,29.4c3.4,12,4,24.3,2.1,37.1c-2.1,12.6-6.1,24.1-12.3,34.5l-1.6,2.2c-5.9,9.6-13.6,18.2-22.7,25.1l-3,1.3L288,415.4c-4,10.1-9.9,32.3,9.9,59.9c31,44.6,65.2,86.1,103.2,124.1c38.5,38,79.4,72.2,123.5,103.2c27.5,19.3,49.7,13.9,60.4,9.3l52.4-72.5l0,0c7.5-10.1,16.3-18.4,26.7-24.8c10.7-6.2,22.3-10.5,34.5-12l1.9-0.3c12-1.6,23.8-0.9,35,2.4l2.2,0.5c10.7,3.2,21.1,8.3,30.5,15.8v-0.3l186.1,144.9l3,2.1c9.3,8,16.8,17.6,22.2,28.1v-0.3c6.2,11.8,9.3,24.6,10.5,38.2c0.5,13.6-1.9,26.5-7,39h0.5c-5.3,12-12.8,23-23.2,32.3c-11.8,11.3-26.5,22.8-44.4,33.7L914,940c-17.4,9.9-37.5,19.7-60.9,27.3c-102.2,34-211.3,27.8-316.1-7c-110.7-36.9-216.9-105.8-303.8-193.1C145.4,679.8,76.5,574.2,39.5,463C4.5,358.2-1.3,249,32.6,146.9c8.6-24.6,17.9-45.2,28.9-62.5v-0.6l0,0c10.7-17.1,21.9-32.3,32.8-44.4c9.9-9.9,20.9-17.6,32.6-22.7l3.5-0.8c10.9-4.3,23.2-5.9,35.5-5.7c13.4,0.8,26.7,4,38.2,9.9l2.1,1.6L234.8,45.3L234.8,45.3z M319.5,277.9L319.5,277.9L175.4,91.8c-1.1-1.8-3-3.2-4.8-4.3l-0.5-0.3c-2.2-0.8-4.8-1.8-7-1.8c-2.9,0-4.5,0.5-6.4,0.5l-1.1,0.5c-2.2,0.8-4.3,2.4-5.9,4.3c-8.3,8.6-16.3,18.7-24,32.1l0,0c-8,13.4-15.5,29.1-22,47.6c-28.6,85.8-22.7,179.2,7,269c33.2,99.2,95.7,194.9,175.4,274.3c79.4,79.6,175.1,142.2,274.3,175.4c90.4,30,183.2,35.3,269,6.9c17.9-5.9,33.2-13.1,46-20.3l1.6-1.6c13.1-7.8,24.1-16.1,32.1-23.5c1.8-2.2,3.2-4,4.3-6.2l0,0v-0.3c1.1-1.6,1.1-4.3,1.1-6.9c0-3-0.5-5.4-1.6-7l0,0l0,0c-0.6-2.2-1.9-3.2-3.5-4.5l-1.4-0.8L722,680.4h0.5H722c-1.1-1.3-3.5-2.4-5.1-3h-0.5c-1.9-0.5-4.3-0.5-6.4-0.5h-0.3c-2.7,0.5-4.8,1.1-6.4,2.2l0,0c-1.6,0.8-3.5,2.6-5.1,4.8l0,0l0,0l-56.7,77.8c-3,4.5-7.5,8.6-12.3,12c-0.3,0-66.8,46.8-147.6-9.9c-48.4-33.7-93.3-71.1-133.4-111.8c-41.5-40.3-78.4-85.3-112.1-133.7c-56.7-81-9.3-147.3-9.3-147.3c2.4-4.3,5.9-8,10.2-11.3l76.7-56.1l3-1.9c1.6-1.3,2.7-2.4,3.8-4l0.8-1.1c1.4-1.6,1.9-3.8,2.4-5.9c0-3,0-4.8-0.5-7c-0.5-1.6-1.1-3.2-2.4-4.3L319.5,277.9L319.5,277.9z M234.8,45.8L234.8,45.8v-0.6V45.8L234.8,45.8z M234.8,45.3L234.8,45.3v0.6V45.3L234.8,45.3z"/></g>
</svg>