<?xml version="1.0" encoding="utf-8"?>
<!-- Svg Vector Icons : http://www.onlinewebfonts.com/icon -->
<!DOCTYPE svg PUBLIC "-//W3C//DTD SVG 1.1//EN" "http://www.w3.org/Graphics/SVG/1.1/DTD/svg11.dtd">
<svg version="1.1" xmlns="http://www.w3.org/2000/svg" xmlns:xlink="http://www.w3.org/1999/xlink" x="0px" y="0px" viewBox="0 0 1000 1000" enable-background="new 0 0 1000 1000" xml:space="preserve">
<metadata> Svg Vector Icons : http://www.onlinewebfonts.com/icon </metadata>
<g fill="#e9e9ff"><path d="M799.8,609.6H688.1V390.4h111.8c104.9,0,190.2-85.4,190.2-190.2C990,95.3,904.7,10,799.8,10C695,10,609.6,95.3,609.6,200.2v111.8H390.4V200.2C390.4,95.3,305.1,10,200.2,10S10,95.3,10,200.2c0,104.9,85.3,190.2,190.2,190.2H312v219.2H200.2C95.3,609.6,10,695,10,799.8C10,904.7,95.3,990,200.2,990c104.9,0,190.2-85.3,190.2-190.2V688h219.2v111.8c0,104.9,85.3,190.2,190.2,190.2C904.7,990,990,904.7,990,799.8C990,695,904.7,609.6,799.8,609.6z M688.1,200.2c0-61.6,50.2-111.7,111.8-111.7c61.6,0,111.8,50.1,111.8,111.7c0,61.7-50.2,111.8-111.8,111.8H688.1V200.2z M200.2,311.9c-61.6,0-111.8-50.1-111.8-111.8c0-61.6,50.1-111.7,111.8-111.7c61.6,0,111.8,50.1,111.8,111.7v111.8H200.2z M312,799.8c0,61.6-50.1,111.8-111.8,111.8c-61.6,0-111.8-50.2-111.8-111.8c0-61.6,50.2-111.8,111.8-111.8H312V799.8z M390.4,609.6V390.4h219.2v219.2L390.4,609.6L390.4,609.6z M799.8,911.6c-61.6,0-111.8-50.1-111.8-111.8V688h111.8c61.6,0,111.8,50.2,111.8,111.8C911.6,861.4,861.5,911.6,799.8,911.6z"/></g>
</svg>