<?xml version="1.0" encoding="utf-8"?>
<!-- Svg Vector Icons : http://www.onlinewebfonts.com/icon -->
<!DOCTYPE svg PUBLIC "-//W3C//DTD SVG 1.1//EN" "http://www.w3.org/Graphics/SVG/1.1/DTD/svg11.dtd">
<svg version="1.1" xmlns="http://www.w3.org/2000/svg" xmlns:xlink="http://www.w3.org/1999/xlink" x="0px" y="0px" viewBox="0 0 1000 1000" enable-background="new 0 0 1000 1000" xml:space="preserve">
<metadata> Svg Vector Icons : http://www.onlinewebfonts.com/icon </metadata>
<g fill="#e9e9ff"><path d="M581.6,844.5H418.4c-15,0-27.2,12.2-27.2,27.2c0,15,12.2,27.2,27.2,27.2h163.3c15,0,27.2-12.2,27.2-27.2C608.8,856.7,596.7,844.5,581.6,844.5z"/><path d="M545.4,935.6h-90.7c-15,0-27.2,12.2-27.2,27.2c0,15,12.2,27.2,27.2,27.2h90.7c15,0,27.2-12.2,27.2-27.2C572.6,947.8,560.4,935.6,545.4,935.6z"/><path d="M500,10c-180.3,0-326.5,146.2-326.5,326.5c0,100.1,45,189.7,115.9,249.5c3.8,3.8,9,9.6,14,17.2c15.8,24.1,31.5,57.8,37.3,80.2c14.9,57.6,14.2,105.7,14.2,106.2h0c0,0.1,0,0.3,0,0.4c0,10,8.1,18.1,18.1,18.1h254c10,0,18.1-8.1,18.1-18.1c0-1.5-0.2-3-0.5-4.4c0.2-12.7,1.7-54.1,14.2-102.2c5.8-22.4,21.5-56.1,37.3-80.2c4-6.2,8.2-11.1,11.6-14.8c72.6-59.9,118.9-150.5,118.9-252C826.5,156.2,680.3,10,500,10z M694.7,551.8l-0.2-0.3c-0.9,0.6-5.5,4.1-11.6,10.4c-0.5,0.4-1,0.8-1.5,1.2v0.3c-4.8,5-10.3,11.7-15.7,19.9c-14.7,22.4-34.2,60.4-42.1,91c-10.6,40.9-13.9,76.8-14.9,97.5h-218c-1-20.7-4.3-56.7-14.9-97.5c-7.9-30.6-27.4-68.6-42.1-91c-5.2-7.9-10.5-14.4-15.2-19.3v-0.9c-1.6-1.3-3.1-2.6-4.7-3.9c-4.3-4.2-7.6-6.7-8.7-7.6c-58.6-53.1-95.5-129.8-95.5-215.2c0-160.3,130-290.3,290.3-290.3c160.3,0,290.3,130,290.3,290.3C790.3,421.9,753.4,498.7,694.7,551.8z"/><path d="M570.9,201.6L357.7,402.4L498,439.5l-85.3,175.9l221.7-208.1L513,372.8L570.9,201.6z"/></g>
</svg>