<svg xmlns="http://www.w3.org/2000/svg" viewBox="0 0 36.75 53.68"><defs><style>.cls-1{fill:#011a32;}</style></defs><title>Asset 7</title><g id="Layer_2" data-name="Layer 2"><g id="CONTACT"><path class="cls-1" d="M14.92,53.68a4.94,4.94,0,0,1-2.7-1.57,4.57,4.57,0,0,1-1-3q0-15.87,0-31.74a4.31,4.31,0,0,1,4.63-4.55H32.19a4.28,4.28,0,0,1,4.39,3.24,5,5,0,0,1,.15,1.4c0,10.52,0,21.05,0,31.58a4.48,4.48,0,0,1-3.56,4.58.91.91,0,0,0-.14.07Zm2.76-33.11h0c.52,0,1.05,0,1.57,0a2.46,2.46,0,0,0,2.41-2.46,2.39,2.39,0,0,0-2.31-2.48,31.83,31.83,0,0,0-3.24,0,2.4,2.4,0,0,0-2.36,2.58,2.47,2.47,0,0,0,2.52,2.36C16.74,20.58,17.21,20.57,17.68,20.57Z"/><path class="cls-1" d="M12.2,5c-.19,1.83-.36,3.5-.53,5.18,0,.16,0,.32,0,.47-.15,1-.15,1-1.14,1.13l-5.24.66c-.16,0-.31.06-.57.12l4.81,3.75-3.8,5.09,3.58-.56v1.86L1.45,23.94l5.47-7.32L0,11.22,9.83,10l1-9.95L17,8.39l6.91-3.7c0,.18-.05.29-.08.39-.56,1.76-1.14,3.51-1.69,5.27-.1.34-.24.48-.61.46s-.9,0-1.46,0l.72-2.34-4.33,2.31Z"/><path class="cls-1" d="M16.37,19.4a1.33,1.33,0,1,1,1.35-1.32A1.4,1.4,0,0,1,16.37,19.4Z"/><path class="cls-1" d="M20.27,18.07a.69.69,0,0,1-.72.72.73.73,0,1,1,.72-.72Z"/></g></g></svg>