<svg xmlns="http://www.w3.org/2000/svg" viewBox="0 0 37.9 33.94"><defs><style>.cls-1{fill:#011a32;}</style></defs><title>Asset 2</title><g id="Layer_2" data-name="Layer 2"><g id="CONTACT"><path class="cls-1" d="M37.9,14l-7.1,6.44c-1.79,1.62-3.6,3.21-5.37,4.85a1.54,1.54,0,0,0-.45,1c0,2.16,0,4.32,0,6.48,0,1-.13,1.15-1.11,1.15-7.58,0-15.15,0-22.73,0-.79,0-1.12-.3-1.12-1.09Q0,17,0,1.11C0,.34.29,0,1.1,0,6,0,10.92,0,15.83,0A1.94,1.94,0,0,1,16.89.4C19.43,2.34,22,4.3,24.45,6.3a1.66,1.66,0,0,1,.49,1.14c0,1.9,0,3.8,0,5.93l1.49-1.31q2.44-2.19,4.88-4.39c.48-.44.91-.51,1.37,0l5.2,5.85ZM23.38,27.31a8,8,0,0,1-1.52.84q-3.7,1.07-7.44,2c-.35.09-.93.07-1.11-.15a1.4,1.4,0,0,1,0-1.14q1.34-3.57,2.78-7.11a3.38,3.38,0,0,1,.82-1.13,54.29,54.29,0,0,1,4.41-3.91,4.72,4.72,0,0,0,2.15-4.83,28.62,28.62,0,0,1,0-3.82h-.29c-2.19.3-4.38.62-6.57.89-1,.12-1.22-.12-1.22-1.1,0-1.34,0-2.69,0-4V1.62H1.6v30.7H23.38Zm8.86-10.23-4-4.5L18.06,21.7l4,4.49C25.49,23.14,28.83,20.13,32.24,17.08Zm1.16-1L36,13.68,32,9.19l-2.59,2.35ZM16.93,2.4v5l5.4-.77Zm-1.79,26,5.47-1.49-3.4-3.77Z"/><path class="cls-1" d="M12.46,10.8h6.9c.55,0,1.07.07,1.09.74s-.51.81-1.11.81H5.63c-.5,0-1,0-1.07-.66s.32-.88.92-.88Z"/><path class="cls-1" d="M12.5,15.94H5.94c-.22,0-.5.08-.66,0s-.69-.49-.68-.74.39-.57.68-.77.43,0,.66,0H19.05c.26,0,.58-.08.74,0a1.4,1.4,0,0,1,.61.85c0,.2-.4.49-.68.65s-.44,0-.66,0Z"/><path class="cls-1" d="M10.5,18c1.62,0,3.24,0,4.87,0,.56,0,1,.11,1,.8s-.47.77-1,.78H5.58c-.55,0-1-.16-1-.83S5.1,18,5.63,18Z"/></g></g></svg>