<svg xmlns="http://www.w3.org/2000/svg" viewBox="0 0 44.18 43.89"><defs><style>.cls-1{fill:#011a32;}</style></defs><title>Asset 4</title><g id="Layer_2" data-name="Layer 2"><g id="CONTACT"><path class="cls-1" d="M44.18,17.77A17.81,17.81,0,1,1,26.44,0,17.79,17.79,0,0,1,44.18,17.77ZM26.29,24.13c2.62-.05,2.62-.05,4.14-2.17a9.89,9.89,0,0,0,.79-1.16,5.56,5.56,0,1,0-9.78-5.31,4.87,4.87,0,0,0-.3,4.46,14.54,14.54,0,0,0,2.54,3.94C24.14,24.37,25.4,24.08,26.29,24.13Zm2.23,2.8H24.16a2.79,2.79,0,0,0,2.25,2.2A3.18,3.18,0,0,0,28.52,26.93ZM26.37,26h0a19.23,19.23,0,0,0,2,0c.25,0,.47-.35.71-.53-.24-.19-.48-.52-.72-.53-1.34,0-2.69,0-4,0-.24,0-.47.34-.7.52.24.18.46.48.72.51A19.22,19.22,0,0,0,26.37,26ZM16.9,17.68h0a6.93,6.93,0,0,0-1.29,0c-.2,0-.36.31-.54.48.19.19.37.54.57.55a17.11,17.11,0,0,0,2.48,0c.19,0,.36-.3.54-.47-.19-.19-.35-.49-.57-.55A5.23,5.23,0,0,0,16.9,17.68Zm10-9.4h0a6,6,0,0,0,0-1.2c-.05-.24-.31-.44-.48-.65-.2.18-.56.36-.57.55a17.51,17.51,0,0,0,0,2.51.73.73,0,0,0,.51.47.71.71,0,0,0,.5-.48A6,6,0,0,0,26.88,8.28Zm9,10.49h0a4,4,0,0,0,1.1,0c.26-.07.45-.36.67-.56-.21-.17-.41-.47-.63-.49a13.7,13.7,0,0,0-2.31,0c-.23,0-.43.32-.64.49.24.19.45.47.71.54A4.47,4.47,0,0,0,35.87,18.77Zm.6-6c-.25-.1-.58-.35-.75-.26a22,22,0,0,0-2.35,1.35c-.13.08-.18.42-.13.61s.36.34.44.29c.9-.49,1.78-1,2.66-1.54C36.4,13.15,36.4,13,36.47,12.74Zm-14-1.81c-.65-.86-1.28-1.72-1.94-2.55-.05-.06-.43,0-.51.12a.71.71,0,0,0-.11.63c.48.76,1,1.51,1.54,2.23a.72.72,0,0,0,.62.11C22.18,11.44,22.26,11.19,22.44,10.93Zm-2.79,3.45c-.13-.28-.15-.46-.24-.51-.84-.5-1.67-1-2.54-1.43-.11-.06-.43.15-.54.31a.56.56,0,0,0,.1.53,25.67,25.67,0,0,0,2.43,1.42C19,14.78,19.36,14.5,19.65,14.38Zm.12,7.49c-.49-.09-.86-.28-1.1-.17a12.65,12.65,0,0,0-2,1.14c-.19.14-.25.47-.37.72.29.07.64.29.85.2a19.47,19.47,0,0,0,2.08-1.18C19.39,22.49,19.47,22.28,19.77,21.87ZM35.83,24c.22-.17.48-.28.52-.44a.7.7,0,0,0-.19-.61c-.74-.47-1.5-.9-2.27-1.29a.64.64,0,0,0-.61.16.67.67,0,0,0,0,.62C34.11,23,35,23.45,35.83,24ZM33,9c-.15-.21-.23-.43-.38-.5s-.46-.08-.53,0c-.55.74-1.06,1.51-1.55,2.3-.06.09.08.4.21.49s.46.11.53,0C31.86,10.6,32.41,9.82,33,9Z"/><path class="cls-1" d="M9.81,33.21a4.07,4.07,0,0,1,0,8.14,4.13,4.13,0,0,1-4.1-4.1A4.09,4.09,0,0,1,9.81,33.21Z"/><path class="cls-1" d="M4.18,41.82a2.05,2.05,0,0,1-2.12,2.07,2.1,2.1,0,0,1-2.06-2,2.05,2.05,0,0,1,2.09-2.1A2,2,0,0,1,4.18,41.82Z"/><path class="cls-1" d="M21.68,18.19c.07-2.58,1.55-4.39,3.74-4.75.36-.06.77.23,1.16.37-.29.23-.55.6-.88.68a3.34,3.34,0,0,0-2.85,3,1.49,1.49,0,0,1-.07.49,9.28,9.28,0,0,1-.58.78Z"/></g></g></svg>