<svg xmlns="http://www.w3.org/2000/svg" viewBox="0 0 32.36 30.77"><defs><style>.cls-1{fill:#011a32;}</style></defs><title>Asset 3</title><g id="Layer_2" data-name="Layer 2"><g id="CONTACT"><path class="cls-1" d="M22.2,11.24H31a1.1,1.1,0,0,1,1.23.7c.29.81-.22,1.45-1.19,1.46H13.49c-.87,0-1.26-.29-1.32-1s.36-1.21,1.28-1.21Z"/><path class="cls-1" d="M22.24,24.45H13.49c-.94,0-1.33-.33-1.32-1.09s.4-1.07,1.35-1.07H31c1.1,0,1.73.74,1.24,1.54a1.49,1.49,0,0,1-1.12.59C28.13,24.47,25.19,24.45,22.24,24.45Z"/><path class="cls-1" d="M22.28,2.26H13.45c-.91,0-1.27-.3-1.28-1S12.52.14,13.41.14H31.06c.85,0,1.29.39,1.28,1.07s-.47,1-1.31,1Z"/><path class="cls-1" d="M8.48,26.54c0,.51,0,1,0,1.54A2.65,2.65,0,0,1,5.8,30.74c-1,0-2,0-3,0A2.71,2.71,0,0,1,0,27.93q0-1.39,0-2.79a2.72,2.72,0,0,1,2.73-2.85q1.55-.06,3.09,0A2.66,2.66,0,0,1,8.47,25C8.49,25.51,8.48,26,8.48,26.54Zm-7.09-.05c0,.44,0,.88,0,1.32a1.43,1.43,0,0,0,1.53,1.57q1.4,0,2.79,0a1.22,1.22,0,0,0,1.37-1.22c.06-1.12,0-2.25,0-3.37A1.08,1.08,0,0,0,6,23.68c-1.1,0-2.2-.05-3.3,0A1.25,1.25,0,0,0,1.39,25C1.38,25.51,1.39,26,1.39,26.49Z"/><path class="cls-1" d="M4.3,19.61H2.9A2.78,2.78,0,0,1,0,16.81C0,15.88,0,15,0,14a2.66,2.66,0,0,1,2.71-2.77c1.06,0,2.11,0,3.16,0a2.52,2.52,0,0,1,2.57,2.57c0,1,0,2,0,3.08a2.69,2.69,0,0,1-2.85,2.71Zm.07-7v0c-.54,0-1.08,0-1.61,0a1.31,1.31,0,0,0-1.37,1.47c0,.93,0,1.86,0,2.79a1.42,1.42,0,0,0,1.49,1.46c.93,0,1.86,0,2.8,0A1.22,1.22,0,0,0,7.07,17.1a32.89,32.89,0,0,0,0-3.44,1.16,1.16,0,0,0-1.24-1.1Z"/><path class="cls-1" d="M8.47,3.11c0,.95,0,1.8,0,2.66a2.61,2.61,0,0,1-2.69,2.7c-1,0-2,0-3,0A2.75,2.75,0,0,1,0,5.7Q0,4.23,0,2.76A2.59,2.59,0,0,1,2.58.16c1.23,0,2.46,0,3.68,0a3,3,0,0,1,.49.08c-.56.72-1.06,1.28-2,1.16a11.17,11.17,0,0,0-1.83,0A1.41,1.41,0,0,0,1.39,2.91c0,.91,0,1.81,0,2.72A1.38,1.38,0,0,0,2.91,7.12c.83,0,1.67,0,2.5,0,1.28,0,1.67-.39,1.71-1.65S7.18,4.07,8.47,3.11Z"/><path class="cls-1" d="M17.86,3.76c1.47,0,2.94,0,4.4,0,.85,0,1.27.4,1.25,1.1s-.44,1-1.23,1h-9c-.75,0-1.13-.36-1.15-1s.35-1.1,1.14-1.11C14.83,3.75,16.34,3.76,17.86,3.76Z"/><path class="cls-1" d="M17.85,17.1H13.44c-.88,0-1.27-.33-1.27-1.05s.38-1.1,1.24-1.1h8.81c.86,0,1.28.36,1.29,1.06s-.44,1.09-1.33,1.09Z"/><path class="cls-1" d="M17.82,28.14H13.34c-.81,0-1.17-.35-1.17-1.07s.34-1,1.12-1c3,0,6.07,0,9.1,0a1,1,0,0,1,1.12,1.06,1,1,0,0,1-1.14,1.05Z"/><path class="cls-1" d="M4.32,4,7.75.58c.16-.16.29-.4.48-.45S9-.07,9.18.07c.4.25.29.68,0,1L4.85,5.38a.69.69,0,0,1-1.09,0,4.73,4.73,0,0,1-.9-1c-.14-.25,0-.64,0-1a3.51,3.51,0,0,1,.92,0C4,3.59,4.11,3.83,4.32,4Z"/></g></g></svg>