<svg xmlns="http://www.w3.org/2000/svg" viewBox="0 0 49.04 35.06"><defs><style>.cls-1{fill:#011a32;}</style></defs><title>Asset 5</title><g id="Layer_2" data-name="Layer 2"><g id="CONTACT"><path class="cls-1" d="M16.3,0h.92a1.81,1.81,0,0,0,.34.13A4.77,4.77,0,0,1,21.64,6c-.36,1.6,1.07,2.29,1.43,3.5,0,.06.28.06.43.06,1.55.08,3,.09,3.64-1.81a2.23,2.23,0,0,0,.23-1.5,4.7,4.7,0,0,1,.84-4.34A5.61,5.61,0,0,1,31.65,0h.93c.05,0,.09.1.14.11A4.93,4.93,0,0,1,36.9,4a1.45,1.45,0,0,0,.77.79A9.61,9.61,0,0,1,42,8.68c1.32,2.29,2.57,4.63,4.07,6.79a18.87,18.87,0,0,1,3,6v4.06c-.06.2-.13.41-.18.61a11.62,11.62,0,0,1-14,8.61,11.42,11.42,0,0,1-7.64-5.93c-.16-.28-.62-.69-.81-.62A6,6,0,0,1,22.32,28c-.25.44-.44.82-.66,1.19A11.78,11.78,0,0,1,9.38,34.84,11.57,11.57,0,0,1,2,17c1.75-2.67,3.39-5.41,5-8.16a10,10,0,0,1,4.35-4c.25-.12.6-.33.65-.56A5.27,5.27,0,0,1,16.3,0ZM37.5,31a7.49,7.49,0,0,0,7.57-7.62A7.54,7.54,0,1,0,30,23.53,7.45,7.45,0,0,0,37.5,31ZM4.07,23.55a7.54,7.54,0,0,0,15.07,0,7.54,7.54,0,1,0-15.07,0Zm20.44,1.58a1.8,1.8,0,0,0,1.74-1.59,1.84,1.84,0,0,0-1.71-1.73,1.63,1.63,0,0,0-1.63,1.65A1.61,1.61,0,0,0,24.51,25.13Z"/><path class="cls-1" d="M32.33,23.07a5.18,5.18,0,0,1,4.53-4.73c.82-.1,1.41.25,1.47.89.08.84-.49,1-1.15,1.11a3.22,3.22,0,0,0-2.93,2.95c-.07.74-.38,1.19-1.15,1.11S32.29,23.69,32.33,23.07Z"/><path class="cls-1" d="M6.49,23.13a5.16,5.16,0,0,1,4.73-4.79c.66,0,1.31.16,1.34.94s-.5,1-1.16,1.06A3.11,3.11,0,0,0,8.5,23a2.25,2.25,0,0,0-.09.35c-.09.7-.37,1.2-1.17,1.08S6.47,23.71,6.49,23.13Z"/></g></g></svg>