<svg xmlns="http://www.w3.org/2000/svg" viewBox="0 0 40.34 31.85"><defs><style>.cls-1{fill:#011a32;}</style></defs><title>Asset 6</title><g id="Layer_2" data-name="Layer 2"><g id="CONTACT"><path class="cls-1" d="M25.82,7.51,12.61,18.18c-.23.2-.54.51-.77.48-1.93-.27-3.14,1-4.51,2S4.8,22.77,3,21.8A5.31,5.31,0,0,1,0,17,12.18,12.18,0,0,1,7,5.13c6.43-3.27,12.62-2.47,18.31,2C25.55,7.33,25.81,7.5,25.82,7.51ZM7.75,15.59A2.6,2.6,0,0,0,5,13.36a2.32,2.32,0,0,0-2.46,2.13A2.54,2.54,0,0,0,5.28,17.7,2.33,2.33,0,0,0,7.75,15.59ZM19,10.2a2.25,2.25,0,0,0,2.44-2.11A2.55,2.55,0,0,0,18.74,5.9,2.25,2.25,0,0,0,16.31,8,2.43,2.43,0,0,0,19,10.2ZM10.52,7.3A2.25,2.25,0,0,0,8,9.35a2.48,2.48,0,0,0,2.63,2.28,2.3,2.3,0,0,0,2.49-2.07A2.45,2.45,0,0,0,10.52,7.3Z"/><path class="cls-1" d="M28.9,10.81a15.59,15.59,0,0,1,3.79,8.88A10.81,10.81,0,0,1,24.6,31.17a19.36,19.36,0,0,1-9.68.12,9.1,9.1,0,0,1-2.8-1.22,2.6,2.6,0,0,1-.44-4.16c.62-.69,1.47-1.19,2.09-1.88a20.22,20.22,0,0,0,1.47-2.14,3.1,3.1,0,0,1,.6-.81c2.22-1.66,4.49-3.24,6.67-4.95S26.76,12.6,28.9,10.81ZM19.4,30.09A2.34,2.34,0,0,0,21.93,28a2.57,2.57,0,0,0-2.69-2.26,2.39,2.39,0,0,0-2.54,2.06A2.61,2.61,0,0,0,19.4,30.09Zm7.45-15.48a2.26,2.26,0,0,0-2.49,2.06,2.58,2.58,0,0,0,2.71,2.24,2.36,2.36,0,0,0,2.49-2.1A2.48,2.48,0,0,0,26.85,14.61Zm-1.11,7a2.24,2.24,0,0,0-2.48,2.07A2.59,2.59,0,0,0,26,25.88a2.33,2.33,0,0,0,2.47-2.12A2.45,2.45,0,0,0,25.74,21.6Z"/><path class="cls-1" d="M21.64,11.77l2,2.49-9.32,6.86L3,29.36c-.15.1-.29.29-.44.3-.42,0-.85,0-1.28,0,.12-.38.13-.9.39-1.12,1.64-1.45,3.34-2.84,5-4.25Z"/><path class="cls-1" d="M40.15,0c.46,2.32.12,4.21-1.51,5.71-2.32,2.13-5.18,2.48-8.14,2.21a1.09,1.09,0,0,1-.89-1.67,12.14,12.14,0,0,1,1.8-3,5.77,5.77,0,0,1,2.41-1.16,5.4,5.4,0,0,1,1.6,0C37.67,2.2,38.34,1.91,40.15,0Z"/><path class="cls-1" d="M24.32,13.54l-1.88-2.3,6.12-4,.92,1.11Z"/></g></g></svg>