<svg xmlns="http://www.w3.org/2000/svg" viewBox="0 0 27.86 29.06"><defs><style>.cls-1{fill:#f13840;}</style></defs><title>Asset 239</title><g id="Layer_2" data-name="Layer 2"><g id="ENTER"><path class="cls-1" d="M27.85,20.49v0L24.45,6.2A.49.49,0,0,0,24,5.82H17.8V.49A.49.49,0,0,0,17.31,0H10.25a.49.49,0,0,0-.49.49V5.82H3.88a.49.49,0,0,0-.48.38L0,20.46H0v.08H0v8a.49.49,0,0,0,.49.49H27.37a.49.49,0,0,0,.49-.49v-8h0S27.85,20.52,27.85,20.49ZM10.74,1h6.08v9.29a.49.49,0,0,0,.49.49h2.52l-6,7.67L7.72,10.76h2.52a.49.49,0,0,0,.49-.49ZM4.26,6.8h5.5v3h-3a.48.48,0,0,0-.48.5.51.51,0,0,0,.09.27l7.06,9a.49.49,0,0,0,.69.08l.08-.08,7.06-9a.49.49,0,0,0-.38-.79h-3v-3h5.79l3.16,13.28H19.32a.49.49,0,0,0-.49.49v2.07H9V20.57a.48.48,0,0,0-.49-.49H1.1ZM26.88,28.08H1v-7H8.05v2.05a.48.48,0,0,0,.48.49H19.31a.49.49,0,0,0,.49-.49V21.06h7.08Z"/><path class="cls-1" d="M19.18,25.42H8.62a.49.49,0,0,0,0,1H19.18a.49.49,0,1,0,0-1Z"/></g></g></svg>