<svg xmlns="http://www.w3.org/2000/svg" viewBox="0 0 25.25 25.73"><defs><style>.cls-1{fill:#00c8a8;}</style></defs><title>Asset 79</title><g id="Layer_2" data-name="Layer 2"><g id="RULES"><path class="cls-1" d="M9.57,7.62a.75.75,0,0,1,0-1.5h6.8a.75.75,0,0,1,0,1.5H9.57ZM4,13.61H16.34a.75.75,0,0,0,0-1.5H4a.74.74,0,0,0-.75.75A.76.76,0,0,0,4,13.61ZM3.21,9.87a.74.74,0,0,0,.75.75H16.34a.75.75,0,0,0,0-1.5H4A.76.76,0,0,0,3.21,9.87Zm10.16,6.74a7.62,7.62,0,0,1,1.08-1.5H4a.74.74,0,0,0-.75.75h0a.74.74,0,0,0,.75.75h9.41ZM4,19.61h8.57a8.23,8.23,0,0,1,.24-1.5H4a.74.74,0,0,0-.75.75A.76.76,0,0,0,4,19.61Zm-.06,3h9a6.5,6.5,0,0,1-.39-1.5H3.9a.75.75,0,1,0,0,1.5Zm-.72,3.12H15.29a6.84,6.84,0,0,1-1.44-1.5H3.18A1.68,1.68,0,0,1,1.5,22.55V7.11H4.17A3.2,3.2,0,0,0,7.35,3.93V1.5h10A1.68,1.68,0,0,1,19,3.18v9.71a5.78,5.78,0,0,1,.72,0,6.78,6.78,0,0,1,.78,0V3.18A3.16,3.16,0,0,0,17.3,0H6.87a1.7,1.7,0,0,0-.54.09,1.19,1.19,0,0,0-.45.3L.42,5.64a1.37,1.37,0,0,0-.33.48A1.57,1.57,0,0,0,0,6.66V22.55A3.18,3.18,0,0,0,3.18,25.73ZM19.67,14.48a5.58,5.58,0,1,1-5.58,5.58A5.57,5.57,0,0,1,19.67,14.48ZM21,22.55c-.09,0-.18.09-.27.12a1.35,1.35,0,0,1-.33.09c-.15,0-.24-.06-.27-.21a1,1,0,0,1,0-.3,6.21,6.21,0,0,1,.12-.66c.12-.66.24-1.29.36-1.95a3.31,3.31,0,0,0,.06-.54c0-.21-.12-.3-.33-.3H18.56a.51.51,0,0,0-.21,0,.26.26,0,0,0-.21.18.25.25,0,0,0,.15.24c.09,0,.21,0,.3.06s.3.12.3.36v.12c-.09.57-.21,1.14-.3,1.71-.06.33-.09.66-.15,1a1,1,0,0,0,.75,1,4.86,4.86,0,0,0,.66,0,1.66,1.66,0,0,0,1.2-.54.38.38,0,0,0,.12-.21C21.26,22.61,21.14,22.52,21,22.55Zm-1.08-5.94a.93.93,0,0,0-.93.9.91.91,0,0,0,.9.93.92.92,0,0,0,.9-.9A.85.85,0,0,0,19.91,16.61Z"/></g></g></svg>