<svg width="482pt" height="482pt" version="1.1" viewBox="-15 0 482 482.6" xmlns="http://www.w3.org/2000/svg">
 <path d="m268.94 173.95h25.609c3.3125 0 6-2.6875 6-6 0-3.3164-2.6875-6-6-6h-25.609c-3.3164 0-6 2.6836-6 6 0 3.3125 2.6836 6 6 6z" style="fill:#174c66"/>
 <path d="m156.16 173.95h89.82c3.3164 0 6-2.6875 6-6 0-3.3164-2.6836-6-6-6h-89.82c-3.3125 0-6 2.6836-6 6 0 3.3125 2.6875 6 6 6z" style="fill:#174c66"/>
 <path d="m94.543 173.95h38.199c3.3125 0 6-2.6875 6-6 0-3.3164-2.6875-6-6-6h-38.199c-3.3164 0-6 2.6836-6 6 0 3.3125 2.6836 6 6 6z" style="fill:#174c66"/>
 <path d="m231.72 214.81h-106.39c-3.3164 0-6 2.6875-6 6s2.6836 6 6 6h106.39c3.3125 0 6-2.6875 6-6s-2.6875-6-6-6z" style="fill:#174c66"/>
 <path d="m94.543 226.81h11.137c3.3125 0 6-2.6875 6-6s-2.6875-6-6-6h-11.137c-3.3164 0-6 2.6875-6 6s2.6836 6 6 6z" style="fill:#174c66"/>
 <path d="m94.543 282.97h71.258c3.3164 0 6-2.6875 6-6s-2.6836-6-6-6h-71.258c-3.3164 0-6 2.6875-6 6s2.6836 6 6 6z" style="fill:#174c66"/>
 <path d="m123.35 322.88h-28.805c-3.3164 0-6 2.6875-6 6 0 3.3164 2.6836 6 6 6h28.805c3.3125 0 6-2.6836 6-6 0-3.3125-2.6875-6-6-6z" style="fill:#174c66"/>
 <path d="m442.26 132.91c-7.7773-11.805-23.645-15.09-35.465-7.3398l-6.5156 4.2812h-0.015625l-11.477 7.5508v-88.262c-0.015624-14.137-11.473-25.594-25.609-25.609h-131.36c-6.8477-14.375-21.348-23.531-37.27-23.531-15.926 0-30.426 9.1562-37.273 23.531h-131.36c-14.137 0.015625-25.594 11.473-25.609 25.609v407.86c0.023438 14.133 11.477 25.582 25.609 25.602h337.27c14.133-0.015625 25.586-11.469 25.609-25.602v-245.6l51.965-34.145c11.805-7.7773 15.09-23.641 7.3398-35.465zm-222.73 175.34-7.0938-10.801 203.1-133.45 7.0977 10.801zm111.79 52.012h-31.566c-14.137 0.015625-25.594 11.469-25.609 25.605v30.734h-212.55c-2.0977-0.003907-3.7969-1.707-3.8008-3.8047v-319.46c0.003906-2.1016 1.7031-3.8008 3.8008-3.8086h26.961v16.473c0 3.3125 2.6836 6 6 6h200.01c3.3125 0 6-2.6875 6-6v-16.473h26.957c2.0977 0.003906 3.8008 1.707 3.8047 3.8086v81.828l-144.17 94.727c-0.09375 0.0625-0.17969 0.12891-0.26953 0.19922-0.054688 0.039062-0.10938 0.078125-0.16406 0.12109-0.18359 0.14453-0.35938 0.30078-0.52734 0.46484l-0.007813 0.007812c-0.16016 0.16406-0.3125 0.33984-0.45312 0.52344-0.035156 0.042968-0.066406 0.085937-0.10156 0.12891-0.11328 0.15234-0.21875 0.3125-0.31641 0.47656-0.019532 0.027344-0.039063 0.050782-0.058594 0.082032l-27.258 46.973-8.1016 5.3203c-2.7695 1.8203-3.5391 5.5391-1.7188 8.3086 1.8203 2.7695 5.5391 3.5391 8.3086 1.7188l8.1016-5.3203 53.93-6.375c0.03125 0 0.0625-0.011719 0.09375-0.015626 0.097657-0.015624 0.19141-0.035156 0.28906-0.054687 0.17578-0.03125 0.34766-0.066406 0.51562-0.11328 0.10156-0.027344 0.20312-0.0625 0.30078-0.10156 0.16406-0.054687 0.32422-0.11328 0.48047-0.17969 0.097656-0.042969 0.19922-0.089844 0.29297-0.13672 0.15234-0.078125 0.30078-0.16016 0.44531-0.25 0.058594-0.035156 0.11719-0.058594 0.17578-0.10156l110.21-72.406zm-8.2422 12-36.934 36.934v-23.328c0.007812-7.5117 6.0977-13.598 13.609-13.605zm-115.61-60.523-33.777 3.9961 17.074-29.422 8.3516 12.715zm-1.6172-24.316-7.0938-10.801 187.39-123.12 0.011719-0.007812 15.699-10.316 7.0977 10.801zm157.34-251.89c7.5117 0.007812 13.598 6.0938 13.609 13.609v96.145l-33.477 22v-73.945c-0.011719-8.7266-7.082-15.797-15.805-15.809h-26.957v-18.586c0-3.3164-2.6875-6-6-6h-58.711v-11.648c-0.003906-1.9297-0.14062-3.8555-0.41016-5.7656zm-168.63-23.527c16.172 0.015625 29.281 13.125 29.297 29.301v17.641c0 3.3125 2.6875 6 6 6h58.711v35.059h-188.01v-35.059h58.707c3.3125 0 6-2.6875 6-6v-17.648c0.019531-16.172 13.125-29.273 29.297-29.293zm182.24 445c-0.015624 7.5078-6.1016 13.594-13.609 13.602h-337.27c-7.5078-0.011719-13.594-6.0938-13.609-13.602v-407.86c0.007813-7.5117 6.0977-13.602 13.609-13.609h127.75c-0.26953 1.9102-0.40625 3.8359-0.41016 5.7656v11.648h-58.707c-3.3164 0-6 2.6836-6 6v18.586h-26.961c-8.7227 0.015625-15.789 7.082-15.801 15.809v319.46c0.011719 8.7188 7.0781 15.789 15.801 15.801h214.76c0.79688-0.007813 1.5898-0.066407 2.375-0.17578 0.46484 0.11328 0.94141 0.17187 1.4219 0.17578 1.7344 0 3.3828-0.75391 4.5156-2.0586 1.5664-0.83203 2.9961-1.8906 4.25-3.1445l49.207-49.199c3.3398-3.3242 5.2109-7.8477 5.1992-12.562v-120.36l33.477-22zm57.375-289.77-1.5078 0.98828-20.777-31.625 1.5078-0.98828c6.2812-4.1289 14.719-2.3828 18.844 3.8984l5.832 8.8789c4.1172 6.2812 2.3711 14.711-3.8984 18.844z" style="fill:#174c66"/>
</svg>
