<svg style="enable-background:new 0 0 512 512" version="1.1" viewBox="0 0 512 512" xmlns="http://www.w3.org/2000/svg">
 <path d="m131.19 19.652c-32.212 0-58.423 25.972-58.423 57.775l-2.124 299.55 31.867 0.228 2.125-299.66c0-14.351 11.913-26.025 26.556-26.025h320.27v-31.867z" style="fill:#174c66"/>
 <path d="m451.45 19.652c-33.386 0-60.548 27.161-60.548 60.548v336.2c0 24.304-19.779 44.083-44.083 44.083s-44.083-19.779-44.083-44.083v-38.772c0-8.801-7.133-15.934-15.934-15.934h-270.87c-8.801 0-15.934 7.133-15.934 15.934v38.772c0 41.879 34.071 75.95 75.95 75.95v-31.867c-24.309 0-44.083-19.779-44.083-44.083v-22.839h239v22.838c0 41.879 34.071 75.95 75.95 75.95s75.95-34.071 75.95-75.95v-249.1h73.295c8.801 0 15.934-7.133 15.934-15.934v-71.17c0-33.386-27.161-60.547-60.548-60.547zm28.681 115.78h-57.361v-55.237c0-15.817 12.869-28.68 28.68-28.68s28.68 12.864 28.68 28.68v55.237z" style="fill:#174c66"/>
 <rect x="72.763" y="460.48" width="270.33" height="31.867" style="fill:#174c66"/>
 <path d="m236.88 108.35h-82.324c-8.801 0-15.934 7.133-15.934 15.934s7.133 15.934 15.934 15.934h82.324c8.801 0 15.934-7.133 15.934-15.934s-7.134-15.934-15.934-15.934z" style="fill:#174c66"/>
 <path d="m332.48 172.08h-177.92c-8.801 0-15.934 7.133-15.934 15.934s7.133 15.934 15.934 15.934h177.92c8.801 0 15.934-7.133 15.934-15.934s-7.133-15.934-15.934-15.934z" style="fill:#174c66"/>
 <path d="m332.48 235.82h-177.92c-8.801 0-15.934 7.133-15.934 15.934s7.133 15.934 15.934 15.934h177.92c8.801 0 15.934-7.128 15.934-15.934 0-8.801-7.133-15.934-15.934-15.934z" style="fill:#174c66"/>
 <path d="m332.48 299.55h-177.92c-8.801 0-15.934 7.133-15.934 15.934s7.133 15.934 15.934 15.934h177.92c8.801 0 15.934-7.133 15.934-15.934s-7.133-15.934-15.934-15.934z" style="fill:#174c66"/>
</svg>
