<svg width="512pt" height="512pt" version="1.1" viewBox="0 0 512 512" xmlns="http://www.w3.org/2000/svg">
 <path d="m509.93 495.91-53.934-70.164c-1.6797-2.1914-4.1914-3.5859-6.9414-3.8594-36.59-3.6289-56.125-11.398-71.828-17.645-13.891-5.5234-28.25-11.234-46.781-11.234-28.227 0-49.805 15.051-64.441 32.109v-0.37109c8.1523-18.797 29.883-48.457 63.641-48.457 14.523 0 25.832 4.5 38.938 9.7109 10.934 4.3477 24.543 9.7617 44.438 13.941 5.4062 1.1367 10.707-2.3242 11.844-7.7305 1.1328-5.4023-2.3281-10.707-7.7305-11.84-18.215-3.8281-30.402-8.6758-41.164-12.957-13.75-5.4688-27.969-11.125-46.324-11.125-35.145 0-59.879 23.551-73.641 45-13.762-21.449-38.496-45-73.645-45-18.352 0-32.574 5.6562-46.328 11.129-15.52 6.1719-34.836 13.855-71.016 17.441-5.4961 0.54688-9.5078 5.4414-8.9648 10.938 0.54688 5.4961 5.4453 9.5078 10.941 8.9648 38.977-3.8672 60.625-12.477 76.434-18.762 13.098-5.2109 24.41-9.7109 38.934-9.7109 33.762 0 55.496 29.664 63.645 48.461v0.36719c-14.641-17.059-36.215-32.113-64.445-32.113-18.527 0-32.891 5.7148-46.789 11.242-15.695 6.2422-35.227 14.012-71.82 17.641-2.7461 0.27344-5.2578 1.668-6.9414 3.8594l-53.93 70.164c-2.3242 3.0195-2.7266 7.0977-1.043 10.516 1.6836 3.4141 5.1602 5.5781 8.9688 5.5781h492c3.8086 0 7.2852-2.1641 8.9688-5.5781 1.6836-3.418 1.2812-7.4961-1.043-10.516zm-179.48-82.906c14.699 0 26.141 4.5508 39.398 9.8242 15.375 6.1172 36.223 14.406 72.91 18.504l38.844 50.535c-66.832-1.4414-98.551-14.059-119.96-22.574-12.426-4.9414-20.633-8.207-31.191-8.207-18.48 0-31.148 13.871-36.398 25.785-0.046875 0.09375-0.09375 0.1875-0.14062 0.28516l-2.2773 4.8477h-25.625v-29.926c8.2422-19.023 30.246-49.074 64.441-49.074zm-261.19 28.328c36.688-4.0977 57.531-12.391 72.918-18.508 13.246-5.2695 24.691-9.8203 39.387-9.8203 34.195 0 56.203 30.051 64.445 49.074v29.926h-25.629l-2.2734-4.8477c-0.046875-0.097656-0.09375-0.19141-0.14062-0.28516-5.2539-11.914-17.918-25.785-36.398-25.785-10.559 0-18.766 3.2656-31.191 8.207-21.41 8.5156-53.133 21.133-119.96 22.574zm88.512 46.543c11.008-4.3789 17.07-6.7891 23.793-6.7891 8.6289 0 14.047 6.7891 16.547 10.918h-50.922c3.8047-1.4336 7.3047-2.8242 10.582-4.1289zm156.14 4.1289c2.5-4.1289 7.918-10.918 16.543-10.918 6.7266 0 12.789 2.4102 23.801 6.793 3.2734 1.3008 6.7773 2.6914 10.578 4.125z" style="fill:#174c66"/>
 <path d="m444.66 404.72 0.36328 0.035156c0.33203 0.03125 0.66406 0.050782 0.98828 0.050782 5.0859 0 9.4336-3.8594 9.9414-9.0234 0.53906-5.4961-3.4766-10.391-8.9727-10.93l-0.35547-0.035157c-5.4961-0.54687-10.391 3.4727-10.934 8.9688-0.54297 5.4961 3.4727 10.391 8.9688 10.934z" style="fill:#174c66"/>
 <path d="m222.25 246.04c-2.5977 0.22266-5.0234 1.4531-6.7344 3.4492-1.9023 2.2148-2.7383 5.1484-2.2969 8.0312 4.1445 26.996 18.512 45.441 39.488 51.766-0.48047 3.7812-0.92578 7.5664-1.3242 11.363l-5.3242 50.777c-0.57422 5.4922 3.4102 10.414 8.9023 10.988 0.35547 0.039063 0.70703 0.054688 1.0547 0.054688 5.0547 0 9.3945-3.8164 9.9336-8.957l5.3242-50.777c0.38672-3.6914 0.82031-7.3672 1.2812-11.035 46.516-0.57422 74.914-30.234 89.129-92.949 1.582-6.9766 3.5-15.102 5.707-24.152 0.69922-2.8672 0.097656-5.8945-1.6484-8.2773-0.64844-0.88281-1.4297-1.6445-2.3047-2.2617l3.9336-2.25c2.3633-1.3477 4.0742-3.6055 4.7344-6.2461 17.473-69.531 43.051-161.96 43.309-162.89 0.86328-3.1094 0.17188-6.4414-1.8555-8.9492-2.0234-2.5117-5.1484-3.8984-8.3555-3.7031-3.3867 0.19141-83.723 5.9961-149.76 113.43-0.82031 1.332-1.6172 2.6523-2.4062 3.9766-1.2148 2.0234-1.6719 4.4141-1.2969 6.7422l5.0078 30.832h-16.98c-4.0078 0-7.625 2.3906-9.1992 6.0742-10.707 25.09-16.859 48.641-18.289 70.008-0.19141 2.8398 0.83984 5.6289 2.832 7.6641zm131.5-79.48-26.707 15.262c-3.8281 2.1875-5.7734 6.625-4.7852 10.922 0.98828 4.2969 4.6758 7.4414 9.0742 7.7383l13.848 0.92969c-1.1016 4.6406-2.1055 8.957-3.0039 12.918-14.434 63.688-41.09 76.262-66.691 77.324 14.672-88.473 51.801-170.63 108.61-240.25-8.7266 32.188-20.637 76.727-30.344 115.16zm-107.3 8.4453h22.051c2.9297 0 5.7148-1.2891 7.6172-3.5234 1.8984-2.2344 2.7227-5.1875 2.2539-8.082l-6.3008-38.809c0.13281-0.22266 0.26953-0.44141 0.40625-0.66406 31.527-51.293 66.285-76.82 89.891-89.203 5.5898-2.9336 10.832-5.2812 15.617-7.1719-34.41 39.953-62.645 84.613-83.965 132.9-18.199 41.211-31.059 84.367-38.383 128.67-10.891-4.4609-16.73-14.008-19.863-23.121h10.227c4.0273 0 7.6602-2.4141 9.2188-6.125 1.5586-3.707 0.74219-7.9922-2.0742-10.871l-20.547-20.984c1.6172-16.25 6.2656-34.039 13.852-53.016z" style="fill:#174c66"/>
</svg>
