<svg style="enable-background:new 0 0 424.098 424.098" version="1.1" viewBox="0 0 424.1 424.1" xmlns="http://www.w3.org/2000/svg">
 <path d="m351.19 401.92h-278.29c-4.487 0-8.129-3.633-8.129-8.129v-151.53l-56.664-0.114c-3.284-8e-3 -6.243-1.992-7.495-5.023-1.252-3.04-0.553-6.527 1.764-8.852l203.73-203.73c1.853-1.845 4.503-2.666 7.047-2.276 2.414 0.39 4.511 1.845 5.731 3.942l47.43 47.43v-15.143c0-4.487 3.633-8.129 8.129-8.129h47.755c4.495 0 8.129 3.642 8.129 8.129v79.156l91.39 91.398c2.325 2.325 3.024 5.828 1.764 8.868-1.26 3.032-4.227 5.007-7.511 5.007h-0.016l-56.64-0.114v150.98c8e-3 4.496-3.626 8.129-8.121 8.129zm-270.16-16.257h262.03v-151c0-2.162 0.854-4.235 2.39-5.755 1.528-1.52 3.585-2.374 5.739-2.374h0.016l45.105 0.089-79.855-79.863c-1.528-1.528-2.382-3.593-2.382-5.747v-74.392h-31.498v26.645c0 3.284-1.975 6.251-5.015 7.511-3.032 1.268-6.527 0.569-8.86-1.764l-57.038-57.038-183.95 183.95 45.203 0.089c4.487 8e-3 8.112 3.642 8.112 8.129v151.52z" style="fill:#174c66"/>
</svg>
