<svg xmlns="http://www.w3.org/2000/svg" xmlns:osb="http://www.openswatchbook.org/uri/2009/osb" version="1.1" viewBox="0 0 13.22 16.25">
   <path class="markerBody" d="m6.609.1323c1.657 0 3.314.7374 4.518 1.917 1.205 1.327 1.958 2.802 1.958 4.572 0 1.77-.7531 3.687-1.958 4.867l-4.518 4.572-4.518-4.572c-1.205-1.18-1.958-2.95-1.958-4.867 0-1.77.6025-3.244 1.958-4.572 1.205-1.18 2.862-1.917 4.518-1.917z" style="fill:#030609;stroke-width:.2646;stroke:#ff61f1"/>
   <g transform="matrix(.7367 0 0 .7367 15.76 -5.683)" style="fill:#ff61f1">
      <path d="m-12.4 11.99c.6355 0 1.15-.5147 1.15-1.15-2.7e-5-.6355-.5147-1.15-1.15-1.15-.6355 0-1.15.5147-1.15 1.15 0 .6355.5147 1.15 1.15 1.15z" style="fill:#ff61f1"/>
      <path d="m-11.28 13.36c-.1553-.4716-.5952-.7879-1.09-.7879h-.06613c-.4946 0-.9346.3163-1.09.7879l-1.467 4.388h1.725v3.451h1.725v-3.451h1.725z" style="fill:#ff61f1"/>
   </g>
</svg>