<svg xmlns="http://www.w3.org/2000/svg" xmlns:osb="http://www.openswatchbook.org/uri/2009/osb" version="1.1" viewBox="0 0 13.22 16.25">
   <path class="markerBody" d="m6.609.1323c1.657 0 3.314.7374 4.518 1.917 1.205 1.327 1.958 2.802 1.958 4.572 0 1.77-.7531 3.687-1.958 4.867l-4.518 4.572-4.518-4.572c-1.205-1.18-1.958-2.95-1.958-4.867 0-1.77.6025-3.244 1.958-4.572 1.205-1.18 2.862-1.917 4.518-1.917z" style="fill:#030609;stroke-width:.2646;stroke:#56a2f1"/>
   <g transform="matrix(.777 0 0 .777 20.29 -6.083)" style="fill:#56a2f1;stroke-width:1.287">
      <path d="m-17.58 11.99c.6355 0 1.15-.5147 1.15-1.15-2.7e-5-.6355-.5147-1.15-1.15-1.15s-1.15.5147-1.15 1.15c0 .6355.5147 1.15 1.15 1.15z" style="fill:#56a2f1;stroke-width:.3405"/>
      <path d="m-16.72 12.57h-1.725c-.6326 0-1.15.5176-1.15 1.15v3.163h.8627v4.313h2.3v-4.313h.8627v-3.163c0-.6326-.5176-1.15-1.15-1.15z" style="fill:#56a2f1;stroke-width:.3405"/>
   </g>
</svg>