<svg xmlns="http://www.w3.org/2000/svg" xmlns:osb="http://www.openswatchbook.org/uri/2009/osb" version="1.1" viewBox="0 0 13.22 16.25">
   <path class="markerBody" d="m6.609.1323c1.657 0 3.314.7374 4.518 1.917 1.205 1.327 1.958 2.802 1.958 4.572 0 1.77-.7531 3.687-1.958 4.867l-4.518 4.572-4.518-4.572c-1.205-1.18-1.958-2.95-1.958-4.867 0-1.77.6025-3.244 1.958-4.572 1.205-1.18 2.862-1.917 4.518-1.917z" style="fill:#030609;stroke-width:.2646;stroke:#cc1386"/>
   <g transform="matrix(.01558 0 0 .01558 2.871 1.785)" style="fill:#cc1386;stroke-width:16.98">
      <g style="fill:#cc1386;stroke-width:16.98">
         <g style="fill:#cc1386;stroke-width:16.98">
            <path d="m268.6 193.5c-3.781-10.44-15.31-15.84-25.76-12.06l-65.41 23.68-53.67-39.7 53.83 21.08.059-3.738c.798-16.24-11.52-30.21-27.82-31.37l-50.89-3.612c-8.34-.591-16.55 2.325-22.64 8.047s-9.526 13.73-9.463 22.09l1.112 146.3h-14.24l-21.62-170.7c-1.115-8.815-9.164-15.06-17.98-13.94-8.815 1.116-15.06 9.167-13.94 17.98l23.4 184.8c1.018 8.04 7.857 14.07 15.96 14.07h58.1v65.88l-38.22 31.2c-4.747 3.876-5.456 10.87-1.579 15.61 3.876 4.749 10.87 5.455 15.61 1.579l24.18-19.74v11.14c0 6.129 4.968 11.1 11.1 11.1s11.1-4.968 11.1-11.1v-11.14l24.18 19.74c4.751 3.877 11.74 3.167 15.61-1.579 3.876-4.747 3.168-11.74-1.579-15.61l-38.22-31.2v-65.88h52.98c8.037 0 14.68-5.901 15.88-13.6l3.866.998 13.84 108.3c1.69 13.23 13.79 22.57 27 20.88 13.22-1.689 22.57-13.78 20.88-27l-15.91-124.5c-1.251-9.795-8.344-17.84-17.9-20.31l-50.25-12.97 1.225-17.27c-8.395.193-16.47-3.597-21.69-10.16l-49.88-62.96 62.34 46.11c5.326 3.938 12.37 5.07 18.81 2.741l75.54-27.35c10.44-3.78 15.84-15.31 12.06-25.75z" style="fill:#cc1386;stroke-width:16.98"/>
         </g>
      </g>
      <g style="fill:#cc1386;stroke-width:16.98">
         <g style="fill:#cc1386;stroke-width:16.98">
            <circle cx="134.8" cy="83.27" r="44.39" style="fill:#cc1386;stroke-width:16.98"/>
         </g>
      </g>
      <g style="fill:#cc1386;stroke-width:16.98">
         <g style="fill:#cc1386;stroke-width:16.98">
            <path d="m495.4 259.9h-225.3c-9.193 0-16.65 7.453-16.65 16.65s7.453 16.65 16.65 16.65h2.219v168.8c0 6.129 4.968 11.1 11.1 11.1s11.1-4.968 11.1-11.1v-168.8h177.6v168.8c0 6.129 4.968 11.1 11.1 11.1s11.1-4.968 11.1-11.1v-168.8c11.52 0 17.76-8.326 17.76-16.65 0-9.193-7.452-16.65-16.65-16.65z" style="fill:#cc1386;stroke-width:16.98"/>
         </g>
      </g>
      <g style="fill:#cc1386;stroke-width:16.98">
         <g style="fill:#cc1386;stroke-width:16.98">
            <path d="m387.5 160.1c-5.375-2.945-12.12-.975-15.06 4.4l-33.46 61.08h-60.18c-6.129 0-11.1 4.968-11.1 11.1 0 .169.019.333.026.5.264 5.895 5.113 10.6 11.07 10.6h66.75c4.054 0 7.785-2.211 9.732-5.765l36.62-66.84c2.944-5.374.973-12.12-4.401-15.06z" style="fill:#cc1386;stroke-width:16.98"/>
         </g>
      </g>
   </g>
</svg>