<svg xmlns="http://www.w3.org/2000/svg" xmlns:osb="http://www.openswatchbook.org/uri/2009/osb" version="1.1" viewBox="0 0 13.22 16.25">
   <path class="markerBody" d="m6.609.1323c1.657 0 3.314.7374 4.518 1.917 1.205 1.327 1.958 2.802 1.958 4.572 0 1.77-.7531 3.687-1.958 4.867l-4.518 4.572-4.518-4.572c-1.205-1.18-1.958-2.95-1.958-4.867 0-1.77.6025-3.244 1.958-4.572 1.205-1.18 2.862-1.917 4.518-1.917z" style="fill:#030609;stroke-width:.2646;stroke:#9fb200"/>
   <g id="XMLID_90_" transform="matrix(.02577 0 0 .02577 2.41 1.601)" style="fill:#9fb200">
      <path id="XMLID_91_" d="m315 225c-8.284 0-15 6.717-15 15v25.01h-30v-35c0-24.81-20.19-45-45-45s-45 20.19-45 45v35h-30v-35c0-24.81-20.19-45-45-45s-45 20.19-45 45v35h-30v-25.01c0-8.285-6.716-15-15-15s-15 6.715-15 15v70.01c0 8.283 6.716 15 15 15s15-6.717 15-15v-15h270v15c0 8.283 6.716 15 15 15s15-6.717 15-15v-70.01c0-8.283-6.716-15-15-15z" style="fill:#9fb200"/>
      <path id="XMLID_92_" d="m157.5 63.65v16.39c0 4.142 3.357 7.5 7.5 7.5h16.39c4.143 0 7.5-3.358 7.5-7.5s-3.357-7.5-7.5-7.5h-8.889v-8.889c0-4.143-3.357-7.5-7.5-7.5s-7.5 3.358-7.5 7.5z" style="fill:#9fb200"/>
      <path id="XMLID_93_" d="m90 80c0 41.36 33.64 75 75 75s75-33.64 75-75c0-41.35-33.64-75-75-75s-75 33.65-75 75zm120 0c0 24.81-20.19 45-45 45s-45-20.19-45-45 20.19-45 45-45 45 20.19 45 45z" style="fill:#9fb200"/>
   </g>
</svg>