<svg width="212.74" height="470.8" version="1.1" viewBox="0 0 56.286 124.56" xmlns="http://www.w3.org/2000/svg">
   <g transform="translate(0 20.682)">
      <rect x=".23707" y=".23563" width="55.812" height="20.682" style="fill:#001109;paint-order:stroke fill markers"/>
      <text transform="scale(1.0067 .9933)" x="36.811638" y="12.314711" style="fill:#000000;font-family:'Brandon Grotesque';font-size:5.313px;letter-spacing:0px;line-height:1.25;stroke-width:.26458;text-align:center;text-anchor:middle;word-spacing:0px" xml:space="preserve"><tspan x="36.811638" y="12.314711" style="fill:#f8b624;stroke-width:.26458;text-align:center;text-anchor:middle">Accommodation</tspan></text>
      <path d="m8.0574 13.117c0.49764 0 0.90017-0.3983 0.90017-0.88815s-0.40263-0.8872-0.90017-0.8872c-0.49658 0-0.90017 0.39726-0.90017 0.8872s0.40355 0.88815 0.90017 0.88815z" style="fill:#f8b624;stroke-width:.42408;stroke:#f8b624"/>
      <path d="m15.644 11.849c0.39338 0 0.71329 0.31173 0.71646 0.69972l3e-3 1.866h-5.587v-2.5657z" style="fill:#f8b624;stroke-width:.42408;stroke:#f8b624"/>
      <polygon transform="matrix(.13214 0 0 .13038 2.0078 2.6136)" points="20.93 104.33 108.66 104.33 108.66 95.23 30.039 95.23 30.039 60.738 108.66 25.215 108.66 15.77 11.141 59.785 11.141 69.262 20.93 64.863" style="fill:#f8b624;stroke-width:3.231;stroke:#f8b624"/>
      <path d="m9.3996 13.539h-1.6146c-0.24472 0-0.44293 0.19765-0.44293 0.44002 0 0.23833 0.19821 0.43597 0.44293 0.43597h2.0555c0.24472 0 0.44386-0.19765 0.44386-0.43597v-1.7581c0-0.24146-0.19927-0.43597-0.44386-0.43597-0.24367 0-0.44187 0.19452-0.44187 0.43597z" style="fill:#f8b624;stroke-width:.42408;stroke:#f8b624"/>
   </g>
   <g>
      <rect x=".23707" y="41.599" width="55.812" height="20.682" style="fill:#001109;paint-order:stroke fill markers"/>
      <text transform="scale(1.0067 .9933)" x="37.90736" y="53.59906" style="fill:#000000;font-family:'Brandon Grotesque';font-size:5.313px;letter-spacing:0px;line-height:1.25;stroke-width:.26458;text-align:center;text-anchor:middle;word-spacing:0px" xml:space="preserve"><tspan x="37.90736" y="53.59906" style="fill:#f8b624;stroke-width:.26458;text-align:center;text-anchor:middle">Transportation</tspan></text>
      <g transform="matrix(.80051 0 0 .78982 1.4605 .99534)" style="stroke-width:1.2576">
         <path id="Car" d="m3.108 69.534c-0.017267-1.2584-0.086336-0.17558 0.68081-2.0412 0.55501-1.2681-0.0074-0.92667 2.8638-0.97304 2.5555 0.05121 2.04-0.3146 2.627 1.0316 0.73507 1.7242 0.67834 0.82182 0.67341 1.9461-0.027134 1.234 0.43414 0.91697-3.4337 0.95842-3.8382-0.05121-3.3843 0.2707-3.4114-0.92182zm0.77699-1.2145 0.52541-1.1999c0.098032-0.21313 0.066753-0.18167 0.29601-0.1829l3.6734-3.92e-4c0.19886 7.23e-4 0.16968-0.01204 0.2516 0.17558l0.52248 1.1929zm-0.37576 2.2739 0.98255-0.0022c-0.00301 1.2196 0.099215 1.1516-0.43661 1.1595-0.63805-0.0024-0.53719 0.06124-0.54597-1.1573zm5.06 0.0087h0.98421c-0.00658 1.2215 0.08332 1.138-0.47361 1.1413-0.57584-0.0076-0.50266 0.08237-0.51061-1.1413z" style="fill:none;stroke-width:.33341;stroke:#f8b624"/>
         <ellipse id="LeftLamp" cx="3.9979" cy="69.217" rx=".4798" ry=".47436" style="fill:none;stroke-width:.33341;stroke:#f8b624"/>
         <ellipse id="RightLamp" cx="9.0484" cy="69.217" rx=".4798" ry=".47436" style="fill:none;stroke-width:.33341;stroke:#f8b624"/>
         <g transform="matrix(.015978 .015903 -.016085 .015796 7.8378 53.525)" style="fill:#f8b624;stroke-width:14.79;stroke:#f8b624">
            <path d="m196.91 25.382c0.06-34 51.309-34 51.275 0.958v142.69l199.76 120.06v52.717l-198.8-65.43v106.65l46.008 35.944v41.694l-70.927-22.046-70.927 22.046v-41.694l45.529-35.944v-106.65l-198.83 65.43v-52.717l196.91-120.06z" style="fill:#f8b624;stroke-width:14.79;stroke:#f8b624"/>
         </g>
         <path d="m16.588 58.506c-1.2368 0-2.9448 0.34937-3.6515 0.64051-0.70667 0.29114-1.1779 0.58228-1.3252 1.3101l-0.53004 4.035v5.5598h0.91285v0.8719c0 1.0631 1.5736 1.0631 1.5736 0v-0.8719h5.9345v0.8719c0 1.0631 1.5736 1.0631 1.5736 0v-0.8719h0.91285v-5.5598l-0.53004-4.035c-0.14723-0.72784-0.6184-1.019-1.3252-1.3101-0.70676-0.29114-2.4148-0.64051-3.6515-0.64051" style="fill:none;stroke-width:.33341;stroke:#f8b624"/>
         <g transform="matrix(.030723 0 0 .030375 11.081 58.506)" style="fill:#f8b624;stroke-width:10.914;stroke:#f8b624">
            <path d="m299.68 322.72c13.568 0 24.568-11.002 24.568-24.57s-11-24.57-24.568-24.57-24.569 11.002-24.569 24.57 11.001 24.57 24.569 24.57z" style="fill:#f8b624;stroke-width:10.914;stroke:#f8b624"/>
         </g>
         <g transform="matrix(.030723 0 0 .030375 11.081 58.506)" style="fill:#f8b624;stroke-width:10.914;stroke:#f8b624">
            <path d="m55.342 322.72c-13.568 0-24.568-11.002-24.568-24.57s11-24.57 24.568-24.57 24.569 11.002 24.569 24.57-11.001 24.57-24.569 24.57z" style="fill:#f8b624;stroke-width:10.914;stroke:#f8b624"/>
         </g>
         <path d="m16.477 60.18h-2.1855c-0.44174 0-0.44174-0.65506 0-0.65506h4.4878c0.44174 0 0.44174 0.65506 0 0.65506z" style="fill:#f8b624;stroke-width:.33341;stroke:#f8b624"/>
         <path d="m16.477 60.841h-3.3765c-0.46663 0-0.58854 0.2344-0.64519 0.58997l-0.41255 2.9265c-0.03847 0.28051 0.0436 0.55895 0.4356 0.55895h8.1137c0.392 0 0.47406-0.27844 0.4356-0.55895l-0.41255-2.9265c-0.05665-0.35556-0.17856-0.58997-0.64519-0.58997z" style="fill:#f8b624;stroke-width:.33341;stroke:#f8b624"/>
      </g>
   </g>
   <g>
      <rect x=".23707" y="62.281" width="55.812" height="20.682" style="fill:#001109;paint-order:stroke fill markers"/>
      <text transform="scale(1.0067 .9933)" x="35.606098" y="70.86689" style="fill:#000000;font-family:'Brandon Grotesque';font-size:5.313px;letter-spacing:0px;line-height:1.25;stroke-width:.26458;text-align:center;text-anchor:middle;word-spacing:0px" xml:space="preserve"><tspan x="36.19759" y="70.86689" style="fill:#f8b624;stroke-width:.26458;text-align:center;text-anchor:middle">Adventure &amp; </tspan><tspan x="35.606098" y="77.508202" style="fill:#f8b624;stroke-width:.26458;text-align:center;text-anchor:middle">Recreation</tspan></text>
      <g transform="matrix(.014789 0 0 .014592 3.7751 65.471)" style="fill:#f8b624;stroke-width:18.01">
         <g transform="matrix(.1 0 0 -.1 0 512)" style="fill:#f8b624;stroke-width:18.01">
            <path d="m4194.6 5009.6c-912.8-59.4-1488.1-222.4-1770-500.5-132.3-132.3-186-249.3-199.4-429.6-30.7-420 251.2-974.2 772.8-1522.6 473.6-496.7 1169.8-978 1620.4-1116.1 203.3-63.3 582.9-63.3 765.1 0 289.6 101.6 740.2 372 1112.2 669.2 258.9 207.1 655.9 609.8 840 857.2 295.3 393.1 460.2 809.2 441.1 1116.1-32.6 506.3-577.2 793.9-1722.1 909-266.5 24.9-1534.1 38.3-1860.1 17.3z" style="fill:#f8b624;stroke-width:18.01"/>
            <path d="m7928.3 3295.2c-23-26.9-80.6-120.8-128.5-209l-84.4-163 140-602.1c76.7-329.8 153.4-619.4 168.8-644.3 15.3-24.9 47.9-53.7 72.9-65.2 69-30.7 262.7 13.4 320.3 74.8 40.3 42.2 44.1 63.3 38.3 203.3-11.5 372-90.1 824.6-207.1 1187-72.9 224.4-105.5 264.6-214.8 264.6-42.3-0.1-76.8-15.4-105.5-46.1z" style="fill:#f8b624;stroke-width:18.01"/>
            <path d="m1885.8 3241.5c-126.6-115.1-337.5-974.2-337.5-1374.9 0-172.6 26.8-207.1 191.8-239.7 237.8-49.9 234-53.7 414.2 667.3l149.6 598.3-101.6 178.3c-99.7 174.5-141.9 212.9-232 212.9-19.3 0-57.7-19.2-84.5-42.2z" style="fill:#f8b624;stroke-width:18.01"/>
            <path d="m6927.2 2054.5c-387.3-345.2-828.4-646.2-1211.9-826.5l-216.7-101.6v-1001.1l149.6-9.6c172.6-9.6 274.2-55.6 368.2-161.1 124.6-141.9 124.6-145.7 124.6-822.6 0-596.4-1.9-615.6-42.2-692.3-101.7-189.8-245.5-274.2-460.2-276.1h-140v-573.4c0-368.2-7.7-592.5-21.1-632.8-36.4-103.5-88.2-117-477.5-117s-441.1 13.4-477.5 117c-13.4 40.3-21.1 264.6-21.1 632.8v573.4h-138.1c-216.7 1.9-360.5 86.3-462.1 276.1-40.3 74.8-42.2 103.6-47.9 650.1-7.7 646.3 1.9 713.4 122.7 853.3 99.7 117 197.5 161.1 377.8 172.6l147.7 9.6v1004.8l-90.1 34.5c-375.8 141.9-933.9 504.3-1336.6 870.6-69 61.4-147.7 118.9-174.5 124.6-74.8 19.2-149.6-32.6-210.9-145.7-30.7-55.6-136.2-230.1-235.9-385.4-295.3-466-429.6-782.4-515.8-1211.9-40.3-199.4-57.5-1892.7-26.8-2418.2 99.7-1658.7 513.9-2491 1357.7-2734.6l149.4-44h3164l149.6 44.1c303 86.3 542.7 247.4 734.4 490.9 360.5 454.5 552.3 1133.3 621.3 2207.2 24.9 391.2 24.9 2017.4 0 2243.6-44.1 391.2-136.2 719.1-297.2 1054.7-115 241.6-496.7 910.9-533.1 933.9-11.5 7.7-53.7 15.3-90.2 15.3-57.4-1.8-93.8-24.8-239.6-155.2z" style="fill:#f8b624;stroke-width:18.01"/>
            <path d="m1469.6 1260.6c-402.7-172.6-676.9-454.5-811.1-832.3l-59.5-164.9-5.7-1436.3-5.8-1436.3 59.4-126.6c82.5-176.4 354.8-443 667.3-650.1 245.5-164.9 303-184.1 383.5-126.6 76.7 53.7 78.6 95.9 23 372-120.7 596.5-153.3 1062.5-153.3 2285.9 0 728.7 5.7 983.7 28.8 1160.2 30.7 226.3 115.1 584.9 170.7 719.1 44.1 103.5 38.4 182.2-17.3 235.9-59.4 61.3-138.1 61.3-280 0z" style="fill:#f8b624;stroke-width:18.01"/>
            <path d="m8284.9 1279.8c-74.8-51.8-82.5-122.7-32.6-280 67.1-209 136.2-536.9 159.2-749.8 26.9-235.9 26.9-1940.7 1.9-2326.1-26.8-389.3-86.3-857.2-143.8-1108.4-49.9-224.4-46-274.2 32.6-327.9 80.5-57.5 138-38.4 383.5 126.6 304.9 203.3 579.1 469.8 665.4 648.2l61.3 126.6-5.7 1436.3-5.7 1438.1-59.4 164.9c-136.1 379.7-414.2 663.5-815 832.3-128.5 55.6-184.1 59.4-241.7 19.2z" style="fill:#f8b624;stroke-width:18.01"/>
            <path d="m4835.1 1061.1c-3.8-3.8-7.7-218.6-7.7-475.6v-466h345.2l-3.8 473.7-5.8 471.8-159.2 1.9c-88.2 1.9-164.9-1.9-168.7-5.8z" style="fill:#f8b624;stroke-width:18.01"/>
            <path d="m4238.7-252.5-53.7-46v-1112.2l92-99.8h1446l92 99.8v1112.2l-53.7 46c-51.8 44.1-67.1 46-320.3 46h-266.5l-11.6-886-53.7-46c-72.9-63.3-164.9-61.3-226.3 3.8-46 47.9-46 53.7-51.8 489l-5.8 439.2h-266.3c-253.2 0.1-268.5-1.9-320.3-46z" style="fill:#f8b624;stroke-width:18.01"/>
            <path d="m4837-1859.4c-5.8-13.4-7.7-237.8-5.8-494.7l5.8-469.8h326v978l-159.2 5.8c-116.9 3.7-161-2.1-166.8-19.3z" style="fill:#f8b624;stroke-width:18.01"/>
         </g>
      </g>
   </g>
   <g>
      <rect x=".23707" y="82.962" width="55.812" height="20.682" style="fill:#001109;paint-order:stroke fill markers"/>
      <text transform="scale(1.0067 .9933)" x="36.503994" y="92.156395" style="fill:#000000;font-family:'Brandon Grotesque';font-size:5.313px;letter-spacing:0px;line-height:1.25;stroke-width:.26458;text-align:center;text-anchor:middle;word-spacing:0px" xml:space="preserve"><tspan x="36.503994" y="92.156395" style="fill:#f8b624;stroke-width:.26458;text-align:center;text-anchor:middle">Culture &amp;</tspan><tspan x="36.503994" y="98.797691" style="fill:#f8b624;stroke-width:.26458;text-align:center;text-anchor:middle">History</tspan></text>
      <g transform="matrix(.15762 0 0 .15552 3.6932 85.164)" style="fill:#f8b624;stroke-width:1.6899">
         <path d="m95.84 22.245c-4.149 0-8.301 4.15-16.6 4.15-8.301 0-12.45-4.15-16.602-4.15-1.955 0-4.149 2.075-4.149 4.15v29.05c0 9.197 4.149 20.751 20.751 20.751 16.6 0 20.749-11.554 20.749-20.751v-29.05c0-2.075-2.192-4.15-4.149-4.15zm-31.125 19.713c0-2.866 2.322-5.188 5.188-5.188 2.864 0 5.187 2.323 5.187 5.188s-2.322 5.188-5.187 5.188c-2.866 0-5.188-2.323-5.188-5.188zm14.525 25.938c-10.376 0-12.45-8.299-12.45-8.299h24.9s-2.075 8.299-12.45 8.299zm9.338-20.75c-2.865 0-5.188-2.323-5.188-5.188 0-2.866 2.323-5.188 5.188-5.188 2.863 0 5.187 2.323 5.187 5.188s-2.324 5.188-5.187 5.188z" style="fill:#f8b624;stroke-width:1.6899"/>
         <path d="m46.94 55.282c1.025 0.106 2.106 0.163 3.248 0.163 1.489 0 2.849-0.07 4.152-0.257v-12.19h-16.602s2.075-8.3 12.45-8.3c2.077 0 2.891 0.307 4.152 0.778v-9.078c0-3.804 1.516-6.983 4.149-8.3 4.149-2.075 5.824-1.237 8.301 0l4.149 2.075v-14.526c0-2.075-2.194-4.15-4.149-4.15-4.151 0-8.301 4.15-16.602 4.15-8.299 0-12.45-4.15-16.599-4.15v-2e-3c-1.957 0-4.149 2.075-4.149 4.15v29.05c0 3.69 0.692 7.75 2.566 11.3 0.735 0.308 1.466 0.634 2.188 1.001 5.023 2.561 9.271 5.335 12.746 8.286zm-6.089-39.262c2.865 0 5.188 2.323 5.188 5.188s-2.323 5.188-5.188 5.188-5.186-2.323-5.186-5.188 2.321-5.188 5.186-5.188z" style="fill:#f8b624;stroke-width:1.6899"/>
         <path d="m20.257 46.6c-9.116 0-16.596 4.567-18.595 8.49-2.872 5.641-2.206 11.308 3.433 14.179 5.64 2.872 7.743 5.716 5.588 9.949-2.871 5.638-0.795 12.021 4.845 14.894 6.583 3.352 12.542 4.783 17.707 4.783 9.218 0 15.912-4.554 19.132-10.878 8.616-16.921-2.612-29.74-19.529-38.357-4.292-2.185-8.593-3.06-12.581-3.06zm-6.264 15.656c-0.698 1.374-2.087 2.163-3.529 2.163-0.603 0-1.216-0.138-1.791-0.432-1.947-0.992-2.722-3.371-1.73-5.318 0.698-1.373 2.085-2.161 3.526-2.161 0.604 0 1.217 0.138 1.792 0.432 1.948 0.992 2.724 3.371 1.732 5.316zm10.791 24.14c-0.838 1.646-2.507 2.594-4.235 2.594-0.726 0-1.46-0.166-2.149-0.518-2.336-1.188-3.264-4.047-2.076-6.385 0.838-1.646 2.506-2.593 4.233-2.593 0.726 0 1.461 0.165 2.151 0.517 2.335 1.191 3.265 4.051 2.076 6.385zm3.387-27.574c-0.699 1.374-2.088 2.163-3.529 2.163-0.605 0-1.218-0.138-1.792-0.432-1.946-0.992-2.721-3.371-1.729-5.32 0.698-1.369 2.086-2.159 3.527-2.159 0.603 0 1.217 0.138 1.792 0.432 1.947 0.99 2.721 3.373 1.731 5.316zm12.636 13.54c0.7-1.374 2.087-2.161 3.528-2.163 0.604 0 1.218 0.14 1.793 0.432 1.946 0.992 2.72 3.375 1.73 5.32-0.699 1.371-2.087 2.161-3.528 2.161-0.604 0-1.217-0.138-1.792-0.432-1.948-0.992-2.723-3.37-1.731-5.318zm-4.88-13.544c0.604 0 1.218 0.139 1.793 0.433 1.946 0.988 2.72 3.371 1.728 5.316-0.698 1.373-2.086 2.163-3.527 2.163-0.603 0-1.216-0.141-1.791-0.432-1.947-0.992-2.721-3.374-1.73-5.321 0.699-1.371 2.086-2.159 3.527-2.159z" style="fill:#f8b624;stroke-width:1.6899"/>
      </g>
   </g>
   <g>
      <rect x=".23707" y="103.64" width="55.812" height="20.682" style="fill:#001109;paint-order:stroke fill markers"/>
      <text transform="scale(1.0067 .9933)" x="37.142147" y="117.19151" style="fill:#000000;font-family:'Brandon Grotesque';font-size:5.313px;letter-spacing:0px;line-height:1.25;stroke-width:.26458;text-align:center;text-anchor:middle;word-spacing:0px" xml:space="preserve"><tspan x="37.142147" y="117.19151" style="fill:#f8b624;stroke-width:.26458;text-align:center;text-anchor:middle">Entertainment</tspan></text>
      <g transform="matrix(.016237 0 0 .01602 3.2323 106.35)" style="fill:#f8b624;stroke-width:16.405">
         <g style="fill:#f8b624;stroke-width:16.405">
            <path d="m494.65 727.1c-17.1 0-34-1.399-50.5-4.1l-30.2 60.4c26.3 5.699 53.3 8.6 80.8 8.6s54.4-2.9 80.801-8.6l-30.2-60.4c-16.701 2.7-33.601 4.1-50.701 4.1z" style="fill:#f8b624;stroke-width:16.405"/>
            <path d="m880.45 305.7h-22.8c-4-13.4-8.7-26.5-14.2-39.5-4-9.5-8.399-18.8-13.1-27.8l15.8-15.8c11.7-11.7 11.7-30.7 0-42.4l-113.4-113.3c-11.699-11.7-30.699-11.7-42.399 0l-14.3 14.3c-11-6-22.301-11.5-34-16.4-12.2-5.2-24.601-9.7-37.2-13.5v-21.3c0-16.6-13.4-30-30-30h-160.3c-16.601 0-30 13.4-30 30v21.3c-12.601 3.8-25 8.3-37.2 13.5-12.4 5.3-24.5 11.2-36.2 17.7l-15.6-15.6c-11.7-11.7-30.7-11.7-42.4 0l-113.4 113.3c-11.7 11.7-11.7 30.7 0 42.4l18.1 18.1c-4.3 8.3-8.3 16.9-12 25.6-5.9 14.1-11 28.4-15.2 42.9h-25.3c-16.6 0-30 13.4-30 30v160.2c0 16.6 13.4 30 30 30h28.8c3.4 10.6 7.3 21.1 11.7 31.5 4.5 10.5 9.4 20.8 14.7 30.8l-20.8 20.8c-11.7 11.7-11.7 30.7 0 42.4l98.9 98.899 51.6-102.5 100.6-101.2-189.4 379c-9.3 20-0.6 43.801 19.4 53.101 5.5 2.5 11.2 3.7 16.8 3.7 15.1 0 29.5-8.601 36.3-23.101l201.5-403.1c6.3 0.899 12.7 1.3 19.3 1.3 6.601 0 13-0.5 19.301-1.3l201.5 403.1c6.8 14.601 21.199 23.101 36.3 23.101 5.6 0 11.399-1.2 16.8-3.7 20-9.3 28.7-33.101 19.4-53.101l-189.4-379 101 101.9 49.8 99.6 96.598-96.599c11.699-11.7 11.699-30.7 0-42.4l-18.5-18.6c5.8-10.7 11.1-21.7 15.899-33.1 4.9-11.5 9.101-23.2 12.8-35h24.301c16.6 0 30-13.4 30-30v-160.2c-0.1-16.5-13.5-30-30.1-30zm-251 90.1c-4.399-21.7-14-41.5-27.3-58.2l129.1-129.9c45.9 52.6 72.601 118.2 76.5 188.1zm-447.8 0c3.9-69.9 30.6-135.4 76.5-188.1l129.1 129.9c-13.3 16.7-22.899 36.5-27.3 58.2zm521.4-216.5-130.2 131c-17-11.8-36.8-19.8-58.2-22.9v-186.7c70.2 4.4 135.9 31.8 188.4 78.6zm-228.4-78.6v186.8c-21.4 3.1-41.2 11.1-58.2 22.9l-130.2-131c52.5-46.9 118.2-74.3 188.4-78.7zm-213 522.7c-47.1-52.2-74.9-117.6-79.7-187.5h175.7c2.2 24.6 10.8 47.399 24.3 66.6zm370-187.6h175.7c-4.9 69.9-32.7 135.4-79.7 187.5l-120.2-121c13.4-19.1 22.1-41.8 24.2-66.5z" style="fill:#f8b624;stroke-width:16.405"/>
         </g>
      </g>
   </g>
   <g transform="translate(0 -20.682)">
      <rect x=".23707" y="20.917" width="55.812" height="20.682" style="fill:#001109;paint-order:stroke fill markers"/>
      <text transform="scale(1.0067 .9933)" x="37.173027" y="32.658817" style="fill:#000000;font-family:'Brandon Grotesque';font-size:5.313px;letter-spacing:0px;line-height:1.25;stroke-width:.26458;text-align:center;text-anchor:middle;word-spacing:0px" xml:space="preserve"><tspan x="37.173027" y="32.658817" style="fill:#f8b624;stroke-width:.26458;text-align:center;text-anchor:middle">Food &amp; Beverage</tspan></text>
      <g transform="matrix(.77677 0 0 .76625 3.4519 -.46798)" style="stroke-width:1.2962">
         <g transform="translate(0 1.598)" style="stroke-width:1.2962">
            <path d="m9.6914 44.534c-3.4546 0-6.2658-2.8042-6.2658-6.2522 0-3.446 2.8112-6.2502 6.2658-6.2502s6.2658 2.8042 6.2658 6.2502c0 3.4479-2.8112 6.2522-6.2658 6.2522zm0-11.306c-2.7938 0-5.0679 2.2665-5.0679 5.0534 0 2.7888 2.2741 5.0553 5.0679 5.0553s5.0679-2.2665 5.0679-5.0553c-0.0019-2.7849-2.2741-5.0534-5.0679-5.0534z" style="fill:#f8b624;stroke-width:.34294;stroke:#f8b624"/>
            <path d="m1.9823 35.541c0.33425-0.39702 0.21833-0.92125 0.22026-1.3915-0.00193-0.0636-0.00193-0.13106-0.00386-0.20237-0.019321-1.0157-0.044438-2.4881-0.050235-2.7483h-0.11207l-0.12752 2.7175s-0.10433 0.3103-0.24538 0.0212c-0.12945-0.26211-0.059895-2.3571-0.040574-2.7368h-0.08308l-0.19128 2.6712s-0.1024 0.40088-0.24731 0.04047c-0.14104-0.3527-0.056031-2.5537-0.048303-2.7117h-0.090809l-0.19514 2.6308s-0.1082 0.41051-0.21446 0.03469c-0.10627-0.36811-0.054099-2.6577-0.054099-2.6577h-0.10047s-0.17969 1.378-0.18741 2.7368v0.19466c0 0.3816-0.023185 0.7555 0.092741 1.1082 0.1024 0.2679 0.41347 0.41822 0.65112 0.60132 0 0 0.025117 0.0077 0.04637 0.11756s0.042506 0.32571 0.030914 0.74008c-0.023185 0.83067-0.313 7.5319-0.313 7.5319s-0.24151 0.98678 0.60861 1.0138c0.85206 0.02891 0.65885-0.8191 0.65885-0.8191l-0.38642-8.2257s0.0058-0.11178 0.042506-0.23706c0.032846-0.20815 0.21833-0.2968 0.34005-0.42979z" style="fill:#f8b624;stroke-width:.34294;stroke:#f8b624"/>
            <path d="m17.704 31.297s0.14684-0.43364 0.5661 0.02313c0.4212 0.4587 1.0627 3.0606 0.81921 4.9339 0 0-0.66464 0.52037-0.67817 0.86728-0.01546 0.34691 0.15264 2.8948 0.15264 2.8948l0.28982 4.4366s0.09081 0.42401-0.61054 0.55892c-0.70135 0.13684-0.66851-0.63023-0.66851-0.63023z" style="fill:#f8b624;stroke-width:.34294;stroke:#f8b624"/>
         </g>
      </g>
      <rect x=".23707" y="20.917" width="55.812" height="20.682" style="fill:none;opacity:.64286;paint-order:stroke fill markers"/>
   </g>
</svg>
