<svg version="1.1" viewBox="0 0 1629 896.8" xmlns="http://www.w3.org/2000/svg"><defs><filter id="filter1140" style="color-interpolation-filters:sRGB"><feFlood flood-color="rgb(0,0,0)" flood-opacity=".498" result="flood"/><feComposite in="flood" in2="SourceGraphic" operator="in" result="composite1"/><feGaussianBlur in="composite1" result="blur" stdDeviation="3.1"/><feOffset dx="-3" dy="-3.9" result="offset"/><feComposite in="SourceGraphic" in2="offset" result="composite2"/></filter><filter id="filter1320" style="color-interpolation-filters:sRGB"><feFlood flood-color="rgb(0,0,0)" flood-opacity=".498" result="flood"/><feComposite in="flood" in2="SourceGraphic" operator="in" result="composite1"/><feGaussianBlur in="composite1" result="blur" stdDeviation="3.1"/><feOffset dx="7.3" dy="-3.8" result="offset"/><feComposite in="SourceGraphic" in2="offset" result="composite2"/></filter></defs><g id="groupfirst"><g id="groupsec"><path d="m0.3148 483.6 11.67-17.08 2.737 1.32 51.04-72.32-2.463-1.1 11.94-16.86 20.71-9.799 1.374 1.988 24.8-11.8 15.26-7.127-1.646-1.766 20.71-9.799 1.374 1.988 40.07-18.93-1.648-2.209 20.71-9.799 1.648 2.209 39.8-18.71-1.648-2.209 20.71-9.799 1.648 2.209 39.8-18.71-1.648-2.209 58.6-27.4-34.81-28.01-22.86 18.66-10.69-8.604 55.25-45.1-62.5-50.3 97.44-79.54 62.5 50.3 53.89-43.98 9.594 7.721 26.4-21.55 120.4 96.87 6.303 4.632 6.301 4.189 6.848 4.187 6.573 3.967 6.846 3.745 7.118 3.522 7.39 3.3 7.116 3.08 7.662 3.078 7.66 2.635 7.386 2.415 7.932 2.413 7.93 1.971 8.202 1.748 15.86 3.054 8.472 1.083 16.4 1.724 8.196 0.4193 8.468 0.1972 8.194-0.0234 8.466-0.2456 8.192-0.4661 16.38-1.818 8.462-1.131 15.83-3.144 8.186-1.794 7.912-2.015 7.638-2.235 15.27-5.357 7.635-3.122 7.088-3.119 7.36-3.342 7.087-3.563 6.813-3.784 6.538-4.003 6.811-4.226 5.989-4.444 6.537-4.447 119.5-97.56 27.13 21.84 10.07-8.22 55.65 44.79 113.5-92.65 98.13 78.98-114.1 93.12 53.18 42.8-9.527 7.776-21.93-17.65-38.65 31.54 58.57 27.28 224.9 104.3 12.09 16.79-2.453 1.114 31.87 44.18 2.453-1.114 12.09 16.79-16.87 13.77-2.193-1.765-51.44 41.99 2.193 1.765-16.6 13.55-2.193-1.765-51.44 41.99 2.193 1.765-6.805 5.555-1.919-1.544-3.266 2.666 1.919 1.544-6.805 5.555-2.193-1.765-51.17 41.76 2.193 1.765-16.87 13.77-2.193-1.765-51.44 41.99 2.193 1.765-16.6 13.55-2.737-1.32-95.81 78.2-15.9-12.79-6.533 5.332-1.918-1.544-68.32 55.77 1.918 1.544-6.805 5.555-1.919-1.544-3.266 2.666 1.919 1.544-6.805 5.555-1.918-1.544-68.32 55.77 1.918 1.544-16.87 13.77-101.6 0.281-0.01-2.214-5.462 0.0156-23.22-0.1551-68.28 0.195-0.2626 2.436-9.561-0.195 0.2644-1.993-4.916 0.014 0.01 2.214-9.56-0.1941-0.01-2.214-95.59 0.273 0.01 2.214-60.36 0.3938-0.01-2.214-4.916 0.014 0.2816 1.992-38.24 0.1092-16.72-13.46 1.905-1.555-68.81-55.38-1.905 1.555-7.127-5.736 1.905-1.555-3.015-2.426-1.905 1.555-6.853-5.516 1.905-1.555-35.9-28.9-80.84 65.99 9.32 7.501-10.34 8.442-170.7-137.4 10.34-8.442 8.498 6.839 19.6-15.99-3.837-3.088 2.177-1.777-50.99-41.04-2.177 1.777-16.99-13.68 2.177-1.777-50.72-40.82-2.177 1.777-6.853-5.516 1.905-1.555-3.289-2.647-1.905 1.555-6.853-5.516 2.177-1.777-50.72-40.82-2.177 1.777-16.99-13.68 2.177-1.777-50.99-41.04-2.177 1.777-7.127-5.736 1.905-1.555-3.015-2.426-1.905 1.555z" style="fill-rule:evenodd;fill:#0f6c87;stroke-width:1.333"/><path transform="matrix(1.134 -.9256 -1.142 -.9191 614.8 1366)" d="m616.9 746.4h55.45v0.9601h23.28v-105.4l0.24-5.281 0.48-5.041 0.7201-5.281 0.7201-5.041 0.9601-5.041 1.2-5.041 1.44-5.041 1.44-4.801 1.68-5.041 1.92-4.801 1.92-4.561 2.16-4.801 2.4-4.561 2.64-4.561 5.281-8.641 3.12-4.32 6.241-8.161 3.36-3.84 3.6-3.84 3.6-3.6 3.84-3.6 3.84-3.36 8.161-6.241 4.32-3.12 8.641-5.281 4.56-2.64 4.56-2.4 4.56-2.16 9.601-3.84 5.041-1.68 4.8-1.44 5.04-1.44 5.041-1.2 5.041-0.9601 5.04-0.7201 5.281-0.7201 5.04-0.24 5.281-0.48h105.4v-23.76h-0.48v-55.45h-106.8l-6.961 0.48-22.56 2.4-6.241 1.2-6.001 1.2-6.001 1.44 1.2 4.32-7.921 1.92-0.7201-3.36-7.201 2.16-6.721 2.4-6.961 2.64-6.721 2.64-6.721 3.12-6.481 3.12-6.481 3.36 1.92 3.12-6.961 4.08-2.16-3.84-6.721 4.08-6.721 4.561-6.241 4.561-6.241 4.801-12 10.56-5.761 5.521-5.281 5.521-5.521 6.001-5.041 6.001-4.8 6.241-4.56 6.241-4.56 6.721-4.08 6.721 3.84 2.16-4.08 6.961-3.12-1.68-3.36 6.241-3.12 6.721-3.12 6.481-2.88 6.721-4.8 13.92-2.16 6.961 3.36 0.9601-1.92 7.681-4.32-1.2-1.44 6.001-1.2 6.241-1.2 6.001-2.4 22.56-0.48 6.961v6.961z" style="fill-rule:evenodd;fill:#0fb3ed;filter:url(#filter1140);stroke-width:.92"/><path transform="matrix(1.134 -.9256 -1.142 -.9191 614.8 1366)" d="m551.8 751.5v4.32h-12.96v54.73h85.93v-54.73h-14.4v-4.32h-15.12v0.9601h-28.32v-0.9601z" style="fill-rule:evenodd;fill:#0fb3ed;filter:url(#filter1140);stroke-width:.92"/><path transform="matrix(1.134 -.9256 -1.142 -.9191 614.8 1366)" d="m193.7 403h20.4v-0.7201h28.32v0.7201h20.88v-1.2h1.68v-28.8h-71.29z" style="fill-rule:evenodd;fill:#0fb3ed;filter:url(#filter1140);stroke-width:.92"/><path transform="matrix(1.134 -.9256 -1.142 -.9191 614.8 1366)" d="m952.7 416.2h42.96v-19.2h1.44v-25.2h-1.44v-19.2h-42.96v2.4h-4.32v58.57h4.32z" style="fill-rule:evenodd;fill:#0fb3ed;filter:url(#filter1140);stroke-width:.92"/><g id="Rooms" transform="matrix(1.134 -.9256 -1.142 -.9191 614.8 1366)" style="fill:#fff;filter:url(#filter1320);stroke-width:.92"><path d="m588.3 178.5v29.28h42.96v-26.4h-4.56v-2.88z" style="fill-rule:evenodd;fill:#fff;stroke-width:.92"/><path d="m511.3 124.8v-52.09h-60.25l-6.241 6.241 45.84 45.85z" style="fill-rule:evenodd;fill:#fff;stroke-width:.92"/><path d="m512.9 72.68v72.25l7.681 7.921h80.89v-55.69l10.08-2.64-5.041-18.96h-6.001v-2.88h-65.77v2.88h-7.441v-2.88z" style="fill-rule:evenodd;fill:#fff;stroke-width:.92"/><path d="m400.4 232.8 19.92 19.92 12-12-4.08-4.08 5.281-5.281 4.08 4.08 7.681-7.921-19.68-19.68z" style="fill-rule:evenodd;fill:#fff;stroke-width:.92"/><path d="m381.4 252 19.92 19.68 17.76-17.76-19.92-19.92z" style="fill-rule:evenodd;fill:#fff;stroke-width:.92"/><path d="m302.7 248.6 39.84 39.84 81.85-81.85-6.241-6.241 0.9601-1.2 27.36 27.36 29.04-29.04-11.28-11.76-18.72 18.72-1.2-1.2 18.72-18.72-48-48.01z" style="fill-rule:evenodd;fill:#cc1386;stroke-width:.92"/><path d="m362.7 270.5 6.241 6.481 17.52-17.52-6.241-6.481z" style="fill-rule:evenodd;fill:#fff;stroke-width:.92"/><path d="m451.7 170.9 25.2 25.2 28.32-28.32-25.44-25.2-28.08 28.32" style="fill:#fff;stroke-linecap:round;stroke-linejoin:round;stroke-miterlimit:10;stroke-width:.4416;stroke:#828282"/><path d="m425.8 144.9 24.72 24.72 28.32-28.32-24.96-24.72z" style="fill-rule:evenodd;fill:#cc1386;stroke-width:.92"/><path d="m343.7 289.7 19.68 19.68 18-17.76-19.92-19.92z" style="fill-rule:evenodd;fill:#fff;stroke-width:.92"/><path d="m301.5 249.8-12.24 12.48v142.3h60.49v-67.69h-8.401v-1.68h8.401v-12.24l3.12-2.88 9.601-9.601-11.76-11.52-17.04 16.8v4.801h-1.68v-5.521l17.52-17.28-26.16-26.16-6.241 6.241-1.2-0.9601 6.481-6.481z" style="fill-rule:evenodd;fill:#cc1386;stroke-width:.92"/><path d="m479.6 533.1h14.64l1.2-4.561-1.2-0.4801 0.9601-3.12-12.96-3.36-0.9601 3.12-1.68-0.48z" style="fill-rule:evenodd;fill:#fff;stroke-width:.92"/><path d="m223 506.5v236.1l81.9 21.93 12.37-3.5 1.167 4.199 16.8-4.434-1.167-4.199 177.8-47.6v-24.03l-4.199 1.167-0.7-3.266-12.6 3.5 0.9333 3.033-21.46 5.834v-165.5l-168.9-45.27-56.47 15.16-1.4-5.834-17.03 4.667 1.4 5.834z" style="fill-rule:evenodd;fill:#9fb200;stroke-width:.92"/><path d="m559 416.4 22.08 22.08 42.24-42-22.08-22.08z" style="fill-rule:evenodd;fill:#fff;stroke-width:.92"/><path d="m518 457.4 28.08 16.32 34.08-34.08-22.08-22.08z" style="fill-rule:evenodd;fill:#f8f61b;stroke-width:.92"/><path d="m586.9 209.5-208.8 224.9h102.3l34.56 19.92 120-120 3.36 3.12 10.32-10.56-3.12-3.12 5.761-5.761-19.92-34.56v-73.93z" style="fill-rule:evenodd;fill:#da4218;stroke-width:.92"/><path d="m602.2 373.2 22.08 22.08 46.32-46.09-16.32-28.08z" style="fill-rule:evenodd;fill:#f90900;stroke-width:.92"/><path d="m725.4 298.5 4.56-1.2v-14.64h-8.881z" style="fill-rule:evenodd;fill:#fff;stroke-width:.92"/><path d="m725.6 300.2 3.84 13.92h76.57v-31.44h-74.41v15.84z" style="fill-rule:evenodd;fill:#fff;stroke-width:.92"/><path d="m807.4 314.2h43.2v-31.44h-43.2z" style="fill-rule:evenodd;fill:#ff61f1;stroke-width:.92"/><path d="m942.7 59.43h-240.5l-2.351 8.466-5.879-1.411-4.703 17.16 5.879 1.411-8.936 33.62 42.32 157.8h163.7l-10.35 38.33h24.22l44.44-166.5 5.879 1.411 4.703-17.16-5.879-1.411 3.292-12.46z" style="fill-rule:evenodd;fill:#f55b02;filter:url(#filter1140);stroke-width:.92"/><path d="m852.3 314.2h22.56l0.7201-2.4 3.12 0.9601 3.36-11.76-3.36-0.9601 4.56-17.28h-30.96z" style="fill-rule:evenodd;fill:#fff;stroke-width:.92"/><path d="m479.6 689.6 31.2-8.161v-36.24h-31.2z" style="fill-rule:evenodd;fill:#fff;stroke-width:.92"/><path d="m479.6 534.7v35.04h31.2v-37.2l-13.68-3.6-1.68 5.761z" style="fill-rule:evenodd;fill:#fff;stroke-width:.92"/><path d="m514.4 643.5v-14.88h-3.12v-42.24h3.12v-14.88h-34.8v72.01z" style="fill-rule:evenodd;fill:#56a2f1;stroke-width:.92"/><path d="m586.9 209.5h-0.24v-30.96h-48.72v5.761h-4.8l-3.36 3.36-4.08-4.08-70.09 69.85 4.08 4.08-5.281 5.281-4.08-4.08-69.85 69.85 4.08 4.32-3.36 3.36v4.801h-5.761v88.81h2.64v4.561z" style="fill-rule:evenodd;fill:#da4218;stroke-width:.92"/></g><path transform="matrix(1.134 -.9256 -1.142 -.9191 614.8 1366)" d="m635.6 257.5h26.88v-72.73h-26.88v72.73" style="fill:#0fb3ed;filter:url(#filter1320);stroke-linecap:round;stroke-linejoin:round;stroke-miterlimit:10;stroke-width:.4416;stroke:#b2b2b2"/><path transform="matrix(1.134 -.9256 -1.142 -.9191 614.8 1366)" d="m381.6 465.6h72.73v-26.64h-72.73v26.64" style="fill:#0fb3ed;filter:url(#filter1320);stroke-linecap:round;stroke-linejoin:round;stroke-miterlimit:10;stroke-width:.4416;stroke:#b2b2b2"/><path d="m1195 275.6 0.2741 0.2206v0.4427l1.096 0.8824-0.2721 0.2221 0.2741 0.2206v0.4427l0.2741 0.2206v0.4427l0.2741 0.2206-0.2722 0.2222v0.8855l-0.2721 0.2222 0.2741 0.2206-0.5444 0.4443 0.2741 0.2206-0.8166 0.6665v0.4427l-1.089 0.8887-0.5462 2e-3 -0.8166 0.6665-0.2741-0.2206-0.5443 0.4443-0.2741-0.2206-0.2722 0.2221-0.2741-0.2206-0.2721 0.2221-1.093 3e-3 -0.2741-0.2206-0.2721 0.2221-0.2741-0.2206-0.5463 2e-3 -0.274-0.2206-0.5463 2e-3 -2.741-2.206 0.2722-0.2221-0.5482-0.4412v-0.8856l-0.2741-0.2206 0.2721-0.2221-0.274-0.2206 0.2721-0.2221-0.2741-0.2206 0.2722-0.2221-0.2741-0.2206 0.5443-0.4443-0.274-0.2206 0.5443-0.4443v-0.4427l2.177-1.777 0.5463-2e-3 0.5443-0.4443 0.2741 0.2206 0.5443-0.4443 0.2741 0.2206 0.2721-0.2222 0.2741 0.2206 0.2722-0.2222 0.5462-2e-3 0.2741 0.2206 0.2722-0.2222 0.274 0.2206 0.5463-2e-3 0.2741 0.2206 0.5462-2e-3 1.096 0.8824 0.2722-0.2221 0.2741 0.2206" style="fill:#0f445d;stroke-linecap:round;stroke-linejoin:round;stroke-miterlimit:10;stroke-width:.6398;stroke:#828282"/><path d="m1091 341.2 1.096 0.8824v0.4427l0.5482 0.4413-0.2721 0.2221 0.274 0.2206v0.4427l0.274 0.2206-0.2721 0.2221 0.2741 0.2206-0.2722 0.2222 0.2741 0.2206-0.2722 0.2222 0.2741 0.2206-0.5443 0.4443 0.2741 0.2206-0.5444 0.4443v0.4427l-2.177 1.777-0.5463 2e-3 -0.5443 0.4443-0.2741-0.2206-0.5443 0.4443-0.2741-0.2206-0.2721 0.2221-0.2741-0.2206-0.2722 0.2221-0.274-0.2206-0.2722 0.2221-0.2741-0.2206-0.2721 0.2221-0.5483-0.4413-0.2722 0.2222-0.274-0.2206-0.5463 2e-3 -1.096-0.8824-0.2722 0.2222-0.5481-0.4412v-0.4427l-1.096-0.8824 0.2722-0.2221-0.5483-0.4413 0.2722-0.2221-0.2741-0.2206v-0.4427l-0.2741-0.2206 0.2721-0.2221v-0.8856l0.2721-0.2222-0.274-0.2206 0.5443-0.4443-0.2741-0.2206 0.8166-0.6665-0.2741-0.2206 1.633-1.333 0.2741 0.2206 0.8165-0.6665 0.2741 0.2206 0.5443-0.4443 0.2741 0.2206 0.2722-0.2222 0.2741 0.2206 0.2721-0.2222 1.093-3e-3 0.2741 0.2206 0.2722-0.2222 0.274 0.2206 0.2722-0.2222 0.5483 0.4413 0.5462-2e-3 1.37 1.103" style="fill:#0f445d;stroke-linecap:round;stroke-linejoin:round;stroke-miterlimit:10;stroke-width:.6398;stroke:#828282"/><path d="m960.8 389.2-0.2741-0.2206-2e-3 -0.4427-1.096-0.8824 0.2722-0.2221-0.5482-0.4412 0.2722-0.2222-0.2741-0.2206 0.2722-0.2221-0.2741-0.2206-4e-3 -0.8854 0.2722-0.2222-0.2741-0.2206 0.5443-0.4443-0.2741-0.2206 0.5443-0.4443-0.2741-0.2206 2.722-2.221 0.2741 0.2206 0.5443-0.4443 0.2741 0.2206 0.5443-0.4443 0.2741 0.2206 0.2722-0.2221 0.2741 0.2206 0.2722-0.2221 0.2741 0.2206 0.2722-0.2221 0.2741 0.2206 1.092-3e-3 0.5483 0.4413 0.2722-0.2221 2.741 2.206-0.2722 0.2221 0.5483 0.4413 2e-3 0.4427 0.2741 0.2206-0.2722 0.2222 0.2741 0.2206 4e-3 0.8855-0.2722 0.2221 0.2741 0.2206-0.2722 0.2222 0.2741 0.2206-0.5443 0.4443 0.2741 0.2206-0.8166 0.6665 2e-3 0.4427-1.089 0.8887-0.5462 2e-3 -0.8166 0.6665-0.2741-0.2206-0.5443 0.4443-0.2741-0.2206-0.2722 0.2221-0.5462 2e-3 -0.2722 0.2222-0.2741-0.2206-0.2722 0.2222-0.2741-0.2206-0.5462 2e-3 -0.2741-0.2206-0.2722 0.2221-0.5482-0.4412-0.2722 0.2221-1.096-0.8824-0.2722 0.2222-0.2741-0.2206z" style="fill-rule:evenodd;fill:#0f445d;stroke-width:1.333"/><path d="m839 396.6 0.5483 0.4413 2e-3 0.4427 0.5482 0.4412 2e-3 0.4427 0.2741 0.2206 2e-3 0.4427 0.2741 0.2206-0.2722 0.2221 0.2741 0.2206-0.2722 0.2221 0.2741 0.2206-0.2722 0.2221 0.2741 0.2206-0.2722 0.2222 2e-3 0.4427-0.2722 0.2221 0.2741 0.2206-0.5443 0.4443 2e-3 0.4427-1.905 1.555-0.5462 2e-3 -0.5443 0.4443-0.5462 2e-3 -0.2722 0.2221-0.2741-0.2206-0.2722 0.2221-1.093 3e-3 -0.2722 0.2221-0.2741-0.2206-0.5462 2e-3 -0.2741-0.2206-0.5462 2e-3 -0.5482-0.4412-0.2722 0.2221-2.467-1.985 0.2722-0.2221-0.5482-0.4412-2e-3 -0.4427-0.2741-0.2206-8e-3 -1.771 0.2722-0.2221-0.2741-0.2206 0.2722-0.2222-2e-3 -0.4427 0.8166-0.6665-0.2741-0.2206 1.633-1.333 0.5462-2e-3 0.8166-0.6665 0.2741 0.2206 0.2722-0.2221 0.5462-2e-3 0.2722-0.2222 0.2741 0.2206 0.2722-0.2222 0.2741 0.2206 0.2722-0.2222 0.2741 0.2206 0.2722-0.2222 0.2741 0.2206 0.5462-2e-3 0.2741 0.2206 0.5462-2e-3 0.5482 0.4412 0.5462-2e-3 0.5483 0.4413z" style="fill-rule:evenodd;fill:#0f445d;stroke-width:1.333"/><path d="m708.1 383 1.096 0.8824 2e-3 0.4427 0.5483 0.4413-0.2722 0.2221 0.2741 0.2206 2e-3 0.4427 0.2741 0.2206-0.2722 0.2221 0.2741 0.2206-0.2722 0.2222 0.2741 0.2206-0.2722 0.2222 0.2741 0.2206-0.5443 0.4443 0.2741 0.2206-0.5443 0.4443 0.2741 0.2206-2.994 2.444-0.2741-0.2206-0.5443 0.4443-0.2741-0.2206-0.2722 0.2221-0.5462 2e-3 -0.2722 0.2222-0.2741-0.2206-0.5462 2e-3 -0.2722 0.2222-0.5482-0.4412-0.2722 0.2221-0.5483-0.4413-0.2722 0.2222-0.8224-0.6618-0.2722 0.2222-1.644-1.324 0.2722-0.2221-0.8224-0.6618 0.2722-0.2221-0.5483-0.4413 0.2722-0.2221-0.5483-0.4413 0.2722-0.2222-2e-3 -0.4427-0.2741-0.2206 0.2722-0.2221-2e-3 -0.4427 0.2722-0.2222-0.2741-0.2206 0.5443-0.4443-0.2741-0.2206 2.994-2.444 0.2741 0.2206 0.5443-0.4443 0.2741 0.2206 0.5443-0.4443 0.2741 0.2206 0.2722-0.2221 0.2741 0.2206 0.2722-0.2221 0.2741 0.2206 0.2722-0.2221 0.2741 0.2206 0.5462-2e-3 0.2741 0.2206 0.2722-0.2221 0.5482 0.4412 0.5462-2e-3 1.096 0.8824" style="fill:#0f445d;stroke-linecap:round;stroke-linejoin:round;stroke-miterlimit:10;stroke-width:.6398;stroke:#828282"/><path d="m577.8 349.3-1.37-1.103 0.2722-0.2221-0.5482-0.4412-2e-3 -0.4427-0.2741-0.2206 0.2722-0.2222-0.2741-0.2206 0.2722-0.2222-0.2741-0.2206-2e-3 -0.4427 0.2722-0.2221-0.2741-0.2206 0.2722-0.2221-2e-3 -0.4427 0.2722-0.2221-2e-3 -0.4427 1.089-0.8887-0.2741-0.2206 0.5443-0.4443 0.5462-2e-3 0.8166-0.6665 0.5462-2e-3 0.2722-0.2221 0.5462-2e-3 0.2722-0.2221 2.185-6e-3 0.2741 0.2206 0.2722-0.2221 0.5483 0.4413 0.5462-2e-3 0.8224 0.6618 0.2722-0.2221 1.096 0.8824-0.2722 0.2221 0.8224 0.6618 2e-3 0.4427 0.5483 0.4413-0.2722 0.2222 0.2741 0.2206-0.2722 0.2221 0.2741 0.2206 2e-3 0.4427-0.2722 0.2221 0.2741 0.2206-0.2722 0.2222 0.2741 0.2206-0.2722 0.2222 2e-3 0.4427-0.5443 0.4443 0.2741 0.2206-2.722 2.221-0.2741-0.2206-0.5443 0.4443-0.5462 2e-3 -0.2722 0.2221-0.2741-0.2206-0.2722 0.2221-0.2741-0.2206-0.2722 0.2221-0.2741-0.2206-0.2722 0.2221-0.2741-0.2206-0.2722 0.2221-0.2741-0.2206-0.5462 2e-3 -0.5483-0.4413-0.2722 0.2221-1.37-1.103" style="fill:#0f445d;stroke-linecap:round;stroke-linejoin:round;stroke-miterlimit:10;stroke-width:.6398;stroke:#828282"/><path d="m481.5 277.8 1.096 0.8824-0.2722 0.2221 0.8224 0.6618-0.2722 0.2221 0.2741 0.2206-0.2722 0.2222 0.2741 0.2206 2e-3 0.4427 0.2741 0.2206-0.2722 0.2222 0.2741 0.2206-0.2722 0.2222 2e-3 0.4427-0.2722 0.2222 2e-3 0.4427-0.5443 0.4443 0.2741 0.2206-2.449 1.999-0.2741-0.2206-0.5443 0.4443-0.5462 2e-3 -0.2722 0.2221-0.2741-0.2206-0.2722 0.2221-0.5462 2e-3 -0.2722 0.2222-0.2741-0.2206-0.5462 2e-3 -0.2741-0.2206-0.2722 0.2221-0.2741-0.2206-0.5462 2e-3 -0.5483-0.4413-0.5462 2e-3 -1.644-1.324-2e-3 -0.4427-0.8224-0.6618 0.2722-0.2221-0.2741-0.2206-2e-3 -0.4427-0.2741-0.2206 0.2722-0.2221-0.2741-0.2206 0.2722-0.2221-0.2741-0.2206 0.2722-0.2222-4e-3 -0.8856 0.2722-0.2221-2e-3 -0.4427 0.8166-0.6665-0.2741-0.2206 1.361-1.111 0.2741 0.2206 0.8166-0.6665 0.5462-2e-3 0.2722-0.2221 0.5462-2e-3 0.2722-0.2222 0.2741 0.2206 0.2722-0.2222 0.2741 0.2206 0.2722-0.2222 0.2741 0.2206 0.2722-0.2222 0.2741 0.2206 0.5462-2e-3 0.2741 0.2206 0.2722-0.2221 0.8224 0.6618 0.2722-0.2221 0.8224 0.6618z" style="fill-rule:evenodd;fill:#0f445d;stroke-width:1.333"/><path d="m1212 112.8-70.72-56.92 10.62-8.665 70.72 56.92z" style="fill-rule:evenodd;fill:#0f445d;stroke-width:1.333"/><path d="m443.9 106.4 70.23-57.32 10.69 8.604-70.23 57.32z" style="fill-rule:evenodd;fill:#0f445d;stroke-width:1.333"/><path d="m1092 97.22 11.79 9.485-14.97 12.22-11.79-9.485z" style="fill-rule:evenodd;fill:#0f445d;stroke-width:1.333"/><path d="m970.8 200.5-8.518-11.71 18.81-8.687 8.518 11.71z" style="fill-rule:evenodd;fill:#0f445d;stroke-width:1.333"/><path d="m823.2 214.9 21.31-0.0608 0.0595 13.73-21.58-0.1597 0.2146-13.51" style="fill:#0f445d;stroke-linecap:round;stroke-linejoin:round;stroke-miterlimit:10;stroke-width:.6398;stroke:#828282"/><path d="m705.1 189.5-8.416 11.76-18.88-8.579 8.416-11.76 18.88 8.579" style="fill:#0f445d;stroke-linecap:round;stroke-linejoin:round;stroke-miterlimit:10;stroke-width:.6398;stroke:#828282"/><path d="m574.6 98.7 15.07 12.13-11.7 9.552-15.07-12.13z" style="fill-rule:evenodd;fill:#0f445d;stroke-width:1.333"/></g></g><g transform="matrix(28.14,0,0,28.14,4558,-799.2)" style="stroke-width:.1343"><g transform="matrix(.2646 0 0 .2646 -137.8 40.09)" style="stroke-width:.1343;stroke:#f8f61b"><path class="markerBody" d="m6.609 0.1323c1.657 0 3.314 0.7374 4.518 1.917 1.205 1.327 1.958 2.802 1.958 4.572s-0.7531 3.687-1.958 4.867l-4.518 4.572-4.518-4.572c-1.205-1.18-1.958-2.95-1.958-4.867 0-1.77 0.6025-3.244 1.958-4.572 1.205-1.18 2.862-1.917 4.518-1.917z" style="fill:#030609;stroke-width:.03554;stroke:#f8f61b"/></g><text x="-136.44968" y="42.735054" style="fill:#f8f61b;font-family:'Britannic Bold';font-size:2.643px;letter-spacing:0px;line-height:1.25;stroke-width:.03554;word-spacing:0px" xml:space="preserve"><tspan x="-136.44968" y="42.735054" style="fill:#f8f61b;stroke-width:.03554">i</tspan></text></g><g transform="matrix(7.447,0,0,7.446,871.5,330.2)" style="stroke-width:.1343"><path class="markerBody" d="m6.609 0.1323c1.657 0 3.314 0.7374 4.518 1.917 1.205 1.327 1.958 2.802 1.958 4.572s-0.7531 3.687-1.958 4.867l-4.518 4.572-4.518-4.572c-1.205-1.18-1.958-2.95-1.958-4.867 0-1.77 0.6025-3.244 1.958-4.572 1.205-1.18 2.862-1.917 4.518-1.917z" style="fill:#030609;stroke-width:.03554;stroke:#f90900"/><g transform="matrix(6.308e-4,0,0,-6.308e-4,3.961,9.423)" style="fill:#f90900;stroke-width:7.511"><path d="m580 12789c-150-60-263-400-329-994-73-658-95-1556-81-3420 5-638 12-1205 15-1260 15-243 44-408 129-745 73-287 79-356 72-735-24-1144-72-1733-246-3050-123-932-134-1039-134-1385-1-328 21-506 89-747 40-138 79-208 159-288 112-111 222-157 381-158 209-2 402 108 493 279 37 72 74 216 104 409 17 114 21 186 21 390 1 309-8 403-117 1270-107 846-155 1375-191 2100-17 349-35 1023-35 1304 0 280 9 309 212 750 180 393 230 516 292 731 45 152 82 334 101 500 27 222 19 988-15 1610-79 1407-256 2508-490 3053-124 287-294 440-430 386z" style="fill:#f90900;stroke-width:7.511"/><path d="m6881 10334c-134-28-282-116-419-248-385-369-678-1073-766-1836-89-774 1-1168 348-1516 116-116 221-195 448-338 155-98 228-159 253-213 17-35 18-65 11-393-21-1109-69-1713-251-3165-46-368-91-744-100-835-48-514-42-843 20-1157 51-252 103-373 204-474 107-106 219-151 386-151 194-2 378 97 472 255 95 157 151 561 139 1007-8 311-27 533-120 1375-120 1082-154 1475-186 2095-5 113-12 241-15 285s-10 311-15 593c-8 368-8 524 0 553 22 79 97 142 325 269 262 145 429 272 534 404 206 258 282 546 267 1006-18 562-117 1052-301 1485-292 688-794 1095-1234 999z" style="fill:#f90900;stroke-width:7.511"/><path d="m3051 10139c-120-197-277-2e3 -241-2769 10-224 20-302 51-394 47-141 109-225 329-451 232-238 300-343 330-505 21-113 3-914-35-1525-38-600-83-1028-205-1915-114-831-125-945-125-1330 1-375 18-528 96-832 70-276 283-434 558-414 152 11 290 75 386 178 65 70 98 135 129 258 67 266 91 516 83 875-8 343-20 463-127 1325-162 1300-217 2055-223 3050-2 306 0 351 16 402 32 103 83 176 219 310 218 216 295 314 374 482 85 181 99 300 98 846-1 628-58 1400-150 2040-86 595-123 536-159-245-8-181-19-438-25-570-24-526-52-842-91-999-22-92-41-126-69-126-78 0-116 317-140 1160-27 962-44 1180-91 1180-30 0-52-196-68-600-42-1031-49-1168-77-1390-34-273-81-387-142-344-45 31-80 187-102 459-5 66-14 410-20 765-14 878-27 1110-65 1110-44 0-70-233-110-995-51-947-88-1268-156-1336l-21-21-24 23c-78 73-105 409-124 1539-9 530-19 755-36 781-10 17-24 9-43-22z" style="fill:#f90900;stroke-width:7.511"/></g></g><g transform="matrix(7.447,0,0,7.446,715.1,705.6)" style="stroke-width:.1343"><path class="markerBody" d="m6.609 0.1323c1.657 0 3.314 0.7374 4.518 1.917 1.205 1.327 1.958 2.802 1.958 4.572s-0.7531 3.687-1.958 4.867l-4.518 4.572-4.518-4.572c-1.205-1.18-1.958-2.95-1.958-4.867 0-1.77 0.6025-3.244 1.958-4.572 1.205-1.18 2.862-1.917 4.518-1.917z" style="fill:#030609;stroke-width:.03554;stroke:#cc1386"/><g transform="matrix(.01558 0 0 .01558 2.871 1.785)" style="fill:#cc1386;stroke-width:2.28"><g style="fill:#cc1386;stroke-width:2.28"><g style="fill:#cc1386;stroke-width:2.28"><path d="m268.6 193.5c-3.781-10.44-15.31-15.84-25.76-12.06l-65.41 23.68-53.67-39.7 53.83 21.08 0.059-3.738c0.798-16.24-11.52-30.21-27.82-31.37l-50.89-3.612c-8.34-0.591-16.55 2.325-22.64 8.047s-9.526 13.73-9.463 22.09l1.112 146.3h-14.24l-21.62-170.7c-1.115-8.815-9.164-15.06-17.98-13.94-8.815 1.116-15.06 9.167-13.94 17.98l23.4 184.8c1.018 8.04 7.857 14.07 15.96 14.07h58.1v65.88l-38.22 31.2c-4.747 3.876-5.456 10.87-1.579 15.61 3.876 4.749 10.87 5.455 15.61 1.579l24.18-19.74v11.14c0 6.129 4.968 11.1 11.1 11.1s11.1-4.968 11.1-11.1v-11.14l24.18 19.74c4.751 3.877 11.74 3.167 15.61-1.579 3.876-4.747 3.168-11.74-1.579-15.61l-38.22-31.2v-65.88h52.98c8.037 0 14.68-5.901 15.88-13.6l3.866 0.998 13.84 108.3c1.69 13.23 13.79 22.57 27 20.88 13.22-1.689 22.57-13.78 20.88-27l-15.91-124.5c-1.251-9.795-8.344-17.84-17.9-20.31l-50.25-12.97 1.225-17.27c-8.395 0.193-16.47-3.597-21.69-10.16l-49.88-62.96 62.34 46.11c5.326 3.938 12.37 5.07 18.81 2.741l75.54-27.35c10.44-3.78 15.84-15.31 12.06-25.75z" style="fill:#cc1386;stroke-width:2.28"/></g></g><g style="fill:#cc1386;stroke-width:2.28"><g style="fill:#cc1386;stroke-width:2.28"><circle cx="134.8" cy="83.27" r="44.39" style="fill:#cc1386;stroke-width:2.28"/></g></g><g style="fill:#cc1386;stroke-width:2.28"><g style="fill:#cc1386;stroke-width:2.28"><path d="m495.4 259.9h-225.3c-9.193 0-16.65 7.453-16.65 16.65s7.453 16.65 16.65 16.65h2.219v168.8c0 6.129 4.968 11.1 11.1 11.1s11.1-4.968 11.1-11.1v-168.8h177.6v168.8c0 6.129 4.968 11.1 11.1 11.1s11.1-4.968 11.1-11.1v-168.8c11.52 0 17.76-8.326 17.76-16.65 0-9.193-7.452-16.65-16.65-16.65z" style="fill:#cc1386;stroke-width:2.28"/></g></g><g style="fill:#cc1386;stroke-width:2.28"><g style="fill:#cc1386;stroke-width:2.28"><path d="m387.5 160.1c-5.375-2.945-12.12-0.975-15.06 4.4l-33.46 61.08h-60.18c-6.129 0-11.1 4.968-11.1 11.1 0 0.169 0.019 0.333 0.026 0.5 0.264 5.895 5.113 10.6 11.07 10.6h66.75c4.054 0 7.785-2.211 9.732-5.765l36.62-66.84c2.944-5.374 0.973-12.12-4.401-15.06z" style="fill:#cc1386;stroke-width:2.28"/></g></g></g></g><g transform="matrix(7.447,0,0,7.446,1064,281.8)" style="stroke-width:.1343"><path class="markerBody" d="m6.609 0.1323c1.657 0 3.314 0.7374 4.518 1.917 1.205 1.327 1.958 2.802 1.958 4.572s-0.7531 3.687-1.958 4.867l-4.518 4.572-4.518-4.572c-1.205-1.18-1.958-2.95-1.958-4.867 0-1.77 0.6025-3.244 1.958-4.572 1.205-1.18 2.862-1.917 4.518-1.917z" style="fill:#030609;stroke-width:.03554;stroke:#ecfcf0"/><g transform="matrix(.01414 0 0 .01414 2.936 2.201)" style="fill:#ecfcf0;stroke-width:2.513"><g style="stroke-width:2.513"><rect x="160" y="96" width="96" height="32" style="stroke-width:2.513"/><rect x="160" y="160" width="192" height="32" style="stroke-width:2.513"/><rect x="160" y="224" width="192" height="32" style="stroke-width:2.513"/><path d="m464 224h-16v64h-32v-192l-96-96h-224v288h-32v-64h-16c-26.5 0-48 21.5-48 48v192c0 26.5 21.5 48 48 48h416c26.5 0 48-21.5 48-48v-192c0-26.5-21.5-48-48-48zm-336-192h160v96h96.02v160h-256zm-96 320v-32h64v32zm416 96h-384v-32h384z" style="stroke-width:2.513"/></g></g></g><g transform="matrix(7.447,0,0,7.446,792.9,430.4)" style="stroke-width:.1343"><path class="markerBody" d="m6.609 0.1323c1.657 0 3.314 0.7374 4.518 1.917 1.205 1.327 1.958 2.802 1.958 4.572s-0.7531 3.687-1.958 4.867l-4.518 4.572-4.518-4.572c-1.205-1.18-1.958-2.95-1.958-4.867 0-1.77 0.6025-3.244 1.958-4.572 1.205-1.18 2.862-1.917 4.518-1.917z" style="fill:#030609;stroke-width:.03554;stroke:#da4218"/><g transform="matrix(.006707 0 0 .006707 2.797 2.007)" style="fill:#da4218;stroke-width:.1343"><g transform="matrix(.1 0 0 -.1 0 1280)" style="fill:#da4218;stroke-width:.1343"><path d="m3944 12782c-100-36-177-111-215-210-29-79-24-195 13-267 55-106 164-182 277-192l60-6 325-591c178-325 336-612 351-638l26-47-122-61c-261-132-476-286-685-495-460-459-732-1071-761-1712l-6-133 864-2 864-3 39-72c22-40 42-73 45-73s24 34 46 74c21 41 42 73 46 70 5-2 25-36 46-74 20-39 40-70 43-70s23 34 45 75 42 75 45 75 23-34 44-75c22-41 42-75 45-75s24 34 46 75 42 75 45 75 23-34 44-75c22-41 42-75 45-75s24 34 46 75 42 75 45 75 23-34 44-75c22-41 42-75 45-75 4 0 24 34 46 75s42 75 45 75 23-34 44-75c22-41 42-75 45-75 4 0 24 34 46 75s42 75 45 75 23-34 45-75 42-75 45-75 23 34 45 75 42 75 45 75 23-34 45-75 42-75 45-75 23 34 45 75 42 75 45 75 23-34 45-75 42-75 46-75c3 0 23 34 45 75l39 75h1888l-7 128c-51 938-579 1761-1406 2191l-128 67 337 544 336 545 73 7c128 11 230 78 289 190 25 48 28 63 28 153 0 95-2 103-34 163-38 70-92 120-167 154-70 33-208 32-276-1-74-36-134-95-169-167-27-54-32-76-32-137-1-84 13-140 49-192 25-37 25-40 11-69-9-17-164-269-344-561-259-418-333-530-348-529-11 1-81 18-155 38-239 64-370 80-660 80-313 1-469-19-723-91-49-14-91-22-95-19-3 4-164 295-358 648l-353 641 24 32c49 64 69 124 69 210 0 93-27 165-89 234-84 92-246 135-361 93z" style="fill:#da4218;stroke-width:.1343"/><path d="m9330 8789c-94-19-172-102-191-202-6-37-9-215-7-490l3-432 28-57c15-31 43-68 62-82 75-58 42-56 984-56h866l50 24c60 28 97 66 124 126 20 43 21 63 20 510 0 353-3 474-13 501-20 56-61 103-118 135l-53 29-855 2c-472 0-875-3-900-8z" style="fill:#da4218;stroke-width:.1343"/><path d="m484 8711c-87-15-170-89-194-172-6-20-10-224-10-494v-460l24-51c27-59 90-116 145-132 28-9 276-12 903-12 769 0 870 2 904 16 60 25 98 60 130 116l29 53v475c0 524 2 507-64 583-18 19-53 46-79 59l-47 23-850 1c-467 1-868-1-891-5z" style="fill:#da4218;stroke-width:.1343"/><path d="m2770 8111c-74-15-136-66-164-133-14-33-16-194-16-1440 0-1341 1-1405 19-1444 24-53 91-109 146-123 27-7 164-11 364-11h321v-38c0-152 119-343 269-432 128-76 161-80 682-80h458l3-412c3-404 4-414 26-467 75-176 215-284 400-311 35-5 67-11 70-14 2-3 9-29 13-58 19-122 112-243 224-294l55-25v-345l-87-12c-526-72-980-449-1147-953-51-155-66-238-73-406l-6-153h852l3-362 3-363 28-57c32-65 89-121 156-152 44-20 60-21 386-21s342 1 386 21c67 31 124 87 156 152l28 57 3 363 3 362h852l-6 153c-7 168-22 251-73 406-167 504-621 881-1146 953l-88 12v345l55 25c112 51 205 172 224 294 4 29 11 55 13 58 3 3 35 9 70 14 186 27 325 135 400 311 22 53 23 63 26 467l3 412h458c423 0 464 1 535 20 107 27 169 63 251 145 101 100 165 235 165 347v38h321c200 0 337 4 364 11 55 14 122 70 146 123 18 39 19 103 19 1444 0 1246-2 1407-16 1440-19 47-58 88-109 115l-40 22-2975 1c-1636 1-2991-1-3010-5zm3234-5852c448-91 816-440 935-886 12-45 24-111 28-147l6-66h-642l-3 383c-3 374-3 383-26 432-29 63-83 119-147 153l-50 27h-700l-51-27c-60-32-118-93-148-157-20-44-21-62-24-428l-3-383h-639v38c1 85 61 294 117 407 78 155 228 335 362 434 290 215 634 291 985 220z" style="fill:#da4218;stroke-width:.1343"/><path d="m9436 7341c-3-4-4-91-3-192l2-184 768-3 767-2-2 192-3 193-762 2c-419 2-764-1-767-6z" style="fill:#da4218;stroke-width:.1343"/><path d="m1343 7262-763-2v-380l765 2 766 3v189c0 103-1 189-3 190-2 0-346 0-765-2z" style="fill:#da4218;stroke-width:.1343"/><path d="m9432 6673 3-188 768-3 767-2v380h-1540z" style="fill:#da4218;stroke-width:.1343"/><path d="m580 6590v-190l768 2 767 3 3 188 2 187h-1540z" style="fill:#da4218;stroke-width:.1343"/><path d="m9438 6184c-2-102-1-188 1-190s348-4 768-4h763v380h-1529z" style="fill:#da4218;stroke-width:.1343"/><path d="m580 6100v-190l765 2 766 3v370l-766 3-765 2z" style="fill:#da4218;stroke-width:.1343"/><path d="m9303 5870c-53-12-97-44-130-93-25-38-33-61-38-123-9-90 0-202 19-247 17-40 60-84 108-108 36-18 73-19 940-19 858 0 905 1 943 19 22 10 52 31 67 47 48 51 58 91 58 232 0 117-2 132-25 179-29 57-82 100-142 114-46 10-1755 10-1800-1z" style="fill:#da4218;stroke-width:.1343"/><path d="m442 5790c-54-13-109-58-137-113-23-47-25-62-25-181 0-145 12-187 66-238 65-61 19-58 1005-58 999 0 931-5 1003 67 51 51 61 89 61 233 0 115-2 130-26 175-28 56-86 102-145 115-47 11-1755 11-1802 0z" style="fill:#da4218;stroke-width:.1343"/><path d="m9437 5153c-4-3-7-89-7-190v-183h1540v380h-763c-420 0-767-3-770-7z" style="fill:#da4218;stroke-width:.1343"/><path d="m580 4890v-190h1540l-2 188-3 187-767 3-768 2z" style="fill:#da4218;stroke-width:.1343"/><path d="m9437 4673c-4-3-7-89-7-190v-183h1540v380h-763c-420 0-767-3-770-7z" style="fill:#da4218;stroke-width:.1343"/><path d="m580 4410v-190h1540l-2 188-3 187-767 3-768 2z" style="fill:#da4218;stroke-width:.1343"/><path d="m9434 4177c-2-7-3-94-2-192l3-180 768-3 767-2v390h-765c-614 0-767-3-771-13z" style="fill:#da4218;stroke-width:.1343"/><path d="m580 3915v-195l768 2 767 3v380l-767 3-768 2z" style="fill:#da4218;stroke-width:.1343"/><path d="m9228 3133c-168-291-311-545-318-567-17-54-9-142 20-200 83-165 318-197 441-59 19 21 133 210 254 421l220 382 360-2 359-3 178-307 178-308-222-382c-121-211-227-397-234-415-22-52-18-150 10-208 26-57 88-117 143-140 92-39 225-10 295 63 20 20 171 272 337 560l301 522-321 558c-177 306-331 569-341 585l-19 27h-1337z" style="fill:#da4218;stroke-width:.1343"/><path d="m656 3543c-13-21-166-284-340-585l-316-548 301-522c166-288 316-538 333-556 51-55 120-85 196-84 77 0 125 19 182 70 57 52 88 121 88 200 0 34-6 77-14 95-7 18-113 204-234 415l-222 382 178 308 178 307 359 3 360 2 220-382c121-211 237-402 258-424 21-23 61-52 89-64 99-42 234-15 305 62 60 66 89 185 63 264-7 22-150 276-318 567l-305 527h-1337z" style="fill:#da4218;stroke-width:.1343"/></g></g></g><g transform="matrix(7.447,0,0,7.446,1341,397.5)" style="stroke-width:.1343"><path class="markerBody" d="m6.609 0.1323c1.657 0 3.314 0.7374 4.518 1.917 1.205 1.327 1.958 2.802 1.958 4.572s-0.7531 3.687-1.958 4.867l-4.518 4.572-4.518-4.572c-1.205-1.18-1.958-2.95-1.958-4.867 0-1.77 0.6025-3.244 1.958-4.572 1.205-1.18 2.862-1.917 4.518-1.917z" style="fill:#030609;stroke-width:.03554;stroke:#f55b02"/><g transform="matrix(6.45e-4,0,0,-6.45e-4,2.483,8.407)" stroke="1" style="fill:#f55b02;stroke-width:7.346"><path d="m5865 9476c-247-57-434-222-517-456-20-58-23-83-23-230 0-143 3-176 23-245 51-178 153-321 282-397 35-21 57-39 49-41-170-45-279-101-378-192-178-165-267-420-296-846l-7-96-106-7c-353-23-874-104-1139-177l-111-31-180-172c-99-95-225-219-280-277-70-72-102-99-105-89-3 8-15 47-27 85-40 130-95 230-168 304-52 52-128 105-169 117-2 0 17 21 41 47 106 114 169 301 197 588 37 383-49 730-222 900-132 130-286 130-418 0-95-93-168-247-208-442-25-116-24-539 0-678 32-182 97-327 177-394 18-15 31-29 29-31-2-1-25-14-50-29-100-57-205-206-254-360l-22-68-6 128c-21 419-206 725-438 725-191 0-358-225-421-567-17-94-17-502 1-615 16-105 55-238 88-304 14-27 47-73 75-102l50-53-34-17c-99-50-194-168-248-308l-33-85-49 98c-174 354-480 352-653-3-87-178-122-390-111-677 12-339 66-530 187-655l39-40-61-40c-152-97-255-308-308-627-11-67-25-167-31-222-34-338-38-1302-6-1515 22-142 43-225 77-291 38-77 68-110 125-139 49-25 50-25 292-22 134 2 256 1 271-3 26-5 30-13 46-78 31-132 96-311 118-330 39-32 200-105 302-136 594-183 1802-304 3610-363 501-16 2290-16 2795 0 2234 72 3608 230 4162 478 57 26 59 29 99 113 49 102 101 234 124 313l16 56 227-1 227-2 53 29c90 50 137 126 176 283 47 189 51 253 50 813-1 735-29 1037-120 1310-61 181-175 335-291 393l-51 27 56 57c140 143 202 404 189 793-8 239-36 361-120 524-49 95-135 191-209 232-48 26-62 29-143 29-75 0-98-4-140-24-77-38-172-141-224-243l-45-88-53 110c-63 130-141 220-232 269l-59 31 57 58c141 141 199 379 188 776-6 215-20 305-71 440-55 146-156 276-257 331-69 37-176 46-247 20-215-80-368-387-374-750-1-55-5-91-9-80s-17 47-30 80c-30 81-88 180-138 237-36 41-140 119-171 130-6 2 14 29 44 60 87 90 141 216 171 402 21 128 21 492 0 610-46 260-166 461-323 538-251 124-501-97-594-527-20-93-17-445 6-570 36-204 107-363 199-454l45-43-66-34c-164-82-272-248-341-527l-27-108-165 152c-90 84-251 230-358 325l-195 173-110 30c-301 84-760 152-1251 186-126 9-253 18-281 21l-51 5-7 103c-15 234-62 430-140 591-102 209-246 326-496 402-9 2 8 17 45 36 119 64 221 198 259 342 42 156 40 414-4 546-68 203-237 368-445 435-99 32-258 41-350 20zm4993-3888 54-58-29-12c-15-7-51-27-79-44l-52-32-6 116c-4 65-9 144-12 177l-5 60 38-74c20-41 61-101 91-133zm-8964 25c-3-71-7-147-10-171l-5-43-27 17c-15 10-48 30-74 44l-48 26 36 35c40 38 95 125 115 182 7 20 14 37 16 37 1 0 0-57-3-127zm9989-1773c-5-3-20-11-35-18l-28-12v104l35-34c19-19 32-37 28-40zm-10983-30v-50l-70 34 32 33c17 18 33 33 35 33s3-22 3-50z" style="fill:#f55b02;stroke-width:7.346"/></g></g><g transform="matrix(7.447,0,0,7.446,381.6,687.1)" style="stroke-width:.1343"><path class="markerBody" d="m6.609 0.1323c1.657 0 3.314 0.7374 4.518 1.917 1.205 1.327 1.958 2.802 1.958 4.572s-0.7531 3.687-1.958 4.867l-4.518 4.572-4.518-4.572c-1.205-1.18-1.958-2.95-1.958-4.867 0-1.77 0.6025-3.244 1.958-4.572 1.205-1.18 2.862-1.917 4.518-1.917z" style="fill:#030609;stroke-width:.03554;stroke:#a1ff1b"/><g transform="matrix(.01334 0 0 .01334 3.182 2.276)" style="fill:#a1ff1b;stroke-width:2.663"><path d="m497 128.5h-96.4c-8.284 0-15 6.716-15 15v33.2h-49.27c-8.284 0-15 6.716-15 15v33.2h-49.27c-8.284 0-15 6.716-15 15v33.2h-49.27c-8.284 0-15 6.716-15 15v33.2h-49.27c-8.284 0-15 6.716-15 15v33.2h-49.27c-8.284 0-15 6.716-15 15v33.2h-49.27c-8.284 0-15 6.716-15 15v64.27c0 8.284 6.716 15 15 15h482c8.284 0 15-6.716 15-15v-353.5c0-8.284-6.716-15-15-15zm-15 353.5h-452v-34.27h49.27c8.284 0 15-6.716 15-15v-33.2h49.27c8.284 0 15-6.716 15-15v-33.2h49.27c8.284 0 15-6.716 15-15v-33.2h49.27c8.284 0 15-6.716 15-15v-33.2h49.27c8.284 0 15-6.716 15-15v-33.2h49.27c8.284 0 15-6.716 15-15v-33.2h66.4z" style="fill:#a1ff1b;stroke-width:2.663"/><path d="m15 238.9h62.09l-71.09 53.34c-6.627 4.972-7.97 14.37-2.998 21s14.37 7.969 21 2.998l103.1-77.33h48.58c8.284 0 15-6.716 15-15v-32.66l218.9-164.2c6.627-4.971 7.971-14.37 3-21-4.97-6.626-14.37-7.97-21-3l-201.9 151.4c-2.115-5.721-7.602-9.808-14.06-9.808h-1.067v-65.33c0-8.284-6.716-15-15-15h-128.5c-8.284 0-15 6.716-15 15v65.33h-1.066c-8.284 0-15 6.716-15 15v64.27c0 8.284 6.716 15 15 15zm145.7-30h-130.7v-34.27h130.7zm-114.6-114.6h98.53v50.33h-98.53z" style="fill:#a1ff1b;stroke-width:2.663"/></g></g><g transform="matrix(7.447,0,0,7.446,279.6,372)" style="stroke-width:.1343"><path class="markerBody" d="m6.609 0.1323c1.657 0 3.314 0.7374 4.518 1.917 1.205 1.327 1.958 2.802 1.958 4.572s-0.7531 3.687-1.958 4.867l-4.518 4.572-4.518-4.572c-1.205-1.18-1.958-2.95-1.958-4.867 0-1.77 0.6025-3.244 1.958-4.572 1.205-1.18 2.862-1.917 4.518-1.917z" style="fill:#030609;stroke-width:.03554;stroke:#9fb200"/><g id="XMLID_90_" transform="matrix(.02577 0 0 .02577 2.41 1.601)" style="fill:#9fb200;stroke-width:.1343"><path id="XMLID_91_" d="m315 225c-8.284 0-15 6.717-15 15v25.01h-30v-35c0-24.81-20.19-45-45-45s-45 20.19-45 45v35h-30v-35c0-24.81-20.19-45-45-45s-45 20.19-45 45v35h-30v-25.01c0-8.285-6.716-15-15-15s-15 6.715-15 15v70.01c0 8.283 6.716 15 15 15s15-6.717 15-15v-15h270v15c0 8.283 6.716 15 15 15s15-6.717 15-15v-70.01c0-8.283-6.716-15-15-15z" style="fill:#9fb200;stroke-width:.1343"/><path id="XMLID_92_" d="m157.5 63.65v16.39c0 4.142 3.357 7.5 7.5 7.5h16.39c4.143 0 7.5-3.358 7.5-7.5s-3.357-7.5-7.5-7.5h-8.889v-8.889c0-4.143-3.357-7.5-7.5-7.5s-7.5 3.358-7.5 7.5z" style="fill:#9fb200;stroke-width:.1343"/><path id="XMLID_93_" d="m90 80c0 41.36 33.64 75 75 75s75-33.64 75-75c0-41.35-33.64-75-75-75s-75 33.65-75 75zm120 0c0 24.81-20.19 45-45 45s-45-20.19-45-45 20.19-45 45-45 45 20.19 45 45z" style="fill:#9fb200;stroke-width:.1343"/></g></g><g transform="matrix(7.447,0,0,7.446,1155,219.2)" style="stroke-width:.1343"><path class="markerBody" d="m6.609 0.1323c1.657 0 3.314 0.7374 4.518 1.917 1.205 1.327 1.958 2.802 1.958 4.572s-0.7531 3.687-1.958 4.867l-4.518 4.572-4.518-4.572c-1.205-1.18-1.958-2.95-1.958-4.867 0-1.77 0.6025-3.244 1.958-4.572 1.205-1.18 2.862-1.917 4.518-1.917z" style="fill:#030609;stroke-width:.03554;stroke:#ff61f1"/><g transform="matrix(.7367 0 0 .7367 15.76 -5.683)" style="fill:#ff61f1;stroke-width:.1343"><path d="m-12.4 11.99c0.6355 0 1.15-0.5147 1.15-1.15-2.7e-5 -0.6355-0.5147-1.15-1.15-1.15-0.6355 0-1.15 0.5147-1.15 1.15 0 0.6355 0.5147 1.15 1.15 1.15z" style="fill:#ff61f1;stroke-width:.1343"/><path d="m-11.28 13.36c-0.1553-0.4716-0.5952-0.7879-1.09-0.7879h-0.06613c-0.4946 0-0.9346 0.3163-1.09 0.7879l-1.467 4.388h1.725v3.451h1.725v-3.451h1.725z" style="fill:#ff61f1;stroke-width:.1343"/></g></g><g transform="matrix(7.447,0,0,7.446,440.7,229.2)" style="stroke-width:.1343"><path class="markerBody" d="m6.609 0.1323c1.657 0 3.314 0.7374 4.518 1.917 1.205 1.327 1.958 2.802 1.958 4.572s-0.7531 3.687-1.958 4.867l-4.518 4.572-4.518-4.572c-1.205-1.18-1.958-2.95-1.958-4.867 0-1.77 0.6025-3.244 1.958-4.572 1.205-1.18 2.862-1.917 4.518-1.917z" style="fill:#030609;stroke-width:.03554;stroke:#56a2f1"/><g transform="matrix(.777 0 0 .777 20.29 -6.083)" style="fill:#56a2f1;stroke-width:.1728"><path d="m-17.58 11.99c0.6355 0 1.15-0.5147 1.15-1.15-2.7e-5 -0.6355-0.5147-1.15-1.15-1.15s-1.15 0.5147-1.15 1.15c0 0.6355 0.5147 1.15 1.15 1.15z" style="fill:#56a2f1;stroke-width:.04573"/><path d="m-16.72 12.57h-1.725c-0.6326 0-1.15 0.5176-1.15 1.15v3.163h0.8627v4.313h2.3v-4.313h0.8627v-3.163c0-0.6326-0.5176-1.15-1.15-1.15z" style="fill:#56a2f1;stroke-width:.04573"/></g></g><g transform="matrix(7.447,0,0,7.446,924.5,694)" style="stroke-width:.1343"><path class="markerBody" d="m6.609 0.1323c1.657 0 3.314 0.7374 4.518 1.917 1.205 1.327 1.958 2.802 1.958 4.572s-0.7531 3.687-1.958 4.867l-4.518 4.572-4.518-4.572c-1.205-1.18-1.958-2.95-1.958-4.867 0-1.77 0.6025-3.244 1.958-4.572 1.205-1.18 2.862-1.917 4.518-1.917z" style="fill:#030609;stroke-width:.03554;stroke:#cc1386"/><g transform="matrix(.01558 0 0 .01558 2.871 1.785)" style="fill:#cc1386;stroke-width:2.28"><g style="fill:#cc1386;stroke-width:2.28"><g style="fill:#cc1386;stroke-width:2.28"><path d="m268.6 193.5c-3.781-10.44-15.31-15.84-25.76-12.06l-65.41 23.68-53.67-39.7 53.83 21.08 0.059-3.738c0.798-16.24-11.52-30.21-27.82-31.37l-50.89-3.612c-8.34-0.591-16.55 2.325-22.64 8.047s-9.526 13.73-9.463 22.09l1.112 146.3h-14.24l-21.62-170.7c-1.115-8.815-9.164-15.06-17.98-13.94-8.815 1.116-15.06 9.167-13.94 17.98l23.4 184.8c1.018 8.04 7.857 14.07 15.96 14.07h58.1v65.88l-38.22 31.2c-4.747 3.876-5.456 10.87-1.579 15.61 3.876 4.749 10.87 5.455 15.61 1.579l24.18-19.74v11.14c0 6.129 4.968 11.1 11.1 11.1s11.1-4.968 11.1-11.1v-11.14l24.18 19.74c4.751 3.877 11.74 3.167 15.61-1.579 3.876-4.747 3.168-11.74-1.579-15.61l-38.22-31.2v-65.88h52.98c8.037 0 14.68-5.901 15.88-13.6l3.866 0.998 13.84 108.3c1.69 13.23 13.79 22.57 27 20.88 13.22-1.689 22.57-13.78 20.88-27l-15.91-124.5c-1.251-9.795-8.344-17.84-17.9-20.31l-50.25-12.97 1.225-17.27c-8.395 0.193-16.47-3.597-21.69-10.16l-49.88-62.96 62.34 46.11c5.326 3.938 12.37 5.07 18.81 2.741l75.54-27.35c10.44-3.78 15.84-15.31 12.06-25.75z" style="fill:#cc1386;stroke-width:2.28"/></g></g><g style="fill:#cc1386;stroke-width:2.28"><g style="fill:#cc1386;stroke-width:2.28"><circle cx="134.8" cy="83.27" r="44.39" style="fill:#cc1386;stroke-width:2.28"/></g></g><g style="fill:#cc1386;stroke-width:2.28"><g style="fill:#cc1386;stroke-width:2.28"><path d="m495.4 259.9h-225.3c-9.193 0-16.65 7.453-16.65 16.65s7.453 16.65 16.65 16.65h2.219v168.8c0 6.129 4.968 11.1 11.1 11.1s11.1-4.968 11.1-11.1v-168.8h177.6v168.8c0 6.129 4.968 11.1 11.1 11.1s11.1-4.968 11.1-11.1v-168.8c11.52 0 17.76-8.326 17.76-16.65 0-9.193-7.452-16.65-16.65-16.65z" style="fill:#cc1386;stroke-width:2.28"/></g></g><g style="fill:#cc1386;stroke-width:2.28"><g style="fill:#cc1386;stroke-width:2.28"><path d="m387.5 160.1c-5.375-2.945-12.12-0.975-15.06 4.4l-33.46 61.08h-60.18c-6.129 0-11.1 4.968-11.1 11.1 0 0.169 0.019 0.333 0.026 0.5 0.264 5.895 5.113 10.6 11.07 10.6h66.75c4.054 0 7.785-2.211 9.732-5.765l36.62-66.84c2.944-5.374 0.973-12.12-4.401-15.06z" style="fill:#cc1386;stroke-width:2.28"/></g></g></g></g><g transform="matrix(7.447,0,0,7.446,516.4,634.2)" style="stroke-width:.1343"><path class="markerBody" d="m6.609 0.1323c1.657 0 3.314 0.7374 4.518 1.917 1.205 1.327 1.958 2.802 1.958 4.572s-0.7531 3.687-1.958 4.867l-4.518 4.572-4.518-4.572c-1.205-1.18-1.958-2.95-1.958-4.867 0-1.77 0.6025-3.244 1.958-4.572 1.205-1.18 2.862-1.917 4.518-1.917z" style="fill:#030609;stroke-width:.03554;stroke:#cc1386"/><g transform="matrix(.01558 0 0 .01558 2.871 1.785)" style="fill:#cc1386;stroke-width:2.28"><g style="fill:#cc1386;stroke-width:2.28"><g style="fill:#cc1386;stroke-width:2.28"><path d="m268.6 193.5c-3.781-10.44-15.31-15.84-25.76-12.06l-65.41 23.68-53.67-39.7 53.83 21.08 0.059-3.738c0.798-16.24-11.52-30.21-27.82-31.37l-50.89-3.612c-8.34-0.591-16.55 2.325-22.64 8.047s-9.526 13.73-9.463 22.09l1.112 146.3h-14.24l-21.62-170.7c-1.115-8.815-9.164-15.06-17.98-13.94-8.815 1.116-15.06 9.167-13.94 17.98l23.4 184.8c1.018 8.04 7.857 14.07 15.96 14.07h58.1v65.88l-38.22 31.2c-4.747 3.876-5.456 10.87-1.579 15.61 3.876 4.749 10.87 5.455 15.61 1.579l24.18-19.74v11.14c0 6.129 4.968 11.1 11.1 11.1s11.1-4.968 11.1-11.1v-11.14l24.18 19.74c4.751 3.877 11.74 3.167 15.61-1.579 3.876-4.747 3.168-11.74-1.579-15.61l-38.22-31.2v-65.88h52.98c8.037 0 14.68-5.901 15.88-13.6l3.866 0.998 13.84 108.3c1.69 13.23 13.79 22.57 27 20.88 13.22-1.689 22.57-13.78 20.88-27l-15.91-124.5c-1.251-9.795-8.344-17.84-17.9-20.31l-50.25-12.97 1.225-17.27c-8.395 0.193-16.47-3.597-21.69-10.16l-49.88-62.96 62.34 46.11c5.326 3.938 12.37 5.07 18.81 2.741l75.54-27.35c10.44-3.78 15.84-15.31 12.06-25.75z" style="fill:#cc1386;stroke-width:2.28"/></g></g><g style="fill:#cc1386;stroke-width:2.28"><g style="fill:#cc1386;stroke-width:2.28"><circle cx="134.8" cy="83.27" r="44.39" style="fill:#cc1386;stroke-width:2.28"/></g></g><g style="fill:#cc1386;stroke-width:2.28"><g style="fill:#cc1386;stroke-width:2.28"><path d="m495.4 259.9h-225.3c-9.193 0-16.65 7.453-16.65 16.65s7.453 16.65 16.65 16.65h2.219v168.8c0 6.129 4.968 11.1 11.1 11.1s11.1-4.968 11.1-11.1v-168.8h177.6v168.8c0 6.129 4.968 11.1 11.1 11.1s11.1-4.968 11.1-11.1v-168.8c11.52 0 17.76-8.326 17.76-16.65 0-9.193-7.452-16.65-16.65-16.65z" style="fill:#cc1386;stroke-width:2.28"/></g></g><g style="fill:#cc1386;stroke-width:2.28"><g style="fill:#cc1386;stroke-width:2.28"><path d="m387.5 160.1c-5.375-2.945-12.12-0.975-15.06 4.4l-33.46 61.08h-60.18c-6.129 0-11.1 4.968-11.1 11.1 0 0.169 0.019 0.333 0.026 0.5 0.264 5.895 5.113 10.6 11.07 10.6h66.75c4.054 0 7.785-2.211 9.732-5.765l36.62-66.84c2.944-5.374 0.973-12.12-4.401-15.06z" style="fill:#cc1386;stroke-width:2.28"/></g></g></g></g></svg>
