<svg width="345.4mm" height="98.87mm" version="1.1" viewBox="0 0 345.4 98.87" xmlns="http://www.w3.org/2000/svg"><defs><filter id="filter1309" style="color-interpolation-filters:sRGB"><feFlood flood-color="rgb(0,0,0)" result="flood"/><feComposite in="flood" in2="SourceGraphic" operator="in" result="composite1"/><feGaussianBlur in="composite1" result="blur" stdDeviation="2"/><feOffset dx="0" dy="0.5" result="offset"/><feComposite in="SourceGraphic" in2="offset" result="composite2"/></filter><filter id="filter1345" style="color-interpolation-filters:sRGB"><feFlood flood-color="rgb(0,0,0)" result="flood"/><feComposite in="flood" in2="SourceGraphic" operator="in" result="composite1"/><feGaussianBlur in="composite1" result="blur" stdDeviation="2"/><feOffset dx="0" dy="0.5" result="offset"/><feComposite in="SourceGraphic" in2="offset" result="composite2"/></filter></defs><g id="area-map"><polygon transform="matrix(.2646 0 0 .3533 -11 -148.5)" points="413.8 586.4 413.8 596.1 317.6 601.9 328.7 591.4" style="fill:#726658;stroke-width:.8654"/><polygon transform="matrix(.2646 0 0 .3533 -11 -148.5)" points="566.4 606.2 509.1 608.5 492.7 655 561 653.7" style="fill:#8dc63f;stroke-width:.8654"/><polygon transform="matrix(.2646 0 0 .3533 -11 -148.5)" points="1103 649.3 1188 634.5 1237 633.2 1187 591 1065 588.2" style="fill:#8dc63f;stroke-width:.8654"/><polygon transform="matrix(.2646 0 0 .3533 -11 -148.5)" points="906.7 521.2 971.4 528.5 991.4 526.7 967.3 487.2 895.7 492" style="fill:#8dc63f;stroke-width:.8654"/><polygon transform="matrix(.2646 0 0 .3533 -11 -148.5)" points="1012 484.6 1058 476.2 1066 480.4 1020 490.5" style="fill:#726658;stroke-width:.8654"/><polygon transform="matrix(.2646 0 0 .3533 -11 -148.5)" points="996.3 536.8 1004 536.8 1004 605.2 1012 655.8 1004 655.8 996.3 607.8" style="fill:#726658;stroke-width:.8654"/><polygon transform="matrix(.2646 0 0 .3533 -11 -148.5)" points="829.1 462.1 842 518.8 853.6 518.8 838.6 462.1" style="fill:#726658;stroke-width:.8654"/><polygon transform="matrix(.2539 0 0 .3533 -2.7 -148.5)" points="527.9 514.2 775.9 514.2 771.7 523.4 527.9 523.4" style="fill:#84d3ef;stroke-width:.8834"/><path d="m165.3 0.23 0.8201 3.144-27.04 0.8475 0.8134-2.83-5.872 0.5504-1.583 4.082-10.69 0.6005 1.059-3.289-0.9576 0.1235-1.16 3.238-11.46 0.6356-0.1721-1.744-3.981 0.9173v9.552l-0.1059 0.1767-16.32 1.024 3.387-5.794 1.882-2.393-2.758 0.6485-0.9762 1.075-4.921 6.641-5.027 0.3178-34.61 27.77h-9.763l-6.959 6.076h12.73l2.566 3.815-11.36 11.17a157.6 50.25 0 0 0 3.852 3.06l9.646-11.05 11.38 16.96h17.12l-7.741 8.744a157.6 50.25 0 0 0 5.294 1.628l8.43-10.37h27.36l-6.1 17.48a157.6 50.25 0 0 0 13 2.141l2.02-7.615 42.17-1.166-7.541 12.43h18.1l10.03-21.23 33.63 12.05-2.952 9.266a157.6 50.25 0 0 0 15.27-1.185l4.376-18.65 43.77 11.01a157.6 50.25 0 0 0 9.045-2.275l-2.18-4.715 21.96-5.299 9.216-0.3354a157.6 50.25 0 0 0 8-4.263l-12.36-12.77 20.64 0.6356-7.435-7.171-54.74-2.897-2.222-18.9 33.07 4.027-4.18-4.133-11.14-1.484-19-16.82 4.826-0.1979-8.06-2.545-0.232 0.0093-12.97 0.5524-4.835-4.743 11.39 2.64c-3.795-0.8999-7.595-1.786-11.4-2.652l-0.0331-0.03256-3.038-0.6702 1.549 0.3592c-0.5517-0.1247-1.103-0.2483-1.655-0.3721l5.033 5.577-6.218 0.247-2.699-4.345 3.857-1.485c-0.6954-0.156-1.391-0.3141-2.086-0.4687l-2.427 0.8811-0.8051-1.63-3.924-0.6113-5.86-0.8909-25.92 0.8015-0.5292-3.458-6.218-0.4279 0.1855 2.367-23.1 0.7421-0.926-3.109zm72.85 5.805c9e-3 0.00196 0.0176 0.00372 0.0264 0.00568l-0.0109-0.01188zm0.0155-0.0062 2e-3 -5.292e-4 -4e-3 -0.00103zm2e-3 -5.292e-4 0.1147 0.02532-0.1127-0.02636zm14.59 3.38c0.9069 0.2151 1.814 0.4288 2.72 0.6454l1.342 0.9999 2.353-0.09457 0.231-0.0098zm-62.06-5.095 0.6615 9.114-24.61 0.3886 2.064-5.9-0.8656-2.931zm-24.18 0.7064 0.6351 2.402-2.963 6.429-27.78 0.4945 2.218-8.513zm60.24 0.2026 3.651 6.959-31.96 1.342-0.9524-6.783zm-95.56 4.31-4.604 13.21-3.969 0.1416 2.884-10.07-0.3442-2.967zm-7.617 0.3886 0.4232 3.462-3.016 9.573-13.18 0.4945 2.384-5.722-0.662-7.101zm136.5 3.851 17.89 16.25-14.66-1.978-14.39-13.88zm-14.42 0.5302 5.398 5.758-26.96 2.508-2.09-7.419zm-25.74 0.9493 4.202 19.82-23.07-3.427-0.1592-0.1767-2.143-15.44zm-28.3 2.482 0.4982 6.641-33.97-0.7772-1.058-5.334zm-38.08 0.5953 1.508 11.8-7.646-0.3183-1.217-11.38zm-8.946 0.1426 0.7674 11.23-12.91-0.5297 2.777-10.56zm-41.24 0.3871-5.133 8.726-18.2-1.095 6.903-6.077zm150.2 3.852 5.001 5.334 0.8465 8.408-7.144 0.848-6.668-13.85zm-127.3 0.8496-1.958 5.652-12.64 1.59 2.011-6.712zm117.6 1e-3 6.376 13.95-5.292 0.6356-17.11-2.535-2.91-10.32zm-131.6 0.5958-1.905 6.818-6.112 0.7772 3.096-7.383zm46.11 0.8496 14.31 0.5297 4.581 18.55-5.636 1.802h-9.128zm15.8 0.6051 18.04 0.6708 0.3752 5.012-5.9 9.75-8.308 2.685v-0.3178zm-95.69 2.218 10.74 0.6356-6.509 9.397-4.022-2.296h-8.996zm11.83 0.7018 7.064 0.4641-7.62 12.89-6.006-3.427zm41.74 2.06 23.18 1.2 1.773 14.1h-29zm-8.826 1.618-4.657 13.32-6.535 0.0016 4.075-12.58zm-8.258 0.8878-4.419 12.43h-12.04l4.683-11.2zm-46.53 3.634h9.816l10.87 6.253-1.508 2.579h-29.21zm130.5 0.2506 11.01 1.625-8.281 20.67-12.49-1.625zm13.27 1.912 16.59 2.438-6.592 20.63-18.65-2.438zm47.71 3.531 1.27 10.28 5.06 10.92-32.89 1.378 5.212-22.22 8.678 1.272zm-78.39 7.167-6.884 11.34-30.98 1.519 0.2646-9.927h26.3zm-93.23 2.01h8.255l-3.385 20.28h-26.09zm11.38 0h16.77l-7.064 20.28h-12.59zm-53.47 0.03979h35.3l-21.78 20.28zm80.04 0.8465h12.62l-0.8738 10.24-14.63 0.7069zm143.4 6.832 32.23 0.9891 13.39 14.91-12.92 0.417-22.7 5.264zm-81.74 1.052 33.44 4.274-5.919 18.69-32.76-11.83zm-14.95 3.349-10.95 18.09-18.84 0.4589 0.4232-16.96zm94.06 1.529 10.69 23.1-46.93-12.15 2.064-8.832zm-129.2 0.3436-1.459 16.82-18.07 0.4237 4.339-16.43z" style="fill:#fdffff"/><polygon transform="matrix(.2646 0 0 .3533 -11 -148.5)" points="362.3 529.3 387.1 501.3 413.8 502.5 385 539" style="fill:#8dc63f;stroke-width:.8654"/><polygon transform="matrix(.2646 0 0 .3533 -11 -148.5)" points="266.5 549.3 304.4 524.4 341.5 524.4 382.6 542.1 376.9 549.3" style="fill:#8dc63f;stroke-width:.8654"/><polygon transform="matrix(.2646 0 0 .3533 -11 -148.5)" points="766.2 432.6 768.7 458.4 675.8 459.5 683.6 442.9 680.3 434.5" style="fill:#8dc63f;stroke-width:.8654"/><polygon transform="matrix(.2646 0 0 .3533 -11 -148.5)" points="736.1 622.8 755.9 591.4 882.4 603.5 859.9 656.3" style="fill:#8dc63f;stroke-width:.8654"/><polygon transform="matrix(.2646 0 0 .3533 -11 -148.5)" points="626.1 472.3 598.3 472.7 602.9 504.8 631.7 505.7" style="fill:#8dc63f;stroke-width:.8654"/><polygon transform="matrix(.2646 0 0 .3533 -11 -148.5)" points="459.5 450.5 462 470.6 452.9 486.8 502.8 485.4 514.1 458.3 512.6 448.5" style="fill:#8dc63f;stroke-width:.8654"/></g><g id="geofencing-section" class="extra-items" transform="matrix(.01695 0 0 .01661 129 7.48)" style="fill:#13d7ff"><path transform="translate(3687,-45.15)" d="m256 0c-88.36 0-160 71.62-160 160 0 24.75 5.625 48.22 15.67 69.12 0.562 1.188 144.3 282.9 144.3 282.9l142.6-279.4c11.12-21.78 17.41-46.47 17.41-72.62 0-88.38-71.62-160-160-160zm0 256c-53.02 0-96-43-96-96s42.98-96 96-96c53 0 96 43 96 96s-43 96-96 96z" style="fill:#ff3eff"/><path id="geofencepath" transform="matrix(59,0,0,60.2,1688,-4327)" d="m-47.46 149.4 23.18-69 62.49-0.7484 1.871 16.09-5.426 11.6-22.59 41.04z" style="fill:none;stroke-linecap:round;stroke-linejoin:round;stroke-width:.265;stroke:#000"/><path d="m-1112 4011c-112.8 0-204.2 91.37-204.2 204.1 0 31.57 7.178 61.52 20 88.18 0.7172 1.516 184.1 360.9 184.1 360.9l182-356.4c14.19-27.79 22.22-59.28 22.22-92.64 0-112.7-91.39-204.1-204.2-204.1zm0 326.6c-67.66 0-122.5-54.86-122.5-122.5s54.85-122.5 122.5-122.5c67.63 0 122.5 54.86 122.5 122.5s-54.87 122.5-122.5 122.5z" style="fill:#ff0012;stroke-width:1.276"/><path d="m2400 3950c-112.8 0-204.2 91.37-204.2 204.1 0 31.57 7.178 61.52 20 88.18 0.7172 1.516 184.1 360.9 184.1 360.9l182-356.4c14.19-27.79 22.22-59.28 22.22-92.64 0-112.7-91.39-204.1-204.2-204.1zm0 326.6c-67.66 0-122.5-54.86-122.5-122.5s54.85-122.5 122.5-122.5c67.63 0 122.5 54.86 122.5 122.5s-54.87 122.5-122.5 122.5z" style="fill:#0fd10c;stroke-width:1.276"/><path transform="matrix(1.138,0,0,1.138,3762,853.1)" d="m256 0c-88.36 0-160 71.62-160 160 0 24.75 5.625 48.22 15.67 69.12 0.562 1.188 144.3 282.9 144.3 282.9l142.6-279.4c11.12-21.78 17.41-46.47 17.41-72.62 0-88.38-71.62-160-160-160zm0 256c-53.02 0-96-43-96-96s42.98-96 96-96c53 0 96 43 96 96s-43 96-96 96z" style="fill-opacity:.9412;fill:#e6203f"/><path transform="matrix(1.276,0,0,1.276,3406,1481)" d="m256 0c-88.36 0-160 71.62-160 160 0 24.75 5.625 48.22 15.67 69.12 0.562 1.188 144.3 282.9 144.3 282.9l142.6-279.4c11.12-21.78 17.41-46.47 17.41-72.62 0-88.38-71.62-160-160-160zm0 256c-53.02 0-96-43-96-96s42.98-96 96-96c53 0 96 43 96 96s-43 96-96 96z" style="fill:#ffb812"/><path d="m256 0c-88.36 0-160 71.62-160 160 0 24.75 5.625 48.22 15.67 69.12 0.562 1.188 144.3 282.9 144.3 282.9l142.6-279.4c11.12-21.78 17.41-46.47 17.41-72.62 0-88.38-71.62-160-160-160zm0 256c-53.02 0-96-43-96-96s42.98-96 96-96c53 0 96 43 96 96s-43 96-96 96z" style="fill:#13d7ff"/></g><g id="digitisation-section" class="extra-items"><path d="m162 81.81 10.95-18.09-29.37 1.589-0.4232 16.96z" style="fill:#2294db;filter:url(#filter1345)"/><path transform="matrix(1.311 0 0 .503 -47.18 30.6)" d="m149.4 68.17-5.923-5.924-9.915-0.06427c-9.823-0.06369-9.925-0.06777-10.98-0.441-2.818-0.9957-4.904-3.058-5.929-5.86l-0.4287-1.172 1.7e-4 -22.77 1.9e-4 -22.77 0.6117-1.237c1.162-2.351 2.947-4.093 5.083-4.962 0.8316-0.3383 1.307-0.3795 5.936-0.5154 2.768-0.08124 17.21-0.1192 32.09-0.08427 24.89 0.05835 27.14 0.08598 28.05 0.3449 3.046 0.8661 5.816 3.986 6.339 7.139 0.1351 0.8139 0.1746 7.31 0.1415 23.24l-0.0461 22.11-0.705 1.467c-0.946 1.969-2.656 3.713-4.56 4.649l-1.306 0.6421-4.221 0.1128c-2.322 0.06205-6.968 0.119-10.32 0.1265l-6.104 0.01365-11.88 11.88z" style="fill:#092043;filter:url(#filter1309);paint-order:normal;stroke-width:.7898;stroke:#0092ca"/><text x="135.62315" y="49.571354" style="fill:#ffffff;font-family:sans-serif;font-size:10.58px;letter-spacing:0px;line-height:1.25;stroke-width:.2646;word-spacing:0px" xml:space="preserve"><tspan x="135.62315" y="49.571354" style="fill:#ffffff;font-family:sans-serif;stroke-width:.2646">Parking</tspan></text></g></svg>
