<svg width="333" height="333" version="1.1" viewBox="0 0 88.11 88.11" xmlns="http://www.w3.org/2000/svg"><defs><filter id="filter1345" style="color-interpolation-filters:sRGB"><feFlood flood-color="rgb(0,0,0)" result="flood"/><feComposite in="flood" in2="SourceGraphic" operator="in" result="composite1"/><feGaussianBlur in="composite1" result="blur" stdDeviation="2"/><feOffset dx="0" dy="0.5" result="offset"/><feComposite in="SourceGraphic" in2="offset" result="composite2"/></filter><filter id="filter1345-9" style="color-interpolation-filters:sRGB"><feFlood flood-color="rgb(0,0,0)" result="flood"/><feComposite in="flood" in2="SourceGraphic" operator="in" result="composite1"/><feGaussianBlur in="composite1" result="blur" stdDeviation="2"/><feOffset dx="0" dy="0.5" result="offset"/><feComposite in="SourceGraphic" in2="offset" result="composite2"/></filter><filter id="filter1345-9-0" style="color-interpolation-filters:sRGB"><feFlood flood-color="rgb(0,0,0)" result="flood"/><feComposite in="flood" in2="SourceGraphic" operator="in" result="composite1"/><feGaussianBlur in="composite1" result="blur" stdDeviation="2"/><feOffset dx="0" dy="0.5" result="offset"/><feComposite in="SourceGraphic" in2="offset" result="composite2"/></filter><filter id="filter1345-9-2" style="color-interpolation-filters:sRGB"><feFlood flood-color="rgb(0,0,0)" result="flood"/><feComposite in="flood" in2="SourceGraphic" operator="in" result="composite1"/><feGaussianBlur in="composite1" result="blur" stdDeviation="2"/><feOffset dx="0" dy="0.5" result="offset"/><feComposite in="SourceGraphic" in2="offset" result="composite2"/></filter><filter id="filter1345-9-03" style="color-interpolation-filters:sRGB"><feFlood flood-color="rgb(0,0,0)" result="flood"/><feComposite in="flood" in2="SourceGraphic" operator="in" result="composite1"/><feGaussianBlur in="composite1" result="blur" stdDeviation="2"/><feOffset dx="0" dy="0.5" result="offset"/><feComposite in="SourceGraphic" in2="offset" result="composite2"/></filter><filter id="filter1345-9-2-0" style="color-interpolation-filters:sRGB"><feFlood flood-color="rgb(0,0,0)" result="flood"/><feComposite in="flood" in2="SourceGraphic" operator="in" result="composite1"/><feGaussianBlur in="composite1" result="blur" stdDeviation="2"/><feOffset dx="0" dy="0.5" result="offset"/><feComposite in="SourceGraphic" in2="offset" result="composite2"/></filter><filter id="filter1345-9-2-6" style="color-interpolation-filters:sRGB"><feFlood flood-color="rgb(0,0,0)" result="flood"/><feComposite in="flood" in2="SourceGraphic" operator="in" result="composite1"/><feGaussianBlur in="composite1" result="blur" stdDeviation="2"/><feOffset dx="0" dy="0.5" result="offset"/><feComposite in="SourceGraphic" in2="offset" result="composite2"/></filter><filter id="filter1345-9-2-03" style="color-interpolation-filters:sRGB"><feFlood flood-color="rgb(0,0,0)" result="flood"/><feComposite in="flood" in2="SourceGraphic" operator="in" result="composite1"/><feGaussianBlur in="composite1" result="blur" stdDeviation="2"/><feOffset dx="0" dy="0.5" result="offset"/><feComposite in="SourceGraphic" in2="offset" result="composite2"/></filter><filter id="filter1345-9-2-03-6" style="color-interpolation-filters:sRGB"><feFlood flood-color="rgb(0,0,0)" result="flood"/><feComposite in="flood" in2="SourceGraphic" operator="in" result="composite1"/><feGaussianBlur in="composite1" result="blur" stdDeviation="2"/><feOffset dx="0" dy="0.5" result="offset"/><feComposite in="SourceGraphic" in2="offset" result="composite2"/></filter><filter id="filter1345-9-2-03-0" style="color-interpolation-filters:sRGB"><feFlood flood-color="rgb(0,0,0)" result="flood"/><feComposite in="flood" in2="SourceGraphic" operator="in" result="composite1"/><feGaussianBlur in="composite1" result="blur" stdDeviation="2"/><feOffset dx="0" dy="0.5" result="offset"/><feComposite in="SourceGraphic" in2="offset" result="composite2"/></filter><filter id="filter1345-9-2-03-9" style="color-interpolation-filters:sRGB"><feFlood flood-color="rgb(0,0,0)" result="flood"/><feComposite in="flood" in2="SourceGraphic" operator="in" result="composite1"/><feGaussianBlur in="composite1" result="blur" stdDeviation="2"/><feOffset dx="0" dy="0.5" result="offset"/><feComposite in="SourceGraphic" in2="offset" result="composite2"/></filter></defs><g id="area-map" transform="matrix(.2943 0 0 .8928 -8.507 -.2017)" style="stroke-width:0"><polygon transform="matrix(.2646 0 0 .3533 -11 -148.5)" points="317.6 601.9 328.7 591.4 413.8 586.4 413.8 596.1" style="fill:#726658;stroke-width:1.688"/><polygon transform="matrix(.2646 0 0 .3533 -11 -148.5)" points="492.7 655 561 653.7 566.4 606.2 509.1 608.5" style="fill:#8dc63f;stroke-width:1.688"/><polygon transform="matrix(.2646 0 0 .3533 -11 -148.5)" points="1065 588.2 1103 649.3 1188 634.5 1237 633.2 1187 591" style="fill:#8dc63f;stroke-width:1.688"/><polygon transform="matrix(.2646 0 0 .3533 -11 -148.5)" points="895.7 492 906.7 521.2 971.4 528.5 991.4 526.7 967.3 487.2" style="fill:#8dc63f;stroke-width:1.688"/><polygon transform="matrix(.2646 0 0 .3533 -11 -148.5)" points="1066 480.4 1020 490.5 1012 484.6 1058 476.2" style="fill:#726658;stroke-width:1.688"/><polygon transform="matrix(.2646 0 0 .3533 -11 -148.5)" points="1004 605.2 1012 655.8 1004 655.8 996.3 607.8 996.3 536.8 1004 536.8" style="fill:#726658;stroke-width:1.688"/><polygon transform="matrix(.2646 0 0 .3533 -11 -148.5)" points="853.6 518.8 838.6 462.1 829.1 462.1 842 518.8" style="fill:#726658;stroke-width:1.688"/><polygon transform="matrix(.2539 0 0 .3533 -2.7 -148.5)" points="771.7 523.4 527.9 523.4 527.9 514.2 775.9 514.2" style="fill:#84d3ef;stroke-width:1.724"/><path d="m165.3 0.23 0.8201 3.144-27.04 0.8475 0.8134-2.83-5.872 0.5504-1.583 4.082-10.69 0.6005 1.059-3.289-0.9576 0.1235-1.16 3.238-11.46 0.6356-0.1721-1.744-3.981 0.9173v9.552l-0.1059 0.1767-16.32 1.024 3.387-5.794 1.882-2.393-2.758 0.6485-0.9762 1.075-4.921 6.641-5.027 0.3178-34.61 27.77h-9.763l-6.959 6.076h12.73l2.566 3.815-11.36 11.17a157.6 50.25 0 0 0 3.852 3.06l9.646-11.05 11.38 16.96h17.12l-7.741 8.744a157.6 50.25 0 0 0 5.294 1.628l8.43-10.37h27.36l-6.1 17.48a157.6 50.25 0 0 0 13 2.141l2.02-7.615 42.17-1.166-7.541 12.43h18.1l10.03-21.23 33.63 12.05-2.952 9.266a157.6 50.25 0 0 0 15.27-1.185l4.376-18.65 43.77 11.01a157.6 50.25 0 0 0 9.045-2.275l-2.18-4.715 21.96-5.299 9.216-0.3354a157.6 50.25 0 0 0 8-4.263l-12.36-12.77 20.64 0.6356-7.435-7.171-54.74-2.897-2.222-18.9 33.07 4.027-4.18-4.133-11.14-1.484-19-16.82 4.826-0.1979-8.06-2.545-0.232 0.0093-12.97 0.5524-4.835-4.743 11.39 2.64c-3.795-0.8999-7.595-1.786-11.4-2.652l-0.0331-0.03256-3.038-0.6702 1.549 0.3592c-0.5517-0.1247-1.103-0.2483-1.655-0.3721l5.033 5.577-6.218 0.247-2.699-4.345 3.857-1.485c-0.6954-0.156-1.391-0.3141-2.086-0.4687l-2.427 0.8811-0.8051-1.63-3.924-0.6113-5.86-0.8909-25.92 0.8015-0.5292-3.458-6.218-0.4279 0.1855 2.367-23.1 0.7421-0.926-3.109zm72.85 5.805c9e-3 0.00196 0.0176 0.00372 0.0264 0.00568l-0.0109-0.01188zm0.0155-0.0062 2e-3 -5.292e-4 -4e-3 -0.00103zm2e-3 -5.292e-4 0.1147 0.02532-0.1127-0.02636zm14.59 3.38c0.9069 0.2151 1.814 0.4288 2.72 0.6454l1.342 0.9999 2.353-0.09457 0.231-0.0098zm-62.06-5.095 0.6615 9.114-24.61 0.3886 2.064-5.9-0.8656-2.931zm-24.18 0.7064 0.6351 2.402-2.963 6.429-27.78 0.4945 2.218-8.513zm60.24 0.2026 3.651 6.959-31.96 1.342-0.9524-6.783zm-95.56 4.31-4.604 13.21-3.969 0.1416 2.884-10.07-0.3442-2.967zm-7.617 0.3886 0.4232 3.462-3.016 9.573-13.18 0.4945 2.384-5.722-0.662-7.101zm136.5 3.851 17.89 16.25-14.66-1.978-14.39-13.88zm-14.42 0.5302 5.398 5.758-26.96 2.508-2.09-7.419zm-25.74 0.9493 4.202 19.82-23.07-3.427-0.1592-0.1767-2.143-15.44zm-28.3 2.482 0.4982 6.641-33.97-0.7772-1.058-5.334zm-38.08 0.5953 1.508 11.8-7.646-0.3183-1.217-11.38zm-8.946 0.1426 0.7674 11.23-12.91-0.5297 2.777-10.56zm-41.24 0.3871-5.133 8.726-18.2-1.095 6.903-6.077zm150.2 3.852 5.001 5.334 0.8465 8.408-7.144 0.848-6.668-13.85zm-127.3 0.8496-1.958 5.652-12.64 1.59 2.011-6.712zm117.6 1e-3 6.376 13.95-5.292 0.6356-17.11-2.535-2.91-10.32zm-131.6 0.5958-1.905 6.818-6.112 0.7772 3.096-7.383zm46.11 0.8496 14.31 0.5297 4.581 18.55-5.636 1.802h-9.128zm15.8 0.6051 18.04 0.6708 0.3752 5.012-5.9 9.75-8.308 2.685v-0.3178zm-95.69 2.218 10.74 0.6356-6.509 9.397-4.022-2.296h-8.996zm11.83 0.7018 7.064 0.4641-7.62 12.89-6.006-3.427zm41.74 2.06 23.18 1.2 1.773 14.1h-29zm-8.826 1.618-4.657 13.32-6.535 0.0016 4.075-12.58zm-8.258 0.8878-4.419 12.43h-12.04l4.683-11.2zm-46.53 3.634h9.816l10.87 6.253-1.508 2.579h-29.21zm130.5 0.2506 11.01 1.625-8.281 20.67-12.49-1.625zm13.27 1.912 16.59 2.438-6.592 20.63-18.65-2.438zm47.71 3.531 1.27 10.28 5.06 10.92-32.89 1.378 5.212-22.22 8.678 1.272zm-78.39 7.167-6.884 11.34-30.98 1.519 0.2646-9.927h26.3zm-93.23 2.01h8.255l-3.385 20.28h-26.09zm11.38 0h16.77l-7.064 20.28h-12.59zm-53.47 0.03979h35.3l-21.78 20.28zm80.04 0.8465h12.62l-0.8738 10.24-14.63 0.7069zm143.4 6.832 32.23 0.9891 13.39 14.91-12.92 0.417-22.7 5.264zm-81.74 1.052 33.44 4.274-5.919 18.69-32.76-11.83zm-14.95 3.349-10.95 18.09-18.84 0.4589 0.4232-16.96zm94.06 1.529 10.69 23.1-46.93-12.15 2.064-8.832zm-129.2 0.3436-1.459 16.82-18.07 0.4237 4.339-16.43z" style="fill:#fdffff;stroke-width:1.951"/><polygon transform="matrix(.2646 0 0 .3533 -11 -148.5)" points="413.8 502.5 385 539 362.3 529.3 387.1 501.3" style="fill:#8dc63f;stroke-width:1.688"/><polygon transform="matrix(.2646 0 0 .3533 -11 -148.5)" points="376.9 549.3 266.5 549.3 304.4 524.4 341.5 524.4 382.6 542.1" style="fill:#8dc63f;stroke-width:1.688"/><polygon transform="matrix(.2646 0 0 .3533 -11 -148.5)" points="680.3 434.5 766.2 432.6 768.7 458.4 675.8 459.5 683.6 442.9" style="fill:#8dc63f;stroke-width:1.688"/><polygon transform="matrix(.2646 0 0 .3533 -11 -148.5)" points="882.4 603.5 859.9 656.3 736.1 622.8 755.9 591.4" style="fill:#8dc63f;stroke-width:1.688"/><polygon transform="matrix(.2646 0 0 .3533 -11 -148.5)" points="602.9 504.8 631.7 505.7 626.1 472.3 598.3 472.7" style="fill:#8dc63f;stroke-width:1.688"/><polygon transform="matrix(.2646 0 0 .3533 -11 -148.5)" points="452.9 486.8 502.8 485.4 514.1 458.3 512.6 448.5 459.5 450.5 462 470.6" style="fill:#8dc63f;stroke-width:1.688"/></g><g id="digitisation-section" class="extra-items" transform="matrix(.2997 0 0 .2997 -.0007516 -2.745e-5)" style="stroke-width:3.337"><path transform="matrix(1,0,0,2.943,45.88,-72.47)" d="m96.69 57.54-1.402-7.304-14.05-0.536 0.2616 8.185z" style="fill:#cc1386;filter:url(#filter1345-9-2-03-9);stroke-width:1.945"/><path transform="matrix(1,0,0,2.943,85.88,5.097)" d="m39.89 44.48-0.9302-9.681-24.27 0.09409-3.276 9.587z" style="fill:#50cf1b;filter:url(#filter1345-9-2-03-0);stroke-width:1.945"/><path transform="matrix(1,0,0,2.943,82.47,2.658)" d="m107.3 61.57 6.473-20.88-16.29-2.467-8.495 20.88z" style="fill:#f8001b;filter:url(#filter1345-9-2-03-6);stroke-width:1.945"/><path transform="matrix(1,0,0,2.943,81.72,-31.04)" d="m87.91 70.3 8.131-20.92-10.81-1.644-9.584 20.92z" style="fill:#f8f61b;filter:url(#filter1345-9-2-03);stroke-width:1.945"/><path transform="matrix(1,0,0,2.943,-58.29,22.14)" d="m121.6 51.76 3.071-7.287h-8.106l-7.379 8.168z" style="fill:#f512a5;filter:url(#filter1345-9-2-6);stroke-width:1.945"/><path transform="matrix(1,0,0,2.943,-50.77,-12.52)" d="m156.3 87.42 1.433-17.02-14.92 0.8234-4.26 16.63z" style="fill:#19a792;filter:url(#filter1345-9-2-0);stroke-width:1.945"/><path transform="matrix(1,0,0,2.943,-27.29,-56.91)" d="m170.4 80.77 6.759-11.48-11.09 2.967h-25.82l-0.2598 10.05z" style="fill:#da4218;filter:url(#filter1345-9);stroke-width:1.945"/><path transform="matrix(1,0,0,2.943,-32.93,-14.28)" d="m96.02 77.37 0.8679-9.732-17.89 1.807-8.593 7.925z" style="fill:#03e9e9;filter:url(#filter1345-9-03);stroke-width:1.945"/><path transform="matrix(1,0,0,2.943,-47.22,-53.98)" d="m154.3 81.59 0.858-10.36h-12.39l-2.832 11.08z" style="fill:#f55b02;filter:url(#filter1345-9-2);stroke-width:1.945"/><path transform="matrix(1,0,0,2.943,-52.44,-42.58)" d="m131.5 86.98 6.936-20.52h-16.47l-2.832 20.52z" style="fill:#9fb200;filter:url(#filter1345-9-0);stroke-width:1.945"/><path transform="matrix(1,0,0,2.943,-31.31,1.318)" d="m162 81.81 10.95-18.09-29.37 1.589-0.4232 16.96z" style="fill:#f89f1b;filter:url(#filter1345);stroke-width:1.945"/><g transform="matrix(1.878,0,0,1.881,88.69,141)" style="stroke-width:.4698"><path class="markerBody" d="m6.609 0.1323c1.657 0 3.314 0.7374 4.518 1.917 1.205 1.327 1.958 2.802 1.958 4.572s-0.7531 3.687-1.958 4.867l-4.518 4.572-4.518-4.572c-1.205-1.18-1.958-2.95-1.958-4.867 0-1.77 0.6025-3.244 1.958-4.572 1.205-1.18 2.862-1.917 4.518-1.917z" style="fill:#030609;stroke-width:.1243;stroke:#f55b02"/><g transform="matrix(6.45e-4,0,0,-6.45e-4,2.483,8.407)" stroke="1" style="fill:#f55b02;stroke-width:25.69"><path d="m5865 9476c-247-57-434-222-517-456-20-58-23-83-23-230 0-143 3-176 23-245 51-178 153-321 282-397 35-21 57-39 49-41-170-45-279-101-378-192-178-165-267-420-296-846l-7-96-106-7c-353-23-874-104-1139-177l-111-31-180-172c-99-95-225-219-280-277-70-72-102-99-105-89-3 8-15 47-27 85-40 130-95 230-168 304-52 52-128 105-169 117-2 0 17 21 41 47 106 114 169 301 197 588 37 383-49 730-222 900-132 130-286 130-418 0-95-93-168-247-208-442-25-116-24-539 0-678 32-182 97-327 177-394 18-15 31-29 29-31-2-1-25-14-50-29-100-57-205-206-254-360l-22-68-6 128c-21 419-206 725-438 725-191 0-358-225-421-567-17-94-17-502 1-615 16-105 55-238 88-304 14-27 47-73 75-102l50-53-34-17c-99-50-194-168-248-308l-33-85-49 98c-174 354-480 352-653-3-87-178-122-390-111-677 12-339 66-530 187-655l39-40-61-40c-152-97-255-308-308-627-11-67-25-167-31-222-34-338-38-1302-6-1515 22-142 43-225 77-291 38-77 68-110 125-139 49-25 50-25 292-22 134 2 256 1 271-3 26-5 30-13 46-78 31-132 96-311 118-330 39-32 200-105 302-136 594-183 1802-304 3610-363 501-16 2290-16 2795 0 2234 72 3608 230 4162 478 57 26 59 29 99 113 49 102 101 234 124 313l16 56 227-1 227-2 53 29c90 50 137 126 176 283 47 189 51 253 50 813-1 735-29 1037-120 1310-61 181-175 335-291 393l-51 27 56 57c140 143 202 404 189 793-8 239-36 361-120 524-49 95-135 191-209 232-48 26-62 29-143 29-75 0-98-4-140-24-77-38-172-141-224-243l-45-88-53 110c-63 130-141 220-232 269l-59 31 57 58c141 141 199 379 188 776-6 215-20 305-71 440-55 146-156 276-257 331-69 37-176 46-247 20-215-80-368-387-374-750-1-55-5-91-9-80s-17 47-30 80c-30 81-88 180-138 237-36 41-140 119-171 130-6 2 14 29 44 60 87 90 141 216 171 402 21 128 21 492 0 610-46 260-166 461-323 538-251 124-501-97-594-527-20-93-17-445 6-570 36-204 107-363 199-454l45-43-66-34c-164-82-272-248-341-527l-27-108-165 152c-90 84-251 230-358 325l-195 173-110 30c-301 84-760 152-1251 186-126 9-253 18-281 21l-51 5-7 103c-15 234-62 430-140 591-102 209-246 326-496 402-9 2 8 17 45 36 119 64 221 198 259 342 42 156 40 414-4 546-68 203-237 368-445 435-99 32-258 41-350 20zm4993-3888 54-58-29-12c-15-7-51-27-79-44l-52-32-6 116c-4 65-9 144-12 177l-5 60 38-74c20-41 61-101 91-133zm-8964 25c-3-71-7-147-10-171l-5-43-27 17c-15 10-48 30-74 44l-48 26 36 35c40 38 95 125 115 182 7 20 14 37 16 37 1 0 0-57-3-127zm9989-1773c-5-3-20-11-35-18l-28-12v104l35-34c19-19 32-37 28-40zm-10983-30v-50l-70 34 32 33c17 18 33 33 35 33s3-22 3-50z" style="fill:#f55b02;stroke-width:25.69"/></g></g><g transform="matrix(1.878,0,0,1.881,62.35,158.2)" style="stroke-width:.4698"><path class="markerBody" d="m6.609 0.1323c1.657 0 3.314 0.7374 4.518 1.917 1.205 1.327 1.958 2.802 1.958 4.572s-0.7531 3.687-1.958 4.867l-4.518 4.572-4.518-4.572c-1.205-1.18-1.958-2.95-1.958-4.867 0-1.77 0.6025-3.244 1.958-4.572 1.205-1.18 2.862-1.917 4.518-1.917z" style="fill:#030609;stroke-width:.1243;stroke:#9fb200"/><g id="XMLID_90_" transform="matrix(.02577 0 0 .02577 2.41 1.601)" style="fill:#9fb200;stroke-width:.4698"><path id="XMLID_91_" d="m315 225c-8.284 0-15 6.717-15 15v25.01h-30v-35c0-24.81-20.19-45-45-45s-45 20.19-45 45v35h-30v-35c0-24.81-20.19-45-45-45s-45 20.19-45 45v35h-30v-25.01c0-8.285-6.716-15-15-15s-15 6.715-15 15v70.01c0 8.283 6.716 15 15 15s15-6.717 15-15v-15h270v15c0 8.283 6.716 15 15 15s15-6.717 15-15v-70.01c0-8.283-6.716-15-15-15z" style="fill:#9fb200;stroke-width:.4698"/><path id="XMLID_92_" d="m157.5 63.65v16.39c0 4.142 3.357 7.5 7.5 7.5h16.39c4.143 0 7.5-3.358 7.5-7.5s-3.357-7.5-7.5-7.5h-8.889v-8.889c0-4.143-3.357-7.5-7.5-7.5s-7.5 3.358-7.5 7.5z" style="fill:#9fb200;stroke-width:.4698"/><path id="XMLID_93_" d="m90 80c0 41.36 33.64 75 75 75s75-33.64 75-75c0-41.35-33.64-75-75-75s-75 33.65-75 75zm120 0c0 24.81-20.19 45-45 45s-45-20.19-45-45 20.19-45 45-45 45 20.19 45 45z" style="fill:#9fb200;stroke-width:.4698"/></g></g><g transform="matrix(1.878,0,0,1.881,46.28,128.6)" style="stroke-width:.4698"><path class="markerBody" d="m6.609 0.1323c1.657 0 3.314 0.7374 4.518 1.917 1.205 1.327 1.958 2.802 1.958 4.572s-0.7531 3.687-1.958 4.867l-4.518 4.572-4.518-4.572c-1.205-1.18-1.958-2.95-1.958-4.867 0-1.77 0.6025-3.244 1.958-4.572 1.205-1.18 2.862-1.917 4.518-1.917z" style="fill:#030609;stroke-width:.1243;stroke:#f512a5"/><g transform="matrix(.01012 0 0 .01012 2.63 1.752)" style="fill:#f512a5;stroke-width:46.41"><g style="fill:#f512a5;stroke-width:46.41"><path d="m395.9 475-236.2-72.7v121.4c0 56.13 105.8 101.6 236.3 101.6s236.3-45.51 236.3-101.6c0-0.442-0.145-0.886-0.154-1.318v-120.1z" style="fill:#f512a5;stroke-width:46.41"/><path d="m0 318.7 84.38 30.18 7.191-15.4 31-2.635 4.42 4.599-26.6 6.308-3.877 11.48c-7e-3 0-60.09 125.6-51.26 187 0 0 37.5 22.37 74.99 0l9.962-168v-13.98l55.8-12.59-3.941 9.705-41.6 13.53 19.24 6.874 236.2 72.7 236.2-72.7 159.7-57.12-395.9-152.3z" style="fill:#f512a5;stroke-width:46.41"/></g></g></g><g transform="matrix(1.878,0,0,1.881,40.6,174.1)" style="stroke-width:.4698"><path class="markerBody" d="m6.609 0.1323c1.657 0 3.314 0.7374 4.518 1.917 1.205 1.327 1.958 2.802 1.958 4.572s-0.7531 3.687-1.958 4.867l-4.518 4.572-4.518-4.572c-1.205-1.18-1.958-2.95-1.958-4.867 0-1.77 0.6025-3.244 1.958-4.572 1.205-1.18 2.862-1.917 4.518-1.917z" style="fill:#030609;stroke-width:.1243;stroke:#03e9e9"/><g transform="matrix(.008107 0 0 .008107 2.471 2.167)" style="fill:#03e9e9;stroke-width:57.96"><path d="m521.6 106.2 179.5 23.4-222.3-104.3-171.2-15.3z" style="fill:#03e9e9;stroke-width:57.96"/><path d="m512.3 322.7-232.2-101.9v-31l-78.7 47.9 311.5 138.5 294.4-140-87.4-43.2v31.8z" style="fill:#03e9e9;stroke-width:57.96"/><path d="m449.2 179.2 51.8 25.6 49.8-10.9v-66.3l-39.6-5-62-28.1z" style="fill:#03e9e9;stroke-width:57.96"/><path d="m433.1 171.3v-84l-64-29.1v81.5z" style="fill:#03e9e9;stroke-width:57.96"/><path d="m566.8 206.8v65.9l64.1-30.2v-49.8z" style="fill:#03e9e9;stroke-width:57.96"/><path d="m700.2 161.1v-14.7l-53.3-6.7v33.1z" style="fill:#03e9e9;stroke-width:57.96"/><path d="m630.9 176.3v-38.6l-64.1-8.1v60.8z" style="fill:#03e9e9;stroke-width:57.96"/><path d="m550.8 280.3v-70l-51.8 11.4-49.8-24.6v74.6l62 27.2z" style="fill:#03e9e9;stroke-width:57.96"/><path d="m369.1 157.6v79l64 28.1v-75.5z" style="fill:#03e9e9;stroke-width:57.96"/><path d="m646.9 189.2v45.8l53.3-25.1v-32.3z" style="fill:#03e9e9;stroke-width:57.96"/><path d="m353.1 229.6v-79.9l-53.4-26.4v83z" style="fill:#03e9e9;stroke-width:57.96"/><path d="m353.1 131.8v-80.8l-53.4-24.2v78.7z" style="fill:#03e9e9;stroke-width:57.96"/><path d="m247.2 654.4v-93.9l-58.6-25.8v93.9z" style="fill:#03e9e9;stroke-width:57.96"/><path d="m247.2 534.2v-93.9l-58.6-25.7v93.9z" style="fill:#03e9e9;stroke-width:57.96"/><path d="m247.2 414.1v-121.9l-58.6-25.8v122z" style="fill:#03e9e9;stroke-width:57.96"/><path d="m327.3 689.5v-93.9l-56.1-24.6v93.9z" style="fill:#03e9e9;stroke-width:57.96"/><path d="m327.3 449.3v-121.9l-56.1-24.6v121.9z" style="fill:#03e9e9;stroke-width:57.96"/><path d="m327.3 569.4v-93.9l-56.1-24.6v93.9z" style="fill:#03e9e9;stroke-width:57.96"/><path d="m271.2 691.2v114.8l56.1 25.4v-115.6z" style="fill:#03e9e9;stroke-width:57.96"/><path d="m407.4 724.7v-93.9l-56.1-24.6v93.9z" style="fill:#03e9e9;stroke-width:57.96"/><path d="m351.3 726.4v115.8l56.1 25.4v-116.6z" style="fill:#03e9e9;stroke-width:57.96"/><path d="m407.4 484.5v-121.9l-56.1-24.6v121.8z" style="fill:#03e9e9;stroke-width:57.96"/><path d="m407.4 604.6v-93.9l-56.1-24.6v93.8z" style="fill:#03e9e9;stroke-width:57.96"/><path d="m503.8 526.8 0.1-121.7-72.5-31.9v121.8z" style="fill:#03e9e9;stroke-width:57.96"/><path d="m503.8 646.9v-93.8l-72.4-31.9v93.9z" style="fill:#03e9e9;stroke-width:57.96"/><path d="m503.7 767.1v-93.9l-72.3-31.8v93.9z" style="fill:#03e9e9;stroke-width:57.96"/><path d="m431.4 761.6v116.8l72.2 32.7 0.1-117.9z" style="fill:#03e9e9;stroke-width:57.96"/><path d="m664.7 699.6v-93.3l-56.1 27.5v93.4z" style="fill:#03e9e9;stroke-width:57.96"/><path d="m608.6 754v114.3l56.1-28.2v-113.7z" style="fill:#03e9e9;stroke-width:57.96"/><path d="m664.7 459.4v-122.3l-56.1 28v121.9z" style="fill:#03e9e9;stroke-width:57.96"/><path d="m664.7 579.5v-93.4l-56.1 27.7v93.3z" style="fill:#03e9e9;stroke-width:57.96"/><path d="m811.4 387.2v-123.2l-42.6 21.3v122.8z" style="fill:#03e9e9;stroke-width:57.96"/><path d="m768.8 555v93.4l42.6-21v-93.4z" style="fill:#03e9e9;stroke-width:57.96"/><path d="m811.4 507.3v-93.4l-42.6 21v93.4z" style="fill:#03e9e9;stroke-width:57.96"/><path d="m584.6 618.9v-93.4l-56.4 27.8 0.1 93.3z" style="fill:#03e9e9;stroke-width:57.96"/><path d="m584.6 739.1v-93.4l-56.3 27.7v93.4z" style="fill:#03e9e9;stroke-width:57.96"/><path d="m584.6 498.8v-121.7l-56.5 28.1 0.1 121.4z" style="fill:#03e9e9;stroke-width:57.96"/><path d="m528.4 908.7 56.2-28.3v-114.5l-56.3 27.6z" style="fill:#03e9e9;stroke-width:57.96"/><path d="m688.7 714.6v113.4l56-28.2v-112.8z" style="fill:#03e9e9;stroke-width:57.96"/><path d="m744.7 540.1v-93.4l-56 27.6v93.4z" style="fill:#03e9e9;stroke-width:57.96"/><path d="m744.7 420v-122.8l-56 28v122.3z" style="fill:#03e9e9;stroke-width:57.96"/><path d="m744.7 660.2v-93.3l-56 27.6v93.3z" style="fill:#03e9e9;stroke-width:57.96"/><path d="m188.6 761.4v7.2l58.6 26.5v-114.5l-58.6-25.7v70.5l-134.1 55.6 459.1 209 431.9-209-134.1-55.5v-71.3l-42.6 21v112.5l42.6-21.5v-4.8l51.8 21.5-349.6 170.4-376.8-170.4z" style="fill:#03e9e9;stroke-width:57.96"/></g></g><g transform="matrix(1.878,0,0,1.881,95.57,92.41)" style="stroke-width:.4698"><path class="markerBody" d="m6.609 0.1323c1.657 0 3.314 0.7374 4.518 1.917 1.205 1.327 1.958 2.802 1.958 4.572s-0.7531 3.687-1.958 4.867l-4.518 4.572-4.518-4.572c-1.205-1.18-1.958-2.95-1.958-4.867 0-1.77 0.6025-3.244 1.958-4.572 1.205-1.18 2.862-1.917 4.518-1.917z" style="fill:#030609;stroke-width:.1243;stroke:#50cf1b"/><g transform="matrix(.02058 0 0 .02058 2.663 2.144)" style="fill:#50cf1b;stroke-width:6.039"><path d="m369.7 279.5c0-9.021-7.312-16.33-16.33-16.33h-8.375c-0.114-5.848-2.9-11.03-7.186-14.41 3.1-0.112 5.581-2.652 5.581-5.782 0-2.395-1.454-4.449-3.524-5.332 13.28-6.59 13.66-24.13 7.45-43.18l-12.18-39.71h2.457c3.198 0 5.792-2.594 5.792-5.791 0-2.754-1.924-5.055-4.5-5.643 4.438-3.66 7.268-9.201 7.268-15.4 0-7.259-3.888-13.59-9.683-17.09h16.9c9.021 0 16.33-7.313 16.33-16.33 0-9.02-7.312-16.33-16.33-16.33h-335.3c-9.02 0-16.33 7.313-16.33 16.33 0 9.021 7.313 16.33 16.33 16.33h16.9c-5.795 3.492-9.683 9.827-9.683 17.09 0 6.201 2.829 11.74 7.268 15.4-2.576 0.588-4.498 2.889-4.498 5.643 0 3.197 2.592 5.791 5.791 5.791h2.455l-12.17 39.71c-6.207 19.06-5.828 36.59 7.451 43.18-2.072 0.883-3.523 2.936-3.523 5.331 0 3.13 2.479 5.67 5.579 5.782-4.285 3.373-7.071 8.559-7.186 14.41h-8.375c-9.02 0-16.33 7.313-16.33 16.33l-1.718 13.74h371.4zm-268.2-41.85c-2.072 0.883-3.523 2.936-3.523 5.331 0 3.13 2.478 5.67 5.579 5.782-4.285 3.373-7.071 8.559-7.186 14.41h-32.42c-0.114-5.848-2.9-11.03-7.185-14.41 3.1-0.112 5.581-2.652 5.581-5.782 0-2.395-1.453-4.449-3.524-5.332 13.28-6.59 13.66-24.13 7.45-43.18l-12.18-39.71h2.457c3.198 0 5.792-2.594 5.792-5.791 0-2.754-1.924-5.055-4.5-5.643 4.438-3.66 7.268-9.201 7.268-15.4 0-7.259-3.888-13.59-9.683-17.09h49.46c-5.795 3.492-9.683 9.827-9.683 17.09 0 6.201 2.829 11.74 7.267 15.4-2.576 0.588-4.498 2.889-4.498 5.643 0 3.197 2.592 5.791 5.791 5.791h2.455l-12.17 39.71c-6.207 19.06-5.828 36.59 7.452 43.18zm70 0c-2.072 0.883-3.523 2.936-3.523 5.331 0 3.13 2.479 5.67 5.579 5.782-4.285 3.373-7.071 8.559-7.186 14.41h-32.42c-0.114-5.848-2.9-11.03-7.186-14.41 3.1-0.112 5.581-2.652 5.581-5.782 0-2.395-1.453-4.449-3.524-5.332 13.28-6.59 13.66-24.13 7.45-43.18l-12.18-39.71h2.457c3.198 0 5.792-2.594 5.792-5.791 0-2.754-1.924-5.055-4.5-5.643 4.439-3.66 7.268-9.201 7.268-15.4 0-7.259-3.888-13.59-9.683-17.09h49.46c-5.795 3.492-9.683 9.827-9.683 17.09 0 6.201 2.829 11.74 7.268 15.4-2.576 0.588-4.498 2.889-4.498 5.643 0 3.197 2.592 5.791 5.791 5.791h2.455l-12.17 39.71c-6.207 19.06-5.828 36.59 7.452 43.18zm70 0c-2.072 0.883-3.523 2.936-3.523 5.331 0 3.13 2.479 5.67 5.579 5.782-4.285 3.373-7.071 8.559-7.186 14.41h-32.42c-0.114-5.848-2.9-11.03-7.186-14.41 3.1-0.112 5.581-2.652 5.581-5.782 0-2.395-1.453-4.449-3.524-5.332 13.28-6.59 13.66-24.13 7.45-43.18l-12.18-39.71h2.457c3.198 0 5.792-2.594 5.792-5.791 0-2.754-1.924-5.055-4.5-5.643 4.439-3.66 7.268-9.201 7.268-15.4 0-7.259-3.888-13.59-9.683-17.09h49.46c-5.795 3.492-9.683 9.827-9.683 17.09 0 6.201 2.829 11.74 7.268 15.4-2.576 0.588-4.498 2.889-4.498 5.643 0 3.197 2.592 5.791 5.791 5.791h2.455l-12.17 39.71c-6.207 19.06-5.828 36.59 7.452 43.18zm71 0c-2.072 0.883-3.523 2.936-3.523 5.331 0 3.13 2.479 5.67 5.579 5.782-4.285 3.373-7.071 8.559-7.186 14.41h-33.42c-0.114-5.848-2.9-11.03-7.186-14.41 3.1-0.112 5.581-2.652 5.581-5.782 0-2.395-1.454-4.449-3.524-5.332 13.28-6.59 13.66-24.13 7.45-43.18l-12.18-39.71h2.457c3.198 0 5.792-2.594 5.792-5.791 0-2.754-1.924-5.055-4.5-5.643 4.438-3.66 7.268-9.201 7.268-15.4 0-7.259-3.888-13.59-9.683-17.09h50.46c-5.795 3.492-9.683 9.827-9.683 17.09 0 6.201 2.829 11.74 7.268 15.4-2.576 0.588-4.498 2.889-4.498 5.643 0 3.197 2.592 5.791 5.791 5.791h2.455l-12.18 39.71c-6.206 19.06-5.827 36.59 7.453 43.18z" style="fill:#50cf1b;stroke-width:6.039"/></g></g><g transform="matrix(1.878,0,0,1.881,85.81,202.2)" style="stroke-width:.4698"><path class="markerBody" d="m6.609 0.1323c1.657 0 3.314 0.7374 4.518 1.917 1.205 1.327 1.958 2.802 1.958 4.572s-0.7531 3.687-1.958 4.867l-4.518 4.572-4.518-4.572c-1.205-1.18-1.958-2.95-1.958-4.867 0-1.77 0.6025-3.244 1.958-4.572 1.205-1.18 2.862-1.917 4.518-1.917z" style="fill:#030609;stroke-width:.1243;stroke:#1dcaaf"/><g transform="matrix(.01585 0 0 .01552 2.497 2.355)" style="fill:#1dcaaf;stroke-width:.4698"><path d="m316 346c-5.52 0-10 4.48-10 10s4.48 10 10 10 10-4.48 10-10-4.48-10-10-10z" style="fill:#1dcaaf;stroke-width:.4698"/><path d="m462 0h-412c-27.57 0-50 22.43-50 50v306c0 27.57 22.43 50 50 50h156v46h-10c-13.35 0-25.9 5.203-35.35 14.65-9.445 9.449-14.65 22-14.65 35.35 0 5.523 4.477 10 10 10h200c5.523 0 10-4.477 10-10 0-27.57-22.43-50-50-50h-10v-46h156c27.57 0 50-22.43 50-50v-306c0-27.57-22.43-50-50-50zm-412 20h412c16.54 0 30 13.46 30 30v256h-46v-230c0-5.523-4.477-10-10-10h-80c-5.523 0-10 4.477-10 10v230h-50.05c-0.1055-10.34-0.375-20.54-0.8047-30.43-1.75-40.73-5.738-68.01-7.812-80.01 20.63-15.19 26.27-43.35 13.65-65.22l-34.66-60.03c-1.789-3.094-5.09-5-8.66-5-3.574 0-6.875 1.906-8.66 5l-34.68 60.04c-11.89 20.62-7.676 47.34 11 63.11-2.164 11.96-6.531 40.22-8.43 82.1-0.4492 9.996-0.7344 20.2-0.8438 30.45h-50.05v-150c0-1.586-0.375-3.031-0.9883-4.316-0.0273-0.0508-0.043-0.1055-0.0664-0.1562l-40-80c-1.695-3.387-5.156-5.527-8.945-5.527s-7.25 2.141-8.945 5.527l-40 80c-0.02344 0.0508-0.03906 0.1055-0.0625 0.1562-0.625 1.297-0.9922 2.766-0.9922 4.316v150h-46v-256c0-16.54 13.46-30 30-30zm316 286v-220h60v20h-10c-5.523 0-10 4.477-10 10s4.477 10 10 10h10v30h-10c-5.523 0-10 4.477-10 10s4.477 10 10 10h10v30h-10c-5.523 0-10 4.477-10 10s4.477 10 10 10h10v40h-10c-5.523 0-10 4.477-10 10s4.477 10 10 10h10v20zm-108.3-100.7c3.633 0 7.25-0.418 10.79-1.199 1.855 11.89 4.582 32.94 6.195 61.89h-37.22c1.691-28.93 4.547-50.3 6.52-62.6 4.43 1.262 9.043 1.91 13.72 1.91zm0-20c-22.86 0-37.59-24.88-26.01-44.97l26.01-45.03 26 45.03c11.54 20.01-2.996 44.97-26 44.97zm-21.16 100.7h39.02c0.2109 6.57 0.3555 13.25 0.4258 20h-39.89c0.0742-6.703 0.2266-13.39 0.4492-20zm-110.5 20v-140h20v140zm-40 0v-140h20v140zm6.18-160 23.82-47.64 23.82 47.64zm252.1 346h-176.6c1.469-4.168 3.867-7.988 7.086-11.21 5.672-5.668 13.2-8.789 21.21-8.789h120c13.04 0 24.16 8.359 28.29 20zm-58.29-40h-60v-46h60zm176-66h-412c-16.54 0-30-13.46-30-30v-30h472v30c0 16.54-13.46 30-30 30z" style="fill:#1dcaaf;stroke-width:.4698"/><path d="m276 346h-60c-5.523 0-10 4.477-10 10s4.477 10 10 10h60c5.523 0 10-4.477 10-10s-4.477-10-10-10z" style="fill:#1dcaaf;stroke-width:.4698"/></g></g><g transform="matrix(7.097,0,0,7.11,1153,-148.7)" style="stroke-width:.4698"><g transform="matrix(.2646 0 0 .2646 -137.8 40.09)" style="stroke-width:.4698;stroke:#f8001b"><path class="markerBody" d="m6.609 0.1323c1.657 0 3.314 0.7374 4.518 1.917 1.205 1.327 1.958 2.802 1.958 4.572s-0.7531 3.687-1.958 4.867l-4.518 4.572-4.518-4.572c-1.205-1.18-1.958-2.95-1.958-4.867 0-1.77 0.6025-3.244 1.958-4.572 1.205-1.18 2.862-1.917 4.518-1.917z" style="fill:#030609;stroke-width:.1243;stroke:#f8001b"/></g><g transform="matrix(.04603 0 0 .04603 -137.2 40.7)" style="fill:#f8001b;stroke-width:2.699"><path d="m49 17c0-0.55-0.45-1-1-1h-13c-0.55 0-1-0.45-1-1v-13c0-0.55-0.45-1-1-1h-16c-0.55 0-1 0.45-1 1v13c0 0.55-0.45 1-1 1h-13c-0.55 0-1 0.45-1 1v16c0 0.55 0.45 1 1 1h13c0.55 0 1 0.45 1 1v13c0 0.55 0.45 1 1 1h16c0.55 0 1-0.45 1-1v-13c0-0.55 0.45-1 1-1h13c0.55 0 1-0.45 1-1z" style="fill:#f8001b;stroke-width:2.699"/></g></g><g transform="matrix(7.097,0,0,7.11,1132,-175.8)" style="stroke-width:.4698"><g transform="matrix(.2646 0 0 .2646 -137.8 40.09)" style="stroke-width:.4698;stroke:#f8f61b"><path class="markerBody" d="m6.609 0.1323c1.657 0 3.314 0.7374 4.518 1.917 1.205 1.327 1.958 2.802 1.958 4.572s-0.7531 3.687-1.958 4.867l-4.518 4.572-4.518-4.572c-1.205-1.18-1.958-2.95-1.958-4.867 0-1.77 0.6025-3.244 1.958-4.572 1.205-1.18 2.862-1.917 4.518-1.917z" style="fill:#030609;stroke-width:.1243;stroke:#f8f61b"/></g><text x="-136.44968" y="42.735054" style="fill:#f8f61b;font-family:'Britannic Bold';font-size:2.643px;letter-spacing:0px;line-height:1.25;stroke-width:.1243;word-spacing:0px" xml:space="preserve"><tspan x="-136.44968" y="42.735054" style="fill:#f8f61b;stroke-width:.1243">i</tspan></text></g><g transform="matrix(1.878,0,0,1.881,118.7,53.04)" style="stroke-width:.4698"><path class="markerBody" d="m6.609 0.1323c1.657 0 3.314 0.7374 4.518 1.917 1.205 1.327 1.958 2.802 1.958 4.572s-0.7531 3.687-1.958 4.867l-4.518 4.572-4.518-4.572c-1.205-1.18-1.958-2.95-1.958-4.867 0-1.77 0.6025-3.244 1.958-4.572 1.205-1.18 2.862-1.917 4.518-1.917z" style="fill:#030609;stroke-width:.1243;stroke:#cc1386"/><g transform="matrix(.01558 0 0 .01558 2.871 1.785)" style="fill:#cc1386;stroke-width:7.974"><g style="fill:#cc1386;stroke-width:7.974"><g style="fill:#cc1386;stroke-width:7.974"><path d="m268.6 193.5c-3.781-10.44-15.31-15.84-25.76-12.06l-65.41 23.68-53.67-39.7 53.83 21.08 0.059-3.738c0.798-16.24-11.52-30.21-27.82-31.37l-50.89-3.612c-8.34-0.591-16.55 2.325-22.64 8.047s-9.526 13.73-9.463 22.09l1.112 146.3h-14.24l-21.62-170.7c-1.115-8.815-9.164-15.06-17.98-13.94-8.815 1.116-15.06 9.167-13.94 17.98l23.4 184.8c1.018 8.04 7.857 14.07 15.96 14.07h58.1v65.88l-38.22 31.2c-4.747 3.876-5.456 10.87-1.579 15.61 3.876 4.749 10.87 5.455 15.61 1.579l24.18-19.74v11.14c0 6.129 4.968 11.1 11.1 11.1s11.1-4.968 11.1-11.1v-11.14l24.18 19.74c4.751 3.877 11.74 3.167 15.61-1.579 3.876-4.747 3.168-11.74-1.579-15.61l-38.22-31.2v-65.88h52.98c8.037 0 14.68-5.901 15.88-13.6l3.866 0.998 13.84 108.3c1.69 13.23 13.79 22.57 27 20.88 13.22-1.689 22.57-13.78 20.88-27l-15.91-124.5c-1.251-9.795-8.344-17.84-17.9-20.31l-50.25-12.97 1.225-17.27c-8.395 0.193-16.47-3.597-21.69-10.16l-49.88-62.96 62.34 46.11c5.326 3.938 12.37 5.07 18.81 2.741l75.54-27.35c10.44-3.78 15.84-15.31 12.06-25.75z" style="fill:#cc1386;stroke-width:7.974"/></g></g><g style="fill:#cc1386;stroke-width:7.974"><g style="fill:#cc1386;stroke-width:7.974"><circle cx="134.8" cy="83.27" r="44.39" style="fill:#cc1386;stroke-width:7.974"/></g></g><g style="fill:#cc1386;stroke-width:7.974"><g style="fill:#cc1386;stroke-width:7.974"><path d="m495.4 259.9h-225.3c-9.193 0-16.65 7.453-16.65 16.65s7.453 16.65 16.65 16.65h2.219v168.8c0 6.129 4.968 11.1 11.1 11.1s11.1-4.968 11.1-11.1v-168.8h177.6v168.8c0 6.129 4.968 11.1 11.1 11.1s11.1-4.968 11.1-11.1v-168.8c11.52 0 17.76-8.326 17.76-16.65 0-9.193-7.452-16.65-16.65-16.65z" style="fill:#cc1386;stroke-width:7.974"/></g></g><g style="fill:#cc1386;stroke-width:7.974"><g style="fill:#cc1386;stroke-width:7.974"><path d="m387.5 160.1c-5.375-2.945-12.12-0.975-15.06 4.4l-33.46 61.08h-60.18c-6.129 0-11.1 4.968-11.1 11.1 0 0.169 0.019 0.333 0.026 0.5 0.264 5.895 5.113 10.6 11.07 10.6h66.75c4.054 0 7.785-2.211 9.732-5.765l36.62-66.84c2.944-5.374 0.973-12.12-4.401-15.06z" style="fill:#cc1386;stroke-width:7.974"/></g></g></g></g><g transform="matrix(7.097,0,0,7.11,1090,-98.47)" style="stroke-width:.4698"><g transform="matrix(.2646 0 0 .2646 -137.8 40.09)" style="stroke-width:.4698"><path class="markerBody" d="m6.609 0.1323c1.657 0 3.314 0.7374 4.518 1.917 1.205 1.327 1.958 2.802 1.958 4.572s-0.7531 3.687-1.958 4.867l-4.518 4.572-4.518-4.572c-1.205-1.18-1.958-2.95-1.958-4.867 0-1.77 0.6025-3.244 1.958-4.572 1.205-1.18 2.862-1.917 4.518-1.917z" style="fill:#030609;stroke-width:.1243;stroke:#f89f1b"/></g><text x="-136.85059" y="42.534603" style="fill:#f89f1b;font-family:'Britannic Bold';font-size:2.643px;letter-spacing:0px;line-height:1.25;stroke-width:.1243;word-spacing:0px" xml:space="preserve"><tspan x="-136.85059" y="42.534603" style="fill:#f89f1b;stroke-width:.1243">P</tspan></text></g><g transform="matrix(1.878,0,0,1.881,119.8,139)" style="stroke-width:.4698"><path class="markerBody" d="m6.609 0.1323c1.657 0 3.314 0.7374 4.518 1.917 1.205 1.327 1.958 2.802 1.958 4.572s-0.7531 3.687-1.958 4.867l-4.518 4.572-4.518-4.572c-1.205-1.18-1.958-2.95-1.958-4.867 0-1.77 0.6025-3.244 1.958-4.572 1.205-1.18 2.862-1.917 4.518-1.917z" style="fill:#030609;stroke-width:.1243;stroke:#da4218"/><g transform="matrix(.006707 0 0 .006707 2.797 2.007)" style="fill:#da4218;stroke-width:.4698"><g transform="matrix(.1 0 0 -.1 0 1280)" style="fill:#da4218;stroke-width:.4698"><path d="m3944 12782c-100-36-177-111-215-210-29-79-24-195 13-267 55-106 164-182 277-192l60-6 325-591c178-325 336-612 351-638l26-47-122-61c-261-132-476-286-685-495-460-459-732-1071-761-1712l-6-133 864-2 864-3 39-72c22-40 42-73 45-73s24 34 46 74c21 41 42 73 46 70 5-2 25-36 46-74 20-39 40-70 43-70s23 34 45 75 42 75 45 75 23-34 44-75c22-41 42-75 45-75s24 34 46 75 42 75 45 75 23-34 44-75c22-41 42-75 45-75s24 34 46 75 42 75 45 75 23-34 44-75c22-41 42-75 45-75 4 0 24 34 46 75s42 75 45 75 23-34 44-75c22-41 42-75 45-75 4 0 24 34 46 75s42 75 45 75 23-34 45-75 42-75 45-75 23 34 45 75 42 75 45 75 23-34 45-75 42-75 45-75 23 34 45 75 42 75 45 75 23-34 45-75 42-75 46-75c3 0 23 34 45 75l39 75h1888l-7 128c-51 938-579 1761-1406 2191l-128 67 337 544 336 545 73 7c128 11 230 78 289 190 25 48 28 63 28 153 0 95-2 103-34 163-38 70-92 120-167 154-70 33-208 32-276-1-74-36-134-95-169-167-27-54-32-76-32-137-1-84 13-140 49-192 25-37 25-40 11-69-9-17-164-269-344-561-259-418-333-530-348-529-11 1-81 18-155 38-239 64-370 80-660 80-313 1-469-19-723-91-49-14-91-22-95-19-3 4-164 295-358 648l-353 641 24 32c49 64 69 124 69 210 0 93-27 165-89 234-84 92-246 135-361 93z" style="fill:#da4218;stroke-width:.4698"/><path d="m9330 8789c-94-19-172-102-191-202-6-37-9-215-7-490l3-432 28-57c15-31 43-68 62-82 75-58 42-56 984-56h866l50 24c60 28 97 66 124 126 20 43 21 63 20 510 0 353-3 474-13 501-20 56-61 103-118 135l-53 29-855 2c-472 0-875-3-900-8z" style="fill:#da4218;stroke-width:.4698"/><path d="m484 8711c-87-15-170-89-194-172-6-20-10-224-10-494v-460l24-51c27-59 90-116 145-132 28-9 276-12 903-12 769 0 870 2 904 16 60 25 98 60 130 116l29 53v475c0 524 2 507-64 583-18 19-53 46-79 59l-47 23-850 1c-467 1-868-1-891-5z" style="fill:#da4218;stroke-width:.4698"/><path d="m2770 8111c-74-15-136-66-164-133-14-33-16-194-16-1440 0-1341 1-1405 19-1444 24-53 91-109 146-123 27-7 164-11 364-11h321v-38c0-152 119-343 269-432 128-76 161-80 682-80h458l3-412c3-404 4-414 26-467 75-176 215-284 400-311 35-5 67-11 70-14 2-3 9-29 13-58 19-122 112-243 224-294l55-25v-345l-87-12c-526-72-980-449-1147-953-51-155-66-238-73-406l-6-153h852l3-362 3-363 28-57c32-65 89-121 156-152 44-20 60-21 386-21s342 1 386 21c67 31 124 87 156 152l28 57 3 363 3 362h852l-6 153c-7 168-22 251-73 406-167 504-621 881-1146 953l-88 12v345l55 25c112 51 205 172 224 294 4 29 11 55 13 58 3 3 35 9 70 14 186 27 325 135 400 311 22 53 23 63 26 467l3 412h458c423 0 464 1 535 20 107 27 169 63 251 145 101 100 165 235 165 347v38h321c200 0 337 4 364 11 55 14 122 70 146 123 18 39 19 103 19 1444 0 1246-2 1407-16 1440-19 47-58 88-109 115l-40 22-2975 1c-1636 1-2991-1-3010-5zm3234-5852c448-91 816-440 935-886 12-45 24-111 28-147l6-66h-642l-3 383c-3 374-3 383-26 432-29 63-83 119-147 153l-50 27h-700l-51-27c-60-32-118-93-148-157-20-44-21-62-24-428l-3-383h-639v38c1 85 61 294 117 407 78 155 228 335 362 434 290 215 634 291 985 220z" style="fill:#da4218;stroke-width:.4698"/><path d="m9436 7341c-3-4-4-91-3-192l2-184 768-3 767-2-2 192-3 193-762 2c-419 2-764-1-767-6z" style="fill:#da4218;stroke-width:.4698"/><path d="m1343 7262-763-2v-380l765 2 766 3v189c0 103-1 189-3 190-2 0-346 0-765-2z" style="fill:#da4218;stroke-width:.4698"/><path d="m9432 6673 3-188 768-3 767-2v380h-1540z" style="fill:#da4218;stroke-width:.4698"/><path d="m580 6590v-190l768 2 767 3 3 188 2 187h-1540z" style="fill:#da4218;stroke-width:.4698"/><path d="m9438 6184c-2-102-1-188 1-190s348-4 768-4h763v380h-1529z" style="fill:#da4218;stroke-width:.4698"/><path d="m580 6100v-190l765 2 766 3v370l-766 3-765 2z" style="fill:#da4218;stroke-width:.4698"/><path d="m9303 5870c-53-12-97-44-130-93-25-38-33-61-38-123-9-90 0-202 19-247 17-40 60-84 108-108 36-18 73-19 940-19 858 0 905 1 943 19 22 10 52 31 67 47 48 51 58 91 58 232 0 117-2 132-25 179-29 57-82 100-142 114-46 10-1755 10-1800-1z" style="fill:#da4218;stroke-width:.4698"/><path d="m442 5790c-54-13-109-58-137-113-23-47-25-62-25-181 0-145 12-187 66-238 65-61 19-58 1005-58 999 0 931-5 1003 67 51 51 61 89 61 233 0 115-2 130-26 175-28 56-86 102-145 115-47 11-1755 11-1802 0z" style="fill:#da4218;stroke-width:.4698"/><path d="m9437 5153c-4-3-7-89-7-190v-183h1540v380h-763c-420 0-767-3-770-7z" style="fill:#da4218;stroke-width:.4698"/><path d="m580 4890v-190h1540l-2 188-3 187-767 3-768 2z" style="fill:#da4218;stroke-width:.4698"/><path d="m9437 4673c-4-3-7-89-7-190v-183h1540v380h-763c-420 0-767-3-770-7z" style="fill:#da4218;stroke-width:.4698"/><path d="m580 4410v-190h1540l-2 188-3 187-767 3-768 2z" style="fill:#da4218;stroke-width:.4698"/><path d="m9434 4177c-2-7-3-94-2-192l3-180 768-3 767-2v390h-765c-614 0-767-3-771-13z" style="fill:#da4218;stroke-width:.4698"/><path d="m580 3915v-195l768 2 767 3v380l-767 3-768 2z" style="fill:#da4218;stroke-width:.4698"/><path d="m9228 3133c-168-291-311-545-318-567-17-54-9-142 20-200 83-165 318-197 441-59 19 21 133 210 254 421l220 382 360-2 359-3 178-307 178-308-222-382c-121-211-227-397-234-415-22-52-18-150 10-208 26-57 88-117 143-140 92-39 225-10 295 63 20 20 171 272 337 560l301 522-321 558c-177 306-331 569-341 585l-19 27h-1337z" style="fill:#da4218;stroke-width:.4698"/><path d="m656 3543c-13-21-166-284-340-585l-316-548 301-522c166-288 316-538 333-556 51-55 120-85 196-84 77 0 125 19 182 70 57 52 88 121 88 200 0 34-6 77-14 95-7 18-113 204-234 415l-222 382 178 308 178 307 359 3 360 2 220-382c121-211 237-402 258-424 21-23 61-52 89-64 99-42 234-15 305 62 60 66 89 185 63 264-7 22-150 276-318 567l-305 527h-1337z" style="fill:#da4218;stroke-width:.4698"/></g></g></g></g></svg>
