<?xml version="1.0" encoding="UTF-8" standalone="no"?>
<!-- Created with Inkscape (http://www.inkscape.org/) -->

<svg
   xmlns:dc="http://purl.org/dc/elements/1.1/"
   xmlns:cc="http://creativecommons.org/ns#"
   xmlns:rdf="http://www.w3.org/1999/02/22-rdf-syntax-ns#"
   xmlns:svg="http://www.w3.org/2000/svg"
   xmlns="http://www.w3.org/2000/svg"
   xmlns:sodipodi="http://sodipodi.sourceforge.net/DTD/sodipodi-0.dtd"
   xmlns:inkscape="http://www.inkscape.org/namespaces/inkscape"
   sodipodi:docname="logo.svg"
   inkscape:version="0.92.3 (2405546, 2018-03-11)"
   id="svg8"
   version="1.1"
   viewBox="0 0 1094.6499 1079.2324"
   height="1079.2324mm"
   width="1094.6499mm">
  <defs
     id="defs2">
    <clipPath
       id="clipPath831"
       clipPathUnits="userSpaceOnUse">
      <path
         inkscape:connector-curvature="0"
         id="path829"
         d="M 0.5,0 H 841.389 V 594.776 H 0.5 Z" />
    </clipPath>
    <clipPath
       id="clipPath875"
       clipPathUnits="userSpaceOnUse">
      <path
         inkscape:connector-curvature="0"
         id="path873"
         d="m 580.028,57.424 h 209.846 v 66.024 H 580.028 Z" />
    </clipPath>
    <clipPath
       id="clipPath1484"
       clipPathUnits="userSpaceOnUse">
      <path
         inkscape:connector-curvature="0"
         id="path1482"
         d="M 0.5,0 H 841.389 V 594.776 H 0.5 Z" />
    </clipPath>
    <clipPath
       id="clipPath1528"
       clipPathUnits="userSpaceOnUse">
      <path
         inkscape:connector-curvature="0"
         id="path1526"
         d="m 580.028,57.424 h 209.846 v 66.024 H 580.028 Z" />
    </clipPath>
  </defs>
  <sodipodi:namedview
     inkscape:window-maximized="1"
     inkscape:window-y="-4"
     inkscape:window-x="-4"
     inkscape:window-height="749"
     inkscape:window-width="1366"
     showgrid="false"
     inkscape:current-layer="layer1"
     inkscape:document-units="mm"
     inkscape:cy="2353.2657"
     inkscape:cx="2199.6077"
     inkscape:zoom="0.175"
     inkscape:pageshadow="2"
     inkscape:pageopacity="0.0"
     borderopacity="1.0"
     bordercolor="#666666"
     pagecolor="#ffffff"
     id="base" />
  <metadata
     id="metadata5">
    <rdf:RDF>
      <cc:Work
         rdf:about="">
        <dc:format>image/svg+xml</dc:format>
        <dc:type
           rdf:resource="http://purl.org/dc/dcmitype/StillImage" />
        <dc:title />
      </cc:Work>
    </rdf:RDF>
  </metadata>
  <g
     inkscape:label="Layer 1"
     inkscape:groupmode="layer"
     id="layer1"
     transform="translate(747.68064,172.31224)">
    <g
       id="g1486"
       transform="matrix(0.49767025,0,0,-0.49767025,-225.9126,140.68264)">
      <path
         d="M 0,0 25.297,452.659 C 13.816,452.115 2.024,451.258 -9.885,449.935 l -2.997,-0.195 v -679.786 h 763.15 l 0.428,3.074 c 2.258,13.116 4.203,26.426 6.305,39.775 l -538.552,-29.929 c -1.557,7.006 -3.464,14.011 -5.565,20.977 l 554.197,83.091 c 3.736,30.824 6.577,61.841 9.107,92.782 L 204.283,-172.292 c -2.258,5.371 -4.632,10.586 -7.2,15.879 l 442.852,155.207 -61.141,0.077 -15.489,48.181 -377.859,-181.71 c -3.308,5.41 -6.733,10.781 -10.313,15.996 l 370.814,219.655 -6.305,19.693 c -5.76,17.824 -12.337,34.676 -19.693,50.866 L 160.694,-99.281 c -3.853,4.709 -7.901,9.185 -11.948,13.738 l 344.35,308.117 c -13.66,22.417 -29.072,42.927 -45.574,61.686 L 131.7,-68.652 c -4.982,4.553 -10.08,8.951 -15.49,13.116 l 284.844,385.408 c -19.965,16.929 -41.059,31.874 -62.892,45.106 L 96.673,-41.292 c -4.631,3.113 -9.535,6.071 -14.283,8.912 l 207.98,432.733 c -23.74,11.131 -48.064,20.315 -72.349,27.788 L 60.674,-20.899 c -5.877,2.802 -11.831,5.409 -17.942,7.706 l 116.561,455.928 c -25.919,4.943 -51.411,8.134 -76.202,9.652 L 18.915,-4.904 C 12.766,-2.997 6.46,-1.401 0,0"
         style="fill:#00597d;fill-opacity:1;fill-rule:nonzero;stroke:none"
         id="path1488"
         inkscape:connector-curvature="0" />
    </g>
    <g
       id="g1490"
       transform="matrix(0.49767025,0,0,-0.49767025,272.05193,466.38348)">
      <path
         d="m 0,0 c 41.37,0 112.084,13.505 129.092,102.355 -2.88,0.195 -6.655,0.428 -10.858,0.428 -33.12,0 -85.037,-8.912 -113.136,-58.65 7.55,22.923 14.439,45.613 20.744,67.835 -0.428,-2.179 -0.934,-4.359 -1.285,-6.694 h 0.351 c 26.62,0 112.591,7.667 125.628,103.912 h -0.584 c -29.461,0 -91.886,-7.861 -116.638,-70.209 6.032,22.729 11.442,44.834 16.268,66.239 9.651,1.596 27.165,5.644 44.055,15.607 31.407,18.33 46.858,47.558 46.119,86.866 -17.047,-2.686 -59.001,-13.116 -79.238,-51.295 2.802,13.894 5.254,27.126 7.55,39.891 25.803,25.764 75.891,90.486 8.212,153.339 v -0.779 c -0.273,0.195 -0.428,0.467 -0.428,0.467 -0.195,-2.88 -22.69,-323.722 -194.903,-607.204 -158.671,-261.298 -490.06,-615.844 -1141.553,-655.541 l 46.157,-71.765 c 377.079,32.38 635.497,166.882 816.585,324.073 -1.791,-1.907 -3.698,-3.541 -5.527,-5.604 15.918,-11.909 63.048,-43.277 119.674,-43.277 45.301,0 86.554,20.121 122.943,59.545 -15.917,11.909 -63.009,43.277 -119.324,43.277 -33.703,0 -65.227,-11.208 -94.221,-33.042 27.671,25.219 53.396,50.828 77.409,76.747 15.645,-9.107 54.368,-28.721 99.553,-28.721 h 0.078 c 49.387,0 91.536,23.117 125.472,68.885 -14.788,8.757 -54.368,29.422 -100.526,29.422 -34.481,0 -65.382,-11.52 -92.626,-33.937 23.196,26.854 44.562,53.708 64.294,80.25 -0.467,-1.09 -1.168,-1.907 -1.752,-3.113 12.337,-4.671 40.164,-13.933 72.583,-13.933 58.728,0 103.329,28.8 132.634,85.542 -12.26,4.671 -40.008,14.089 -72.466,14.089 -41.098,0 -75.151,-14.633 -102.2,-42.732 19.887,28.566 38.063,56.392 54.525,83.285 -0.584,-1.323 -1.362,-2.569 -2.063,-3.97 10.742,-3.502 32.809,-9.262 58.806,-9.262 42.071,0 98.113,15.606 130.649,88.539 -10.664,3.386 -32.808,9.107 -58.65,9.107 -34.054,0 -77.331,-10.158 -110.061,-53.124 16.268,28.177 30.979,57.132 44.484,86.399 7.861,-1.479 19.536,-3.152 33.353,-3.152 43.588,0 99.981,15.917 125.044,90.485 -7.55,1.556 -20.744,3.736 -36.583,3.736 -33.314,0 -73.945,-9.457 -102.667,-47.558 8.874,21.093 17.202,42.382 24.908,63.592 C -7.317,0.156 -3.931,0 0,0"
         style="fill:#00597d;fill-opacity:1;fill-rule:nonzero;stroke:none"
         id="path1492"
         inkscape:connector-curvature="0" />
    </g>
    <g
       id="g1494"
       transform="matrix(0.49767025,0,0,-0.49767025,-672.74394,466.38348)">
      <path
         d="m 0,0 c -41.409,0 -112.163,13.505 -129.209,102.355 2.958,0.195 6.655,0.428 10.936,0.428 33.081,0 84.998,-8.912 113.136,-58.65 -7.551,22.923 -14.478,45.613 -20.744,67.835 0.351,-2.179 1.012,-4.359 1.284,-6.694 h -0.35 c -26.698,0 -112.668,7.667 -125.628,103.912 h 0.584 c 29.422,0 91.847,-7.861 116.638,-70.209 -6.032,22.729 -11.442,44.834 -16.268,66.239 -9.73,1.596 -27.165,5.644 -44.211,15.607 -31.213,18.33 -46.702,47.558 -46.08,86.866 17.086,-2.686 59.118,-13.116 79.355,-51.295 -2.802,13.894 -5.254,27.126 -7.55,39.891 -25.764,25.764 -75.852,90.486 -8.212,153.339 v -0.779 c 0.234,0.195 0.428,0.467 0.428,0.467 0.156,-2.88 22.689,-323.722 194.826,-607.204 158.592,-261.298 490.098,-615.844 1141.669,-655.541 l -46.196,-71.765 c -377.08,32.38 -635.497,166.882 -816.741,324.073 1.908,-1.907 3.854,-3.541 5.683,-5.604 -15.957,-11.909 -63.126,-43.277 -119.597,-43.277 -45.3,0 -86.71,20.121 -122.942,59.545 15.839,11.909 62.931,43.277 119.323,43.277 33.548,0 65.15,-11.208 94.066,-33.042 -27.593,25.219 -53.318,50.828 -77.331,76.747 -15.567,-9.107 -54.369,-28.721 -99.553,-28.721 -49.387,0 -91.614,23.117 -125.589,68.885 14.711,8.757 54.407,29.422 100.525,29.422 34.521,0 65.422,-11.52 92.743,-33.937 -23.195,26.854 -44.678,53.708 -64.449,80.25 0.623,-1.09 1.206,-1.907 1.751,-3.113 -12.259,-4.671 -40.007,-13.933 -72.582,-13.933 -58.611,0 -103.251,28.8 -132.517,85.542 12.259,4.671 39.93,14.089 72.427,14.089 41.059,0 75.073,-14.633 102.122,-42.732 -19.888,28.566 -38.023,56.392 -54.486,83.285 0.7,-1.323 1.401,-2.569 1.946,-3.97 -10.703,-3.502 -32.653,-9.262 -58.611,-9.262 -42.032,0 -98.308,15.606 -130.649,88.539 10.625,3.386 32.691,9.107 58.689,9.107 33.898,0 77.33,-10.158 109.905,-53.124 -16.112,28.177 -30.901,57.132 -44.483,86.399 -7.823,-1.479 -19.46,-3.152 -33.353,-3.152 -43.434,0 -99.826,15.917 -124.967,90.485 7.511,1.556 20.743,3.736 36.505,3.736 33.275,0 74.062,-9.457 102.706,-47.558 C 26.036,-42.149 17.708,-20.86 10.08,0.35 7.355,0.156 3.892,0 0,0"
         style="fill:#00597d;fill-opacity:1;fill-rule:nonzero;stroke:none"
         id="path1496"
         inkscape:connector-curvature="0" />
    </g>
    <g
       id="g1498"
       transform="matrix(0.49767025,0,0,-0.49767025,-229.84439,253.42675)">
      <path
         d="m 0,0 v 710.338 l -41.915,-7.161 c -13.504,-2.335 -27.087,-5.137 -40.28,-8.173 l -27.515,-6.616 V 0 h -564.978 l 8.25,-42.732 c 2.53,-12.921 5.138,-25.725 7.939,-38.685 l 6.15,-28.294 h 542.639 v -693.603 l 29.071,-5.526 c 11.91,-2.374 24.947,-4.476 40.086,-6.5 L 0,-820.71 v 710.999 h 742.484 l 29.228,0.506 5.994,28.488 c 2.607,12.61 5.253,25.219 7.783,38.101 L 793.468,0 Z M 742.484,-73.867 H -35.96 v -705.901 c -12.805,1.673 -25.492,3.658 -37.868,5.993 v 699.908 h -549.566 c -2.763,12.765 -5.332,25.297 -7.861,37.906 h 557.427 v 696.055 c 12.726,3.075 25.336,5.604 37.868,7.784 V -35.961 h 786.228 c -2.529,-12.804 -5.176,-25.374 -7.784,-37.906"
         style="fill:#00597d;fill-opacity:1;fill-rule:nonzero;stroke:none"
         id="path1500"
         inkscape:connector-curvature="0" />
    </g>
    <g
       id="g1502"
       transform="matrix(0.49767025,0,0,-0.49767025,74.570599,125.28472)">
      <path
         d="m 0,0 -31.913,99.398 c -84.064,261.103 -330.729,354.351 -517.42,355.168 h -2.179 C -739.799,454.372 -989.616,361.201 -1074.03,98.853 l -32.108,-99.476 h -209.653 c 9.029,-144.309 34.326,-349.253 102.9,-543.105 127.302,-360.423 343.61,-535.634 661.456,-535.634 h 0.117 c 318.197,0 533.882,173.654 659.705,530.847 55.187,156.724 90.213,347.618 101.383,548.398 z m 74.567,-536.684 c -120.102,-341.003 -324.774,-506.795 -625.885,-506.795 h -0.117 c -300.76,0 -506.055,167.349 -627.675,511.776 -61.88,174.861 -87.644,359.878 -98.229,495.198 h 197.432 l 39.93,124.383 c 78.499,244.057 312.204,330.728 488.542,330.767 h 2.102 C -375.251,417.944 -144.154,331.04 -66.044,88.5 l 40.007,-124.305 197.628,-0.117 C 158.397,-220.667 125.044,-393.114 74.567,-536.684"
         style="fill:#00597d;fill-opacity:1;fill-rule:nonzero;stroke:none"
         id="path1504"
         inkscape:connector-curvature="0" />
    </g>
    <g
       id="g1506"
       transform="matrix(0.49767025,0,0,-0.49767025,126.63303,53.911739)">
      <path
         d="m 0,0 c -107.064,332.479 -415.843,454.527 -655.93,454.566 h -0.117 -0.155 c -240.049,-0.039 -552.096,-122.787 -659.044,-455.15 h -253.164 c 0,-137.148 4.126,-1365.645 912.208,-1365.645 h 0.155 0.078 c 913.336,0 908.51,1229.003 908.51,1366.112 z m -655.93,-1294.464 h -0.117 c -347.113,0 -592.376,196.305 -729.174,583.542 -84.297,238.648 -105.586,492.629 -110.334,638.573 h 232.576 l 16.035,49.737 c 96.245,299.127 378.403,405.374 590.819,405.452 h 2.258 c 210.898,-0.778 489.709,-107.259 585.643,-404.829 l 15.879,-49.66 232.226,-0.155 c -6.227,-234.912 -44.212,-461.3 -108.427,-643.943 -135.202,-384.086 -379.921,-578.717 -727.384,-578.717"
         style="fill:#00597d;fill-opacity:1;fill-rule:nonzero;stroke:none"
         id="path1508"
         inkscape:connector-curvature="0" />
    </g>
    <g
       id="g1510"
       transform="matrix(0.49767025,0,0,-0.49767025,-284.44404,326.79464)">
      <path
         d="m 0,0 h -496.248 c 3.269,-12.61 6.733,-25.297 10.352,-37.945 H 0 Z"
         style="fill:#00597d;fill-opacity:1;fill-rule:nonzero;stroke:none"
         id="path1512"
         inkscape:connector-curvature="0" />
    </g>
    <g
       id="g1514"
       transform="matrix(0.49767025,0,0,-0.49767025,-514.40632,383.40881)">
      <path
         d="M 0,0 H 462.078 V 37.906 H -12.454 C -8.484,25.297 -4.32,12.571 0,0"
         style="fill:#00597d;fill-opacity:1;fill-rule:nonzero;stroke:none"
         id="path1516"
         inkscape:connector-curvature="0" />
    </g>
    <g
       id="g1518"
       transform="matrix(0.49767025,0,0,-0.49767025,-500.20938,421.19676)">
      <path
         d="M 0,0 H 433.551 V 37.829 H -14.711 C -9.963,25.063 -5.059,12.259 0,0"
         style="fill:#00597d;fill-opacity:1;fill-rule:nonzero;stroke:none"
         id="path1520"
         inkscape:connector-curvature="0" />
    </g>
  </g>
</svg>
