<svg xmlns="http://www.w3.org/2000/svg" viewBox="0 0 46 46"><defs><style>.cls-1{fill:#011a32;}.cls-2{fill:#fff;}</style></defs><title>Asset 176</title><g id="Layer_2" data-name="Layer 2"><g id="CONTACT"><circle class="cls-1" cx="23" cy="23" r="23"/><path class="cls-2" d="M23.51,27.48c-.74-.55-1.6-.11-2.41-.28v2.32h2L23,30.79a3.27,3.27,0,0,1-.44,0c-3.16,0-6.31,0-9.47,0-.83,0-1.13-.26-1.14-1V17.42c0-.08,0-.17,0-.3H32.48v5.69a8.1,8.1,0,0,0-5.11.63c0-.58-.28-.66-.72-.64s-1.06,0-1.6,0a10.77,10.77,0,0,1-.26,2.6A9.75,9.75,0,0,1,23.51,27.48ZM13.33,21h2.24V18.73H13.33Zm6.14-2.24H17.23V21h2.24Zm1.63,0V21h2.26V18.73ZM27.26,21V18.73H25V21Zm1.66-2.28V21h2.25V18.72ZM13.34,22.83V25.1h2.22V22.83Zm3.88,0V25.1h2.22V22.85Zm3.87,0v2.27h2.26V22.84Zm-3.9,6.65h2.27V27.27H17.19Zm-3.86-2.24V29.5h2.24V27.25Z"/><path class="cls-2" d="M30.73,37.55a7.16,7.16,0,1,1,7.2-7.11A7.17,7.17,0,0,1,30.73,37.55Zm2.36-5.44-.42-.33a1.14,1.14,0,0,1-.58-1.32,1.1,1.1,0,0,0-.39-1c-.73-.38-.62-1-.62-1.57V26.83l-.62.05c0,.59,0,1.12,0,1.65a1.15,1.15,0,0,1-.37.7,1.37,1.37,0,0,0-.55,1.68,1.3,1.3,0,0,0,1.63.78.67.67,0,0,1,.78.22c.23.23.49.45.76.7ZM34.94,26,33.8,27l.33.31,1.06-1Zm-8.63,8.47.36.33,1-1-.38-.31Zm.09-8.18,1,1,.4-.22L26.7,26Zm7.42,7.49,1.06,1.06.33-.37-1-1.07Zm-7.57-3.09c-.05-.21-.08-.52-.14-.52a4.82,4.82,0,0,0-1.2,0c-.07,0-.1.34-.16.55Zm10.57,0c0-.21-.08-.52-.14-.52a6.53,6.53,0,0,0-1.25,0s-.06.31-.1.51ZM31.05,25.9V24.38l-.67.06C30.68,24.92,30.05,25.67,31.05,25.9Zm0,9.07c-1,0-.48.67-.57,1s.2.47.57.36Z"/><path class="cls-2" d="M31.75,12.17h3.07V23.71c-.52-.22-1-.4-1.51-.66-.12-.06-.15-.37-.15-.56,0-1.76,0-3.53,0-5.29v-.67H11.35V29.61c0,1.3.54,1.84,1.83,1.84h9.87l.44,1.71H12a2.08,2.08,0,0,1-2.37-2.32v-18c0-.19,0-.38,0-.61h3c0,.54,0,1.07,0,1.6a2,2,0,1,0,3.93,0c0-.52,0-1,0-1.59h1.15c0,.53,0,1.08,0,1.63a2,2,0,0,0,2,2.14,2,2,0,0,0,1.91-2.16V12.17h1.16c0,.6,0,1.2,0,1.79a1.94,1.94,0,1,0,3.88,0c0-.58,0-1.16,0-1.79h1.16c0,.59,0,1.19,0,1.78a2,2,0,0,0,1.95,2A1.93,1.93,0,0,0,31.74,14C31.76,13.43,31.75,12.83,31.75,12.17Z"/><path class="cls-2" d="M16,12.43c0,.51,0,1,0,1.54a1.39,1.39,0,0,1-1.33,1.38,1.35,1.35,0,0,1-1.36-1.29c0-1.07,0-2.14,0-3.22a1.35,1.35,0,0,1,2.69.1C16,11.44,16,11.93,16,12.43Z"/><path class="cls-2" d="M31.16,12.45c0,.49,0,1,0,1.48a1.34,1.34,0,1,1-2.67,0c0-1,0-2,0-3a1.28,1.28,0,0,1,1.27-1.4,1.32,1.32,0,0,1,1.4,1.36C31.18,11.42,31.16,11.94,31.16,12.45Z"/><path class="cls-2" d="M21.05,12.48c0,.51,0,1,0,1.54a1.37,1.37,0,0,1-1.25,1.33,1.28,1.28,0,0,1-1.38-1.09,29.8,29.8,0,0,1,0-3.66,1.24,1.24,0,0,1,1.45-1,1.32,1.32,0,0,1,1.17,1.32C21.06,11.41,21.05,11.94,21.05,12.48Z"/><path class="cls-2" d="M26.1,12.46c0,.51,0,1,0,1.54a1.33,1.33,0,1,1-2.65,0q0-1.57,0-3.15a1.33,1.33,0,1,1,2.65,0C26.11,11.43,26.1,11.94,26.1,12.46Z"/><path class="cls-2" d="M21.9,34.68H16.06c-.11-.35-.08-.54.34-.54h5.13C21.93,34.14,22,34.3,21.9,34.68Z"/><path class="cls-2" d="M24.57,35.58c.2,0,.44,0,.58.12.52.41,1,.86,1.53,1.34l-.34.46-1.86-1.61Z"/><path class="cls-2" d="M37.53,26.52,36.3,24.94l.42-.39L38,26.18Z"/><path class="cls-2" d="M15,34.69H13.31a2.23,2.23,0,0,1,0-.46,11.87,11.87,0,0,1,1.46,0C14.88,34.19,14.93,34.46,15,34.69Z"/><path class="cls-2" d="M23.48,34.39c.76-.58.66.28,1.05.41l-.51.43Z"/><path class="cls-2" d="M31.55,30.61c-.19.14-.44.45-.73.51a.64.64,0,0,1-.77-.71.68.68,0,0,1,.69-.75C31.23,29.64,31.47,29.93,31.55,30.61Z"/></g></g></svg>