<svg xmlns="http://www.w3.org/2000/svg" viewBox="0 0 46 46"><defs><style>.cls-1{fill:#011a32;}.cls-2{fill:#fff;}</style></defs><title>Asset 236</title><g id="Layer_2" data-name="Layer 2"><g id="_11" data-name="11"><circle class="cls-1" cx="23" cy="23" r="23"/><path class="cls-2" d="M35.9,26.19l-2-4a5.55,5.55,0,0,1-.4-1.28,8.7,8.7,0,0,0-8.32-7.16A7.44,7.44,0,0,0,23.94,12a7.24,7.24,0,0,0-10.26,0,7.12,7.12,0,0,0-2.13,5.12,7.28,7.28,0,0,0,2.13,5.14,6.84,6.84,0,0,0,2.61,1.65A9.94,9.94,0,0,0,18.74,29a4.45,4.45,0,0,1,1.08,3v2.84A1.32,1.32,0,0,0,21,36.23l7,.62h.11a1.31,1.31,0,0,0,1.34-1.34V33.13a.66.66,0,0,1,.65-.66h.66a2.9,2.9,0,0,0,2.89-2.89v-2h1.37a.89.89,0,0,0,.79-.46.87.87,0,0,0,.06-.91ZM13.17,17.13a5.61,5.61,0,1,1,10.57,2.61.78.78,0,0,0-.06.63l.82,2.47L22,22a.72.72,0,0,0-.25,0,.84.84,0,0,0-.37.08,5.6,5.6,0,0,1-6.6-1,5.48,5.48,0,0,1-1.64-4Z"/><path class="cls-2" d="M19.76,20.11a.85.85,0,1,1-1.71,0,.85.85,0,0,1,1.71,0"/><path class="cls-2" d="M19.76,15.23a.78.78,0,0,1-.06.82,1.41,1.41,0,0,1-.54.48,2,2,0,0,0-1,1.74.45.45,0,0,0,.11.31.49.49,0,0,0,.31.14h.57a.43.43,0,0,0,.43-.4.69.69,0,0,1,.37-.65,3.71,3.71,0,0,0,.88-.82A2.23,2.23,0,0,0,21,14.52a2.42,2.42,0,0,0-2.22-1.28,2.46,2.46,0,0,0-2.53,2.19.41.41,0,0,0,.12.34.48.48,0,0,0,.34.14h.57a.42.42,0,0,0,.42-.37,1,1,0,0,1,1.11-.88,1.15,1.15,0,0,1,.94.57Z"/></g></g></svg>