<svg xmlns="http://www.w3.org/2000/svg" viewBox="0 0 46 46"><defs><style>.cls-1{fill:#011a32;}.cls-2{fill:#fff;}</style></defs><title>Asset 175</title><g id="Layer_2" data-name="Layer 2"><g id="CONTACT"><circle class="cls-1" cx="23" cy="23" r="23"/><path class="cls-2" d="M23.21,39.17A15.79,15.79,0,1,1,39,23.41,15.81,15.81,0,0,1,23.21,39.17ZM38.3,23.39a15.11,15.11,0,1,0-15.12,15.1A15.11,15.11,0,0,0,38.3,23.39Z"/><path class="cls-2" d="M26,26.32v5.51c0,1.11.37,1.48,1.5,1.51.72,0,1,.53.78,1.22-.08.23-.25.17-.4.17H19.22c-.72,0-.36-.53-.41-.83s-.12-.65.42-.58a2.56,2.56,0,0,0,.78,0,1.13,1.13,0,0,0,1-1.21c0-3.15,0-6.3,0-9.45,0-.91-.43-1.27-1.49-1.32-.25,0-.64.14-.72-.1a3.27,3.27,0,0,1,0-1.21c0-.21.27-.13.42-.13,2.1,0,4.2,0,6.3,0,.48,0,.47.23.46.56Z"/><path class="cls-2" d="M23.17,18.19a3.14,3.14,0,1,1,3.15-3.08A3.1,3.1,0,0,1,23.17,18.19Z"/></g></g></svg>