<svg xmlns="http://www.w3.org/2000/svg" viewBox="0 0 46 46"><defs><style>.cls-1{fill:#011a32;}.cls-2{fill:#fff;}</style></defs><title>Asset 178</title><g id="Layer_2" data-name="Layer 2"><g id="CONTACT"><circle class="cls-1" cx="23" cy="23" r="23"/><path class="cls-2" d="M31.89,37.57l-.21,0a1.31,1.31,0,0,0-1.73.79.82.82,0,0,1-1.25.47,1.22,1.22,0,0,0-1.66.46.86.86,0,0,1-1.38.27,1.24,1.24,0,0,0-1.77.2.8.8,0,0,1-1.29,0,1.32,1.32,0,0,0-1.9-.14.69.69,0,0,1-1.1-.17,1.46,1.46,0,0,0-2-.56.62.62,0,0,1-.93-.34,1.48,1.48,0,0,0-2-1c-.43.12-.68-.11-.78-.52a1.53,1.53,0,0,0-1.78-1.31.55.55,0,0,1-.65-.59,1.56,1.56,0,0,0-1.53-1.68c-.51-.06-.6-.43-.54-.84a1.44,1.44,0,0,0-1.07-1.73c-.45-.15-.67-.42-.5-.92a1.45,1.45,0,0,0-.73-2,.64.64,0,0,1-.31-1,1.49,1.49,0,0,0-.39-2.11.6.6,0,0,1-.1-1,1.48,1.48,0,0,0,0-2.15.63.63,0,0,1,.12-1,1.45,1.45,0,0,0,.36-2.05.65.65,0,0,1,.3-1,1.47,1.47,0,0,0,.73-2,.59.59,0,0,1,.42-.83A1.49,1.49,0,0,0,9.39,13c-.08-.48.18-.75.66-.82a1.42,1.42,0,0,0,1.37-1.49c0-.58.35-.78.89-.77A1.27,1.27,0,0,0,13.8,8.87a.8.8,0,0,1,1.14-.69,1.23,1.23,0,0,0,1.59-.8.82.82,0,0,1,1.24-.48,1.22,1.22,0,0,0,1.67-.46.86.86,0,0,1,1.38-.27A1.24,1.24,0,0,0,22.59,6a.8.8,0,0,1,1.29,0,1.33,1.33,0,0,0,1.9.14.69.69,0,0,1,1.1.17,1.46,1.46,0,0,0,2,.56.63.63,0,0,1,.93.35,1.49,1.49,0,0,0,2,1,.54.54,0,0,1,.75.45A1.58,1.58,0,0,0,34.37,10a.55.55,0,0,1,.65.58,1.57,1.57,0,0,0,1.53,1.69c.51.06.59.44.54.84a1.43,1.43,0,0,0,1.08,1.72.69.69,0,0,1,.47,1,1.37,1.37,0,0,0,.7,1.84.72.72,0,0,1,.34,1.11A1.33,1.33,0,0,0,40,20.68a.75.75,0,0,1,.11,1.22,1.32,1.32,0,0,0,0,1.9A.75.75,0,0,1,40,25a1.3,1.3,0,0,0-.36,1.86A.74.74,0,0,1,39.34,28,1.4,1.4,0,0,0,38.65,30a.62.62,0,0,1-.42.9,1.49,1.49,0,0,0-1.14,1.82.67.67,0,0,1-.67.82A1.41,1.41,0,0,0,35.05,35c0,.59-.35.78-.88.76a1.32,1.32,0,0,0-1.51,1.08C32.57,37.18,32.49,37.68,31.89,37.57ZM22,23.34c1-.41.88-1.24.85-2s-.34-1.25-1.11-1.34c-1.21-.13-2.42-.14-3.68-.21v6.05h1.63V24.09c.47.05,1.09-.06,1.22.15a5.4,5.4,0,0,1,.45,1.58h1.5C22.73,24.91,23.23,23.88,22,23.34Zm3.6,1.15V23.4h2.7V22.17H25.59v-.94h2.76V19.87H23.92v5.94h4.52V24.49Zm5.63-2.3v-1H34V19.87h-4.4V25.8h4.51V24.46H31.2V23.38h2.73V22.19ZM17,19.87H13v5.95h1.64V23.67h2.21V22.31H14.69V21.23H17Z"/><path class="cls-2" d="M19.71,21.18a4.63,4.63,0,0,1,1.34.31,1,1,0,0,1,0,.94,4.39,4.39,0,0,1-1.35.4Z"/></g></g></svg>