<svg xmlns="http://www.w3.org/2000/svg" viewBox="0 0 46 46"><defs><style>.cls-1{fill:#011a32;}.cls-2{fill:#fff;}</style></defs><title>Asset 235</title><g id="Layer_2" data-name="Layer 2"><g id="CONTACT"><circle class="cls-1" cx="23" cy="23" r="23"/><path class="cls-2" d="M37,22.14a5.48,5.48,0,0,1-1.06.63c-.75.26-1.54.43-2.32.62a.92.92,0,0,1-1.2-.57c-.16-.56.13-1,.77-1.19l1.12-.32s0,0,.06-.1L33.31,20a4.56,4.56,0,0,1,0,.67,1.41,1.41,0,0,1-.21.38c-.11-.09-.27-.15-.33-.27-.58-1.11-.58-1.12-1.78-.61-1.48.63-1.29.43-.71,1.81.25.61.53,1.21.76,1.82.16.41.41.58.8.34A1.24,1.24,0,0,1,32.94,24a3.51,3.51,0,0,0,1,0c.2,1,.4,2,.6,3,0,.08,0,.16,0,.24.21,1,.17,1.09-.84,1.19-.06,0-.11,0-.24.08v6a4.24,4.24,0,0,1,0,.62,1.09,1.09,0,1,1-2.17-.12c0-2,0-4,0-6.06,0-.27.11-.65-.48-.52V35c0,.85-.5,1.34-1.24,1.27s-1-.52-1-1.28c0-1.92,0-3.84,0-5.76v-.65c-1.27-.26-1.26-.26-1-1.55.34-1.79.68-3.59.92-5.42-.21.58-.43,1.16-.64,1.73-.33.89-.64,1.79-1,2.67a.91.91,0,0,1-1.15.66.93.93,0,0,1-.57-1.26c.76-2.15,1.52-4.3,2.33-6.43a2.08,2.08,0,0,1,2.21-1.45c.89,0,1.78,0,2.66,0a2.44,2.44,0,0,1,2.07.91c.87,1,1.72,2,2.58,3.07Z"/><path class="cls-2" d="M22.47,19.67c.56-.37,1.08-.73,1.62-1.07a.95.95,0,1,1,1,1.56c-.73.51-1.46,1-2.21,1.48a.92.92,0,0,1-1.45-.23c-.58-.68-1.14-1.39-1.79-2.2,0,.35,0,.56,0,.78V34.73a2.63,2.63,0,0,1-.09.79,1.11,1.11,0,0,1-2.14-.15,5,5,0,0,1,0-.67V26.64c0-.27.07-.63-.52-.47v.69c0,2.68,0,5.37,0,8,0,.85-.32,1.29-1,1.37-.79.09-1.3-.41-1.31-1.33,0-2,0-3.93,0-5.89,0-3.12,0-6.23,0-9.35a.86.86,0,0,0-.44-.86c-1.06-.67-2.11-1.37-3.13-2.1a1.82,1.82,0,0,1-.61-.81c-.44-1.13-.82-2.28-1.21-3.43-.23-.67,0-1.21.5-1.39s1,.08,1.26.77c.33.93.65,1.86,1,2.79,0,.14,0,.33.15.41,1,.77,1.87,1.8,3.19,1.94a34,34,0,0,0,3.78,0,2.43,2.43,0,0,1,2.07,1C21.58,18.61,22,19.12,22.47,19.67Z"/><path class="cls-2" d="M31,16.83a2,2,0,0,1-2-2,2,2,0,1,1,2,2Z"/><path class="cls-2" d="M15.17,14.49a1.89,1.89,0,0,1,1.89-1.94,1.91,1.91,0,0,1,2,1.92,1.94,1.94,0,1,1-3.87,0Z"/><path class="cls-2" d="M25.79,15l.33-.77A1.56,1.56,0,0,1,27,16c-.24.78-.49,1.57-.76,2.42-1.12-1.31-2.19-.77-3.37.16.42-1.36.78-2.55,1.19-3.72,0-.14.39-.27.58-.24A8.31,8.31,0,0,1,25.79,15Z"/></g></g></svg>