<?xml version="1.0" encoding="utf-8"?>
<!-- Svg Vector Icons : http://www.onlinewebfonts.com/icon -->
<!DOCTYPE svg PUBLIC "-//W3C//DTD SVG 1.1//EN" "http://www.w3.org/Graphics/SVG/1.1/DTD/svg11.dtd">
<svg version="1.1" xmlns="http://www.w3.org/2000/svg" xmlns:xlink="http://www.w3.org/1999/xlink" x="0px" y="0px" viewBox="0 0 1000 1000" enable-background="new 0 0 1000 1000" xml:space="preserve">
<metadata> Svg Vector Icons : http://www.onlinewebfonts.com/icon </metadata>
<g><g transform="translate(0.000000,511.000000) scale(0.100000,-0.100000)" style="fill: #00597d;stroke: #00597d;"><path d="M1063.8,4525.2c-354.3-75.3-673.9-321.7-828.7-641.3c-46.8-93.7-95.7-224-107.9-289.1c-14.3-71.3-24.4-344.1-24.4-696.3v-578.2l61.1-77.4c34.6-42.7,171-185.3,303.4-315.6L707.5,1687l1435.4,1435.4l1435.4,1435.4l-1191.1-2C1448.6,4555.7,1167.6,4547.6,1063.8,4525.2z"/><path d="M5543,3651.8l906-906l899.9,899.9c496.8,496.8,901.9,904,901.9,906c0,4.1-812.4,6.1-1805.9,6.1H4637L5543,3651.8z"/><path d="M8092,3350.4L6986.5,2244.9l130.3-105.9c167-134.4,388.9-368.5,531.4-557.9c61.1-81.4,592.5-629.1,1180.9-1217.5L9900-705.3v2101.2c0,1437.4-6.1,2135.8-22.4,2209.1c-40.7,203.6-171,435.7-331.9,594.5c-79.4,79.4-191.4,169-246.3,199.5l-103.8,55L8092,3350.4z"/><path d="M2666.1,2607.3L1226.7,1167.8l447.9-447.9c244.3-244.3,450-441.8,454-437.7c4.1,6.1,28.5,97.7,55,203.6C2387.2,1347,2998,2110.5,3802.2,2509.6c417.4,207.7,755.4,293.2,1227.7,315.6l289.1,12.2l-604.7,604.7l-606.7,606.7L2666.1,2607.3z"/><path d="M4698,2155.3c-1007.8-211.7-1748.9-973.2-1936.2-1985.1c-48.9-270.8-30.5-743.1,40.7-1013.9c236.2-908.1,961-1598.3,1885.3-1797.8c264.7-57,761.5-50.9,1018,12.2c260.6,63.1,466.3,142.5,678,264.7c97.7,57,179.2,101.8,183.2,101.8c2,0,454-449.9,1001.7-997.6c655.6-655.6,1026.2-1011.9,1081.1-1038.4c154.7-75.3,319.7-40.7,462.2,97.7c150.7,144.6,193.4,305.4,126.2,468.3c-22.4,50.9-346.1,388.9-1040.4,1085.2L7188-1637.8l103.8,179.2c124.2,215.8,203.6,421.5,266.7,682.1c40.7,160.8,48.9,250.4,48.9,519.2c2,468.3-63.1,739.1-274.9,1150.3c-130.3,252.5-258.6,421.5-492.7,643.4c-307.5,291.1-653.6,482.5-1066.9,592.5C5496.1,2200.1,4972.9,2214.3,4698,2155.3z M5600,1524.1c633.2-148.6,1146.3-647.4,1329.5-1292.9c52.9-187.3,73.3-551.8,40.7-753.3c-65.1-401.1-248.4-745.2-543.6-1030.2c-384.8-366.5-826.6-529.4-1358-500.9c-378.7,20.4-686.1,132.3-989.5,362.4c-464.2,348.2-720.7,865.3-720.7,1443.5c0,482.5,158.8,887.7,482.5,1235.9C4299,1481.4,4944.4,1676.8,5600,1524.1z"/><path d="M100.8-277.7c2-1305.1,8.1-1533.1,36.6-1643.1c63.1-254.5,205.6-478.5,409.2-647.4c103.8-85.5,311.5-203.6,356.3-203.6c16.3,0,340,309.5,718.7,690.2l688.2,690.2l-52.9,158.8c-28.5,89.6-67.2,226-83.5,303.4l-32.6,142.5L1129,227.2C573.1,783,113,1239.1,106.9,1239.1S98.7,557,100.8-277.7z"/><path d="M8250.8-277.7c0-333.9-83.5-763.5-211.7-1083.2l-67.2-167l608.8-606.7l606.7-606.7l116.1,61.1c158.8,83.5,366.5,295.2,458.1,470.3c79.4,150.7,138.4,329.8,138.4,413.3c0,42.8-167,219.9-824.6,877.5L8250.8-94.5V-277.7z"/><path d="M2295.6-2466.4l-386.8-386.8h802.2c441.8,0,798.1,4.1,794,8.2c-4.1,4.1-85.5,65.1-181.2,136.4c-179.2,130.3-486.6,429.6-572.1,555.8c-26.5,40.7-52.9,73.3-59,73.3S2507.3-2252.6,2295.6-2466.4z"/></g></g>
</svg>