<?xml version="1.0" encoding="utf-8"?>
<!-- Svg Vector Icons : http://www.onlinewebfonts.com/icon -->
<!DOCTYPE svg PUBLIC "-//W3C//DTD SVG 1.1//EN" "http://www.w3.org/Graphics/SVG/1.1/DTD/svg11.dtd">
<svg version="1.1" xmlns="http://www.w3.org/2000/svg" xmlns:xlink="http://www.w3.org/1999/xlink" x="0px" y="0px" viewBox="0 0 1000 1000" enable-background="new 0 0 1000 1000" xml:space="preserve">
<metadata> Svg Vector Icons : http://www.onlinewebfonts.com/icon </metadata>
<g style="fill: #00597d;stroke: #00597d;"><path d="M87.4,10h51.6v980H87.4V10z M190.5,990V10h722.1v980H190.5z M759.8,665.9L696.7,578c-3.2-4.3-7.2-7.4-12.1-9.2c-4.9-1.8-9.7-2.2-14.6-1.2l-10,4.5l-39.6,29.5l-11.6,5.3c-5.8,1.2-11.6,0.9-17.2-1c-5.6-1.9-10.5-5.7-14.6-11.5L470.1,445.3l-5.3-12.2c-1.3-6-0.9-11.8,1.1-17.6c2-5.8,5.6-10.7,10.8-14.5l39.6-29.5c4.4-3.2,7.4-7.3,9.1-12.2c1.7-4.9,2-10,0.9-15.2l-4.5-10l-63.2-87.8c-3.2-4.4-7.1-7.5-12-9.3c-4.8-1.8-9.7-2.2-14.7-1.2l-10,4.5L402,255c-12.3,9.1-22.4,19.5-30.3,31.5c-7.9,11.9-13.7,24.8-17.6,38.6c-3.8,13.8-5.8,28.3-5.9,43.4c-0.1,15.1,1.6,30.5,4.9,46.1l10.3,35.7l15.9,35.1l10.6,22.7l16.1,28l25.9,38.6l30,39.6l25.4,30.1l24.2,25.8c12.2,13.7,25.4,25.7,39.4,36c14,10.3,28.4,18.6,43.2,24.8c14.8,6.2,29.8,10.2,44.9,12c15.1,1.8,29.9,1.2,44.4-1.9l26.1-8.4l24.5-14.3l20.2-15.3c4.3-3.3,7.3-7.4,9.1-12.3c1.7-4.9,2.1-9.8,1-14.8L759.8,665.9z"/></g>
</svg>