<svg width="72.6mm" height="72.6mm" version="1.1" viewBox="0 0 72.6 72.6" xmlns="http://www.w3.org/2000/svg"><path d="m36.33 18.6c9.763 0 17.7 7.911 17.7 17.7 0 9.763-7.911 17.7-17.7 17.7-9.763 0-17.7-7.911-17.7-17.7 0-9.763 7.938-17.7 17.7-17.7m0-0.3704c9.975 0 18.07 8.096 18.07 18.07s-8.096 18.07-18.07 18.07c-9.975 0-18.07-8.096-18.07-18.07s8.096-18.07 18.07-18.07z" style="clip-rule:evenodd;fill-opacity:.9412;fill-rule:evenodd;fill:#f5f9ff;stroke-width:.2646"/><path d="m36.33 17.6c10.35 0 18.71 8.387 18.71 18.71 0 10.35-8.387 18.71-18.71 18.71-10.35 0-18.71-8.387-18.71-18.71 0-10.35 8.361-18.71 18.71-18.71m0-0.3969c10.56 0 19.1 8.546 19.1 19.1 0 10.56-8.546 19.1-19.1 19.1-10.56 0-19.1-8.546-19.1-19.1 0-10.56 8.546-19.1 19.1-19.1z" style="clip-rule:evenodd;fill-rule:evenodd;fill:#110b2c;stroke-width:.2646"/><path d="m36.33 9.5c14.84 0 26.88 12.04 26.88 26.88s-12.04 26.88-26.88 26.88-26.88-12.04-26.88-26.88 12.04-26.88 26.88-26.88m0-1.111c15.48 0 27.99 12.54 27.99 27.99 0 15.48-12.54 27.99-27.99 27.99-15.48 0-27.99-12.54-27.99-27.99 0-15.48 12.54-27.99 27.99-27.99z" style="clip-rule:evenodd;fill-rule:evenodd;fill:#110b2c;stroke-width:.2646"/><polygon id="XMLID_216_" transform="matrix(.2646 0 0 .2646 -40.91 -148.9)" points="291.4 567.8 291.4 698.8 276.1 670.2" style="clip-rule:evenodd;fill-opacity:.9412;fill-rule:evenodd;fill:#f5f9ff"/><path d="m36.13 2.7v32.94l-3.863-7.17zm0.1852-2.619-4.26 28.44 4.26 7.911z" style="clip-rule:evenodd;fill-opacity:.9412;fill-rule:evenodd;fill:#f5f9ff;stroke-width:.2646"/><polygon id="XMLID_213_" transform="matrix(.2646 0 0 .2646 -40.91 -148.9)" points="291.8 562.9 291.8 700.3 307.9 670.4" style="clip-rule:evenodd;fill-rule:evenodd;fill:#110b2c"/><polygon id="XMLID_212_" transform="matrix(.2646 0 0 .2646 -40.91 -148.9)" points="291.8 699.9 275.7 729.8 291.8 837.3" style="clip-rule:evenodd;fill-rule:evenodd;fill:#110b2c"/><polygon id="XMLID_211_" transform="matrix(.2646 0 0 .2646 -40.91 -148.9)" points="292.2 832.3 292.2 701.4 307.5 729.9" style="clip-rule:evenodd;fill-opacity:.9412;fill-rule:evenodd;fill:#f5f9ff"/><path d="m36.53 37 3.863 7.17-3.863 25.8zm-0.2117-0.7673v36.35l4.26-28.44z" style="clip-rule:evenodd;fill-opacity:.9412;fill-rule:evenodd;fill:#f5f9ff;stroke-width:.2646"/><polygon id="XMLID_208_" transform="matrix(.2646 0 0 .2646 -40.91 -148.9)" points="321.7 684.3 424.1 699.7 293.1 699.7" style="clip-rule:evenodd;fill-opacity:.9412;fill-rule:evenodd;fill:#f5f9ff"/><path d="m44.23 32.3 25.8 3.863h-32.97zm-0.0265-0.2117-7.911 4.26h36.35z" style="clip-rule:evenodd;fill-opacity:.9412;fill-rule:evenodd;fill:#f5f9ff;stroke-width:.2646"/><polygon id="XMLID_205_" transform="matrix(.2646 0 0 .2646 -40.91 -148.9)" points="429 700.1 291.6 700.1 321.5 716.2" style="clip-rule:evenodd;fill-rule:evenodd;fill:#110b2c"/><polygon id="XMLID_204_" transform="matrix(.2646 0 0 .2646 -40.91 -148.9)" points="292 700.1 262.1 684 154.6 700.1" style="clip-rule:evenodd;fill-rule:evenodd;fill:#110b2c"/><polygon id="XMLID_203_" transform="matrix(.2646 0 0 .2646 -40.91 -148.9)" points="262.1 715.8 159.6 700.5 290.5 700.5" style="clip-rule:evenodd;fill-opacity:.9412;fill-rule:evenodd;fill:#f5f9ff"/><path d="m35.63 36.5-7.17 3.863-25.8-3.863zm0.7673-0.1852h-36.35l28.44 4.26z" style="clip-rule:evenodd;fill-opacity:.9412;fill-rule:evenodd;fill:#f5f9ff;stroke-width:.2646"/><polygon id="XMLID_200_" transform="matrix(.2646 0 0 .2646 -40.91 -148.9)" points="358.4 632.9 293.2 698.1 308.2 670.6" style="clip-rule:evenodd;fill-opacity:.9412;fill-rule:evenodd;fill:#f5f9ff"/><path d="m52.93 19.5-15.8 15.8 3.625-6.668zm2.064-1.826-14.42 10.82-4.286 7.885z" style="clip-rule:evenodd;fill-opacity:.9412;fill-rule:evenodd;fill:#f5f9ff"/><polygon id="XMLID_197_" transform="matrix(.2646 0 0 .2646 -40.91 -148.9)" points="362.4 629.5 291.7 700.2 321.5 684" style="clip-rule:evenodd;fill-rule:evenodd;fill:#110b2c"/><polygon id="XMLID_196_" transform="matrix(.2646 0 0 .2646 -40.91 -148.9)" points="291.9 700 262.1 716.2 221.3 770.6" style="clip-rule:evenodd;fill-rule:evenodd;fill:#110b2c"/><polygon id="XMLID_195_" transform="matrix(.2646 0 0 .2646 -40.91 -148.9)" points="225.2 767.2 290.4 702.1 275.4 729.6" style="clip-rule:evenodd;fill-opacity:.9412;fill-rule:evenodd;fill:#f5f9ff"/><path d="m35.53 37.4-3.625 6.668-12.17 9.128zm0.8202-1.085-18.68 18.68 14.42-10.82z" style="clip-rule:evenodd;fill-opacity:.9412;fill-rule:evenodd;fill:#f5f9ff;stroke-width:.2646"/><polygon id="XMLID_192_" transform="matrix(.2646 0 0 .2646 -40.91 -148.9)" points="291.9 700.2 275.7 670.4 221.3 629.5" style="clip-rule:evenodd;fill-rule:evenodd;fill:#110b2c"/><polygon id="XMLID_191_" transform="matrix(.2646 0 0 .2646 -40.91 -148.9)" points="289.8 698.6 262.3 683.7 224.7 633.5" style="clip-rule:evenodd;fill-opacity:.9412;fill-rule:evenodd;fill:#f5f9ff"/><path d="m19.45 19.7 15.8 15.8-6.668-3.625zm-1.799-2.09 10.82 14.42 7.885 4.286z" style="clip-rule:evenodd;fill-opacity:.9412;fill-rule:evenodd;fill:#f5f9ff;stroke-width:.2646"/><polygon id="XMLID_188_" transform="matrix(.2646 0 0 .2646 -40.91 -148.9)" points="321.3 716.5 359 766.7 293.8 701.5" style="clip-rule:evenodd;fill-opacity:.9412;fill-rule:evenodd;fill:#f5f9ff"/><path d="m37.33 37.1 6.668 3.625 9.128 12.17zm-1.085-0.8202 18.68 18.68-10.82-14.42z" style="clip-rule:evenodd;fill-opacity:.9412;fill-rule:evenodd;fill:#f5f9ff;stroke-width:.2646"/><polygon id="XMLID_185_" transform="matrix(.2646 0 0 .2646 -40.91 -148.9)" points="362.3 770.6 291.7 700 307.9 729.8" style="clip-rule:evenodd;fill-rule:evenodd;fill:#110b2c"/></svg>
