<?xml version="1.0" encoding="UTF-8" standalone="no"?>
<!-- Created with Inkscape (http://www.inkscape.org/) -->

<svg
   xmlns:dc="http://purl.org/dc/elements/1.1/"
   xmlns:cc="http://creativecommons.org/ns#"
   xmlns:rdf="http://www.w3.org/1999/02/22-rdf-syntax-ns#"
   xmlns:svg="http://www.w3.org/2000/svg"
   xmlns="http://www.w3.org/2000/svg"
   xmlns:sodipodi="http://sodipodi.sourceforge.net/DTD/sodipodi-0.dtd"
   xmlns:inkscape="http://www.inkscape.org/namespaces/inkscape"
   width="296.99973mm"
   height="210.00156mm"
   viewBox="0 0 296.99973 210.00156"
   version="1.1"
   id="svg1811"
   enable-background="new"
   inkscape:version="0.92.3 (2405546, 2018-03-11)"
   sodipodi:docname="streetmap2.svg">
  <defs
     id="defs1805">
    <clipPath
       id="clipPath833"
       clipPathUnits="userSpaceOnUse">
      <path
         inkscape:connector-curvature="0"
         id="path831"
         d="M 0,595.28 V 459.9 0 h 387.093 304.483 150.313 v 595.28 z" />
    </clipPath>
    <clipPath
       id="clipPath915"
       clipPathUnits="userSpaceOnUse">
      <path
         inkscape:connector-curvature="0"
         id="path913"
         d="M 0,0 H 841.889 V 595.28 H 0 Z" />
    </clipPath>
    <filter
       inkscape:collect="always"
       style="color-interpolation-filters:sRGB"
       id="filter3413">
      <feBlend
         inkscape:collect="always"
         mode="overlay"
         in2="BackgroundImage"
         id="feBlend3415" />
    </filter>
  </defs>
  <sodipodi:namedview
     id="base"
     pagecolor="#ffffff"
     bordercolor="#666666"
     borderopacity="1.0"
     inkscape:pageopacity="0.0"
     inkscape:pageshadow="2"
     inkscape:zoom="0.7"
     inkscape:cx="617.46111"
     inkscape:cy="244.91294"
     inkscape:document-units="mm"
     inkscape:current-layer="layer1"
     showgrid="false"
     inkscape:window-width="1366"
     inkscape:window-height="749"
     inkscape:window-x="-4"
     inkscape:window-y="-4"
     inkscape:window-maximized="1" />
  <metadata
     id="metadata1808">
    <rdf:RDF>
      <cc:Work
         rdf:about="">
        <dc:format>image/svg+xml</dc:format>
        <dc:type
           rdf:resource="http://purl.org/dc/dcmitype/StillImage" />
        <dc:title></dc:title>
      </cc:Work>
    </rdf:RDF>
  </metadata>
  <g
     inkscape:label="Layer 1"
     inkscape:groupmode="layer"
     id="layer1"
     transform="translate(44.934386,23.447201)"
     style="filter:url(#filter3413)">
    <rect
       style="opacity:1;fill:#030609;fill-opacity:1;stroke:none;stroke-width:0.26499999;stroke-linecap:round;stroke-linejoin:round;stroke-miterlimit:4;stroke-dasharray:none;stroke-dashoffset:0;stroke-opacity:1;paint-order:normal"
       id="rect3192"
       width="300"
       height="210"
       x="-44.934387"
       y="-23.445644" />
    <g
       id="g909"
       transform="matrix(0.35277777,0,0,-0.35277777,-44.934386,186.55435)">
      <g
         transform="translate(192.1016,273.9102)"
         id="g917">
        <path
           inkscape:connector-curvature="0"
           id="path919"
           style="fill:#478c0b;fill-opacity:1;fill-rule:nonzero;stroke:none"
           d="m 0,0 c -44.998,-13.499 -17.999,-35.998 -3,-61.497 12,-19.499 -6,-64.497 16.499,-65.997 15,-1.5 56.997,37.498 62.997,50.998 9,20.999 -4.5,32.998 -11.999,52.497" />
      </g>
      <g
         transform="translate(90.1064,-3.5762)"
         id="g921">
        <path
           inkscape:connector-curvature="0"
           id="path923"
           style="fill:#7ac5ff;fill-opacity:1;fill-rule:nonzero;stroke:none"
           d="m 0,0 c 12,17.999 20.999,38.998 43.498,46.498 23.999,10.499 43.498,-9 68.997,-6 17.999,3 37.498,20.999 49.497,-4.5 4.5,-11.999 -3,-35.998 -7.5,-46.497" />
      </g>
      <g
         transform="translate(-2.8887,327.9072)"
         id="g925">
        <path
           inkscape:connector-curvature="0"
           id="path927"
           style="fill:#4fab43;fill-opacity:1;fill-rule:nonzero;stroke:none"
           d="m 0,0 c 14.999,-6 17.999,-3 28.499,-13.499 5.999,-4.5 0,-16.5 8.999,-17.999 10.5,0 14.999,20.998 17.999,26.998 26.999,49.498 49.498,18 88.496,9 73.496,-16.499 47.997,148.493 -9,161.992 -23.999,6 -50.997,-16.499 -76.496,-17.999 -26.999,-1.5 -53.997,3 -77.996,14.999" />
      </g>
      <g
         transform="translate(853.5684,45.9219)"
         id="g929">
        <path
           inkscape:connector-curvature="0"
           id="path931"
           style="fill:#2789ff;fill-opacity:1;fill-rule:nonzero;stroke:none"
           d="m 0,0 c -23.999,-4.5 -55.497,14.999 -82.496,16.499 -20.999,1.5 -86.995,4.5 -103.494,-11.999 -12,-9 -7.5,-34.498 -7.5,-47.998 1.5,-22.498 0,-25.498 23.999,-26.998 34.498,-3 73.496,-1.5 107.994,0 17.999,1.5 44.998,3 58.497,5.999" />
      </g>
      <g
         transform="translate(273.8525,-30.7783)"
         id="g933">
        <path
           inkscape:connector-curvature="0"
           id="path935"
           style="fill:#ffffff;fill-opacity:1;fill-rule:nonzero;stroke:none"
           d="m 0,0 h -7 v 141.926 l 50.353,29.371 42.757,-18.862 43.239,109.95 -86.065,41.162 -34.954,-10.485 12.916,-73.618 -101.709,-74.219 -43.109,76.787 -148.55,49.074 16.988,48.35 -29.262,9.363 2.134,6.667 36.119,-11.558 -17.01,-48.413 144.355,-47.688 40.578,-72.28 91.818,67.001 -13.238,75.451 43.504,13.05 94.385,-45.14 L 89.956,143.087 43.795,163.451 0,137.904 Z" />
      </g>
      <g
         transform="translate(176.5908,154.4092)"
         id="g937">
        <path
           inkscape:connector-curvature="0"
           id="path939"
           style="fill:#ffffff;fill-opacity:1;fill-rule:nonzero;stroke:none"
           d="m 0,0 -6.002,3.602 10.821,18.036 -41.244,90.47 33.175,14.597 -2.649,9.716 -97.183,34.887 -39.234,-91.127 -6.43,2.767 41.837,97.171 106.805,-38.341 5.195,-19.051 -32.204,-14.169 39.828,-87.366 z" />
      </g>
      <g
         transform="translate(143.6255,261.4531)"
         id="g941">
        <path
           inkscape:connector-curvature="0"
           id="path943"
           style="fill:#ffffff;fill-opacity:1;fill-rule:nonzero;stroke:none"
           d="M 0,0 -86.302,31.382 -83.91,37.96 2.393,6.578 Z" />
      </g>
      <g
         transform="translate(25.6187,-38.5518)"
         id="g945">
        <path
           inkscape:connector-curvature="0"
           id="path947"
           style="fill:#ffffff;fill-opacity:1;fill-rule:nonzero;stroke:none"
           d="m 0,0 -4.809,5.086 142.049,134.301 -9.015,20.605 22.243,27.803 5.466,-4.373 -19.601,-24.5 9.292,-21.24 z" />
      </g>
      <g
         transform="translate(130.0825,107.124)"
         id="g949">
        <path
           inkscape:connector-curvature="0"
           id="path951"
           style="fill:#ffffff;fill-opacity:1;fill-rule:nonzero;stroke:none"
           d="m 0,0 -47.218,18.277 28.579,81.655 6.607,-2.313 -26.341,-75.26 33.853,-13.103 23.754,78.762 6.702,-2.022 z" />
      </g>
      <g
         transform="translate(29.3784,10.1973)"
         id="g953">
        <path
           inkscape:connector-curvature="0"
           id="path955"
           style="fill:#ffffff;fill-opacity:1;fill-rule:nonzero;stroke:none"
           d="m 0,0 -63.787,27.733 2.791,6.42 56.514,-24.571 39.885,135.861 -79.685,37.946 3.01,6.32 85.073,-40.512 z" />
      </g>
      <g
         transform="translate(439.2549,-51.1338)"
         id="g957">
        <path
           inkscape:connector-curvature="0"
           id="path959"
           style="fill:#ffffff;fill-opacity:1;fill-rule:nonzero;stroke:none"
           d="m 0,0 -5.674,4.098 50.086,69.35 -10.99,51.29 -83.913,21.947 -55.819,61.265 40.1,94.904 6.448,-2.724 -38.357,-90.777 51.406,-56.42 86.076,-22.513 12.545,-58.548 z" />
      </g>
      <g
         transform="translate(563.9707,-41.0137)"
         id="g961">
        <path
           inkscape:connector-curvature="0"
           id="path963"
           style="fill:#ffffff;fill-opacity:1;fill-rule:nonzero;stroke:none"
           d="m 0,0 -6.658,2.164 34.71,106.799 220.653,20.536 0.649,-6.971 L 33.286,102.42 Z" />
      </g>
      <g
         transform="translate(612.2588,-50.4199)"
         id="g965">
        <path
           inkscape:connector-curvature="0"
           id="path967"
           style="fill:#ffffff;fill-opacity:1;fill-rule:nonzero;stroke:none"
           d="m 0,0 -6.471,2.67 33.76,81.802 1.284,33.376 6.994,-0.27 -1.331,-34.622 z" />
      </g>
      <g
         transform="translate(363.6714,-48.4004)"
         id="g969">
        <path
           inkscape:connector-curvature="0"
           id="path971"
           style="fill:#ffffff;fill-opacity:1;fill-rule:nonzero;stroke:none"
           d="m 0,0 -23.167,128.097 37.292,-8.286 21.244,69.041 79.927,-44.551 32.683,91.76 0.095,0.19 c 7.199,14.397 21.146,15.19 27.515,13.599 l 0.479,-0.158 80.536,-33.006 0.546,-0.63 c 15.037,-17.351 3.99,-38.833 -3.951,-47.768 l -1.443,-1.623 -13.359,3.643 -11.844,-32.898 -44.283,15.271 3.953,14.494 -48.044,18.477 2.514,6.534 53.948,-20.749 -3.892,-14.276 31.558,-10.882 11.693,32.484 15.303,-4.173 c 4.01,5.263 14.784,21.929 3.079,36.262 l -78.694,32.251 c -1.719,0.35 -13.154,2.161 -19.26,-9.798 l -35.313,-99.147 -79.6,44.367 -20.6,-66.949 -33.319,7.403 L 6.889,1.246 Z" />
      </g>
      <g
         transform="translate(512.9521,-46.3086)"
         id="g973">
        <path
           inkscape:connector-curvature="0"
           id="path975"
           style="fill:#ffffff;fill-opacity:1;fill-rule:nonzero;stroke:none"
           d="m 0,0 -6.613,2.293 33.078,95.421 -44.711,27.614 24.838,53.813 6.355,-2.934 -22.238,-48.182 44.207,-27.303 z" />
      </g>
      <g
         transform="translate(401.7354,-46.4922)"
         id="g977">
        <path
           inkscape:connector-curvature="0"
           id="path979"
           style="fill:#ffffff;fill-opacity:1;fill-rule:nonzero;stroke:none"
           d="m 0,0 -6.475,2.66 40.259,97.966 49.762,-6.911 -0.963,-6.934 -44.387,6.165 z" />
      </g>
      <g
         transform="translate(237.4023,49.29)"
         id="g981">
        <path
           inkscape:connector-curvature="0"
           id="path983"
           style="fill:#ffffff;fill-opacity:1;fill-rule:nonzero;stroke:none"
           d="m 0,0 -108.612,10.597 0.68,6.966 105.836,-10.325 35.264,27.427 74.565,-5.326 -0.499,-6.983 -71.887,5.135 z" />
      </g>
      <g
         transform="translate(194.9233,601.0713)"
         id="g985" />
      <g
         transform="translate(182.9243,613.0703)"
         id="g989" />
      <g
         transform="translate(46.0601,176.415)"
         id="g993">
        <path
           inkscape:connector-curvature="0"
           id="path995"
           style="fill:#ffc897;fill-opacity:1;fill-rule:nonzero;stroke:none"
           d="m 0,0 c 0,-6.931 5.619,-12.549 12.549,-12.549 6.93,0 12.547,5.618 12.547,12.549 0,6.929 -5.617,12.548 -12.547,12.548 C 5.619,12.548 0,6.929 0,0" />
      </g>
      <g
         transform="translate(57.2031,150.6748)"
         id="g997">
        <path
           inkscape:connector-curvature="0"
           id="path999"
           style="fill:#cc6a00;fill-opacity:1;fill-rule:nonzero;stroke:none"
           d="M 0,0 H 3.394 L 3.03,15.637 9.95,21.37 2.83,18.604 1.031,29.43 -0.038,19.296 -5.167,21.139 0,16.534 Z" />
      </g>
      <g
         transform="translate(338.0601,104.415)"
         id="g1001">
        <path
           inkscape:connector-curvature="0"
           id="path1003"
           style="fill:#ffc897;fill-opacity:1;fill-rule:nonzero;stroke:none"
           d="m 0,0 c 0,-6.931 5.619,-12.549 12.549,-12.549 6.93,0 12.547,5.618 12.547,12.549 0,6.929 -5.617,12.548 -12.547,12.548 C 5.619,12.548 0,6.929 0,0" />
      </g>
      <g
         transform="translate(349.2031,78.6748)"
         id="g1005">
        <path
           inkscape:connector-curvature="0"
           id="path1007"
           style="fill:#cc6a00;fill-opacity:1;fill-rule:nonzero;stroke:none"
           d="M 0,0 H 3.394 L 3.03,15.637 9.95,21.37 2.83,18.604 1.031,29.43 -0.038,19.296 -5.167,21.139 0,16.534 Z" />
      </g>
      <g
         transform="translate(132.0601,297.415)"
         id="g1009">
        <path
           inkscape:connector-curvature="0"
           id="path1011"
           style="fill:#ffc897;fill-opacity:1;fill-rule:nonzero;stroke:none"
           d="m 0,0 c 0,-6.931 5.619,-12.549 12.549,-12.549 6.93,0 12.547,5.618 12.547,12.549 0,6.929 -5.617,12.548 -12.547,12.548 C 5.619,12.548 0,6.929 0,0" />
      </g>
      <g
         transform="translate(143.2031,271.6748)"
         id="g1013">
        <path
           inkscape:connector-curvature="0"
           id="path1015"
           style="fill:#cc6a00;fill-opacity:1;fill-rule:nonzero;stroke:none"
           d="M 0,0 H 3.394 L 3.03,15.637 9.95,21.37 2.83,18.604 1.031,29.43 -0.038,19.296 -5.167,21.139 0,16.534 Z" />
      </g>
      <g
         transform="translate(501.0605,29.415)"
         id="g1017">
        <path
           inkscape:connector-curvature="0"
           id="path1019"
           style="fill:#ffc897;fill-opacity:1;fill-rule:nonzero;stroke:none"
           d="m 0,0 c 0,-6.931 5.619,-12.549 12.549,-12.549 6.93,0 12.547,5.618 12.547,12.549 0,6.929 -5.617,12.548 -12.547,12.548 C 5.619,12.548 0,6.929 0,0" />
      </g>
      <g
         transform="translate(512.2031,3.6748)"
         id="g1021">
        <path
           inkscape:connector-curvature="0"
           id="path1023"
           style="fill:#cc6a00;fill-opacity:1;fill-rule:nonzero;stroke:none"
           d="M 0,0 H 3.394 L 3.029,15.637 9.95,21.37 2.83,18.604 1.031,29.43 -0.038,19.296 -5.166,21.139 0,16.534 Z" />
      </g>
      <g
         transform="translate(148.0347,90.3779)"
         id="g1025">
        <path
           inkscape:connector-curvature="0"
           id="path1027"
           style="fill:#fbcd00;fill-opacity:1;fill-rule:nonzero;stroke:none"
           d="m 0,0 c 0,-7.67 -6.217,-13.886 -13.885,-13.886 -7.665,0 -13.883,6.216 -13.883,13.886 0,7.665 13.883,33.782 13.883,33.782 C -13.885,33.782 0,7.665 0,0" />
      </g>
      <g
         transform="translate(133.4829,64.8467)"
         id="g1029">
        <path
           inkscape:connector-curvature="0"
           id="path1031"
           style="fill:#cc6a00;fill-opacity:1;fill-rule:nonzero;stroke:none"
           d="M 0,0 H 3.206 L 2.863,14.778 9.404,20.196 2.674,17.582 0.974,28.464 -0.037,17.587 -6.186,19.979 0,14.977 Z" />
      </g>
      <g
         transform="translate(72.0347,29.3779)"
         id="g1033">
        <path
           inkscape:connector-curvature="0"
           id="path1035"
           style="fill:#fbcd00;fill-opacity:1;fill-rule:nonzero;stroke:none"
           d="m 0,0 c 0,-7.67 -6.217,-13.886 -13.885,-13.886 -7.665,0 -13.883,6.216 -13.883,13.886 0,7.665 13.883,33.782 13.883,33.782 C -13.885,33.782 0,7.665 0,0" />
      </g>
      <g
         transform="translate(57.4829,3.8467)"
         id="g1037">
        <path
           inkscape:connector-curvature="0"
           id="path1039"
           style="fill:#cc6a00;fill-opacity:1;fill-rule:nonzero;stroke:none"
           d="M 0,0 H 3.206 L 2.863,14.778 9.404,20.196 2.674,17.582 0.974,28.464 -0.037,17.587 -6.186,19.979 0,14.977 Z" />
      </g>
      <g
         transform="translate(74.0347,319.3779)"
         id="g1041">
        <path
           inkscape:connector-curvature="0"
           id="path1043"
           style="fill:#fbcd00;fill-opacity:1;fill-rule:nonzero;stroke:none"
           d="m 0,0 c 0,-7.67 -6.217,-13.886 -13.885,-13.886 -7.665,0 -13.883,6.216 -13.883,13.886 0,7.665 13.883,33.782 13.883,33.782 C -13.885,33.782 0,7.665 0,0" />
      </g>
      <g
         transform="translate(59.4829,293.8467)"
         id="g1045">
        <path
           inkscape:connector-curvature="0"
           id="path1047"
           style="fill:#cc6a00;fill-opacity:1;fill-rule:nonzero;stroke:none"
           d="M 0,0 H 3.206 L 2.863,14.778 9.404,20.196 2.674,17.582 0.974,28.464 -0.037,17.587 -6.186,19.979 0,14.977 Z" />
      </g>
      <g
         transform="translate(299.7285,209.5801)"
         id="g1049">
        <path
           inkscape:connector-curvature="0"
           id="path1051"
           style="fill:#fbcd00;fill-opacity:1;fill-rule:nonzero;stroke:none"
           d="m 0,0 c 0,-5.929 -4.805,-10.732 -10.731,-10.732 -5.925,0 -10.73,4.803 -10.73,10.732 0,5.924 10.73,26.109 10.73,26.109 C -10.731,26.109 0,5.924 0,0" />
      </g>
      <g
         transform="translate(288.4814,189.8467)"
         id="g1053">
        <path
           inkscape:connector-curvature="0"
           id="path1055"
           style="fill:#cc6a00;fill-opacity:1;fill-rule:nonzero;stroke:none"
           d="M 0,0 H 2.478 L 2.213,11.422 7.268,15.609 2.067,13.589 0.752,22 -0.028,13.593 -4.781,15.441 0,11.575 Z" />
      </g>
      <g
         transform="translate(489.0352,127.3779)"
         id="g1057">
        <path
           inkscape:connector-curvature="0"
           id="path1059"
           style="fill:#fbcd00;fill-opacity:1;fill-rule:nonzero;stroke:none"
           d="m 0,0 c 0,-7.67 -6.217,-13.886 -13.885,-13.886 -7.666,0 -13.883,6.216 -13.883,13.886 0,7.665 13.883,33.782 13.883,33.782 C -13.885,33.782 0,7.665 0,0" />
      </g>
      <g
         transform="translate(474.4824,101.8467)"
         id="g1061">
        <path
           inkscape:connector-curvature="0"
           id="path1063"
           style="fill:#cc6a00;fill-opacity:1;fill-rule:nonzero;stroke:none"
           d="M 0,0 H 3.206 L 2.863,14.778 9.404,20.196 2.675,17.582 0.975,28.464 -0.037,17.587 -6.186,19.979 0,14.977 Z" />
      </g>
      <g
         transform="translate(434.0352,56.3779)"
         id="g1065">
        <path
           inkscape:connector-curvature="0"
           id="path1067"
           style="fill:#59ac00;fill-opacity:1;fill-rule:nonzero;stroke:none"
           d="m 0,0 c 0,-7.67 -6.217,-13.886 -13.885,-13.886 -7.666,0 -13.883,6.216 -13.883,13.886 0,7.665 13.883,33.782 13.883,33.782 C -13.885,33.782 0,7.665 0,0" />
      </g>
      <g
         transform="translate(419.4824,30.8467)"
         id="g1069">
        <path
           inkscape:connector-curvature="0"
           id="path1071"
           style="fill:#386a00;fill-opacity:1;fill-rule:nonzero;stroke:none"
           d="M 0,0 H 3.206 L 2.863,14.778 9.404,20.196 2.675,17.582 0.975,28.464 -0.037,17.587 -6.186,19.979 0,14.977 Z" />
      </g>
      <g
         transform="translate(323.249,158.46)"
         id="g1073">
        <path
           inkscape:connector-curvature="0"
           id="path1075"
           style="fill:#59ac00;fill-opacity:1;fill-rule:nonzero;stroke:none"
           d="m 0,0 c 0,-4.69 -3.802,-8.491 -8.491,-8.491 -4.689,0 -8.49,3.801 -8.49,8.491 0,4.687 8.49,20.66 8.49,20.66 C -8.491,20.66 0,4.687 0,0" />
      </g>
      <g
         transform="translate(314.3491,142.8467)"
         id="g1077">
        <path
           inkscape:connector-curvature="0"
           id="path1079"
           style="fill:#386a00;fill-opacity:1;fill-rule:nonzero;stroke:none"
           d="m 0,0 h 1.96 l -0.209,9.038 4,3.313 -4.115,-1.599 -1.04,6.655 -0.618,-6.652 -3.761,1.463 L 0,9.159 Z" />
      </g>
      <g
         transform="translate(196.249,77.46)"
         id="g1081">
        <path
           inkscape:connector-curvature="0"
           id="path1083"
           style="fill:#59ac00;fill-opacity:1;fill-rule:nonzero;stroke:none"
           d="m 0,0 c 0,-4.69 -3.802,-8.491 -8.491,-8.491 -4.689,0 -8.49,3.801 -8.49,8.491 0,4.687 8.49,20.66 8.49,20.66 C -8.491,20.66 0,4.687 0,0" />
      </g>
      <g
         transform="translate(187.3491,61.8467)"
         id="g1085">
        <path
           inkscape:connector-curvature="0"
           id="path1087"
           style="fill:#386a00;fill-opacity:1;fill-rule:nonzero;stroke:none"
           d="m 0,0 h 1.96 l -0.209,9.038 4,3.313 -4.115,-1.599 -1.04,6.655 -0.618,-6.652 -3.761,1.463 L 0,9.159 Z" />
      </g>
      <g
         transform="translate(31.249,35.46)"
         id="g1089">
        <path
           inkscape:connector-curvature="0"
           id="path1091"
           style="fill:#59ac00;fill-opacity:1;fill-rule:nonzero;stroke:none"
           d="m 0,0 c 0,-4.69 -3.802,-8.491 -8.491,-8.491 -4.689,0 -8.49,3.801 -8.49,8.491 0,4.687 8.49,20.66 8.49,20.66 C -8.491,20.66 0,4.687 0,0" />
      </g>
      <g
         transform="translate(22.3491,19.8467)"
         id="g1093">
        <path
           inkscape:connector-curvature="0"
           id="path1095"
           style="fill:#386a00;fill-opacity:1;fill-rule:nonzero;stroke:none"
           d="m 0,0 h 1.96 l -0.209,9.038 4,3.313 -4.115,-1.599 -1.04,6.655 -0.618,-6.652 -3.761,1.463 L 0,9.159 Z" />
      </g>
      <g
         transform="translate(100.249,230.46)"
         id="g1097">
        <path
           inkscape:connector-curvature="0"
           id="path1099"
           style="fill:#59ac00;fill-opacity:1;fill-rule:nonzero;stroke:none"
           d="m 0,0 c 0,-4.69 -3.802,-8.491 -8.491,-8.491 -4.689,0 -8.49,3.801 -8.49,8.491 0,4.687 8.49,20.66 8.49,20.66 C -8.491,20.66 0,4.687 0,0" />
      </g>
      <g
         transform="translate(91.3491,214.8467)"
         id="g1101">
        <path
           inkscape:connector-curvature="0"
           id="path1103"
           style="fill:#386a00;fill-opacity:1;fill-rule:nonzero;stroke:none"
           d="m 0,0 h 1.96 l -0.209,9.038 4,3.313 -4.115,-1.599 -1.04,6.655 -0.618,-6.652 -3.761,1.463 L 0,9.159 Z" />
      </g>
      <g
         transform="translate(31.249,254.46)"
         id="g1105">
        <path
           inkscape:connector-curvature="0"
           id="path1107"
           style="fill:#59ac00;fill-opacity:1;fill-rule:nonzero;stroke:none"
           d="m 0,0 c 0,-4.69 -3.802,-8.491 -8.491,-8.491 -4.689,0 -8.49,3.801 -8.49,8.491 0,4.687 8.49,20.66 8.49,20.66 C -8.491,20.66 0,4.687 0,0" />
      </g>
      <g
         transform="translate(22.3491,238.8467)"
         id="g1109">
        <path
           inkscape:connector-curvature="0"
           id="path1111"
           style="fill:#386a00;fill-opacity:1;fill-rule:nonzero;stroke:none"
           d="m 0,0 h 1.96 l -0.209,9.038 4,3.313 -4.115,-1.599 -1.04,6.655 -0.618,-6.652 -3.761,1.463 L 0,9.159 Z" />
      </g>
      <g
         transform="translate(610.249,143.46)"
         id="g1113">
        <path
           inkscape:connector-curvature="0"
           id="path1115"
           style="fill:#59ac00;fill-opacity:1;fill-rule:nonzero;stroke:none"
           d="m 0,0 c 0,-4.69 -3.802,-8.491 -8.491,-8.491 -4.689,0 -8.49,3.801 -8.49,8.491 0,4.687 8.49,20.66 8.49,20.66 C -8.491,20.66 0,4.687 0,0" />
      </g>
      <g
         transform="translate(601.3496,127.8467)"
         id="g1117">
        <path
           inkscape:connector-curvature="0"
           id="path1119"
           style="fill:#386a00;fill-opacity:1;fill-rule:nonzero;stroke:none"
           d="M 0,0 H 1.96 L 1.75,9.038 5.751,12.351 1.635,10.752 0.596,17.407 -0.023,10.755 -3.783,12.218 0,9.159 Z" />
      </g>
      <g
         transform="translate(709.249,78.46)"
         id="g1121">
        <path
           inkscape:connector-curvature="0"
           id="path1123"
           style="fill:#59ac00;fill-opacity:1;fill-rule:nonzero;stroke:none"
           d="m 0,0 c 0,-4.69 -3.802,-8.491 -8.491,-8.491 -4.689,0 -8.49,3.801 -8.49,8.491 0,4.687 8.49,20.66 8.49,20.66 C -8.491,20.66 0,4.687 0,0" />
      </g>
      <g
         transform="translate(700.3496,62.8467)"
         id="g1125">
        <path
           inkscape:connector-curvature="0"
           id="path1127"
           style="fill:#386a00;fill-opacity:1;fill-rule:nonzero;stroke:none"
           d="M 0,0 H 1.96 L 1.75,9.038 5.751,12.351 1.635,10.752 0.596,17.407 -0.023,10.755 -3.783,12.218 0,9.159 Z" />
      </g>
      <g
         transform="translate(583.249,36.46)"
         id="g1129">
        <path
           inkscape:connector-curvature="0"
           id="path1131"
           style="fill:#59ac00;fill-opacity:1;fill-rule:nonzero;stroke:none"
           d="m 0,0 c 0,-4.69 -3.802,-8.491 -8.491,-8.491 -4.689,0 -8.49,3.801 -8.49,8.491 0,4.687 8.49,20.66 8.49,20.66 C -8.491,20.66 0,4.687 0,0" />
      </g>
      <g
         transform="translate(574.3496,20.8467)"
         id="g1133">
        <path
           inkscape:connector-curvature="0"
           id="path1135"
           style="fill:#386a00;fill-opacity:1;fill-rule:nonzero;stroke:none"
           d="M 0,0 H 1.96 L 1.75,9.038 5.751,12.351 1.635,10.752 0.596,17.407 -0.023,10.755 -3.783,12.218 0,9.159 Z" />
      </g>
      <g
         transform="translate(686.249,72.46)"
         id="g1137">
        <path
           inkscape:connector-curvature="0"
           id="path1139"
           style="fill:#59ac00;fill-opacity:1;fill-rule:nonzero;stroke:none"
           d="m 0,0 c 0,-4.69 -3.802,-8.491 -8.491,-8.491 -4.689,0 -8.49,3.801 -8.49,8.491 0,4.687 8.49,20.66 8.49,20.66 C -8.491,20.66 0,4.687 0,0" />
      </g>
      <g
         transform="translate(677.3496,56.8467)"
         id="g1141">
        <path
           inkscape:connector-curvature="0"
           id="path1143"
           style="fill:#386a00;fill-opacity:1;fill-rule:nonzero;stroke:none"
           d="M 0,0 H 1.96 L 1.75,9.038 5.751,12.351 1.635,10.752 0.596,17.407 -0.023,10.755 -3.783,12.218 0,9.159 Z" />
      </g>
      <g
         transform="translate(106.249,140.46)"
         id="g1145">
        <path
           inkscape:connector-curvature="0"
           id="path1147"
           style="fill:#59ac00;fill-opacity:1;fill-rule:nonzero;stroke:none"
           d="m 0,0 c 0,-4.69 -3.802,-8.491 -8.491,-8.491 -4.689,0 -8.49,3.801 -8.49,8.491 0,4.687 8.49,20.66 8.49,20.66 C -8.491,20.66 0,4.687 0,0" />
      </g>
      <g
         transform="translate(97.3496,124.8467)"
         id="g1149">
        <path
           inkscape:connector-curvature="0"
           id="path1151"
           style="fill:#386a00;fill-opacity:1;fill-rule:nonzero;stroke:none"
           d="M 0,0 H 1.96 L 1.75,9.038 5.751,12.351 1.635,10.752 0.596,17.407 -0.023,10.755 -3.783,12.218 0,9.159 Z" />
      </g>
      <g
         transform="translate(62.249,244.46)"
         id="g1153">
        <path
           inkscape:connector-curvature="0"
           id="path1155"
           style="fill:#59ac00;fill-opacity:1;fill-rule:nonzero;stroke:none"
           d="m 0,0 c 0,-4.69 -3.802,-8.491 -8.491,-8.491 -4.689,0 -8.49,3.801 -8.49,8.491 0,4.687 8.49,20.66 8.49,20.66 C -8.491,20.66 0,4.687 0,0" />
      </g>
      <g
         transform="translate(53.3496,228.8467)"
         id="g1157">
        <path
           inkscape:connector-curvature="0"
           id="path1159"
           style="fill:#386a00;fill-opacity:1;fill-rule:nonzero;stroke:none"
           d="M 0,0 H 1.96 L 1.75,9.038 5.751,12.351 1.635,10.752 0.596,17.407 -0.023,10.755 -3.783,12.218 0,9.159 Z" />
      </g>
      <g
         transform="translate(627.6396,-30.0391)"
         id="g1161">
        <path
           inkscape:connector-curvature="0"
           id="path1163"
           style="fill:#727e9a;fill-opacity:1;fill-rule:nonzero;stroke:none"
           d="m 0,0 c -7.305,22.646 -27.721,80.383 -59.439,127.298 -31.779,47.001 -64.643,68.848 -97.678,64.937 -6.327,-0.89 -13.908,-4.136 -21.933,-7.573 -17.875,-7.65 -40.112,-17.171 -62.73,-4.936 -14.952,7.79 -23.395,20.192 -24.416,35.872 -0.765,11.753 2.741,23.55 5.834,33.961 2.123,7.146 4.319,14.537 4.319,19.556 0,7.502 -2.38,9.324 -3.276,10.01 -2.135,1.634 -9.303,5.157 -29.705,2.594 -15.78,-1.984 -33.266,-6.714 -48.692,-10.888 -12.382,-3.35 -23.074,-6.244 -30.925,-7.116 l -0.506,-0.049 c -40.931,-3.275 -72.723,17.553 -79.134,51.839 -4.764,24.028 3.105,47.444 10.05,68.107 2.544,7.571 4.946,14.72 6.649,21.53 l 0.127,0.476 c 10.316,36.577 0.741,70.94 -27.691,99.372 -25.161,25.161 -54.952,48.696 -86.151,68.061 l -0.594,0.386 c -10.22,6.969 -21.408,12.725 -33.253,18.817 -14.583,7.502 -29.663,15.26 -43.365,25.699 l 20.003,26.255 c 11.386,-8.676 24.537,-15.441 38.461,-22.604 12.113,-6.23 24.635,-12.672 36.452,-20.695 33.21,-20.645 64.942,-45.737 91.784,-72.58 36.788,-36.787 49.634,-83.453 36.188,-131.431 -2.014,-8 -4.713,-16.031 -7.324,-23.8 -6.189,-18.413 -12.034,-35.806 -8.948,-51.238 l 0.045,-0.23 c 4.902,-26.469 36.748,-25.606 43.805,-25.084 5.385,0.646 15.26,3.319 25.706,6.144 36.383,9.845 81.664,22.098 107.079,2.646 7.4,-5.664 16.22,-16.547 16.22,-36.221 0,-9.819 -2.89,-19.55 -5.685,-28.958 -6.974,-23.469 -5.709,-27.072 2.266,-31.197 l 0.32,-0.172 c 8.032,-4.38 18.239,-0.573 34.097,6.218 9.739,4.169 19.81,8.48 30.585,9.95 l 0.255,0.032 C -51.053,238.267 14.071,63.89 31.412,10.134 Z" />
      </g>
      <g
         transform="translate(481.8252,172.0908)"
         id="g1165">
        <path
           inkscape:connector-curvature="0"
           id="path1167"
           style="fill:#ffffff;fill-opacity:1;fill-rule:nonzero;stroke:none"
           d="m 0,0 c 32.214,0 63.916,-22.731 94.229,-67.563 31.135,-46.051 51.464,-102.305 59.369,-126.458 l 21.989,7.094 C 158.569,-134.864 98.716,23.122 0.231,23.122 c -3.722,0 -7.514,-0.23 -11.272,-0.683 l -0.201,-0.025 C -21.326,21.039 -31.08,16.864 -40.512,12.826 -51.778,8.003 -61.008,4.318 -68.83,4.318 c -3.73,0 -7.037,0.815 -10.111,2.491 l -0.247,0.131 c -11.917,6.164 -11.719,13.425 -4.715,36.994 2.695,9.072 5.481,18.45 5.481,27.547 0,17.655 -7.766,27.303 -14.28,32.29 -8.18,6.259 -19.24,9.302 -33.814,9.302 -21.678,0 -46.798,-6.797 -68.963,-12.795 -10.665,-2.885 -20.735,-5.61 -26.475,-6.288 -1.194,-0.092 -2.972,-0.191 -5.188,-0.191 -11.602,0 -39.111,2.854 -44.008,29.295 l -0.034,0.177 c -3.343,16.712 2.707,34.713 9.112,53.77 2.584,7.687 5.255,15.635 7.224,23.467 12.973,46.245 0.575,91.217 -34.895,126.687 -26.59,26.59 -58.039,51.455 -90.947,71.907 -11.656,7.915 -24.057,14.295 -36.05,20.464 -13.424,6.906 -26.138,13.447 -37.439,21.751 l -14.004,-18.379 c 12.893,-9.522 27.101,-16.832 40.862,-23.911 11.991,-6.168 23.308,-11.989 33.785,-19.132 l 0.456,-0.297 c 31.478,-19.537 61.576,-43.316 86.999,-68.741 29.776,-29.774 39.789,-65.812 28.956,-104.216 l -0.097,-0.366 c -1.741,-6.969 -4.174,-14.209 -6.75,-21.873 -6.75,-20.083 -14.4,-42.845 -9.882,-65.592 5.47,-29.269 31.364,-48.164 65.972,-48.162 2.595,0 5.255,0.108 7.905,0.32 l 0.392,0.037 c 7.439,0.826 17.96,3.674 30.141,6.972 15.582,4.215 33.243,8.995 49.369,11.021 4.977,0.624 9.567,0.942 13.643,0.942 11.395,0 16.995,-2.457 19.688,-4.517 2.239,-1.712 5.218,-5.022 5.218,-13.942 0,-5.739 -2.198,-13.135 -4.525,-20.966 -3.12,-10.502 -6.346,-21.361 -5.638,-32.229 0.902,-13.863 8.433,-24.863 21.78,-31.811 6.55,-3.546 13.369,-5.262 20.88,-5.262 13.376,10e-4 26.242,5.508 37.594,10.367 8.362,3.58 16.243,6.952 23.227,7.929 C -5.453,-0.163 -2.707,0 0,0 m 150.766,-199.559 -0.676,2.094 c -7.312,22.669 -27.75,80.467 -59.508,127.438 C 58.705,-22.881 25.596,-0.9 -7.644,-4.855 -14,-5.744 -21.62,-9.005 -29.687,-12.458 c -11.756,-5.032 -25.064,-10.729 -39.342,-10.73 -8.261,0 -15.765,1.888 -22.945,5.776 -14.753,7.681 -23.099,19.931 -24.107,35.413 -0.759,11.653 2.581,22.894 5.811,33.765 2.234,7.517 4.343,14.617 4.343,19.715 0,7.778 -2.537,9.716 -3.491,10.447 -1.763,1.349 -6.316,3.611 -17.014,3.611 -3.893,0 -8.298,-0.305 -13.094,-0.908 -15.822,-1.988 -33.326,-6.725 -48.768,-10.903 -12.357,-3.345 -23.029,-6.233 -30.842,-7.1 l -0.459,-0.044 c -2.798,-0.224 -5.576,-0.336 -8.287,-0.336 -36.828,-0.003 -64.42,20.304 -70.293,51.73 -4.742,23.871 3.107,47.223 10.03,67.826 2.548,7.579 4.954,14.738 6.662,21.571 l 0.114,0.429 c 10.382,36.812 0.759,71.36 -27.823,99.942 -25.189,25.189 -55.013,48.751 -86.249,68.139 l -0.535,0.348 c -10.291,7.016 -21.492,12.777 -33.35,18.876 -14.568,7.495 -29.623,15.241 -43.284,25.649 l -1.751,1.333 19.337,25.379 1.751,-1.333 c 11.424,-8.705 24.597,-15.482 38.542,-22.656 12.114,-6.231 24.637,-12.672 36.439,-20.69 33.114,-20.579 64.835,-45.66 91.661,-72.484 36.644,-36.644 49.442,-83.143 36.036,-130.93 -1.996,-7.94 -4.695,-15.971 -7.306,-23.737 -6.212,-18.485 -12.08,-35.945 -8.965,-51.521 l 0.04,-0.207 c 4.144,-22.374 26.641,-25.712 39.684,-25.712 2.078,0 3.738,0.092 4.765,0.17 5.325,0.63 15.244,3.315 25.746,6.154 22.431,6.071 47.852,12.951 70.115,12.951 15.577,0 27.512,-3.34 36.489,-10.209 7.302,-5.591 16.006,-16.334 16.006,-35.785 0,-9.738 -2.88,-19.427 -5.663,-28.798 -7.139,-24.024 -5.892,-27.484 2.54,-31.846 l 0.29,-0.153 c 2.431,-1.327 5.049,-1.966 8.024,-1.966 6.985,0 15.791,3.532 26.572,8.149 9.716,4.157 19.746,8.451 30.443,9.91 l 0.236,0.03 c 3.942,0.475 7.913,0.715 11.81,0.715 102.818,0 163.94,-164.709 180.224,-215.191 l 0.676,-2.094 z" />
      </g>
      <g
         transform="translate(18.8833,605.5381)"
         id="g1169">
        <path
           inkscape:connector-curvature="0"
           id="path1171"
           style="fill:none;stroke:#000000;stroke-width:25;stroke-linecap:butt;stroke-linejoin:miter;stroke-miterlimit:10;stroke-dasharray:none;stroke-opacity:1"
           d="m 0,0 c 23.104,-17.603 51.709,-27.505 75.914,-44.008 31.905,-19.804 62.711,-44.008 89.116,-70.413 31.906,-31.906 44.008,-72.613 31.906,-115.521 -6.602,-26.405 -22.004,-55.01 -16.503,-82.515 5.501,-29.705 34.106,-40.707 61.611,-38.507 29.706,3.3 130.924,47.309 130.924,-11.002 0,-24.204 -26.405,-58.31 5.501,-74.813 24.204,-13.202 50.609,11.002 74.814,14.302 91.316,11.002 152.926,-135.324 174.931,-203.537" />
      </g>
      <g
         transform="translate(32.0161,595.4858)"
         id="g1173">
        <path
           inkscape:connector-curvature="0"
           id="path1175"
           style="fill:#ffffff;fill-opacity:1;fill-rule:nonzero;stroke:none"
           d="M 0,0 C -0.197,0 -0.397,0.053 -0.577,0.164 -2.184,1.154 -3.748,2.15 -5.226,3.122 -5.734,3.455 -5.875,4.138 -5.541,4.645 -5.207,5.152 -4.525,5.293 -4.017,4.96 -2.557,4 -1.011,3.017 0.578,2.037 1.096,1.718 1.256,1.04 0.937,0.523 0.729,0.186 0.369,0 0,0 m 11.382,-6.582 c -0.178,0 -0.36,0.043 -0.527,0.135 -1.61,0.88 -3.211,1.774 -4.801,2.683 -0.527,0.301 -0.711,0.973 -0.409,1.501 0.302,0.527 0.975,0.709 1.501,0.409 1.578,-0.902 3.167,-1.789 4.765,-2.663 0.533,-0.292 0.729,-0.961 0.438,-1.493 -0.201,-0.365 -0.578,-0.572 -0.967,-0.572 m 11.62,-6.155 c -0.169,0 -0.341,0.039 -0.503,0.123 -1.627,0.84 -3.25,1.684 -4.868,2.534 -0.537,0.284 -0.744,0.949 -0.462,1.486 0.284,0.537 0.949,0.745 1.486,0.462 1.614,-0.848 3.232,-1.69 4.853,-2.528 0.54,-0.279 0.752,-0.943 0.472,-1.482 -0.194,-0.378 -0.579,-0.595 -0.978,-0.595 m 11.689,-6.031 c -0.17,0 -0.344,0.039 -0.506,0.124 -1.62,0.842 -3.242,1.68 -4.865,2.515 -0.54,0.278 -0.753,0.941 -0.474,1.482 0.279,0.539 0.942,0.751 1.482,0.474 1.625,-0.837 3.249,-1.676 4.871,-2.519 0.54,-0.279 0.75,-0.944 0.469,-1.483 -0.195,-0.377 -0.579,-0.593 -0.977,-0.593 m 11.593,-6.208 c -0.181,0 -0.365,0.044 -0.534,0.139 -1.59,0.885 -3.189,1.757 -4.794,2.62 -0.536,0.287 -0.736,0.954 -0.449,1.489 0.286,0.536 0.954,0.739 1.49,0.449 1.615,-0.868 3.223,-1.745 4.823,-2.636 0.531,-0.295 0.722,-0.965 0.426,-1.497 -0.201,-0.361 -0.576,-0.564 -0.962,-0.564 m 11.324,-6.689 c -0.201,0 -0.404,0.056 -0.587,0.17 -1.535,0.971 -3.085,1.918 -4.648,2.848 -0.522,0.312 -0.693,0.986 -0.382,1.509 0.31,0.521 0.985,0.693 1.509,0.382 1.578,-0.939 3.144,-1.898 4.697,-2.878 0.513,-0.324 0.667,-1.003 0.342,-1.518 -0.209,-0.33 -0.566,-0.513 -0.931,-0.513 m 11.06,-7.103 c -0.204,0 -0.409,0.056 -0.592,0.173 -1.537,0.985 -3.077,1.958 -4.618,2.923 -0.516,0.322 -0.673,1 -0.351,1.515 0.323,0.516 1.002,0.673 1.516,0.351 1.549,-0.968 3.095,-1.947 4.639,-2.935 0.512,-0.328 0.661,-1.009 0.334,-1.52 -0.21,-0.328 -0.566,-0.507 -0.928,-0.507 m 10.979,-7.237 c -0.213,0 -0.428,0.061 -0.617,0.19 -1.509,1.024 -3.023,2.038 -4.541,3.043 -0.506,0.335 -0.645,1.018 -0.309,1.524 0.336,0.508 1.018,0.647 1.525,0.31 1.524,-1.009 3.044,-2.028 4.56,-3.056 0.504,-0.341 0.634,-1.025 0.294,-1.528 -0.213,-0.313 -0.56,-0.483 -0.912,-0.483 m 10.788,-7.52 c -0.223,0 -0.447,0.067 -0.641,0.206 -1.481,1.062 -2.968,2.115 -4.461,3.16 -0.497,0.349 -0.618,1.034 -0.27,1.533 0.35,0.498 1.035,0.618 1.533,0.27 1.498,-1.05 2.992,-2.108 4.48,-3.175 0.494,-0.354 0.607,-1.041 0.254,-1.535 -0.215,-0.3 -0.553,-0.459 -0.895,-0.459 m 10.592,-7.794 c -0.231,0 -0.464,0.072 -0.663,0.222 -1.454,1.099 -2.914,2.191 -4.379,3.274 -0.488,0.362 -0.591,1.051 -0.231,1.539 0.363,0.488 1.051,0.592 1.539,0.231 1.471,-1.088 2.937,-2.185 4.398,-3.288 0.485,-0.367 0.581,-1.057 0.215,-1.542 -0.217,-0.286 -0.546,-0.436 -0.879,-0.436 m 10.389,-8.066 c -0.241,0 -0.483,0.078 -0.686,0.24 -1.424,1.136 -2.856,2.265 -4.293,3.386 -0.479,0.373 -0.565,1.065 -0.191,1.544 0.373,0.48 1.066,0.564 1.544,0.191 1.443,-1.126 2.881,-2.26 4.313,-3.401 0.475,-0.378 0.552,-1.071 0.173,-1.546 -0.216,-0.272 -0.537,-0.414 -0.86,-0.414 m 10.177,-8.332 c -0.25,0 -0.501,0.085 -0.707,0.258 -1.395,1.173 -2.797,2.338 -4.205,3.497 -0.47,0.386 -0.537,1.079 -0.151,1.548 0.386,0.469 1.078,0.537 1.549,0.152 1.415,-1.164 2.822,-2.335 4.223,-3.513 0.465,-0.391 0.525,-1.085 0.134,-1.55 -0.218,-0.259 -0.529,-0.392 -0.843,-0.392 m 9.955,-8.598 c -0.259,0 -0.521,0.091 -0.73,0.278 -1.362,1.208 -2.733,2.411 -4.11,3.607 -0.46,0.398 -0.509,1.093 -0.111,1.552 0.397,0.459 1.092,0.508 1.552,0.11 1.385,-1.201 2.762,-2.409 4.13,-3.624 0.454,-0.403 0.495,-1.099 0.092,-1.553 -0.217,-0.244 -0.52,-0.37 -0.823,-0.37 m 9.721,-8.865 c -0.27,0 -0.54,0.098 -0.753,0.298 -1.328,1.246 -2.665,2.485 -4.012,3.718 -0.447,0.411 -0.478,1.106 -0.067,1.555 0.409,0.448 1.105,0.478 1.553,0.067 1.353,-1.238 2.697,-2.484 4.031,-3.735 0.443,-0.416 0.466,-1.112 0.05,-1.555 -0.216,-0.231 -0.509,-0.348 -0.802,-0.348 m 9.468,-9.133 c -0.28,0 -0.561,0.106 -0.775,0.319 -1.291,1.283 -2.593,2.559 -3.905,3.83 -0.436,0.423 -0.448,1.12 -0.024,1.556 0.424,0.438 1.119,0.446 1.555,0.025 1.319,-1.278 2.627,-2.561 3.924,-3.85 0.431,-0.428 0.434,-1.125 0.005,-1.555 -0.214,-0.217 -0.497,-0.325 -0.78,-0.325 m 8.974,-9.607 c -0.311,0 -0.62,0.131 -0.837,0.386 -1.161,1.361 -2.374,2.729 -3.607,4.068 -0.412,0.446 -0.383,1.143 0.064,1.554 0.447,0.413 1.142,0.384 1.554,-0.063 1.253,-1.359 2.485,-2.749 3.663,-4.131 0.394,-0.462 0.339,-1.157 -0.123,-1.551 -0.208,-0.176 -0.461,-0.263 -0.714,-0.263 m 8.034,-10.405 c -0.349,0 -0.691,0.165 -0.905,0.472 -1.024,1.474 -2.099,2.952 -3.194,4.394 -0.368,0.484 -0.273,1.175 0.21,1.542 0.484,0.367 1.175,0.274 1.542,-0.21 1.114,-1.467 2.206,-2.97 3.249,-4.47 0.347,-0.499 0.224,-1.184 -0.275,-1.531 -0.192,-0.133 -0.411,-0.197 -0.627,-0.197 m 6.924,-11.173 c -0.389,0 -0.766,0.207 -0.966,0.572 -0.862,1.574 -1.775,3.156 -2.715,4.702 -0.316,0.52 -0.151,1.196 0.369,1.512 0.52,0.315 1.197,0.15 1.511,-0.369 0.957,-1.574 1.887,-3.185 2.765,-4.789 0.292,-0.533 0.096,-1.201 -0.437,-1.493 -0.168,-0.092 -0.349,-0.135 -0.527,-0.135 m 5.651,-11.871 c -0.435,0 -0.845,0.259 -1.02,0.685 -0.675,1.658 -1.404,3.331 -2.167,4.975 -0.257,0.55 -0.017,1.205 0.534,1.461 0.55,0.255 1.205,0.018 1.461,-0.534 0.779,-1.675 1.522,-3.381 2.21,-5.072 0.229,-0.563 -0.041,-1.205 -0.604,-1.434 -0.136,-0.055 -0.276,-0.081 -0.414,-0.081 m 4.23,-12.445 c -0.484,0 -0.927,0.321 -1.061,0.811 -0.473,1.728 -1.001,3.475 -1.565,5.191 -0.19,0.577 0.123,1.199 0.701,1.389 0.575,0.191 1.199,-0.123 1.389,-0.701 0.577,-1.752 1.113,-3.534 1.597,-5.298 0.161,-0.586 -0.184,-1.191 -0.77,-1.352 -0.097,-0.027 -0.195,-0.04 -0.291,-0.04 m 2.701,-12.859 c -0.537,0 -1.007,0.393 -1.087,0.94 -0.261,1.776 -0.572,3.574 -0.926,5.343 -0.119,0.595 0.268,1.175 0.864,1.294 0.594,0.119 1.175,-0.268 1.294,-0.863 0.36,-1.805 0.678,-3.641 0.945,-5.454 0.089,-0.601 -0.327,-1.16 -0.928,-1.248 -0.055,-0.008 -0.108,-0.012 -0.162,-0.012 m 1.125,-13.088 c -0.594,0 -1.084,0.474 -1.099,1.073 -0.046,1.798 -0.137,3.619 -0.273,5.415 -0.046,0.606 0.408,1.134 1.013,1.18 0.609,0.046 1.135,-0.408 1.181,-1.014 0.138,-1.832 0.233,-3.691 0.279,-5.526 0.015,-0.607 -0.465,-1.113 -1.072,-1.127 -0.01,-0.001 -0.019,-0.001 -0.029,-0.001 m -0.436,-13.135 c -0.033,0 -0.067,0.002 -0.102,0.005 -0.605,0.056 -1.05,0.591 -0.994,1.196 0.164,1.792 0.287,3.612 0.365,5.413 0.026,0.606 0.523,1.078 1.146,1.052 0.607,-0.027 1.079,-0.54 1.052,-1.147 -0.079,-1.835 -0.204,-3.692 -0.372,-5.519 -0.053,-0.571 -0.533,-1 -1.095,-1 m -1.924,-13 c -0.073,0 -0.147,0.007 -0.222,0.022 -0.595,0.123 -0.979,0.704 -0.857,1.299 0.361,1.772 0.687,3.569 0.966,5.341 0.095,0.6 0.659,1.009 1.259,0.915 0.6,-0.094 1.01,-0.658 0.915,-1.258 -0.285,-1.805 -0.616,-3.635 -0.984,-5.439 -0.107,-0.521 -0.565,-0.88 -1.077,-0.88 m -3.178,-12.758 c -0.097,0 -0.195,0.013 -0.294,0.04 -0.586,0.162 -0.929,0.768 -0.767,1.354 0.337,1.217 0.657,2.429 0.958,3.637 0.162,0.571 0.31,1.11 0.454,1.648 0.157,0.587 0.763,0.936 1.347,0.778 0.588,-0.157 0.936,-0.761 0.778,-1.347 -0.147,-0.548 -0.297,-1.097 -0.452,-1.645 -0.298,-1.193 -0.623,-2.423 -0.964,-3.658 -0.135,-0.487 -0.578,-0.807 -1.06,-0.807 m -3.865,-12.569 c -0.114,0 -0.229,0.018 -0.344,0.056 -0.577,0.189 -0.891,0.812 -0.7,1.388 0.572,1.74 1.133,3.473 1.676,5.199 0.181,0.58 0.797,0.903 1.379,0.721 0.58,-0.183 0.902,-0.801 0.72,-1.38 -0.545,-1.736 -1.11,-3.479 -1.686,-5.227 -0.152,-0.464 -0.582,-0.757 -1.045,-0.757 m -4.166,-12.474 c -0.115,0 -0.231,0.018 -0.346,0.056 -0.576,0.191 -0.889,0.813 -0.698,1.39 0.574,1.738 1.156,3.473 1.737,5.203 0.194,0.576 0.819,0.884 1.394,0.693 0.575,-0.194 0.886,-0.818 0.692,-1.394 -0.58,-1.726 -1.161,-3.458 -1.735,-5.193 -0.152,-0.462 -0.582,-0.755 -1.044,-0.755 m -3.913,-12.559 c -0.101,0 -0.202,0.014 -0.303,0.043 -0.584,0.166 -0.923,0.776 -0.757,1.359 0.503,1.761 1.03,3.521 1.573,5.278 0.18,0.581 0.796,0.907 1.377,0.725 0.58,-0.179 0.905,-0.796 0.725,-1.377 -0.539,-1.74 -1.061,-3.484 -1.558,-5.229 -0.138,-0.483 -0.578,-0.799 -1.057,-0.799 m -3.092,-12.786 c -0.068,0 -0.138,0.007 -0.207,0.02 -0.597,0.114 -0.989,0.69 -0.875,1.287 0.332,1.741 0.722,3.561 1.158,5.407 0.14,0.591 0.731,0.962 1.324,0.818 0.59,-0.14 0.957,-0.733 0.818,-1.324 -0.429,-1.815 -0.812,-3.603 -1.139,-5.313 -0.1,-0.528 -0.561,-0.895 -1.079,-0.895 m -1.594,-13.046 c -0.017,0 -0.034,0 -0.05,0.001 -0.608,0.026 -1.078,0.542 -1.05,1.149 0.081,1.8 0.228,3.663 0.439,5.535 0.067,0.604 0.617,1.03 1.216,0.971 0.604,-0.069 1.038,-0.612 0.97,-1.216 -0.205,-1.824 -0.349,-3.637 -0.427,-5.39 -0.026,-0.589 -0.514,-1.05 -1.098,-1.05 m 0.678,-13.112 c -0.532,0 -0.999,0.388 -1.085,0.929 -0.285,1.806 -0.493,3.671 -0.618,5.543 -0.041,0.606 0.418,1.13 1.024,1.171 0.61,0.026 1.131,-0.418 1.171,-1.025 0.121,-1.806 0.322,-3.604 0.597,-5.345 0.095,-0.601 -0.315,-1.164 -0.915,-1.258 -0.059,-0.01 -0.116,-0.015 -0.174,-0.015 m 3.532,-12.622 c -0.424,0 -0.829,0.248 -1.009,0.661 -0.734,1.685 -1.38,3.457 -1.92,5.266 -0.174,0.583 0.157,1.195 0.74,1.368 0.579,0.176 1.195,-0.156 1.368,-0.738 0.515,-1.725 1.131,-3.412 1.829,-5.017 0.242,-0.557 -0.012,-1.206 -0.57,-1.448 -0.142,-0.062 -0.291,-0.092 -0.438,-0.092 m 158.031,-9.319 c -0.022,0 -0.045,0.001 -0.068,0.002 -1.566,0.097 -3.222,0.145 -4.923,0.145 l -0.48,-10e-4 h -0.007 c -0.605,0 -1.096,0.489 -1.1,1.093 -0.004,0.609 0.485,1.104 1.092,1.108 l 0.495,10e-4 c 1.746,0 3.447,-0.05 5.058,-0.15 0.607,-0.037 1.068,-0.558 1.03,-1.166 -0.036,-0.583 -0.52,-1.032 -1.097,-1.032 m -18.603,-0.708 c -0.551,0 -1.027,0.413 -1.092,0.974 -0.069,0.603 0.364,1.149 0.967,1.219 1.88,0.217 3.73,0.397 5.5,0.531 0.613,0.044 1.135,-0.407 1.181,-1.013 0.046,-0.605 -0.407,-1.134 -1.013,-1.181 -1.743,-0.133 -3.564,-0.308 -5.415,-0.522 -0.043,-0.005 -0.086,-0.008 -0.128,-0.008 m -132.42,-1.03 c -0.305,0 -0.609,0.126 -0.827,0.374 -1.234,1.403 -2.388,2.9 -3.427,4.452 -0.339,0.506 -0.204,1.188 0.301,1.526 0.504,0.338 1.188,0.204 1.526,-0.301 0.987,-1.472 2.081,-2.894 3.252,-4.225 0.402,-0.455 0.357,-1.151 -0.099,-1.552 -0.209,-0.184 -0.468,-0.274 -0.726,-0.274 m 163.936,-0.551 c -0.114,0 -0.229,0.016 -0.343,0.055 -1.599,0.526 -3.338,0.971 -5.168,1.322 -0.597,0.115 -0.987,0.691 -0.872,1.288 0.115,0.597 0.69,0.981 1.288,0.874 1.921,-0.37 3.752,-0.839 5.439,-1.394 0.577,-0.19 0.891,-0.812 0.702,-1.388 -0.153,-0.463 -0.583,-0.757 -1.046,-0.757 m -44.523,-0.406 c -0.52,0 -0.983,0.369 -1.081,0.899 -0.111,0.598 0.284,1.172 0.882,1.283 1.818,0.335 3.63,0.651 5.43,0.938 0.607,0.095 1.165,-0.314 1.26,-0.914 0.096,-0.6 -0.313,-1.162 -0.913,-1.259 -1.783,-0.284 -3.577,-0.596 -5.376,-0.929 -0.068,-0.014 -0.136,-0.018 -0.202,-0.018 m -12.881,-2.701 c -0.5,0 -0.953,0.344 -1.071,0.854 -0.137,0.592 0.234,1.183 0.825,1.318 1.786,0.412 3.578,0.813 5.37,1.196 0.598,0.131 1.18,-0.251 1.307,-0.846 0.127,-0.594 -0.252,-1.179 -0.846,-1.306 -1.781,-0.381 -3.562,-0.778 -5.336,-1.187 -0.084,-0.02 -0.166,-0.029 -0.249,-0.029 m -12.779,-3.146 c -0.491,0 -0.936,0.329 -1.065,0.825 -0.152,0.589 0.201,1.189 0.79,1.34 1.758,0.456 3.535,0.909 5.325,1.354 0.591,0.143 1.188,-0.212 1.334,-0.802 0.146,-0.59 -0.213,-1.186 -0.803,-1.333 -1.783,-0.444 -3.552,-0.895 -5.305,-1.348 -0.093,-0.024 -0.185,-0.036 -0.276,-0.036 m 81.374,-0.392 c -0.285,0 -0.57,0.11 -0.785,0.329 -1.19,1.211 -2.556,2.31 -4.06,3.268 -0.513,0.326 -0.665,1.005 -0.338,1.52 0.326,0.51 1.005,0.662 1.519,0.335 1.645,-1.045 3.141,-2.251 4.448,-3.581 0.427,-0.433 0.42,-1.129 -0.013,-1.555 -0.214,-0.21 -0.493,-0.316 -0.771,-0.316 m -165.111,-1.239 c -0.198,0 -0.4,0.055 -0.582,0.167 -1.603,1.001 -3.142,2.089 -4.573,3.231 -0.475,0.378 -0.553,1.071 -0.174,1.545 0.381,0.475 1.073,0.553 1.546,0.174 1.365,-1.089 2.834,-2.127 4.367,-3.083 0.515,-0.322 0.672,-1.001 0.35,-1.515 -0.208,-0.335 -0.567,-0.519 -0.934,-0.519 m 71.017,-1.754 c -0.485,0 -0.929,0.322 -1.061,0.814 -0.158,0.586 0.188,1.19 0.775,1.349 l 5.298,1.427 c 0.584,0.158 1.19,-0.191 1.347,-0.778 0.158,-0.586 -0.191,-1.191 -0.777,-1.347 l -5.294,-1.428 c -0.096,-0.024 -0.192,-0.037 -0.288,-0.037 m -12.717,-3.396 c -0.49,0 -0.936,0.328 -1.065,0.826 -0.152,0.587 0.202,1.187 0.79,1.339 1.706,0.441 3.474,0.909 5.295,1.396 0.586,0.159 1.191,-0.191 1.347,-0.778 0.158,-0.588 -0.192,-1.191 -0.778,-1.348 -1.828,-0.488 -3.602,-0.959 -5.313,-1.399 -0.092,-0.026 -0.185,-0.036 -0.276,-0.036 m -46.391,-0.353 c -0.115,0 -0.23,0.017 -0.344,0.054 -1.788,0.59 -3.543,1.256 -5.216,1.985 -0.557,0.244 -0.811,0.893 -0.569,1.448 0.243,0.559 0.888,0.815 1.449,0.57 1.61,-0.702 3.3,-1.346 5.023,-1.912 0.577,-0.19 0.891,-0.812 0.702,-1.39 -0.153,-0.463 -0.583,-0.755 -1.045,-0.755 m 33.562,-2.594 c -0.522,0 -0.985,0.373 -1.081,0.905 -0.109,0.598 0.288,1.171 0.886,1.279 1.566,0.283 3.307,0.644 5.322,1.104 0.593,0.136 1.182,-0.233 1.317,-0.827 0.135,-0.592 -0.235,-1.181 -0.828,-1.317 -2.047,-0.468 -3.819,-0.836 -5.419,-1.126 -0.066,-0.013 -0.132,-0.018 -0.197,-0.018 m -20.746,-0.256 c -0.045,0 -0.092,0.003 -0.139,0.008 -1.861,0.237 -3.706,0.541 -5.485,0.905 -0.595,0.121 -0.979,0.702 -0.858,1.297 0.122,0.595 0.697,0.982 1.299,0.857 1.724,-0.351 3.515,-0.647 5.321,-0.875 0.603,-0.076 1.029,-0.627 0.953,-1.231 -0.071,-0.555 -0.544,-0.961 -1.091,-0.961 m 9.974,-0.617 c -0.788,10e-4 -1.575,0.012 -2.36,0.034 -0.607,0.017 -1.086,0.523 -1.069,1.13 0.017,0.608 0.466,1.086 1.13,1.07 1.797,-0.05 3.6,-0.042 5.407,0.025 0.599,0.048 1.118,-0.45 1.141,-1.058 0.022,-0.607 -0.451,-1.118 -1.059,-1.14 -1.063,-0.041 -2.127,-0.061 -3.19,-0.061 m 136.609,-1.19 c -0.492,0 -0.94,0.332 -1.066,0.832 -0.443,1.761 -1.035,3.423 -1.762,4.939 -0.262,0.549 -0.03,1.206 0.518,1.469 0.55,0.261 1.206,0.028 1.468,-0.518 0.788,-1.649 1.431,-3.452 1.91,-5.353 0.148,-0.589 -0.209,-1.187 -0.798,-1.336 -0.09,-0.022 -0.181,-0.033 -0.27,-0.033 m 0.917,-13.05 c -0.035,0 -0.068,10e-4 -0.104,0.005 -0.605,0.056 -1.049,0.592 -0.993,1.197 0.109,1.178 0.165,2.323 0.165,3.408 -0.001,0.652 -0.014,1.291 -0.039,1.918 -0.025,0.608 0.449,1.12 1.055,1.145 0.596,0.061 1.119,-0.448 1.144,-1.056 0.026,-0.655 0.039,-1.323 0.04,-2.005 0,-1.153 -0.059,-2.368 -0.174,-3.614 -0.053,-0.57 -0.532,-0.998 -1.094,-0.998 m -2.564,-12.886 c -0.096,0 -0.193,0.011 -0.289,0.038 -0.587,0.16 -0.933,0.763 -0.773,1.35 0.53,1.953 0.959,3.679 1.312,5.27 0.13,0.591 0.713,0.965 1.313,0.835 0.592,-0.132 0.966,-0.718 0.835,-1.313 -0.36,-1.624 -0.798,-3.381 -1.338,-5.368 -0.133,-0.49 -0.577,-0.812 -1.06,-0.812 m -3.674,-12.633 c -0.101,0 -0.203,0.013 -0.305,0.043 -0.584,0.167 -0.921,0.778 -0.753,1.361 0.459,1.594 0.932,3.186 1.404,4.775 l 0.147,0.495 c 0.173,0.581 0.784,0.916 1.368,0.741 0.583,-0.172 0.915,-0.785 0.742,-1.369 l -0.148,-0.494 c -0.47,-1.582 -0.941,-3.17 -1.398,-4.757 -0.139,-0.482 -0.579,-0.795 -1.057,-0.795 m -3.082,-12.784 c -0.061,0 -0.123,0.005 -0.185,0.015 -0.599,0.103 -1.003,0.671 -0.901,1.27 0.29,1.705 0.656,3.483 1.12,5.438 0.141,0.591 0.735,0.956 1.325,0.815 0.591,-0.14 0.957,-0.732 0.816,-1.325 -0.452,-1.906 -0.809,-3.639 -1.091,-5.298 -0.092,-0.535 -0.557,-0.915 -1.084,-0.915 m -0.444,-13.09 c -0.537,0 -1.006,0.393 -1.087,0.941 -0.227,1.552 -0.342,3.204 -0.342,4.916 0.001,0.245 0.003,0.485 0.007,0.729 0.012,0.6 0.502,1.08 1.1,1.08 h 0.021 c 0.607,-0.011 1.09,-0.513 1.08,-1.122 l -0.007,-0.689 c 0,-1.604 0.107,-3.15 0.318,-4.597 0.089,-0.599 -0.327,-1.159 -0.929,-1.246 -0.054,-0.01 -0.108,-0.012 -0.161,-0.012 m 103.762,-5.109 c -0.018,0 -0.036,0 -0.053,0.001 -1.796,0.085 -3.6,0.11 -5.397,0.071 -0.608,-0.048 -1.11,0.469 -1.122,1.077 -0.013,0.607 0.469,1.11 1.077,1.124 1.846,0.038 3.701,0.014 5.545,-0.074 0.607,-0.029 1.076,-0.544 1.048,-1.151 -0.028,-0.59 -0.514,-1.048 -1.098,-1.048 m -18.509,-1.45 c -0.496,0 -0.948,0.338 -1.069,0.843 -0.142,0.591 0.222,1.184 0.813,1.327 1.76,0.422 3.475,0.748 5.1,0.972 l 0.375,0.043 c 0.615,0.058 1.17,-0.361 1.24,-0.964 0.068,-0.603 -0.342,-1.146 -0.947,-1.216 l -0.383,-0.045 c -1.538,-0.211 -3.181,-0.525 -4.871,-0.931 -0.086,-0.02 -0.173,-0.029 -0.258,-0.029 m 31.505,-0.235 c -0.075,0 -0.153,0.007 -0.23,0.024 -1.761,0.374 -3.547,0.691 -5.31,0.945 -0.603,0.087 -1.02,0.645 -0.934,1.246 0.089,0.6 0.638,1.018 1.247,0.933 1.813,-0.262 3.648,-0.588 5.455,-0.971 0.594,-0.128 0.973,-0.711 0.848,-1.306 -0.112,-0.516 -0.568,-0.871 -1.076,-0.871 m 12.581,-3.703 c -0.13,0 -0.261,0.024 -0.388,0.072 -1.697,0.639 -3.417,1.227 -5.113,1.75 -0.579,0.179 -0.906,0.795 -0.726,1.376 0.179,0.581 0.791,0.907 1.375,0.727 1.737,-0.536 3.5,-1.139 5.239,-1.795 0.569,-0.215 0.857,-0.848 0.642,-1.417 -0.165,-0.441 -0.584,-0.713 -1.029,-0.713 m -56.565,-0.184 c -0.436,0 -0.85,0.263 -1.022,0.693 -0.223,0.566 0.053,1.205 0.617,1.43 1.879,0.746 3.572,1.379 5.175,1.94 0.577,0.199 1.201,-0.102 1.402,-0.675 0.2,-0.575 -0.102,-1.202 -0.676,-1.403 -1.576,-0.55 -3.239,-1.173 -5.09,-1.908 -0.132,-0.053 -0.27,-0.077 -0.406,-0.077 m -67.628,-1.236 c -0.318,0 -0.635,0.136 -0.852,0.403 -1.22,1.495 -2.257,3.117 -3.082,4.82 -0.265,0.546 -0.036,1.204 0.51,1.47 0.549,0.263 1.206,0.037 1.47,-0.512 0.75,-1.548 1.695,-3.024 2.807,-4.386 0.383,-0.47 0.314,-1.164 -0.157,-1.547 -0.204,-0.167 -0.451,-0.248 -0.696,-0.248 m 55.496,-3.863 c -0.427,0 -0.835,0.252 -1.013,0.672 -0.237,0.559 0.025,1.204 0.585,1.442 1.101,0.466 2.202,0.938 3.301,1.409 l 1.739,0.744 c 0.553,0.24 1.204,-0.019 1.443,-0.58 0.239,-0.559 -0.02,-1.205 -0.58,-1.444 l -1.736,-0.743 c -1.103,-0.471 -2.206,-0.943 -3.309,-1.413 -0.141,-0.058 -0.286,-0.087 -0.43,-0.087 m 80.639,-0.161 c -0.175,0 -0.352,0.041 -0.518,0.13 -1.604,0.86 -3.232,1.679 -4.838,2.434 -0.55,0.259 -0.786,0.914 -0.529,1.464 0.26,0.55 0.913,0.786 1.465,0.529 1.642,-0.774 3.305,-1.611 4.942,-2.489 0.535,-0.286 0.736,-0.953 0.449,-1.489 -0.198,-0.369 -0.579,-0.579 -0.971,-0.579 m -126.371,-3.837 c -1.714,0.885 -3.327,1.86 -4.775,2.886 -0.495,0.351 -0.612,1.038 -0.262,1.534 0.352,0.496 1.038,0.611 1.535,0.262 1.365,-0.969 2.89,-1.889 4.53,-2.737 l -0.482,-0.99 z m 33.48,-0.766 c -0.461,0 -0.89,0.291 -1.043,0.751 -0.194,0.577 0.118,1.2 0.693,1.392 1.604,0.536 3.272,1.14 5.102,1.848 0.566,0.219 1.203,-0.065 1.422,-0.631 0.22,-0.566 -0.062,-1.203 -0.629,-1.422 -1.861,-0.719 -3.561,-1.335 -5.196,-1.882 -0.116,-0.038 -0.234,-0.056 -0.349,-0.056 m 104.092,-2.265 c -0.216,0 -0.433,0.063 -0.625,0.194 -1.511,1.045 -3.038,2.05 -4.533,2.988 -0.515,0.322 -0.671,1.002 -0.349,1.516 0.325,0.514 1.004,0.67 1.518,0.349 1.523,-0.955 3.076,-1.979 4.615,-3.041 0.5,-0.346 0.626,-1.03 0.281,-1.53 -0.213,-0.311 -0.558,-0.476 -0.907,-0.476 m -116.871,-0.743 c -0.553,0 -1.028,0.415 -1.092,0.975 -0.068,0.605 0.364,1.15 0.968,1.218 1.69,0.193 3.467,0.496 5.28,0.902 0.594,0.131 1.181,-0.24 1.315,-0.832 0.133,-0.593 -0.24,-1.182 -0.832,-1.314 -1.891,-0.424 -3.746,-0.74 -5.514,-0.94 -0.043,-0.006 -0.084,-0.009 -0.125,-0.009 m -7.652,-0.137 c -0.033,0 -0.064,10e-4 -0.097,0.004 -1.901,0.165 -3.777,0.489 -5.578,0.963 -0.586,0.154 -0.937,0.756 -0.783,1.345 0.156,0.586 0.765,0.933 1.344,0.782 1.679,-0.441 3.431,-0.743 5.208,-0.898 0.605,-0.053 1.053,-0.586 1.001,-1.192 -0.05,-0.572 -0.53,-1.004 -1.095,-1.004 m 134.966,-7.104 c -0.249,0 -0.5,0.085 -0.706,0.258 -1.399,1.172 -2.821,2.323 -4.23,3.418 -0.479,0.372 -0.566,1.065 -0.192,1.544 0.374,0.48 1.063,0.568 1.543,0.193 1.43,-1.113 2.875,-2.281 4.293,-3.471 0.465,-0.39 0.526,-1.083 0.135,-1.549 -0.217,-0.261 -0.529,-0.393 -0.843,-0.393 m 9.725,-8.853 c -0.278,0 -0.556,0.105 -0.77,0.314 -1.305,1.281 -2.631,2.544 -3.946,3.758 -0.445,0.412 -0.473,1.109 -0.061,1.555 0.414,0.446 1.109,0.473 1.555,0.062 1.331,-1.229 2.673,-2.508 3.993,-3.803 0.433,-0.428 0.439,-1.123 0.014,-1.556 -0.215,-0.221 -0.501,-0.33 -0.785,-0.33 m 9.07,-9.528 c -0.302,0 -0.604,0.123 -0.82,0.367 -1.218,1.364 -2.446,2.704 -3.684,4.021 -0.416,0.442 -0.397,1.139 0.047,1.556 0.442,0.416 1.137,0.395 1.555,-0.048 1.252,-1.332 2.492,-2.684 3.723,-4.063 0.405,-0.453 0.365,-1.149 -0.087,-1.553 -0.211,-0.188 -0.473,-0.28 -0.734,-0.28 m 8.479,-10.061 c -0.323,0 -0.644,0.143 -0.861,0.415 -1.139,1.43 -2.288,2.839 -3.449,4.23 -0.39,0.465 -0.327,1.16 0.14,1.549 0.466,0.391 1.162,0.327 1.549,-0.139 1.171,-1.403 2.332,-2.827 3.481,-4.269 0.378,-0.474 0.3,-1.166 -0.175,-1.546 -0.203,-0.16 -0.445,-0.24 -0.685,-0.24 m 7.952,-10.483 c -0.341,0 -0.678,0.158 -0.892,0.457 -1.07,1.48 -2.149,2.946 -3.24,4.396 -0.366,0.486 -0.267,1.175 0.218,1.541 0.485,0.365 1.176,0.267 1.539,-0.218 1.1,-1.461 2.189,-2.939 3.266,-4.433 0.355,-0.491 0.244,-1.18 -0.248,-1.535 -0.196,-0.141 -0.42,-0.208 -0.643,-0.208 m 7.476,-10.826 c -0.357,0 -0.706,0.171 -0.919,0.493 -1.006,1.521 -2.024,3.034 -3.051,4.532 -0.343,0.502 -0.215,1.186 0.285,1.53 0.504,0.343 1.188,0.213 1.531,-0.286 1.034,-1.51 2.057,-3.03 3.07,-4.562 0.336,-0.508 0.197,-1.191 -0.311,-1.525 -0.186,-0.124 -0.396,-0.182 -0.605,-0.182 m 7.042,-11.093 c -0.37,0 -0.735,0.188 -0.942,0.527 -0.947,1.558 -1.906,3.103 -2.876,4.642 -0.324,0.513 -0.17,1.193 0.344,1.517 0.516,0.322 1.195,0.169 1.517,-0.343 0.976,-1.548 1.941,-3.105 2.895,-4.67 0.317,-0.52 0.152,-1.197 -0.366,-1.513 -0.18,-0.108 -0.377,-0.16 -0.572,-0.16 m 6.674,-11.355 c -0.384,0 -0.755,0.201 -0.958,0.558 -0.901,1.588 -1.812,3.173 -2.732,4.75 -0.306,0.523 -0.13,1.198 0.397,1.504 0.524,0.306 1.198,0.13 1.503,-0.395 0.926,-1.587 1.842,-3.177 2.746,-4.774 0.299,-0.528 0.114,-1.199 -0.415,-1.499 -0.171,-0.098 -0.358,-0.144 -0.541,-0.144 m 6.328,-11.562 c -0.397,0 -0.778,0.212 -0.974,0.585 -0.85,1.611 -1.713,3.219 -2.586,4.822 -0.29,0.533 -0.093,1.201 0.442,1.491 0.533,0.293 1.201,0.095 1.491,-0.44 0.876,-1.612 1.742,-3.227 2.597,-4.844 0.286,-0.537 0.08,-1.203 -0.458,-1.487 -0.164,-0.086 -0.34,-0.127 -0.512,-0.127 m 5.997,-11.719 c -0.405,0 -0.795,0.226 -0.987,0.611 -0.809,1.632 -1.626,3.263 -2.457,4.892 -0.275,0.541 -0.06,1.204 0.482,1.48 0.542,0.274 1.203,0.061 1.48,-0.481 0.833,-1.638 1.655,-3.275 2.465,-4.912 0.272,-0.545 0.049,-1.204 -0.496,-1.475 -0.157,-0.078 -0.323,-0.115 -0.487,-0.115 m 5.697,-11.865 c -0.415,0 -0.813,0.235 -0.999,0.637 -0.768,1.646 -1.546,3.296 -2.335,4.95 -0.262,0.549 -0.03,1.206 0.519,1.467 0.547,0.263 1.205,0.03 1.466,-0.519 0.793,-1.661 1.575,-3.316 2.344,-4.971 0.256,-0.551 0.018,-1.205 -0.532,-1.461 -0.15,-0.07 -0.309,-0.103 -0.463,-0.103 m 5.416,-11.997 c -0.424,0 -0.827,0.246 -1.008,0.659 -0.729,1.66 -1.468,3.329 -2.22,5.004 -0.249,0.554 -10e-4,1.205 0.552,1.454 0.556,0.25 1.206,0.002 1.454,-0.554 0.755,-1.678 1.498,-3.353 2.23,-5.021 0.243,-0.557 -0.011,-1.205 -0.567,-1.449 -0.144,-0.063 -0.293,-0.093 -0.441,-0.093 m 5.151,-12.115 c -0.432,0 -0.842,0.255 -1.017,0.682 -0.69,1.674 -1.394,3.357 -2.11,5.052 -0.237,0.558 0.024,1.204 0.584,1.44 0.557,0.237 1.205,-0.024 1.442,-0.584 0.719,-1.701 1.426,-3.39 2.118,-5.069 0.231,-0.562 -0.036,-1.206 -0.597,-1.438 -0.137,-0.056 -0.281,-0.083 -0.42,-0.083 m 4.899,-12.219 c -0.442,0 -0.857,0.266 -1.027,0.702 -0.652,1.681 -1.321,3.381 -2.004,5.095 -0.226,0.563 0.048,1.204 0.614,1.428 0.56,0.226 1.204,-0.049 1.43,-0.615 0.685,-1.72 1.356,-3.424 2.012,-5.111 0.219,-0.567 -0.061,-1.204 -0.627,-1.425 -0.131,-0.051 -0.265,-0.074 -0.398,-0.074 m 4.647,-12.321 c -0.449,0 -0.87,0.277 -1.033,0.722 -0.618,1.688 -1.252,3.402 -1.902,5.136 -0.214,0.569 0.075,1.204 0.643,1.417 0.569,0.211 1.202,-0.074 1.416,-0.644 0.654,-1.739 1.29,-3.458 1.91,-5.152 0.208,-0.57 -0.084,-1.202 -0.656,-1.411 -0.125,-0.046 -0.253,-0.068 -0.378,-0.068 m 4.393,-12.412 c -0.457,0 -0.884,0.287 -1.04,0.745 -0.578,1.69 -1.177,3.416 -1.796,5.17 -0.202,0.574 0.099,1.203 0.673,1.404 0.57,0.197 1.2,-0.101 1.402,-0.673 0.622,-1.762 1.223,-3.493 1.803,-5.189 0.196,-0.576 -0.111,-1.201 -0.686,-1.397 -0.117,-0.039 -0.237,-0.06 -0.356,-0.06" />
      </g>
      <g
         id="car">
        <path
           inkscape:connector-curvature="0"
           id="path1203"
           style="fill:#000000;fill-opacity:1;fill-rule:nonzero;stroke:none"
           d="m 575.998,128.9717 c 0.445,2.864 1.182,4.462 -0.323,7.109 -1.363,2.398 -3.257,4.139 -5.187,5.926 -1.026,0.949 -1.719,2.136 -2.681,3.166 -0.869,0.931 -1.981,1.528 -2.785,2.571 -1.663,2.159 -3.512,4.442 -6.207,5.413 -2.802,1.009 -5.31,-3.301 -7.448,-4.838 -2.503,-1.798 -4.918,-2.702 -3.224,-6.143 1.208,-2.457 3.489,-4.084 5.197,-5.921 1.82,-1.958 3.779,-3.726 5.598,-5.637 2.37,-2.489 4.672,-6.477 7.985,-7.64 2.379,-0.834 3.666,0.02 5.351,1.736 1.135,1.157 3.262,2.74 3.724,4.258" />
        <path
           inkscape:connector-curvature="0"
           id="path1207"
           style="fill:#0071e7;fill-opacity:1;fill-rule:nonzero;stroke:none"
           d="m 553.085,160.001 c -0.113,-0.047 -0.613,0.19 -1.553,0.351 -0.939,0.158 -2.867,-0.511 -2.977,-0.478 -0.11,0.033 -0.145,0.172 -0.11,0.292 0.073,0.233 0.317,0.3 0.317,0.3 0,0 1.911,0.366 2.292,0.42 0.383,0.052 1.066,-0.18 1.483,-0.307 0.415,-0.131 0.658,-0.535 0.548,-0.578 m 13.777,-14.776 c -0.005,-0.161 -0.342,-1.933 -0.391,-1.979 -0.05,-0.048 -0.16,-0.173 -0.394,0.087 -0.231,0.261 -2.507,2.921 -3.04,3.822 -0.529,0.902 -1.363,2.412 -1.348,2.507 0.01,0.096 0.263,0.273 0.261,0.375 -0.001,0.1 -0.055,0.272 0.077,0.282 0.103,0.008 0.32,-0.191 0.946,-0.848 0.623,-0.659 3.803,-4.009 3.803,-4.009 0,0 0.092,-0.08 0.086,-0.237 m 1.416,-1.615 c 0.536,-0.564 3.853,-4.19 4.46,-4.83 0.608,-0.64 0.451,-0.605 0.394,-0.72 -0.056,-0.115 -1.656,0.18 -2.248,0.565 -0.592,0.387 -3.47,3.484 -3.553,3.571 -0.082,0.087 -0.056,0.276 -0.021,0.37 0.18,0.486 0.484,0.985 0.708,1.197 0.086,0.081 0.186,-0.075 0.26,-0.153 m 3.669,-5.881 c 0.049,0.112 0.219,0.046 0.219,0.046 0,0 1.258,-0.219 1.414,-0.308 0.158,-0.089 1.392,-1.441 1.467,-1.544 0.077,-0.103 -0.317,-0.021 -1.497,0.599 -1.177,0.624 -1.643,1.12 -1.603,1.207 m 7.69,-6.174 c 0.203,-0.475 0.169,-0.82 0.177,-1.294 0.008,-0.476 -0.476,-1.604 -0.681,-2.017 -0.207,-0.412 -0.988,-1.073 -1.029,-1.12 -0.039,-0.048 -0.2,-0.147 -0.091,0.326 0.105,0.474 1.063,1.874 1.259,2.513 0.197,0.641 -0.074,1.727 -0.157,2.035 0,0 0.318,0.032 0.522,-0.443 m -11.831,-6.418 c -0.116,0.054 -0.65,0.99 -1.223,1.824 -0.574,0.839 -1.094,1.485 -1.209,1.758 -0.116,0.274 0.265,0.522 0.503,0.663 0.237,0.141 2.435,1.733 3.128,2.391 0.694,0.66 2.395,2.771 2.551,2.999 0.153,0.23 0.421,0.598 0.687,0.468 0.268,-0.129 0.888,-0.681 1.695,-1.299 0.803,-0.614 1.707,-1.198 1.756,-1.316 0.051,-0.12 -0.277,-1.768 -3.192,-4.533 -2.915,-2.769 -4.58,-3.012 -4.696,-2.955 m 5.368,-2.692 c -0.049,-0.036 -0.75,-0.784 -1.172,-0.968 -0.423,-0.187 -1.574,-0.611 -2.05,-0.577 -0.474,0.034 -0.818,0.016 -1.283,0.246 -0.464,0.227 -0.414,0.543 -0.414,0.543 0.303,-0.099 1.373,-0.426 2.023,-0.263 0.648,0.161 2.097,1.045 2.576,1.128 0.476,0.082 0.369,-0.074 0.32,-0.109 m -9.148,5.035 c 0.559,-1.207 0.619,-1.606 0.521,-1.525 -0.098,0.082 -1.385,1.385 -1.466,1.546 -0.081,0.16 -0.235,1.427 -0.235,1.427 0,0 -0.057,0.175 0.061,0.22 0.087,0.034 0.558,-0.458 1.119,-1.668 m -6.942,5.906 c 0.223,0.21 0.737,0.487 1.23,0.644 0.097,0.029 0.289,0.045 0.371,-0.041 0.081,-0.089 3.026,-3.123 3.379,-3.736 0.353,-0.611 0.566,-2.224 0.449,-2.273 -0.119,-0.05 -0.091,-0.208 -0.698,0.431 -0.607,0.641 -4.056,4.141 -4.591,4.706 -0.075,0.078 -0.227,0.185 -0.14,0.269 m -1.631,1.328 c 0,0 -3.18,3.35 -3.805,4.006 -0.625,0.66 -0.813,0.886 -0.798,0.988 0.017,0.135 0.185,0.069 0.283,0.062 0.104,-0.008 0.294,0.237 0.39,0.244 0.094,0.008 1.561,-0.903 2.432,-1.479 0.873,-0.578 3.411,-2.991 3.66,-3.233 0.246,-0.246 0.116,-0.353 0.066,-0.4 -0.048,-0.047 -1.838,-0.294 -1.995,-0.287 -0.158,0.002 -0.233,0.099 -0.233,0.099 m -13.806,14.429 c -0.051,-0.109 -0.44,0.157 -0.549,0.578 -0.108,0.422 -0.303,1.117 -0.231,1.496 0.074,0.379 0.54,2.268 0.54,2.268 0,0 0.08,0.241 0.314,0.298 0.123,0.031 0.26,-0.011 0.289,-0.122 0.028,-0.111 -0.742,-2.003 -0.632,-2.947 0.11,-0.947 0.318,-1.462 0.269,-1.571 m 11.754,-0.929 c 0.856,0.81 5.099,3.83 5.816,3.398 0.719,-0.431 0.366,0.082 1.059,-1.115 0.695,-1.196 1.835,-2.956 1.896,-3.083 0.061,-0.127 0.105,-0.271 -0.033,-0.387 -0.138,-0.116 -1.62,-0.647 -4.45,-3.332 -2.828,-2.685 -3.437,-4.139 -3.559,-4.271 -0.124,-0.13 -0.264,-0.08 -0.388,-0.012 -0.126,0.066 -1.821,1.297 -2.98,2.054 -1.158,0.755 -0.666,0.375 -1.058,1.115 -0.395,0.739 2.841,4.82 3.697,5.633 m -11.313,6.831 c 0.001,0.003 0.003,0.006 0.004,0.009 0.073,0.145 2.084,2.169 2.438,2.506 0.355,0.335 2.481,2.238 2.63,2.303 0.002,0.001 0.005,0.004 0.007,0.005 0.187,-0.132 0.51,-0.378 0.491,-0.432 -0.028,-0.069 -2.451,-2.326 -2.583,-2.451 -0.133,-0.127 -2.511,-2.426 -2.583,-2.451 -0.053,-0.013 -0.279,0.317 -0.404,0.511 m 21.741,-3.092 c -0.17,0.195 -1.522,-0.316 -1.522,-0.316 0,0 -1.948,1.936 -2.163,2.167 -0.216,0.223 -0.796,0.851 -1.378,1.626 -0.58,0.776 -4.187,4.304 -4.476,4.567 -0.292,0.258 -2.172,1.027 -2.487,1.164 -0.314,0.136 -1.978,-0.109 -3.313,-0.287 -1.333,-0.175 -1.401,-0.722 -1.446,-0.923 l -0.002,-0.001 c -0.056,-0.04 -1.719,-1.27 -2.694,-2.198 -0.993,-0.943 -2.339,-2.579 -2.339,-2.579 -0.199,-0.035 -0.749,-0.07 -0.995,-1.396 -0.248,-1.325 -0.578,-2.973 -0.457,-3.294 0.119,-0.321 0.786,-2.24 1.031,-2.543 0.247,-0.303 3.582,-4.086 4.325,-4.71 0.744,-0.622 1.342,-1.232 1.556,-1.458 0.218,-0.227 2.051,-2.274 2.051,-2.274 0,0 -0.583,-1.323 -0.396,-1.505 0.185,-0.178 0.328,-0.422 0.444,-0.263 0.116,0.154 0.541,0.797 0.614,0.851 0.072,0.056 0.179,-0.053 0.179,-0.053 l 10.707,-11.197 c 0,0 3.264,-3.637 4.233,-4.265 0.966,-0.627 3.468,-2.484 4.229,-2.534 0.762,-0.053 2.08,-0.931 6.788,3.536 4.707,4.47 3.9,5.832 3.887,6.596 -0.014,0.76 -1.735,3.357 -2.312,4.355 -0.578,0.998 -4.037,4.449 -4.037,4.449 l -10.625,11.277 c 0,0 -0.101,0.112 -0.042,0.183 0.058,0.069 0.719,0.46 0.88,0.566 0.163,0.108 -0.072,0.265 -0.24,0.459" />
      </g>
    </g>
  </g>
</svg>
