<svg width="346.4mm" height="100.1mm" version="1.1" viewBox="0 0 346.4 100.1" xmlns="http://www.w3.org/2000/svg"><g transform="translate(156.6,-64.67)"><polygon transform="matrix(.2646 0 0 .3533 -168.6 -84.09)" points="288.4 675.3 122.4 656.3 137.6 645.8 302.7 663.5" style="fill:#726658;stroke-width:.8654"/><polygon transform="matrix(.2646 0 0 .3533 -168.6 -84.09)" points="328.7 591.4 413.8 586.4 413.8 596.1 317.6 601.9" style="fill:#726658;stroke-width:.8654"/><polygon transform="matrix(.2646 0 0 .3533 -168.6 -84.09)" points="561 653.7 566.4 606.2 509.1 608.5 492.7 655" style="fill:#8dc63f;stroke-width:.8654"/><polygon transform="matrix(.2646 0 0 .3533 -168.6 -84.09)" points="1065 588.2 1103 649.3 1188 634.5 1237 633.2 1187 591" style="fill:#8dc63f;stroke-width:.8654"/><polygon transform="matrix(.2646 0 0 .3533 -168.6 -84.09)" points="895.7 492 906.7 521.2 971.4 528.5 991.4 526.7 967.3 487.2" style="fill:#8dc63f;stroke-width:.8654"/><polygon transform="matrix(.2646 0 0 .3533 -168.6 -84.09)" points="1020 490.5 1012 484.6 1058 476.2 1066 480.4" style="fill:#726658;stroke-width:.8654"/><polygon transform="matrix(.2646 0 0 .3533 -168.6 -84.09)" points="1004 536.8 1004 605.2 1012 655.8 1004 655.8 996.3 607.8 996.3 536.8" style="fill:#726658;stroke-width:.8654"/><polygon transform="matrix(.2646 0 0 .3533 -168.6 -84.09)" points="838.6 462.1 829.1 462.1 842 518.8 853.6 518.8" style="fill:#726658;stroke-width:.8654"/><polygon transform="matrix(.2539 0 0 .3533 -160.3 -84.09)" points="527.9 523.4 527.9 514.2 775.9 514.2 771.7 523.4" style="fill:#84d3ef;stroke-width:.8834"/><path d="m166.2 141.5 16.59-0.6006-1.773-2.155-16.91 0.6006-14.05-14.52 20.64 0.6359-7.435-7.171-54.74-2.897-2.222-18.9 33.07 4.027-4.18-4.133-11.14-1.484-19-16.82 14-0.5652-2.355-2.755-17.28 0.7419-11.72-10.85h-2.646l1.508 1.448-10.5 4.734-3.863-6.217h-5.636l1.296 2.473-28.31 1.413-0.5292-3.886h-6.218l0.1852 2.367-23.1 0.7419-0.926-3.109h-1.244l0.8202 3.144-27.04 0.8478 1.058-3.992h-5.689l-2.011 5.794-10.69 0.6006 1.64-4.91-1.64-1.448h-0.7408l1.27 1.908-1.588 4.522-11.46 0.6359-0.6615-7.065h-3.492v15.79l-0.1058 0.1766-16.32 1.024 3.387-5.794 9.71-11.2h-1.72l-9.842 10.53-4.921 6.641-5.027 0.3179-34.61 27.77h-9.763l-6.959 6.076h12.73l2.566 3.815-44.19 43.45h11.17l35.16-40.27 11.38 16.96h17.12l-20.61 23.28h7.673l18.92-23.28h27.36l-8.123 23.28h14.05l2.99-11.27 42.17-1.166-7.541 12.43h18.1l10.03-21.23 33.63 12.05-3.387 10.63h15.11l4.974-21.2 49.13 12.36 4.075 8.832h5.371l-7.938-17.17 21.96-5.299 14.55-0.5299 20.69 23.03h8.361zm-57.47-13.49-32.89 1.378 5.212-22.22 8.678 1.272 12.67-1.625 1.27 10.28zm-12.73-40.91 5.001 5.334 0.8467 8.408-7.144 0.8478-6.668-13.85zm6.535-8.938 17.89 16.25-14.66-1.978-14.39-13.88zm-14.84-10.95 8.758 8.372-7.832 0.3179-6.456-7.03-2.117 0.7419 5.583 6.394-6.218 0.2473-2.699-4.345zm0.4233 11.48 5.398 5.758-26.96 2.508-2.09-7.419zm-21.54 20.77-23.07-3.427-0.1588-0.1766-2.143-15.44 21.17-0.7772zm2.593-29.85 3.651 6.959-31.96 1.342-0.9525-6.783zm-27.75 31.76 11.01 1.625-8.281 20.67-12.49-1.625zm-6.35-5.688-5.9 9.75-8.308 2.685v-0.3179l-4.207-17.8 18.04 0.6712zm-15.32 12.79-5.636 1.802h-9.128l-4.127-20.88 14.31 0.5299zm14.82-19.71-33.97-0.7772-1.058-5.334 34.53-0.5299zm-24.21-19.39 22.75-0.6712 0.6615 9.114-24.61 0.3886 2.064-5.9zm-29.32 0.8478 27.89-0.8125 0.635 2.402-2.963 6.429-27.78 0.4946zm16.46 24.3-7.646-0.3179-1.217-11.38 7.355-0.106zm-19.82-11.52 9.366-0.1413 0.7673 11.23-12.91-0.5299zm20.03 13.18 1.773 14.1h-29l4.048-15.3zm-24.1-22.26-4.604 13.21-3.969 0.1413 2.884-10.07-0.344-2.967zm-19.47 21.27 2.011-6.712 12.59-0.5299-1.958 5.652zm3.307 2.296-4.419 12.43h-12.04l4.683-11.2zm-4.842-15.37-0.6615-7.101 14.05-0.7065 0.4233 3.462-3.016 9.573-13.18 0.4946zm-2.778 6.641 4.921-0.212-1.905 6.818-6.112 0.7772zm-20.45-3.957 16.43-1.554-5.133 8.726-18.2-1.095zm10.48 8.584-7.62 12.89-6.006-3.427 6.562-9.927zm-18.89-1.166 10.74 0.6359-6.509 9.397-4.022-2.296h-8.996zm-10.05 8.902h9.816l10.87 6.253-1.508 2.579h-29.21zm-22.23 14.91h35.3l-21.78 20.28zm46.96 20.24h-26.09l21.22-20.28h8.255zm16.22 0h-12.59l2.884-20.28h16.77zm2.646-26.35 4.075-12.58 7.117-0.7419-4.657 13.32zm24.29 36.88-18.07 0.4239 4.339-16.43 15.19-0.8125zm1.667-19.68-14.63 0.7065 2.884-10.95h12.62zm24 19.08-18.84 0.4592 0.4233-16.96 29.37-1.59zm12.65-20.88-30.98 1.519 0.2646-9.927h26.3l11.3-2.932zm40.77 22.4-32.76-11.83 5.239-11.13 33.44 4.274zm6.8-21.37-18.65-2.438 8.652-20.63 16.59 2.438zm5.583-26.35-2.91-10.32 18.94-1.731 6.376 13.95-5.292 0.6359zm2.963 40.59 2.064-8.832 34.18-2.12 10.69 23.1zm71.57-0.5652-22.7 5.264-10-21.58 32.23 0.9891 13.39 14.91z" style="fill:#fff"/><polygon transform="matrix(.2646 0 0 .3533 -168.6 -84.09)" points="385 539 362.3 529.3 387.1 501.3 413.8 502.5" style="fill:#8dc63f;stroke-width:.8654"/><polygon transform="matrix(.2646 0 0 .3533 -168.6 -84.09)" points="376.9 549.3 266.5 549.3 304.4 524.4 341.5 524.4 382.6 542.1" style="fill:#8dc63f;stroke-width:.8654"/><polygon transform="matrix(.2646 0 0 .3533 -168.6 -84.09)" points="680.3 434.5 766.2 432.6 768.7 458.4 675.8 459.5 683.6 442.9" style="fill:#8dc63f;stroke-width:.8654"/><polygon transform="matrix(.2646 0 0 .3533 -168.6 -84.09)" points="859.9 656.3 736.1 622.8 755.9 591.4 882.4 603.5" style="fill:#8dc63f;stroke-width:.8654"/><polygon transform="matrix(.2646 0 0 .3533 -168.6 -84.09)" points="631.7 505.7 626.1 472.3 598.3 472.7 602.9 504.8" style="fill:#8dc63f;stroke-width:.8654"/><polygon transform="matrix(.2646 0 0 .3533 -168.6 -84.09)" points="462 470.6 452.9 486.8 502.8 485.4 514.1 458.3 512.6 448.5 459.5 450.5" style="fill:#8dc63f;stroke-width:.8654"/><g transform="matrix(.01695 0 0 .01661 33.87 71.12)" style="fill:#fff"><g style="fill:#fff"><path d="m256 0c-88.36 0-160 71.62-160 160 0 24.75 5.625 48.22 15.67 69.12 0.562 1.188 144.3 282.9 144.3 282.9l142.6-279.4c11.12-21.78 17.41-46.47 17.41-72.62 0-88.38-71.62-160-160-160zm0 256c-53.02 0-96-43-96-96s42.98-96 96-96c53 0 96 43 96 96s-43 96-96 96z" style="fill:#ff3eff"/></g></g><path id="geofencepath" d="m-34.01 112.9 9.729-32.55 62.49-0.7484 1.871 16.09-5.426 11.6-18.15 6.548z" style="fill:none;stroke-linecap:round;stroke-linejoin:round;stroke-width:.265;stroke:#000"/><g transform="matrix(.02163 0 0 .02119 -39.55 102.1)" style="fill:#ff0012"><g style="fill:#ff0012"><path d="m256 0c-88.36 0-160 71.62-160 160 0 24.75 5.625 48.22 15.67 69.12 0.562 1.188 144.3 282.9 144.3 282.9l142.6-279.4c11.12-21.78 17.41-46.47 17.41-72.62 0-88.38-71.62-160-160-160zm0 256c-53.02 0-96-43-96-96s42.98-96 96-96c53 0 96 43 96 96s-43 96-96 96z" style="fill:#ff0012"/></g></g><g transform="matrix(.02163 0 0 .02119 11.19 102.8)" style="fill:#0fd10c"><g style="fill:#0fd10c"><path d="m256 0c-88.36 0-160 71.62-160 160 0 24.75 5.625 48.22 15.67 69.12 0.562 1.188 144.3 282.9 144.3 282.9l142.6-279.4c11.12-21.78 17.41-46.47 17.41-72.62 0-88.38-71.62-160-160-160zm0 256c-53.02 0-96-43-96-96s42.98-96 96-96c53 0 96 43 96 96s-43 96-96 96z" style="fill:#0fd10c"/></g></g><g transform="matrix(.01929 0 0 .0189 35.14 86.04)" style="fill-opacity:.9412;fill:#e6203f"><g style="fill-opacity:.9412;fill:#e6203f"><path d="m256 0c-88.36 0-160 71.62-160 160 0 24.75 5.625 48.22 15.67 69.12 0.562 1.188 144.3 282.9 144.3 282.9l142.6-279.4c11.12-21.78 17.41-46.47 17.41-72.62 0-88.38-71.62-160-160-160zm0 256c-53.02 0-96-43-96-96s42.98-96 96-96c53 0 96 43 96 96s-43 96-96 96z" style="fill-opacity:.9412;fill:#e6203f"/></g></g><g transform="matrix(.02163 0 0 .02119 29.12 96.47)" style="fill:#ffb812"><g style="fill:#ffb812"><path d="m256 0c-88.36 0-160 71.62-160 160 0 24.75 5.625 48.22 15.67 69.12 0.562 1.188 144.3 282.9 144.3 282.9l142.6-279.4c11.12-21.78 17.41-46.47 17.41-72.62 0-88.38-71.62-160-160-160zm0 256c-53.02 0-96-43-96-96s42.98-96 96-96c53 0 96 43 96 96s-43 96-96 96z" style="fill:#ffb812"/></g></g><g transform="matrix(.01695 0 0 .01661 -28.62 71.87)" style="fill:#13d7ff"><g style="fill:#13d7ff"><path d="m256 0c-88.36 0-160 71.62-160 160 0 24.75 5.625 48.22 15.67 69.12 0.562 1.188 144.3 282.9 144.3 282.9l142.6-279.4c11.12-21.78 17.41-46.47 17.41-72.62 0-88.38-71.62-160-160-160zm0 256c-53.02 0-96-43-96-96s42.98-96 96-96c53 0 96 43 96 96s-43 96-96 96z" style="fill:#13d7ff"/></g></g></g></svg>
