<?xml version="1.0" encoding="UTF-8" standalone="no"?>
<svg
   xmlns:dc="http://purl.org/dc/elements/1.1/"
   xmlns:cc="http://creativecommons.org/ns#"
   xmlns:rdf="http://www.w3.org/1999/02/22-rdf-syntax-ns#"
   xmlns:svg="http://www.w3.org/2000/svg"
   xmlns="http://www.w3.org/2000/svg"
   xmlns:sodipodi="http://sodipodi.sourceforge.net/DTD/sodipodi-0.dtd"
   xmlns:inkscape="http://www.inkscape.org/namespaces/inkscape"
   width="345.4mm"
   height="98.87mm"
   version="1.1"
   viewBox="0 0 345.4 98.87"
   id="svg50"
   sodipodi:docname="streetmap.svg"
   inkscape:version="0.92.3 (2405546, 2018-03-11)">
  <metadata
     id="metadata56">
    <rdf:RDF>
      <cc:Work
         rdf:about="">
        <dc:format>image/svg+xml</dc:format>
        <dc:type
           rdf:resource="http://purl.org/dc/dcmitype/StillImage" />
      </cc:Work>
    </rdf:RDF>
  </metadata>
  <defs
     id="defs54" />
  <sodipodi:namedview
     pagecolor="#ffffff"
     bordercolor="#666666"
     borderopacity="1"
     objecttolerance="10"
     gridtolerance="10"
     guidetolerance="10"
     inkscape:pageopacity="0"
     inkscape:pageshadow="2"
     inkscape:window-width="1366"
     inkscape:window-height="749"
     id="namedview52"
     showgrid="false"
     inkscape:zoom="0.27117111"
     inkscape:cx="79.285732"
     inkscape:cy="186.84095"
     inkscape:window-x="-4"
     inkscape:window-y="-4"
     inkscape:window-maximized="1"
     inkscape:current-layer="svg50" />
  <g
     transform="translate(157.6 -64.39)"
     id="g48">
    <polygon
       transform="matrix(.2646 0 0 .3533 -168.6 -84.09)"
       points="122.4 656.3 137.6 645.8 302.7 663.5 288.4 675.3"
       style="fill:#726658;stroke-width:.8654"
       id="polygon2" />
    <polygon
       transform="matrix(.2646 0 0 .3533 -168.6 -84.09)"
       points="413.8 586.4 413.8 596.1 317.6 601.9 328.7 591.4"
       style="fill:#726658;stroke-width:.8654"
       id="polygon4" />
    <polygon
       transform="matrix(.2646 0 0 .3533 -168.6 -84.09)"
       points="566.4 606.2 509.1 608.5 492.7 655 561 653.7"
       style="fill:#8dc63f;stroke-width:.8654"
       id="polygon6" />
    <polygon
       transform="matrix(.2646 0 0 .3533 -168.6 -84.09)"
       points="1187 591 1065 588.2 1103 649.3 1188 634.5 1237 633.2"
       style="fill:#8dc63f;stroke-width:.8654"
       id="polygon8" />
    <polygon
       transform="matrix(.2646 0 0 .3533 -168.6 -84.09)"
       points="967.3 487.2 895.7 492 906.7 521.2 971.4 528.5 991.4 526.7"
       style="fill:#8dc63f;stroke-width:.8654"
       id="polygon10" />
    <polygon
       transform="matrix(.2646 0 0 .3533 -168.6 -84.09)"
       points="1012 484.6 1058 476.2 1066 480.4 1020 490.5"
       style="fill:#726658;stroke-width:.8654"
       id="polygon12" />
    <polygon
       transform="matrix(.2646 0 0 .3533 -168.6 -84.09)"
       points="1004 655.8 996.3 607.8 996.3 536.8 1004 536.8 1004 605.2 1012 655.8"
       style="fill:#726658;stroke-width:.8654"
       id="polygon14" />
    <polygon
       transform="matrix(.2646 0 0 .3533 -168.6 -84.09)"
       points="829.1 462.1 842 518.8 853.6 518.8 838.6 462.1"
       style="fill:#726658;stroke-width:.8654"
       id="polygon16" />
    <polygon
       transform="matrix(.2539 0 0 .3533 -160.3 -84.09)"
       points="527.9 514.2 775.9 514.2 771.7 523.4 527.9 523.4"
       style="fill:#84d3ef;stroke-width:.8834"
       id="polygon18" />
    <path
       d="m166.2 141.5 16.59-0.6006-1.773-2.155-16.91 0.6006-14.05-14.52 20.64 0.6359-7.435-7.171-54.74-2.897-2.222-18.9 33.07 4.027-4.18-4.133-11.14-1.484-19-16.82 4.826-0.1983-8.06-2.545-2.585 0.1041-1.342-0.9998c-6.453-1.543-12.93-3.048-19.41-4.488l-2.427 0.881-0.8051-1.63-3.924-0.6116-5.86-0.8907-25.92 0.8014-0.5292-3.458-6.218-0.4281 0.1852 2.367-23.1 0.7419-0.926-3.109h-1.244l0.8202 3.144-27.04 0.8478 0.8134-2.83-5.872 0.5504-1.583 4.082-10.69 0.6006 1.059-3.289-0.9579 0.1236-1.16 3.238-11.46 0.6359-0.1722-1.744-3.981 0.9174v9.552l-0.1058 0.1766-16.32 1.024 3.387-5.794 1.882-2.393-2.758 0.6487-0.9759 1.075-4.921 6.641-5.027 0.3179-34.61 27.77h-9.763l-6.959 6.076h12.73l2.566 3.815-44.19 43.45h11.17l35.16-40.27 11.38 16.96h17.12l-20.61 23.28h7.673l18.92-23.28h27.36l-8.123 23.28h14.05l2.99-11.27 42.17-1.166-7.541 12.43h18.1l10.03-21.23 33.63 12.05-3.387 10.63h15.11l4.974-21.2 49.13 12.36 4.075 8.832h5.371l-7.938-17.17 21.96-5.299 14.55-0.5299 20.69 23.03h8.361zm-57.47-13.49-32.89 1.378 5.212-22.22 8.678 1.272 12.67-1.625 1.27 10.28zm-12.73-40.91 5.001 5.334 0.8467 8.408-7.144 0.8478-6.668-13.85zm6.535-8.938 17.89 16.25-14.66-1.978-14.39-13.88zm-21.95-7.745 21.23 4.922-13.2 0.5625-4.88-4.788-3.156-0.6967 5.046 5.591-6.218 0.2473-2.699-4.345zm7.534 8.275 5.398 5.758-26.96 2.508-2.09-7.419zm-21.54 20.77-23.07-3.427-0.1588-0.1766-2.143-15.44 21.17-0.7772zm2.593-29.85 3.651 6.959-31.96 1.342-0.9525-6.783zm-27.75 31.76 11.01 1.625-8.281 20.67-12.49-1.625zm-6.35-5.688-5.9 9.75-8.308 2.685v-0.3179l-4.207-17.8 18.04 0.6712zm-15.32 12.79-5.636 1.802h-9.128l-4.127-20.88 14.31 0.5299zm14.82-19.71-33.97-0.7772-1.058-5.334 34.53-0.5299zm-24.21-19.39 22.75-0.6712 0.6615 9.114-24.61 0.3886 2.064-5.9zm-29.32 0.8478 27.89-0.8125 0.635 2.402-2.963 6.429-27.78 0.4946zm16.46 24.3-7.646-0.3179-1.217-11.38 7.355-0.106zm-19.82-11.52 9.366-0.1413 0.7673 11.23-12.91-0.5299zm20.03 13.18 1.773 14.1h-29l4.048-15.3zm-24.1-22.26-4.604 13.21-3.969 0.1413 2.884-10.07-0.344-2.967zm-19.47 21.27 2.011-6.712 12.59-0.5299-1.958 5.652zm3.307 2.296-4.419 12.43h-12.04l4.683-11.2zm-4.842-15.37-0.6615-7.101 14.05-0.7065 0.4233 3.462-3.016 9.573-13.18 0.4946zm-2.778 6.641 4.921-0.212-1.905 6.818-6.112 0.7772zm-20.45-3.957 16.43-1.554-5.133 8.726-18.2-1.095zm10.48 8.584-7.62 12.89-6.006-3.427 6.562-9.927zm-18.89-1.166 10.74 0.6359-6.509 9.397-4.022-2.296h-8.996zm-10.05 8.902h9.816l10.87 6.253-1.508 2.579h-29.21zm-22.23 14.91h35.3l-21.78 20.28zm46.96 20.24h-26.09l21.22-20.28h8.255zm16.22 0h-12.59l2.884-20.28h16.77zm2.646-26.35 4.075-12.58 7.117-0.7419-4.657 13.32zm24.29 36.88-18.07 0.4239 4.339-16.43 15.19-0.8125zm1.667-19.68-14.63 0.7065 2.884-10.95h12.62zm24 19.08-18.84 0.4592 0.4233-16.96 29.37-1.59zm12.65-20.88-30.98 1.519 0.2646-9.927h26.3l11.3-2.932zm40.77 22.4-32.76-11.83 5.239-11.13 33.44 4.274zm6.8-21.37-18.65-2.438 8.652-20.63 16.59 2.438zm5.583-26.35-2.91-10.32 18.94-1.731 6.376 13.95-5.292 0.6359zm2.963 40.59 2.064-8.832 34.18-2.12 10.69 23.1zm71.57-0.5652-22.7 5.264-10-21.58 32.23 0.9891 13.39 14.91z"
       style="fill:#fff"
       id="path20" />
    <polygon
       transform="matrix(.2646 0 0 .3533 -168.6 -84.09)"
       points="362.3 529.3 387.1 501.3 413.8 502.5 385 539"
       style="fill:#8dc63f;stroke-width:.8654"
       id="polygon22" />
    <polygon
       transform="matrix(.2646 0 0 .3533 -168.6 -84.09)"
       points="382.6 542.1 376.9 549.3 266.5 549.3 304.4 524.4 341.5 524.4"
       style="fill:#8dc63f;stroke-width:.8654"
       id="polygon24" />
    <polygon
       transform="matrix(.2646 0 0 .3533 -168.6 -84.09)"
       points="683.6 442.9 680.3 434.5 766.2 432.6 768.7 458.4 675.8 459.5"
       style="fill:#8dc63f;stroke-width:.8654"
       id="polygon26" />
    <polygon
       transform="matrix(.2646 0 0 .3533 -168.6 -84.09)"
       points="736.1 622.8 755.9 591.4 882.4 603.5 859.9 656.3"
       style="fill:#8dc63f;stroke-width:.8654"
       id="polygon28" />
    <polygon
       transform="matrix(.2646 0 0 .3533 -168.6 -84.09)"
       points="626.1 472.3 598.3 472.7 602.9 504.8 631.7 505.7"
       style="fill:#8dc63f;stroke-width:.8654"
       id="polygon30" />
    <polygon
       transform="matrix(.2646 0 0 .3533 -168.6 -84.09)"
       points="514.1 458.3 512.6 448.5 459.5 450.5 462 470.6 452.9 486.8 502.8 485.4"
       style="fill:#8dc63f;stroke-width:.8654"
       id="polygon32" />
    <g
       id="geofenceItems"
       transform="matrix(.01695 0 0 .01661 -28.62 71.87)"
       style="fill:#13d7ff">
      <path
         transform="translate(3687 -45.15)"
         d="m256 0c-88.36 0-160 71.62-160 160 0 24.75 5.625 48.22 15.67 69.12 0.562 1.188 144.3 282.9 144.3 282.9l142.6-279.4c11.12-21.78 17.41-46.47 17.41-72.62 0-88.38-71.62-160-160-160zm0 256c-53.02 0-96-43-96-96s42.98-96 96-96c53 0 96 43 96 96s-43 96-96 96z"
         style="fill:#ff3eff"
         id="path34" />
      <path
         id="geofencepath"
         transform="matrix(59 0 0 60.2 1688 -4327)"
         d="m-47.46 149.4 23.18-69 62.49-0.7484 1.871 16.09-5.426 11.6-22.59 41.04z"
         style="fill:none;stroke-linecap:round;stroke-linejoin:round;stroke-width:.265;stroke:#000" />
      <path
         d="m-1112 4011c-112.8 0-204.2 91.37-204.2 204.1 0 31.57 7.178 61.52 20 88.18 0.7172 1.516 184.1 360.9 184.1 360.9l182-356.4c14.19-27.79 22.22-59.28 22.22-92.64 0-112.7-91.39-204.1-204.2-204.1zm0 326.6c-67.66 0-122.5-54.86-122.5-122.5s54.85-122.5 122.5-122.5c67.63 0 122.5 54.86 122.5 122.5s-54.87 122.5-122.5 122.5z"
         style="fill:#ff0012;stroke-width:1.276"
         id="path37" />
      <path
         d="m2400 3950c-112.8 0-204.2 91.37-204.2 204.1 0 31.57 7.178 61.52 20 88.18 0.7172 1.516 184.1 360.9 184.1 360.9l182-356.4c14.19-27.79 22.22-59.28 22.22-92.64 0-112.7-91.39-204.1-204.2-204.1zm0 326.6c-67.66 0-122.5-54.86-122.5-122.5s54.85-122.5 122.5-122.5c67.63 0 122.5 54.86 122.5 122.5s-54.87 122.5-122.5 122.5z"
         style="fill:#0fd10c;stroke-width:1.276"
         id="path39" />
      <path
         transform="matrix(1.138 0 0 1.138 3762 853.1)"
         d="m256 0c-88.36 0-160 71.62-160 160 0 24.75 5.625 48.22 15.67 69.12 0.562 1.188 144.3 282.9 144.3 282.9l142.6-279.4c11.12-21.78 17.41-46.47 17.41-72.62 0-88.38-71.62-160-160-160zm0 256c-53.02 0-96-43-96-96s42.98-96 96-96c53 0 96 43 96 96s-43 96-96 96z"
         style="fill-opacity:.9412;fill:#e6203f"
         id="path41" />
      <path
         transform="matrix(1.276 0 0 1.276 3406 1481)"
         d="m256 0c-88.36 0-160 71.62-160 160 0 24.75 5.625 48.22 15.67 69.12 0.562 1.188 144.3 282.9 144.3 282.9l142.6-279.4c11.12-21.78 17.41-46.47 17.41-72.62 0-88.38-71.62-160-160-160zm0 256c-53.02 0-96-43-96-96s42.98-96 96-96c53 0 96 43 96 96s-43 96-96 96z"
         style="fill:#ffb812"
         id="path43" />
      <path
         d="m256 0c-88.36 0-160 71.62-160 160 0 24.75 5.625 48.22 15.67 69.12 0.562 1.188 144.3 282.9 144.3 282.9l142.6-279.4c11.12-21.78 17.41-46.47 17.41-72.62 0-88.38-71.62-160-160-160zm0 256c-53.02 0-96-43-96-96s42.98-96 96-96c53 0 96 43 96 96s-43 96-96 96z"
         style="fill:#13d7ff"
         id="path45" />
    </g>
  </g>
</svg>
