<svg xmlns="http://www.w3.org/2000/svg" viewBox="0 0 683.68 823.36"><defs><style>.cls-1{opacity:0.35;}.cls-2{fill:#e1edef;}</style></defs><title>Asset 37</title><g id="Layer_2" data-name="Layer 2"><g id="RULES"><g class="cls-1"><path class="cls-2" d="M661.31,149.66a1,1,0,0,1,.71,1.27L479.47,801a1,1,0,0,1-1.27.71L22.37,673.7a1,1,0,0,1-.71-1.27L204.2,22.37a1,1,0,0,1,1.27-.71l455.84,128m5.84-20.81L211.32.85a22.66,22.66,0,0,0-27.93,15.68L.85,666.58a22.65,22.65,0,0,0,15.68,27.93l455.83,128a22.63,22.63,0,0,0,27.92-15.68L682.83,156.78a22.66,22.66,0,0,0-15.68-27.93Z"/><path class="cls-2" d="M508.86,469.81,328.51,419.16a10.81,10.81,0,0,1,5.85-20.81L514.71,449a10.81,10.81,0,1,1-5.85,20.81Z"/><path class="cls-2" d="M216.09,376.37l37.21-20.9a10.8,10.8,0,0,0-10.58-18.84L205.5,357.52l-20.89-37.21a10.81,10.81,0,0,0-18.85,10.58l20.9,37.21L149.44,389A10.81,10.81,0,0,0,160,407.85L197.25,387l20.9,37.22A10.81,10.81,0,0,0,237,413.59Z"/><path class="cls-2" d="M552.69,313.74,372.34,263.09a10.81,10.81,0,0,1,5.84-20.81l180.36,50.65a10.81,10.81,0,0,1-5.85,20.81Z"/><path class="cls-2" d="M219.68,260.42l-22.76-40.53a10.81,10.81,0,0,1,18.85-10.58L227.94,231l75-42.1a10.8,10.8,0,1,1,10.58,18.84Z"/><path class="cls-2" d="M465,625.88,284.68,575.24a10.81,10.81,0,0,1,5.85-20.81l180.35,50.64A10.81,10.81,0,0,1,465,625.88Z"/><path class="cls-2" d="M132,572.56,109.27,532a10.8,10.8,0,0,1,18.84-10.58l12.18,21.68,75-42.1a10.8,10.8,0,0,1,10.58,18.84Z"/></g></g></g></svg>