<svg xmlns="http://www.w3.org/2000/svg" viewBox="0 0 956.39 700.08"><defs><style>.cls-1{opacity:0.35;}.cls-2{fill:#e1edef;}</style></defs><title>Asset 143</title><g id="Layer_2" data-name="Layer 2"><g id="FAQ"><g class="cls-1"><path class="cls-2" d="M793.78,198.23,723.59,187a19.86,19.86,0,1,0-6.27,39.22l70.19,11.22c83.33,13.33,140.55,91.85,127.22,175.18s-92.18,140.1-175.51,126.77l-73.33-11.72c-10.78-1.73-21.41,5.62-23.14,16.41l-13.48,84.31-77.88-112.8a19.25,19.25,0,0,0-12.95-8.31l-92.35-14.76a150.92,150.92,0,0,1-78.79-37.94,19.8,19.8,0,1,0-26.61,29.32,191.4,191.4,0,0,0,99.36,47.67L524,545,625.21,691.48a20,20,0,0,0,13.15,8.34,17.52,17.52,0,0,0,7.28-.25,19.68,19.68,0,0,0,15.07-16.29L678.83,570,733,578.61C838,595.42,937.14,524,954,418.9S898.88,215,793.78,198.23Z"/><path class="cls-2" d="M455.73,429.71c105.1,16.81,204.2-54.62,221-159.71S621.46,66.1,516.37,49.3L223.44,2.45C118.34-14.36,19.25,57.07,2.44,162.16S57.51,366,162.61,382.83l54.11,8.66L198.44,505.8A19.67,19.67,0,0,0,207.68,526a18.79,18.79,0,0,0,7,2.53,20.14,20.14,0,0,0,15.15-4.21l141.94-108ZM354.5,379.94l-109,83.31L259,378.93c1.72-10.78-6-21.86-16.74-23.59l-73.33-11.72C85.55,330.29,28.33,251.76,41.65,168.43s92-140.12,175.52-126.76L510.1,88.51c83.33,13.33,140.55,91.85,127.22,175.18s-92,140.13-175.51,126.77l-92.35-14.77A19.69,19.69,0,0,0,354.5,379.94Z"/><path class="cls-2" d="M328.21,277.8a18.3,18.3,0,0,0-14,3.2,17.79,17.79,0,0,0-7.36,12.09c-.91,5.69.13,10.48,3.36,14.21a19.71,19.71,0,0,0,12.19,6.78,18,18,0,0,0,13.33-2.9,17.65,17.65,0,0,0,7.62-12.45,18,18,0,0,0-15.15-20.93Z"/><path class="cls-2" d="M384.7,142.06q-12.49-8.64-30.14-11.46c-12.55-2-24.13-1.25-34.39,2.54-10.22,3.6-18.55,9.1-24.7,16.16s-10,14.5-11.18,22.14a14.69,14.69,0,0,0,3,11.15,15.71,15.71,0,0,0,10.82,6.55c7.64,1.23,13.66-2.44,17.88-11.21,4.35-8.36,8.91-14.26,14-18.08,4.84-3.85,11.85-4.94,20.67-3.53,7.65,1.22,13.58,4.38,17.56,9.64a21.71,21.71,0,0,1,4.62,17.63,18.64,18.64,0,0,1-3.82,8.84,32.13,32.13,0,0,1-7.11,6.71c-2.7,1.78-7,4.71-12.81,8.41-6.69,4.15-12.12,7.91-16.25,11.07a46.28,46.28,0,0,0-10.53,11.79c-2.94,4.56-4.86,10.28-6,17.14-.87,5.49-.16,9.83,2.34,13.05a15.18,15.18,0,0,0,9.93,5.81c8,1.28,13.6-2.05,16.52-10.23,1.6-3.76,2.63-6.42,3.27-7.92a16.38,16.38,0,0,1,2.72-4.39,33.27,33.27,0,0,1,4.57-4.7,71.48,71.48,0,0,1,7.73-5.6c11.41-7.23,19.31-12.6,23.83-15.7a53.38,53.38,0,0,0,12.13-11.73,38.21,38.21,0,0,0,7-17.38A43.66,43.66,0,0,0,403,163.29,51.9,51.9,0,0,0,384.7,142.06Z"/></g></g></g></svg>