<svg xmlns="http://www.w3.org/2000/svg" viewBox="0 0 822.05 1077.98"><defs><style>.cls-1{opacity:0.35;}.cls-2{fill:#e1edef;}</style></defs><title>Asset 193</title><g id="Layer_2" data-name="Layer 2"><g id="HISTORY"><g class="cls-1"><path class="cls-2" d="M251.5,1076,712,993.72c-23.37-12.29-46.21-28.21-64.9-47.22L241.31,1019a64.74,64.74,0,0,1-75.25-52.42L61.12,379.53,162.58,361.4c66.12-11.82,111-76.32,99.23-142.44l-16.5-92.33L623.78,59A64.74,64.74,0,0,1,699,111.4l11.61,65,54.41,304.37c8.91-2.77,18-4.4,27.15-6,10.26-1.83,19.38-3.46,29.85-4.16l-50.95-285-3.46-19.38-11.61-65A122.09,122.09,0,0,0,613.59,2L216.88,72.89A65.39,65.39,0,0,0,197,80c-6.43,3.5-11.31,9.08-15.06,14.45L10.1,331C5.21,336.59,3,344,.82,351.49c-1.26,6.11-1,14.29.25,21.13l108,604.18C120.88,1042.92,184.24,1088.06,251.5,1076Z"/></g></g></g></svg>