<svg xmlns="http://www.w3.org/2000/svg" viewBox="0 0 556.52 609.86"><defs><style>.cls-1{opacity:0.35;}.cls-2{fill:#e1edef;}</style></defs><title>Asset 168</title><g id="Layer_2" data-name="Layer 2"><g id="ENTER"><g class="cls-1"><path class="cls-2" d="M528,351.76l-.1-.55L413.76,92.71a9.44,9.44,0,0,0-10.35-5.45L286.29,108.83,267.67,7.73a9.44,9.44,0,0,0-11-7.57L122.77,24.82a9.43,9.43,0,0,0-7.57,11L133.82,136.9,22.39,157.42a9.45,9.45,0,0,0-7.73,8.79L0,448.42H0A9,9,0,0,0,.3,450h0l28,152.1a9.42,9.42,0,0,0,11,7.57l509.48-93.82a9.44,9.44,0,0,0,7.58-11L528.45,353.34h0A8.73,8.73,0,0,0,528,351.76ZM135.48,41.68,250.81,20.44,283.23,196.5a9.44,9.44,0,0,0,11,7.57L342,195.28,254,361.89,112.41,237.56l47.73-8.79a9.45,9.45,0,0,0,7.58-11ZM33,174.67l104.25-19.19,10.38,56.39-57.57,10.6a9.44,9.44,0,0,0-4.59,16.08L250.55,384a9.45,9.45,0,0,0,13.33-.83,9.17,9.17,0,0,0,1.28-1.86l102.52-194.7a9.44,9.44,0,0,0-10.07-13.7L300,183.48,289.71,127.4l109.76-20.22L505.69,347.93,364.86,373.87a9.44,9.44,0,0,0-7.58,11L364.49,424,178.65,458.21l-7.21-39.13a9.43,9.43,0,0,0-11-7.57l-141,26ZM536.08,499,44.92,589.47l-24.49-133,134.15-24.71,7.16,38.88a9.44,9.44,0,0,0,11,7.57L377,440.62a9.44,9.44,0,0,0,7.57-11l-7.16-38.88L511.59,366Z"/><path class="cls-2" d="M380.9,475.56,180.64,512.44A9.44,9.44,0,1,0,184.06,531l200.26-36.88a9.44,9.44,0,1,0-3.42-18.57Z"/></g></g></g></svg>