<svg xmlns="http://www.w3.org/2000/svg" viewBox="0 0 458.42 649.59"><defs><style>.cls-1{fill:#be6528;}.cls-2{opacity:0.15;}.cls-3{fill:#231f20;}.cls-3,.cls-5,.cls-7{opacity:0.1;}.cls-4,.cls-5{fill:#fff;}.cls-6{fill:#a5b1b5;}</style></defs><title>Asset 169</title><g id="Layer_2" data-name="Layer 2"><g id="ENTER"><rect class="cls-1" y="59.5" width="458.42" height="590.09" rx="15.33"/><rect class="cls-2" x="-32.61" y="159.08" width="523.65" height="390.22" rx="8.16" transform="translate(583.4 124.98) rotate(90)"/><rect class="cls-3" x="22.65" y="597.62" width="413.13" height="42.38" rx="8.83"/><rect class="cls-4" x="38.9" y="97.16" width="380.62" height="514.05" rx="6.16"/><path class="cls-2" d="M125.79,59.58V97.26a31,31,0,0,0,31,31H301.62a31,31,0,0,0,31-31V59.58Z"/><rect class="cls-5" x="22.65" y="71.49" width="413.13" height="19.19" rx="4"/><path class="cls-6" d="M301.62,38.71H271a41.87,41.87,0,0,0-83.5,0H156.8a16.61,16.61,0,0,0-16.61,16.61V97.26a16.61,16.61,0,0,0,16.61,16.61H301.62a16.62,16.62,0,0,0,16.62-16.61V55.32A16.62,16.62,0,0,0,301.62,38.71ZM229.21,59.5A19.19,19.19,0,1,1,248.4,40.31,19.19,19.19,0,0,1,229.21,59.5Z"/><rect class="cls-7" x="151.38" y="90.68" width="155.66" height="14.39" rx="3"/><path class="cls-5" d="M199.75,33.71a4.79,4.79,0,0,0,4.3-2.7,28,28,0,0,1,50.32,0,4.79,4.79,0,0,0,4.3,2.7h0a4.78,4.78,0,0,0,4.38-6.78,37.61,37.61,0,0,0-67.68,0,4.78,4.78,0,0,0,4.38,6.78Z"/></g></g></svg>