<svg version="1.1" id="SVGTMPLogo" viewBox="0 0 16.93 16.93" xmlns="http://www.w3.org/2000/svg">
   <g transform="translate(-45.06 -141.7)">
      <path d="m53.05 141.9c-.05894.053-.7396.7416-1.315 1.675-.9629-.5186-1.895-.7763-1.972-.7924-.3381-.0711-.6779.1267-.7848.4534-.02349.0719-.2673 1.013-.3022 2.105-1.12.0308-2.052.2934-2.105.3109-.3275.1076-.5214.4478-.4522.7838.0159.0768.2704 1.014.7892 1.982-.9313.5782-1.621 1.263-1.672 1.319-.2294.2571-.2294.6497 0 .9069.05141.0576.7405.7412 1.672 1.319-.5188.9679-.7732 1.905-.7892 1.982-.07039.3365.1241.6758.4522.7838.05817.0195.9855.2802 2.105.3109.03482 1.092.2784 2.032.3022 2.105.09211.2817.3563.4685.6457.4685.04614 0 .09124-.006.137-.0155h.0022c.07395-.0155 1.01-.2706 1.974-.7902.5756.9319 1.257 1.623 1.313 1.673v.00091c.1282.1152.2921.1728.4544.1728.1623 0 .3239-.0596.4522-.1749.05809-.0522.7404-.7422 1.315-1.673.9634.5187 1.899.7748 1.972.7903h.0022c.04572.0103.09081.0155.137.0155.2893 0 .5537-.1866.6457-.4685.02376-.0727.2696-1.013.3044-2.105 1.117-.0312 2.046-.2924 2.102-.3109.3282-.1078.5246-.4473.4544-.7838-.01552-.0739-.2703-1.014-.7892-1.982.9302-.5778 1.619-1.263 1.67-1.319.1534-.172.05187-.3951 0-.6067l.2261-.0453-.2261-.2548c-.05025-.0562-.7395-.7413-1.67-1.319.5189-.9683.7739-1.907.7892-1.98.0702-.3366-.1262-.678-.4544-.786-.04953-.0155-.9837-.2799-2.105-.3109-.03472-1.092-.2783-2.032-.3022-2.105-.1069-.327-.4467-.5244-.7848-.4534-.07584.0155-1.009.2738-1.972.7924-.5757-.9331-1.258-1.624-1.315-1.675-.2565-.2305-.6501-.2305-.9066 0zm.2631.2893c.1103-.0991.2702-.0991.3805 0 .04022.036.7722.7031 1.344 1.712l.09784.1749.1739-.1014c.9973-.5871 1.963-.7986 2.015-.8097.1439-.0303.2839.0496.3305.1922h.0022c.01706.0522.3172.9979.3087 2.159l-.0022.1965h.1978.04566c1.149 0 2.08.3021 2.107.3109.1397.046.222.1877.1913.3347-.01186.0564-.2233 1.022-.8088 2.023l-.09784.1707.1696.0971c1.005.573 1.671 1.305 1.709 1.347.09892.1109.09899.2776 0 .3886-.03764.0422-.7035.7745-1.709 1.347l-.1696.0971.09784.1705c.5853 1.001.7971 1.967.8088 2.023.03064.1468-.05162.2909-.1913.3368h-.0022c-.02158.006-.9554.3088-2.105.3088-.01224 0-.02676.00014-.04348 0l-.2-.003.0022.1986c.0084 1.161-.2937 2.106-.3109 2.159-.04004.1228-.1516.1986-.2718.1986-.01951 0-.03994-.00091-.06086-.006-.05824-.0116-1.017-.2212-2.013-.8075l-.1739-.1036-.09784.1749c-.5712 1.009-1.303 1.678-1.344 1.714-.05511.0494-.1208.0714-.1891.0714-.06811 0-.1362-.0218-.1913-.0714-.04207-.0378-.7722-.7052-1.344-1.714l-.09783-.1749-.1739.1036c-.996.5862-1.956.7954-2.013.8075-.02069.004-.0414.006-.06086.006-.1204 0-.2316-.0757-.2718-.1986-.01726-.0527-.3192-.9978-.3109-2.159l.0022-.1965h-.1978-.04566c-1.149 0-2.085-.3024-2.105-.3088-.1398-.046-.2242-.19-.1935-.3368.01082-.0522.2234-1.022.8088-2.023l.09783-.1706-.1696-.0971c-1.005-.5729-1.672-1.306-1.709-1.347-.09894-.111-.09892-.2778 0-.3886.03745-.0419.7036-.7743 1.709-1.347l.1696-.0971-.09783-.1706c-.5853-1.001-.7979-1.971-.8088-2.023-.03075-.147.05379-.2887.1935-.3347.02345-.007.9555-.3109 2.105-.3109h.04566.1978l-.0022-.1965c-.0084-1.161.2934-2.105.3109-2.159.04658-.1424.1868-.2224.3305-.1922.05145.0116 1.018.2225 2.015.8097l.1739.1014.09784-.1749c.5712-1.009 1.304-1.677 1.344-1.712z" style="color-rendering:auto;color:#000000;dominant-baseline:auto;fill:#f8b624;font-feature-settings:normal;font-variant-alternates:normal;font-variant-caps:normal;font-variant-ligatures:normal;font-variant-numeric:normal;font-variant-position:normal;image-rendering:auto;isolation:auto;mix-blend-mode:normal;shape-padding:0;shape-rendering:auto;solid-color:#000000;text-decoration-color:#000000;text-decoration-line:none;text-decoration-style:solid;text-indent:0;text-orientation:mixed;text-transform:none;white-space:normal"/>
      <path d="m53.05 141.9c-.05996.0539-.8169.7432-1.422 1.812l-.09347.1662.1652.0971c.5963.351 1.202.8353 1.641 1.485l.1631.2418.1631-.2418c.4395-.6501 1.045-1.134 1.641-1.485l.1652-.0971-.09347-.1662c-.6048-1.068-1.359-1.755-1.422-1.812-.2564-.2304-.6522-.2304-.9088 0zm.2631.2893c.1105-.0993.2723-.0991.3826 0 .03756.0338.7032.7017 1.252 1.598-.518.3259-1.025.7549-1.444 1.308-.4179-.5531-.9238-.9826-1.441-1.308.5489-.8957 1.21-1.562 1.25-1.598z" style="color-rendering:auto;color:#000000;dominant-baseline:auto;fill:#f8b624;font-feature-settings:normal;font-variant-alternates:normal;font-variant-caps:normal;font-variant-ligatures:normal;font-variant-numeric:normal;font-variant-position:normal;image-rendering:auto;isolation:auto;mix-blend-mode:normal;shape-padding:0;shape-rendering:auto;solid-color:#000000;text-decoration-color:#000000;text-decoration-line:none;text-decoration-style:solid;text-indent:0;text-orientation:mixed;text-transform:none;white-space:normal"/>
      <path d="m51.72 143.6-.1.1749c-.3616.6388-.6684 1.414-.7305 2.274l-.0087.1317.1174.0583c.08582.0418.1689.0848.25.1317l.2435-.2958c-.01804-.0116-.02511-.0304-.04348-.0411-.04261-.0249-.08693-.046-.1305-.0691.06669-.6452.2948-1.23.5653-1.753.4954.3178.9837.7093 1.363 1.235-.02607.0418-.05338.082-.07827.1252-.2937.5104-.4085 1.051-.5 1.581-.3305-.3972-.6923-.7874-1.176-1.077l-.2413.2958c.5559.322 1 .7666 1.352 1.241l.2957.3995.05652-.4923c.0685-.5882.2332-1.197.5544-1.755.0477-.0829.09711-.1615.15-.2397l.07392-.1102-.07392-.1078c-.4823-.7133-1.136-1.232-1.768-1.604z" style="color-rendering:auto;color:#000000;dominant-baseline:auto;fill:#f8b624;font-feature-settings:normal;font-variant-alternates:normal;font-variant-caps:normal;font-variant-ligatures:normal;font-variant-numeric:normal;font-variant-position:normal;image-rendering:auto;isolation:auto;mix-blend-mode:normal;shape-padding:0;shape-rendering:auto;solid-color:#000000;text-decoration-color:#000000;text-decoration-line:none;text-decoration-style:solid;text-indent:0;text-orientation:mixed;text-transform:none;white-space:normal"/>
      <path d="m55.28 143.6-.1739.1014c-.6091.3586-1.228.8697-1.704 1.544l-.1783.1059.1152.1706c.05295.0785.1026.1592.15.2418h.0022c.3212.5581.4837 1.165.5522 1.753l.05871.4923.2957-.3973c.3524-.475.7965-.9195 1.352-1.242.08104-.0469.1642-.0921.25-.1338l.1196-.0583-.0087-.1295c-.06209-.8592-.371-1.637-.7327-2.276zm-.1652.6089c.271.524.4984 1.109.5653 1.755-.0428.023-.08633.0449-.1283.0691-.508.2943-.8769.7046-1.22 1.116-.09157-.5287-.2088-1.071-.5022-1.58-.02502-.0437-.05202-.0832-.07826-.1252.3794-.5257.8678-.9172 1.363-1.235z" style="color-rendering:auto;color:#000000;dominant-baseline:auto;fill:#f8b624;font-feature-settings:normal;font-variant-alternates:normal;font-variant-caps:normal;font-variant-ligatures:normal;font-variant-numeric:normal;font-variant-position:normal;image-rendering:auto;isolation:auto;mix-blend-mode:normal;shape-padding:0;shape-rendering:auto;solid-color:#000000;text-decoration-color:#000000;text-decoration-line:none;text-decoration-style:solid;text-indent:0;text-orientation:mixed;text-transform:none;white-space:normal"/>
      <path d="m53.5 145-.1631.2418c-.05778.0853-.1125.1742-.1652.2656-.3535.6143-.5312 1.274-.6044 1.902l-.0087.0757.04565.0626c.3045.4104.539.8432.7153 1.235l.1804.3994.1783-.3994c.1648-.3665.3931-.7688.6696-1.155h.1087l-.02608-.2181c-.07313-.6283-.2487-1.288-.6022-1.902-.05269-.0917-.1077-.1804-.1652-.2656zm0 .7384c.2987.5326.4561 1.109.5261 1.669-.2184.306-.3766.6087-.5261.9068-.1496-.2983-.3076-.6007-.5261-.9068.07011-.5604.2272-1.136.5261-1.669z" style="color-rendering:auto;color:#000000;dominant-baseline:auto;fill:#f8b624;font-feature-settings:normal;font-variant-alternates:normal;font-variant-caps:normal;font-variant-ligatures:normal;font-variant-numeric:normal;font-variant-position:normal;image-rendering:auto;isolation:auto;mix-blend-mode:normal;shape-padding:0;shape-rendering:auto;solid-color:#000000;text-decoration-color:#000000;text-decoration-line:none;text-decoration-style:solid;text-indent:0;text-orientation:mixed;text-transform:none;white-space:normal"/>
      <path d="m53.4 154.9-.0587.0863c-.4397.6502-1.045 1.134-1.641 1.485l-.1652.0972.09348.1662c.6048 1.068 1.36 1.756 1.422 1.812.1282.1152.292.1728.4544.1728.1623 0 .3261-.0574.4544-.1728.06189-.0556.8171-.7432 1.422-1.812l.09349-.1662-.1652-.0972c-.5963-.3511-1.202-.8354-1.641-1.485l-.05871-.0863zm.1044.4513c.4182.5536.9256.9825 1.444 1.308-.549.8959-1.214 1.563-1.252 1.598-.05511.0494-.1231.0733-.1913.0733-.06827 0-.1362-.0239-.1913-.0733-.03848-.0347-.7011-.7019-1.25-1.598.5175-.3258 1.023-.7554 1.441-1.308z" style="color-rendering:auto;color:#000000;dominant-baseline:auto;fill:#f8b624;font-feature-settings:normal;font-variant-alternates:normal;font-variant-caps:normal;font-variant-ligatures:normal;font-variant-numeric:normal;font-variant-position:normal;image-rendering:auto;isolation:auto;mix-blend-mode:normal;shape-padding:0;shape-rendering:auto;solid-color:#000000;text-decoration-color:#000000;text-decoration-line:none;text-decoration-style:solid;text-indent:0;text-orientation:mixed;text-transform:none;white-space:normal"/>
      <path d="m54.1 152.5-.05652.4923c-.06847.5884-.2332 1.197-.5544 1.755-.04746.0826-.09707.1614-.15.2396l-.07392.1102.07392.108c.4822.7133 1.136 1.232 1.768 1.604l.1718.1014.1-.1749c.3617-.6389.6683-1.414.7305-2.274l.01083-.1317-.1196-.0581c-.08578-.0418-.1687-.0848-.25-.1317-.5558-.322-1.002-.7666-1.354-1.242zm.2305.8593c.343.4122.7132.8238 1.222 1.118l.1283.0735c-.06731.6436-.2954 1.227-.5653 1.749-.4954-.3178-.9838-.7093-1.363-1.235.02607-.0418.05342-.082.07827-.1252.2937-.5103.4086-1.051.5-1.58z" style="color-rendering:auto;color:#000000;dominant-baseline:auto;fill:#f8b624;font-feature-settings:normal;font-variant-alternates:normal;font-variant-caps:normal;font-variant-ligatures:normal;font-variant-numeric:normal;font-variant-position:normal;image-rendering:auto;isolation:auto;mix-blend-mode:normal;shape-padding:0;shape-rendering:auto;solid-color:#000000;text-decoration-color:#000000;text-decoration-line:none;text-decoration-style:solid;text-indent:0;text-orientation:mixed;text-transform:none;white-space:normal"/>
      <path d="m52.9 152.5-.2957.3994c-.3523.4748-.7986.9173-1.354 1.239-.08116.0472-.1645.0925-.25.1338l-.1196.0583.01082.1295c.06209.8593.3688 1.637.7305 2.276l.09783.1728.1739-.1014c.6317-.372 1.285-.8888 1.768-1.602l.01746-.0281.03261-.1166-.05-.0733c-.05292-.0783-.1023-.1592-.15-.2418-.3212-.5582-.4859-1.165-.5544-1.753zm-.2326.8593c.09157.5287.2088 1.071.5022 1.58.02486.0431.05222.0836.07827.1252-.3787.5248-.8665.9153-1.361 1.233-.2706-.5236-.5007-1.108-.5674-1.753.04281-.0229.08638-.0449.1283-.069.508-.2943.8769-.7047 1.22-1.116z" style="color-rendering:auto;color:#000000;dominant-baseline:auto;fill:#f8b624;font-feature-settings:normal;font-variant-alternates:normal;font-variant-caps:normal;font-variant-ligatures:normal;font-variant-numeric:normal;font-variant-position:normal;image-rendering:auto;isolation:auto;mix-blend-mode:normal;shape-padding:0;shape-rendering:auto;solid-color:#000000;text-decoration-color:#000000;text-decoration-line:none;text-decoration-style:solid;text-indent:0;text-orientation:mixed;text-transform:none;white-space:normal"/>
      <path d="m53.5 151.2-.1783.3994c-.1649.3666-.3932.7689-.6696 1.155h-.1087l.0261.2181c.07315.6284.2487 1.288.6022 1.902.05269.0914.1075.1802.1652.2656l.1631.2418.1631-.2418c.05751-.0851.1147-.174.1674-.2656.3535-.6143.5291-1.274.6022-1.902l.0087-.0777-.04565-.0606c-.3045-.4103-.5391-.8431-.7153-1.235zm0 .868c.1496.2984.3076.6007.5261.9068-.07011.5605-.2272 1.136-.5261 1.669-.2987-.5326-.4561-1.109-.5261-1.669.2184-.3059.3766-.6087.5261-.9068z" style="color-rendering:auto;color:#000000;dominant-baseline:auto;fill:#f8b624;font-feature-settings:normal;font-variant-alternates:normal;font-variant-caps:normal;font-variant-ligatures:normal;font-variant-numeric:normal;font-variant-position:normal;image-rendering:auto;isolation:auto;mix-blend-mode:normal;shape-padding:0;shape-rendering:auto;solid-color:#000000;text-decoration-color:#000000;text-decoration-line:none;text-decoration-style:solid;text-indent:0;text-orientation:mixed;text-transform:none;white-space:normal"/>
      <path d="m48.8 145.3c-1.217 0-2.171.3107-2.231.3304-.3282.1078-.5226.4471-.4522.7838.01726.0829.2326 1.082.8522 2.142l.09783.1683.1696-.0971c.6012-.3425 1.322-.6277 2.102-.6844l.287-.0195-.1239-.2591c-.3412-.7068-.4559-1.476-.4609-2.17v-.0195l-.03913-.1728h-.1565c-.01083 0-.02651-.00091-.04565-.00091zm-.1522.1986c.000104.0136.0085.031.0087.0453l-.0043-.004zm.04348.2073c.022.615.1407 1.273.4109 1.915-.6862.0865-1.31.3118-1.85.5981-.4971-.9235-.7399-1.834-.7501-1.883-.03074-.147.05161-.2909.1913-.3368.019-.006.9309-.2656 1.998-.2936z" style="color-rendering:auto;color:#000000;dominant-baseline:auto;fill:#f8b624;font-feature-settings:normal;font-variant-alternates:normal;font-variant-caps:normal;font-variant-ligatures:normal;font-variant-numeric:normal;font-variant-position:normal;image-rendering:auto;isolation:auto;mix-blend-mode:normal;shape-padding:0;shape-rendering:auto;solid-color:#000000;text-decoration-color:#000000;text-decoration-line:none;text-decoration-style:solid;text-indent:0;text-orientation:mixed;text-transform:none;white-space:normal"/>
      <path d="m48.65 145.3.0022.1965c.0053.7343.1257 1.561.5 2.336l.05652.1187.1326-.0103c.09519-.006.1905-.0116.2848-.0116.6416 0 1.248.1608 1.789.3951l.4544.1965-.1957-.4513c-.2338-.5436-.3935-1.152-.3935-1.796 0-.0959.0016-.1912.0087-.285l.01083-.1317-.1196-.0581c-.6759-.3287-1.459-.4952-2.331-.5009zm.4479.4448c.6635.0334 1.273.1468 1.794.3822-.0018.0496-.0043.099-.0043.1489 0 .5896.1696 1.117.3544 1.622-.5027-.185-1.028-.3563-1.615-.3563h-.1022l-.0022.004c-.01318.00038-.02607.003-.03913.003-.2637-.5924-.3583-1.214-.3848-1.803z" style="color-rendering:auto;color:#000000;dominant-baseline:auto;fill:#f8b624;font-feature-settings:normal;font-variant-alternates:normal;font-variant-caps:normal;font-variant-ligatures:normal;font-variant-numeric:normal;font-variant-position:normal;image-rendering:auto;isolation:auto;mix-blend-mode:normal;shape-padding:0;shape-rendering:auto;solid-color:#000000;text-decoration-color:#000000;text-decoration-line:none;text-decoration-style:solid;text-indent:0;text-orientation:mixed;text-transform:none;white-space:normal"/>
      <path d="m49.45 147.6-.1326.0116c-.8577.0625-1.633.3712-2.27.7341l-.1718.0972.1.1683c.3705.6337.8867 1.291 1.598 1.775l.1109.0757.1109-.0757c.07791-.0531.1591-.1036.2413-.1511.5035-.2917 1.086-.4783 1.746-.5549l.487-.0563-.3913-.2937c-.4734-.3534-.9157-.7998-1.237-1.358-.04758-.0828-.09162-.1654-.1326-.2505zm-.2174.4361c.02279.0431.04284.0869.06741.1296.2946.5119.7048.8837 1.117 1.229-.5679.1017-1.117.2358-1.578.5031-.04261.0246-.0827.0518-.1239.0777-.524-.3812-.9138-.8733-1.231-1.371.522-.2719 1.105-.5007 1.748-.5678z" style="color-rendering:auto;color:#000000;dominant-baseline:auto;fill:#f8b624;font-feature-settings:normal;font-variant-alternates:normal;font-variant-caps:normal;font-variant-ligatures:normal;font-variant-numeric:normal;font-variant-position:normal;image-rendering:auto;isolation:auto;mix-blend-mode:normal;shape-padding:0;shape-rendering:auto;solid-color:#000000;text-decoration-color:#000000;text-decoration-line:none;text-decoration-style:solid;text-indent:0;text-orientation:mixed;text-transform:none;white-space:normal"/>
      <path d="m49.62 147.6c-.1045 0-.2087.003-.3131.0116l-.2848.0239.1239.2548c.0448.0929.09312.1871.1457.2786.3536.6144.8352 1.097 1.341 1.475l.06304.0475.07827-.0103c.2273-.0264.4639-.0411.7088-.0411.251 0 .4922.0136.7153.0366l.2413.0258-.03261-.2915-.02825-.041c-.2504-.3492-.5086-.7689-.7109-1.239l-.03042-.0714-.07173-.0323c-.5794-.2507-1.238-.4275-1.946-.4275zm.03697.3994c.609.006 1.184.1567 1.702.3757.1524.3373.3313.6204.5109.896-.1291-.006-.2506-.0195-.387-.0195-.2249 0-.4414.0136-.6544.0345-.4465-.3408-.863-.762-1.172-1.287z" style="color-rendering:auto;color:#000000;dominant-baseline:auto;fill:#f8b624;font-feature-settings:normal;font-variant-alternates:normal;font-variant-caps:normal;font-variant-ligatures:normal;font-variant-numeric:normal;font-variant-position:normal;image-rendering:auto;isolation:auto;mix-blend-mode:normal;shape-padding:0;shape-rendering:auto;solid-color:#000000;text-decoration-color:#000000;text-decoration-line:none;text-decoration-style:solid;text-indent:0;text-orientation:mixed;text-transform:none;white-space:normal"/>
      <path d="m50.91 145.7-.01957.2872c-.0074.103-.01083.2075-.01083.3131 0 .709.1764 1.369.4261 1.95l.03042.0714.07173.0323c.468.2027.8849.4595 1.233.7104l.3544.2548-.04348-.4318c-.0427-.4278-.05491-.9211.0043-1.429l.02825-.2289-.1565.006c-.3652-.4725-.8046-.9304-1.378-1.263h-.0022c-.08947-.0518-.1807-.0994-.2739-.1447zm.3696.637c.5233.3111.9476.7295 1.287 1.179-.03694.3761-.02365.7192-.0043 1.054-.278-.1831-.5652-.3671-.9066-.5225-.2186-.5208-.3699-1.098-.3761-1.71z" style="color-rendering:auto;color:#000000;dominant-baseline:auto;fill:#f8b624;font-feature-settings:normal;font-variant-alternates:normal;font-variant-caps:normal;font-variant-ligatures:normal;font-variant-numeric:normal;font-variant-position:normal;image-rendering:auto;isolation:auto;mix-blend-mode:normal;shape-padding:0;shape-rendering:auto;solid-color:#000000;text-decoration-color:#000000;text-decoration-line:none;text-decoration-style:solid;text-indent:0;text-orientation:mixed;text-transform:none;white-space:normal"/>
      <path d="m51.12 147.8.1935.4513c.2161.5026.4867.9456.7501 1.313l.05217.0733.08915.0103c.2256.023.433.0534.6153.0863l.1391-.3563.08915.1295c-.03324-.1829-.06427-.3924-.08697-.6197l-.0087-.0863-.07173-.0518c-.3659-.264-.8082-.5346-1.309-.7514zm.8979.9004c.1897.1103.4027.2089.5653.3239.0116.1028.02721.1932.04131.2872-.09126-.0136-.1788-.0273-.2783-.0389-.1159-.1648-.2171-.3795-.3283-.5722z" style="color-rendering:auto;color:#000000;dominant-baseline:auto;fill:#f8b624;font-feature-settings:normal;font-variant-alternates:normal;font-variant-caps:normal;font-variant-ligatures:normal;font-variant-numeric:normal;font-variant-position:normal;image-rendering:auto;isolation:auto;mix-blend-mode:normal;shape-padding:0;shape-rendering:auto;solid-color:#000000;text-decoration-color:#000000;text-decoration-line:none;text-decoration-style:solid;text-indent:0;text-orientation:mixed;text-transform:none;white-space:normal"/>
      <path d="m52.63 146.9-.05652.4923c-.06313.5429-.05121 1.062-.0066 1.511l.01958.19.1152-.0103c.1598.1178.3114.2343.437.3411l.2174.1858.09567-.2677c.06247-.1751.1393-.371.2326-.5787l.03479-.0798-.03479-.0799c-.1853-.4118-.4333-.8676-.7588-1.306zm.3305 1.235c.1095.1912.2447.3843.3283.5657-.04025.0929-.07467.1765-.1087.2634-.07241-.0578-.1411-.115-.2218-.1749-.01784-.199.0026-.4339.0022-.6542z" style="color-rendering:auto;color:#000000;dominant-baseline:auto;fill:#f8b624;font-feature-settings:normal;font-variant-alternates:normal;font-variant-caps:normal;font-variant-ligatures:normal;font-variant-numeric:normal;font-variant-position:normal;image-rendering:auto;isolation:auto;mix-blend-mode:normal;shape-padding:0;shape-rendering:auto;solid-color:#000000;text-decoration-color:#000000;text-decoration-line:none;text-decoration-style:solid;text-indent:0;text-orientation:mixed;text-transform:none;white-space:normal"/>
      <path d="m59.94 151.7-.1696.0971c-.601.3425-1.322.6277-2.102.6844l-.287.0195.1239.2591c.3413.7068.4559 1.474.4609 2.168v.00091l.0066.19.1892.003c.01318.00012.02768 0 .04565 0 1.217 0 2.175-.3098 2.231-.3282.3281-.108.5226-.4493.4522-.7859-.01667-.0789-.2324-1.08-.8522-2.14zm-.1848.5031c.4971.9233.739 1.833.7501 1.885.03072.147-.05176.2887-.1913.3347-.02259.007-.9316.2683-2 .2958-.02203-.6148-.1385-1.273-.4087-1.915.6862-.0865 1.31-.3139 1.85-.6003z" style="color-rendering:auto;color:#000000;dominant-baseline:auto;fill:#f8b624;font-feature-settings:normal;font-variant-alternates:normal;font-variant-caps:normal;font-variant-ligatures:normal;font-variant-numeric:normal;font-variant-position:normal;image-rendering:auto;isolation:auto;mix-blend-mode:normal;shape-padding:0;shape-rendering:auto;solid-color:#000000;text-decoration-color:#000000;text-decoration-line:none;text-decoration-style:solid;text-indent:0;text-orientation:mixed;text-transform:none;white-space:normal"/>
      <path d="m55.14 151.9.1935.4513c.2339.5437.3957 1.152.3957 1.796 0 .0952-.0041.1904-.01083.285l-.01083.1317.1196.0583c.6759.3288 1.46.493 2.331.4988l.2.00091-.0022-.1965c-.0053-.7309-.1275-1.553-.4979-2.325l.1631-.1102h-.2131l-.0087-.0195-.1326.0103c-.0955.006-.1907.0116-.2848.0116-.6415 0-1.248-.1606-1.789-.3951zm.6261.6261c.3525.1297.736.2008 1.133.2483l-.1565.1059h.6392c.04908 0 .09557-.003.1435-.004.2637.5924.3583 1.214.3848 1.803-.6626-.0335-1.274-.147-1.794-.3822.0018-.0496.0043-.0986.0043-.1489 0-.5897-.1695-1.117-.3544-1.622z" style="color-rendering:auto;color:#000000;dominant-baseline:auto;fill:#f8b624;font-feature-settings:normal;font-variant-alternates:normal;font-variant-caps:normal;font-variant-ligatures:normal;font-variant-numeric:normal;font-variant-position:normal;image-rendering:auto;isolation:auto;mix-blend-mode:normal;shape-padding:0;shape-rendering:auto;solid-color:#000000;text-decoration-color:#000000;text-decoration-line:none;text-decoration-style:solid;text-indent:0;text-orientation:mixed;text-transform:none;white-space:normal"/>
      <path d="m58.48 149.9-.2631.1792c-.07772.053-.1569.1036-.2391.1511-.5035.2916-1.088.4783-1.748.5549l-.487.0562.3913.2936c.4734.3536.9157.7999 1.237 1.358.04758.0829.09158.1654.1326.2504l.05871.121.1326-.0116c.8575-.0625 1.633-.371 2.27-.7341l.1718-.0972-.1-.1706c-.3524-.6028-.8611-1.21-1.52-1.686zm-.1826.5894c.5235.3809.914.8716 1.231 1.369-.522.272-1.105.5028-1.748.57-.02278-.0431-.04284-.0867-.06741-.1295-.2941-.511-.7034-.8839-1.115-1.229.5672-.1017 1.117-.236 1.578-.5031.04239-.0245.08075-.0519.1217-.0777z" style="color-rendering:auto;color:#000000;dominant-baseline:auto;fill:#f8b624;font-feature-settings:normal;font-variant-alternates:normal;font-variant-caps:normal;font-variant-ligatures:normal;font-variant-numeric:normal;font-variant-position:normal;image-rendering:auto;isolation:auto;mix-blend-mode:normal;shape-padding:0;shape-rendering:auto;solid-color:#000000;text-decoration-color:#000000;text-decoration-line:none;text-decoration-style:solid;text-indent:0;text-orientation:mixed;text-transform:none;white-space:normal"/>
      <path d="m54.53 150.7.07392.3044.02392.0303c.2504.3493.5065.769.7087 1.239l.03044.0711.07173.0323c.5794.2509 1.238.4275 1.946.4275.1061 0 .2095-.004.3109-.0116l.2892-.0215-.1261-.2591c-.04481-.0929-.09304-.185-.1457-.2764-.3536-.6145-.8352-1.097-1.341-1.475l-.06304-.0475-.07827.0103c-.2273.0265-.4639.041-.7088.041-.2512 0-.4922-.0136-.7153-.0366zm1.646.4189c.4465.3408.863.7619 1.172 1.287-.6089-.006-1.184-.1565-1.702-.3757-.1524-.3372-.3313-.6204-.5109-.896.1291.006.2505.0195.387.0195.2249 0 .4415-.0136.6544-.0345z" style="color-rendering:auto;color:#000000;dominant-baseline:auto;fill:#f8b624;font-feature-settings:normal;font-variant-alternates:normal;font-variant-caps:normal;font-variant-ligatures:normal;font-variant-numeric:normal;font-variant-position:normal;image-rendering:auto;isolation:auto;mix-blend-mode:normal;shape-padding:0;shape-rendering:auto;solid-color:#000000;text-decoration-color:#000000;text-decoration-line:none;text-decoration-style:solid;text-indent:0;text-orientation:mixed;text-transform:none;white-space:normal"/>
      <path d="m54.01 151.1.04348.4318c.0427.4279.05491.9211-.0043 1.429l-.03697.3109.1892-.0668c.3624.4638.792.9144 1.357 1.242.08957.0518.1821.099.2761.1447l.2609.1274.01957-.2872c.0074-.1026.01299-.2074.01299-.3131 0-.7092-.1762-1.369-.4261-1.95l-.03262-.0711-.06958-.0323c-.4679-.2025-.8871-.4595-1.235-.7104zm.4326.7492c.2781.1833.565.3671.9066.5225.2187.5209.3699 1.098.3761 1.71-.5232-.3111-.9476-.7294-1.287-1.179.03694-.3761.02365-.7192.0043-1.054z" style="color-rendering:auto;color:#000000;dominant-baseline:auto;fill:#f8b624;font-feature-settings:normal;font-variant-alternates:normal;font-variant-caps:normal;font-variant-ligatures:normal;font-variant-numeric:normal;font-variant-position:normal;image-rendering:auto;isolation:auto;mix-blend-mode:normal;shape-padding:0;shape-rendering:auto;solid-color:#000000;text-decoration-color:#000000;text-decoration-line:none;text-decoration-style:solid;text-indent:0;text-orientation:mixed;text-transform:none;white-space:normal"/>
      <path d="m53.93 150.6.02608.2656v.0103c.03326.1831.0644.3906.08697.6175l.0087.0887.07173.0518c.3659.264.8082.5347 1.309.7514l.4522.1965-.1935-.4513c-.2161-.5024-.4868-.9455-.7501-1.313l-.05217-.0735-.08697-.0103c-.2255-.0227-.4331-.0534-.6153-.0863zm.45.4685c.092.0136.1801.0273.2805.0389.1156.1644.2153.3801.3261.5722-.1898-.1106-.4026-.2088-.5653-.3239-.0116-.1028-.02719-.1931-.04131-.2872z" style="color-rendering:auto;color:#000000;dominant-baseline:auto;fill:#f8b624;font-feature-settings:normal;font-variant-alternates:normal;font-variant-caps:normal;font-variant-ligatures:normal;font-variant-numeric:normal;font-variant-position:normal;image-rendering:auto;isolation:auto;mix-blend-mode:normal;shape-padding:0;shape-rendering:auto;solid-color:#000000;text-decoration-color:#000000;text-decoration-line:none;text-decoration-style:solid;text-indent:0;text-orientation:mixed;text-transform:none;white-space:normal"/>
      <path d="m53.65 150.8-.09567.2677c-.06244.1749-.1393.371-.2326.5786l-.03697.0798.03697.0798c.1851.412.4311.8677.7566 1.306l.2957.3994.05652-.4923c.06313-.5429.05121-1.062.0066-1.511l-.01532-.1577-.1022-.0116c-.1677-.1228-.3216-.243-.4522-.3541zm.1739.6478c.07238.0577.1411.1149.2218.1749.01785.199-.0025.4339-.0022.6542-.1095-.1912-.2448-.3842-.3283-.5657.04025-.0929.07465-.1765.1087-.2634z" style="color-rendering:auto;color:#000000;dominant-baseline:auto;fill:#f8b624;font-feature-settings:normal;font-variant-alternates:normal;font-variant-caps:normal;font-variant-ligatures:normal;font-variant-numeric:normal;font-variant-position:normal;image-rendering:auto;isolation:auto;mix-blend-mode:normal;shape-padding:0;shape-rendering:auto;solid-color:#000000;text-decoration-color:#000000;text-decoration-line:none;text-decoration-style:solid;text-indent:0;text-orientation:mixed;text-transform:none;white-space:normal"/>
      <path d="m47.24 151.8.08697.2353-.3544-.1662c-.0093.0155-.0038.0155-.01298.0323h-.0022l-.03042.0799c-.5475.9957-.7902 1.951-.8066 2.03-.07023.3365.1241.6758.4522.7838.05985.0199 1.013.3304 2.231.3304h.04348.1957l.0022-.1943c.005-.6938.1195-1.463.4609-2.17l.1239-.2569-.287-.0215c-.7802-.0568-1.501-.3397-2.102-.6823zm.01512.4059c.5397.2864 1.164.5116 1.85.5981-.2701.6419-.3866 1.301-.4087 1.915-1.069-.0277-1.982-.2875-2-.2936-.1398-.046-.222-.1877-.1913-.3347.01005-.0484.2528-.9612.7501-1.885z" style="color-rendering:auto;color:#000000;dominant-baseline:auto;fill:#f8b624;font-feature-settings:normal;font-variant-alternates:normal;font-variant-caps:normal;font-variant-ligatures:normal;font-variant-numeric:normal;font-variant-position:normal;image-rendering:auto;isolation:auto;mix-blend-mode:normal;shape-padding:0;shape-rendering:auto;solid-color:#000000;text-decoration-color:#000000;text-decoration-line:none;text-decoration-style:solid;text-indent:0;text-orientation:mixed;text-transform:none;white-space:normal"/>
      <path d="m48.68 150-.1109.0757c-.7113.484-1.227 1.139-1.598 1.773l-.1.1707.1718.0971c.637.3631 1.41.6718 2.268.7341l.1348.0103.05652-.1189c.04119-.0851.08516-.1701.1326-.2526.3213-.5584.7658-1.005 1.239-1.358l.3913-.2915-.487-.0562c-.6597-.0768-1.244-.2633-1.748-.5549-.08217-.0475-.1612-.0981-.2391-.1511zm.03042.4858c.04096.0258.07943.0533.1217.0777.461.267 1.011.4012 1.578.5031-.4119.3446-.8212.7175-1.115 1.229-.02461.0429-.04462.0865-.06741.1295-.6433-.0671-1.226-.298-1.748-.57.3166-.4972.707-.988 1.231-1.369z" style="color-rendering:auto;color:#000000;dominant-baseline:auto;fill:#f8b624;font-feature-settings:normal;font-variant-alternates:normal;font-variant-caps:normal;font-variant-ligatures:normal;font-variant-numeric:normal;font-variant-position:normal;image-rendering:auto;isolation:auto;mix-blend-mode:normal;shape-padding:0;shape-rendering:auto;solid-color:#000000;text-decoration-color:#000000;text-decoration-line:none;text-decoration-style:solid;text-indent:0;text-orientation:mixed;text-transform:none;white-space:normal"/>
      <path d="m51.87 151.9-.4522.1965c-.5415.2345-1.148.3951-1.789.3951-.0943 0-.1899-.004-.2848-.0116l-.1326-.0103-.05871.1187c-.3744.7751-.4947 1.602-.5 2.336v.1987l.1978-.00091c.7608-.004 1.423-.1871 2.037-.4383v.2116l.137-.2397c.04701-.0209.1127-.0116.1587-.0345l.1174-.0581-.0087-.1317c-.0068-.0942-.01083-.1873-.01083-.2828 0-.6448.1619-1.255.3957-1.799zm-.6261.6283c-.1845.5042-.3566 1.032-.3566 1.622v.1489c-.5193.2344-1.127.3467-1.789.38.02649-.5886.1197-1.209.3826-1.801.04903.00091.09782.004.1478.004.5875 0 1.113-.1691 1.615-.3541z" style="color-rendering:auto;color:#000000;dominant-baseline:auto;fill:#f8b624;font-feature-settings:normal;font-variant-alternates:normal;font-variant-caps:normal;font-variant-ligatures:normal;font-variant-numeric:normal;font-variant-position:normal;image-rendering:auto;isolation:auto;mix-blend-mode:normal;shape-padding:0;shape-rendering:auto;solid-color:#000000;text-decoration-color:#000000;text-decoration-line:none;text-decoration-style:solid;text-indent:0;text-orientation:mixed;text-transform:none;white-space:normal"/>
      <path d="m52.63 150.7-.4326.0453c-.223.0226-.462.0366-.7131.0366-.2447 0-.4811-.0155-.7088-.0411l-.07826-.0103-.06304.0475c-.5063.378-.9877.8601-1.341 1.475-.05263.0915-.1009.1836-.1457.2764l-.1261.2591.2892.0195c.1011.006.2048.0136.3109.0136.7078 0 1.366-.1788 1.946-.4297l.07173-.0303.03042-.0714c.2023-.4703.4583-.89.7087-1.239zm-1.798.434c.1393.0136.2838.0195.4283.0237l-.0022.0136h.2261c.1364 0 .2579-.0116.387-.0195-.1796.2757-.3585.5589-.5109.8961-.52.2197-1.096.3723-1.707.3779.3095-.5272.7302-.9495 1.178-1.291z" style="color-rendering:auto;color:#000000;dominant-baseline:auto;fill:#f8b624;font-feature-settings:normal;font-variant-alternates:normal;font-variant-caps:normal;font-variant-ligatures:normal;font-variant-numeric:normal;font-variant-position:normal;image-rendering:auto;isolation:auto;mix-blend-mode:normal;shape-padding:0;shape-rendering:auto;solid-color:#000000;text-decoration-color:#000000;text-decoration-line:none;text-decoration-style:solid;text-indent:0;text-orientation:mixed;text-transform:none;white-space:normal"/>
      <path d="m52.59 151.2-.01299.1383c-.3355.2371-.7238.4783-1.165.6693l-.06958.0323-.03042.0711c-.2497.5809-.4283 1.241-.4283 1.95 0 .1053.0054.2096.01299.3131l.02173.2872.2609-.1274c.09372-.0456.1839-.0925.2739-.1447.6126-.3549 1.095-.8398 1.472-1.347l.04565-.0626-.0087-.0757c-.05574-.4793-.04105-.9371-.0043-1.347l.2413-.1726-.3805-.1144zm-.02173.5916c-.0192.3344-.0325.6775.0043 1.054-.3395.4494-.7639.8679-1.287 1.179.0062-.6121.1575-1.189.3761-1.71.3419-.1555.6284-.3392.9066-.5225z" style="color-rendering:auto;color:#000000;dominant-baseline:auto;fill:#f8b624;font-feature-settings:normal;font-variant-alternates:normal;font-variant-caps:normal;font-variant-ligatures:normal;font-variant-numeric:normal;font-variant-position:normal;image-rendering:auto;isolation:auto;mix-blend-mode:normal;shape-padding:0;shape-rendering:auto;solid-color:#000000;text-decoration-color:#000000;text-decoration-line:none;text-decoration-style:solid;text-indent:0;text-orientation:mixed;text-transform:none;white-space:normal"/>
      <path d="m53.39 150.9-.2152.0323-.04348.0366c-.1414.1202-.3049.2515-.4892.3843l-.07173.0496-.0087.0887c-.04488.4497-.05895.9685.0043 1.511l.05652.4923.2957-.3994c.3254-.4386.5735-.8944.7588-1.306l.03479-.0798-.03479-.0798c-.09338-.2077-.1702-.4037-.2326-.5786zm-.2152.5312c.03399.0867.06635.1706.1065.2634-.08321.1807-.2172.3733-.3261.5635.000469-.2198-.02015-.4535-.0022-.6521.08094-.0599.1492-.1169.2218-.1749z" style="color-rendering:auto;color:#000000;dominant-baseline:auto;fill:#f8b624;font-feature-settings:normal;font-variant-alternates:normal;font-variant-caps:normal;font-variant-ligatures:normal;font-variant-numeric:normal;font-variant-position:normal;image-rendering:auto;isolation:auto;mix-blend-mode:normal;shape-padding:0;shape-rendering:auto;solid-color:#000000;text-decoration-color:#000000;text-decoration-line:none;text-decoration-style:solid;text-indent:0;text-orientation:mixed;text-transform:none;white-space:normal"/>
      <path d="m53.33 150.6-.5153.095c-.1821.033-.3897.0637-.6153.0863l-.08915.0103-.05217.0735c-.2633.3672-.5339.8103-.7501 1.313l-.1935.4513.4522-.1965c.5007-.2167.943-.4875 1.309-.7514l.07173-.0518.0087-.0863c.0211-.2111.04991-.4028.08044-.5765zm-.7109.516c-.01416.0941-.02967.1844-.04131.2872-.1628.1152-.3753.2155-.5653.326.1112-.1928.2102-.4094.3261-.5743.1004-.0116.1885-.025.2805-.0391z" style="color-rendering:auto;color:#000000;dominant-baseline:auto;fill:#f8b624;font-feature-settings:normal;font-variant-alternates:normal;font-variant-caps:normal;font-variant-ligatures:normal;font-variant-numeric:normal;font-variant-position:normal;image-rendering:auto;isolation:auto;mix-blend-mode:normal;shape-padding:0;shape-rendering:auto;solid-color:#000000;text-decoration-color:#000000;text-decoration-line:none;text-decoration-style:solid;text-indent:0;text-orientation:mixed;text-transform:none;white-space:normal"/>
      <path d="m50.56 149.1v.2526c-.63.0944-1.222.2565-1.726.5484-.09116.0527-.1801.1084-.2652.1662l-.2348.1619.237.1598c.08489.0577.1718.1135.2631.1662.5549.3214 1.194.5225 1.9.6046l.0761.0116.06304-.0475c.4088-.3051.8403-.5402 1.231-.7168l.3913-.1771-.3913-.1792c-.3903-.1765-.8217-.4116-1.231-.7168zm.1696.5981c.3062.2199.6083.3808.9066.5312-.2972.1499-.5993.3101-.9044.529-.6261-.0789-1.186-.254-1.67-.529.4831-.2748 1.042-.452 1.668-.5312z" style="color-rendering:auto;color:#000000;dominant-baseline:auto;fill:#f8b624;font-feature-settings:normal;font-variant-alternates:normal;font-variant-caps:normal;font-variant-ligatures:normal;font-variant-numeric:normal;font-variant-position:normal;image-rendering:auto;isolation:auto;mix-blend-mode:normal;shape-padding:0;shape-rendering:auto;solid-color:#000000;text-decoration-color:#000000;text-decoration-line:none;text-decoration-style:solid;text-indent:0;text-orientation:mixed;text-transform:none;white-space:normal"/>
      <path d="m51.49 149.2c-.2594 0-.5112.0155-.7544.0433l-.487.0563.3935.2936c.4372.3265.8916.5742 1.302.76l.08044.0367.08262-.0367c.1617-.073.3069-.1295.45-.1834l.3435.4058-.08915-.665-.03262-.2397-.09347.0345c-.0971-.1187-.1963-.2396-.3-.3843l-.05217-.0735-.08915-.0103c-.2347-.0235-.4885-.0389-.7544-.0389zm0 .3908c.2236 0 .4349.0136.637.0323.06135.0832.1191.1544.1783.2289-.08723.0342-.1719.0673-.2652.108-.2008-.093-.4144-.2395-.6261-.3649.02608-.00033.04981-.004.0761-.004z" style="color-rendering:auto;color:#000000;dominant-baseline:auto;fill:#f8b624;font-feature-settings:normal;font-variant-alternates:normal;font-variant-caps:normal;font-variant-ligatures:normal;font-variant-numeric:normal;font-variant-position:normal;image-rendering:auto;isolation:auto;mix-blend-mode:normal;shape-padding:0;shape-rendering:auto;solid-color:#000000;text-decoration-color:#000000;text-decoration-line:none;text-decoration-style:solid;text-indent:0;text-orientation:mixed;text-transform:none;white-space:normal"/>
      <path d="m52.02 150-.08044.0389c-.4106.1858-.8673.4336-1.304.76l-.3913.2915.487.0581c.2433.0283.4951.0411.7544.0411.266 0 .5196-.0155.7544-.0389l-.2131-.231.3544.1511c.1323-.1844.2609-.3488.3805-.4901l.1826-.2138-.2652-.095c-.1744-.0626-.3693-.1396-.5761-.2332zm.01512.4318c.09241.0403.1766.0717.2631.1059-.05983.0752-.1184.1468-.1804.231-.2008.0175-.4105.0323-.6327.0323-.0263 0-.05002-.004-.0761-.004.2118-.1252.4254-.2718.6261-.3649z" style="color-rendering:auto;color:#000000;dominant-baseline:auto;fill:#f8b624;font-feature-settings:normal;font-variant-alternates:normal;font-variant-caps:normal;font-variant-ligatures:normal;font-variant-numeric:normal;font-variant-position:normal;image-rendering:auto;isolation:auto;mix-blend-mode:normal;shape-padding:0;shape-rendering:auto;solid-color:#000000;text-decoration-color:#000000;text-decoration-line:none;text-decoration-style:solid;text-indent:0;text-orientation:mixed;text-transform:none;white-space:normal"/>
      <path d="m57.97 145.3-.0022.1943c-.0049.6937-.1196 1.463-.4609 2.17l-.1239.2569.287.0215c.7802.0568 1.501.342 2.102.6844l-.09566-.1986.3631.1274c.6198-1.06.8357-2.063.8522-2.142.0702-.3366-.1241-.6758-.4522-.7838-.05244-.0174-1.013-.3303-2.231-.3303h-.04348zm.3457.4059c1.068.0273 1.975.2853 2 .2936.1397.046.222.1877.1913.3347-.01108.0525-.2529.9618-.7501 1.885-.5396-.2863-1.164-.5116-1.85-.5981.27-.6419.3866-1.301.4087-1.915z" style="color-rendering:auto;color:#000000;dominant-baseline:auto;fill:#f8b624;font-feature-settings:normal;font-variant-alternates:normal;font-variant-caps:normal;font-variant-ligatures:normal;font-variant-numeric:normal;font-variant-position:normal;image-rendering:auto;isolation:auto;mix-blend-mode:normal;shape-padding:0;shape-rendering:auto;solid-color:#000000;text-decoration-color:#000000;text-decoration-line:none;text-decoration-style:solid;text-indent:0;text-orientation:mixed;text-transform:none;white-space:normal"/>
      <path d="m57.56 147.6-.05652.1208c-.04103.0851-.08505.1678-.1326.2505-.3213.5582-.7637 1.005-1.237 1.358l-.3935.2936.487.0562c.6596.0766 1.244.2632 1.748.5549.08206.0475.1611.0982.2392.1511l.1109.0757.1131-.0757c.7113-.484 1.227-1.139 1.598-1.773l.09783-.1707-.1718-.0972c-.6369-.3629-1.41-.6718-2.268-.7341zm.2196.4361c.6424.0669 1.224.2965 1.746.5679-.3167.4978-.7066.9898-1.231 1.371-.04093-.0258-.07939-.0531-.1217-.0777-.461-.267-1.011-.4013-1.578-.5031.4013-.3357.7982-.7029 1.089-1.196.0077-.0135.02066-.0195.02826-.0323.02457-.0429.0446-.0865.06741-.1296z" style="color-rendering:auto;color:#000000;dominant-baseline:auto;fill:#f8b624;font-feature-settings:normal;font-variant-alternates:normal;font-variant-caps:normal;font-variant-ligatures:normal;font-variant-numeric:normal;font-variant-position:normal;image-rendering:auto;isolation:auto;mix-blend-mode:normal;shape-padding:0;shape-rendering:auto;solid-color:#000000;text-decoration-color:#000000;text-decoration-line:none;text-decoration-style:solid;text-indent:0;text-orientation:mixed;text-transform:none;white-space:normal"/>
      <path d="m58.36 145.3-.1978.003c-.8711.006-1.655.1722-2.331.5009l-.03479.0174-.06523-.0778v.1102l-.01958.0103.0087.1295c.0068.0947.01083.1897.01083.285 0 .6446-.1618 1.255-.3957 1.799l-.1935.4512.4544-.1965c.5415-.2344 1.146-.3951 1.787-.3951.09588 0 .1905.00091.2826.0103l.1348.0116.05871-.1209c.3744-.7751.4947-1.6.5-2.334zm-.4457.4469c-.02654.5893-.1211 1.208-.3848 1.801-.04825-.00091-.09733-.004-.1457-.004-.5867 0-1.111.1695-1.613.3541.1361-.372.2167-.7756.2609-1.196l.09347.1102v-.5355c0-.0496-.0049-.0979-.0066-.1468.5208-.236 1.131-.3487 1.796-.3822z" style="color-rendering:auto;color:#000000;dominant-baseline:auto;fill:#f8b624;font-feature-settings:normal;font-variant-alternates:normal;font-variant-caps:normal;font-variant-ligatures:normal;font-variant-numeric:normal;font-variant-position:normal;image-rendering:auto;isolation:auto;mix-blend-mode:normal;shape-padding:0;shape-rendering:auto;solid-color:#000000;text-decoration-color:#000000;text-decoration-line:none;text-decoration-style:solid;text-indent:0;text-orientation:mixed;text-transform:none;white-space:normal"/>
      <path d="m57.38 147.6c-.7077 0-1.366.1767-1.946.4275l-.07176.0323-.03042.0714c-.2023.4704-.4584.8902-.7087 1.239l-.25.3498.4305-.0433c.2231-.0226.4641-.0345.7153-.0345.2448 0 .4791.0116.7066.0388l.07826.0103.06304-.0453c.5062-.378.9899-.8624 1.344-1.477.05253-.0915.1009-.1834.1457-.2764l.1239-.2591-.2892-.0195c-.1011-.006-.2047-.0136-.3109-.0136zm-.03262.3973c-.3095.527-.7281.9495-1.176 1.291-.1333-.0136-.2706-.0195-.4087-.0239l.0022-.0136h-.2457c-.1372 0-.2594.0116-.3892.0195.1796-.2757.3585-.5588.5109-.8961.5201-.2196 1.096-.3723 1.707-.3778z" style="color-rendering:auto;color:#000000;dominant-baseline:auto;fill:#f8b624;font-feature-settings:normal;font-variant-alternates:normal;font-variant-caps:normal;font-variant-ligatures:normal;font-variant-numeric:normal;font-variant-position:normal;image-rendering:auto;isolation:auto;mix-blend-mode:normal;shape-padding:0;shape-rendering:auto;solid-color:#000000;text-decoration-color:#000000;text-decoration-line:none;text-decoration-style:solid;text-indent:0;text-orientation:mixed;text-transform:none;white-space:normal"/>
      <path d="m56.09 145.7-.2609.1252c-.09379.0456-.1861.0946-.2761.1468-.6128.3549-1.095.8397-1.472 1.347l-.04566.0606.0087.0778c.05593.4798.04128.9368.0043 1.347l-.1478.108.2348.1555.2718.1792.02173-.2267c.3355-.2371.724-.4783 1.165-.6693l.06956-.0303.03262-.0711c.2499-.5809.4261-1.241.4261-1.95 0-.1059-.0056-.2106-.01298-.3131zm-.3696.637c-.0062.6122-.1574 1.189-.3761 1.71-.3418.1555-.6284.3392-.9066.5225.0192-.3345.03259-.6776-.0043-1.054.3396-.4495.7637-.8678 1.287-1.179z" style="color-rendering:auto;color:#000000;dominant-baseline:auto;fill:#f8b624;font-feature-settings:normal;font-variant-alternates:normal;font-variant-caps:normal;font-variant-ligatures:normal;font-variant-numeric:normal;font-variant-position:normal;image-rendering:auto;isolation:auto;mix-blend-mode:normal;shape-padding:0;shape-rendering:auto;solid-color:#000000;text-decoration-color:#000000;text-decoration-line:none;text-decoration-style:solid;text-indent:0;text-orientation:mixed;text-transform:none;white-space:normal"/>
      <path d="m54.38 146.9-.2957.3994c-.3254.4386-.5735.8943-.7588 1.306l-.03479.0798.03479.0798c.09345.2076.1702.4037.2326.5787l.04348.1209.2087.0136.06087-.0518c.1411-.1202.3072-.2515.4913-.3844l.06958-.0518.0087-.0863c.04488-.4495.05909-.9684-.0043-1.511zm-.3305 1.235c-.000411.2206.02023.455.0022.6542-.08143.0606-.1509.1166-.2239.1749-.03409-.0871-.06616-.1705-.1065-.2634.08356-.1815.2188-.3746.3283-.5657z" style="color-rendering:auto;color:#000000;dominant-baseline:auto;fill:#f8b624;font-feature-settings:normal;font-variant-alternates:normal;font-variant-caps:normal;font-variant-ligatures:normal;font-variant-numeric:normal;font-variant-position:normal;image-rendering:auto;isolation:auto;mix-blend-mode:normal;shape-padding:0;shape-rendering:auto;solid-color:#000000;text-decoration-color:#000000;text-decoration-line:none;text-decoration-style:solid;text-indent:0;text-orientation:mixed;text-transform:none;white-space:normal"/>
      <path d="m55.89 147.8-.4522.1965c-.5006.2167-.9431.4874-1.309.7514l-.07173.0518-.0087.0863c-.02269.2271-.05384.4365-.08697.6197l.08915-.1295.1413.3563c.1821-.033.3896-.0636.6153-.0863l.08697-.0103.05217-.0733c.2633-.3672.534-.8102.7501-1.313zm-.8979.9004c-.1112.1926-.2124.4074-.3283.5722-.09952.0116-.187.025-.2783.0389.01416-.0941.02967-.1844.04131-.2872.1625-.1151.3756-.2136.5653-.3239z" style="color-rendering:auto;color:#000000;dominant-baseline:auto;fill:#f8b624;font-feature-settings:normal;font-variant-alternates:normal;font-variant-caps:normal;font-variant-ligatures:normal;font-variant-numeric:normal;font-variant-position:normal;image-rendering:auto;isolation:auto;mix-blend-mode:normal;shape-padding:0;shape-rendering:auto;solid-color:#000000;text-decoration-color:#000000;text-decoration-line:none;text-decoration-style:solid;text-indent:0;text-orientation:mixed;text-transform:none;white-space:normal"/>
      <path d="m56.45 149.1-.3131.2332c-.4088.3053-.8403.5402-1.231.7168l-.3913.1792.3913.1771c.3903.1767.8217.4116 1.231.7168l.06304.0475.07827-.0116c.7061-.0819 1.343-.2831 1.898-.6046.09135-.0527.1802-.1082.2652-.1662l.2348-.1598-.2348-.1619c-.08485-.0577-.1738-.1135-.2652-.1662-.5047-.2924-1.095-.4563-1.726-.5506zm-.1674.5981c.6254.0791 1.182.2563 1.665.5312-.4835.275-1.042.4501-1.668.529-.3056-.2194-.6088-.3788-.9066-.529.2988-.1507.6021-.3107.9088-.5312z" style="color-rendering:auto;color:#000000;dominant-baseline:auto;fill:#f8b624;font-feature-settings:normal;font-variant-alternates:normal;font-variant-caps:normal;font-variant-ligatures:normal;font-variant-numeric:normal;font-variant-position:normal;image-rendering:auto;isolation:auto;mix-blend-mode:normal;shape-padding:0;shape-rendering:auto;solid-color:#000000;text-decoration-color:#000000;text-decoration-line:none;text-decoration-style:solid;text-indent:0;text-orientation:mixed;text-transform:none;white-space:normal"/>
      <path d="m54.99 150-.08262.0367c-.2068.0937-.4018.1705-.5761.2332l-.2652.0951.1826.2137c.1196.1416.2483.3057.3805.4901l.05217.0735.08915.0103c.2348.0237.4883.0388.7544.0388.2594 0 .5112-.0155.7544-.0433l.487-.0562-.3935-.2937c-.4372-.3263-.8917-.5742-1.302-.76zm-.01512.4297c.2007.093.4144.2396.6261.3649-.02607.00031-.04982.004-.0761.004-.2229 0-.4334-.0136-.6348-.0323-.06155-.0836-.1189-.1542-.1783-.2289.08666-.0341.1704-.0676.2631-.108z" style="color-rendering:auto;color:#000000;dominant-baseline:auto;fill:#f8b624;font-feature-settings:normal;font-variant-alternates:normal;font-variant-caps:normal;font-variant-ligatures:normal;font-variant-numeric:normal;font-variant-position:normal;image-rendering:auto;isolation:auto;mix-blend-mode:normal;shape-padding:0;shape-rendering:auto;solid-color:#000000;text-decoration-color:#000000;text-decoration-line:none;text-decoration-style:solid;text-indent:0;text-orientation:mixed;text-transform:none;white-space:normal"/>
      <path d="m55.05 148.8-.4283.5981c-.1322.1844-.2631.3486-.3826.4901l-.1804.2138.2631.0951c.1743.0626.3692.1396.5761.2332l.08262.0366.08044-.0366c.4106-.1858.8672-.4336 1.304-.76l.3913-.2915-.487-.0583c-.2432-.028-.495-.0411-.7544-.0411-.1825 0-.3487.0136-.5174.0258zm.4653.868c.02628 0 .05002.004.0761.004-.2118.1252-.4254.2718-.6261.3649-.09296-.0406-.1762-.0737-.2631-.108.0595-.075.1187-.145.1804-.2288.2008-.0175.4105-.0323.6327-.0323z" style="color-rendering:auto;color:#000000;dominant-baseline:auto;fill:#f8b624;font-feature-settings:normal;font-variant-alternates:normal;font-variant-caps:normal;font-variant-ligatures:normal;font-variant-numeric:normal;font-variant-position:normal;image-rendering:auto;isolation:auto;mix-blend-mode:normal;shape-padding:0;shape-rendering:auto;solid-color:#000000;text-decoration-color:#000000;text-decoration-line:none;text-decoration-style:solid;text-indent:0;text-orientation:mixed;text-transform:none;white-space:normal"/>
      <path d="m53.5 148.2-.1804.3973c-.05773.1283-.09729.2405-.1435.3584-.09857-.0787-.1884-.1555-.3022-.2375l-.3544-.2548.04348.4318c.01416.1418.03537.2599.05437.3865-.1248-.0195-.2407-.04-.3805-.0539l-.4305-.0433.25.352c.08244.1149.1601.2049.2392.3044-.1185.0468-.2296.0882-.3587.1468l-.3935.1771.3935.177c.1292.0585.2403.1001.3587.1468-.07902.0995-.1567.1895-.2392.3044l-.25.352.4305-.0433c.1398-.0136.2557-.0351.3805-.0539-.019.1263-.0402.2428-.05437.3843l-.04348.434.3544-.2569c.1136-.0819.2038-.1567.3022-.2353.04619.1179.08575.23.1435.3584l.1804.3973.1783-.3973c.05779-.1286.09942-.2405.1457-.3584.09844.0785.1886.1534.3022.2353l.3544.2569-.04348-.434c-.01416-.1414-.03541-.2581-.05437-.3843.1248.0195.2406.04.3805.0539l.4305.0433-.2522-.352c-.08234-.1148-.158-.2051-.237-.3044.1181-.0465.2299-.0887.3587-.1468l.3913-.177-.3913-.1771c-.1288-.0584-.2406-.1002-.3587-.1468.07893-.0993.1547-.1896.237-.3044l.2522-.352-.4305.0433c-.1398.0136-.2557.0351-.3805.0539.019-.1264.04019-.2446.05437-.3865l.04348-.4318-.3544.2548c-.1138.082-.2036.1588-.3022.2375-.04623-.1179-.08787-.2299-.1457-.3584zm0 1.002c.0161.0426.03991.0934.05437.1338l.09567.2677.2174-.1834c.03218-.0273.07631-.0602.1109-.0887-.0074.0456-.01185.1018-.01957.1447l-.05.2785.2783-.0518c.04307-.007.09986-.0116.1457-.0195-.02964.0364-.06278.0828-.09131.1165l-.1826.2138.2652.095c.04208.0155.09473.0392.1391.0562-.04439.0174-.09707.041-.1391.0562l-.2652.095.1826.2138c.02854.0338.06165.0803.09131.1166-.04581-.007-.1026-.0116-.1457-.0195l-.2783-.0518.05.2785c.0077.0429.01198.0991.01957.1447-.03493-.0288-.08056-.0609-.1131-.0887l-.2152-.1835-.09567.2677c-.01455.0406-.03832.0911-.05436.1338-.0161-.0426-.03989-.0933-.05437-.1338l-.09567-.2677-.2174.1835c-.03219.0273-.07629.0602-.1109.0887.0074-.0456.01185-.1018.01958-.1447l.04999-.2785-.2783.0518c-.0432.007-.09974.0136-.1457.0215.02992-.0366.06251-.0848.0913-.1187l.1804-.2138-.2631-.095c-.04208-.0155-.09473-.0392-.1391-.0562.04441-.0174.09706-.0411.1391-.0562l.2631-.095-.1804-.2138c-.0288-.0339-.06137-.082-.0913-.1187.04591.007.1025.0136.1457.0215l.2783.0518-.04999-.2785c-.0077-.0429-.01198-.0991-.01958-.1447.03458.0285.0787.0611.1109.0887l.2174.1834.09567-.2677c.01455-.0406.03829-.0911.05437-.1338z" style="color-rendering:auto;color:#000000;dominant-baseline:auto;fill:#f8b624;font-feature-settings:normal;font-variant-alternates:normal;font-variant-caps:normal;font-variant-ligatures:normal;font-variant-numeric:normal;font-variant-position:normal;image-rendering:auto;isolation:auto;mix-blend-mode:normal;shape-padding:0;shape-rendering:auto;solid-color:#000000;text-decoration-color:#000000;text-decoration-line:none;text-decoration-style:solid;text-indent:0;text-orientation:mixed;text-transform:none;white-space:normal"/>
   </g>
</svg>
