<svg version="1.1" viewBox="0 0 35.31 16.93" xmlns="http://www.w3.org/2000/svg">
   <g transform="translate(-55.51 -144.8)">
      <path d="m63.92 153.2-.3505.5009-.6823-.0126.3943-.5635q-1.158-.2004-2.059-.8453-1.903 1.54-3.618 1.54-.7386 0-1.352-.3945-.6072-.3944-.6072-.9893 0-.3256.1815-.5072.1878-.1878.4131-.1878.2066 0 .3505.144.144.1377.144.3318 0 .169-.1252.288-.1189.1189-.2942.1189-.3943 0-.4194-.5134l-.02503-.006q-.1502.1817-.1502.4007 0 .5072.5946.8828.5946.3757 1.371.3757.9264 0 1.947-.5134 1.02-.5134 1.54-1.021-1.396-1.315-1.396-2.824 0-.9267.4882-1.565.4945-.6449 1.227-.6449.8325 0 1.515.6699.6823.6637 1.039 1.753 2.598-2.404 3.712-3.156 1.114-.7514 2.009-1.121.9014-.3757 1.696-.407l-1.759 1.597q-1.258 1.14-3.155 3.369-1.897 2.223-2.579 3.231 1.064-.0562 1.771-.6386l.04382.0438q-.7073.5823-1.865.6637zm.1377-3.5q.09389.3569.09389.7388 0 .9392-.5571 2.198l.05008.025q1.659-2.285 3.962-4.596 2.303-2.31 3.574-2.999l-.01247-.0438q-1.214.1126-2.854 1.133-1.64 1.021-4.256 3.544zm-2.836 2.492q.4945-.3757 1.446-1.246.9514-.8765 1.327-1.284-.2566-.8954-.8951-1.546-.6322-.6512-1.39-.6512-.7887 0-1.321.5823-.5258.5823-.5258 1.465 0 1.453 1.358 2.68zm2.103.8765q.7699-1.465.7699-2.623 0-.3381-.08137-.7138-1.565 1.546-2.742 2.511.3255.2692.9327.5197.6072.2442 1.12.3068z" style="fill:#f8b624;stroke-width:.2646;stroke:#f8b624"/>
      <path d="m65.79 152.5-.0438-.0438.6322-.5197q.9389-.7701 1.333-.7701.3443 0 .3443.3882 0 .3506-.5383.9392l.02505.025q1.602-1.327 2.191-1.327.1878 0 .2942.1065.1127.1065.1127.2379 0 .3631-.5946.9955l.02503.0126q.4194-.4007.8575-.7138.4444-.313.7449-.4508.3067-.1377.5195-.1377.4131 0 .4131.3569 0 .313-.2316.6073-.2316.288-1.027.9267-.2191.1815-.2191.288 0 .2254.2879.2254.2817 0 .6447-.2192.3693-.2191 1.233-.9705l.04382.0438q-1.02.8703-1.365 1.046-.338.169-.5633.169-.1753 0-.3005-.1189-.1189-.1253-.1189-.2943 0-.2317.1753-.4758.1815-.2442.7324-.6699.5571-.432.5571-.6574 0-.1754-.2441-.1754-.313 0-.82.2818-.5008.2755-1.152.8703l-.7511.695q-.3317.3068-.5133.5009l-.5759.0126.8575-.8515q.6885-.6825.9201-.958.2316-.2817.2316-.4258 0-.0625-.0626-.1253-.0626-.0627-.1565-.0627-.2817 0-.8826.3882-.6009.3819-1.264.958l-1.202 1.064-.5633.0126.2253-.2504.8075-.7952q.6385-.6261.845-.8703.2066-.2504.2066-.3882 0-.1377-.1627-.1377-.2316 0-.6572.288-.4256.2818-1.252.9705z" style="fill:#f8b624;stroke-width:.2646;stroke:#f8b624"/>
      <path d="m72.85 152.5-.04382-.0438 1.49-1.24q.2817-.2379.6134-.4132l1.69-1.703q.845-.8515 1.853-1.634 1.008-.7826 1.446-.7826.3818 0 .3818.3318 0 .4446-.6322 1.089-.6322.6386-1.715 1.315-1.077.6699-1.684.9329-.6072.263-.7386.407l-1.346 1.471q-.845.9266-.845 1.221 0 .1126.09389.1878.1001.0752.2191.0752.3443 0 .989-.3944.6447-.4007 1.039-.7952.1565-.4258.4632-.8453.313-.4258.4444-.4258.09389 0 .09389.1126 0 .1627-.3818.6324-.3756.4633-.5884.6073-.02503.0878-.02503.1503 0 .0939.07511.1627.07511.0627.169.0627.1189 0 .2504-.0752.1377-.0752.5759-.4508l.03755.0438-.3756.3193q-.2629.2254-.507.2254-.1127 0-.2128-.0752-.09389-.0813-.1001-.2504-1.402 1.077-1.928 1.077-.194 0-.3317-.1377-.1377-.144-.1377-.3632 0-.5259.507-1.127l1.02-1.121q.0061-.006.05008-.0314l-.01882-.0377q-.2692.144-.4444.3131-.1753.1627-.7762.6512zm2.942-2.035q-.03755.0438.5446-.2316.3693-.169.8701-.4508.7136-.4007 1.196-.7388.482-.3381.9014-.7451.4194-.407.6009-.67.1878-.2692.2379-.3944.05634-.1316.05634-.2317 0-.2504-.2879-.2504-.3943 0-1.196.6825-.7949.6762-1.69 1.653z" style="fill:#f8b624;stroke-width:.2646;stroke:#f8b624"/>
      <path d="m76.78 152.5-.0438-.0438.9514-.7826q.2253-.1817.3192-.2818-.2003-.1189-.2003-.3256 0-.1316.08763-.2317.09389-.1002.2066-.1002.08137 0 .144.0688.06885.0688.06885.169 0 .1002-.06885.1754-.06885.0688-.169.0688-.06885 0-.144-.0501-.0061.0251-.0061.0314 0 .0564.08763.1126.08763.0564.2566.0564.2441 0 .5258-.1253l.3317.3694q-.1189.2317-.4945.576-.3693.3381-.7386.7263-.3693.3819-.4194.4571-.05008.0752-.05008.144 0 .1754.2003.1754.2379 0 .7386-.2755.5008-.2818 1.277-.958l.04382.0438q-1.458 1.258-2.072 1.258-.1815 0-.2879-.1126-.1001-.1189-.1001-.3068 0-.2379.1502-.4759.1565-.2379.6635-.7326.507-.4946.7011-.7388l-.02503-.0438q-.2629.0939-.4882.0939-.0626 0-.1315-.0189z" style="fill:#f8b624;stroke-width:.2646;stroke:#f8b624"/>
      <path d="m82.41 152.5.0438.0438q-.2316.2191-.4757.2191-.2003 0-.338-.144-.4632.4884-.989.8202-.5258.3318-.8763.3318-.1815 0-.3067-.1316-.1252-.1316-.1252-.3631 0-.5322.4757-1.021.4757-.4946 1.089-.7639.6197-.2755.9827-.2755.3568 0 .3568.3381 0 .3506-.5633 1.008.1127.1377.3004.1377.2128 0 .4256-.2004zm-.2191-.9642q0-.1189-.09389-.1941-.08763-.0752-.2003-.0752-.4757 0-1.44.9517-.9577.9517-.9577 1.259 0 .0876.08763.1627.08763.0688.2003.0688.2629 0 .7511-.2692.4945-.2755.8638-.6637.3756-.3945.5821-.7012.2066-.3131.2066-.5385z" style="fill:#f8b624;stroke-width:.2646;stroke:#f8b624"/>
      <path d="m82.46 152.5-.0438-.0438 2.297-1.922.03755.0625q-.2629.2129-.338.3193-.07511.1065-.07511.2692 0 .1314.04383.407.0438.2692.0438.4946 0 .4571-.3255.8452l.5634-.4758.0438.0438q-1.408 1.24-2.285 1.24-.2128 0-.3693-.119-.1502-.1252-.1502-.3193 0-.144.1001-.2442.09389-.1065.2253-.1065.08137 0 .1377.0562.0626.0564.0626.1316 0 .1065-.08763.1941-.08137.0813-.1753.0813-.03755 0-.1001-.0189 0 .2755.3505.2755.4945 0 1.114-.72.6259-.72.6885-1.515.02505-.2567.08763-.4633z" style="fill:#f8b624;stroke-width:.2646;stroke:#f8b624"/>
      <path d="m87.79 150q0 .1377-.1127.2316-.1127.0939-.2379.0939-.08765 0-.1502-.0627-.0626-.0688-.0626-.1627 0-.1189.1064-.2254.1064-.1065.2379-.1065.09389 0 .1565.0688.0626.0688.0626.1627zm-3.073 2.504-.04382-.0438q.3067-.263 1.546-1.227h.6072l-1.984 1.953q-.1127.1126-.1502.2254v.0438q0 .0813.0626.144.0626.0625.1565.0625.2003 0 .5633-.2004.3693-.2067 1.283-1.002l.04378.0438q-1.396 1.221-1.884 1.221-.1565 0-.2566-.1002-.09389-.1002-.09389-.2692 0-.2379.1565-.5009.1627-.2692 1.202-1.271l-.01247-.0314-.5759.4383z" style="fill:#f8b624;stroke-width:.2646;stroke:#f8b624"/>
      <path d="m89.96 151.3h.5571l-1.759 1.835q-.2566.2692-.2566.432 0 .1065.06881.1627.07513.0501.1502.0501.1502 0 .482-.2192.3317-.2254 1.277-1.033l.04378.0438q-1.008.8515-1.34 1.058-.3255.2004-.4945.2004-.1502 0-.2379-.1065-.08135-.1126-.08135-.263 0-.263.2566-.6574l-.02503-.0189q-1.271 1.046-1.734 1.046-.1941 0-.3067-.1564-.1064-.1627-.1064-.4195 0-.7138 1.002-1.327 1.008-.6199 1.696-.6199.3568 0 .3568.3005 0 .0688-.01247.1754zm-.532.2943q0-.2254-.2879-.2254-.5195 0-1.527.9079-1.002.9016-1.002 1.271 0 .0813.06881.1566.06881.0688.1941.0688.1815 0 .5946-.2317.4194-.2317 1.027-.7513.6072-.5197.7699-.7513.1627-.2379.1627-.4446z" style="fill:#f8b624;stroke-width:.2646;stroke:#f8b624"/>
      <path d="m55.83 156.7.2843-.0261q.03317.2726.218.3982.1848.1257.4502.1257.282 0 .4218-.1114.1422-.1137.1422-.2749 0-.1114-.07108-.192-.06873-.083-.1896-.1257-.1208-.0451-.4313-.1162-.2298-.052-.3862-.1208-.1564-.0688-.2535-.1992-.09714-.1303-.09714-.3129 0-.1943.09241-.3295.09477-.1352.282-.2133.1872-.0806.4218-.0806.4099 0 .6232.1872.2156.1871.2298.4906l-.2867.0213q-.04738-.4361-.5521-.4361-.5213 0-.5213.3413 0 .0996.06397.173.06399.0712.1635.1067.1019.0356.3128.0829.3744.0853.5071.1469.1327.0615.2156.1446.08293.0806.1232.1825.04264.1019.04264.2252 0 .3176-.2441.4977-.2441.1802-.5948.1802-.4692 0-.7109-.211-.2417-.2109-.2559-.5546z" style="fill:#f8b624;font-feature-settings:normal;font-variant-caps:normal;font-variant-ligatures:normal;font-variant-numeric:normal"/>
      <path d="m58.01 157.4v-1.643h.2488v.2299q.173-.2678.4976-.2678.3625 0 .4644.2868.1967-.2868.5071-.2868.5095 0 .5095.5523v1.128h-.2772v-1.036q0-.4029-.2938-.4029-.4005 0-.4005.4835v.9552h-.2796v-1.067q0-.3721-.2915-.3721-.1351 0-.2251.0615-.09004.0594-.1351.1802-.04503.1208-.04503.3437v.8533z" style="fill:#f8b624;font-feature-settings:normal;font-variant-caps:normal;font-variant-ligatures:normal;font-variant-numeric:normal"/>
      <path d="m61.73 157.2q-.2843.2418-.6066.2418-.2559 0-.4099-.1257-.1517-.128-.1517-.346 0-.1257.0545-.2252.0545-.0996.1801-.1754.1256-.0783.4123-.1137.3436-.0427.4976-.0947v-.0735q0-.3342-.3957-.3342-.2156 0-.3033.0806-.0853.0806-.1256.2323l-.2701-.0356q.1066-.5072.7393-.5072.1777 0 .3033.0379.128.0379.2061.1137.08057.0758.1043.1707.0237.0949.0237.2987v.7229q0 .052.01903.1518.02133.0996.06873.1848h-.2915q-.04264-.0878-.0545-.2038zm-.0237-.621q-.1469.0594-.455.1044-.2488.0356-.3199.1067-.07108.0712-.07108.173 0 .2607.3294.2607.1161 0 .2085-.0284.09241-.0307.1588-.0924.06873-.0615.109-.1518.04029-.0924.04029-.2702z" style="fill:#f8b624;font-feature-settings:normal;font-variant-caps:normal;font-variant-ligatures:normal;font-variant-numeric:normal"/>
      <path d="m62.41 157.4v-1.643h.2512v.2489q.1564-.2868.3554-.2868.1398 0 .2843.0901l-.09477.2584q-.1019-.0615-.2038-.0615-.1066 0-.1777.0594-.06873.0594-.1043.1943-.03317.1352-.03317.2797v.8604z" style="fill:#f8b624;font-feature-settings:normal;font-variant-caps:normal;font-variant-ligatures:normal;font-variant-numeric:normal"/>
      <path d="m64.08 157.2.04029.2465q-.1185.0238-.2109.0238-.1303 0-.218-.0379-.0853-.0404-.128-.1185-.04027-.0781-.04027-.346v-.9457h-.2038v-.2157h.2038v-.4077l.2772-.1659v.5736h.2796v.2157h-.2796v.9623q0 .1114.01416.1518.01416.0379.04977.0568.03554.0168.09241.0168.04738 0 .1232-.0105z" style="fill:#f8b624;font-feature-settings:normal;font-variant-caps:normal;font-variant-ligatures:normal;font-variant-numeric:normal"/>
      <path d="m65.48 157.4v-2.268h1.528v.2678h-1.23v.7016h1.064v.2678h-1.064v1.031z" style="fill:#f8b624;font-feature-settings:normal;font-variant-caps:normal;font-variant-ligatures:normal;font-variant-numeric:normal"/>
      <path d="m67.26 156.6q0-.4266.218-.6423.218-.2157.5521-.2157.2109 0 .3791.0878.1682.0853.2796.2749.1114.1897.1114.474 0 .4527-.2251.6684-.2227.2133-.545.2133-.2417 0-.4123-.1019-.1706-.1042-.2654-.2963-.09241-.192-.09241-.4622zm.2867 0q0 .2015.05924.3437.0616.1423.1659.2157.1066.0712.2583.0712.2346 0 .3578-.173.1256-.173.1256-.4669 0-.282-.128-.4503-.128-.1682-.3554-.1682-.2441 0-.3649.1802-.1185.1779-.1185.448z" style="fill:#f8b624;font-feature-settings:normal;font-variant-caps:normal;font-variant-ligatures:normal;font-variant-numeric:normal"/>
      <path d="m69.02 156.6q0-.4266.218-.6423.218-.2157.5521-.2157.2109 0 .3791.0878.1682.0853.2796.2749.1114.1897.1114.474 0 .4527-.2251.6684-.2227.2133-.545.2133-.2417 0-.4123-.1019-.1706-.1042-.2654-.2963-.09241-.192-.09241-.4622zm.2867 0q0 .2015.05924.3437.0616.1423.1659.2157.1066.0712.2583.0712.2346 0 .3578-.173.1256-.173.1256-.4669 0-.282-.128-.4503-.128-.1682-.3554-.1682-.2441 0-.3649.1802-.1185.1779-.1185.448z" style="fill:#f8b624;font-feature-settings:normal;font-variant-caps:normal;font-variant-ligatures:normal;font-variant-numeric:normal"/>
      <path d="m71.96 157.4v-.2061q-.1564.2441-.4597.2441-.3294 0-.5189-.2465-.1872-.2489-.1872-.6115 0-.2678.08767-.4622.08769-.1943.2393-.2963.1516-.1019.3673-.1019.2891 0 .4526.2252v-.813h.2772v2.268zm-.8815-.8201q0 .1848.05213.3271.0545.1421.154.2228.1019.0781.2417.0781.2038 0 .3199-.1636.1185-.1659.1185-.4409 0-.3058-.1185-.4788-.1185-.1754-.3317-.1754-.436 0-.436.6305z" style="fill:#f8b624;font-feature-settings:normal;font-variant-caps:normal;font-variant-ligatures:normal;font-variant-numeric:normal"/>
      <path d="m75.03 157.2q-.2749.3058-.6516.3058-.2061 0-.3602-.0806-.154-.0829-.2559-.2394-.1019-.1587-.1019-.3437 0-.4195.5403-.6779-.2535-.2939-.2535-.4977 0-.2157.1635-.3603.1635-.1446.3981-.1446.154 0 .2725.064.1185.064.1872.173.06873.1067.06873.2465 0 .3223-.4289.5523l.4076.5191q.06873-.1375.1066-.3152l.2891.0615q-.07346.2963-.199.4882.154.2063.3531.3484l-.1872.2204q-.1682-.109-.3483-.32zm-.5663-1.183q.2891-.1682.2891-.365 0-.0996-.06634-.1802-.06399-.0829-.1919-.0829-.09714 0-.1801.0665-.08293.064-.08293.1848 0 .109.109.2347zm.391.9623-.5095-.6329q-.3839.2299-.3839.4788 0 .1754.1232.3058.1256.1303.2986.1303.2915 0 .4715-.282z" style="fill:#f8b624;font-feature-settings:normal;font-variant-caps:normal;font-variant-ligatures:normal;font-variant-numeric:normal"/>
      <path d="m76.95 157.4v-2.268h.8507q.3933 0 .5711.173.1801.1707.1801.4077 0 .3248-.3175.4812.4289.1257.4289.5499 0 .6565-.8483.6565zm.3009-1.315h.4905q.1659 0 .2701-.0213.1066-.0238.1753-.1019.07107-.0806.07107-.2133 0-.1375-.06399-.218-.0616-.0829-.173-.1067-.1114-.0238-.3175-.0238h-.4526zm0 1.048h.564q.1114 0 .1967-.0105.0853-.0126.1682-.0568.08294-.0448.1256-.1257.04503-.0829.04503-.1966 0-.1848-.1185-.2868-.1185-.1044-.4573-.1044h-.5237z" style="fill:#f8b624;font-feature-settings:normal;font-variant-caps:normal;font-variant-ligatures:normal;font-variant-numeric:normal"/>
      <path d="m80.17 156.9.2867.0356q-.1422.5309-.7227.5309-.2464 0-.4218-.0996-.173-.1019-.2678-.2892-.09241-.1897-.09241-.4574 0-.4006.2061-.6352.2061-.237.5616-.237.0782 0 .1493.0126.06873.0126.1327.0356.06397.0238.1185.0594.05687.0356.1043.0806.04976.0499.09004.109.04264.0617.07346.1303.02843.0688.04738.1492.01903.0781.02607.1659.0025.0261.0025.1872h-1.225q.01416.2584.1469.41.1327.1493.3507.1493.3128 0 .4336-.3366zm-.9147-.4504h.917q-.01903-.237-.1445-.3532-.1256-.1185-.3057-.1185-.1327 0-.2322.0594-.09953.0568-.1635.1612-.0616.1042-.07108.2513z" style="fill:#f8b624;font-feature-settings:normal;font-variant-caps:normal;font-variant-ligatures:normal;font-variant-numeric:normal"/>
      <path d="m81.26 157.4-.6256-1.643h.2938l.3531.9836q.05687.1587.1043.3318.03791-.1303.1043-.3129l.3649-1.003h.2867l-.6232 1.643z" style="fill:#f8b624;font-feature-settings:normal;font-variant-caps:normal;font-variant-ligatures:normal;font-variant-numeric:normal"/>
      <path d="m83.51 156.9.2867.0356q-.1422.5309-.7227.5309-.2464 0-.4218-.0996-.173-.1019-.2678-.2892-.09241-.1897-.09241-.4574 0-.4006.2061-.6352.2062-.237.5616-.237.0782 0 .1493.0126.06873.0126.1327.0356.06399.0238.1185.0594.05687.0356.1043.0806.04977.0499.09004.109.04266.0617.07346.1303.02843.0688.04738.1492.01903.0781.02607.1659.0025.0261.0025.1872h-1.225q.01416.2584.1469.41.1327.1493.3507.1493.3128 0 .4336-.3366zm-.9147-.4504h.917q-.01903-.237-.1445-.3532-.1256-.1185-.3057-.1185-.1327 0-.2322.0594-.09953.0568-.1635.1612-.0616.1042-.07107.2513z" style="fill:#f8b624;font-feature-settings:normal;font-variant-caps:normal;font-variant-ligatures:normal;font-variant-numeric:normal"/>
      <path d="m84.15 157.4v-1.643h.2512v.2489q.1564-.2868.3554-.2868.1398 0 .2843.0901l-.09477.2584q-.1019-.0615-.2038-.0615-.1066 0-.1777.0594-.06873.0594-.1043.1943-.03317.1352-.03317.2797v.8604z" style="fill:#f8b624;font-feature-settings:normal;font-variant-caps:normal;font-variant-ligatures:normal;font-variant-numeric:normal"/>
      <path d="m86.28 157.2q-.2844.2418-.6066.2418-.2559 0-.4099-.1257-.1516-.128-.1516-.346 0-.1257.0545-.2252.0545-.0996.1801-.1754.1256-.0783.4123-.1137.3436-.0427.4976-.0947v-.0735q0-.3342-.3957-.3342-.2156 0-.3033.0806-.0853.0806-.1256.2323l-.2701-.0356q.1066-.5072.7393-.5072.1777 0 .3033.0379.1279.0379.2061.1137.08052.0758.1043.1707.0237.0949.0237.2987v.7229q0 .052.01903.1518.02135.0996.06873.1848h-.2915q-.0427-.0878-.0545-.2038zm-.0237-.621q-.1469.0594-.455.1044-.2488.0356-.3199.1067-.07108.0712-.07108.173 0 .2607.3294.2607.1161 0 .2085-.0284.09241-.0307.1588-.0924.06873-.0615.109-.1518.04027-.0924.04027-.2702z" style="fill:#f8b624;font-feature-settings:normal;font-variant-caps:normal;font-variant-ligatures:normal;font-variant-numeric:normal"/>
      <path d="m86.92 157.6.2701.0402q.03558.2607.3768.2607.128 0 .218-.0356.09241-.0356.1469-.1067.05685-.0688.07585-.1564.02135-.0878.02135-.3532-.1824.2157-.455.2157-.2156 0-.3744-.1042-.1564-.1044-.2464-.2892-.09008-.1874-.09008-.4385 0-.3887.1943-.6186.1943-.2299.5166-.2299.2915 0 .481.2346v-.1968h.2559v1.42q0 .3105-.04503.4551-.04503.1446-.1374.2394-.09241.0973-.2322.1446-.1398.0499-.327.0499-.327 0-.4929-.1446-.1635-.1446-.1564-.3864zm.2299-.986q0 .621.4502.621.2133 0 .3317-.1636.1185-.1636.1185-.448 0-.2726-.1232-.4409-.1208-.1682-.3317-.1682-.2204 0-.3341.1754-.1114.1754-.1114.4243z" style="fill:#f8b624;font-feature-settings:normal;font-variant-caps:normal;font-variant-ligatures:normal;font-variant-numeric:normal"/>
      <path d="m89.85 156.9.2867.0356q-.1422.5309-.7227.5309-.2464 0-.4218-.0996-.173-.1019-.2678-.2892-.09241-.1897-.09241-.4574 0-.4006.2062-.6352.2061-.237.5616-.237.0782 0 .1493.0126.06873.0126.1327.0356.06395.0238.1185.0594.05685.0356.1043.0806.04972.0499.09008.109.0427.0617.07342.1303.02845.0688.04738.1492.01903.0781.02602.1659.0027.0261.0027.1872h-1.225q.01416.2584.1469.41.1327.1493.3507.1493.3128 0 .4336-.3366zm-.9146-.4504h.917q-.01903-.237-.1445-.3532-.1256-.1185-.3057-.1185-.1327 0-.2322.0594-.09953.0568-.1635.1612-.0616.1042-.07108.2513z" style="fill:#f8b624;font-feature-settings:normal;font-variant-caps:normal;font-variant-ligatures:normal;font-variant-numeric:normal"/>
      <path d="m56.07 161v-2.428h.9105q.421 0 .6113.1852.1928.1827.1928.4364 0 .3476-.3399.515.4591.1345.4591.5886 0 .7028-.908.7028zm.3221-1.408h.525q.1775 0 .2891-.0229.1141-.0253.1877-.109.07609-.0863.07609-.2283 0-.1472-.06847-.2334-.06594-.0888-.1852-.1141-.1192-.0253-.3399-.0253h-.4844zm0 1.121h.6036q.1192 0 .2105-.0105.09131-.0126.1801-.0608.08877-.0482.1344-.1345.0482-.0888.0482-.2106 0-.1979-.1268-.307-.1268-.1116-.4895-.1116h-.5605z" style="fill:#f8b624;font-feature-settings:normal;font-variant-caps:normal;font-variant-ligatures:normal;font-variant-numeric:normal"/>
      <path d="m59.45 161v-.2588q-.2029.2994-.558.2994-.1623 0-.2815-.0457-.1167-.0457-.1902-.137-.07355-.0914-.1015-.208-.02537-.1192-.02537-.3197v-1.088h.2968v.9742q0 .2283.01522.3095.01776.0785.06086.137.04564.0583.1167.0888.07101.0303.1699.0303.1775 0 .2866-.0785.1091-.0813.1446-.208.03552-.1269.03552-.3121v-.9412h.2993v1.758z" style="fill:#f8b624;font-feature-settings:normal;font-variant-caps:normal;font-variant-ligatures:normal;font-variant-numeric:normal"/>
      <path d="m60.07 160.5.2942-.0457q.05328.3653.4565.3653.4033 0 .4033-.2791 0-.1015-.07101-.1497-.07101-.0482-.3221-.1116-.1623-.0406-.2917-.076-.1268-.0381-.2257-.1065-.09638-.0684-.1446-.1573-.0482-.0914-.0482-.2055 0-.132.06342-.241.06594-.1116.2105-.1878.1446-.0785.3728-.0785.2105 0 .3576.0533.1471.0533.2283.1598.08116.104.1116.2816l-.2917.0381q-.04311-.2867-.3855-.2867-.3804 0-.3804.2258 0 .0634.03552.109.03805.0457.08879.0659.05327.0211.2891.0863.06086.0147.2739.0735.2156.0583.3246.1802.1116.1192.1116.2943 0 .2588-.2029.4085-.2029.1497-.5073.1497-.6493 0-.7508-.5658z" style="fill:#f8b624;font-feature-settings:normal;font-variant-caps:normal;font-variant-ligatures:normal;font-variant-numeric:normal"/>
      <path d="m61.89 158.9v-.3425h.2968v.3425zm0 2.085v-1.758h.2968v1.758z" style="fill:#f8b624;font-feature-settings:normal;font-variant-caps:normal;font-variant-ligatures:normal;font-variant-numeric:normal"/>
      <path d="m62.64 161v-1.758h.2689v.2486q.1928-.2892.5605-.2892.5986 0 .5986.6393v1.159h-.2968v-1.071q0-.4694-.3652-.4694-.4667 0-.4667.5785v.9615z" style="fill:#f8b624;font-feature-settings:normal;font-variant-caps:normal;font-variant-ligatures:normal;font-variant-numeric:normal"/>
      <path d="m65.73 160.4.3069.0381q-.1522.5683-.7736.5683-.2638 0-.4515-.1065-.1852-.109-.2866-.3095-.09892-.2029-.09892-.4897 0-.4287.2207-.6799.2207-.2537.6011-.2537.0837 0 .1598.0126.07357.0126.142.0381.06848.0253.1268.0634.06086.0381.1116.0863.05325.0533.09638.1166.04564.0659.07862.1396.03044.0735.05072.1598.0203.0838.02791.1777.0025.028.0025.2004h-1.311q.01522.2765.1572.4389.142.1598.3754.1598.3348 0 .4641-.3603zm-.979-.482h.9816q-.0203-.2537-.1547-.378-.1344-.1267-.3272-.1267-.142 0-.2486.0634-.1065.0608-.175.1726-.06594.1116-.07609.2689z" style="fill:#f8b624;font-feature-settings:normal;font-variant-caps:normal;font-variant-ligatures:normal;font-variant-numeric:normal"/>
      <path d="m66.29 160.5.2942-.0457q.05325.3653.4565.3653.4033 0 .4033-.2791 0-.1015-.07101-.1497-.07101-.0482-.3221-.1116-.1623-.0406-.2917-.076-.1268-.0381-.2257-.1065-.09638-.0684-.1446-.1573-.0482-.0914-.0482-.2055 0-.132.06342-.241.06594-.1116.2105-.1878.1446-.0785.3728-.0785.2105 0 .3576.0533.1471.0533.2283.1598.08116.104.1116.2816l-.2917.0381q-.04311-.2867-.3855-.2867-.3805 0-.3805.2258 0 .0634.03552.109.03803.0457.08879.0659.05327.0211.2891.0863.06086.0147.2739.0735.2156.0583.3246.1802.1116.1192.1116.2943 0 .2588-.2029.4085-.2029.1497-.5073.1497-.6493 0-.7508-.5658z" style="fill:#f8b624;font-feature-settings:normal;font-variant-caps:normal;font-variant-ligatures:normal;font-variant-numeric:normal"/>
      <path d="m67.98 160.5.2942-.0457q.05325.3653.4565.3653.4033 0 .4033-.2791 0-.1015-.07101-.1497-.07101-.0482-.3221-.1116-.1623-.0406-.2917-.076-.1268-.0381-.2257-.1065-.09638-.0684-.1446-.1573-.0482-.0914-.0482-.2055 0-.132.06342-.241.06596-.1116.2105-.1878.1446-.0785.3728-.0785.2105 0 .3576.0533.1471.0533.2283.1598.08116.104.1116.2816l-.2917.0381q-.04311-.2867-.3855-.2867-.3804 0-.3804.2258 0 .0634.03552.109.03805.0457.08879.0659.05325.0211.2891.0863.06086.0147.2739.0735.2156.0583.3246.1802.1116.1192.1116.2943 0 .2588-.2029.4085-.2029.1497-.5073.1497-.6493 0-.7508-.5658z" style="fill:#f8b624;font-feature-settings:normal;font-variant-caps:normal;font-variant-ligatures:normal;font-variant-numeric:normal"/>
      <path d="m70.98 161v-2.428h.4844l.5732 1.72.1167.3577.1294-.3882.5808-1.69h.4312v2.428h-.3094v-2.032l-.7051 2.032h-.2891l-.7026-2.068v2.068z" style="fill:#f8b624;font-feature-settings:normal;font-variant-caps:normal;font-variant-ligatures:normal;font-variant-numeric:normal"/>
      <path d="m74.93 160.8q-.3044.2588-.6493.2588-.2739 0-.4388-.1345-.1623-.137-.1623-.3704 0-.1345.05833-.241.05833-.1065.1928-.1878.1344-.0838.4413-.1217.3678-.0457.5326-.1015v-.0785q0-.3577-.4236-.3577-.2308 0-.3246.0863-.09131.0863-.1344.2486l-.2891-.0381q.1141-.5429.7913-.5429.1902 0 .3246.0406.137.0406.2207.1219.08623.0813.1116.1827.02537.1015.02537.3196v.7738q0 .0558.0203.1623.02283.1065.07357.1979h-.312q-.04564-.0939-.05833-.2182zm-.02537-.6647q-.1572.0634-.487.1116-.2663.0381-.3424.1143-.07609.076-.07609.1853 0 .2791.3525.2791.1243 0 .2232-.0303.09892-.0331.1699-.0989.07357-.0659.1167-.1623.04311-.0989.04311-.2892z" style="fill:#f8b624;font-feature-settings:normal;font-variant-caps:normal;font-variant-ligatures:normal;font-variant-numeric:normal"/>
      <path d="m75.67 161v-1.758h.2689v.2486q.1928-.2892.5605-.2892.5986 0 .5986.6393v1.159h-.2968v-1.071q0-.4694-.3652-.4694-.4667 0-.4667.5785v.9615z" style="fill:#f8b624;font-feature-settings:normal;font-variant-caps:normal;font-variant-ligatures:normal;font-variant-numeric:normal"/>
      <path d="m78.71 160.8q-.3044.2588-.6493.2588-.2739 0-.4388-.1345-.1623-.137-.1623-.3704 0-.1345.05833-.241.05833-.1065.1928-.1878.1344-.0838.4413-.1217.3678-.0457.5326-.1015v-.0785q0-.3577-.4236-.3577-.2308 0-.3246.0863-.09131.0863-.1344.2486l-.2891-.0381q.1141-.5429.7913-.5429.1902 0 .3246.0406.137.0406.2207.1219.08623.0813.1116.1827.02537.1015.02537.3196v.7738q0 .0558.02029.1623.02283.1065.07357.1979h-.312q-.04564-.0939-.05833-.2182zm-.02537-.6647q-.1572.0634-.487.1116-.2663.0381-.3424.1143-.07609.076-.07609.1853 0 .2791.3525.2791.1243 0 .2232-.0303.09892-.0331.1699-.0989.07357-.0659.1167-.1623.04311-.0989.04311-.2892z" style="fill:#f8b624;font-feature-settings:normal;font-variant-caps:normal;font-variant-ligatures:normal;font-variant-numeric:normal"/>
      <path d="m79.39 161.1.2891.0431q.03805.2791.4033.2791.137 0 .2333-.0381.09892-.0381.1572-.1141.06086-.0735.08116-.1674.02283-.0939.02283-.378-.1953.2309-.487.2309-.2308 0-.4007-.1116-.1674-.1116-.2638-.3095-.09638-.2004-.09638-.4693 0-.4161.208-.6622.208-.2461.5529-.2461.312 0 .5149.2512v-.2106h.2739v1.52q0 .3323-.0482.4871-.0482.1547-.1471.2562-.09892.104-.2486.1547-.1497.0533-.35.0533-.35 0-.5276-.1547-.175-.1547-.1674-.4135zm.246-1.055q0 .6647.4819.6647.2283 0 .3551-.1752.1268-.1752.1268-.4795 0-.2918-.1319-.4719-.1294-.1802-.3551-.1802-.2359 0-.3576.1878-.1192.1878-.1192.4541z" style="fill:#f8b624;font-feature-settings:normal;font-variant-caps:normal;font-variant-ligatures:normal;font-variant-numeric:normal"/>
      <path d="m82.54 160.4.3069.0381q-.1522.5683-.7736.5683-.2638 0-.4515-.1065-.1852-.109-.2866-.3095-.09892-.2029-.09892-.4897 0-.4287.2207-.6799.2207-.2537.6011-.2537.0837 0 .1598.0126.07355.0126.142.0381.06847.0253.1268.0634.06086.0381.1116.0863.05325.0533.09638.1166.04564.0659.07862.1396.03044.0735.05072.1598.02029.0838.02791.1777.0025.028.0025.2004h-1.311q.01522.2765.1573.4389.142.1598.3754.1598.3348 0 .4641-.3603zm-.979-.482h.9816q-.02029-.2537-.1547-.378-.1344-.1267-.3272-.1267-.142 0-.2486.0634-.1065.0608-.175.1726-.06594.1116-.07609.2689z" style="fill:#f8b624;font-feature-settings:normal;font-variant-caps:normal;font-variant-ligatures:normal;font-variant-numeric:normal"/>
      <path d="m83.22 161v-1.758h.2663v.2461q.1852-.2867.5326-.2867.3881 0 .4971.307.2105-.307.5428-.307.5453 0 .5453.5911v1.208h-.2967v-1.109q0-.4313-.3145-.4313-.4286 0-.4286.5176v1.022h-.2993v-1.142q0-.3983-.312-.3983-.1446 0-.2409.0659-.09638.0634-.1446.1928-.0482.1295-.0482.3679v.9133z" style="fill:#f8b624;font-feature-settings:normal;font-variant-caps:normal;font-variant-ligatures:normal;font-variant-numeric:normal"/>
      <path d="m87.26 160.4.3069.0381q-.1522.5683-.7736.5683-.2638 0-.4515-.1065-.1852-.109-.2866-.3095-.09892-.2029-.09892-.4897 0-.4287.2207-.6799.2207-.2537.6011-.2537.08367 0 .1598.0126.07359.0126.142.0381.06845.0253.1268.0634.06088.0381.1116.0863.05323.0533.0964.1166.04566.0659.07864.1396.03044.0735.05072.1598.02029.0838.02793.1777.0027.028.0027.2004h-1.311q.01522.2765.1572.4389.142.1598.3754.1598.3348 0 .4641-.3603zm-.979-.482h.9816q-.0203-.2537-.1547-.378-.1344-.1267-.3272-.1267-.142 0-.2486.0634-.1065.0608-.175.1726-.06594.1116-.07611.2689z" style="fill:#f8b624;font-feature-settings:normal;font-variant-caps:normal;font-variant-ligatures:normal;font-variant-numeric:normal"/>
      <path d="m87.94 161v-1.758h.2689v.2486q.1928-.2892.5605-.2892.5986 0 .5986.6393v1.159h-.2967v-1.071q0-.4694-.3652-.4694-.4667 0-.4667.5785v.9615z" style="fill:#f8b624;font-feature-settings:normal;font-variant-caps:normal;font-variant-ligatures:normal;font-variant-numeric:normal"/>
      <path d="m90.48 160.7.04315.2638q-.1268.0253-.2257.0253-.1395 0-.2333-.0406-.09131-.0432-.1369-.1269-.04315-.0838-.04315-.3704v-1.012h-.2181v-.2309h.2181v-.4364l.2968-.1777v.614h.2993v.2308h-.2993v1.03q0 .1192.01522.1623.01522.0406.05323.0608.03801.0168.09892.0168.05072 0 .1319-.0105z" style="fill:#f8b624;font-feature-settings:normal;font-variant-caps:normal;font-variant-ligatures:normal;font-variant-numeric:normal"/>
   </g>
</svg>
