<svg width="599.8" height="748.4" version="1.1" viewBox="1 -16 599.8 748.4" xmlns="http://www.w3.org/2000/svg">
   <path d="m517 585.1c.1819-4.261.3116-8.487.3973-12.69.0236-1.154-.0382-2.301-.1385-3.435 1.896-1.15 3.647-2.408 5.228-3.786 6.993-6.086 10.56-14.01 10.34-22.95-.1896-7.648-3.271-14.91-8.435-20.51 1.955-2.422 3.429-5.208 4.325-8.202m-.6356 6.411c-1.355-3.072-3.149-5.919-5.319-8.434 3.807-4.624 6.018-10.45 5.987-16.49-.0533-10.73-6.852-19.78-16.15-22.98 2.052-3.845 3.35-8.114 3.705-12.62m-7.647 19.38c-.6692-.297-1.351-.5684-2.043-.8126 1.829-4.278 2.827-9.06 2.751-14.12-.0283-1.873-.0491-3.749-.0631-5.626 7.131-.6667 13.61-4.1 18.36-9.276 4.743-5.178 7.742-12.09 7.933-19.74.0146-.585.0879-4.799-.52-11.65m5.86 19.38c.4486-1.729.7177-3.524.7897-5.367.0444-1.137.4463-13.61-4.353-32.32-3.732-14.55-10.47-32.29-21.8-50.28m4.759 14.92c-6.094-13.03-13.69-26.89-23.39-40.59-7.067-9.985-14.75-19.18-23.15-27.73m15.4 20.98c-17.97-16.94-37.61-33.05-59.61-47.5m8.528 11.78c-6.457-3.407-13.02-6.589-19.68-9.541-15.2-6.733-31.04-12.29-47.58-16.68m21.08.0578c-20.7-6.065-44.54-9.098-71.22-8.99m13.71 2.543c-15.61-1.473-32.8-2.684-50.84-3.497-14.62-.6492-28.73-.9903-42.38-.8586m28.63-2.658c-34.02 2.584-61.47 6.666-86.89 16.19m19.28-4.682c-27.88 6.188-54.17 14.52-77.13 26.42m13.25-13.91c-8.978 4.394-17.69 8.978-26.13 13.93-3.547 2.086-4.702 6.619-2.594 10.05 2.108 3.425 6.674 4.443 10.15 2.127 9.808-6.527 20.37-12.52 31.79-17.83m-23.24 17.89c23.61-11.7 50.54-18.63 81.93-18.82m-16.71-3.132c20.96-4.076 45.52-6.436 70.34-4.675m-13.85-5.214c11.01-1.098 22.18-1.612 33.58-1.623 15.19-.003 29.57.8925 42.94 2.407m-17.99 1.309c33.36 2.836 64.47 8.333 93.3 18.91m-24.73-8.492c15.16 3.913 28.93 8 41.74 12.67 17.19 6.262 32.34 13.46 45.85 22.02m-25.05-14.84c19.5 11.76 36.2 26.23 49.94 43.88 7.879 10.11 14.19 20.45 19.28 30.59m-17.8-30.84c15.97 20.83 25.32 40.87 30.83 56.28 2.328 6.509 3.966 12.19 5.096 16.72m-16.07-10.61c.2522.7722.4943 1.535.7266 2.288 5.076 16.44 5.651 28.35 5.682 29.13.2766 6.887-5.135 12.49-11.75 12.38-11.92-.1967-23.62-.4467-34.92-.8704m25.09.5301c-31.08-.3692-63.19-1.067-95.22-3.107m30.21 1.114c-33.61-1.607-64.53.6755-95.42 2.176m25.76 1.496c-31.49-.5554-63.1-2.764-94.62-8.104m20.87 7.596c-33.75-.3494-65.45-.1069-96.94-.3088m30.85-9.261c-29.02 1.285-59.9 2.243-90.57 6.008m27.98 2.312c-24.22-.037-48.22.3886-72.68 1.207m18.35 2.777c-15.49-.4726-31.09-.5586-46.65-.5674-6.913-.004-12.53-5.673-12.43-12.66.01651-1.175.216-8.767 2.803-20.29m-5.043 23.45c-.1953-.7974-.3117-1.624-.3415-2.47-.0735-2.093-.4021-18.53 7.953-42.85 3.148-9.17 7.014-17.99 11.49-26.4m-8.399 16.64c9.493-20.98 23.84-41.04 42.86-59.33 3.308-3.182 3.769-8.307 1.251-11.87-.4412-.6251-.9442-1.162-1.488-1.61m-10.11 10.17c1.679-1.762 3.411-3.477 5.196-5.145 3.039-2.842 3.291-7.616.5213-10.7-2.764-3.084-7.493-3.313-10.54-.473-14.37 13.4-24.88 28.56-32.54 43.07-2.536 4.806-4.781 9.582-6.769 14.26m15.39-17.28c-2.967 4.206-5.635 8.348-8.039 12.42-8.255 13.98-13.4 27.15-16.65 38.84-2.609 9.38-3.988 17.78-4.71 24.59m14.04-28.27c-5.845 21.18-6.077 35.86-6.082 37.31-.02674 7.351 2.775 14.05 7.366 19.05 4.591 5.006 10.97 8.316 18.09 8.901-.01036 1.241-.02067 2.482-.03088 3.724m-18.79-6.854c4.405 3.488 9.79 5.751 15.6 6.236-.01439 1.859-.03654 3.722-.0661 5.589-.08052 5.086.9375 9.932 2.812 14.29-3.817 1.428-7.373 3.694-10.35 6.673-5.12 5.133-8.068 11.79-8.417 18.84-.3048 6.111 1.338 11.87 4.407 16.54-1.54 1.723-2.924 3.58-4.136 5.543m-1.36-30.46c-.05449.673-.08057 1.351-.07773 2.033.02102 5.737 2.049 11.14 5.563 15.43-4.931 5.68-7.753 13.08-7.718 20.86.03691 9.113 3.782 17.19 10.83 23.39 1.689 1.486 3.563 2.833 5.577 4.051-.09523 1.077-.1553 2.159-.1451 3.249.05239 5.604.1026 11.22.1433 16.83m-.6197-29.25c.03171.0264.06349.0528.09532.0792 1.764 1.46 3.7 2.785 5.765 3.985-.07208 1.069-.1118 2.144-.08385 3.228.1652 6.396.2352 12.84.239 19.35-7.2.7236-13.74 4.265-18.51 9.591-4.774 5.326-7.784 12.43-7.954 20.32-.1413 6.553.2034 13.05 1.021 19.45m-10.82-12.32c-.3835 1.819-.5894 3.697-.599 5.616-.07857 15.7 3.364 30.48 9.558 43.86 5.989 12.94 14.56 24.59 25.09 34.54m-16.64-35.93c4.317 7.314 9.756 14.26 16.08 20.59 10.11 10.12 22.49 18.69 36.19 24.72.3411.1502.6831.2987 1.026.4457m-10.46 4.172c4.226 2.34 8.519 4.427 12.86 6.235 13.28 5.529 27.06 8.466 40.81 8.089 11.63-.3191 22.78-.7449 33.61-1.332m-16.19 5.166c33.11.5617 64.6.2631 97.63.6152m-37.17-16.36c24.39.2479 49.62 1.101 75.68 2.975m-15.45 14.37c28.43.5434 60.67-.7354 93.91-2.569m-29.13-5.283c28.03-1.158 58.59.7717 90 3.225 2.932.229 5.847.3659 8.741.412m-24.25 2.769c6.162-.0122 12.35-.0191 18.57-.0225 15.43-.008 30.27-3.146 43.79-8.832 3.684-1.55 7.27-3.288 10.74-5.204m-17.35 2.68c1.561-.5398 3.111-1.124 4.648-1.75 12.94-5.272 24.94-13.55 35.04-23.88 6.532-6.688 12.27-14.25 16.96-22.43m-13.75 13.42c6.516-8.538 12.17-18 16.55-28.17 5.06-11.74 8.426-24.44 9.436-37.7m-4.1 20.75c1.286-6.636 2.017-13.63 2.135-20.9.1188-7.327-2.536-14.11-6.925-19.27-4.391-5.167-10.51-8.706-17.3-9.593.3293-6.617.7073-13.28 1.131-19.96.0762-1.202.0718-2.401.0331-3.588 1.128-.7009 2.215-1.438 3.256-2.213m-5.17 13.69c.009-3.16.0195-6.316.0328-9.468.005-1.13-.0721-2.256-.184-3.37 1.874-1.111 3.615-2.337 5.198-3.686 7.013-5.974 10.75-13.84 10.84-22.75.082-7.617-2.652-14.86-7.43-20.4 3.948-4.466 6.245-10.17 6.262-16.09.0133-4.313-1.128-8.357-3.124-11.84m-7.451 23.82c3.438-4.49 5.426-9.924 5.493-15.54.1309-10.86-6.632-20.03-15.85-23.36 2.229-4.175 3.595-8.837 3.889-13.76.1087-1.822.2226-3.643.3421-5.464 7.652-.4474 14.61-3.648 19.88-8.565.9216-.8606 1.791-1.774 2.604-2.734m-20.36 10.99c-9e-5-.2289-.00032-.4578-.00068-.6867 7.17-.5583 13.47-3.854 17.85-8.852 4.379-4.991 6.861-11.7 6.317-19.06-.0646-.8736-1.072-14.42-8.53-33.24-2.794-7.051-6.512-14.92-11.48-23.3m17.53 31.21c-.3244-1.824-.7033-3.713-1.145-5.665-4.479-19.81-14.86-43.89-37.08-70.67-2.922-3.522-5.964-6.99-9.12-10.41m20.67 17.78c-2.68-3.922-5.566-7.808-8.679-11.64-16.6-20.42-37.16-36.1-62.39-48.52m30.45 17.87c-11.51-7.775-24.24-15.09-38.03-21.82-11.91-5.805-24.67-11.19-38.07-16.03m11.81 4.148c-25.93-9.694-52.4-12.92-82.18-11.36m13.36 9.627c-18.75-2.3-38.44-3.507-58.48-3.347-5.869.0511-11.59.2174-17.18.5049m21.86-8.52c-1e-5 0-.2221-.002-.2221-.002-35.27-.2918-68.9 2.987-99.15 9.118m33.47.0492c-29.94 5.142-54.62 13.35-76.47 25.49m14.23-12.89c-14.56 4.577-27.46 11.08-38.77 18.89-3.325 2.297-4.236 7.068-1.798 10.81 2.447 3.749 7.338 5.07 11.24 3.155 4.413-2.164 8.995-4.186 13.74-6.079m-11.99 2.623c1.844.3901 3.839.1003 5.563-.9746 19.36-12.04 40.25-19.91 62.08-23.83m-27.05 5.184c26.74-7.81 57.38-13.57 93.52-16.78m-19.79-1.063c13.97-1.823 28.87-2.179 44.41-1.093 14.07.9939 27.53 3.095 39.99 6.024m-24.46.3338c35.63 1.363 66.02 5.207 93.19 12.13m-23.05-4.948c16.71 3.054 32.92 8.196 47.9 14.66 8.657 3.735 16.99 7.947 24.92 12.53m-19.01-15.62c22.57 11.03 42.49 25.64 58.41 43.48m-8.434-1.59c5.479 5.564 10.73 11.43 15.69 17.64 17.71 22.15 27.8 43.49 33.45 61.39m-11.82-29.19c3.9 8.926 6.876 17.4 9.131 24.95 5.248 17.58 6.405 29.48 6.505 30.68.506 6.107-2.936 11.31-7.681 13.12m13.24-8.031c-.3981 6.427-5.994 11.61-12.84 11.53-19.46-.2263-39.04.2079-58.93.5491m18.95-5.543c-23.13-1.009-48.35-.2915-74.41.6009m8.807 5.767c-25.63 1.043-51.73-.1822-76.74-1.692m14.82-7.293c-25.17.2406-51.15.1578-77.04.1956m22.62 3.437c-33.55.33-66.66-.5657-102.3-1.783m34.78-6.46c-29.23-.6111-55.09-.5281-80.3-1.06m21.66 10.16c-24.38-.7048-48.42-.9184-72.12-1.781m6.299.336c-17.66.823-35.4.7336-53.51.3948-7.329-.1371-13.34-5.969-13.81-13.13-.05758-.8707-.2455-4.457.0157-10.33m12.41 15.77c-2.204-2.433-3.572-5.703-3.557-9.27.0087-2.048.4832-19.44 6.749-41.71 3.103-11.03 7.017-21.08 11.88-30.34m-9.591 19.52c8.522-21.77 22.79-41.1 41.18-58.55 3.227-3.062 3.609-8.085.9781-11.53-2.634-3.453-7.265-4.047-10.24-1.711-3.6e-5 3e-5-.1437.1131-.1437.1131m4.48 16.44c.5952-.5054 1.193-1.009 1.794-1.509 3.212-2.678 3.548-7.378.8336-10.42-2.719-3.05-7.451-3.289-10.55-.5143-12.37 11.08-22.44 22.35-30.64 33.74m4.316-7.083c-5.013 6.442-9.249 12.85-12.83 19.15-7.776 13.7-12.38 26.82-15.04 38.5-.4081 1.795-.7696 3.553-1.089 5.271m6.222-20.54c-1.335 3.218-2.489 6.333-3.489 9.327-7.772 23.29-6.562 40.94-6.5 41.88.4675 7.058 3.738 13.47 8.811 18.26m-1.646-12.04c.8651 5.522 3.336 10.46 6.894 14.31 4.503 4.871 10.76 7.993 17.67 8.294-.0687 1.784-.1419 3.564-.2198 5.34-.212 4.837.7012 9.393 2.48 13.42-3.896 1.146-7.524 3.095-10.57 5.716-3.278 2.824-5.702 6.222-7.175 9.903m2.873-13.64c-2.109 1.079-4.05 2.481-5.744 4.173-4.692 4.692-7.105 11.09-6.747 17.92.3077 5.935 2.631 11.59 6.477 16.21-4.482 6.103-6.808 14.03-6.172 22.41.7416 9.81 5.214 18.6 13.23 25.6 1.906 1.665 4.007 3.2 6.263 4.613m-15.22-26.65c.5715 7.554 4.091 14.35 10.24 19.78 1.675 1.48 3.541 2.831 5.556 4.061-.09503 1.083-.1533 2.173-.1398 3.273.08022 6.489.2132 13.06.3823 19.7-7.009.8763-13.24 4.574-17.65 10.04-.5915.7335-1.15 1.499-1.674 2.294m19.33-14.55c-4.376 1.252-8.344 3.771-11.52 7.181-4.585 4.92-7.524 11.68-7.77 19.25-.4062 12.47.7105 24.78 3.314 36.56m-8-10.77c1.145 8.468 3.323 16.37 6.353 23.65 5.456 13.11 13.7 24.25 23.75 33.08.991.8704 2 1.718 3.025 2.544m-7.939-8.895c2.394 2.914 4.922 5.71 7.575 8.378 10.05 10.11 21.88 18.37 34.86 24.11 7.578 3.353 15.54 5.847 23.77 7.348m-22.4-10.39c12.07 3.989 25.12 6.12 38.92 5.901 12.68-.2022 25.55-.4399 38.69-.8037m-20.68-4.466c23.25.6704 48.06 1.044 73.52 2.158m-14.65 1.474c24.72-.7474 50.7-.393 77.71-.1709m-17.4 7.867c23.24.2098 48.72.0754 74.53-.0614m-17.64-5.524c29.99.907 58.06.5748 84.73 1.156m-14.33 3.961c10.28-.1531 20.65-.3403 31.1-.6074 13.87-.3544 27.31-3.292 39.87-8.477m-27.23 7.318c6.616-1.545 13.09-3.67 19.36-6.327 13.76-5.833 26.53-14.22 37.71-24.65 6.164-5.749 11.84-12.11 16.94-19.01m-18 9.173c9.272-9.417 17.22-20.82 22.98-33.31 4.587-9.944 7.787-20.58 9.144-31.39m-1.308 23.04c1.922-8.527 3.073-17.69 3.265-27.31.146-7.329-2.422-14.08-6.703-19.2-4.28-5.117-10.26-8.585-16.91-9.358.4568-6.517.9617-13.05 1.49-19.57.0599-.74.0874-1.479.0941-2.213m9.964 4.962c.0569-3.631.0901-7.22.1017-10.77.004-1.159-.0768-2.311-.1948-3.447 1.862-1.153 3.582-2.409 5.136-3.779 6.874-6.051 10.38-13.84 10.07-22.57-.2604-7.461-3.415-14.49-8.688-19.8.9173-1.106 1.722-2.295 2.403-3.548m.0115 19.7c-1.239-3.525-3.152-6.828-5.628-9.722 3.934-4.511 6.178-10.36 6.106-16.53-.1264-10.96-7.21-20.51-16.87-24.4 2.027-4.425 3.17-9.377 3.2-14.62.0109-1.942.0233-3.886.0374-5.832 5.654-.733 10.86-3.142 15.15-6.732m-14.37 14.66c.3968-1.959.6185-3.967.6486-6.007.0269-1.825.0545-3.639.083-5.443 7.298-.3817 13.85-3.373 18.64-7.944 4.787-4.571 7.794-10.71 8.017-17.33.031-.9216.2212-10.03-2.425-23.12m-4.785 20.65c-.7474-5.579-2.246-14.39-5.081-25.04-4.7-17.65-13.67-42.65-31.09-65.87m7.834 23.58c-5.107-8.917-11.13-18.07-18.31-27.13-8.557-10.8-18.11-20.65-28.8-29.63m18.86 18.82c-16.11-14.76-36.41-28.83-59.52-40.9-8.106-4.233-16.58-8.224-25.29-11.88m30.97 2.744c-.6632-.3347-1.33-.6647-1.999-.9902-22.12-10.75-47.31-16.24-74.73-18.25m20.29 1.106c-23.66-4.416-52.19-7.18-81.74-6.98-1.448.0109-2.889.0288-4.322.0539m18.62 5.473c-6.099-.3721-12.33-.6586-18.73-.8792-25.13-.8488-50.41-.6049-73.81.2299m28.41 2.152c-25.03 3.46-48.43 5.891-70.21 9.428m14.24-.6907c-25.4 7.207-47.67 16.54-67.79 29.17-3.668 2.303-4.907 7.061-2.905 10.8 1.712 3.189 5.225 4.617 8.31 3.776m2.313-14.06c-1.394.6982-2.769 1.415-4.126 2.15-3.659 1.982-4.851 6.495-2.747 9.94 2.112 3.452 6.718 4.529 10.28 2.334 14.52-8.944 30.94-15.83 49.21-21.53m-20.97 1.616c27.65-11.88 58.82-18.32 96.15-21.75m-34.68 6.479c20.55-2.494 42.93-4.134 67.28-4.334 12.23-.0923 24.31.1847 36.43.9117m-32.63-8.144c25.13.1906 47.97 2.705 68.56 7.275m-6.911 2.671c26.32 4.191 49.94 10.43 69.85 19.57 4.949 2.274 9.65 4.719 14.09 7.341m-17.53-7.918c2.704.9657 5.368 1.997 7.987 3.089 25.66 10.7 47.23 27.29 62.14 46.85m-18.27-18.53c8.578 6.927 16.13 14.68 22.64 23.15 8.785 11.44 14.91 23.15 19.15 34.11m-7.129-17.44c8.615 15.04 14.37 29.59 18.15 41.83 5.446 17.65 6.526 29.62 6.617 30.79.101 1.3.0219 2.558-.2116 3.751m-6.174-23.29c1.362 8.513 1.4 14.05 1.399 14.68-.0126 7.011-5.691 12.78-12.67 12.98-16.68.4709-33.31 1.431-49.95 2.623m22.49-.662c-28.15.2059-54.43.2086-79.65.403m14.82-.2082c-26.9-1.225-51.85.3347-76.96 2.485m21.3.8753c-32.04.5218-62.39 1.054-93.56 2.991m18.45-4.319c-33.33.8034-64.07-1.678-95.47-5.163m32.85 3.132c-31.26-.1793-67.31-1.515-103.8-4.488m38.25 6.676c-25.59.7265-51.59 1.082-77.6 2.402m15.58-6.074c-14.52.2128-28.77.2251-43.04.1509-7.133-.0371-12.94-5.768-13.12-12.82-.05153-1.937-.1325-14.05 4.149-32.79m-6.471 32.55c.4749-6.95 2.305-19.85 9.166-37.37 7.255-18.54 17.99-36.83 31.69-53.95m-10.19 27.03c9.111-14.71 19.59-28.19 31.63-39.94 2.763-2.697 2.724-7.39-.4397-10.4-3.167-3.012-8.281-3.197-11.84-.3282-3.933 3.176-7.69 6.411-11.28 9.702m24.62-9.727c-2.938-2.374-7.325-2.353-10.31.2435-15.23 13.26-26.72 26.28-35.82 38.82-4.34 5.98-8.122 11.84-11.44 17.47m10.29-11.88c-.000103.00016-.2124.3373-.2126.3374-8.745 13.91-14.46 26.47-18.27 37.07-4.492 12.48-6.453 22.55-7.316 28.84m5.119-22.27c-3.863 14.97-3.776 26.15-3.768 26.97.07747 7.598 3.111 14.62 8.003 20.03 4.9 5.414 11.65 9.199 19.22 10.39.09931 2.012.2015 4.031.306 6.058.1224 2.375.4578 4.706.9858 6.976m-11.11-13c2.301.7786 4.74 1.264 7.273 1.412.02516 1.815.05207 3.628.08092 5.439.07856 4.93 1.316 9.583 3.462 13.71-3.59 1.231-6.88 3.269-9.543 5.982-4.581 4.671-6.929 10.82-6.535 17.23.3384 5.555 2.666 10.71 6.498 14.71-2.985 3.496-5.036 7.7-5.92 12.22m2.453-27.08c.8064 3.152 2.246 6.08 4.209 8.633-5.133 5.781-8.062 13.28-8.076 21.2-.01896 9.266 3.756 17.51 10.84 23.96 1.701 1.548 3.588 2.964 5.617 4.257-.08864 1.112-.1421 2.229-.1252 3.356.04234 2.828.08403 5.665.1225 8.512m-8.827-6.912c1.56 1.235 3.285 2.353 5.143 3.362-.1055 1.015-.1735 2.036-.1689 3.066.02754 6.077.137 12.21.3226 18.38-6.988.3326-13.16 3.475-17.44 8.315-4.279 4.837-6.693 11.4-6.118 18.54.241 2.996.6186 5.956 1.127 8.87m-5.283-15.72c-1.152 2.895-1.804 6.03-1.859 9.304-.2588 15.26 2.867 29.98 8.525 43.29 2.526 5.944 5.56 11.62 9.029 16.95m-5.351-13.85c5.541 12.05 13.57 22.68 23.55 31.27 9.581 8.246 20.98 14.62 33.7 18.5m-26.47-16.71c6.504 4.381 13.48 8.256 20.85 11.53 13.73 6.09 28.81 10.07 44.89 11.39.9974.0819 1.996.1655 2.995.2507m-5.784 3.418c4.149.59 8.357.9672 12.62 1.128 22.74.8576 45.48 1.933 69.02 4.303m-26.96-6.756c24.62-.0764 49.71.3638 75.46 1.206m-24.76-1.87c31.54-.4385 61.17.7773 91.83 2.522m-20.17 7.869c31.17.9684 59.75-.1428 88.03-.9406m-18.01-13.9c17.35-.3303 34 .405 50.51 1.955 8.232.7731 16.21.8283 23.94.218m-9.401 12.48c12.9-.9128 24.79-4.013 35.46-8.959 12.84-5.955 23.93-14.6 32.79-25.33.1901-.2302.3791-.4613.5671-.6934m-26.91 7.901c5.356-3.909 10.41-8.105 15.12-12.57 10.78-10.18 19.79-21.72 26.78-34.34 3.433-6.205 6.367-12.66 8.784-19.34m-.039 19c5.862-13.29 9.143-27.9 9.456-43.27.1492-7.321-2.527-14-6.956-18.99-4.43-4.99-10.62-8.292-17.48-8.868.03-.7165.0607-1.433.092-2.15m18.63 6.406c-.0927-.0988-.1862-.1969-.2804-.2943-4.793-4.959-11.43-8.168-18.89-8.561-.2664-6.185-.591-12.31-.9908-18.39-.072-1.093-.228-2.18-.4216-3.254 1.716-1.034 3.293-2.181 4.705-3.449 6.237-5.596 9.169-13.11 8.094-21.51-.0801-.6277-.1827-1.252-.3073-1.873m-19.37 53.31c.101-5.694.1807-11.41.2479-17.14.0132-1.129-.0561-2.255-.161-3.369 1.887-1.112 3.639-2.343 5.229-3.701 7.046-6.009 10.78-13.98 10.85-23.02.0676-7.738-2.689-15.12-7.482-20.84.0261-.0305.0522-.0611.0781-.0917m16.42 14.91c-1.248-5.745-3.998-11.1-7.943-15.51 3.627-4.651 5.61-10.57 5.266-16.74-.6097-10.97-8.124-20.39-18.44-24.1 1.731-4.344 2.54-9.214 2.15-14.37-.1444-1.909-.2963-3.822-.4565-5.738 3.381-.4227 6.542-1.584 9.33-3.345m-20.44 23.45c1.205-3.36 1.852-7.053 1.819-10.96-.0153-1.804-.021-3.618-.0178-5.441 7.196-.4547 13.78-3.8 18.65-8.927 4.88-5.135 8.047-12.05 8.483-19.71.039-.6856.2736-5.606-.2139-13.7m5.225 9.715c.0488-.7333.0673-1.476.0541-2.226-.0176-1.007-.4122-13.52-4.844-31.65-3.225-13.2-8.757-29.9-18.13-45.57m5.464 18.05c-5.558-12.17-13.6-25.58-25.03-38.86-11.74-13.64-25.95-25.82-42.36-35.89l-.009-.006m19.51 19.28c-17.09-17.2-36.36-30.45-57.56-41.49-2.643-1.375-5.309-2.712-8.001-4.018m16.71 10.42c-3.26-1.582-6.572-3.138-9.938-4.671-21.24-9.672-44.19-18.21-68.91-26.56m16.49 5.987c-23.68-5.322-50.11-7.426-75.93-5.418m29.29 5.717c-8.634-.6648-17.86-1.094-27.69-1.332-19.64-.4615-39.83-.1207-59.14.8323m19.46-5.859c-34.72 2.308-69.05 11.18-98.46 24.81m24.6-5.332c-24.29 5.379-46.64 15.68-66.31 28.56-3.697 2.423-4.962 7.28-2.988 11.12 1.939 3.765 6.262 5.177 9.579 3.483m-3.828-26.92c-.861.5188-1.717 1.042-2.567 1.571-3.43 2.134-4.464 6.73-2.195 10.25 2.273 3.515 6.996 4.619 10.67 2.42 17.3-10.33 37.07-18.8 59.97-25.53m-16.07 16.52c29.96-12.42 58.43-17.8 91.48-21.63m-21.26 2.3c17.26-2.04 36.6-2.973 56.91-2.335 5.731.1843 11.37.4891 16.9.9217m-23.1-.2295c31.53-.4301 63.44.5637 91.98 2.836m-20.54 4.143c24.12 3.643 46.99 9.361 66.79 16.96 6.288 2.412 12.27 5.014 17.93 7.8m-31.78-13.72c1.506.586 2.995 1.184 4.467 1.795 25.95 10.77 47.09 25.58 64.8 43.92m-19.38-8.686c8.843 7.631 16.91 15.32 24.33 23.33 14.87 16.04 24.94 30.87 32.1 43.69m-8.003-23.25c6.575 12.8 11.04 24.62 14.09 34.68 5.256 17.32 6.229 29.06 6.307 30.15.5047 7.146-4.674 12.98-11 13.24-2.66.1076-5.305.2273-7.934.3614m22.07-14.62c-.4885 6.569-5.732 11.59-12.16 11.62-21.57.087-44.43-1.367-67.42-3.018m14.47.7474c-29.67-.6857-58.42 1.156-85.97 3.875m26.9-1.219c-26.2 1.002-54.2.5494-82.44.6407m24.94-1.891c-23.89-.4544-47.35.5905-70.57 2.419m4.211 4.183c-30.76-.5183-57.71.4529-83.79 1.667m16.12-6.472c-31.82-.514-60.23-1.082-88.36-2.976m27.9 1.491c-27.08-.6362-56.53.5598-86.21 2.23m29.21-3.753c-11.93.2797-23.82.5352-35.75.8722-7.102.2006-12.89-5.283-13.04-12-.03247-1.418-.09183-10.94 3.057-24.95m-3.998 17.11c.525-7.659 2.352-20.73 8.607-36.75 4.951-12.68 11.6-24.53 19.74-35.57m-8.198 14.84c9.554-16.97 21.79-32.86 36.96-46.75 3.088-2.828 3.352-7.636.5839-10.79-2.768-3.16-7.515-3.482-10.6-.7793-2.819 2.471-5.497 4.979-8.04 7.522m11.17 3.229c-.2892-1.187-.8938-2.328-1.822-3.294-2.82-2.938-7.556-3.127-10.6-.3111-14.36 13.31-23.89 26.37-30.4 39.11-3.585 7.024-6.226 13.92-8.163 20.56m11.77-22.13c-.2545.4098-.507.8199-.7576 1.23-7.932 12.98-13.88 26.03-18.2 37.57-8.763 23.42-10.49 39.6-10.64 41.19-.2525 2.787-.06456 5.465.4977 7.968m.8719-22.78c-2.362 11.1-2.441 18.5-2.447 19.21-.05554 7.417 2.891 14.09 7.712 18.99 4.824 4.904 11.54 8.055 19.06 8.429.08913 1.803.1819 3.604.2776 5.405.2604 4.905 1.677 9.55 3.987 13.7-3.453 1.249-6.614 3.325-9.164 6.108-1.706 1.863-3.084 3.961-4.105 6.224m10.24-32.48c.3553 3.533 1.303 6.894 2.739 9.987-3.719 1.367-7.118 3.555-9.876 6.44-4.744 4.964-7.203 11.44-6.916 18.25.2467 5.908 2.497 11.45 6.24 15.9-4.622 5.873-7.133 13.46-6.781 21.45.08001 1.831.3001 3.623.6577 5.369m3.204-12.52c-2.848 4.602-4.424 10.14-4.381 16.01.06285 9.025 3.73 17.19 10.66 23.72 1.66 1.563 3.501 3.001 5.481 4.322-.1112 1.125-.1875 2.256-.1939 3.399-.03762 6.739-.08522 13.57-.1295 20.45-7.255 1.158-13.75 5.099-18.44 10.78-1.121 1.361-2.138 2.821-3.036 4.366m20.56-21.87c-.01694 1.013-.03373 2.028-.05044 3.044-7.317.3677-13.89 3.583-18.66 8.554-4.777 4.975-7.758 11.71-7.923 19.15-.3396 15.27 2.173 30.02 6.859 43.54m-8.644-27.14c1.263 8.118 3.604 16.02 6.86 23.57 5.837 13.52 14.63 25.92 25.53 36.48 1.25 1.21 2.527 2.396 3.831 3.557m-4.001-16.01c2.275 3.025 4.675 5.894 7.185 8.603 9.805 10.58 21.3 18.72 33.73 24.2 12.43 5.479 25.74 8.269 39.14 8.23m-30.82 3.281c9.805 2.32 19.91 3.466 30.23 3.207 18.55-.4643 36.84-1.1 55.65-2.24m-21.42-1.087c24.42-.8526 48.67-.16 73.41.7515m-19.23 4.014c30.08-.5285 59.55 1.13 88.42 3.679m-22.4-4.225c31.42.7471 66.1.9554 99.48 2.83m-22.13 3.732c19.83.1047 40.65-.7636 61.48-2.482 4.577-.3777 9.093-1.063 13.52-2.036m-18.47-4.778c1.18.0327 2.362.0647 3.547.0962 15.13.4025 29.97-2.445 43.57-7.68 13.61-5.239 26.01-12.87 36.38-22.09 1.718-1.526 3.38-3.096 4.983-4.705m-20.84 18.03c5.923-4.021 11.46-8.655 16.49-13.8 9.75-9.983 17.59-21.91 22.6-35.02 2.779-7.283 4.685-14.94 5.542-22.83m-2.818 16.93c5.093-13.06 7.824-27.4 7.21-42.1-.2904-6.95-3.434-13.21-8.441-17.7-5.001-4.488-11.88-7.226-19.62-7.079-.1257-1.378-.2567-2.751-.3933-4.119m1.713-.6288c.0701-4.759.1205-9.502.1552-14.24.009-1.165-.0659-2.326-.1765-3.475 1.876-1.178 3.616-2.471 5.193-3.888 6.983-6.268 10.64-14.43 10.59-23.75-.0363-7.972-2.917-15.62-7.86-21.68 3.815-4.877 5.973-11.05 5.84-17.55-.002-.1205-.006-.2408-.01-.3609m-6.105 29.13c-1.145-1.763-2.459-3.434-3.926-4.983 3.635-4.4 5.714-10.14 5.571-16.2-.2527-10.77-7.158-20.13-16.59-23.8 2.134-4.325 3.402-9.17 3.558-14.29.0176-.5763.0352-1.153.0528-1.729m-5.086 8.326c1.575-3.856 2.44-8.153 2.403-12.7-.0147-1.797-.0159-3.597-.004-5.4 7.232-.3747 13.9-3.547 18.89-8.425 5.005-4.886 8.327-11.47 8.965-18.7.0778-.8814.8962-11.57-.8629-26.93m-1.609 29.2c-.4373-5.642-1.604-16.02-4.51-29.21-3.207-14.56-8.493-32.4-17.41-51.52m13.4 11.53c-5.238-11.44-12.92-23.5-23.92-35.29-8.598-9.223-18.63-17.64-29.96-25.16m18.64 15.47c-16.21-15.49-35.49-28.83-57.02-38.05m6.591-4.201c-6.323-3.71-13.06-7.023-20.16-9.936-17.94-7.349-38.27-12.13-60.41-14.4m25.32 8.125c-22.64-7.079-48.38-10.65-76.7-12.54m12.61 3.928c-13.24-1.068-27.09-1.422-41.33-.9454-11.52.3942-22.62 1.308-33.28 2.756m13.19-6.665c-33.94 1.217-66.57 5.769-94 13.9m27.64-2.406c-25.33 4.103-48.13 12.83-67.84 23.82m27.12-6.403c-9.928 4.651-19.57 9.753-28.93 15.46-3.727 2.275-5.036 6.995-3.136 10.68 1.903 3.683 6.276 4.947 9.507 2.956 6.693-4.117 13.67-7.764 20.88-10.85m-16.5-2.064c19.72-10.61 41.14-18.78 63.15-23.45m-16.49 4.713c22.42-7.381 46.81-10.92 74.62-12.61m-22.5 9.576c14.66-2.038 29.48-2.624 44.8-1.995 17.81.7443 34.76 3.07 50.54 6.197m-17.24-6.567c26.02.3631 50.64 3.88 70.78 8.76m-23.89-3.635c18 3.086 35.07 8.08 50.28 14.2 11.46 4.614 22.04 9.93 31.53 15.73m-9.427-6.293c24.27 13.49 44.24 29.72 59.43 50.93.694.9688 1.373 1.94 2.037 2.914m-22.69-21.5c3.863 3.745 7.534 7.713 11.01 11.89 17.95 21.57 27.83 44.92 33.14 62.27 8e-5.00027.0894.2928.0895.2931m-.0292-20.52c3.277 7.496 5.661 14.5 7.406 20.75 4.73 16.94 4.898 28.84 4.904 29.68.05 6.973-5.585 12.64-12.49 12.63-3.966-.006-7.924-.008-11.87-.004m19.04-1.317c-2.302 1.93-5.244 3.096-8.435 3.104-28.78.0719-56.17-1.501-84.06-3.8m23.12.0884c-24.85.1543-48.34 1.845-70.83 5.304m14.03-5.734c-25.96 1.259-52.13.0386-78.83-1.416m12.92 1.65c-27.1.0307-52.28-1.56-76.56-4.715m22.11-3.606c-28.18-1.27-54.73-.0415-82.2 1.185m20.9 2.253c-26.06-1.052-51.27-.709-77.17-.752m25.26 6.221c-30.82-1.322-63 .0496-95.12.608m22.47 1.189c-11.35-.2058-22.8-.2569-34.41-.2248-7.239.02-13.17-5.614-13.54-12.53-.07447-1.381-.3606-9.193 1.341-21.53m2.221 16.91c.3325-6.761 1.829-19.94 7.855-36.92 6.007-16.94 14.66-32.48 25.36-45.76m-17.96 17.58c8.278-15.34 19.37-29.63 32.75-42.73 3.04-2.977 3.258-7.926.426-11.27-2.835-3.353-7.644-3.853-10.83-1.392-.1189.092-.2376.184-.3561.276m22.49 14.46c.0497-1.837-.6228-3.724-2.048-5.208-2.87-2.992-7.694-3.21-10.89-.4322-15.13 13.17-26.58 26.19-35.67 38.93-5.88 8.242-10.72 16.31-14.75 23.95m9.588-32.76c-.1813.2591-.3612.5184-.5397.7778-8.957 13.02-14.5 26.75-18 38.86-3.274 11.33-4.878 21.69-5.672 29.37m3.71-10.95c-4.184 16.94-3.803 28.8-3.769 29.77.2616 7.345 3.461 14.02 8.541 18.98 5.082 4.964 12.05 8.221 19.88 8.744.167 1.841.3399 3.682.5187 5.526.4868 5.02 2.14 9.785 4.714 14.05-1.351.5645-2.647 1.274-3.865 2.119m-4.52-23.74c.9831.1224 1.979.1997 2.984.2294.06736 1.763.1199 3.537.1585 5.32.1051 4.86 1.251 9.523 3.219 13.73-3.74 1.299-7.244 3.452-10.19 6.326-5.069 4.953-8.025 11.46-8.425 18.36-.3491 5.972 1.22 11.59 4.2 16.1-.3596.3792-.7112.7653-1.055 1.158m-3.285-17.98c.6167 4.64 2.586 8.977 5.599 12.52-4.948 5.441-7.925 12.63-8.178 20.2-.2989 8.865 2.999 16.7 9.434 22.56 1.541 1.402 3.256 2.659 5.101 3.777-.1729 1.032-.3119 2.066-.3825 3.108-.1358 2.004-.2768 4.004-.4226 5.998m-4.388-16.3c.5873.669 1.208 1.319 1.862 1.948 1.562 1.502 3.31 2.858 5.198 4.075-.1534 1.077-.2712 2.157-.3186 3.243-.2799 6.408-.5487 12.77-.8395 19.1-7.537.5245-14.33 3.773-19.4 8.728-5.075 4.961-8.393 11.6-9.032 18.94-.1566 1.8-.2777 3.592-.3649 5.375m9.882-13.18c-2.155 3.853-3.429 8.205-3.578 12.8-.5058 15.61 2.443 30.44 7.783 43.9 3.141 7.918 7.115 15.38 11.72 22.29m-9.369-25.4c6.214 11.7 13.87 22.32 22.86 31.42 8.67 8.773 18.57 16.11 29.54 21.6m-13.73.2673c6.47 4.063 13.4 7.667 20.71 10.66 13.6 5.571 28.54 9.045 44.31 9.416 2.177.0513 4.356.103 6.537.1541m-20.11-10.45c3.389.2116 6.815.316 10.27.3053 27.92-.0857 55.51 2.676 82.67 6.541m-22.16-.4397c29.7.7643 55.41-.2239 80.05-1.283m-19.64 1.283c24.26-.1119 47.84.0557 71.33.3186m-13.29.9706c26.93.1126 53.03-1.861 79.4-5.736m-18.64 9.213c16.18.5194 32.8.0366 49.54-1.059 11.62-.7607 22.9-3.54 33.46-7.942m-23.95.2403c11.26-1.263 21.68-3.851 31.2-7.57 13.17-5.143 24.6-12.44 33.97-21.32 2.536-2.404 4.92-4.922 7.147-7.545m-12.58 15.97c3.051-2.218 5.932-4.619 8.641-7.185 10.5-9.953 18.42-22.42 23.5-36.49 4.223-11.69 6.491-24.48 6.691-37.9m1.481 21.48c3.061-10.06 4.817-20.63 5.037-31.39.1413-6.938-2.51-13.17-6.91-17.63-4.395-4.451-10.56-7.143-17.39-6.93.0178-.3525.0357-.7047.0538-1.056m7.062 6.841c-4.18-3.096-9.263-5.068-14.78-5.436 4e-5-6.259.0189-12.54.0527-18.84.006-1.132-.0693-2.262-.1796-3.379 1.877-1.118 3.622-2.355 5.208-3.718 7.03-6.032 10.78-14 10.89-23.03.0907-7.727-2.643-15.09-7.437-20.76.6876-.7978 1.325-1.633 1.907-2.501m-13.83 38.2c-2.259.9864-4.765 1.766-7.457 2.324-5.775 1.198-12.4 1.379-19.29.4197-4.874-.6799-8.623-1.692-11.83-2.881-3.212-1.19-5.894-2.562-8.66-3.975-1.272-.6468-2.56-1.306-3.905-1.946 5.37-5.808 10.67-11.63 15.88-17.43 1.952-2.174 4.733-3.42 7.577-3.421 1.858-.00046 3.71 5e-4 5.557.003m-16.44 9.331c2.295-2.527 4.578-5.047 6.847-7.562 2.041-2.264 4.908-3.596 7.838-3.688 7.843-.2456 15.59-.4854 23.21-.771 2.186-.0819 4.325-.4826 6.389-1.202 3.162 2.933 4.872 7.279 4.427 11.84-.4272 4.341-2.658 8.04-6.801 10.85-3.979 2.699-9.506 4.451-16.05 5.082-1.256.121-2.549.2007-3.876.2378m7.488-.0981c-2.085.8833-4.363 1.601-6.784 2.147-5.674 1.278-12.13 1.607-18.74.8924-4.682-.5071-8.225-1.343-11.25-2.367-3.025-1.023-5.516-2.227-8.077-3.455-1.176-.5609-2.363-1.13-3.599-1.673 5.983-5.261 12.03-10.41 18.16-15.4 2.292-1.871 5.428-2.802 8.656-2.461 3.448.3644 6.909.7549 10.38 1.174m-27.03 7.867c1.998-1.844 3.979-3.711 5.944-5.599 2.209-2.123 5.232-3.347 8.321-3.352 8.265-.0152 16.41-.2064 24.5-.5285 2.318-.0924 4.594-.5103 6.802-1.251 3.455 2.891 5.475 7.171 5.405 11.67-.0708 4.284-1.959 7.919-5.634 10.68-3.395 2.554-8.115 4.232-13.62 4.929m7.368 4.666c-1.71.5195-3.533.9342-5.444 1.24-5.722.9153-12.25.857-18.95-.3012-4.746-.8219-8.346-1.921-11.43-3.192-3.078-1.27-5.627-2.707-8.245-4.189-1.204-.6789-2.418-1.37-3.686-2.044 5.809-5.999 11.65-12.03 17.51-18.15 1.227-1.282 2.716-2.277 4.335-2.933m-18.02 15.26c3.474-3.337 6.87-6.644 10.2-9.924 2.184-2.152 5.175-3.367 8.22-3.327 8.152.105 16.13.2915 24 .549 2.257.0738 4.468-.1642 6.608-.7086 3.317 3.288 5.192 8.017 4.958 13.04-.2266 4.784-2.255 8.878-6.108 12.25-1.321 1.155-2.83 2.205-4.499 3.145m15.12-25.94c.3314 1.303.4983 2.662.483 4.046-.0527 4.431-1.895 8.22-5.498 11.22-3.452 2.878-8.317 4.886-13.96 5.898-5.642 1.012-12.07 1.03-18.65-.0887-4.659-.793-8.201-1.889-11.22-3.16-3.017-1.27-5.518-2.718-8.081-4.215-1.18-.6862-2.368-1.385-3.612-2.07 2.27-2.31 4.543-4.632 6.819-6.969m50.07 18.52c-3.341 2.184-7.56 3.773-12.33 4.701-5.862 1.141-12.55 1.28-19.46.2963-4.89-.6973-8.633-1.714-11.84-2.907-3.206-1.194-5.878-2.565-8.631-3.978-1.266-.6463-2.547-1.305-3.885-1.944 5.411-5.801 10.76-11.6 16.02-17.4.7081-.7816 1.523-1.443 2.41-1.97m-10.89 8.774c4.224-4.093 8.4-8.275 12.52-12.52 2.039-2.101 4.902-3.292 7.827-3.251 7.829.1099 15.55.1382 23.15.1526 2.179.004 4.311-.3093 6.369-.9348 3.149 3.122 4.848 7.673 4.395 12.5-.435 4.596-2.668 8.532-6.81 11.71-.7693.5896-1.596 1.148-2.478 1.674m1.034 4.069c-3.074 2.064-6.991 3.567-11.48 4.445-5.708 1.117-12.34 1.222-19.31.1874-4.937-.7337-8.755-1.784-12.04-3.01-3.29-1.227-6.047-2.63-8.902-4.079-1.313-.6628-2.643-1.339-4.033-1.996 3.74-4.319 7.414-8.653 11.04-13m-11.21 10.89c5.52-5.717 10.98-11.31 16.38-16.82 2.11-2.151 5.049-3.364 8.058-3.321 8.054.1151 16.05.3193 24.01.5802 2.282.0748 4.522-.1634 6.697-.7096 1.903 1.846 3.354 4.144 4.234 6.69m-11.5-6.981c.1866.007.3732.014.5599.0208 2.257.0831 4.483-.1616 6.65-.7266 3.371 3.246 5.342 7.876 5.234 12.75-.1061 4.638-2.013 8.577-5.717 11.72-3.552 3.013-8.55 5.138-14.4 6.262-5.856 1.124-12.55 1.243-19.53.263-2.181-.3069-4.138-.6738-5.925-1.089m-396.3-103.6c26.51.8381 53.33 1.461 79.16 3.515m-11.23-4.531c23.3.0468 46.71 1.067 69.45 3.137m-16.55 7.605c25.93-.2506 51.69-.003 77.74.2877m-22.73-5.248c24.83 1.036 47.89-.2268 70.62-2.187m-12.04 4.57c27.8.5114 53.35.5234 77.7 1.07m-14.59-2.984c28.54.8394 55.77 1.155 83.73 2.687m-26.37-3.86c22.17-.1491 45.22-.1221 68.76-.1197.0861 1.809.1754 3.617.2677 5.426.1704 3.339-.6224 6.458-2.107 9.091m-5.694-14.32c1.831-.0656 3.657-.1299 5.479-.1935.0352 1.744.0662 3.489.0935 5.235.088 5.628-2.804 10.6-7.242 13.49-.1243.0841-.2525.1604-.3808.2367-.3187.1966-.6453.3813-.976.5543-.1167.0613-.2295.1227-.3424.1803-.4241.2082-.8562.4007-1.3.5734-.0272.0104-.0506.0208-.0739.0313-.4946.1862-1.001.3527-1.52.4915-.0585.0171-.1169.0304-.1754.0436-.4327.1149-.8734.2102-1.322.2855-.1404.0254-.277.0472-.4174.0688-.3862.0545-.7766.101-1.171.1316-.1495.01-.2916.023-.4412.0326-.527.029-1.058.0382-1.597.0156-11.7-.49-23.48-1.093-35.22-1.966m20.01 10.23c-32.33-1.521-64.43-.5576-96.64-1.39m30.34-8.102c-25.95-.4162-53.84.1924-82.32 1.045m29.59-2.764c-27.87-.8506-56.43.1695-84.72 1.187m11.41 7.837c-27.5.1073-54.81-1.855-81.7-5.688m22.57 4.75c-26.23-.6174-53.84-1.162-82.62-2.77m26.4-5.94c-21.04-.0239-41.6.6347-62.17 1.938-4.713.2986-8.99-1.318-12.09-4.082-2.608-2.327-4.383-5.468-4.889-8.969m12.44 17.22c-4.019-.3602-7.594-2.03-10.3-4.551-3.214-3-5.199-7.211-5.217-11.88-.0068-1.789-.0066-3.581-.000129-5.376 18.44.1497 37.53-.001 56.46.1571m-53.16-3.036c32.15 1.399 63.93 1.519 95 4.255m-22.39-3.279c30.73 1.006 62.31-.8036 91.79-2.697m-32.16 4.181c25.71.1261 50.96-.2979 77.16-1.062m-16.53 4.069c26.89-.742 51.95-.7459 77.38-1.343m-13.3 3.569c31.42-1.275 61.71.3216 91.66 1.447m-22.75-9.885c28.53-1.344 59.31-.042 88.97.6236m-33.91-6.6c13.33-.4784 26.7-.3004 40.04.3025-.0177 1.89-.0359 3.787-.0549 5.691-.0612 6.141-3.057 11.64-7.597 15.14-.1271.1012-.2582.1946-.3892.288-.3256.2395-.6591.4676-.9965.6839-.1191.0766-.2342.153-.3494.2253-.4327.2633-.8732.5113-1.326.7404-.0278.0143-.0518.0286-.0757.043-.504.2489-1.02.4788-1.548.6822-.0595.0244-.1191.0449-.1786.0654-.4405.1689-.8888.3187-1.345.4496-.1429.0429-.2818.0816-.4246.1205-.393.1023-.7897.1971-1.191.2768-.149.0276-.2996.06-.4485.0875-.536.0947-1.076.1703-1.624.2157-8.359.693-16.75 1.475-25.19 2.294m37.87-1.111c-.047.009-.0942.017-.1415.0251-.1359.0253-.2679.047-.404.0686-.374.0545-.7524.1017-1.135.1337-.1398.01-.2886.0247-.4284.0344-.5121.0315-1.029.0442-1.554.0264-27.44-.9291-57.36.7067-87.74 2.433m17.47 7.982c-31.96-1.479-59.25.6281-84.84 2.511m27.71-5.362c-25.35-.6216-51.54.6156-77.16 2.572m13.3-5.384c-29.77.6589-62.48-1.408-94.18-4.428m30.14 6.342c-32.3-1.181-66.48-1.567-101.9-4.573m26.76 6.605c-24.2.9744-48.27-.2614-72.52-2.199-.2739-.0219-.5464-.0501-.8172-.0845m16.54-.647c-4.983-.2299-9.954-.3696-14.91-.435-4.653-.0614-8.854-1.976-11.87-5.033-3.009-3.054-4.828-7.247-4.695-11.83.0508-1.756.1044-3.506.1608-5.252 8.401.292 16.86.6898 25.39 1.126m-20.65 1.05c30.44.9797 59.77-1.73 86.61-5.56m-17.77-1.589c28.73-1.235 53.92 1.065 78.05 4.384m-14.78.421c26.05-.6419 50.47-1.398 75.19-3.347m-16.1 7.801c23.88.2934 47.24-1.058 69.45-3.583m-21.14 6.512c25.38.8094 50.37-.3785 75.13-2.138m-15.6-4.111c32.84 1.583 63.54 2.082 94.01 5.933m-15.77-13.71c17.65.5466 34.93.5168 51.57.3785-.1315 1.795-.2695 3.588-.4141 5.381-.4666 5.783-3.885 10.89-8.916 13.93-.1411.0886-.2858.1693-.4307.2501-.3605.2078-.7291.4039-1.102.5883-.1315.0653-.2588.1307-.386.1922-.4774.2227-.9632.4299-1.461.6176-.0309.0114-.0581.0229-.0851.0344-.5549.2029-1.123.3864-1.703.5427-.0655.0191-.1309.0343-.1963.0495-.4845.1296-.9776.2397-1.479.3303-.1571.0302-.3098.0567-.467.0831-.432.0677-.8686.1276-1.31.172-.1655.0146-.3281.0334-.4936.0481-.5898.0476-1.184.0756-1.788.0726-4.107-.0204-8.247-.0337-12.42-.0357m22.27-1.133c-1.299 1.887-2.966 3.509-4.896 4.754-.1263.0847-.2564.1616-.3865.2386-.3232.1981-.6536.3846-.9874.5594-.1178.0619-.2317.124-.3454.1822-.4276.2106-.8622.4056-1.308.581-.0273.0106-.0508.0212-.0742.0319-.4962.1893-1.003.359-1.521.5013-.0584.0175-.1167.0312-.1751.0448-.4318.1179-.8707.2163-1.317.295-.1396.0265-.2752.0493-.4147.0719-.3835.0574-.7705.107-1.161.1408-.1464.0107-.29.0256-.4364.0362-.5211.0334-1.045.0472-1.576.0295-23.29-.776-44.71-1.594-65.17-3.722m31.75 7.818c-23.19-.9297-46.89-1.382-70.55-2.742m1.676 4.617c-26.65-1.162-54.14-1.437-82.6-3.027m24.52-3.145c-29.61-.8112-57.88.8736-85.6 3.16m28.26-7.144c-23.75.4922-49.61 1.286-76 3.173m13.37.7326c-22.41-.1924-46.12.4582-69.52 1.673m15.19-3.275c-18.39-.6229-36.31-.3828-54 .1604-4.608.1415-8.772-1.631-11.74-4.574-2.971-2.942-4.755-7.059-4.596-11.6.06093-1.739.123-3.479.186-5.218.9813.0369 1.963.0738 2.945.1104m2.168 17.91c-.5901-.4926-1.148-1.027-1.67-1.598-2.937-3.215-4.722-7.612-4.598-12.46.04768-1.859.092-3.72.1336-5.581 24.86-.6973 49.24-1.66 74.7-3.876m-68.91 15.97c33.06 1.45 66.61-2.24 102-6.908m-36.49-4.147c33.53.6628 66.17-1.22 98.6-3.703m-22.67 4.836c31.53-.7725 66.62.9188 101 2.792m-28.04-1.972c31.64-.8139 63.15-.5104 95.91-1.234m-35.32-1.227c31.55-1.336 66.65-.7547 101.4-2.17m-34 2.561c25.98-.0693 51.46.8321 77.34 2.566.0313 1.932.0647 3.868.1005 5.808.1149 6.23-2.669 11.79-6.944 15.36m7.811-27.13c2.349.0752 4.684.1438 7.007.2067-.0211 1.857-.05 3.711-.0867 5.562-.1184 5.965-3.236 11.22-7.953 14.41-.1322.0924-.2683.1769-.4045.2615-.3385.2172-.6852.4227-1.036.6164-.1238.0686-.2436.1371-.3634.2017-.4499.2343-.9081.4529-1.379.652-.029.0122-.0543.0245-.0794.0368-.5243.2155-1.061.4115-1.611.58-.062.0205-.1239.0371-.1859.0536-.4587.1398-.9258.2601-1.401.3609-.1489.0334-.2937.0629-.4427.0924-.4096.0763-.8236.1448-1.242.1977-.1581.0179-.3102.0396-.4683.0575-.5596.0588-1.124.098-1.697.106-20.19.2839-41.25.5379-63.19 1.353m31.23 1.529c-25.34-.5809-48.93-.4797-72.29-.6125m19.99.3002c-24.46-.1787-51.39.272-79.06 1.022m12.9-6.92c-27.93 1.276-57.44 2.301-86.27 5.975m17.36-2.108c-30.57.9031-58.29 1.103-86.16 2.691m28.2 6.879c-32.4 1.449-65.83-.8016-98.1-2.433m27.24-5.771c-18.23-.8406-35.4-.7059-52.11-.3012-4.507.1092-8.559-1.694-11.41-4.672-1.075-1.123-1.98-2.413-2.673-3.83m8.495 11.22c-3.503-.606-6.618-2.251-9.023-4.601-3.165-3.091-5.108-7.407-5.087-12.21.0082-1.84.02274-3.686.04307-5.538 21.8-.5077 44.42-1.903 67.03-3.696m-60.49-1.748c32.61-.2953 62.95 1.238 93.92 3.842m-27.84 4.869c27.64.7591 54.07-1.404 79.8-4.944m-14.48 4.163c25.88.5312 49.73-.1778 73.42-1.234m-13.5.7258c24.88-.0103 50.97-1.485 77.27-4.423m-20.13 7.549c27.85 1.141 54.39-.1524 82.02-1.679m-21.02-10.24c26.54-.7474 50.63-.5272 74.05-.6682m-16.84 8.559c18.75-.1272 38.48.5454 58.76 1.883.1012 1.935.2071 3.875.3174 5.821.3557 6.273-2.215 11.89-6.276 15.5-.1135.1043-.2313.2011-.3487.2977-.2918.2475-.5913.4837-.8947.7081-.1071.0794-.2105.1586-.314.2337-.3895.2735-.7865.5316-1.195.7709-.0248.015-.0457.03-.0666.0451-.4552.2603-.9213.5016-1.399.7166-.0538.0257-.1078.0476-.1616.0693-.3985.1786-.8045.3381-1.218.4788-.1294.046-.2552.0877-.3846.1297-.2546.0792-.511.1546-.7692.2235m15.91-22.85c-.5647 5.312-3.387 9.914-7.432 12.78-.1241.0912-.2521.1747-.3801.258-.3179.2143-.6432.4168-.9722.6073-.1161.0675-.2283.1349-.3404.1984-.4216.2303-.8504.4447-1.29.6394-.0269.0119-.0501.0238-.0731.0359-.4901.2106-.9912.4014-1.503.5645-.0578.0198-.1155.0359-.1733.0518-.4273.1353-.8619.2508-1.304.3466-.1383.0318-.2728.0599-.411.0878-.3802.072-.7639.136-1.151.1842-.1466.0162-.2864.036-.4331.0523-.5172.0525-1.038.0851-1.565.0863-15.96.0355-31.34-.1709-46.36-.3583m10.75 6.751c-23.73.6768-47.99.2096-72.23-.3206m24.56-3.625c-30.83.0249-63.69-.2574-95.66-.7862m16.43 1.255c-27.25-.0554-55.2-.2738-81.51-.7913m14.9 2.979c-32.23.7191-62.05-1.013-89.2-3.121m24.24.0741c-27.63-.48-55.71-.2076-84.87-.1299m23.85 1.615c-15.55.0706-30.51.2225-45.17.5039-4.601.0883-8.747-1.741-11.69-4.737-2.947-2.995-4.701-7.164-4.507-11.74.07441-1.755.1503-3.509.2271-5.259 1.427.0447 2.854.0907 4.281.1381m.0081 7.832c-1.853-2.874-2.924-6.339-2.87-10.06.02669-1.85.04769-3.699.06345-5.545 20.13-.4046 39.62-.6061 59.07-1.189m-68.24 39.38c1.622-1.099 3.5-1.727 5.407-1.787 1.186-.0375 2.372-.0692 3.559-.0953 4.738 2.848 10.33 4.555 16.32 4.664 17.46.319 34.93 1.59 51.99 3.095m-15.85 6.894c31.8 1.181 64.6-1.839 98.29-5.842m-35.41-1.58c31.22-.012 63.71-.1824 98.73-.5013m-32.37-.1629c33.18-.3917 66.21-.2578 101.4-.6648m-28.16 5.313c25.51-1.148 50.94-1.424 77.65-2.704m-19.94-2.53c27.52-.2276 53.34.0822 79.42.4915m-15.84 4.04c13.64.231 26.89.0372 39.85-.4729.6431-.0253 1.278-.0784 1.908-.144.2026-.0202.4013-.0481.6001-.0723.4424-.058.8844-.1242 1.322-.2024.2133-.0368.4303-.0701.6435-.111.5608-.1115 1.117-.2353 1.666-.379.2313-.062.4586-.1318.6896-.1979.3763-.1084.7525-.2212 1.124-.3458.2828-.0927.5651-.1934.8438-.2941.301-.1097.5975-.2312.8944-.3491.2855-.1133.5674-.2266.8487-.3479.4849-.2189.9656-.4461 1.438-.6853.2844-.146.5642-.3038.8443-.4579.2653-.1453.5266-.2946.784-.4479.2756-.1661.5515-.3286.8229-.5029.3083-.1963.6121-.4045.916-.6131.183-.126.37-.2402.5527-.3703 1.291-.0776 2.578-.1581 3.864-.2411 3.557-.2299 6.672 1.651 8.184 4.496m-15.75-8.803c.1062-.0544.2122-.1092.3182-.164.2029-.1053.4095-.1991.6122-.3086 1.41.0463 2.817.0862 4.22.1199 5.657.1358 10.31 4.642 10.46 10.11.1092 3.805-2.221 7.386-5.919 9.068-.001-.00093-.003-.002-.004-.003-1.505.6833-3.084 1.008-4.688.9508-8.181-.2905-16.43-.7314-24.68-1.27-7.139-.4654-14.11 1.886-19.13 6.338-2.441 2.163-4.877 4.317-7.304 6.466m15.42-10.54c-5.195.9414-10.04 3.523-13.78 7.425-10.21 10.66-20.38 22.1-30.56 34.17-6.09 7.226-15.16 10.08-22.91 8.531m34.55-2.115c-7.138 5.177-17.01 5.184-24.49-.2144-.1854-.1345-.3669-.2691-.5484-.4077-.4735-.3613-.9436-.7393-1.398-1.15-.00031-.006-.005-.0111-.009-.0127-12.39-11.24-24.97-23.1-37.68-35.59m12.38 4.383c-5.358-4.666-10.78-9.309-16.26-13.93-4.861-4.098-11.09-6.342-17.55-6.319-19.27.0689-38.91.2235-58.83.3509m27.95 5.532c-30.13 1.44-61.4.6909-91.6 1.474m18.74 3.291c-28.45.0223-58.62-1.542-89.1-4.663m28.64 1.459c-33.37-1.036-65.07 1.951-97.99 6.071m30.28-9.313c-17.19.2368-33.78.3466-50.35.5028-1.564.0147-3.08-.326-4.516-1.005-.0016.00034-.0032.00068-.0048.001-3.496-1.656-5.723-5.043-5.846-8.812-.08682-2.585.9098-5.074 2.787-6.998-.000601.00055-.0012.001-.0018.002 1.977-2.021 4.711-3.169 7.496-3.134m-2.884 1.58c2.017-1.633 4.577-2.535 7.166-2.477 1.221.0271 2.438.0535 3.651.0793 4.856 3.09 10.47 4.915 16.38 5.033 20.79.4135 40.45.8363 59.49 1.927m-32.86-7.146c25.59-.1734 50.31-.3628 75.7-.8334m-6.149 7.357c31.94.8934 64.12-2.708 94.29-8.238m-27.16 12.1c23.14-.3805 47.99-.8465 72.6-1.987m-17.05-7.466c28.97-.1154 57.88.6389 85.25 1.968m-14.74.2975c25.4-.4422 49.8-1.615 72.62-4.285m-26.25 4.872c16.28.4844 33.19.6034 50.54.7196.7009.005 1.394-.018 2.084-.0524.2218-.0102.4396-.0282.6574-.0425.485-.0358.9704-.0793 1.452-.1347.2347-.0257.4735-.0476.7083-.0771.618-.0816 1.233-.175 1.84-.2879.256-.049.5082-.1057.7644-.1586.4175-.0868.8353-.1775 1.249-.2799.3146-.0757.6296-.1594.9406-.2429.3358-.0911.668-.1941 1-.293.3198-.0952.6354-.1903.9515-.2932.545-.187 1.086-.3817 1.62-.5881.3211-.1261.6388-.264.9563-.3979.3008-.1262.5978-.2564.8908-.3903.3141-.1456.628-.2871.9386-.4404.3523-.1723.7012-.3564 1.05-.5404.2102-.1112.4243-.2106.6348-.3256 1.457.0132 2.917.0273 4.379.0424 5.359.0554 9.926 3.815 11.13 8.707m-16.01-6.951c.2472-.1017.4912-.2067.7322-.3149.2967-.1351.5931-.2667.8855-.4103.3319-.1614.6597-.3349.9873-.5088.1973-.1051.3985-.1987.5957-.3079 1.377.0478 2.751.0901 4.123.1273 5.53.1498 10.08 4.683 10.12 10.2.0312 3.839-2.373 7.46-6.155 9.2-.002-.00047-.004-.00093-.006-.001-1.539.7068-3.151 1.055-4.788 1.024-8.352-.1574-16.78-.4167-25.27-.7157-2.906-.1024-5.791.2432-8.546.9929m13.24 5.378c-2.588-.0623-5.162-.1235-7.723-.1848-7.131-.1707-13.99 2.54-18.85 7.373-9.975 9.93-19.63 19.76-29.15 29.28-3.346 3.35-7.718 5.137-12.24 5.307m25.15-17.62c-1.818 1.81-3.635 3.643-5.452 5.497-7.158 7.307-18.54 8.503-26.8 3.262-.1802-.1152-.3565-.2303-.5328-.3491-.46-.3097-.9156-.6339-1.356-.9883.00053-.002-.003-.005-.006-.003-9.2-7.453-18.34-14.55-27.36-21.42m8.413 9.643c-8.014-6.746-15.97-13.84-23.78-21.18-4.524-4.244-10.32-6.719-16.26-7.004-6.352-.3048-12.63-.6785-18.82-1.095m12.98 6.038c-25.84-.6479-52.29.1229-78.42 1.088m16.21-3.745c-32.97-.4568-63.08-1.592-91.75-4.71m29.64 3.968c-29.17-.1966-59.05-.9197-88.62-2.652m20.41-.7079c-25.68-.8278-50.69.7668-76.71 3.409m14.81-1.221c-6.881.3102-13.77.4684-20.65.5157-1.514.0104-2.982-.3402-4.365-1.035h-.0015c-3.368-1.695-5.475-5.15-5.451-9.017.01436-2.653 1.115-5.221 3.118-7.245.000924-.00066.0018-.001.0028-.002 2.125-2.141 5.025-3.407 7.992-3.488 1.255-.0339 2.512-.0693 3.769-.1058 5.065 2.797 11.01 4.313 17.4 4.096 3.107-.1054 6.225-.2118 9.355-.3162m-32.76 4.746c2.013-1.918 4.628-3.044 7.283-3.14 1.215-.044 2.429-.0855 3.639-.1246 4.846 2.785 10.49 4.364 16.47 4.253 15.42-.288 30.49-.3703 45.29-.7319m-20.25-1.94c30.32 1.119 60.35-.0493 91.18-.8103m-23.1 1.005c33.57-1.13 66.57.4472 99.96 1.361m-31.97 4.694c27.01-.408 52.59-1.145 78.36-2.939m-19.07 3.135c33.04.2426 66.05-.1509 99.97-.5256m-30.53-10.33c30.75.6252 61.17 1.315 89.56 3.745m-22.24 8.442c11.93-.4156 23.4-.8191 34.58-1.357.6528-.0314 1.297-.0902 1.936-.1612.2056-.0219.407-.0515.6086-.0774.4486-.0617.8968-.1314 1.341-.213.2163-.0385.4362-.0734.6523-.116.5685-.1158 1.133-.2437 1.688-.3913.2343-.0636.4647-.135.6988-.2028.3812-.111.7623-.2264 1.139-.3535.2864-.0946.5724-.1972.8546-.2997.3048-.1117.6052-.2352.9058-.355.2891-.1151.5746-.2302.8595-.3533.4911-.2221.9778-.4523 1.456-.6946.288-.1478.5714-.3074.8551-.4634.2687-.147.5333-.298.794-.453.2791-.1679.5586-.3322.8334-.5083.3123-.1984.6201-.4086.9279-.6193.1854-.1272.3747-.2427.5598-.3741 1.305-.0853 2.607-.1736 3.906-.2651 5.241-.3692 9.543 3.743 9.315 8.768-.1555 3.499-2.73 6.787-6.69 8.145-.003-.004-.007-.007-.0104-.0107-1.61.5511-3.288.7502-4.988.5651-.0522-.006-.1043-.0114-.1565-.0171m7.353-18.66c1.464 1.78 2.39 4.011 2.51 6.431.1981 3.941-2.013 7.678-5.539 9.568 4e-5.00076 9e-5.002.00013.002-1.435.7685-2.94 1.178-4.465 1.212-7.774.1748-15.45.328-23 .505-6.518.153-12.78 3.199-16.97 8.444-1.424 1.784-2.834 3.574-4.227 5.37m13.85-15.17c-3.046 1.359-5.835 3.316-8.168 5.789-9.943 10.54-19.78 21.37-29.43 32.53-5.776 6.689-14.5 8.951-21.79 6.697m19.84 3.01c-7.027 3.778-15.77 3.4-22.62-1.279-.1895-.1303-.3751-.2606-.5608-.3949-.4844-.3501-.9652-.7167-1.431-1.115-.00094-.005-.006-.01-.0108-.0107-13.63-11.73-27.5-24.05-41.86-36.84-4.1-3.65-9.043-6.195-14.3-7.447m25.29 18.72c-2.763-2.388-5.546-4.777-8.35-7.167-4.846-4.129-11.07-6.421-17.55-6.464-14.19-.0942-28.67-.2236-43.43-.4187m5.545-7.508c-28.72-1.362-56.2 1.135-82.16 4.431m29.23 2.366c-28.39-1.01-59.16-1.898-91.58-4.929m22.48-1.008c-23.28.8164-46.17-.1628-67.96-1.687m16.14 8.093c-21.44 1.091-45.62 1.128-71.03 1.597-1.744.0322-3.44-.29-5.07-.9477-.0057.00079-.01143.002-.01714.002-1.028-.415-1.97-.9456-2.812-1.568m17.84-9.318c-3.028.1508-6.089.2751-9.181.3768-1.535.0505-3.032-.2613-4.453-.9157-.0013.00086-.0026.002-.0039.003-3.465-1.598-5.698-4.961-5.859-8.732-.1133-2.587.8441-5.09 2.666-7.044-.0013.00019-.0025.00039-.0038.00058 1.933-2.066 4.62-3.261 7.346-3.267 1.153-.003 2.302-.007 3.449-.0115 4.543 2.945 9.855 4.613 15.47 4.563 3.457-.0305 6.888-.0604 10.3-.0826m-35.37 4.964c.835-.2512 1.699-.3942 2.57-.4199 1.18-.0347 2.363-.0677 3.548-.0989 4.726 2.822 10.35 4.426 16.42 4.332 18.08-.2788 36.56-.3452 54.93-.7092m-17.88.2244c28.22 1.084 55.9.2124 85.49-.5143m-15.2-7.455c25.24-.4296 48.75.1207 70.96.9302m-22.15 1.961c27.57-.2841 55.3.5612 84.37 1.946m-10.56-.5396c27.73-1.084 54.21 1.444 78.73 5.265m-20.96-5.499c28.38-1.341 55.95-1.576 82.24-3.652m-21.4 3.652c18.25.5834 36.46.8697 55.21 1.352.7125.0183 1.418.009 2.119-.0111.2255-.006.447-.0193.6685-.0291.4932-.0259.9869-.0593 1.477-.1044.2387-.0207.4816-.0375.7206-.0621.6288-.0684 1.254-.1483 1.872-.2476.2606-.0432.5174-.0943.7783-.1412.4252-.0773.8506-.1583 1.272-.251.3205-.0684.6416-.1445.9584-.2205.3422-.083.681-.1779 1.02-.2686.3261-.0873.648-.1745.9705-.2695.5561-.1731 1.109-.3538 1.654-.546.328-.1175.6528-.2468.9773-.372.3075-.118.6112-.2399.911-.3656.3215-.1367.6425-.2693.9606-.4136.3607-.1621.7183-.3358 1.076-.5092.2155-.1048.4348-.198.6508-.3065 1.49.0519 2.984.1059 4.482.1624 4.125.1554 7.812 2.4 9.988 5.658m-25.87-4.576c.1849-.0684.3688-.1378.5528-.2101.5072-.2091 1.011-.4249 1.507-.6512.2985-.1382.5932-.2876.888-.4328.2793-.1369.5548-.2773.8265-.4211.2911-.1562.5823-.3079.8698-.4711.3263-.1836.6488-.3784.9714-.5728.1944-.1174.3927-.2228.5872-.3438 1.361-.0226 2.723-.0384 4.088-.0476 5.508-.0371 10.09 4.51 10.24 10.16.108 3.945-2.191 7.733-5.824 9.738-.00083.002-.002.003-.002.005-1.479.8155-3.026 1.277-4.596 1.372-8.003.4826-15.96 1.136-23.87 1.91-3.003.2937-5.967 1.156-8.746 2.525m14.35-7.542c-2.778-.0582-5.575-.1176-8.389-.1797-6.92-.1526-13.77 2.562-18.76 7.386-10.25 9.914-20.82 19.68-31.45 29.13-3.016 2.683-6.697 4.348-10.59 4.965m17.5-15.03c-2.168 2.344-4.34 4.695-6.514 7.052-6.925 7.513-18.15 8.678-26.16 3.265-.175-.119-.3462-.2382-.5173-.361-.4463-.3203-.8882-.6557-1.314-1.022.001-.003-.001-.006-.004-.005-9.609-8.313-19.07-16.47-28.15-24.41m10.15 25.3c-7.975-6.773-16.1-13.84-24.34-21.16-4.866-4.318-11.08-6.868-17.53-7.246-16.69-.9767-33.58-2.456-50.53-4.255m44.58-1.952c-28.56.2433-61.35.4154-95.72 1.092m26.55 4.377c-26.16.8246-51.76.5917-78.08.7331m22.63-6.319c-28.46 1.413-58.31.7092-88.44 1.077m14.91-3.148c-24.44-.6232-47.83.1705-71.6 1.434-1.566.0833-3.086-.1895-4.527-.7959-.0017.002-.0035.004-.0052.006-3.511-1.479-5.76-4.697-5.917-8.282-.0675-1.505.2699-2.976.965-4.302m13.52 21.75c-1.48-.0143-2.952-.0284-4.417-.0422-1.604-.0152-3.152-.3851-4.611-1.095-.0021-.00032-.0042-.00064-.0063-.00096-3.549-1.731-5.78-5.192-5.852-9.043-.05158-2.641 1.003-5.19 2.971-7.181.000506-.00027.001-.00054.0015-.00081 2.088-2.107 4.972-3.331 7.935-3.361 1.253-.0129 2.51-.0261 3.771-.0396 5.077 2.905 11.08 4.55 17.54 4.461 5.04-.0693 10.11-.1469 15.21-.2359m-45.18-5.917c1.654-.8713 3.495-1.356 5.356-1.379 1.267-.0159 2.531-.0319 3.794-.0482 5.089 2.892 10.99 4.527 17.27 4.429 17.98-.2816 35.81-.6673 54.15-1.35m-11.21-9.644c28.33.8019 59.21 1.05 91.34 2.569m-21.85 8.994c31.34.7025 64.24.5344 94.78 1.506m-32.8-10.8c23.71 1.174 47.17 1.894 69.88 3.991m-12.15 10.03c29.72.5312 55.48-2.166 80.22-6.906m-20.24 3.741c30.68-.4137 64.52-1.324 97.65-3.875m-29.2-3.079c14.09-.6302 27.82-.8256 41.47-.9013.6723-.004 1.336-.0344 1.997-.0767.2122-.0127.4204-.0332.6286-.0498.4636-.0412.9271-.09 1.387-.1505.2239-.0282.4516-.0526.6755-.0847.589-.0882 1.174-.188 1.751-.3072.2434-.0516.4829-.111.7262-.1665.3964-.0911.7929-.1861 1.185-.2928.2983-.079.5966-.1658.8909-.2526.3179-.0946.6318-.201.9458-.3034.3022-.0985.6004-.1969.8986-.3032.5141-.1928 1.024-.3933 1.526-.6055.3022-.1297.6004-.271.8987-.4085.2826-.1296.5612-.2631.8359-.4005.2944-.1492.5887-.2944.8792-.4514.3297-.1766.6555-.3649.9814-.5533.1963-.1138.3965-.2159.5928-.3336 1.372-.003 2.744-.006 4.116-.0102 5.54-.0153 10.13 4.445 10.29 9.901.0926 3.073-1.389 6.015-3.874 7.939m-2.907-18.05c4.46 1.062 7.868 5.143 7.923 10.01.0477 3.913-2.317 7.637-6.034 9.533-.002 8e-4-.003.002-.005.002-1.513.7707-3.094 1.185-4.699 1.227-8.184.2121-16.36.4683-24.54.7949-7.072.2823-13.98 3.49-18.96 8.92-5.416 5.896-10.85 11.87-16.31 17.96m17.74-20.72c-1.73 1.16-3.343 2.518-4.794 4.055-10.1 10.7-20.53 21-31.19 31.18-7.627 7.285-19.57 8.132-28.53 2.324-.1959-.1278-.3877-.2555-.5797-.3872-.5009-.3431-.9984-.7017-1.481-1.092-.002-.004-.008-.009-.0137-.009-.6198-.5032-1.24-1.006-1.861-1.509m16.77 3.917c-5.218.745-10.75-.4561-15.3-3.671-.1785-.1269-.3531-.2536-.5277-.3842-.4554-.3403-.9067-.6956-1.342-1.081.00078-.004-.002-.008-.006-.008-12.74-11.35-25.38-22.09-37.61-32.71-4.453-3.863-10.18-5.877-16.03-5.633-3.044.1271-6.07.2524-9.075.3725m30.76 8.414c-.2873-.2544-.5745-.5084-.8617-.7618-4.97-4.385-11.25-6.796-17.72-6.85-20.66-.1719-41.36.7013-62.76 1.566m21.48.9332c-24.13-.0567-48.02-.4799-71.62-1.335m18.82 3.288c-24.15.9014-47.98.2322-72.01-.6479m15.51-7.087c-27.92.0212-56.36-1.231-86.21-3.714m18.19 6.253c-19.77.7988-40.21.9973-60.31 1.507-1.505.0382-2.963-.2785-4.334-.931-.00024.00091-.00048.002-.000718.003-3.337-1.59-5.409-4.909-5.331-8.591.0508-2.524 1.193-4.952 3.248-6.799.0016.001.0031.003.0047.004 1.738-1.557 3.975-2.547 6.352-2.808m-5.535 43.6c.2883-4.271 2.097-8.172 4.974-10.96 2.074.5541 4.216.8315 6.403.8236 21.39-.0778 42.78 1.345 62.97 2.886m-20.6-2.035c30.79.8588 60.89-1.536 90.87-5.038m-26.94 7.421c33.96 1.508 67.4-.535 103.1-1.687m-33.31 1.882c26.49.6124 51.77 1.012 77.9 2.246m-17.08.7224c12.2.1353 25.02.0925 38.15-.0655 2.786-.0335 5.493.9055 7.648 2.628 9.734 7.804 19.71 15.51 29.67 23.19m-23.77-19.96c6.73 5.161 13.41 10.54 20.12 16.09-.5983.0312-1.223.0522-1.869.0627-4.742.0775-8.149-.4877-11.07-1.484-2.916-.9933-5.305-2.401-7.968-3.959-3.011-1.762-6.217-3.624-10.29-4.937-4.063-1.311-9.013-2.077-15.39-1.596-4.628.3489-8.398 1.235-11.57 2.429m27.94-3.77c-3.187-.6182-6.867-.9698-11.29-.931-6.914.0606-12.17 1.047-16.59 2.51-4.406 1.457-7.862 3.347-11.15 5.103-2.877 1.539-5.497 2.91-8.62 3.804-3.128.8953-6.82 1.331-11.88.9533-5.063-.3773-8.771-1.363-11.92-2.745-3.159-1.386-5.782-3.18-8.713-5.199-3.33-2.294-6.848-4.732-11.35-6.786-.8565-.3911-1.747-.7676-2.678-1.126m17.94 14.92c-1.604-.3441-3.032-.7888-4.359-1.316-2.95-1.173-5.372-2.745-8.096-4.5-3.082-1.986-6.367-4.088-10.57-5.7-4.203-1.611-9.32-2.729-16.01-2.738-6.68-.009-11.72 1.092-15.81 2.668-4.092 1.578-7.243 3.636-10.17 5.561-2.585 1.701-4.868 3.214-7.64 4.301-2.761 1.083-6.006 1.74-10.39 1.692-.4502-.005-.887-.0171-1.311-.0361m29.94-5.677c-1.456.7276-2.826 1.485-4.155 2.225-2.859 1.592-5.4 3.029-8.474 4.05-3.074 1.021-6.657 1.619-11.59 1.548-4.932-.0714-8.494-.774-11.55-1.901-3.048-1.126-5.566-2.667-8.381-4.39-3.19-1.952-6.58-4.026-10.91-5.628-4.341-1.605-9.589-2.723-16.52-2.802-4.224-.0482-7.82.2158-10.96.6995m18.43 5.191c-3.294-.8187-7.105-1.348-11.67-1.431-7.267-.1331-12.68.6676-17.15 1.939-4.47 1.27-7.964 2.997-11.41 4.68-2.607 1.272-5.16 2.507-8.215 3.522-3.053 1.014-6.65 1.821-11.33 2.209-3.087.2562-6.125.2591-9.05.0249m12.37-2.861c-1.948.5496-4.12 1.036-6.598 1.44-6.804 1.111-13.45 1.077-19.3.0356-5.848-1.041-10.89-3.09-14.5-6.014-3.77-3.053-5.746-6.897-5.949-11.41-.0015.00049-.003.00098-.0045.001-.2154-4.697 1.619-9.135 4.831-12.16 2.029.6381 4.119.9859 6.247 1.038 6.861.1674 13.65.375 20.37.645m-36.23 11.02c.09006-4.668 2.065-9.016 5.344-12.06 2.139.5561 4.35.827 6.614.8036 20.89-.2162 42.3.1641 63.7.3369m-11.69.0394c26.89-1.014 53.09-.456 78.84-.2727m-14.63 6.992c26.66.1365 54.05-1.526 81.56-4.716m-27.52.4973c25.12-.9168 52.42-.4322 79.5-.2668m-20.28.6579c16.85.2003 34.54.2256 52.35.2378 2.742.002 5.396.98 7.485 2.747 4.332 3.677 8.667 7.354 12.98 11.04m-6.88-18.27c.3672.2373.7208.4979 1.059.7807 10.15 8.521 20.5 17.24 30.91 25.95-.6243.0145-1.276.0171-1.95.007-4.935-.0702-8.519-.7962-11.58-1.947-3.059-1.15-5.595-2.725-8.426-4.491-2.713-1.692-5.57-3.479-9.032-5.016m12.04 12.48c-2.038-.9873-3.906-2.156-5.971-3.423-3.138-1.927-6.553-3.974-10.96-5.489-4.404-1.516-9.848-2.52-17.11-2.32-7.268.2004-12.91 1.51-17.56 3.286-4.665 1.779-8.373 4.036-11.87 6.167-2.008 1.224-3.882 2.369-5.865 3.376m9.053-15.39c-3.08 1.306-5.7 2.839-8.195 4.3-2.826 1.655-5.364 3.143-8.435 4.206-3.072 1.063-6.675 1.701-11.65 1.661-4.98-.0394-8.609-.7349-11.72-1.856-3.109-1.12-5.692-2.663-8.586-4.388-3.28-1.955-6.782-4.04-11.26-5.655-4.479-1.617-9.909-2.755-17.09-2.849-5.034-.066-9.222.4033-12.83 1.199m32.45 3.989c-3.795-1.123-8.254-1.854-13.66-1.868-6.868-.0169-12.03 1.135-16.19 2.771-4.172 1.639-7.391 3.782-10.37 5.798-2.641 1.788-4.955 3.381-7.782 4.583-2.819 1.198-6.105 1.986-10.59 2.168-4.472.182-7.674-.342-10.38-1.305-2.701-.9615-4.895-2.358-7.317-3.911-2.434-1.56-4.984-3.205-8.122-4.504m27.62 5.854c-3.01-.18-5.465-.6813-7.652-1.401-3.09-1.017-5.66-2.474-8.526-4.101-3.247-1.842-6.723-3.817-11.15-5.288-4.422-1.47-9.825-2.448-16.92-2.268-7.506.1912-13.11 1.321-17.72 2.908-4.614 1.587-8.249 3.632-11.83 5.66-2.722 1.543-5.354 3.043-8.548 4.413-1.842.7897-3.86 1.531-6.184 2.213m19.1-11.01c-3.612 1.108-6.651 2.529-9.584 3.932-2.731 1.306-5.335 2.579-8.471 3.689-3.129 1.108-6.753 2.039-11.46 2.657-6.641.8741-12.97.6765-18.46-.5103-5.487-1.185-10.14-3.36-13.36-6.411-3.36-3.182-4.975-7.159-4.717-11.84.0018-.00079.0037-.002.0055-.002.2647-4.882 2.59-9.531 6.328-12.83 1.432.3192 2.89.5194 4.369.5976m-5.701 23.79c.3209-4.304 2.163-8.26 5.073-11.11 2.082.5275 4.226.7717 6.411.7224 23.9-.54 47.23-.0842 68.83-.5756m-23.33-3.785c33.1 1.424 66.79-2.291 101.7-7.025m-32.31 1.439c29.59.6808 59.63 1.141 88.97 3.037m-21.52-5.928c30.3.4303 62.54 1.643 93.58 4.806.6944.0708 1.382.2072 2.055.4064m-28.68 1.428c8.65.353 17.16.5087 25.53.5385 2.646.009 5.192.9828 7.156 2.735 9.13 8.173 17.97 16.12 26.54 24.08m-11.57-5.496c4.985 4.195 9.867 8.248 14.67 12.18-.6151.0125-1.258.0116-1.925-.003-4.867-.1069-8.476-.93-11.53-2.173-3.066-1.247-5.629-2.938-8.493-4.851-3.262-2.179-6.715-4.513-11.18-6.493-4.467-1.982-9.851-3.568-17-4.35-4.463-.4879-8.238-.5113-11.54-.2228m10.9 2.154c-2.761-.5478-5.821-.9013-9.239-.9815-7.064-.1658-12.38.9129-16.65 2.487-4.282 1.578-7.604 3.686-10.67 5.666-2.72 1.758-5.107 3.329-8.016 4.506-2.9 1.174-6.282 1.937-10.9 2.084-4.616.1464-7.934-.4061-10.75-1.398-2.814-.9904-5.119-2.416-7.677-4.007-2.904-1.806-5.978-3.728-9.937-5.163-1.458-.5285-3.033-.9896-4.759-1.354m32.52 14.7c-.6927-.1637-1.355-.3496-1.993-.555-3.13-1.007-5.742-2.501-8.58-4.183-3.247-1.925-6.618-3.996-10.92-5.687-4.298-1.692-9.414-2.957-16.08-3.347-6.659-.3897-11.57.2914-15.61 1.491-4.019 1.194-7.102 2.885-9.969 4.447-2.523 1.375-4.785 2.6-7.51 3.345-1.087.2973-2.25.5188-3.532.6412m9.73-12.82c-2.353 1.189-4.425 2.477-6.408 3.711-2.751 1.712-5.199 3.238-8.151 4.335-2.949 1.096-6.403 1.762-11.11 1.741-4.699-.0218-8.089-.7201-10.95-1.843-2.863-1.123-5.207-2.674-7.799-4.409-2.945-1.971-6.037-4.063-9.994-5.7-3.949-1.633-8.73-2.796-14.9-2.898-.8401-.0138-1.65-.0114-2.431.006m25.69 1.685c-.1786-.0597-.3587-.1186-.5403-.1768-4.545-1.457-10.02-2.428-17.12-2.284-7.498.1518-12.99 1.213-17.5 2.731-4.505 1.516-8.016 3.486-11.45 5.428-2.615 1.476-5.137 2.908-8.189 4.187-3.053 1.279-6.604 2.391-11.28 3.243-4.086.7464-8.096 1.077-11.89 1.018m12.11-.6517c-2.287.5242-4.849.968-7.843 1.313-7.031.8114-13.83.6542-19.79-.4252-5.969-1.08-11.09-3.081-14.78-5.944-3.849-2.987-5.886-6.744-6.171-11.15-.0021.001-.0042.003-.0063.004-.3006-4.581 1.444-8.891 4.543-11.78 1.976.7011 4.008 1.112 6.071 1.226 3.049.1687 6.071.3418 9.06.5151m-23.57 10.83c.2134-4.623 2.406-9.016 5.969-12.08 2.221.6014 4.507.9035 6.841.8988 23.75-.0477 47.45-.7229 72.25-1.505m-26.06-8.514c26.43-.2482 53.47.3901 81.01 1.449m-10.71 13.67c23.47-.4697 47.97-.4931 71.77-.8223m-16.55-12.5c29.41-.077 56.93-.3845 85.28-1.114m-25.22 9.278c16.93.3105 34.42.5686 52.18 1.025 2.799.0719 5.512 1.123 7.666 2.971 6.369 5.479 12.79 11.01 19.23 16.62m-21.25-20.22c10.04 8.818 19.7 17.27 29.16 25.6-.6344.026-1.297.0401-1.984.0422-5.023.0153-8.709-.6619-11.86-1.762-3.152-1.101-5.778-2.631-8.72-4.339-3.33-1.933-6.901-4.001-11.44-5.57-3.129-1.082-6.733-1.932-11.04-2.33m25.06 7.759c-2.624-1.797-5.499-3.596-9.04-5.014-4.196-1.681-9.374-2.845-16.19-2.789-6.806.0557-12.04 1.3-16.29 3.014-4.261 1.721-7.591 3.938-10.7 6.027-2.75 1.85-5.18 3.503-8.138 4.765-2.951 1.259-6.4 2.115-11.11 2.377-3.486.1941-6.243-.0174-8.605-.517m20.77-7.231c-.5845.2795-1.186.5421-1.811.7856-2.966 1.155-6.482 1.885-11.37 1.936-4.891.0514-8.5-.6024-11.59-1.684-3.091-1.084-5.672-2.6-8.575-4.3-3.288-1.925-6.823-3.987-11.35-5.571-4.526-1.585-10.05-2.696-17.36-2.719-7.319-.0232-12.91 1.055-17.51 2.625-3.946 1.344-7.176 3.048-10.16 4.726m23.21-4.995c-5.989.4906-10.66 1.648-14.64 3.166-4.446 1.696-7.92 3.803-11.22 5.777-2.896 1.734-5.509 3.28-8.647 4.383-3.142 1.105-6.829 1.776-11.92 1.754-5.087-.0218-8.813-.7224-12-1.842-3.189-1.122-5.846-2.666-8.83-4.39-3.21-1.854-6.65-3.832-10.94-5.379m17.28 6.689c-2.638-.9931-4.943-2.277-7.471-3.678-3.284-1.819-6.791-3.754-11.21-5.132-4.405-1.375-9.795-2.22-16.78-1.773-7.378.4728-12.88 1.895-17.36 3.741-4.493 1.85-8.019 4.15-11.48 6.443-2.641 1.752-5.165 3.447-8.261 5.073-3.098 1.627-6.673 3.132-11.43 4.563-.135.0406-.27.0808-.4048.1206m26.03-12.54c-.7282.3733-1.448.7534-2.165 1.135-2.555 1.357-5.026 2.692-8.07 3.904-3.05 1.214-6.591 2.272-11.34 3.135-6.679 1.215-13.24 1.467-18.99.7829-5.766-.6852-10.71-2.306-14.23-4.819-3.669-2.616-5.553-6.056-5.617-10.06-.00049.004-.00098.008-.0015.0127-.07008-4.164 1.934-8.05 5.361-10.48 2.133.9242 4.335 1.563 6.59 1.919.6197.0977 1.24.1961 1.86.2953m-10.29 5.51c.6599-3.56 2.404-6.807 4.944-9.252 2.097.5403 4.256.789 6.455.736 25.65-.6181 50.51-1.205 73.59-3.055m-25.06-.391c32.71.8867 65.26.7341 98.45 2.073m-32.68.0748c29.18-1.2 57.3-1.447 86.53-3.346m-21.4-3.567c26.83.9436 53 1.056 79.55 2.092m-17.39 1.931c10.95.4246 21.91.5394 32.73.4929 2.572-.0111 5.05.9458 6.946 2.684 9.539 8.772 18.8 17.36 27.48 26.03-.7034.0122-1.439.0125-2.202.00076-2.593-.0398-4.872-.2173-6.928-.5102m-7.182-9.716c4.406 3.934 8.796 7.751 13.18 11.47-.6186.025-1.264.0373-1.933.0364-4.881-.006-8.471-.749-11.5-1.916-3.038-1.171-5.567-2.79-8.377-4.614-3.199-2.076-6.582-4.302-10.93-6.132-4.348-1.828-9.613-3.239-16.55-3.728-6.931-.4882-12.16.1867-16.46 1.399-1.291.364-2.496.7758-3.635 1.218m31.69 2.902c-1.176-.0827-2.406-.131-3.693-.1406-7.007-.0524-12.39 1.065-16.8 2.671-4.418 1.609-7.902 3.723-11.17 5.715-2.889 1.761-5.471 3.342-8.599 4.518-3.129 1.177-6.782 1.94-11.84 2.093-5.057.1526-8.733-.3902-11.89-1.369-2.032-.6291-3.845-1.437-5.664-2.35m9.269 1.792c-3.783-.1234-6.721-.7254-9.282-1.637-3.028-1.078-5.546-2.594-8.359-4.292-3.192-1.927-6.598-3.99-10.96-5.589-4.365-1.599-9.674-2.73-16.67-2.808-7.004-.0776-12.32.9364-16.69 2.443-2.981 1.027-5.518 2.28-7.846 3.566m22.72-11.78c-2.811.4663-5.287 1.16-7.514 1.988-4.346 1.616-7.77 3.755-10.98 5.78-2.84 1.794-5.363 3.406-8.439 4.634-3.078 1.229-6.654 2.052-11.62 2.323-4.965.271-8.554-.161-11.65-1.032-3.084-.8692-5.638-2.167-8.497-3.595-3.226-1.611-6.708-3.323-11.1-4.432-4.39-1.108-9.784-1.637-16.81-.7833-.3362.0408-.6684.0834-.9969.1276m22.99 5.697c-2.115-1.097-4.428-2.172-7.135-3.083-4.322-1.455-9.569-2.468-16.64-2.559-7.502-.0968-13.04.6326-17.73 1.848-4.66 1.208-8.313 2.856-11.95 4.463-2.744 1.212-5.447 2.387-8.673 3.332-3.232.946-7.026 1.672-11.99 1.973-5.765.3507-11.4-.0563-16.52-1.115m24.84-2.503c-2.548.8878-5.508 1.642-9.166 2.181-6.481.9563-12.8.7678-18.31-.4284-5.509-1.196-10.22-3.4-13.49-6.474-3.413-3.206-5.075-7.204-4.852-11.9.0016-.00087.0032-.002.0048-.003.2281-4.892 2.54-9.54 6.306-12.81 2.295.5223 4.665.7489 7.094.6698 3.242-.1056 6.502-.2172 9.785-.3347m341.2 196.5c-33.48 1.427-64.35-2.289-94.13-6.983m18.2-.6736c-25.05.4468-50.99-.6323-77.17-2.47m18.51 2.08c-32.86 1.25-64.09 1.187-94.22 3.416m33.03-6.698c-25.91.2548-52.05-.2616-78.07-1.107m9.757 12.98c-6.458-.325-12.92-.542-19.37-.6907-25.8-.5954-48.69-11.04-63.02-29.47m22.41 3.524c-8.514-4.814-16.32-10.56-23.29-17.1-10.87-10.21-19.64-22.33-25.8-35.83m8.206 12.16c-6.76-13.4-10.7-28.55-10.32-44.03.1582-6.468 5.985-11.65 13.19-10.93 5.605.5566 11.24 1.185 16.92 1.896m-24.33 9.048c1.509-.7124 3.162-1.143 4.894-1.228 27.48-1.356 54.33-2.732 80.71-6.93m-15.94 6.006c31.53-.873 62.12-.8552 95.02-2.137m-31.77-7.434c33.73-.8734 68.5 1.158 106.7 3.578m-35.43 7.868c28.38.1629 56.11-.1896 84.34-.721m-17.32-7.716c23.25.7131 47.07-.1732 70.26-1.542m-19.18-3.849c7.306.006 14.78.147 22.4.4236 4.179.1519 7.594-3.047 7.691-6.97.0969-3.915-3.154-7.056-7.15-6.749-14.22 1.094-28.1 2.709-41.92 4.851m14.71 1.936c-31.02-1.317-63.34.002-93.86.2505m32.35 2.992c-25.98.6036-50.45.222-75.14-.1271m13.96-1.318c-25.3.3393-48.09-.5368-70.16-2.111m11.11-.3884c-28.14 1.31-54.4-.3429-80.48-2.33m23.7 8.931c-19.4.9197-38.33.7483-56.54.4405.3935-5.569.8423-11.15 1.352-16.72.1876.033.3758.0653.5645.0969m-5.1 5.204c-.09903.004-.198.009-.297.0132-.1579-5.233-.2407-10.49-.2612-15.75 4.254 1.07 8.822 1.722 13.61 1.925 3.682.1554 7.489.048 11.37-.3192 12.45-1.189 19.44-4.25 25.67-6.896 3.194-1.357 6.106-2.57 9.617-3.298 3.506-.7278 7.732-.9987 13.54-.3791 3.27.3486 5.989.9332 8.353 1.7m-33.17-1.392c2.514-1.385 4.913-2.603 7.722-3.518 3.368-1.097 7.391-1.779 12.9-1.733 4.899.0412 8.471.8031 11.48 1.988 3.012 1.187 5.509 2.82 8.27 4.657 3.144 2.092 6.452 4.329 10.7 6.173 4.246 1.842 9.379 3.266 16.12 3.772 3.208.2406 6.037.2175 8.578-.003m-21.16-6.971c3.154.7576 6.728 1.266 10.86 1.403 7.081.2351 12.45-.7312 16.82-2.192 4.375-1.463 7.802-3.443 10.99-5.289 2.817-1.631 5.333-3.094 8.365-4.119 3.027-1.024 6.586-1.617 11.45-1.483 4.869.1337 8.411.9232 11.42 2.136 3.016 1.213 5.514 2.855 8.302 4.705.6964.4621 1.402.9317 2.127 1.404m-8.672-.2988c4.137.008 7.308.5373 10.06 1.392 3.194.9923 5.858 2.434 8.807 4.041 3.344 1.821 6.914 3.777 11.43 5.227 4.515 1.449 10.02 2.406 17.24 2.194 7.235-.2121 12.76-1.497 17.34-3.262 4.578-1.764 8.205-4.007 11.63-6.132 2.615-1.622 4.998-3.104 7.723-4.319m-28.1 14.81c.5758-.1671 1.136-.3439 1.682-.5289 4.327-1.466 7.756-3.452 10.98-5.316 2.85-1.646 5.42-3.128 8.529-4.182 3.111-1.055 6.766-1.683 11.83-1.629 5.069.0544 8.775.763 11.96 1.897 3.184 1.133 5.841 2.689 8.826 4.431 3.382 1.974 7.002 4.081 11.63 5.728 4.634 1.65 10.24 2.828 17.7 2.992 4.457.0986 8.468-.1791 12.27-.8649m-28.85-5.237c.0265.011.053.0221.0795.0331 4.256 1.764 9.506 3.038 16.5 3.176 6.664.1315 12.35-.7908 17.83-2.844 5.182 2.544 10.86 3.802 16.58 3.795 9.765-.0124 19.58-3.697 27.11-10.85.7463-.7082 1.493-1.416 2.24-2.122 2.496.8535 4.736 1.925 7.092 3.122m-17.95-2.795c4.384-1.597 8.451-4.15 11.91-7.633.6903-.6952 1.38-1.393 2.068-2.093 2.793 1.034 5.204 2.335 7.872 3.772 5.767 3.108 12.36 6.594 24.01 8.014 3.641.4443 7.225.5912 10.7.4646 4.643-.1693 9.086-.8416 13.22-1.951-.251 4.465-.5248 8.929-.8215 13.41m-15.44-3.816c3.844-.26 7.546-.8089 11.05-1.629-.1098 5.432-.2318 10.92-.374 16.45-24.46.091-49.29.9753-75.15 1.593m29.05 5.015c-9.923.1683-19.96.215-30.07.1862-4.187-.012-7.591 3.33-7.652 7.446-.0614 4.114 3.239 7.442 7.307 7.392 8.511-.1033 16.98-.2363 25.42-.3692m-17.16-.2565c23.8.4584 48.18-.5273 73.59-2.269m-12.48-7.263c7.248.0146 14.5.017 21.71.009 6.748-.007 12.22 5.658 11.91 12.62-.883 19.76-8.097 38.11-20.42 53.38m8.598-25.86c-4.471 15.35-13.08 29.87-24.54 41.91-8.662 9.099-18.95 16.78-30.32 22.36m29.89.227c-15.7 12.49-35.87 19.05-57.87 17.99-.00069-.002-.001-.003-.002-.005-5.413-.2617-10.84-.5536-16.27-.8636m16.36-7.936c-24.44-.7473-51-.3128-79.02.0361m11.91-3.59c-28.77 1.171-57.95.2245-88.55-.3372m32.74 1.704c-29.11-1.09-59.42-.2683-90.98-.0492m16.07 9.62c-28.25-.0435-55.09-.3647-81.41-1.041m23.34-8.724c-11.39.3088-23.16.5301-35.21.7771-18.13.3715-35.79-3.852-51.48-11.17m26.86 13.36c-15.73-4.067-30.3-12.97-42.7-25.1-9.514-9.314-17.75-20.54-24.34-33.04m14.35 16.24c-12.18-16.67-19.13-36.99-19.2-59.6-.02542-7.389 5.625-13.45 12.55-14.01.9481-.0765 1.896-.1548 2.843-.2349m-13.74 22.32c.8604-6.53 6.214-11.6 12.63-11.84 23.77-.9002 46.57-1.702 68.95-4.035m-27.9 5.513c31.28-1.106 62.34-1.742 95.29-4.654m-24.61-3.353c31.42.4302 65.5.7019 99.51 2.067m-35.19-1.324c24.66.4763 50.51.2572 77.15.1525m-9.468 6.41c30.72-.9016 63.75-1.559 95.34-4.485 1.144-.106 2.225-.4726 3.188-1.048m-36.18.2986c8.971.0137 17.79.0161 26.49.0103 4.104-.003 7.413-3.37 7.325-7.524-.0881-4.154-3.546-7.524-7.819-7.532-13.48-.0263-27.15-.064-40.87-.1024m20.29 7.898c-25.66-.2058-51.9-.3346-77.46-.7811m20.96-14.61c-30.22.0251-62.16 1.277-91.58 3.799m28.28 7.841c-30.35-.8118-62.18-.158-93.69-.147m25.62-1.337c-32.68 1.08-63.56-1.48-91.88-4.541m28.68 5.751c-13.77-.7203-28.09-1.294-42.6-2.126-.03981-5.8-.1074-11.64-.1829-17.53 4.209.5614 8.69.6499 13.35.1954 3.583-.3497 7.271-1.017 11.01-2.017.5988-.1604 1.185-.325 1.758-.4934m-26.8 8.13c3.101.4903 6.303.7587 9.574.789 3.716.0344 7.517-.2344 11.35-.8116 12.18-1.842 19.09-5.732 24.95-9.073 3.081-1.756 5.809-3.33 9.191-4.545 3.378-1.214 7.364-2.052 12.95-2.371 4.978-.2836 8.596.1621 11.71 1.053 3.105.8894 5.692 2.22 8.588 3.697 1.053.5367 2.13 1.085 3.256 1.622m-25.61-15.25c.6744-.0525 1.371-.0943 2.092-.1247 5.059-.2129 8.734.4103 11.79 1.478 3.062 1.07 5.611 2.627 8.382 4.386 3.174 2.014 6.461 4.178 10.68 5.992 4.214 1.813 9.24 3.223 15.81 3.806 6.558.5821 11.41.0443 15.4-1.036 3.972-1.074 7.029-2.671 9.873-4.148.4741-.2463.9386-.4874 1.398-.7209m-8.122 14.86c2.439-.5495 4.605-1.232 6.578-2.003 4.302-1.681 7.628-3.759 10.77-5.697 2.758-1.701 5.237-3.21 8.212-4.263 2.972-1.052 6.474-1.662 11.24-1.522 4.767.1391 8.236.9508 11.16 2.176 2.931 1.228 5.344 2.883 8.022 4.742 3.045 2.113 6.248 4.362 10.36 6.195 4.102 1.828 9.08 3.224 15.55 3.631 1.765.1109 3.407.1331 4.942.0798m-36.97-10.11c1.589.7946 3.297 1.548 5.181 2.212 4.358 1.534 9.666 2.585 16.64 2.532 6.978-.0528 12.28-1.185 16.63-2.798 4.354-1.613 7.757-3.703 10.95-5.667 2.816-1.734 5.329-3.284 8.367-4.417s6.59-1.844 11.47-1.908c4.882-.0637 8.421.5544 11.44 1.601 1.134.3931 2.195.8465 3.224 1.346m-15.04-5.438c2.319-.5661 4.98-.9152 8.21-.9824 4.896-.1018 8.435.4996 11.44 1.531 3.003 1.031 5.481 2.497 8.229 4.127 3.114 1.848 6.422 3.819 10.62 5.279 4.191 1.457 9.303 2.414 15.92 2.184 6.302-.2187 11.56-1.408 16.52-3.753 3.756 1.819 7.784 2.801 11.84 2.939m-23.32-.1442c3.759-.5044 7.213-1.417 10.58-2.782 4.975 2.459 10.4 3.664 15.82 3.611 9.247-.0917 18.45-3.836 25.18-11.16.6668-.7257 1.333-1.452 1.998-2.178 2.718.9536 5.076 2.204 7.668 3.591 5.614 3.007 12.03 6.446 23.36 7.892 1.042.1331 2.078.2408 3.107.3234m-19.99-4.729c5.55 2.843 12.13 6.043 23.83 7.407 3.801.4439 7.578.6004 11.27.4826 4.941-.1576 9.72-.8196 14.22-1.939.1529 5.29.3368 10.55.5384 15.77-3.982-.2184-7.954-.4606-11.92-.7323m11.35-6.035c.007 2.177.0172 4.365.0309 6.562-23.84-.2792-47.28.5759-70.22 1.778-.0545.003-.1088.006-.1629.0104m14.52-.8998c-6.334-.293-12.67-.4289-19.03-.4379-4.291-.006-7.78 3.404-7.946 7.643-.1661 4.248 3.043 7.727 6.992 7.907 13.03.5941 25.82 1.627 38.18 2.77m-14.48-9.498c21.63-.4537 43.82.7362 66.68 2.996 7.422.7336 13.52 7.135 14.09 15.04.3744 5.223.4529 10.4.2571 15.51m-10.64-30.52c4.907 2.057 8.392 6.811 8.464 12.29.2668 20.44-6.22 38.6-16.98 53.49m9.103-6.607c-5.343 10.02-12.49 19.5-21.21 27.82-14.49 13.82-33.33 24.45-55.45 29.01m17.78-10.98c-12.99 6.468-27.23 9.927-41.94 9.644.001-.00061.003-.001.004-.002-16.84-.3249-33.26-.8908-49.33-1.542m54.77-.4309c-29.22-.9738-60.75 1.085-94.31 3.898m19.56-7.335c-31.76-.4489-60.16-.6378-88.92-1.684m22.84 7.699c-27.91-.8935-55.77-.4994-83.6-.6999m25.13 2.028c-25.79.3098-49.98-.775-74.21-2.735m15.76-2.89c-9.544-.1253-18.75-.2499-27.71-.4021-22.97-.39-42.6-9.326-57.3-24.36m25.34 21.34c-10.76-5.128-20.9-12.47-29.81-21.65-10.19-10.5-18.77-23.41-24.83-38.16m-1.115 13.29c-9.255-14.74-14.31-31.37-13.97-48.35.1277-6.407 5.942-11.53 13.09-10.75 7.183.7816 14.38 1.675 21.58 2.681m-28.97 1.269c1.689-.7731 3.556-1.209 5.513-1.22 24.35-.1334 47.47.8719 70.86 2.539m-14.59-6.628c28.41.2622 56.63 1.789 82.92 5.209m-17.39-5.326c24.51-.3159 48.48-.5421 71.92-1.171m-9.184 7.734c33.56.6922 64.12-.8399 95.37-2.63m-29.72 4.271c27.56.2389 56.25 1.012 85.59 2.839m-29.68-2.566c10.62.1744 21.13.2576 31.67.2977 4.308.0164 7.808-3.34 7.984-7.482.1752-4.143-3.029-7.505-6.971-7.504-7.91.002-15.73-.00071-23.4.0194m20.97-5.941c-24.53.9608-47.42 1.692-69.34 3.727m12.5 1.389c-25.43-1.169-53.27-1.607-80.98-3.598m20.74.2776c-23.75-1.204-49.99-1.241-76.87-2.106m14.61 1.872c-24.1-.3126-50.01-.2765-76.2-.4292m29.03 5.39c-26.11-.1518-53.15-1.045-81.56-2.944m15.02-2.758c-8.014.3244-16.05.5351-24.11.6899.0036-5.378-.0014-10.78-.01219-16.19 4.262.9477 8.794 1.47 13.5 1.531 3.621.0471 7.34-.1749 11.11-.6636 12.06-1.576 18.72-4.91 24.62-7.806 1.795-.8815 3.485-1.705 5.252-2.41m-28.16 8.147c9.808-1.881 15.58-4.932 20.78-7.663 2.97-1.563 5.629-2.957 8.881-3.924 3.247-.9654 7.114-1.512 12.45-1.345 4.746.1488 8.188.9518 11.1 2.172 2.913 1.221 5.308 2.866 7.965 4.715 3.022 2.102 6.194 4.334 10.28 6.16 2.945 1.317 6.332 2.406 10.42 3.079m-22.91-8.578c.1937.1221.615.3881.8086.5102 3.243 2.046 6.703 4.191 11.07 5.786 4.358 1.592 9.684 2.657 16.58 2.461 6.887-.1959 12.13-1.559 16.37-3.382 4.256-1.83 7.569-4.149 10.66-6.34 2.739-1.944 5.148-3.677 8.099-5.043 2.943-1.362 6.375-2.332 11.1-2.777 4.718-.4442 8.122-.1162 11.03.6687 1.882.5085 3.55 1.208 5.213 2.01m-19.86-3.78c3.011-1.19 6.549-1.969 11.25-2.076 4.837-.1095 8.34.5536 11.26 1.65 2.928 1.099 5.342 2.659 7.982 4.413 3.013 2.001 6.15 4.141 10.17 5.879 4.008 1.733 8.836 3.038 15.07 3.38 3.5.192 6.481.0263 9.09-.3923m-16.4 5.473c1.717.1592 3.547.2497 5.509.2594 7.152.0351 12.61-1.022 17.11-2.563 4.504-1.54 8.057-3.563 11.4-5.455 2.946-1.668 5.601-3.163 8.79-4.221 3.192-1.058 6.938-1.686 12.11-1.612 5.177.0742 8.967.8098 12.22 1.967 3.256 1.158 5.981 2.74 9.044 4.513 3.45 1.996 7.15 4.132 11.86 5.819m-21.48-11.89c.7636.2345 1.49.4944 2.19.7772 2.986 1.206 5.459 2.817 8.269 4.629 3.181 2.051 6.599 4.234 11.02 5.969 4.43 1.739 9.825 3.015 17.05 3.31 6.888.2813 12.7-.4132 18.35-2.175 5.333 2.836 11.15 4.453 16.98 4.872 3.202.23 6.406.101 9.534-.3795m-14.98-5.24c4.158 1.287 8.448 1.88 12.68 1.768 9.52-.2514 18.77-4.044 25.39-11.37.6566-.7252 1.311-1.45 1.963-2.175 2.678.9574 4.995 2.218 7.528 3.615 4.851 2.678 10.3 5.714 19.13 7.404m-23.12-8.683c5.095 2.614 11.24 5.153 20.41 6.711 3.776.6423 7.487.9916 11.08 1.068 4.808.1026 9.407-.2962 13.7-1.137-.1082 5.632-.2425 11.28-.3933 16.94-4.302.121-8.614.2568-12.93.4139m17.87-5.05c.042 1.536.0834 3.069.1245 4.602-22.25.2794-44.58.1878-66.09.1857m16.84 4.442c-6.623.2599-13.26.4036-19.93.4604-4.282.0365-7.765 3.398-7.926 7.525-.1604 4.121 3.052 7.443 7.004 7.371 9.58-.1741 19.03-.4732 28.28-.7874m-22.94-5.719c23.88-.3872 47.02-.4124 69.85-.6507 6.108-.0638 11.16 4.514 11.87 10.47m-5.192-7.907c1.932.00077 3.856.009 5.77.0247 7.023.0576 12.66 5.877 12.5 13.1-.4681 21.15-8.083 41.67-20.54 59.54m7.478-19.1c-4.527 11.61-11.4 22.32-19.83 31.26-11.01 11.66-24.71 20.3-39.22 23.9m21.05-7.551c-13.84 7.155-30.58 11.55-49.04 11.56-.002 2e-5-.005 3e-5-.007 5e-5-17.54.008-35.67.12-54.24-.2114m46.08.8766c-26.85-.288-53.11-.0348-79.73.1897m13.15.3187c-29.52 1.36-59.27-.062-85.83-.7485m20.76 3.639c-26.94.6526-53.8.2935-79.66.2464m16.88-5.168c-30.21.375-61.54 2.111-92.12 6.2-2.182.2918-4.342.5194-6.48.6854m29.5-14.19c-7.664.3004-15.31.604-22.93.9584-21.42.9964-41.06-4.758-56.63-14.19m25.34 10.58c-10.63-4.54-20.84-11.44-29.95-20.07-13.86-13.14-25.13-30.28-31.59-49.31m13.27 28.82c-7.039-14.01-10.87-29.54-10.64-46.1.09749-7.224 5.885-13.12 13.01-13.45 9.09-.4155 18.21-.94 27.35-1.658m-27.99 3.482c24.88-.9234 51.26-.003 77.11 1.058m-23.79-1.254c30.42-1.035 63.1-1.927 95.02-5.464m-21.79 4.527c29.04.7544 59.24.4699 90.06.8788m-31.32-.3324c26.17-.7896 54.97-1.432 84.1-3.515m-11.51 1.484c27.31.7139 53.81-1.037 79.52-3.788 3.711-.3973 6.734-3.792 6.789-8.079m-27.65 15.23c5.084-.133 10.1-.2675 15.05-.4122 4.16-.1215 7.506-3.594 7.446-7.882-.0598-4.29-3.507-7.78-7.777-7.948-11.81-.465-23.87-1.062-36.04-1.903m16.22 4.372c-30.68.1093-62.32-.5517-93.67-1.736m33.42-7.093c-25.08-.4173-49.53 1.058-74.59 3.77m19.45-1.426c-27.71-.0333-57.28.5152-86.82 1.551m17.77-3.036c-31.62-1.544-65.87.3172-98.87 1.068m34.81 9.245c-16.23-.3288-32.06-.7734-47.73-1.553.07334-5.752.1662-11.54.269-17.39 4.351.6058 8.99.747 13.81.3636 3.707-.295 7.52-.8964 11.38-1.814 1.825-.4356 3.531-.9062 5.13-1.404m-30.35 1.181c3.32.3838 6.782.5293 10.35.4141 3.692-.1193 7.492-.5146 11.35-1.194 12.35-2.188 19.24-6.026 25.37-9.471 3.168-1.782 5.992-3.377 9.483-4.614 3.5-1.241 7.606-2.101 13.42-2.481 5.174-.3388 8.939.0477 12.19.8735 3.062.7769 5.649 1.936 8.493 3.219m-30.68-7.284c1.344-.0693 2.796-.0942 4.383-.0713 4.964.0717 8.575.7407 11.71 1.83 3.135 1.088 5.732 2.572 8.682 4.22 3.324 1.857 6.926 3.827 11.51 5.241 4.591 1.415 10.23 2.295 17.71 1.924 6.458-.3202 11.66-1.441 16.03-2.954m-16.56 12.35c6.855.2578 12.2-.7664 16.55-2.292 4.428-1.552 7.944-3.661 11.23-5.655 2.914-1.769 5.509-3.365 8.667-4.576 3.16-1.211 6.839-2.019 11.95-2.262 5.118-.2427 8.832.2167 12.04 1.119 3.202.8998 5.876 2.233 8.874 3.711 2.954 1.456 6.108 2.995 9.93 4.18m-25.9-4.482c.0775.0297.1547.0597.2315.0899 3.172 1.246 5.772 2.869 8.688 4.67 3.293 2.034 6.793 4.177 11.22 5.803 4.425 1.625 9.796 2.741 16.81 2.696 7.001-.0454 12.33-1.226 16.68-2.873 4.36-1.65 7.777-3.784 10.98-5.781 2.826-1.764 5.356-3.341 8.414-4.495 3.053-1.152 6.649-1.887 11.59-1.947 3.308-.0403 6.022.2366 8.38.7484m-28.16-5.536c2.59-1.61 4.993-3.032 7.835-4.062 3.059-1.109 6.675-1.782 11.62-1.712 4.945.0699 8.573.8438 11.65 2.039 3.081 1.198 5.646 2.836 8.506 4.681 3.253 2.098 6.7 4.344 11.13 6.193 4.434 1.85 9.795 3.279 16.9 3.805 1.779.1317 3.483.1948 5.128.187m-14.43-5.215c3.343.7533 7.251 1.195 12 1.138 6.578-.0784 12.14-1.057 17.56-3.136 5.101 2.526 10.7 3.824 16.33 3.88 9.621.0964 19.3-3.406 26.63-10.45.3613-.3467.7226-.6935 1.084-1.04m-16.55 15.46c5.202-1.531 10.04-4.243 14.09-8.092.7074-.6718 1.414-1.344 2.12-2.016 2.84 1.117 5.312 2.52 8.033 4.084 6.011 3.458 12.52 7.21 24.62 9.687 3.751.7684 7.454 1.268 11.05 1.515 4.814.3307 9.444.1968 13.78-.3501-.0148 1.802-.0292 3.611-.0431 5.427m-11.96-13.51c.8538.0341 1.704.0535 2.551.0585 4.714.0275 9.299-.4083 13.63-1.264-.059 5.615-.062 11.27-.0244 16.98-13.67.4908-27.08 1.268-40.47 2.35m8.869 2.714c-16.33-.3446-32.2-.1057-47.98.4838-4.152.1551-7.514 3.671-7.513 8.015.001 4.348 3.365 7.892 7.507 8.124 7.579.4244 15.13.9031 22.62 1.41m-21.29-3.091c.9938.5113 2.125.7917 3.323.7721 22.1-.3613 44.17-1.386 65.31-3.469m-16.24 10.86c10.9.5277 21.95.4947 33.23.0661 7.349-.2794 13.39 5.013 13.93 11.45.8535 10.19.0791 19.67-1.996 28.35m.1789-25.9c-2.552 22.64-12.65 43.73-27.66 60.68-4.184 4.726-8.749 9.128-13.64 13.16m18.37-15.93c-.6641.7494-1.338 1.486-2.022 2.211-17.37 18.39-41.06 28.61-66.33 27.84.002-.00096.004-.002.006-.003-.3583-.0109-.7164-.0219-1.074-.0328m19.92.868c-6.168.9051-12.44 1.314-18.77 1.155-.00066-.00086-.001-.002-.002-.003-19.38-.4873-38.1-.8009-57.03-1.603m59.66 6.878c-29.53 1.11-62.72.2112-96.95.0896m19.12-5.012c-27.42-.9084-54.18-1.667-79-4.209m23.28 4.365c-23.21-.6074-47.18-.3029-71.4.00071m14.72-.1173c-30.48.9246-60.36-.8684-89.9-3.089m21.28 9.026c-11.56-.3532-23.17-.6654-34.72-1.071-21.34-.7498-40.79-9.09-55.39-23.41m16.23 10.02c-13.36-4.76-24.95-12.32-33.9-21.84-9.06-9.637-15.42-21.3-18.09-34.04m17.9 12.28c-10.2-15.92-15.97-33.32-16.21-51.21-.087-6.462 5.507-11.63 12.36-10.96 2.763.2714 5.52.5533 8.27.8432m-22.78 6.789c2.359-3.286 6.364-5.454 10.91-5.374 20.3.3577 40.82-.296 62.06-1.086m-17.39 3.955c24.8-1.131 49.54-2.064 73.59-4.727m-22.81-2.46c32.29 1.398 63.93 2.226 95.79 6.365m-22.21.3141c31.8.6607 67.65-1.145 105.4-3.502m-39.36-7.592c31.8-.3223 63.8 1.103 96.13 3.439m-30.33 1.326c9.574-.409 19.29-.4223 29.1-.1445 4.199.1188 7.618-3.096 7.701-7.037.0832-3.932-3.195-7.083-7.232-6.792-12.14.8757-24.16 2.092-36.11 3.427m18.95.5247c-28.76.3438-53.75.3486-77.51.7223m22.99-.2535c-29.4.6672-59.35-.2898-89.71-1.315m26.74 1.745c-30.55.5051-57.07.8212-82.29 2.118m23.11-9.423c-33.37.0892-65.25 1.856-98.17 5.526m21.33 5.568c-16.28.4976-32.55.671-48.61.8933.161-5.409.3446-10.81.5582-16.2 3.178.6933 6.51 1.178 9.965 1.441m-9.567.9932c.124-2.624.2216-5.237.2948-7.842 4.395.745 9.003 1.087 13.71.975 3.622-.0865 7.303-.4382 10.99-1.063 11.77-2.005 18.02-5.671 23.53-8.952 2.848-1.697 5.356-3.208 8.473-4.349 3.118-1.141 6.78-1.886 11.9-2.09 4.059-.1615 7.116.2238 9.725.9739m-28.18 9.185c.6098-.2331 1.234-.4544 1.88-.6626 3.523-1.136 7.65-1.876 13.38-2.043 5.096-.1484 8.774.4009 11.92 1.382 3.143.9797 5.748 2.389 8.653 3.949 3.282 1.763 6.807 3.645 11.26 4.967 4.45 1.321 9.911 2.108 17.07 1.602 7.169-.5068 12.68-2.074 17.22-4.091.5136-.2279 1.015-.4616 1.506-.7004m-17.92-1.294c.8358.0802 1.701.1416 2.598.1823 6.694.3041 11.96-.6784 16.25-2.167 4.316-1.496 7.748-3.53 10.97-5.445 2.852-1.694 5.415-3.222 8.522-4.336 3.108-1.114 6.753-1.813 11.79-1.866 5.044-.0526 8.714.5718 11.86 1.631 3.142 1.057 5.761 2.546 8.678 4.211 3.313 1.89 6.83 3.905 11.31 5.457 2.759.9564 5.869 1.732 9.512 2.203m-28.93-5.099c1.842.932 3.582 1.988 5.462 3.117 3.312 1.988 6.874 4.092 11.41 5.668 4.534 1.576 10.08 2.641 17.43 2.516 7.342-.1248 13.01-1.378 17.69-3.098 4.688-1.723 8.423-3.929 11.95-6.004 3.111-1.832 5.913-3.479 9.286-4.717 3.376-1.239 7.328-2.071 12.82-2.298 2.762-.114 5.158-.044 7.303.1743m-31.3-4.458c2.102-1.264 4.148-2.378 6.516-3.202 2.981-1.037 6.523-1.632 11.38-1.455 4.863.1771 8.44 1.032 11.47 2.304 3.04 1.275 5.569 2.984 8.392 4.917 3.218 2.202 6.607 4.551 10.99 6.555 4.394 2.008 9.662 3.613 16.67 4.453 6.053.7266 11.15.6321 16.04-.3043m-18.55-1.634c1.762.104 3.662.1261 5.726.0506 6.455-.2361 11.91-1.308 17.24-3.475 5.006 2.443 10.52 3.677 16.06 3.678 9.464.001 18.99-3.572 26.13-10.71.7073-.7073 1.414-1.415 2.121-2.123 2.843 1.009 5.319 2.309 8.046 3.749 1.037.5481 2.097 1.108 3.204 1.667m-13.95 3.761c1.664-1.172 3.242-2.503 4.71-3.993.689-.6986 1.377-1.397 2.065-2.096 2.784 1.036 5.207 2.365 7.869 3.842 5.825 3.236 12.31 6.843 24.03 8.815 3.645.6141 7.23.9464 10.7 1.013 4.645.0895 9.084-.3097 13.21-1.146-.1046 1.929-.2137 3.861-.3275 5.795m-14.73-4.479c4.093-.0318 8.01-.44 11.7-1.183.1831 5.546.3126 11 .4104 16.39-20.05-.4638-40.53-1.946-60.34-3.758m25.07-5.056c-11.63.4182-22.97.7712-34.06 1.209-3.993.1575-7.204 3.664-6.992 7.996.2122 4.335 3.782 7.866 8.196 8.091 7.079.3597 14.23.7818 21.45 1.295m-20.85 6.746c27.75.6074 54.77 1.764 81.04 4.738 2.064.2338 4.002 1.019 5.677 2.234m-15.08-9.277c6.15-.2869 12.15-.3977 18.01-.3593 6.894.0452 12.38 5.95 11.99 13.32-1.162 21.77-9.943 43.38-23.54 61.79m10.41-31.54c-4.705 15.31-12.7 28.79-22.98 39.94-9.923 10.76-21.95 19.32-35.21 25.33m22.32-16.93c-14.5 9.599-33.46 15.42-54.57 15.32-.002-.00018-.005-.00036-.007-.00053-11.58-.0577-23.39-.1284-35.26-.3059m-390.4-181.6h160.9m243.3 52.27 45.6-20.41m12.42 28.51h-149.1m286.7-143.7h-190.2m-181.6 37.59h-169.5" style="fill:#dbbb73"/>
   <g transform="translate(-6.944e-6 257.2)">
      <ellipse cx="202.7" cy="65.89" rx="8.511" ry="3.648" style="fill:#dbbb73;opacity:.894;paint-order:normal"/>
      <ellipse cx="446.9" cy="106.8" rx="8.511" ry="3.648" style="fill:#dbbb73;opacity:.894;paint-order:normal"/>
      <ellipse cx="342.5" cy="50.96" rx="8.511" ry="3.648" style="fill:#dbbb73;opacity:.894;paint-order:normal"/>
      <ellipse cx="295.9" cy="70.31" rx="8.511" ry="3.648" style="fill:#dbbb73;opacity:.894;paint-order:normal"/>
      <ellipse cx="207.1" cy="127.7" rx="8.511" ry="3.648" style="fill:#dbbb73;opacity:.894;paint-order:normal"/>
      <ellipse cx="150.8" cy="109.5" rx="8.511" ry="3.648" style="fill:#dbbb73;opacity:.894;paint-order:normal"/>
      <ellipse cx="310.2" cy="105" rx="8.511" ry="3.648" style="fill:#dbbb73;opacity:.894;paint-order:normal"/>
      <ellipse cx="395.7" cy="76.54" rx="8.511" ry="3.648" style="fill:#dbbb73;opacity:.894;paint-order:normal"/>
      <ellipse cx="381.6" cy="87.83" rx="8.511" ry="3.648" style="fill:#dbbb73;opacity:.894;paint-order:normal"/>
      <ellipse cx="408.5" cy="132.8" rx="8.511" ry="3.648" style="fill:#dbbb73;opacity:.894;paint-order:normal"/>
      <ellipse cx="261.5" cy="78.72" rx="8.511" ry="3.648" style="fill:#dbbb73;opacity:.894;paint-order:normal"/>
      <ellipse cx="272.6" cy="40.24" rx="8.511" ry="3.648" style="fill:#dbbb73;opacity:.894;paint-order:normal"/>
   </g>
   <path d="m85.5 58.37q11.95 4.323 18.05 10.81 10.43 10.93 10.43 25.43 0 17.42-10.55 33.06-9.917 14.37-25.3 22.76-15.51 8.391-31.91 8.391-12.71 0-27.46-6.484-1.144 3.433-1.398 4.577-1.653 5.975-5.213 5.975-3.687 0-6.357-4.195-1.907-2.924-1.907-5.975 0-4.45 5.594-18.69 11.44-29.24 20.09-45.9 5.34-10.3 22.12-39.16 7.374-12.46 21.23-33.95 3.306-5.085 6.357-10.3-6.357 2.034-15.89 6.611-8.137 3.814-9.535 3.814-1.907 0-3.306-1.907-1.398-1.907-1.398-4.45 0-3.941 2.67-5.721 4.831-3.433 17.29-8.518 26.06-10.55 42.08-10.55 13.48 0 21.87 6.738 8.391 6.738 8.391 16.91 0 20.98-24.28 36.23-14.62 9.154-31.66 14.49zm-19.07-7.882q21.61-3.941 40.68-15.38 22.12-13.35 22.12-26.57 0-6.103-5.848-9.535-3.814-2.288-10.68-2.288-4.45 0-9.535 1.017-5.085.89-10.81 2.797 2.161 1.653 2.161 4.068 0 3.306-4.195 8.9-1.398 1.907-5.085 7.501-1.398 2.416-8.518 12.84-6.992 10.3-10.3 16.65zm-44.12 91.03q4.323 2.543 6.357 3.306 5.467 2.161 14.49 2.161 27.08 0 43.35-21.49 13.86-18.18 13.86-35.73 0-11.95-10.55-18.94-6.23-4.068-14.62-4.068-3.178 0-9.408 1.398-1.144.2543-2.288.2543-3.051 0-5.085-4.45-10.17 15.51-22.88 43.35-6.484 14.24-13.22 34.2z" style="fill:#dbbb73;font-feature-settings:normal;font-variant-caps:normal;font-variant-ligatures:normal;font-variant-numeric:normal"/>
   <path d="m157.3 128.6q-5.467 7.628-9.662 12.21-7.374 8.137-14.62 8.137-6.23 0-9.662-5.594-2.416-3.941-2.416-9.408 0-16.4 13.98-37.63 6.484-9.917 12.84-15.13 4.958-4.195 8.137-4.195 1.78 0 3.306 1.526 1.271 1.398 1.271 2.797 0 2.416-4.704 7.882-10.55 12.59-16.02 23.14-6.357 12.33-6.357 19.32 0 1.78.7628 2.797.89.89 2.416.89 6.484 0 18.05-18.56 5.975-9.662 10.3-21.36 2.288-6.357 5.975-11.32 3.56-4.45 6.992-4.45 1.907 0 3.433 1.653 1.653 1.78 1.653 3.941 0 4.577-8.772 20.6-5.975 11.06-5.975 18.43 0 7.882 4.195 13.48 1.144 1.526 6.992 4.831 2.797 1.653 2.797 5.34 0 2.288-2.034 3.941-1.907 1.653-4.704 1.653-6.357 0-11.57-5.085-4.704-4.577-5.975-13.22-.2543-1.144-.6357-6.611z" style="fill:#dbbb73;font-feature-settings:normal;font-variant-caps:normal;font-variant-ligatures:normal;font-variant-numeric:normal"/>
   <path d="m212.6 106.2q12.46-13.35 28.73-26.06 5.848-4.577 12.46-8.518 3.306-1.907 4.195-1.907 1.907 0 3.814 2.797 1.144 1.526 1.144 2.797 0 2.288-4.831 6.23-12.97 10.3-12.97 15.51 0 2.924 3.306 2.924 5.467 0 18.82-9.027 2.288-1.526 3.814-1.526 1.017 0 2.034 1.017 1.144 1.144 1.144 2.416 0 3.814-10.68 11.7-11.19 8.391-21.23 8.391-4.068 0-7.501-2.161-2.924-1.78-2.924-6.357 0-3.178 2.67-7.247-10.04 7.12-23.65 24.41-7.882 10.68-15.64 26.32-2.924 5.848-7.247 5.848-4.704 0-4.704-4.45 0-4.323 7.374-23.14 10.93-27.97 22.88-43.35 7.374-9.535 12.33-9.535 1.653 0 3.051 1.017 1.653 1.271 1.653 3.178 0 1.907-2.543 5.34-.5085.6357-6.738 8.518-5.721 7.501-8.772 14.87z" style="fill:#dbbb73;font-feature-settings:normal;font-variant-caps:normal;font-variant-ligatures:normal;font-variant-numeric:normal"/>
   <path d="m307.4 137.1q13.6-9.917 20.21-18.05 9.789-11.82 13.86-19.2 2.034-3.306 4.195-3.306 3.051 0 3.051 2.924 0 3.433-4.831 11.44-15 24.41-45.01 42.59-13.98 29.24-20.6 39.67-17.54 27.46-33.06 27.46-8.137 0-11.7-6.357-2.034-3.687-2.034-8.391 0-19.96 25.68-38.27 4.068-3.051 32.93-19.07 5.594-11.82 8.645-18.56-13.35 13.98-22.12 13.98-5.467 0-8.518-5.594-1.907-3.687-1.907-7.628 0-9.154 7.501-23.52 10.68-20.72 25.68-32.8 12.59-10.04 22.25-10.04 4.958 0 8.518 3.687 2.416 2.416 2.416 7.12 0 5.848-3.941 14.49 2.924 2.797 2.924 4.195 0 .89-1.271 2.543-3.433 4.704-11.06 17.67-6.738 11.32-11.82 23.01zm-.89-29.37q-1.78-1.907-1.78-2.67 0-1.144 1.907-2.924 6.357-6.103 10.3-12.71 3.178-5.213 3.178-8.137 0-3.433-3.178-3.433-5.467 0-15.64 10.43-12.08 12.33-18.82 27.59-3.306 7.628-3.306 11.7 0 2.288 1.017 3.433 1.017 1.144 2.924 1.144 4.45 0 12.46-9.154 5.085-5.848 8.645-11.44 2.416-3.687 2.288-3.814zm-24.03 55.56q-16.78 7.12-29.62 21.61-5.975 6.738-8.518 14.24-.7628 2.288-.7628 3.814 0 1.653.7628 2.924 1.398 2.288 3.941 2.288 7.882 0 18.43-16.91 9.154-14.62 15.76-27.97z" style="fill:#dbbb73;font-feature-settings:normal;font-variant-caps:normal;font-variant-ligatures:normal;font-variant-numeric:normal"/>
   <path d="m358.6 123.6v2.288q0 2.797 1.398 4.831 3.178 4.704 10.43 4.704 15.89 0 36.74-24.41 3.687-4.195 6.23-4.195 1.398 0 2.543 1.398.7628 1.017.7628 1.907 0 4.958-12.21 16.78-9.535 9.281-20.34 15.13t-20.09 5.848q-9.535 0-15-6.611-3.687-4.577-3.687-12.46 0-21.49 20.21-42.08 16.4-16.78 28.61-16.78 3.306 0 5.975 2.034 3.306 2.67 3.306 6.992 0 6.738-6.23 16.53-12.84 20.34-38.65 28.1zm2.797-9.917q8.9-3.051 13.98-6.865 8.9-6.865 14.11-15.51 1.907-3.051 1.907-5.467 0-2.543-2.416-2.543-3.306 0-9.408 4.958-10.93 8.772-18.18 25.43z" style="fill:#dbbb73;font-feature-settings:normal;font-variant-caps:normal;font-variant-ligatures:normal;font-variant-numeric:normal"/>
   <path d="m443.5 106.2q12.46-13.35 28.73-26.06 5.848-4.577 12.46-8.518 3.306-1.907 4.195-1.907 1.907 0 3.814 2.797 1.144 1.526 1.144 2.797 0 2.288-4.831 6.23-12.97 10.3-12.97 15.51 0 2.924 3.306 2.924 5.467 0 18.82-9.027 2.288-1.526 3.814-1.526 1.017 0 2.034 1.017 1.144 1.144 1.144 2.416 0 3.814-10.68 11.7-11.19 8.391-21.23 8.391-4.068 0-7.501-2.161-2.924-1.78-2.924-6.357 0-3.178 2.67-7.247-10.04 7.12-23.65 24.41-7.882 10.68-15.64 26.32-2.924 5.848-7.247 5.848-4.704 0-4.704-4.45 0-4.323 7.374-23.14 10.93-27.97 22.88-43.35 7.374-9.535 12.33-9.535 1.653 0 3.051 1.017 1.653 1.271 1.653 3.178 0 1.907-2.543 5.34-.5085.6357-6.738 8.518-5.721 7.501-8.772 14.87z" style="fill:#dbbb73;font-feature-settings:normal;font-variant-caps:normal;font-variant-ligatures:normal;font-variant-numeric:normal"/>
   <path d="m558.6 63.59q7.882 0 11.82 2.797 3.941 2.797 3.941 8.518 0 7.501-5.594 14.49-5.34 6.611-16.02 10.68-5.848 2.161-9.789 2.161-5.34 0-5.34-4.704 0-3.178 3.051-4.831.7628-.3814 8.645-2.161 4.704-1.017 8.645-4.45 3.433-2.924 3.433-6.357 0-2.67-1.526-3.941-1.526-1.271-4.577-1.271-7.374 0-16.27 5.975-10.3 6.738-10.3 16.02 0 6.611 6.738 16.53 7.501 10.81 7.501 18.31 0 11.19-9.917 17.54-6.103 3.941-13.86 3.941-12.21 0-18.56-8.772-4.45-6.23-4.45-14.75 0-9.917 5.085-16.65 3.306-4.45 6.865-4.45 3.178 0 3.178 2.543 0 1.017-1.144 3.051-2.924 5.467-2.924 12.84 0 6.23 4.45 10.55 3.941 3.814 9.027 3.814 4.958 0 7.755-3.306 2.288-2.797 2.288-7.12 0-5.34-6.103-13.86-8.391-11.7-8.391-21.23 0-12.71 13.86-22.5 13.48-9.408 28.48-9.408z" style="fill:#dbbb73;font-feature-settings:normal;font-variant-caps:normal;font-variant-ligatures:normal;font-variant-numeric:normal"/>
</svg>
