<?xml version="1.0" encoding="UTF-8" standalone="no"?>
<!-- Generator: Adobe Illustrator 19.0.0, SVG Export Plug-In . SVG Version: 6.00 Build 0)  -->

<svg
   xmlns:dc="http://purl.org/dc/elements/1.1/"
   xmlns:cc="http://creativecommons.org/ns#"
   xmlns:rdf="http://www.w3.org/1999/02/22-rdf-syntax-ns#"
   xmlns:svg="http://www.w3.org/2000/svg"
   xmlns="http://www.w3.org/2000/svg"
   xmlns:sodipodi="http://sodipodi.sourceforge.net/DTD/sodipodi-0.dtd"
   xmlns:inkscape="http://www.inkscape.org/namespaces/inkscape"
   version="1.1"
   id="Capa_1"
   x="0px"
   y="0px"
   viewBox="0 0 512 512"
   style="enable-background:new 0 0 512 512;"
   xml:space="preserve"
   sodipodi:docname="salad.svg"
   inkscape:version="0.92.3 (2405546, 2018-03-11)"><metadata
   id="metadata103"><rdf:RDF><cc:Work
       rdf:about=""><dc:format>image/svg+xml</dc:format><dc:type
         rdf:resource="http://purl.org/dc/dcmitype/StillImage" /></cc:Work></rdf:RDF></metadata><defs
   id="defs101">
	

		
	
	

	

	

	

	

	

	

	

	

	
















		
	
		
	
		
	
		
	
		
	
		
	
		
	
		
	
		
	
		
	</defs><sodipodi:namedview
   pagecolor="#ffffff"
   bordercolor="#666666"
   borderopacity="1"
   objecttolerance="10"
   gridtolerance="10"
   guidetolerance="10"
   inkscape:pageopacity="0"
   inkscape:pageshadow="2"
   inkscape:window-width="1366"
   inkscape:window-height="749"
   id="namedview99"
   showgrid="false"
   inkscape:zoom="0.4609375"
   inkscape:cx="-46.644068"
   inkscape:cy="256"
   inkscape:window-x="-4"
   inkscape:window-y="-4"
   inkscape:window-maximized="1"
   inkscape:current-layer="Capa_1" />
<path
   d="m 70.127,453.096 -0.092,-0.07 c -4.384,-3.357 -10.66,-2.527 -14.02,1.858 -3.358,4.384 -2.526,10.661 1.857,14.02 l 0.092,0.07 c 1.814,1.39 3.952,2.062 6.074,2.062 3.005,0 5.977,-1.35 7.945,-3.92 3.36,-4.385 2.528,-10.661 -1.856,-14.02 z"
   id="path2"
   inkscape:connector-curvature="0"
   style="fill:#dedede;fill-opacity:1" />
<path
   d="m 70.127,371.096 -0.092,-0.07 c -4.384,-3.357 -10.66,-2.527 -14.02,1.858 -3.358,4.384 -2.526,10.661 1.857,14.02 l 0.092,0.07 c 1.814,1.39 3.952,2.062 6.074,2.062 3.005,0 5.977,-1.35 7.945,-3.92 3.36,-4.385 2.528,-10.661 -1.856,-14.02 z"
   id="path8"
   inkscape:connector-curvature="0"
   style="fill:#dedede;fill-opacity:1" />
<path
   d="m 70.127,289.096 -0.092,-0.07 c -4.384,-3.357 -10.66,-2.527 -14.02,1.858 -3.358,4.384 -2.526,10.661 1.857,14.02 l 0.092,0.07 c 1.814,1.39 3.952,2.062 6.074,2.062 3.005,0 5.977,-1.35 7.945,-3.92 3.36,-4.385 2.528,-10.661 -1.856,-14.02 z"
   id="path14"
   inkscape:connector-curvature="0"
   style="fill:#dedede;fill-opacity:1" />
<path
   d="m 454.04,453.065 -0.093,-0.07 c -4.402,-3.336 -10.674,-2.472 -14.01,1.93 -3.336,4.401 -2.472,10.674 1.93,14.01 l 0.093,0.07 c 1.807,1.369 3.928,2.031 6.032,2.031 3.023,0 6.011,-1.365 7.978,-3.96 3.336,-4.402 2.471,-10.675 -1.93,-14.011 z"
   id="path20"
   inkscape:connector-curvature="0"
   style="fill:#dedede;fill-opacity:1" />
<path
   d="m 454.04,371.066 -0.093,-0.07 c -4.402,-3.336 -10.674,-2.472 -14.01,1.93 -3.335,4.4 -2.471,10.673 1.93,14.009 l 0.093,0.07 c 1.807,1.369 3.928,2.031 6.032,2.031 3.023,0 6.011,-1.365 7.978,-3.96 3.336,-4.401 2.472,-10.674 -1.93,-14.01 z"
   id="path26"
   inkscape:connector-curvature="0"
   style="fill:#dedede;fill-opacity:1" />
<path
   d="m 454.04,289.066 -0.093,-0.07 c -4.402,-3.336 -10.674,-2.472 -14.01,1.93 -3.336,4.402 -2.471,10.673 1.93,14.009 l 0.093,0.07 c 1.807,1.369 3.928,2.031 6.032,2.031 3.023,0 6.011,-1.365 7.978,-3.96 3.336,-4.401 2.472,-10.674 -1.93,-14.01 z"
   id="path32"
   inkscape:connector-curvature="0"
   style="fill:#dedede;fill-opacity:1" />
<path
   d="m 369.472,328 h -0.13 c -5.522,0 -10,4.477 -10,10 0,5.523 4.477,10 10,10 h 0.13 c 5.522,0 10,-4.477 10,-10 0,-5.523 -4.478,-10 -10,-10 z"
   id="path38"
   inkscape:connector-curvature="0"
   style="fill:#dedede;fill-opacity:1" />
<path
   d="m 142.658,410 h -0.13 c -5.522,0 -10,4.477 -10,10 0,5.523 4.478,10 10,10 h 0.13 c 5.522,0 10,-4.477 10,-10 0,-5.523 -4.477,-10 -10,-10 z"
   id="path44"
   inkscape:connector-curvature="0"
   style="fill:#dedede;fill-opacity:1" />
<path
   d="m 80.79,185.19 c -1.86,-1.86 -4.44,-2.93 -7.07,-2.93 -2.63,0 -5.21,1.07 -7.07,2.93 -1.859,1.86 -2.93,4.44 -2.93,7.08 0,2.63 1.07,5.2 2.93,7.06 1.86,1.87 4.431,2.93 7.07,2.93 2.63,0 5.21,-1.06 7.07,-2.93 1.859,-1.86 2.93,-4.43 2.93,-7.06 0,-2.64 -1.07,-5.21 -2.93,-7.08 z"
   id="path50"
   inkscape:connector-curvature="0"
   style="fill:#dedede;fill-opacity:1" />
<path
   d="m 502,246 h -41.534 c 17.872,-10.28 29.941,-29.556 29.941,-51.611 0,-22.896 -12.99,-43.277 -32.78,-53.194 3.414,-7.59 5.185,-15.833 5.185,-24.348 0,-32.814 -26.696,-59.511 -59.511,-59.511 -10.346,0 -20.282,2.61 -29.137,7.605 -11.618,-8.188 -25.511,-12.627 -39.854,-12.627 -0.973,0 -1.938,0.034 -2.902,0.074 -10.565,-30.798 -40.025,-52.34 -73.205,-52.34 -29.92,0 -56.994,17.329 -69.75,43.882 -2.393,-0.222 -4.797,-0.334 -7.199,-0.334 -31.445,0 -59.373,18.989 -71.297,47.304 -2.116,-0.646 -4.269,-1.21 -6.454,-1.699 1.146,-12.781 5.2,-22.579 12.117,-29.167 6.025,-5.739 12.077,-6.928 12.332,-6.976 l -0.139,0.023 -0.002,-0.011 c 2.114,-0.311 4.115,-1.286 5.634,-2.812 1.859,-1.86 2.93,-4.43 2.93,-7.06 0,-2.64 -1.07,-5.21 -2.93,-7.08 -1.86,-1.86 -4.44,-2.93 -7.07,-2.93 -0.561,0 -1.118,0.059 -1.668,0.153 l -0.003,-0.017 c -5.938,0.935 -14.059,4.263 -21.549,11.025 V 10 c 0,-5.523 -4.478,-10 -10,-10 h -24 c -5.522,0 -10,4.477 -10,10 V 47.391 C 47.651,33.292 35.232,25.05 34.269,24.421 29.65,21.408 23.472,22.71 20.451,27.322 17.429,31.935 18.72,38.13 23.326,41.161 23.657,41.378 53.912,61.638 58.407,90.783 24.568,100.948 0,130.689 0,165.714 0,180.266 8.299,215.208 16.444,246 H 10 c -5.522,0 -10,4.477 -10,10 v 246 c 0,5.523 4.478,10 10,10 h 492 c 5.522,0 10,-4.477 10,-10 V 256 c 0,-5.523 -4.478,-10 -10,-10 z M 181.254,63.596 c 3.847,0 7.699,0.385 11.452,1.145 4.884,0.988 9.749,-1.767 11.411,-6.465 8.093,-22.865 29.828,-38.228 54.086,-38.228 23.64,0 44.737,14.739 53.3,36.142 -27.011,9.451 -46.445,35.178 -46.445,65.374 0,5.523 4.478,10 10,10 5.522,0 10,-4.477 10,-10 0,-27.157 22.094,-49.25 49.251,-49.25 12.043,0 23.641,4.403 32.655,12.399 3.555,3.153 8.84,3.368 12.64,0.516 6.877,-5.164 15.071,-7.893 23.695,-7.893 21.786,0 39.511,17.725 39.511,39.511 0,8.565 -2.695,16.714 -7.796,23.564 -1.994,2.679 -2.52,6.178 -1.399,9.325 1.121,3.147 3.737,5.527 6.977,6.344 17.554,4.426 29.814,20.179 29.814,38.309 0,21.786 -17.725,39.511 -39.511,39.511 -2.482,0 -5.002,-0.242 -7.491,-0.719 -4.847,-0.932 -9.646,1.816 -11.304,6.464 -0.783,2.197 -1.774,4.324 -2.939,6.355 h -12.624 l 40.949,-58.7 c 1.539,-2.206 2.124,-4.94 1.623,-7.583 -0.501,-2.643 -2.046,-4.973 -4.285,-6.463 l -29.155,-19.402 c -2.271,-1.512 -5.063,-2.031 -7.724,-1.434 -2.662,0.596 -4.966,2.253 -6.376,4.589 l -14.579,24.14 11.934,-60.369 c 1.064,-5.389 -2.416,-10.628 -7.796,-11.734 l -25.445,-5.233 c -2.629,-0.542 -5.367,-0.002 -7.595,1.496 -2.228,1.498 -3.76,3.829 -4.251,6.468 l -3.265,17.535 h -23.337 c -5.522,0 -10,4.477 -10,10 v 57.544 c -6.646,-34.029 -36.673,-59.794 -72.617,-59.794 -16.197,0 -31.581,5.139 -44.487,14.862 -10.643,8.017 -19.002,18.929 -24.032,31.197 1.274,-7.51 1.902,-13.27 1.902,-17.404 0,-13.561 -3.683,-26.332 -10.16,-37.482 5.254,-14.295 18.913,-24.006 34.363,-24.006 2.455,0 4.915,0.247 7.313,0.733 4.887,0.994 9.759,-1.769 11.418,-6.472 2.146,-6.078 5.88,-11.515 10.8,-15.723 4.196,-3.59 4.688,-9.903 1.098,-14.1 -3.589,-4.197 -9.901,-4.688 -14.1,-1.099 -5.494,4.7 -10.03,10.398 -13.373,16.749 -1.051,-0.059 -2.104,-0.088 -3.155,-0.088 -19.904,0 -37.884,10.42 -48.028,26.672 -4.75,-4.573 -10.082,-8.608 -15.891,-11.998 8.78,-21.122 29.56,-35.305 52.968,-35.305 z m 184.368,175.059 37.666,-62.365 11.947,7.951 L 372.153,246 H 364.17 Z M 353.113,198.797 V 171.03 c 0.053,-0.21 0.111,-0.418 0.151,-0.634 l 8.369,-44.944 5.745,1.182 z m -25.95,29.856 c 0.043,-0.379 0.072,-0.763 0.072,-1.153 v -78.191 h 5.879 V 246 h -3.156 c 0.027,-0.626 0.042,-1.253 0.042,-1.882 0,-5.451 -1.012,-10.663 -2.837,-15.465 z M 190,182 c -0.296,0 -0.587,0.019 -0.883,0.022 9.777,-15.18 26.909,-24.963 45.5,-24.963 26.422,0 48.458,19.081 53.09,44.184 -13.837,0.098 -26.099,7.061 -33.687,17.714 C 241.199,196.885 217.313,182 190,182 Z m 53.057,64 h -104.54 -1.573 c 4.705,-25.012 26.699,-44 53.057,-44 26.358,0 48.351,18.988 53.056,44 z M 288,221.236 c 12.131,0 22,10.265 22,22.882 0,0.631 -0.03,1.258 -0.079,1.882 h -43.843 c -0.049,-0.624 -0.079,-1.251 -0.079,-1.882 C 266,231.501 275.869,221.236 288,221.236 Z M 79.155,20 h 4 v 67.057 c -1.341,0.013 -2.675,0.049 -4,0.12 z M 20.597,157.81 c 0.624,0.122 1.268,0.19 1.927,0.19 h 49.438 c 5.522,0 10,-4.477 10,-10 0,-5.523 -4.478,-10 -10,-10 H 27.606 C 38.416,119.585 59.637,107.037 84,107.037 c 35.29,0 64,26.322 64,58.677 0,2.609 -0.417,7.423 -2.006,16.286 h -39.719 c -5.522,0 -10,4.477 -10,10 0,5.523 4.478,10 10,10 h 33.206 c -12.133,11.359 -20.442,26.74 -22.786,44 H 37.141 C 26.216,205.214 20,176.152 20,165.714 c 0,-2.681 0.215,-5.316 0.597,-7.904 z M 492,328 h -88 c -5.522,0 -10,4.477 -10,10 0,5.523 4.478,10 10,10 h 88 v 62 H 176.606 c -5.522,0 -10,4.477 -10,10 0,5.523 4.478,10 10,10 H 492 v 62 H 20 v -62 h 88 c 5.522,0 10,-4.477 10,-10 0,-5.523 -4.478,-10 -10,-10 H 20 v -62 h 315.394 c 5.522,0 10,-4.477 10,-10 0,-5.523 -4.478,-10 -10,-10 H 20 V 266 H 29.483 492 Z"
   id="path56"
   inkscape:connector-curvature="0"
   style="fill:#dedede;fill-opacity:1" />
<path
   d="m 245.465,54 h -0.132 c -5.522,0 -10,4.477 -10,10 0,5.523 4.478,10 10,10 h 0.132 c 5.522,0 10,-4.477 10,-10 0,-5.523 -4.478,-10 -10,-10 z"
   id="path62"
   inkscape:connector-curvature="0"
   style="fill:#dedede;fill-opacity:1" />















</svg>