<svg version="1.1" viewBox="0 0 559.9 702.4" xmlns="http://www.w3.org/2000/svg">
   <path d="m521 510.6c-2.276 1.731-3.727 4.546-3.641 7.74.1456 5.415-2.053 10.38-5.681 13.98-3.631 3.604-8.699 5.854-14.33 5.878-5.633.024-10.78-2.183-14.57-5.768-3.789-3.586-6.213-8.545-6.408-14.03-2.797.0276-5.595.0538-8.393.0766m10.05.5198c-2.036-3.163-3.221-6.883-3.241-10.85-6.727-.0503-13.37-.0492-19.95-.0101.0957 5.571-2.024 10.64-5.498 14.35-3.475 3.706-8.301 6.04-13.61 6.144-2.929.0574-5.699-.5716-8.16-1.74m8.565 6.57c-2.129.6596-4.393.9991-6.734.9572-5.708-.1022-10.81-2.457-14.49-6.212-3.67-3.754-5.908-8.91-5.848-14.61-6.621-.2046-13.18-.4455-19.71-.7361.1349 5.297-1.975 10.06-5.467 13.41-.1306.1252-.2632.2483-.3977.3695m12.23-11.83c-.1072.004-.2144.008-.3216.0113.25 5.716-1.836 10.87-5.336 14.61-3.503 3.74-8.43 6.07-13.89 6.139-5.465.0691-10.44-2.134-14.04-5.719-3.596-3.585-5.816-8.558-5.768-14.03-6.635.0783-13.25.1763-19.81.3211.0815 4.126-1.02 7.988-2.958 11.26m10.64-19.85c-5.332-.1274-10.56-.2346-15.7-.331.0392 5.437-2.076 10.37-5.506 13.92-3.427 3.551-8.165 5.721-13.32 5.623-5.154-.0979-9.748-2.448-12.9-6.2-3.15-3.748-4.875-8.911-4.245-14.62-1.819-.065-3.632-.1344-5.437-.2086m11.27 20.39c-3.637-3.469-5.855-8.341-5.839-13.8-6.674-.0735-13.21-.3087-19.63-.6826.2249 5.228-1.746 9.873-5.047 13.07-3.296 3.187-7.939 4.936-13 4.313-3.032-.3727-5.874-1.555-8.337-3.372m9.794 4.613c-2.481 1.021-5.18 1.584-7.987 1.578-5.602-.0112-10.6-2.286-14.14-5.955-3.54-3.667-5.637-8.738-5.395-14.34-6.398-.0765-12.7-.1728-18.92-.2888.3692 5.186-1.292 9.899-4.214 13.38m11.91-17.64c-.5512-.005-1.103-.0103-1.656-.0144.0966 5.496-2.14 10.54-5.811 14.26-3.676 3.715-8.786 6.091-14.49 6.29-5.701.1992-10.92-1.813-14.81-5.163-3.888-3.353-6.423-8.036-6.78-13.17-1.942.1342-3.888.274-5.839.419m6.58 10.17c-1.279-2.65-1.982-5.668-1.934-8.884-6.594.0321-13.27-.0328-20-.1798-.0355 5.414-2.359 10.27-6.089 13.7-3.728 3.428-8.872 5.439-14.55 5.134-5.684-.3049-10.85-2.873-14.65-6.856-3.717-3.904-6.106-9.16-6.356-14.98m17.63 17.77c-3.333-.8029-6.298-2.438-8.661-4.661-3.661-3.443-5.889-8.306-5.804-13.68-6.589.1908-13.1.3602-19.54.5458.2058 5.69-1.815 10.86-5.19 14.68-3.378 3.818-8.102 6.269-13.3 6.542-4.452.2338-8.527-1.166-11.67-3.63m18.36 2.35c-2.916 2.006-6.439 3.176-10.25 3.203-5.376.0377-10.32-2.207-13.91-5.852-3.599-3.647-5.856-8.695-5.896-14.28-.03982-5.601-4.598-10.14-10.22-10.22-5.619-.0755-10.2 4.339-10.28 9.801-.03852 2.62.1868 5.18.6534 7.656m1.047-22.3c-3.734 1.468-6.42 5.261-6.309 9.694.2799 11.15 4.753 21 11.91 27.97 7.145 6.95 16.96 11 27.79 10.41 4.9-.2651 9.602-1.456 13.95-3.411m-25.04 9.192c3.225.8015 6.58 1.265 10.02 1.348 12.36.299 23.37-4.363 31.03-11.79 7.674 9.306 18.75 15.78 31.31 17.56 2.008.2853 3.989.4424 5.935.4808m-16.75-9.764c4.429 2.098 9.3 3.353 14.41 3.602 11.61.5666 22.13-4.159 29.13-11.75 5.027 6.542 11.76 11.58 19.34 14.45m-12.16-13.1c6.806 4.926 15.18 7.868 24.14 7.822 11.74-.061 22.12-5.256 28.95-13.53 3.826 4.731 8.683 8.497 14.18 10.9m-14.49-7.948c7.173 8.631 18.01 14.09 30.28 14.34 12.31.2478 23.62-4.781 31.65-12.77 5.637 6.117 13.02 10.77 21.4 13.26m-21.38-12.57c.3791-.3753.7503-.7589 1.113-1.15 7.553 8.532 18.42 13.64 30.39 13.07 11.98-.5672 22.71-6.701 30.01-16.14 5.959 5.918 14.22 9.651 23.58 9.959m-25.79-11.33c.1922-.2014.3822-.4048.5701-.6101 7.402 8.625 18.25 14.17 30.38 14.61 12.13.4449 23.11-4.288 30.74-11.89 6.55 7.81 15.64 13.47 25.95 15.78m-27.25-19.74c7.412 8.359 18.37 13.51 30.74 13.3 12.45-.2173 23.89-5.83 32.12-14.61 3.504 3.37 7.668 6.165 12.33 8.215m-27.23 4.578c1.605-1.338 3.111-2.785 4.505-4.331 7.73 8.132 18.87 13.26 31.37 13.09 11.56-.1537 22.17-4.809 30.21-12.31 4.8-4.477 8.682-9.96 11.33-16.11m-13.41 19.96c1.593-1.192 3.095-2.496 4.493-3.902 7.365-7.404 11.87-17.62 11.79-28.97-.0475-5.692-4.597-10.31-10.2-10.5-.00041-.001-.00083-.002-.001-.003-5.613-.1869-10.18 4.119-10.26 9.427-.0871 5.294-2.425 10.06-6.149 13.4-2.319 2.084-5.178 3.619-8.363 4.387m19.45-23.99c-1.282 1.561-2.054 3.529-2.095 5.677-.1026 5.353-2.378 10.29-5.995 13.91-3.616 3.623-8.56 5.925-13.98 6.044-5.41.119-10.27-1.966-13.71-5.405-3.443-3.436-5.48-8.231-5.219-13.5-6.378.3195-12.72.6633-19.06.9913.1575 3.08-.3238 6.006-1.311 8.649m18.79-6.505c-.00074-.0822-.001-.1646-.00078-.247-6.675-.1195-13.35-.3135-20.04-.596.008 5.303-2.238 10.05-5.869 13.36-3.626 3.301-8.652 5.174-14.18 4.682-5.535-.4926-10.55-3.266-14.18-7.5-3.632-4.233-5.879-9.917-5.872-16.26-3.773-.5517-7.545-1.146-11.32-1.785m11.05 21.66c-3.652-3.677-5.899-8.686-5.901-14.19-6.697-.0382-13.32-.059-19.89-.0707.1038 5.528-2.015 10.54-5.493 14.18-3.478 3.633-8.315 5.883-13.63 5.879-5.318-.004-10.11-2.261-13.51-5.909-3.397-3.647-5.403-8.689-5.128-14.26-.2127-.001-.4255-.003-.6382-.004m19.4 10.66c-4.386-.3796-8.355-2.284-11.37-5.169-3.572-3.42-5.802-8.219-5.823-13.5-6.717.3136-13.49.6616-20.31 1.079-.0999 5.882-2.466 11.26-6.227 15.32-3.766 4.062-8.91 6.777-14.6 7.375-3.232.34-6.294-.0382-9.025-.9626m26.3-1.042c-3.681 3.329-8.568 5.382-13.93 5.416-5.628.0361-10.73-2.158-14.45-5.718-3.722-3.56-6.06-8.483-6.167-13.9-6.822.1515-13.66.336-20.54.5522-.0426 1.631-.2692 3.221-.6602 4.749m14.25-1.817c-3.486-.1064-6.978-.1931-10.47-.2638.065 5.427-2.136 10.38-5.721 13.97-3.586 3.591-8.559 5.819-14.04 5.809-5.485-.0101-10.45-2.257-14.03-5.89-3.574-3.631-5.758-8.648-5.669-14.19-4.518-.006-9.024-.02-13.52-.0501m12.98 9.548c-1.429-2.615-2.268-5.577-2.359-8.72-6.881.0703-13.71.0811-20.5.0473-.0898 5.51-2.406 10.47-6.108 14.04-3.701 3.562-8.786 5.723-14.41 5.611-5.028-.101-9.648-2.006-13.25-5.098m14.88 6.221c-.8801.1359-1.777.2123-2.688.2252-5.525.0788-10.51-2.192-14.07-5.913-3.566-3.722-5.723-8.906-5.586-14.69-6.526-.306-13-.7272-19.43-1.248.2191 5.107-1.8 9.666-5.173 12.79-3.004 2.781-7.095 4.431-11.62 4.293m10.69-18.47c-1.059 2.13-2.494 4.064-4.22 5.714-3.705 3.541-8.743 5.763-14.26 5.806-5.518.0426-10.48-2.102-14.03-5.589-3.547-3.483-5.685-8.309-5.534-13.59-6.509.3078-12.98.6767-19.44 1.08.196 5.869-1.865 11.22-5.304 15.2-1.954 2.257-4.352 4.07-7.037 5.283m18.26-10.98c-1.664.0731-3.323.14-4.978.2011-.03999 5.742-2.279 10.89-5.867 14.62-3.587 3.728-8.52 6.034-13.92 6.066-5.399.0316-10.26-2.216-13.7-5.851-3.441-3.634-5.477-8.665-5.209-14.2.2405-4.967-3.138-9.077-7.601-9.85m18.84 7.361c-.5825-1.891-.8898-3.906-.8738-5.995.04212-5.509-4.438-9.966-9.972-9.931-5.534.0346-10.04 4.55-10.06 10.13-.04056 11.14 4.381 21.25 11.57 28.62 3.173 3.254 6.884 5.974 10.99 8.015m-18.86-10.21c1.382 1.894 2.909 3.673 4.562 5.32 7.36 7.328 17.21 12 27.88 12.34 11.52.3693 21.63-4.397 28.16-12.1 3.703 5.102 8.454 9.255 13.85 12.08m-19.08-14.35c1.538-1.336 2.978-2.785 4.307-4.335 7.23 8.277 17.99 13.58 30.03 13.71 12.03.1312 22.92-4.934 30.39-13.05 4.393 5.054 9.968 9.054 16.26 11.55m-16.17-12.04c1.857-1.405 3.578-2.949 5.144-4.615 7.721 8.515 18.53 14.07 30.39 14.61 11.85.5434 22.35-4.022 29.45-11.45 2.886 3.769 6.339 7.064 10.22 9.748m-27.87 9.128c2.692-1.82 5.158-3.98 7.34-6.421 7.351 8.476 18.31 13.76 30.64 13.73 12.33-.0301 23.59-5.372 31.53-13.77 3.398 3.557 7.441 6.553 11.95 8.824m-20.68-17.28c3.018-2.208 5.768-4.808 8.16-7.725 7.091 8.065 17.86 13.34 29.97 13.5 9.247.1278 17.85-2.739 24.76-7.714m-10.38 17.77c7.844-2.179 14.53-6.561 19.35-12.43 6.979 8.202 16.94 13.3 27.63 13.02 10.67-.2826 19.87-5.893 25.4-14.7 1.173 1.676 2.488 3.209 3.926 4.577m-10.46 12.12c7.394-2.08 13.86-6.147 18.81-11.56 7.557 8.438 18.43 13.73 30.53 13.76 12.1.0271 23.03-5.214 30.69-13.47 1.319 1.454 2.745 2.818 4.266 4.082m-31.75-8.604c7.066-2.149 13.37-6.146 18.3-11.38 7.598 8.657 18.76 14.35 31.36 15.04 6.278.3462 12.29-.5762 17.77-2.487m-14.92 18c10.18-.1151 19.83-4.598 27.19-11.79 7.658-7.475 12.85-17.85 13.88-29.44.5081-5.812-3.499-10.54-8.422-10.86.004-.002.007-.004.0112-.006-3.489-.2223-6.474 1.823-7.673 4.881m-3.962-7.454c-1.639 1.677-2.644 3.938-2.675 6.441-.0669 5.417-2.295 10.41-5.849 14.1-3.555 3.693-8.421 6.068-13.74 6.28-5.309.2115-10.06-1.777-13.38-5.106-3.317-3.325-5.215-7.999-4.783-13.12-6.17.5047-12.28 1.063-18.34 1.644.1249 1.45.1179 2.868-.008 4.243m23.1 1.296c-.1311-.8876-.2037-1.793-.2139-2.713-6.767-.0115-13.5-.0172-20.21-.0192-.015 5.536-2.265 10.56-5.891 14.19-3.626 3.637-8.628 5.891-14.14 5.895-5.513.004-10.5-2.243-14.11-5.876-1.263-1.271-2.356-2.711-3.242-4.284m11.59 5.313c-4.081-.6567-7.716-2.5-10.55-5.147-3.775-3.531-6.126-8.496-6.202-14.02-6.786.0199-13.53-.0221-20.26-.0957-.0304 5.476-2.302 10.42-5.969 13.97-3.103 3.008-7.204 5.022-11.79 5.521m10.79-10.02c-.8468 1.203-1.816 2.318-2.888 3.326-3.819 3.588-8.951 5.813-14.55 5.807-5.595-.007-10.61-2.244-14.21-5.854-3.594-3.608-5.769-8.592-5.66-14.08-6.56.0623-13.08.1392-19.61.2205.004.1711.006.3417.007.5118m12.91 4.714c-5.068.1636-10.1.2534-15.09.2806.0585 5.566-2.098 10.54-5.605 14.09-3.504 3.54-8.366 5.651-13.69 5.448-5.322-.2034-10.11-2.686-13.48-6.581-3.366-3.893-5.325-9.206-4.967-15.07-3.246-.2073-6.479-.4223-9.698-.6413m12.21 11.07c-2.598-3.39-4.136-7.627-4.114-12.21-6.66.0206-13.31.0591-19.94.1153.0475 5.584-2.151 10.66-5.725 14.36-3.574 3.701-8.522 6.025-13.97 6.118-5.45.0931-10.38-2.061-13.91-5.588-3.531-3.526-5.671-8.43-5.535-13.83-.7437.0193-1.487.0388-2.23.0585m11.88 15.91c-3.576-.9475-6.765-2.892-9.249-5.528-3.482-3.696-5.578-8.754-5.389-14.31-6.461-.0188-12.89-.005-19.27.0263.2561 5.562-1.726 10.62-5.049 14.29-3.324 3.672-7.993 5.962-13.1 5.999-4.095.0297-7.842-1.398-10.77-3.835m23.55-.8561c-3.257 2.245-7.26 3.552-11.62 3.522-5.659-.0394-10.86-2.324-14.75-5.994-3.894-3.675-6.457-8.721-6.885-14.3-7.209-.0518-14.54-.1103-21.98-.1822-.6237 5.479-3.523 10.43-7.883 13.99-4.357 3.56-10.17 5.727-16.63 5.619-1.745-.0292-3.453-.2227-5.107-.5637m31.96-10.83c-.8305 3.054-2.46 5.783-4.664 7.965-3.529 3.494-8.54 5.6-14.15 5.419-5.618-.1811-10.79-2.618-14.65-6.471-3.856-3.855-6.378-9.111-6.729-14.95-7.115-.3702-14.31-.8053-21.54-1.326-.4456 5.109-3.129 9.672-7.21 12.79-.2466.1887-.4982.372-.7547.55m20.4-17.6c-3.292-.1173-6.577-.2101-9.856-.2817-.08526 5.417-2.399 10.38-6.093 14-3.694 3.618-8.762 5.888-14.35 5.941-5.589.0531-10.66-2.12-14.35-5.667-3.695-3.547-6.011-8.463-6.099-13.89-.08849-5.443-4.675-9.838-10.35-9.747-1.699.0274-3.304.4548-4.725 1.191m23.5 18.8c-.4732-1.706-.7159-3.517-.6923-5.399.069-5.489-4.378-9.98-9.863-10.06-5.483-.0829-9.938 4.268-9.883 9.609.1098 10.64 4.722 20.04 12.15 26.53 3.888 3.395 8.551 5.993 13.74 7.54m-25.88-15c1.015 1.346 2.133 2.632 3.343 3.849 6.952 6.994 16.9 11.66 28.08 12.29 12.1.6738 23.14-3.524 30.79-10.58 3.097 3.909 6.756 7.35 10.82 10.18m-24.18 4.23c2.101-1.569 4.047-3.342 5.81-5.289 7.458 8.465 18.47 13.8 30.86 13.88 12.4.0782 23.72-5.117 31.78-13.34.5791.6086 1.177 1.201 1.792 1.778m-10.93-.2928c4.875-2.393 9.181-5.735 12.67-9.789 7.278 8.248 17.87 13.41 29.52 13.24 11.65-.1721 22.02-5.648 28.87-14.28 2.756 3.246 6.052 5.981 9.74 8.059m-16.87 6.474c4.321-2.21 8.224-5.255 11.49-8.926 7.211 8.603 18.12 14.13 30.42 14.55 11.46.3917 21.98-3.715 29.67-10.47m-20.58 4.835c6.933-2.559 13.19-6.83 18.14-12.29 7.567 8.373 18.86 13.98 31.68 14.55 9.605.4334 18.64-2.009 26.16-6.472m-12.31 2.335c9.728-1.547 18.09-6.316 23.81-13.09 6.806 8.666 16.67 14.47 27.33 15.31 5.023.3969 9.723-.3507 13.86-2.014m-27.27 3.439c.7803.0504 1.566.079 2.357.0854 12.38.099 23.56-5.283 31.44-13.87 7.884 8.105 19.33 13.01 32.31 12.48 7.154-.2913 14.01-2.199 20.23-5.359m-19.14 1.306c1.557.1644 3.147.2398 4.763.2206 11.53-.1374 21.99-5.076 29.04-12.81 7.047 8.995 17.45 15.17 28.86 16.47 4.848.5533 9.446.1782 13.61-.9542m-24.12 3.664c2.754.5696 5.595.8617 8.494.8454 11.24-.0631 21.3-4.752 28.5-12.31 7.209-7.563 11.58-18 11.43-29.63-.0828-5.837-4.646-10.59-10.25-10.93-4e-4-.002-.00079-.004-.001-.006-2.752-.1692-5.25.7501-7.082 2.337m20.02 12.82c.0799-1.199.1134-2.409.0985-3.628-.0781-5.736-4.585-10.33-10.1-10.39 2e-4-.00036 4e-4-.00073.00061-.001-5.504-.0604-9.935 4.43-9.811 10.01.1239 5.574-1.973 10.66-5.424 14.39-3.451 3.727-8.254 6.088-13.53 6.215-3.184.0766-6.179-.6697-8.788-2.048m34.19-35.14c-4.894.7583-8.619 4.884-8.684 9.875-.0719 5.537-2.351 10.56-5.995 14.22-3.643 3.654-8.645 5.932-14.15 5.97-5.499.0381-10.47-2.17-14.05-5.756-2.693-2.696-4.603-6.17-5.362-10.05m11.66 22.75c-1.283-.7528-2.468-1.635-3.538-2.627-3.812-3.535-6.161-8.473-6.184-13.92-6.72.1033-13.32.1975-19.85.2996.1405 5.622-1.929 10.72-5.354 14.46-3.425 3.733-8.201 6.089-13.46 6.228-5.259.1397-10.01-1.961-13.37-5.416-.8879-.9124-1.679-1.919-2.359-3.005m18.7 2.795c-1.69.4601-3.457.7123-5.272.7269-5.537.0445-10.48-2.134-13.97-5.67-3.486-3.531-5.53-8.428-5.223-13.79-6.322.213-12.53.4798-18.64.804.487 5.804-1.25 11.11-4.309 15.06l-.002.002m9.901-10.66c-.0279-.001-.0557-.002-.0836-.003-.0455 5.325-2.344 10.21-6.037 13.77-3.693 3.554-8.776 5.771-14.4 5.778-5.623.007-10.73-2.199-14.47-5.771-3.743-3.573-6.112-8.505-6.264-13.95-4.711.0817-9.438.1684-14.18.2498m15.36-1.58c-.2141-1.337-.3114-2.713-.2794-4.116-6.535-.2299-13.23-.3314-20.05-.3385-.1092 5.531-2.546 10.61-6.427 14.33-3.884 3.729-9.209 6.108-15.14 6.278-5.931.1701-11.37-1.899-15.47-5.342-.1018-.0856-.2028-.172-.3029-.2593m7.117 11.91c-5.091.0251-9.71-2.082-13.06-5.512-3.498-3.585-5.622-8.627-5.476-14.25-6.516-.1062-13.02-.3083-19.5-.574.1819 5.317-1.88 10.09-5.292 13.46-2.771 2.735-6.436 4.546-10.51 4.959m10.7-17.93c-.9154 1.868-2.115 3.566-3.543 5.04-3.558 3.673-8.53 5.952-14.04 5.971-5.512.0199-10.53-2.222-14.18-5.851-3.65-3.63-5.929-8.646-5.97-14.18-6.739.001-13.49.002-20.24.009-.0101 1.171-.1205 2.32-.3229 3.437m19.46.004c-4.937.0486-9.865.0706-14.79.0689-.1661 5.535-2.569 10.52-6.372 14.1-3.801 3.58-9 5.757-14.75 5.651-5.756-.1061-11-2.476-14.91-6.247-3.905-3.774-6.448-8.938-6.828-14.66-7.152-.2153-14.39-.4522-21.73-.7027 0 1e-5-.004.0345-.004.0345m28.06 1.686c-1.245-2.559-1.965-5.384-2.031-8.346-6.845-.1161-13.51-.2-20.04-.2695.1367 5.482-1.898 10.45-5.257 14.05-3.357 3.59-8.036 5.798-13.15 5.741-5.114-.0571-9.69-2.37-12.85-6.083-1.635-1.92-2.892-4.216-3.648-6.767m16.48 22.5c-4.459-.7311-8.446-2.908-11.46-6.043-3.608-3.754-5.82-8.881-5.757-14.53-6.616-.1357-13.21-.2683-19.77-.4212.1053 5.411-2.033 10.3-5.54 13.78-1.918 1.905-4.247 3.389-6.841 4.306m1.548-10.47c-1.071 2.458-2.576 4.666-4.413 6.526-3.758 3.804-8.913 6.156-14.61 6.199-5.697.0434-10.89-2.228-14.73-5.914-3.838-3.69-6.309-8.793-6.592-14.45-.2835-5.669-5.055-10.27-10.96-10.41-4.213-.0989-7.896 2.098-9.828 5.334m26.23-5.191c-1.749-2.379-4.497-3.909-7.612-3.973-5.511-.1122-10.07 4.379-10.24 9.996-.3599 11.24 3.399 21.73 9.677 29.65 6.276 7.925 15.03 13.23 24.54 14.2.929.094 1.848.1446 2.754.1533m-21.57-7.839c5.728 3.429 12.62 5.318 20.08 5.081 11.91-.3782 22.89-6.089 30.55-15.07 7.641 7.712 18.84 12.22 31.18 11.04 1.238-.1177 2.463-.2905 3.673-.5163m-28.9-2.211c6.432 4.079 13.88 6.439 21.74 6.481 11.98.0641 22.56-5.275 29.62-13.71 3.07 3.592 6.769 6.597 10.92 8.84m-16.49-3.338c.1476-.1564.294-.3141.4392-.4729 7.44 8.558 18.51 13.91 31.05 13.93 12.56.0208 24.12-5.291 32.53-13.66.5693.564 1.155 1.114 1.758 1.649m-10.01.3289c3.533-2.04 6.763-4.702 9.553-7.853 7.237 8.522 18.35 13.76 31 13.61 9.547-.1143 18.56-3.275 26.02-8.491m-9.041 8.892c7.901-2.005 14.8-6.477 19.86-12.6 7.059 8.147 17.41 13.1 28.71 12.57 7.528-.3482 14.46-3.087 20.11-7.574m-27.69 7.642c10.75-1.336 20.47-6.342 27.59-13.63 7.809 8.724 19.22 14.71 32.17 15.76 12.95 1.051 24.87-3.027 33.62-10.14.1016.1114.2038.2223.3064.3328m-24.88 10.06c9.801-1.395 18.67-6.233 25.13-13.21 7.473 8.656 18.51 14.45 30.89 15.25 4.225.2748 8.315-.0493 12.18-.8862m-11.21-3.536c1.737.1438 3.493.1962 5.263.1509 12.39-.3168 23.01-5.392 29.93-13.31 6.337 8.073 15.26 13.76 25.19 15.39m-18.62-.192c4.974 2.681 10.63 4.148 16.64 4.101 10.83-.0858 20.81-5.061 28.01-13.02 5.297-5.855 9.112-13.34 10.69-21.76m-3.439 16.76c4.465-6.541 7.031-14.44 6.902-22.91-.0928-5.558-4.687-10.04-10.36-10.04-8e-4 5e-5-.002 1e-4-.002.00015-5.678.008-10.3 4.509-10.49 10.08-.1823 5.555-2.626 10.59-6.48 14.25-2.23 2.115-4.931 3.766-7.939 4.785m15.06-33.18c-3.011 1.645-5.026 4.877-4.933 8.597.1369 5.446-1.97 10.39-5.435 13.94-3.464 3.555-8.291 5.727-13.58 5.631-5.286-.0957-10.04-2.443-13.37-6.191-3.323-3.744-5.234-8.897-4.801-14.59-.39-.0123-.7796-.0248-1.169-.0375m3.263 9.622c-3.699-3.482-5.968-8.333-5.956-13.68-6.679.1657-13.25.3258-19.74.5034.1717 5.684-1.865 10.85-5.246 14.65-3.383 3.806-8.103 6.24-13.29 6.479-1.365.063-2.694-.0293-3.97-.2604m15.46-1.046c-3.078 1.777-6.672 2.779-10.49 2.71-5.486-.0997-10.4-2.398-13.88-6.059-3.48-3.656-5.535-8.677-5.262-14.19-6.364.0293-12.64.0873-18.85.15.3038 4.185-.6456 8.08-2.47 11.32m7.495-3.338c-1.675.0137-3.34.026-4.996.0368-.2039 5.578-2.537 10.61-6.193 14.26-3.652 3.644-8.615 5.894-14.03 5.883-5.408-.0108-10.25-2.28-13.67-5.938-3.416-3.656-5.416-8.706-5.115-14.27-1.707-.01-3.412-.02-5.114-.0301m6.674 4.67c-1.745-2.884-2.76-6.278-2.79-9.918-6.747.1441-13.59.2386-20.52.308-.1952 5.593-2.683 10.65-6.602 14.32-3.92 3.67-9.27 5.951-15.22 5.993-5.948.0419-11.4-2.162-15.51-5.731-2.971-2.579-5.237-5.866-6.494-9.536m26.12 19.33c-4.325-.7286-8.185-2.834-11.12-5.861-3.616-3.728-5.828-8.856-5.759-14.53-6.61-.1652-13.18-.3626-19.73-.6046.1248 5.337-1.991 10.14-5.473 13.53-1.441 1.402-3.115 2.562-4.962 3.417m-3.073-7.842c-1.018 2.69-2.594 5.103-4.583 7.092-3.588 3.588-8.52 5.794-13.91 5.741-5.391-.0533-10.23-2.357-13.64-6.052-3.407-3.692-5.397-8.784-5.058-14.4-6.281-.1008-12.49-.2192-18.62-.3631.33 3.875-.4876 7.484-2.12 10.5m10.95-19.42c-4.001.1694-7.962.3273-11.89.4806-.1267 5.759-2.424 10.97-6.069 14.81-3.645 3.843-8.622 6.302-14.09 6.56-5.46.2583-10.38-1.728-13.9-5.054-3.518-3.326-5.641-7.999-5.502-13.1-.8322.0683-1.664.1383-2.497.2099m9.816 19.31c-3.623-3.413-5.841-8.174-5.861-13.47-6.718.085-13.3.0693-19.78-.0162.1777 5.466-1.843 10.38-5.202 13.88-3.357 3.499-8.055 5.591-13.2 5.402-5.149-.1894-9.772-2.627-12.99-6.45-1.626-1.931-2.893-4.215-3.689-6.739m29.39 4.732c-.318.00063-.6382-.006-.9603-.0205-5.459-.2429-10.45-2.613-14.11-6.31-3.659-3.694-5.972-8.694-6.088-14.15-6.83.0993-13.73.2941-20.67.5468-.2122 5.746-2.692 10.99-6.582 14.88-1.298 1.295-2.752 2.438-4.331 3.396m6.222-6.69c-.7933 3.778-2.613 7.129-5.139 9.748-3.558 3.689-8.528 5.933-14.02 5.859-5.492-.0743-10.49-2.454-14.1-6.258-3.616-3.805-5.855-9.036-5.838-14.84.01754-5.82-4.461-10.56-9.972-10.88-5.505-.3224-9.97 3.872-9.904 9.07.02548 2.011.2234 3.984.5815 5.907m16.08-17.34c-1.529-1-3.349-1.575-5.299-1.566-5.457.0266-9.885 4.62-9.787 10.36.1961 11.48 4.925 22.21 12.51 30.45 6.455 7.018 14.95 12.21 24.51 14.62m-25.43-4.738c6.153 4.604 13.78 7.276 22.08 7.295 11.93.0273 22.87-5.411 30.43-13.97 7.568 8.137 18.61 13.13 30.8 12.89 2.247-.044 4.45-.2644 6.594-.6473m-36.17-6.422c5.992 3.823 13.25 6.007 21.1 5.907 11.95-.1529 22.88-5.558 30.47-14.1 3.83 4.121 8.552 7.442 13.86 9.67m-6.548-1.275c7.698 8.521 18.47 13.6 30.29 13.23 12.05-.3819 22.85-6.369 30.25-15.59 6.932 6.999 16.92 11.16 28.23 10.73m-23.08-19.49c7.643 6.974 18 11.5 29.43 11.74 12.25.2644 23.25-4.437 30.97-12.11 3.75 4.393 8.335 8.09 13.52 10.83m-15.37-9.156c1.039-.8784 2.027-1.807 2.963-2.78 7.825 8.555 18.76 13.91 30.76 13.95 12 .0436 22.67-5.229 29.99-13.53 3.298 3.785 7.305 6.952 11.83 9.309m-21.68 1.215c2.031-1.639 3.898-3.475 5.572-5.482 7.218 8.029 17.73 12.91 29.18 12.25 11.45-.6638 21.56-6.757 28.04-16.22 2.471 2.761 5.413 5.034 8.695 6.684m-12.89 4.164c2.996-1.842 5.705-4.147 8.046-6.835 7.223 8.377 17.85 13.16 29.5 12.1 8.572-.7824 16.46-4.623 22.75-10.6m-13.16 9.717c7.579-1.849 14.29-6.021 19.32-11.71 7.181 8.589 17.79 14.06 29.52 14.39 10.84.3039 20.6-3.835 27.47-10.58 1.048-1.029 2.029-2.12 2.935-3.264m-17.33 15.99c6.946-2.15 13.25-6.08 18.3-11.28 7.233-7.451 11.86-17.48 12.1-28.51.1112-5.528-4.268-9.989-9.661-9.968.00089.00013.002.00025.003.00038-4.123.0159-7.641 2.643-9.007 6.349m-377.5 46.06 37.31-37.95m289.7 32.31 53.19-2.754m-158.6 8.438 48.96-19.87m-23.74-5.946-34.72-2.652m-298.7-14.8-9.717-17.51" style="fill:#ce5bc6"/>
   <path d="m498.9 566.8c-31.77-.7536-63.51-.3659-94.15-.948m20.99 3.331c-30.97.7833-62.35.0362-90.18-.0348m23.88-7.036c-23.38-.0457-47.34.3102-71.77.9818m22.59 5.034c-32.53.3901-64.35-.0173-98.9-.2329m32.76 2.928c-31.27-1.156-62.12-.1619-95.18.1016m24.11-1.468c-24.09-.35-49.22-.0646-75.16.3256m16.17-3.45c-10.48-.02-20.67.075-30.63.278-5.372.1095-9.684 4.719-9.401 10.44.545 10.99 1.304 22.08 2.206 33.29m-5.239-23.42c-.1044 21.84-.04948 44.86.0319 68.47.02028 5.883 4.539 10.68 10.1 11.06.7578.0529 1.516.1063 2.273.1602m-11.43-14.28c-.01721 1.201-.03097 2.401-.04136 3.601-.04838 5.588 4.477 10.1 10.1 10.13 21.62.1019 44.23.1382 67.47.2874m-26.76-.2082c24.53-1.225 51.02.3347 77.34 2.485m-14.41.8754c30.1.5218 61.88 1.054 92.85 2.991m-33.67-4.319c30.99.8034 64.58-1.678 97.5-5.163m-23 3.132c34.23-.1793 63.67-1.515 92.66-4.488m-19.66 6.676c26.08.7265 51.74 1.082 77.4 2.402m-20.46-6.074c17.55.2781 35.56.2138 53.38.0616 5.405-.0461 9.784-4.581 9.604-10.19-.2621-8.178-.5964-16.36-1.059-24.52m-1.684 33.05c.2112-.8059.3165-1.66.3-2.547-.4782-25.76 1.549-55.41 4.842-86.46.3909-3.686-.7179-7.006-2.63-9.344m7.923 30.32c.1108-5.299.123-10.63.0455-15.98-.0787-5.439-4.728-9.848-10.5-9.762-20.14.3-41.3.5097-63.05 1.212m54.41-.4112c-29.49.881-58.53-.8509-89.17-3.223m21.99 7.559c-26.28.6174-51.66-1.57-77.45-5.502m19.84-4.928c-27.66.2398-53.06 1.655-78.13 4.701m15.87.2596c-29.87-.2125-59.32-1.044-87.56-3.022m24.9-5.455c-26.74.2291-51.56.958-76.68 2.594m13.7 7.914c-26.62-1.174-51.74-1.068-75.8-1.89m12.21 2.867c-15.19-.2782-30.13-.3899-45.02-.5024-5.56-.042-10.07 4.411-10.08 9.912-.01107 4.518-.02421 9.03-.04525 13.53m2.897-15.85c-.2465.8422-.3797 1.73-.3826 2.647-.07887 24.85.9513 48.84 2.826 71.02m-10.23-26.09c.136 7.514.2643 15.16.406 22.92.1041 5.699 4.698 10.35 10.37 10.62 11.14.5157 22.34 1.269 33.66 2.235m-5.808 4.086c26.99.9644 53.77 1.955 81.66 4.764m-26.96-6.756c24.62-.0764 49.71.3638 75.46 1.206m-24.76-1.87c31.54-.4385 61.17.7773 91.83 2.522m-20.17 7.869c31.17.9684 59.75-.1428 88.03-.9406m-18.01-13.9c25.82-.4914 50.09 1.376 74.63 4.777m-9.582 10.14c27.67-.0849 53.28-.5677 77.91-1.634m-31.68-4.967c12.15-.4549 24.36-.4406 36.77-.1274 5.846.1476 10.63-4.157 11.03-9.456.7941-10.48 1.82-20.77 3.194-31m6.232 19.98c.4729-22.81.7268-45.74 1.426-68.73.1699-5.587-4.163-10.11-9.478-10.15-1.157-.009-2.312-.0183-3.466-.0277m13.82 9.096c-.0317-1.271-.065-2.539-.1-3.805-.1533-5.539-4.813-9.99-10.57-9.899-20.22.3177-40.98 1.168-62.78 2.505m44.51 3.998c-24.84.2468-50.1.0939-75.01-.0263m26.49-.4817c-33.52-.3388-66.09-.874-101.6-2.541m19.84 3.831c-24.63.9789-47.46.0365-69.64-1.326m19.65-5.627c-30.14 1.362-58.25 1.699-85.74 4.226m17.98-2.742c-33.1.9761-67.93.2632-103.8.781-.004 5e-5-.007.00011-.0108.00016m26.21.4292c-27.66-1.042-53.88-1.008-78.41-2.068m18.43 2.147c-10.2.0359-20.31-.2366-30.3-.8076-5.391-.3081-9.744 3.841-9.53 8.928.5061 12 1.216 23.53 2.17 34.6m-5.289-20.23c.8957 21.15 1.768 42.84 3.683 65.19.5055 5.903 5.496 10.72 11.69 11.16 1.276.0903 2.556.1826 3.84.2771m-4.486-6.169c.01743.369.03417.738.05022 1.107.2375 5.457 4.804 9.864 10.33 9.75 21.7-.4462 41.4-1.125 60.4-2.508m-21.09-3.942c33.9-.2173 64.77 1.643 95.86 4.914m-32.04 3.562c31-1.308 61.79.9216 91.53 3.192m-25.37-12.37c30.37-.1038 60.56-.5491 92.56-1.567m-17.28 9.106c34.54-1.536 64.36-.764 93.8-2.191m-21.4-.504c23.94.4967 49.15.8575 73.98 1.927m-23.11.0646c15.42-.2208 31.43-.8249 47.87-1.956 5.807-.3995 10.57-5.284 10.92-11.36.5592-9.544 1.23-19.26 1.981-29.19m2.786 32.35c-1.197-26.25-1.033-52.83-1.692-80.25-.1233-5.128-3.704-9.432-8.461-10.68m-.9789 18.37c.1837-3.812.3387-7.619.4721-11.42.1936-5.515-4.184-9.965-9.592-9.905-17.55.1945-35.36.5357-52.68 1.063m46.33 4.765c-29.29 1.284-57.81-1.605-84.08-5.555m25.79-1.164c-31.58 1.09-61.79.8596-90.17 2.307m27.86-3.479c-26.63 1.367-55.89-.4272-85.38-2.545m14.47.7474c-29.67-.6857-58.42 1.156-85.97 3.875m26.9-1.219c-26.2 1.002-54.2.5494-82.44.6407m24.94-1.891c-23.89-.4544-47.35.5906-70.57 2.419m4.211 4.183c-13.97-.2353-27.15-.1636-39.82.0985-5.235.1083-9.418 4.718-8.969 10.43.878 11.17 2.02 22.43 3.28 33.73m-7.381-29.98c-.946 23.36.1598 46.68 1.857 69.38.3963 5.3 5.26 9.556 11.24 9.237 1.71-.0911 3.421-.1856 5.132-.2836m-12.18-13.3c.05752 1.548.1075 3.103.1503 4.663.1502 5.471 4.697 9.936 10.25 9.971 21.25.1329 41.44 1.125 61.5 2.388m-13.42-3.753c26.8.649 53.78 1.168 80.06 2.878m-20.6-2.605c25.06-.6317 51.77-.4883 79.06-.7007m-16.94-.4706c32.14 1.071 63.27.004 94.97-.3067m-36.12 6.83c30.52 1.463 64.63-.6631 100.5-2.488m-26.78 1.159c32.56-1.3 62.06-.7849 90.81-1.987m-26.92 4.097c17.49.8696 36.26.7614 55.49.4668 5.789-.0887 10.53-4.667 10.83-10.32.5242-9.768 1.104-19.53 1.621-29.16m-1.256 19.78c.0286-.3498.0389-.705.0299-1.065-.6559-26.41.3264-52.83 1.565-78.56.0825-1.713-.3029-3.318-1.038-4.698m.2818 31.31c.1151-6.06.1899-11.97.2349-17.75.0432-5.545-4.445-9.953-9.983-9.757-21.6.7634-43.48 2.968-65.11 5.299m60.99-6.258c-29.91-.5515-59.71.2359-90.55 1.1m21.27-4.733c-25-.3042-48.52.1247-71.57.8068m23.01-4.4c-33.69 1.577-68.47-.0241-106.1-.116m28 7.147c-26.69-.5809-55.04-1.139-82.14-2.897m21.09-1.087c-23.58-.8526-47.31-.16-70.57.7515m11.86 4.014c-30.1-.5285-60.81 1.13-92.12 3.679m26.49-4.225c-14.59.3156-28.6.535-42.37.8244-5.477.1151-9.895 4.711-9.78 10.41.287 14.16.6807 28.44.8493 43.02m7.238-25.64c-.9335 22.88-.6692 44.59-.5167 65.28.01694 2.298.9642 4.379 2.516 5.907m-3.874-22.08c-.09022 3.39-.161 6.775-.2149 10.16-.09071 5.688 4.376 10.29 9.903 10.42 24.41.6022 49.51 1.306 74.24 3.156m-28.18-1.296c29 .4584 58.75.6551 86.55 1.73m-20.3-6.457c29.09.6854 58.85 1.703 86.37 4.717m-22.99-.1085c30.63-1.013 60.41-1.358 90.49-3.545m-28.42 7.14c22.48.9602 46.8.3054 71.19-.4932m-17.42-6.382c28.02.8952 60 .6755 92.75 1.407m-28.45 6.171c19.5-.4934 40.05-.8408 61.39-1.553 5.997-.2001 10.92-4.883 11.49-10.7.2815-2.883.5773-5.775.8867-8.679m-3.481 11.12c4.064-1.302 6.963-5.036 6.912-9.436-.2537-21.95-2.331-43.79-5.611-65.33m4.852 21.57c.0128-10.45.1358-21.01.3751-31.55.1221-5.375-4.248-9.712-9.61-9.508-7.573.288-15.08.6238-22.53 1.057m.2769 69.1c-27.47-.3427-56.65 1.063-85.63 3.477m25.86 3.359c-24.93-.8998-51.59-.7738-77.66-1.264m12.65 2.67c-25.02.2482-50.14.9129-74.7 2.443m13.21-5.763c-30.79.0252-64.06-.2801-95.41-.8466m28.52 4.557c-24.36-1.014-48.15-.2752-71.89.6364m28.59.1847c-26.97.8856-55.98 1.308-86.35 3.052m21.65-11.1c-8.74.1716-17.71.3232-26.88.49-.6908-15.08-2.04-30.11-3.996-44.9m-1.216 16.64c-.03886-10.42-.0063-20.61.08685-30.67 15.11-.1535 30.36-.0407 45.71-.0861m-22.55 8.254c33.21-1.391 64.27 1.062 95.53 3.393m-17.34-4.213c24.33-.9312 48.85-1.209 71.75-2.446m-24.36.3754c29.42-1.217 59.67-1.343 88.73-3.348m-12.72 6.005c26.78 1.297 53.51 1.663 79.78 3.632m-29.39-6.719c28.66-.6562 57.73.2276 87.59 1.19m-14.9.2168c18.82.3933 37.23.3958 55.67.3602.0702 9.533.1522 19.06.3114 28.62m-1.202-19.26c-.5471 17.78-.4834 34.89-.2618 51.55-.00088-.002-.002-.003-.003-.005.00042-.002.00085-.003.001-.005-13.43-.6679-26.76-1.608-40.22-2.716m34.34.0884c-24.85.1543-48.34 1.845-70.83 5.304m14.03-5.734c-25.96 1.259-52.13.0386-78.83-1.416m12.92 1.65c-27.1.0307-52.28-1.56-76.56-4.715m22.11-3.606c-28.18-1.27-54.73-.0415-82.2 1.185m20.9 2.253c-26.06-1.052-51.27-.709-77.17-.752m25.26 6.221c-30.82-1.322-63 .0496-95.12.608m22.47 1.189c-11.34-.2055-22.79-.2567-34.39-.2246-.4963-13.92-1.233-27.72-2.302-41.52m4.759 17.12c-.36-11.31-.5509-22.86-.709-34.48 18.99.3232 38.07.486 56.65 1.323m-29.37-3.933c25.15.1616 51.08-.8394 76.41-2.732m-8.488 8.787c32.36 1.232 65.13-1.013 95.77-3.104m-33.68-6.233c22.85-.7856 47.51.2761 72.23 1.986m-14.72 4.264c31.69.6632 65.96.2566 101.8.6514m-30.62-1.863c25.33-1.088 48.01-.3082 69.77.6215m-14.49-3.786c19.83-.9565 38.9-1.103 57.44-1.424-.3675 6.713-.7987 13.4-1.283 20.03m2.943-20.03c-.9615 20.13-1.603 39.66-2.912 59.19-.004-1e-5-.007-2e-5-.0106-4e-5-.002-1e-5-.004-2e-5-.007-3e-5-7.024-.002-14.12-.004-21.34.0178m21.22 4.835c-29.14.3808-56.91.2642-85.99.4415m22.27-7.395c-24.15-.1686-50.33-.1282-76.36-.1839m18.7 9.09c-24.55-1.196-49.3-.4988-73.68.0954m13.34-9.978c-31.56-.9096-63.52 2.039-96.03 6.378m31.41-.4397c-27.04.7643-58.08-.2239-90.18-1.283m23.83 1.283c-23.5-.1119-47.68.0556-71.95.3186m17.51.9706c-9.579.0419-19.27-.2048-29.02-.7306.07823-17.43-.0091-35.66.0059-54.64m.0936 27.95c-.2673-9.475-.3798-19.3-.4056-29.39 18.04-.5705 36.37-2.055 54.57-3.955m-24.43-4.048c30.09-.0905 57.64 1.47 84.99 4.483m-19.33-.1859c32 1.132 60.57-.6352 89.46-2.495m-19.14-3.209c25.07.5713 50.91 1.675 77.28 4.3m-24.83.0753c31.99.427 64.54.0507 97.18.1089m-20.53-.6557c30.34.5482 59.92.1686 88.28.2108m-20.39-1.305c14.37-.5159 28.5-.8818 42.23-1.399-1.141 16.98-2.869 33.74-5.491 49.77m-2.706-25.73c.0279 12.13.1859 24.36.4864 36.78-.00045.002-.00091.003-.001.005.00085.002.002.003.003.005-19.15.9502-37.92 2.45-56.23 4.981m46.68-1.328c-29.09.9446-60.34-.9749-90.9-3.448m27.29 5.986c-26.62-1.056-52.75-1.178-78.64-2.397m14.9 2.632c-27.5-.2031-58.06.7445-88.5 2.373m28.58-7.295c-29.37-1.039-57.5-.9691-85.42-2.167m24.57 7.988c-29.16.177-57.83.0584-87.77.0383m26.28-6.327c-25.14 1.154-51.07.8442-78.31.9857-.4667-4.768-.9823-9.52-1.551-14.24m10.59 18.29c-3.018.0121-6.068.0187-9.147.0202.1473-20.07-.9327-40.36-2.639-60.79 1.605-.0309 3.205-.0629 4.8-.096m-4.703 10.44c.03449-3.926.05333-7.823.05781-11.69 20.06-.1492 39.73.4084 59.19 1.19m-15-1.53c24.24.9112 49.16.6383 73.29.7061m-17.32-6.839c26.51.8381 53.33 1.461 79.16 3.515m-11.23-4.531c23.3.0468 46.71 1.067 69.45 3.137m-16.55 7.605c25.93-.2506 51.69-.003 77.74.2877m-22.73-5.248c24.83 1.036 47.89-.2268 70.62-2.187m-12.04 4.57c22.2.4084 42.97.4983 62.83.7962-.4838 5.568-1.025 11.15-1.614 16.75m1.891-19.46c1.248.0367 2.493.0724 3.737.1072.6405 20.66.6309 41.08.7624 61.94-.001.001-.002.003-.003.004.00022.001.00044.003.00066.004-6.16.2415-12.31.5247-18.42.8695m5.733-3.86c-27.84-.1824-54.36-.1013-80.29-.124m17.42.2018c-23.68-.8911-48.19-1.539-72.55-3.35m20.01 10.23c-32.33-1.521-64.43-.5576-96.64-1.39m30.34-8.102c-25.95-.4162-53.84.1924-82.32 1.045m29.59-2.764c-27.87-.8506-56.43.1695-84.72 1.187m11.41 7.837c-27.5.1073-54.81-1.855-81.7-5.688m22.57 4.75c-6.887-.1621-13.87-.3192-20.94-.4918-.4427-19.91-1.608-39.94-3.406-60.55m7.662 12.79c-.1428-6.907-.2323-13.74-.2868-20.49 21.77.4564 43.89 1.672 65.79 3.601m-24.79 2.445c27.05 1.021 56.7.5259 85.97.7708m-23.15-3.036c32.15 1.399 63.93 1.519 95 4.255m-22.39-3.279c30.73 1.006 62.31-.8036 91.79-2.697m-32.16 4.181c25.71.1261 50.96-.2979 77.16-1.062m-16.53 4.069c26.89-.742 51.95-.7459 77.38-1.343m-13.3 3.569c13.75-.5579 27.28-.5661 40.66-.3045-.2944 17.83-.8379 36.11-1.491 54.24m3.378-36.01c-.5291 10.78-.739 21.94-.8098 33.3-.002.00021-.003.00042-.005.00063-.00021.00021-.00042.00042-.00062.00063-18.69.1187-37.01.777-55.76 1.19m-401.8-57.35h153.1m-26.82 0h149.4m175.9-25.35v140.5m-424.3-51.03 6.423 18.85m-19.39-2.626h182" style="fill:#ce5bc6"/>
   <path d="m510.2 412.6c-.1547-15.78-.2636-30.71-.4232-45.14-.002-.2109-.1176-.3803-.1278-.591-.0721-.861-.2496-1.687-.5604-2.498-.1129-.3004-.199-.6061-.355-.8941-.4928-.9671-1.108-1.872-1.958-2.633-.008-.006-.0203-.0231-.0285-.0327-10.5-9.397-21.06-18.38-31.77-27.25m29.56 19.45c-19.82-22.03-42.45-41.13-65.58-60.13m10.63 24.51c-22.94-23.25-41.22-42.92-57.78-62.81m20.21 12.74c-17.71-19.08-36.25-36.3-54.23-52.81m7.91 7.628c-20.05-20.86-42.87-44.29-64.85-68.67-.6378-.7075-1.336-1.314-2.074-1.821m22.63 24.75c-5.559-5.9-11.23-11.75-17.01-17.61-4.042-4.099-10.52-4.237-14.65-.5008-14.38 13.01-29.32 25.81-44.71 37.68m18.4-13.58c-17.36 18.15-34.59 34.03-52.01 49.22m11.89-11.91c-16.71 15.85-33.14 33.74-48.95 51.96m9.282-9.909c-22.46 22.89-46.03 42.1-72.1 60.18m26.49-19.92c-18.24 18.22-40.01 39.97-62.85 62.75m20.11-14.03c-5.79 5.972-11.78 11.93-17.9 17.83-.01139.0106-.01888.029-.03027.0395-.8206.7915-1.413 1.736-1.89 2.718-.1346.3001-.2146.6084-.3339.9198-.2959.8296-.4718 1.667-.5197 2.546-.01885.2103-.1277.3862-.1271.5964.02781 10.36-.08451 20.61-.1787 30.65-2.701.5804-5.292 1.26-7.764 2.033m8.33-3.424c-.0459 2.9-.09911 5.777-.1606 8.631-12.6 3.502-23 8.844-30.5 15.64-7.49 6.793-11.95 14.95-12.77 23.8-.028.3011-.05027.6011-.06687.8998m-2.233-8.975c-1.958 4.69-2.999 9.631-3.011 14.74-.01425 6.455 2.108 12.42 6.001 17.67 3.893 5.258 9.55 9.798 16.6 13.39 5.147 2.621 11.02 4.731 17.5 6.26m-14.32-10.57c14.68 8.329 33.59 13.24 54.8 14.51 13.66.8199 26.25.007 36.92-1.945m-15.29-8.836c16.88-.7322 31.45-4.89 42.28-11.07 12.46 6.875 28.38 10.77 44.54 11.45m-31.27 3.059c10.07 2.2 21.65 3.242 34 2.811 21.81-.7594 42.05-5.709 58.14-13.86m-13.73 15.3c11.7-3.021 21.75-7.295 29.75-12.66 9.696 5.684 22.31 9.686 36.32 11.21m-27.93 1.279c11.46 2.873 24.44 4.366 37.63 3.945 14.43-.4615 27.29-3.027 38.17-7.456m-13.13 1.055c14.36-2.552 27.07-6.548 37.18-11.97 11.91 7.283 29.04 12.93 48.46 16.01m-17.67-10.93c11.85 3.121 24.85 5.007 38.1 5.572 11.7.4989 23.22-.0935 33.48-1.734m-19.34 3.453c13.83-1.602 26.55-4.493 36.85-8.766 7.598-3.153 13.89-7.068 18.32-11.78 2.503-2.665 4.403-5.58 5.59-8.741m-8.092 8.852c.9922-.9707 1.919-1.967 2.775-2.989 4.344-5.188 6.854-11.04 6.889-17.64.0323-6.576-2.621-12.63-7.615-17.86-4.997-5.24-12.31-9.637-21.6-12.92.2004-6.349.4226-12.68.6553-19.02m-1.773 17.71c.6379-16.27.8716-32.53 1.139-49.05.004-.232-.1063-.4198-.1103-.6519-.0471-.9489-.1999-1.862-.4849-2.766-.1036-.3358-.1796-.674-.3261-.9985-.4608-1.087-1.042-2.111-1.856-3.004-.007-.009-.0183-.0305-.0255-.0438-8.874-9.728-17.68-19.66-26.18-29.94m13.98 34.77c-22.57-21.59-44.66-48.33-64.88-76.04m12.47 16.13c-23.31-22.88-47.51-48.3-71.92-74.33m28.43 26c-24.78-24.09-45.99-45.72-67.86-67.17m22.1 18.8c-17.81-18.93-35.72-37.09-52.92-55.71-3.699-4.003-9.824-4.089-13.46-.2885-.0201.021-.0402.042-.0602.063m12.32 5.963c-2.559-2.557-5.079-5.094-7.566-7.614-4.031-4.085-10.4-4.197-14.29-.37-16.95 16.69-32.54 33.86-48.33 49.95m15.9-18.11c-22.47 23.07-45.77 47.74-67.96 73.73m27.99-28.13c-22.73 23.74-47.92 46.23-75.62 70.32m23.07-18.17c-18.2 16.66-34.65 34.01-50.86 51.12m15.29-11.06c-13.32 13.95-28.16 28.29-43.68 42.86-.01411.0125-.02431.0328-.03843.0454-.9158.8594-1.602 1.873-2.172 2.924-.1625.3211-.2696.6497-.4172.9827-.371.8868-.6193 1.78-.7429 2.719-.03698.2246-.1621.4134-.1796.638-.2304 2.954-.4726 5.913-.7244 8.876m-.9611-23.33c-.2104.235-.421.4699-.6317.7048-.01061.0132-.01732.0342-.02794.0474-.7938.8845-1.359 1.917-1.811 2.99-.1269.3273-.1996.6619-.3111 1.001-.2755.9031-.4321 1.812-.4603 2.766-.01411.2283-.1187.4205-.1134.6487.2586 11.25.3286 22.51.3277 33.92-12.32 4.296-22.42 11-29.41 19.46-2.695 3.265-4.925 6.792-6.638 10.54m9.928-18.56c-3.366 2.31-6.329 4.831-8.867 7.538-7.166 7.643-11 16.83-10.77 26.87.1502 6.59 2.518 12.79 6.741 18.44 4.23 5.658 10.31 10.75 17.89 15.19 1.802 1.055 3.688 2.072 5.651 3.05m-13.86-6.195c3.733 4.068 8.404 7.695 13.86 10.77 14.7 8.296 34.61 12.4 57.9 11.23 8.1-.407 15.91-1.416 23.27-2.896m-31.97-4.191c2.12-.0124 4.288-.0567 6.498-.1348 21.51-.7606 41.26-4.568 56.51-11.64 2.181 1.129 4.47 2.197 6.853 3.2m-16.95 2.903c2.456-.9891 4.812-2.081 7.054-3.265 14.43 7.733 34.33 11.43 56.09 10.13 10.6-.6338 20.7-2.336 29.93-4.866m-28.96.9859c24.3-.5807 44.19-5.333 57.9-13.3 8.41 5.954 19.09 10.85 31.08 14.37m-26.4-3.578c14.66 7.639 33.25 11.1 52.77 9.255 9.032-.8528 17.52-2.715 25.27-5.34m-14.34 6.399c21.74-.4142 39.56-5.878 52.09-14.1 5.001 2.859 10.88 5.213 17.42 7.004m-12.28-5.434c14.4 7.716 35.54 11.48 59.39 9.35 5.369-.48 10.76-1.258 16.07-2.323m-20.11 8.244c.6521.0332 1.305.0619 1.959.0861 20.86.7719 41.16-3.286 56.67-10.81 7.383-3.583 13.68-7.963 18.3-13.03m-17.46.6662c6.894-3.406 12.5-7.39 16.46-11.99 4.365-5.076 6.75-10.94 6.488-17.55-.2645-6.606-3.334-12.75-8.958-18.15-3.87-3.721-8.942-7.092-15.16-10.06m14.89 18.86c-.0956-.1003-.192-.2003-.2891-.3-5.297-5.439-12.89-10.05-22.29-13.4.3081-15.66 1.17-30.81 2.317-45.51.0158-.2026-.0837-.3648-.0756-.5672.003-.8274-.1013-1.62-.3351-2.398-.0846-.2888-.142-.581-.269-.8573-.3959-.9264-.9127-1.79-1.659-2.509-.005-.005-.0144-.0208-.0197-.0292-.9285-.8951-1.855-1.787-2.78-2.675m7.276 50.62c-.311-15.59.0483-31.54.8678-47.6.0114-.2244-.0918-.4057-.088-.6302-.0149-.918-.1353-1.8-.3855-2.672-.0908-.324-.1538-.6499-.287-.9624-.4162-1.047-.9509-2.028-1.716-2.877-.006-.008-.0155-.028-.0213-.0401-4.011-4.449-7.958-8.91-11.85-13.37m5.899 18.47c-16.68-16.35-33.89-33.84-51.08-51.39m19.98 7.441c-21.49-22.52-45.01-45.35-67.64-68.43m8.393 20.67c-18.95-20.09-38.6-40.34-56.62-60.89m8.555 18.31c-22.76-22.13-43.12-46.72-60.81-71.68m15.98 20.01c-9.398-9.479-18.9-18.79-28.57-28.02-4.107-3.922-10.63-3.905-14.8.04-6.744 6.383-13.58 12.78-20.54 19.15m17.94-12.63c-20.14 19.36-38.32 38.99-56.38 59.16m15.15-21.53c-17.15 17.15-35.58 34.88-54.08 51.99m12.57-7.246c-19.73 17.74-38.93 38.46-59.09 59.71m17.38-6.868c-22.57 23.7-44.14 43.2-64.82 61.72m11.35-20.95c-9.657 9.881-19.05 19.73-28.06 29.55-.0096.0115-.01536.0309-.02499.0425-.7589.8268-1.286 1.804-1.694 2.822-.1138.3106-.1735.6292-.2708.9515-.238.858-.3557 1.725-.3403 2.633-.0037.2175-.09863.3999-.08263.6174.7889 10.72 1.818 21.42 3.141 32.1-2.871.9158-5.563 1.994-8.066 3.222m2.478-19.01c.1314 5.113.2591 10.24.3926 15.37-11.97 3.444-21.68 9.233-28.24 16.58-6.552 7.343-10 16.29-9.36 26.03.4003 6.092 2.801 11.82 6.971 16.99m-4.118-21.67c-.7811 2.998-1.136 6.141-1.024 9.393.212 6.192 2.575 12.04 6.788 17.28 4.208 5.232 10.28 9.874 17.9 13.63 6.41 3.157 13.96 5.704 22.46 7.417m-18.95-8.104c14.36 6.251 32.45 10.05 52.23 10.28 9.099.1031 17.69-.566 25.67-1.918m-15.71 6.148c19.08-.5503 35.21-5.348 47.11-12.62 6.01 2.946 12.84 5.159 20.19 6.557m-16.99-9.052c14.34 6.31 31.33 9.229 49.08 8.285 15.71-.8355 30.09-4.435 42.16-9.692m-30.88 9.744c17.15-2.304 31.86-6.295 42.86-12.06 9.542 7.026 22.02 13.08 35.83 17.81m-6-4.813c13.03 4.687 28.37 6.812 44.37 5.614 11-.8235 21.25-3.062 30.47-6.409m-18.63-4.458c17.97-1.701 33.17-6.348 44.33-13.15 11.31 6.954 27.16 11.71 44.66 13.44m-27.28.5839c12.75 4.218 27.33 6.432 42.91 6.538 17.57.1201 35.5-2.551 50.05-7.348m-32.33 9.431c11.6-1.645 22.2-4.719 30.97-9.091 7.408-3.692 13.51-8.316 17.7-13.76 4.184-5.442 6.477-11.73 6.19-18.9-.1997-4.948-1.698-9.694-4.41-14.22m7.893 23.35c1.017-2.919 1.529-5.987 1.458-9.209-.1482-6.635-2.962-12.69-8.156-17.83-5.19-5.135-12.75-9.338-22.36-12.17-.021-12.62-.0412-24.82-.2817-36.81m2.015 25.98c-.6922-13.97-.9373-28.04-1.108-42.1-.003-.2207-.1183-.3986-.1287-.6193-.0733-.9019-.2515-1.769-.5626-2.624-.1132-.317-.199-.6385-.3552-.9437-.4931-1.024-1.107-1.987-1.956-2.811-.008-.007-.0203-.0267-.0284-.0381-7.457-7.242-14.91-14.46-22.51-21.62m18.26 13.05c-21.44-21.24-45.72-43.09-71.32-63.53m11.85 11.37c-16.51-17.61-33.89-35.24-50.6-53.15m21.88 18.97c-23.9-22.23-47.56-48.96-73.22-77.62m22.15 32.53c-18.43-17.6-35.14-35.28-52.1-53.64m10.28 3.853c-8.705-8.503-17.42-16.86-26.24-25.1-4.095-3.825-10.6-3.716-14.75.3572-9.238 9.077-18.64 18.28-28.31 27.58m25.6-16.41c-18.5 17.74-38 34.75-59.08 50.27m4.228-7.754c-20.63 21.01-39.37 40.93-57.2 61.62m16.83-15.67c-16.87 18.19-34.69 34.56-52.98 50.77m8.72-4.559c-21.09 19.71-40.38 39.55-59.42 57.91m22.63-21.67c-9.458 9.251-18.91 19.1-28.3 29.37-.01118.0134-.01846.0346-.02965.0479-.8136.8909-1.396 1.933-1.861 3.02-.1309.3312-.2073.6698-.3224 1.013-.2849.9147-.4491 1.837-.4832 2.806-.01555.232-.1213.4276-.1173.6597.1743 10.08.3917 20.36.6773 30.77m-5.145-19.83c.1695 7.457.3645 14.76.6094 21.94-11.89 3.458-21.35 8.825-27.68 15.74-3.401 3.714-5.88 7.86-7.29 12.33m5.768-6.892c-6.609 7.098-10.3 15.92-10.24 25.7.04471 6.494 2.229 12.64 6.208 18.24 3.976 5.598 9.752 10.66 16.97 14.98 2.484 1.485 5.14 2.884 7.955 4.184m-18.68-13.12c2.435 1.921 5.176 3.707 8.199 5.338 14.35 7.744 35.27 12.09 60.17 10.62 10.81-.6371 21.18-2.311 30.83-4.858m-27.14 6.59c.1255-.00054.251-.001.3767-.002 22.16-.1485 41.33-5.048 55.49-13.08 8.435 4.041 18.52 6.856 29.57 8.195m-25.9-7.176c12.94 5.061 29.59 8.591 46.55 9.865 8.37.6293 16.26.7102 23.52.2362m-17.92.5715c21.37-.1861 40.09-6.024 53.32-14.5 7.758 4.426 17.29 7.754 28.12 9.916m-16.04-.3775c14.35 6.154 33.04 9.902 52.01 9.641 7.276-.1 14.16-.7482 20.61-1.924m-20.18-.4442c22.05.2255 41.41-5.293 55.15-13.63 8.446 4.635 19.26 8.006 31.74 10.04m-22.04-5.904c14.33 5.636 33.64 9.28 54.06 9.792 15.41.3861 30.81-1.101 44.09-4.763m-31.41 10.15c15.37-1.511 29.54-5.057 40.84-10.6 7.486-3.674 13.7-8.223 18.01-13.58 3.236-4.018 5.418-8.503 6.276-13.46m-10 18.62c1.043-.9258 2.015-1.885 2.911-2.878 4.479-4.962 7.063-10.75 7.138-17.35.0727-6.588-2.58-12.73-7.599-18.18-5.018-5.442-12.4-10.18-21.76-13.95.2203-9.519.4933-19.05.8416-28.58m-1.649 14.66c-.3002-14.76-.6797-29.52-1.323-44.06-.01-.215-.1311-.3881-.1485-.603-.1019-.8784-.309-1.723-.6512-2.553-.1245-.3074-.2223-.6208-.3902-.916-.5327-.9921-1.189-1.924-2.082-2.713-.009-.006-.0228-.0247-.0323-.0351-10.35-9.135-20.94-18.08-31.91-26.69m23.14 27.24c-19.61-21.93-42.28-43.79-65.05-68.08m15.49 14.57c-17.2-17.11-33.86-34.84-48.73-51.84m12.76 7.902c-18.16-18.34-36.07-35.74-53.16-52m15.05 17.17c-22.33-21.52-45.02-45.08-69.47-70.02m21.94 23.66c-7.838-7.903-15.87-15.81-24.08-23.75-4.107-3.969-10.64-4.003-14.83-.1333-5.525 5.104-11.13 10.19-16.81 15.26m1.109-18.22c-20.27 19.03-39.3 41.92-56.82 65.61m22.65-13.51c-19.97 19.3-42.33 38.72-66.34 56m15.96-16.76c-16.32 17.62-32.25 33.44-47.08 48.72m11.67-2.687c-16.52 18.96-36.43 36.61-57.65 55m13.63-24.03c-11.11 12.35-23.12 23.97-35.71 35.44-.01381.0115-.02371.0309-.03753.0424-.9052.8246-1.582 1.803-2.143 2.818-.1598.3102-.2643.6282-.4093.95-.364.8571-.606 1.721-.7233 2.628-.03549.2171-.1593.3991-.1754.6162-.4258 5.749-.9169 11.49-1.459 17.25m-1.081-7.269c-.349 10.19-.4835 20.53-.5059 30.91-12.31 3.376-22.26 9.132-29.11 16.37-2.996 3.165-5.408 6.622-7.175 10.3m12.03-14.18c-1.381 1.318-2.669 2.681-3.859 4.087-6.513 7.702-10.05 16.71-9.6 26.47.2958 6.385 2.76 12.33 7.115 17.62 4.358 5.297 10.61 9.939 18.52 13.75 1.453.6999 2.962 1.372 4.526 2.015m-11.74-18.43c3.399 3.169 7.444 6.082 12.02 8.693 14 8 33.12 13.25 53.39 13.99.1906.007.3809.0134.5709.0195m-22.12 1.117c5.326.4996 10.88.7748 16.61.805 22.46.1183 42.49-3.599 57.83-10.29 2.346 1.245 4.817 2.426 7.403 3.539m-8.847 1.121c3.912-1.587 7.535-3.276 10.85-5.077 14.06 7.454 33.15 13.09 51.62 15.49 4.685.6095 9.166 1.006 13.43 1.187m-20.94-4.881c1.996-.0128 4.002-.061 6.014-.1464 24.43-1.036 44.48-6.998 58.02-17.14 4.137 2.532 8.837 4.657 13.93 6.286m-18.99-1.038c1.643-.7805 3.221-1.602 4.73-2.463 15.68 9.921 38.07 15.6 63.61 16.45 6.431.2142 12.74.1343 18.87-.2035m-28.38-1.462c1.499-.006 3.01-.0252 4.53-.0594 23.68-.5326 44.36-4.165 59.42-11.25 3.234 2.175 6.826 4.235 10.72 6.165m-19.16-8.004c1.989-.9783 3.881-2.009 5.673-3.089 15.1 8.294 37.34 12.91 61.06 11.48 4.722-.2837 9.438-.8086 14.09-1.575m-21.12-1.827c2.393.1088 4.81.1759 7.247.2003 20.52.2056 41.37-2.754 57.35-8.781 6.512-2.456 12.23-5.429 16.82-8.931m-22.24 22.69c.5176-.2074 1.029-.4193 1.535-.6356 7.626-3.261 13.93-7.538 18.29-12.69 4.361-5.149 6.807-11.19 6.68-18.1-.1287-6.914-3.011-13.42-8.357-19.38-5.346-5.956-13.16-11.37-23.16-16.08-.1247-3.636-.2531-7.287-.3841-10.95m-89.99 9.667c-28.56.2433-61.35.4154-95.72 1.092m26.55 4.377c-26.16.8246-51.76.5917-78.08.7331m22.63-6.319c-28.46 1.413-58.31.7092-88.44 1.077m14.91-3.148c-31.61-.806-61.46.758-92.65 2.644m25.08 7.161c-16.53-.1601-32.06-.2844-47.1-.4774-5.566-.0714-8.913-.631-10.88-1.169-.9837-.2693-1.623-.5339-2.019-.7311-.1979-.0986-.3348-.1804-.4234-.2375-.04431-.0286-.07653-.051-.09827-.0663-.01087-.008-.0191-.0135-.02492-.0174-.0058-.004-.0092-.006-.01035-.006-.1441-.3292-.2096-1.097-.2357-1.986-.02608-.8905-.01244-1.889-.0018-2.687.02243-1.247.0074-2.491-.02913-3.74.04787-.7104.09623-1.421.145-2.132m.3729 9.27c-.8428-.1473-1.547-.3054-2.133-.4621-1-.2675-1.653-.5301-2.058-.7264-.2024-.0981-.3426-.1794-.4335-.2363-.04543-.0284-.07849-.0507-.1008-.066-.01115-.008-.0196-.0134-.02557-.0174-.006-.004-.0094-.006-.01061-.006-.1513-.3277-.233-1.095-.2802-1.981-.04697-.8824-.05983-1.889-.07142-2.678-.01247-1.243-.06589-2.483-.1441-3.726.3462-10.09.5882-20.2.8501-30.36 12.18-.25 24.39-.5766 36.84-1.04m-11.21-9.644c28.33.8019 59.21 1.05 91.34 2.569m-21.85 8.994c31.34.7025 64.24.5344 94.78 1.506m-32.8-10.8c23.71 1.174 47.17 1.894 69.88 3.991m-12.15 10.03c29.72.5312 55.48-2.166 80.22-6.906m-20.24 3.741c30.68-.4137 64.52-1.324 97.65-3.875m-29.2-3.079c21.78-.9746 42.74-.9094 63.82-.9696.0408 8.156.1006 16.29.236 24.34m1.133-23.19c-.1305 13.08-.1914 26.19-.243 39.43-20.09.6024-40.16 1.525-60.43 3.157m25.98-.4705c-17.16.582-34.81.5359-52.78.3419-11.09-.1196-22.3-.2955-33.61-.415m28.85-2.349c-32.41-1.139-64.89.602-95.24 1.815m32.55 1.349c-27.5-1.292-54.7-.1284-83.14 1.02m21.48.9332c-24.13-.0567-48.02-.4799-71.62-1.335m18.82 3.288c-24.15.9014-47.98.2322-72.01-.6479m15.51-7.087c-20.18.0153-40.62-.6341-61.67-1.932-6.183-.3813-10.03-1.173-12.26-1.843-1.126-.3375-1.865-.6494-2.324-.8768-.2297-.1138-.3897-.2065-.4936-.2709-.05194-.0322-.08983-.0573-.1154-.0744-.01279-.009-.02249-.0151-.02932-.0195-.0068-.004-.01077-.007-.01209-.007-.1929-.3503-.365-1.173-.5159-2.119-.1503-.9422-.2819-2.024-.3865-2.868-.1591-1.333-.3599-2.664-.5875-4.001-.00082-.0104-.0016-.0207-.0025-.0311m10.39 16.55c-4.196.05-6.947-.2946-8.653-.6659-1.01-.2198-1.671-.452-2.079-.6282-.2045-.0882-.3464-.1625-.4382-.2147-.04593-.0261-.07938-.0467-.1019-.0607-.01128-.007-.01983-.0124-.02586-.016-.006-.004-.0095-.005-.01073-.005-.1545-.3122-.2432-1.048-.2981-1.898-.05472-.8471-.07603-1.813-.09414-2.572-.02272-1.194-.08599-2.386-.1737-3.583.2693-9.71.4586-19.49.6825-29.24 14.49.2913 29.06.6478 44.03 1.364m-20.51-1.32c27.33-1.335 55.23.4477 81.15 2.427m-20.6-2.035c30.79.8588 60.89-1.536 90.87-5.038m-26.94 7.421c33.96 1.508 67.4-.535 103.1-1.687m-33.31 1.882c26.49.6124 51.77 1.012 77.9 2.246m-17.08.7224c26.45.2933 55.75-.2501 85-.989m-28.8-6.355c22.3-.7249 44.31-.009 67.2 1.257.6456 9.473 1.445 19.04 2.484 28.64m3.375-28.23c.5008 13.16.5727 25.71.4338 37.87-20.51-.8654-41.55-2.751-62.24-4.827m20.64 2.979c-16.44-.4481-33.03-.4957-49.23-.4953-14.04.00033-27.78.0367-40.88-.1202m47.01 2.803c-29.5-1.18-58.5-.6777-87.38-1.232m18.57 4.787c-23.59-.2186-47.83-1.066-71.58-2.863m12.54-.8865c-32.6.684-66.24.6544-101.3 1.851m26.31.1797c-28.19-.8955-55.22-.3065-82.24-.0785m29.54.0394c-16.24-.6179-32.74-.6521-49.44-.543-5.994.0392-9.629-.4293-11.8-.9182-1.08-.2434-1.785-.4898-2.224-.6755-.2192-.0928-.3716-.1704-.4704-.2248-.04942-.0272-.08545-.0486-.1098-.0632-.01215-.007-.02137-.0129-.02787-.0167-.0065-.004-.01026-.006-.01152-.006-.1768-.3182-.3138-1.071-.4234-1.936-.1095-.8634-.1926-1.846-.2592-2.618-.0989-1.215-.2378-2.426-.4014-3.642-.09807-2.818-.2016-5.638-.3102-8.462m7.84 24.7c-.8109-.2102-1.368-.417-1.732-.5777-.2145-.0945-.3635-.1736-.46-.2288-.04826-.0276-.08345-.0494-.1072-.0642-.01186-.007-.02086-.0131-.0272-.0169-.0063-.004-.01002-.006-.01125-.006-.1695-.3218-.29-1.08-.3793-1.956-.08963-.8778-.1474-1.866-.1939-2.655-.06687-1.235-.1714-2.469-.298-3.711-.04477-10.08-.0014-20.39.09939-30.94 13.54-.7976 27.19-2.006 40.87-3.592m-27.52.4973c25.12-.9168 52.42-.4322 79.5-.2668m-20.28.6579c24.79.2948 51.39.2105 77.55.2633m-11.23-6.436c24.85-.7418 50.38-.7898 75.77-1.4m-20.51 4.291c24.93-.1875 47.77.5585 69.93 1.961m-20.22-7.899c31.75-.6005 62.46-.4014 93.14-1.01m-20.47 3.666c25.99-.4675 53.54.2744 82.58 1.383.7202 6.508 1.526 13.04 2.416 19.58m-7.425-23.81c3.116.0869 6.23.1675 9.344.244-.0904 13.71-.1997 27.35-.3666 41.09-14.57.3861-29.21.8956-43.96 1.753m21.27-.8266c-22.79-1.057-43.94-1.06-64.68-1.378-10.15-.1556-20.2-.3868-30.29-.8541m35.74 13.91c-32.03-1.472-64.5-.5972-99.69-1.214m29.05-3.785c-32.63 1.424-64.67-2.291-95.44-7.025m26.01 1.439c-30.51.6808-60.57 1.141-91.34 3.037m27.25-5.928c-33.35.4399-64.67 1.697-97.32 5.02m27.17 1.621c-10.76.4434-21.76.5754-32.96.5378-6.039-.0203-9.806-.5822-11.99-1.112-1.102-.2674-1.824-.5314-2.272-.7281-.2244-.0984-.3805-.1801-.4819-.2371-.05066-.0285-.08763-.0509-.1126-.0662-.01247-.008-.02193-.0135-.02859-.0174-.0067-.004-.01052-.006-.0118-.006-.1848-.3266-.3394-1.099-.4702-1.985-.1303-.8832-.239-1.897-.3256-2.687-.1308-1.248-.3033-2.493-.5021-3.743-.3491-5.637-.751-11.29-1.204-16.95m.2004 20.09c.4267-9.339.6066-19.02.6459-28.98 18.08-.6983 35.66-2.38 53.45-4.643m-30.09 2.594c32.07-1.315 67.61.4448 103.8 1.381m-23.65 2.683c27.23.8859 57.22-1.194 88.28-4.329m-30.5-3.718c28.09.1501 56.99-.1458 87.99-.5502m-14.74-1.129c26.17.6991 54.07.9181 81.77 2.019m-27.41 1.496c27.5-1.192 55.54.2814 81.2 1.769m-23.72-.4794c16.56.2564 32.94.1367 49.52-.1854.4632 13.12 1.064 26.09 2.023 39.03-.4898-.0177-.9791-.0356-1.468-.0534m-.2866-31.13c-.0206 7.467.009 15.01.0864 22.6-18.77.1563-37.23.6986-55.45 1.456m27.2 13.67c-15.64-.2866-30.89-.4071-46.15-.5323-9.744-.0799-19.49-.1618-29.35-.2901m24.97-12.5c-26.86-.077-55.62-.3845-83.54-1.114m17.54 9.278c-28.6.5035-55.71.8689-82.58 2.164m16.05-6.422c-27.41 1.214-56.64.6259-85.86.82m26.44.7416c-27.74-1.368-57 .2929-84.43 1.852m21.19-5.719c-14.97.2968-30.62.3374-46.58.3103-6.014-.0102-9.711-.5311-11.88-1.044-1.089-.2568-1.801-.5126-2.244-.7042-.2213-.0958-.3753-.1755-.4751-.2313-.04993-.0279-.08634-.0498-.1109-.0648-.01228-.007-.0216-.0132-.02816-.0171-.0066-.004-.01037-.006-.01163-.006-.18-.3226-.3241-1.086-.4421-1.961-.1178-.8745-.2103-1.87-.2843-2.652-.1106-1.231-.2613-2.457-.4367-3.688-.3377-7.696-.711-15.39-1.077-23.05m-.7692 27.96c-.0585-.8178-.1345-1.637-.2227-2.459-.037-9.519-.1528-19.29-.352-29.19 16.06.0901 31.89-.1603 47.48-.1834m-20.39-2.518c29.09.5959 59.66 2.459 89.73 6.999m-20.66-4.421c32.73-.7969 62.95 2.357 94.2 7.35m-23.24-2.584c31.6-.8437 62.33-1.224 90.43-3.476m-25.06-.391c32.71.8867 65.26.7341 98.45 2.073m-32.68.0748c29.18-1.2 57.3-1.447 86.53-3.346m-21.4-3.567c13.13.462 26.11.7248 39.05.9942.0871 13.67.1353 27.34.2809 41.25-.0196.00078-.0392.002-.0587.002m1.29-16.63c-.2707 6.417-.5353 12.74-.8215 19-25.46.2828-51.25-.4717-79.06-.8391m22.89 1.024c-11.5.4693-23.07.4462-34.64.1024-18.45-.5482-36.91-1.912-55.11-3.393m-47.78-233.1c17.11 16.79 33.8 34.4 50.17 52.42m-16.76-13.62c17.95 17.82 35.4 35.05 53.06 52.16m-4.48-17.84c22.36 21.94 44.04 45.87 65.96 71.7m-20.56-18.83c17.89 18.34 34.31 34.16 50.48 49.37-6.901-.5281-13.82-1.102-20.74-1.681m15.2-4.18c1.459 1.374 2.914 2.745 4.366 4.114-26.16-.0718-52.91-.6454-77.86-1.703m20.32 11.05c-33.48 1.427-64.35-2.289-94.13-6.983m18.2-.6736c-25.05.4468-50.99-.6323-77.17-2.47m18.51 2.08c-32.86 1.25-64.09 1.187-94.22 3.416m33.03-6.698c-25.91.2548-52.05-.2616-78.07-1.107m9.757 12.98c-18.27-.9192-36.59-.9743-54.28-1.065 10.25-9.408 20.81-18.83 31.93-28.58m-19.72 6.6c16.24-17.75 32.35-34.07 47.23-50.19m-9.006 8.961c21.07-19.28 40.92-37.65 62.09-53.85m-18.22 23.14c20.69-22.06 40.67-43.95 60.11-69.02m-9.222 22.23c17.11-16.77 33.68-33.03 51.12-49.73 5.68 5.058 11.45 10.07 17.36 15m-19.92-20.22c24.09 22.39 49.23 47.69 77.83 73.38m-26.87-12.8c20.23 19.84 39.81 39.16 59.89 58.31m-11.19-22.5c16.21 17.71 32.99 33.82 49.14 49.45m-14.61-14.88c15.96 16.79 33.62 34.9 51.76 54.36-6.12.7385-12.2 1.578-18.28 2.52m5.913-1.707c1.273 1.144 2.542 2.295 3.808 3.453-29.48-.9899-59.99.2041-88.88.4397m32.35 2.992c-25.98.6036-50.45.222-75.14-.1271m13.96-1.318c-25.3.3393-48.09-.5368-70.16-2.111m11.11-.3884c-28.14 1.31-54.4-.3429-80.48-2.33m23.7 8.931c-24.99 1.185-49.2.5588-72.12.1632m12.39-11.14c-25.65 1.139-49.74 1.803-73.48 3.89 6.082-5.026 12.2-9.903 18.32-14.57m-16.63 11.46c-1.7-.0587-3.404-.1075-5.114-.147 18.16-18.48 35.28-34.95 52.06-50.88m-15.47 7.305c20.71-18.87 40.25-39.07 59.91-57.83m-3.877 22.5c21.79-21.46 42.2-42.03 64.44-64.16m-23.94 20.66c18.5-18.24 38.34-37.16 58.77-55.53 4.516 4.295 9.061 8.617 13.63 12.98m-7.106-10.34c20.68 22.75 43.52 43.47 66.46 65.3m-14.77-27.6c21.62 23.01 42.3 43.05 61.98 63.62m-22.06-9.163c22.85 22.47 45.46 47.28 66.09 71.57m-21.56-15.95c12.67 12.79 24.99 25.19 37.14 37.47-9.088-.1044-18.22-.241-27.38-.3774m20.97-.2564c-23.18.4584-45.78-.5273-67.34-2.269m17.32-7.263c-34.02.0645-68.04-.1091-104.9-.3458m25.75.8141c-28.4-1.142-57.22.3175-85.78 1.818m32.88 11.27c-25.33.7688-51.78-.315-78.31-1.83m22.76-7.936c-24.44-.7473-51-.3128-79.02.0361m11.91-3.59c-19.97.813-40.15.6053-60.85.2144 5.648-6.289 11.19-12.61 16.6-18.9m-4.156 16.99c20.53-21.65 39.85-41.39 57.93-61.73m-22.9 25.76c19.25-19.72 39.91-39.72 61.09-60.07m-12.35 6.058c20.67-19.34 39.1-39.19 56.59-57.92m-8.524 20.17c16.03-15.39 31.13-32.87 44.91-51.13 3.07 3.192 6.074 6.345 9.008 9.473m-3.428-9.448c19.22 19.01 39.25 38.11 58.8 55.57m-13.29-3.78c21.68 19.92 41.65 40.66 60.94 58.98m-20.76-11.73c22.36 20.42 44.51 41.31 68.54 59.92m-17.28-21.05c14.36 15.28 29.86 30.49 45.73 45.98-10.73.2621-21.35.603-31.98 1.074m21.48-1.324c-25.13.4763-49.08.2572-72.23.1525m24 6.41c-34.56-.9331-66.66-1.605-100.4-4.799m23.15-.4349c-29.12.0464-60.02-.0376-91.22-.1248m20.29 7.898c-25.66-.2058-51.9-.3346-77.46-.781m20.96-14.61c-30.22.0251-62.16 1.277-91.58 3.799m28.28 7.841c-15.16-.4055-30.69-.4453-46.37-.3822 10.81-10.92 21.47-21.73 32.2-32.71m-18.76 17.04c23.55-22.21 48.91-48.07 76.83-74.42m-21.34 26.47c21.62-21.78 41.03-42.97 61.11-66.8m-20.35 23.45c23.37-21.6 45.23-45.74 68.21-70.31m-19.45 11.82c10.35-10.57 19.98-20.18 29.14-29.19 9.214 10.81 17.95 22.23 26.46 33.88m-18.39-23.07c22.19 21.7 44.19 46.49 64.22 71.18m-29.51-25.3c20.76 20.66 41.59 41.53 62.03 61.96m-8.641-19.82c21.3 20.7 41.4 41.68 60.14 61.31m-17.03-16.6c14.62 14.78 29.28 29.67 43.5 44.37-11.94-.1747-24.01-.4035-36.29-.7316m36.41 3.816c-27.35-.7785-53.05-1.31-78.56-3.057m18.02.6349c-26.18-.5434-51.9.3608-77.03 1.679m14.52-.8979c-28.53-1.32-57.14.5462-87.54 2.858m26.98-9.498c-32.57-.6892-63.83 2.414-93.42 7.298m25.43-5.11c-23.6 1.103-48.34.3505-73.02-.4901m17.26 7.325c-20.16-.9608-40.24-.5838-61.02.1559 7.347-7.742 14.44-15.35 21.12-23.04m-24.98 15.46c22.61-22.47 46.95-46.21 72.43-70.23m-9.316 19.46c20.88-21.73 39.45-40.42 56-58.36m-20.14 9.11c19.88-21.84 43.11-43.41 65.99-65.85m-19.33 25.17c13.07-13.67 26.17-26.78 39.29-39.86 6.67 6.647 13.34 13.3 20.02 19.88m-255.6 248.2c2.171-5.895 8.105-11.86 18.39-16.19-.0065 2.211-.0044 4.412.0052 6.604.02339 5.37 4.583 9.662 10.21 9.378 8.96-.452 17.99-1.038 27.01-1.734m-17.5-2.89c25.12-.3582 52.97-.7111 81.54-1.716.2785.358.752.7344.9816 1.089.0148.0104.0178.0169.0287.039.8421 1.278 1.326 2.515 1.44 3.672.11 1.121-.1533 2.309-.583 3.499-.1865.4968-.4964 1.001-.7755 1.491-.3543.6577-.764 1.309-1.265 1.957-.4188.5359-.879 1.062-1.388 1.587m-5.184-6.813c3.707-.0647 7.373-.1468 11-.2485.2421.3624.6679.7444.8617 1.103.0119.0107.0121.0176.0201.04.7114 1.291 1.076 2.542 1.074 3.708-.002 1.132-.3913 2.325-.966 3.526-.2477.5022-.6246 1.007-.9724 1.502-.4433.662-.9478 1.319-1.552 1.971-.6206.6629-1.311 1.312-2.086 1.959-.5152.4298-1.113.8542-1.706 1.272-1.062.7576-2.126 1.514-3.408 2.218-.0245.0151-.049.0302-.0734.0453-9.199 5.094-24.34 8.998-44.34 7.871m8.868-5.325c-7.697 1.638-16.42 2.753-26.06 3.137-18.59.7399-33.25-1.527-43.4-5.248-5.062-1.855-8.962-4.06-11.59-6.39-2.154-1.907-3.451-3.892-3.813-5.788m16.92 16.7c-1.184-.5234-2.32-1.061-3.406-1.61-5.002-2.531-8.924-5.305-11.6-8.109-2.671-2.801-4.078-5.615-4.062-8.178.04624-7.409 6.383-16.01 19.95-20.59-.02229 2.392-.04547 4.79-.06823 7.196-.03563 3.765 1.767 7.09 4.508 9.109m-20.76-5.571c2.176-5.976 8.16-12 18.24-15.72-.07823 2.347-.1607 4.702-.2483 7.066-.215 5.806 4.077 10.53 9.341 10.89 12.39.8286 24.56 1.981 36.33 3.513m-17.39-5.326c24.07-.3101 47.62-.5339 70.64-1.138.2025.3362.557.6896.7464 1.026m-8.657 6.675c5.164.1065 10.26.1604 15.29.1687.245.3758.6747.7746.8715 1.146.0121.0117.0126.0195.0208.043.7222 1.335 1.097 2.625 1.105 3.826.008 1.166-.3692 2.396-.9295 3.637-.2415.5184-.6119 1.042-.9525 1.555-.4342.6859-.9286 1.367-1.522 2.045-.6092.69-1.287 1.367-2.048 2.044-.5056.4497-1.093.8965-1.675 1.336-1.043.7977-2.085 1.593-3.343 2.343-.0239.0162-.0478.0323-.0717.0485-10.39 6.248-27.95 10.9-51.29 9.683-2.47-.1292-4.878-.3175-7.218-.5589m26.31 2.765c-6.389 1.122-13.39 1.824-20.94 1.973-18.42.3636-32.92-2.69-42.78-7.062-4.933-2.188-8.712-4.71-11.23-7.304-.5479-.5647-1.036-1.133-1.462-1.701m8.246 8.987c-1.166-.479-2.283-.9785-3.349-1.495-4.945-2.396-8.788-5.159-11.37-7.971-2.579-2.811-3.901-5.677-3.801-8.283.2889-7.555 6.972-16.41 21.46-21.81.124 2.265.2556 4.529.396 6.795.2828 4.56 3.59 8.401 8.083 9.642m-24.74-3.298c1.234-6.587 7.581-13.74 20.04-17.93.07295 2.36.158 4.723.2546 7.091.2371 5.812 4.999 10.53 10.9 10.85 7.515.4107 15.13.8946 22.83 1.49m-18.9 1.389c28.04-1.169 53.66-1.607 79.41-3.598m-17.85.2775c7.675-.3558 15.13-.6097 22.42-.8131.2346.3627.651.7457.8377 1.106.0113.0108.011.0177.0184.0403.6857 1.295 1.028 2.556 1.004 3.733-.0228 1.144-.4339 2.35-1.033 3.573-.2579.5108-.6464 1.026-1.005 1.532-.4581.6767-.9777 1.35-1.599 2.021-.6375.6828-1.345 1.354-2.139 2.027-.5273.4468-1.139.8913-1.745 1.329-1.087.7954-2.173 1.59-3.482 2.344-.0251.0162-.0502.0325-.0753.0487-6.85 3.973-16.86 7.484-29.56 9.18m14.02-2.459c-9.48 3.56-22.31 6.004-38.12 5.945-14.36-.0536-26.86-2.147-36.85-5.347m28.57 9.22c-10.12-1.559-18.77-4.338-25.6-7.666-5.401-2.634-9.656-5.612-12.59-8.608-2.94-3.001-4.546-6.008-4.711-8.753-.4351-7.248 4.213-15.51 14.19-21.88m-19.29 15.49c1.051-6.832 7.474-14.36 20.02-19.09-.000653 2.302-.0026 4.6-.0057 6.896-.0076 5.632 4.48 10.17 10.01 10.24 15.17.1926 30.31.4212 45.48 1.073m-30.3-2.358c23.46.0466 46.62.5969 68.97 1.708.2115.3958.5989.8209.7646 1.212.01.0133.008.0227.0134.0477.6097 1.407.8898 2.766.8107 4.033-.0769 1.232-.5438 2.533-1.202 3.861-.2825.5545-.6981 1.119-1.083 1.673-.492.7396-1.046 1.478-1.703 2.22-.6741.755-1.419 1.501-2.251 2.256-.5525.5004-1.192 1.005-1.825 1.501-.2538.2016-.5074.4032-.7633.6043m.9108-16.46c1.734.0585 3.465.1065 5.192.1445.2398.3848.6633.7948.8557 1.174.0118.0124.0119.0208.0198.0448.7064 1.364 1.07 2.674 1.069 3.893-.001 1.184-.387 2.43-.9551 3.687-.2447.5249-.6185 1.056-.962 1.574-.438.6937-.9359 1.382-1.532 2.067-.6123.6966-1.293 1.379-2.056 2.062-.5072.4529-1.096.9022-1.679 1.344-1.044.8009-2.088 1.598-3.346 2.346-.0239.0161-.0478.0323-.0717.0484-10.41 6.248-27.82 10.67-51.39 8.67-7.141-.6072-13.83-1.713-19.96-3.158m37.99-.1067c-3.298.0936-6.776.1025-10.43.0139-19.16-.465-35.04-3.428-46.8-7.96-5.793-2.234-10.39-4.785-13.63-7.427-.7121-.5796-1.358-1.163-1.935-1.746m11.92 14.28c-4.605-2.331-8.192-4.927-10.66-7.555-2.646-2.818-4.008-5.678-3.942-8.277.1931-7.532 6.799-16.33 21.16-21.51.1025 2.297.2111 4.596.3262 6.898.2825 5.646 5.056 10.22 10.96 10.33 4.579.0896 9.187.1878 13.83.2952m-42.3-.0888c1.523-6.365 7.697-13.08 19.31-17.17.02623 2.344.06275 4.691.1085 7.041.1124 5.769 4.757 10.45 10.5 10.71 12.12.565 24.43 1.294 36.78 2.328m-15.33-4.189c25.93-.9682 49.66-.9035 72.66-1.439.0696.1259.1599.2545.2546.3835m-23.86-3.632c5.668.1844 11.28.3366 16.85.472.2396.3858.6626.7979.8547 1.179.0118.0125.0118.0211.0197.0453.7052 1.372 1.067 2.695 1.065 3.929-.003 1.198-.3898 2.465-.9598 3.749-.2453.5361-.6203 1.081-.9645 1.614-.4392.7129-.9381 1.423-1.536 2.133-.6137.7228-1.295 1.435-2.061 2.152-.5076.4754-1.098.9518-1.682 1.42-1.048.852-2.09 1.7-3.351 2.516-.0239.0176-.0479.0353-.0719.0529-7.798 5.086-19.47 9.484-34.7 11.86m22.05-3.92c-8.746 2.796-19.44 4.583-31.77 4.611-15.45.0351-28.21-2.684-37.57-6.554m16.21 8.803c-8.134-1.218-15.16-3.373-20.85-5.955-5.382-2.445-9.606-5.293-12.5-8.176-2.9-2.89-4.471-5.817-4.601-8.488-.3467-7.107 4.533-15.29 14.97-21.15m111.3 31.83c1.606-2.317 2.895-4.727 3.833-7.226.0198-.0515.0395-.0951.0593-.1347.5502-1.493.9646-3.009 1.267-4.562.0314-.1423.0822-.2767.1097-.419.2742-1.656.4437-3.33.438-5.034-.006-1.712-.1748-3.396-.4915-5.067 21.64-.1947 42.76-.2426 63.71-.5961m-10.6 2.796c15.99.006 31.36.5239 46.29 1.551.1842.3368.511.7084.6528 1.044.0516.1301.0955.26.1471.386.5495 1.372.8514 2.698.7838 3.966-.0666 1.249-.5231 2.576-1.17 3.931-.2061.4242-.4562.8418-.7148 1.26-.5631.9513-1.298 1.928-2.129 2.896-.6962.7954-1.391 1.526-2.125 2.207-4.283 4.096-10.76 8.253-19.29 11.99m15.72-10.92c-.1975.1881-.3976.371-.6018.5489-4.195 3.792-10.94 7.437-19.76 10.11-8.769 2.654-19.76 4.381-32.03 4.086-10.15-.2474-19.69-1.99-27.76-5.054m22.57 5.48c-10.87-1.112-21.57-3.312-30.79-6.531 2.137-2.915 3.748-5.985 4.756-9.204.0164-.0509.0332-.094.0502-.1332.4516-1.476.7663-2.975.9648-4.511.0218-.1407.0634-.2736.0812-.4142.1639-1.637.2201-3.294.0962-4.979-.1245-1.694-.4135-3.359-.8541-5.013 12.88.0229 25.35.0636 37.49-.2198m-41.62 16.96c.1363-.3462.266-.6942.3892-1.044.0185-.0513.0372-.0948.0559-.1343.5141-1.489.8976-2.999 1.173-4.547.0289-.1418.0775-.2757.1026-.4174.2472-1.65.3948-3.317.372-5.014-.0229-1.705-.2038-3.38-.5279-5.042 20.63-.0695 41.5.1263 62.15.3042m-24.32.3187c15.66.6628 31.27.665 47.22.4137.2261.3063.6075.6379.7898.9442.0671.1187.1261.2375.193.3523.7159 1.253 1.169 2.46 1.249 3.621.0786 1.139-.2173 2.349-.6805 3.563-.1486.3807-.3392.7539-.5366 1.126-.4257.8475-1.007 1.709-1.671 2.551-.5584.6916-1.118 1.321-1.716 1.9-3.917 3.933-10.17 7.607-18.26 10.28-1.939.6406-3.977 1.222-6.105 1.735m18.73-5.973c-4.139 3.009-9.605 5.798-16.26 8.003-9.08 3.009-20.29 4.904-33.26 4.854-9.818-.0407-19.32-1.311-27.64-3.536m16.61-2.056c-10.02-.5975-19.7-2.273-27.91-4.833 2.315-2.726 4.118-5.604 5.338-8.625.0198-.0478.0395-.0881.0592-.1248.5491-1.385.9644-2.791 1.27-4.23.0317-.1318.0829-.2559.1106-.3876.2783-1.534.4544-3.082.4584-4.654.004-1.579-.1526-3.127-.4537-4.656 14.88 1.118 29.75 2.684 44.83 4.808m-51.06 9.386c2.152-2.628 3.845-5.414 5.016-8.345.0199-.0486.0397-.0896.0595-.1269.5524-1.409.9727-2.841 1.285-4.31.0323-.1346.0841-.2614.1125-.396.2856-1.567.4706-3.151.4852-4.763.0147-1.62-.1299-3.211-.4177-4.787 20.07.9432 40.3 2.258 60.76 4.767m-15.04-.288c17.74.5179 34.15.3967 49.82.0389.1739.3046.4874.6343.6192.9392.0478.1182.0879.2364.1359.3507.5087 1.244.7737 2.453.6703 3.607-.1021 1.139-.597 2.338-1.288 3.551-.22.3801-.4839.7509-.7572 1.123-.5962.8458-1.367 1.702-2.236 2.543-.7279.6889-1.454 1.317-2.219 1.894-5.025 3.914-12.88 7.589-23.38 10.23-.1966.0494-.3942.0985-.5926.1471m26.73-6.69c-.276.2551-.5557.5007-.8423.7375-4.44 3.802-11.49 7.45-20.69 10.05-9.16 2.587-20.64 4.181-33.75 3.633-11.63-.4893-22.78-2.757-32.37-6.534m23.32 7.826c-11.2-1.031-21.6-3.065-30.31-6.035 2.254-2.848 4.018-5.84 5.213-8.981.0193-.0496.0387-.0916.0581-.1298.5373-1.44.9434-2.9 1.241-4.396.031-.137.0815-.2663.1086-.4032.2705-1.595.4407-3.205.4398-4.843-.00096-1.646-.1613-3.262-.466-4.863 7.28.2378 14.56.5241 21.81.8214m-33.24 21.86c1.78-2.665 3.194-5.451 4.183-8.361.0183-.0526.0368-.0971.0554-.1376.5082-1.524.8886-3.071 1.164-4.659.0289-.1454.0774-.283.1025-.4284.2473-1.692.3979-3.405.381-5.151-.017-1.754-.1891-3.481-.5018-5.199 23.24-.8506 47.3-2.02 70.94-4.639m-21.79 4.527c15.12.3928 30.56.504 46.23.578.2137.3143.5791.6564.7495.9706.0625.1217.1172.2434.1796.3612.6673 1.285 1.077 2.523 1.115 3.713.0373 1.168-.3041 2.41-.8191 3.662-.1648.3924-.3722.7775-.5867 1.162-.4644.8755-1.089 1.768-1.799 2.644-.5972.7196-1.195 1.376-1.832 1.983-4.166 4.109-10.81 8.065-19.56 11.1-.5852.203-1.18.4019-1.784.5964m12.55-10.27c-4.639 3.343-11.2 6.474-19.25 8.758-9.197 2.608-20.48 4.148-33.17 3.5-8.606-.442-16.88-1.936-24.41-4.338m28.59 4.074c-11.36-.2392-22.31-2.416-31.61-5.984 2.205-3.014 3.898-6.227 5.001-9.619.0179-.0537.036-.0992.0542-.1405.4954-1.556.8561-3.141 1.104-4.77.0264-.1493.0724-.2907.0949-.44.217-1.737.3296-3.501.2662-5.303-.0637-1.81-.2896-3.598-.6637-5.379 11.28-.877 22.4-2.02 33.38-3.311m-42.67 24.91c.24-.5223.4645-1.049.6732-1.579.021-.0523.0418-.0965.0625-.1367.5846-1.515 1.029-3.054 1.358-4.632.0339-.1446.0871-.2813.1169-.4259.3021-1.682.4954-3.385.5099-5.121.0145-1.743-.1386-3.461-.4428-5.167 18.62-.558 36.41-1.281 53.88-2.645m-15.59 4.372c16.57.0573 32.89-.0972 49.11-.4278.2008.305.5492.635.7071.9402.0577.1183.1076.2366.1654.3511.6154 1.247.9777 2.454.969 3.611-.009 1.138-.4008 2.342-.9742 3.556-.1831.3803-.4092.7521-.6433 1.124-.5082.8464-1.181 1.705-1.945 2.546-.6407.6898-1.281 1.318-1.961 1.895-4.445 3.908-11.51 7.597-20.84 10.15-1.349.3697-2.745.7156-4.187 1.035m30.78-18.1c-4.605 3.578-11.35 7.044-19.95 9.93-9.448 3.17-21.15 5.645-34.84 6.814-5.704.4853-11.36.6738-16.82.5739m19.41-.3633c-12.93-.0693-25.88-2.089-36.57-5.643 2.236-2.823 3.956-5.811 5.086-8.95.0183-.0497.0368-.0916.0554-.1298.5079-1.44.8813-2.903 1.143-4.402.0276-.1374.0748-.267.0985-.4043.2312-1.598.3586-3.216.3113-4.861-.0475-1.653-.2565-3.277-.612-4.888 7.229.2023 14.43.4394 21.62.7097m81.22 14.68c.022-.0437.0439-.0874.0657-.1312.2514-.497.4631-1.005.6814-1.496.3857-.8755.7692-1.752 1.073-2.641.2642-.7714.4488-1.553.6437-2.333.1721-.6629.3706-1.328.4982-2.008.2706-1.513.4462-3.011.4775-4.532.0355-1.724-.0952-3.418-.3826-5.108 27.27-.3606 53.26.9904 80.09 1.603m-23.79 9.245c15.54-.329 31.48-.7739 47.59-1.554.3284.4821.7792.9792 1.017 1.444.0445.096.1048.1916.1452.2764.49 1.052.7757 2.061.7914 3.018.0191 1.16-.3389 2.373-.9199 3.594-.1915.3874-.465.7203-.6992 1.084-.4944.7924-1.089 1.596-1.83 2.387-.4178.4399-.8283.88-1.27 1.262-1.114 1.013-2.368 2.003-3.858 2.949-.1664.1151-.3327.2301-.499.345-4.875 2.966-11.65 5.503-20.02 6.882-.706.1163-1.424.2244-2.153.3239m20.19-10.24c-.3126.2296-.636.458-.9714.6849-.1674.1229-.3347.2458-.502.3687-4.905 3.192-11.71 6.08-20.09 8.042-8.356 1.956-18.39 3.012-29.58 2.412-12.72-.6846-24.61-3.549-34.31-8.132m17.89 3.336c-12.93-.8646-24.39-4.076-32.91-8.84.0968-.1456.1617-.2908.2506-.4364.6379-1.008 1.242-2.016 1.774-3.059.2548-.4907.4711-.994.6949-1.481.3956-.8694.7926-1.743 1.113-2.635.2786-.7728.48-1.559.6942-2.345.1886-.6691.4054-1.342.5533-2.032.3158-1.536.5442-3.064.6378-4.627.1061-1.771.0557-3.521-.1396-5.282 4.8-.2447 9.638-.519 14.51-.8176m-18.85 29.64c.3262-.5483.6351-1.103.9186-1.67.2309-.4531.4231-.9194.6233-1.371.3534-.8058.7074-1.618.9842-2.449.2412-.721.4048-1.456.5807-2.193.1558-.6264.3394-1.258.4532-1.906.2402-1.443.3925-2.885.4066-4.361.016-1.674-.1257-3.333-.4165-5.004 21.06-.0412 42.54-1.333 64.45-2.854m-28.2 4.855c19.55.8531 38.51.7135 57.4.4037.317.5019.7547 1.022.9821 1.505.0424.0997.1003.1993.1388.2875.4659 1.093.7293 2.14.7235 3.134-.007 1.205-.3934 2.467-1.007 3.745-.2018.4058-.4856.7569-.7303 1.139-.5172.8335-1.136 1.682-1.904 2.524-.4329.4687-.8582.9379-1.314 1.349-1.152 1.089-2.445 2.16-3.979 3.206-.1714.1266-.3427.2531-.514.3797-4.514 2.964-10.52 5.668-17.85 7.805m24.32-24.86c-.3134.4204-.658.8427-1.04 1.264-.4308.4699-.8541.9413-1.308 1.355-1.148 1.097-2.433 2.182-3.962 3.252-.1707.1293-.3414.2586-.512.3881-5.006 3.382-11.91 6.563-20.43 9.096-8.519 2.531-18.69 4.421-30.19 5.19-4.716.3146-9.355.3992-13.84.2626m20.49-3.347c-1.205.001-2.423-.009-3.652-.0335-17.78-.3509-33.82-3.623-45.12-9.249.093-.1388.1544-.2777.2395-.4165.6116-.96 1.188-1.919 1.692-2.909.2413-.466.4439-.9442.654-1.406.3712-.8246.7427-1.652 1.037-2.496.2559-.7315.434-1.475.624-2.218.1679-.6318.3634-1.266.489-1.917.2664-1.448.4434-2.887.481-4.354.0426-1.663-.0746-3.302-.3431-4.944 2.007.0293 4.014.0587 6.021.0878m-8.385 19.19c.2444-.6928.4147-1.398.5955-2.103.1631-.6114.3531-1.226.4724-1.857.2525-1.403.4125-2.802.43-4.227.0199-1.616-.1235-3.212-.4215-4.81 23.91.969 47.3 1.777 70.81 4.063m-17.03-9.929c15.93.0517 32.51.4926 49.31 1.355.3316.5433.7862 1.111 1.027 1.633.0451.1075.106.2154.1471.3106.4968 1.18.7887 2.307.8104 3.377.0263 1.297-.3237 2.661-.8957 4.055-.1886.4426-.4593.8304-.6906 1.25-.4884.915-1.076 1.85-1.809 2.791-.4142.5241-.8195 1.047-1.257 1.512-1.105 1.228-2.346 2.449-3.825 3.667-.165.1462-.3299.2924-.4949.4388-.8395.6682-1.735 1.333-2.685 1.991m3.811-8.839c-.1354.3232-.2884.6483-.4561.975-.2151.4048-.5116.7555-.7689 1.138-.5445.8336-1.191 1.684-1.986 2.532-.4483.4717-.8886.9451-1.358 1.36-1.189 1.101-2.514 2.189-4.083 3.262-.1752.1296-.3504.2592-.5255.389-5.128 3.387-12.15 6.57-20.75 9.062-8.594 2.49-18.82 4.307-30.43 4.921-9.516.5017-18.76.046-27.17-1.286m31.01.6687c-17.37-.339-33.67-4.295-45.59-10.71.0824-.1503.1343-.2998.2091-.45.5388-1.039 1.042-2.081 1.47-3.154.2058-.5061.3719-1.023.5465-1.525.3073-.894.614-1.795.8415-2.711.1987-.7958.3186-1.602.4496-2.411.1173-.6865.2612-1.381.3337-2.089.1488-1.577.2059-3.151.1176-4.756-.1002-1.821-.3635-3.622-.7859-5.435 1.386-.1269 2.768-.2582 4.147-.394m-6.25 24.79c.0346-.0918.0682-.1838.1009-.276.2506-.7043.424-1.425.6098-2.147.1644-.6141.3566-1.233.4795-1.87.2604-1.418.4335-2.838.47-4.295.0414-1.652-.0737-3.293-.3356-4.951 24.09.1478 49.06-2.027 75.45-4.812m-25.81-5.144c16.68.0785 33.45.6065 50.28 1.636.3248.5489.7714 1.123 1.006 1.65.0438.1086.1033.2176.1432.3138.4821 1.191.7603 2.329.7687 3.41.0102 1.309-.3576 2.687-.9503 4.097-.1951.4476-.4723.8404-.7103 1.265-.5029.9261-1.106 1.873-1.857 2.828-.4239.5316-.8389 1.062-1.286 1.535-1.13 1.248-2.396 2.489-3.905 3.731-.1683.149-.3366.298-.5049.4471-2.826 2.252-6.267 4.472-10.28 6.579m19.6-14c-.2807.4023-.5865.8055-.9216 1.208-.4234.5018-.8383 1.002-1.285 1.442-1.127 1.165-2.393 2.311-3.895 3.43-.1678.1349-.3355.2697-.5032.4044-4.928 3.533-11.7 6.719-20.05 8.933-8.357 2.218-18.21 3.442-29.31 3.138-6.009-.1658-11.85-.802-17.35-1.831m20.06 3.88c-.3922-.0102-.7856-.0218-1.18-.0348-18.01-.5961-34.19-4.255-45.71-10.37.0905-.1449.1496-.2893.2323-.4341.5943-1.002 1.154-2.004 1.64-3.037.2332-.4867.4273-.9851.6293-1.468.3565-.8607.7134-1.726.9923-2.607.243-.7644.408-1.541.5848-2.318.1566-.6602.3406-1.325.4543-2.006.2402-1.515.3906-3.022.4003-4.561.011-1.744-.1387-3.467-.4414-5.198 2.025-.0748 4.049-.1544 6.071-.2394m-3.728 19.41c.1068-.3688.2041-.7398.3038-1.111.1726-.6183.3707-1.24.4971-1.879.2681-1.421.4377-2.841.459-4.29.0241-1.643-.1226-3.27-.4314-4.904 26.39.524 50.34-.1579 73.52-.2627m-31.31-5.012c15.39-.4884 30.96-.9335 46.93-1.636.3565.4836.8396.9825 1.104 1.449.0498.0963.1157.1922.1609.2773.5487 1.056.8874 2.066.9547 3.028.0814 1.163-.2085 2.382-.7108 3.607-.1664.389-.415.7234-.6236 1.088-.4391.7961-.973 1.603-1.646 2.398-.3799.4424-.7514.8844-1.155 1.269-1.017 1.019-2.162 2.014-3.527 2.967-.1519.1159-.3037.2316-.4554.3474-3.562 2.385-8.22 4.495-13.75 5.958m20.73-5.427c-.7881.6782-1.649 1.349-2.61 2.011-.168.1255-.336.251-.5041.3766-4.93 3.27-11.81 6.289-20.42 8.535-8.597 2.242-18.99 3.728-30.86 3.861-4.723.0519-9.386-.1342-13.91-.5463m14.69.5908c-.467.0188-.9362.0347-1.408.0477-17.27.4732-33.37-3.345-44.71-9.655.0923-.1477.1531-.2948.2375-.4425.6066-1.022 1.178-2.045 1.677-3.101.2388-.4972.4386-1.006.6462-1.5.3664-.8797.7333-1.765 1.022-2.666.2517-.7818.4254-1.576.6112-2.371.1642-.6757.3561-1.356.4779-2.053.2582-1.55.427-3.094.4567-4.67.0337-1.786-.092-3.551-.3681-5.325 7.31-.4459 14.64-.9456 21.99-1.469m132.2 39.1c-15.66-.88-30.28-4.182-40.74-9.263.2227-.3146.3421-.6193.5449-.9257.7416-1.144 1.449-2.296 2.055-3.484.324-.6289.5685-1.237.8415-1.858.3967-.9028.7821-1.806 1.086-2.717.281-.8295.4823-1.618.6844-2.416.1745-.6833.361-1.366.5018-2.075.2798-1.576.473-3.085.529-4.444.0731-1.774-.0112-3.539-.2361-5.289 11.31-.6024 22.76-1.376 34.46-2.422m-38.46-3.848c29.09.3027 59.73 1.156 92.8 3.205m-14.07-7.619c7.625-.3365 15.32-.4137 23.04-.2872 3.6 2.013 6.138 4.085 7.761 5.918 1.626 1.837 2.348 3.448 2.335 4.59-.0104.9255-.3792 1.951-1.092 3.048-.7127 1.097-1.769 2.267-3.153 3.478-2.766 2.421-6.85 5.015-12.12 7.525-6.242 2.975-14.23 5.867-23.68 8.16m16.69-3.831c-10.03 4.093-23.59 6.959-39.97 6.586.001-.00073.003-.001.004-.002-9.998-.2286-19.58-1.691-27.86-3.992m27.23 6.969c-17.62-.8332-34.18-4.498-46.14-10.28.2011-.3243.3021-.6371.4839-.9529.6635-1.178 1.292-2.367 1.817-3.591.2812-.6484.4852-1.274.7157-1.914.3348-.9301.6577-1.862.8982-2.802.2236-.8556.3704-1.669.5164-2.492.1262-.7044.2639-1.411.3536-2.142.1666-1.627.248-3.187.2003-4.593-.0623-1.835-.2869-3.664-.6593-5.481 1.912-.19 3.819-.3899 5.722-.6007m-11.94 8.584c.1417-.5625.2879-1.127.396-1.71.233-1.439.3779-2.815.3878-4.054.013-1.617-.136-3.223-.4309-4.81 28.42 1.165 56.41 2.236 84.58 5.895m-22.21.3141c10.87.2259 22.22.1635 33.95-.1106 3.897 1.848 6.681 3.698 8.521 5.367 1.838 1.668 2.707 3.133 2.8 4.187.0743.8486-.1981 1.786-.7839 2.765-.5863.979-1.488 2.001-2.68 3.026-2.384 2.049-5.928 4.105-10.45 5.85-6.14 2.372-14.04 4.156-23.29 4.604m16.99-14.23c-.1515.0599-.304.1196-.4575.1792-10.37 4.025-25.41 7.352-43.94 8.032.00027.001.00053.002.00079.004-17.31.636-33.74-1.342-45.15-5.407.2171-.2744.3317-.5453.5291-.813.3724-.5161.7353-1.034 1.08-1.558m38.15 11.87c-16.58-1.005-31.84-3.449-42.54-7.469.219-.2802.3352-.5556.5345-.8284.7287-1.019 1.423-2.041 2.017-3.097.3174-.5584.556-1.1.8227-1.65.3878-.8008.764-1.599 1.059-2.406.2729-.7338.4666-1.432.6609-2.135.1678-.6029.3475-1.204.4813-1.827.2642-1.387.4418-2.708.4831-3.894.054-1.548-.0505-3.08-.2975-4.587 7.959.6808 15.96 1.459 23.98 2.281m-28.31 1.809c-.0787-.4238-.1663-.8464-.2625-1.268 25.97.3281 55.55.3385 86.32.7063m-17.88-.2535c9.945.2247 19.83.2652 29.65.1809 3.624 1.913 6.153 3.827 7.778 5.539 1.623 1.71 2.339 3.216 2.323 4.288-.0137.8677-.3866 1.825-1.106 2.831-.7191 1.006-1.784 2.061-3.18 3.126-2.793 2.13-6.907 4.297-12.23 6.196-5.977 2.132-13.45 3.917-22.3 4.961m25.89-4.321c-.3059.1268-.6154.253-.9285.3784-10.85 4.347-25.76 7.771-43.01 8.17.003.00071.005.001.008.002-14.17.3279-27.13-1.568-36.65-5.002m41.15-3.106c-17.84.0387-34.61-2.408-46.18-6.675.2104-.281.3194-.5573.5103-.831.6977-1.023 1.36-2.05 1.922-3.112.3002-.5616.5225-1.106.7721-1.66.3628-.8058.7137-1.61.9829-2.422.2496-.7392.4211-1.442.5926-2.151.1481-.6073.3079-1.213.4208-1.842.2179-1.398.3497-2.731.3485-3.927-.002-1.562-.1638-3.107-.4714-4.628 9.15.7377 18.27 1.622 27.32 2.658m-34.48 6.53c-.0426-.3115-.0907-.6224-.1442-.9328 25.33.7305 50.69.7422 76.75 1.309m-17.22-5.324c11.54-.4469 22.58-.7024 33.3-.914 3.55 1.865 6.004 3.777 7.555 5.48 1.552 1.704 2.216 3.215 2.161 4.287-.044.8691-.4519 1.827-1.218 2.837-.7656 1.009-1.888 2.069-3.356 3.141-2.933 2.142-7.258 4.338-12.85 6.257-6.463 2.216-14.7 4.083-24.36 4.987m21.79 1.581c-.6573.2842-1.339.564-2.045.8385-9.81 3.817-24.63 6.722-42.96 5.744.00056-.002.001-.003.002-.005-13.07-.6987-25.46-3.349-35.57-7.431m37.38.255c-17.5.5803-33.26-2.398-44.24-7.246.2159-.3032.3295-.5983.5259-.8938.7177-1.103 1.402-2.215 1.986-3.363.3121-.6077.5456-1.196.8071-1.796.3801-.8726.749-1.745 1.036-2.627.2661-.802.4534-1.565.6412-2.335.1621-.6602.3362-1.32.464-2.004.2509-1.522.4153-2.977.4442-4.287.0377-1.709-.0842-3.406-.3501-5.083 9.857-.1196 19.72-.2274 29.48-.207m-31.34 5.676c30.6.7595 61.83-.4803 95.27-1.868 1.084.4582 2.088.9203 3.016 1.382m-31.88-10.57c7.365.0506 14.82.2292 22.32.5433 3.61 2.118 6.156 4.253 7.791 6.137 1.637 1.886 2.367 3.527 2.36 4.689-.006.9419-.3689 1.986-1.074 3.106s-1.752 2.316-3.124 3.559c-2.745 2.487-6.786 5.156-12 7.784-6.975 3.514-16.01 6.934-26.94 9.815m25.56-8.513c-10.44 2.781-24.28 4.903-40.13 4.897 2e-5-1e-5 3e-5-2e-5 4e-5-4e-5-16.78-.005-32.42-2.553-44.03-7.219m-35.42-197 116.2 116.2m55.11 54.95-78.9-30.23m-231.4-279.9 118.2 118.2m-132.6 236-79.12-24.09m-91.97-44.9 111.8-111.8" style="fill:#ce5bc6"/>
   <path d="m405.5 337.8c-1.044 4.548-5.095 7.952-9.955 8.015-5.632.0724-10.22-4.365-10.36-9.834-.1401-5.472 4.211-9.9 9.556-9.813 5.343.087 9.643 4.662 9.375 10.32-.002.00067-.003.001-.005.002-.244 5.151-4.208 9.43-9.36 10.26m3.858-5.314c-1.535 3.208-4.698 5.378-8.364 5.408-5.359.0435-9.737-4.496-9.633-10.14.104-5.667 4.657-10.31 10.26-10.56 5.606-.2459 10.14 3.982 10.19 9.181l.00099-.006c.055 5.185-4.383 9.346-9.841 8.909-5.254-.4203-9.532-4.99-9.683-10.72m20.02-.7145c-1.76 3.176-5.039 5.35-8.776 5.478-5.51.1887-9.937-4.151-9.792-9.499.1457-5.35 4.819-9.67 10.61-9.438 5.808.2325 10.56 4.945 10.91 10.79.002.002.004.004.006.005.358 5.848-3.787 10.62-8.888 11.02-1.361.1059-2.65-.1103-3.797-.5791m9.175 4.192c-1.842 2.176-4.56 3.577-7.602 3.657-5.578.1466-10.12-4.201-10.21-9.54-.0878-5.335 4.308-9.628 9.71-9.342 5.4.2858 9.75 5.061 9.55 10.99-.001.002-.002.005-.004.007-.2007 5.932-4.889 10.79-10.69 11.29-5.804.4986-10.54-3.518-10.85-8.436-.0391-.6108-.008-1.206.0853-1.778m28.58-4.956c-.2041 4.938-4.468 8.9-9.762 8.892-5.575-.009-10.17-4.391-10.4-9.72-.2299-5.31 3.979-9.531 9.122-9.109 5.131.4207 9.214 5.352 8.658 11.47-.003.003-.007.007-.01.0104-.5579 6.126-5.583 11.16-11.8 11.85-6.222.6929-11.33-3.174-12.08-7.952-.1298-.8163-.1252-1.606-.006-2.348m18.28 8.091-19.7-3.452m25.46-11.26-10.78 16.96m10.15-18.91-8.114 18.25m-19.08-10.5 11.29-16.65m6.722 27.55-17.63-9.52" style="fill:#ce5bc6"/>
   <path d="m288.6 251.5c-1.802 2.64-4.726 4.387-8.026 4.514-5.484.2113-9.921-4.128-9.834-9.498.0873-5.368 4.673-9.724 10.34-9.548 5.673.1768 10.28 4.832 10.45 10.59l.003.004c.1667 5.767-4.163 10.46-9.497 10.76-5.324.2934-9.619-3.905-9.347-9.049.0154-.2902.045-.5771.0884-.86m19.17.3236c-1.666 2.519-4.582 4.151-7.932 4.082-5.445-.1119-9.935-4.669-10.03-10.28-.0985-5.603 4.225-10.14 9.509-10.17 5.272-.0342 9.48 4.44 9.081 9.953-.002-.00018-.005-.00036-.007-.00054-.3999 5.516-5.283 9.982-11.32 9.933-6.038-.0483-10.98-4.595-11.53-10.23-.0153-.1572-.027-.3137-.0352-.4692m23.68 15.46c-1.702 2.074-4.354 3.362-7.353 3.26-5.407-.1841-9.859-4.813-9.902-10.52-.0435-5.705 4.335-10.33 9.693-10.5 5.348-.17 9.626 4.17 9.323 9.505-.002-.001-.004-.002-.005-.004-.304 5.332-5.096 9.626-11.01 9.342-5.918-.2842-10.75-5.058-11.16-10.99-.2041-2.993.7545-5.724 2.413-7.756m17.57 5.697c-1.381 4.034-5.092 6.92-9.493 7.047-5.637.1623-10.26-4.241-10.5-9.702-.2344-5.464 3.995-9.916 9.167-9.878 5.162.0383 9.283 4.556 8.766 10.13l-.009 6e-4c-.5174 5.582-5.51 10.11-11.7 10.17-2.966.0318-5.684-.9639-7.796-2.605m27.78 3.43c-1.639 3.626-5.303 6.179-9.569 6.223-5.689.059-10.3-4.368-10.45-9.823-.1468-5.447 4.219-9.85 9.591-9.716 5.373.1342 9.707 4.764 9.486 10.48-.001.001-.003.002-.004.003-.2213 5.73-4.929 10.39-10.77 10.62-4.53.1801-8.43-2.354-10.13-5.958m18.98-4.467-18.26 8.063m18.31-18.27-8.108 18.24m8.312-8.705-17.87 8.971m15.62-22.22-2.439 19.97m-6.011 2.735-16.68-11.25" style="fill:#ce5bc6"/>
   <path d="m206.7 336.7c-.9643 4.857-5.271 8.522-10.45 8.47-5.77-.0574-10.46-4.687-10.72-10.45-.2626-5.784 3.982-10.53 9.198-10.92 5.202-.3837 9.386 3.713 8.946 8.745-.003-.003-.005-.006-.008-.009-.4394 5.014-5.366 9.016-11.48 8.371-.7277-.0768-1.44-.2162-2.132-.413m4.148 11.83c-1.74 1.891-4.179 3.068-6.879 3.104-5.408.0708-9.798-4.452-9.688-10.08.1107-5.653 4.687-10.29 10.34-10.53 5.649-.2424 10.23 3.983 10.36 9.174.00075-.002.001-.004.002-.007.124 5.175-4.252 9.325-9.63 8.867-1.209-.1028-2.365-.4305-3.427-.9465m14.82-13.17c-1.63 1.29-3.748 2.034-6.072 1.949-5.403-.1979-9.837-4.791-9.852-10.41-.015-5.615 4.393-10.13 9.799-10.11 5.39.0136 9.717 4.548 9.472 10.15-.001.00036-.003.00072-.004.001-.2459 5.603-4.988 10.16-10.84 10.23-5.857.0659-10.63-4.381-10.96-9.89-.0591-.9694.0223-1.907.2248-2.795m21.73 9.68c-1.275 4.16-5.168 7.213-9.747 7.213-5.537.00022-9.985-4.472-9.878-9.97.1064-5.497 4.734-9.933 10.47-9.844 5.742.0886 10.43 4.673 10.71 10.34.002.00074.003.001.005.002.2716 5.668-3.962 10.28-9.174 10.43-3.329.0972-6.236-1.644-7.805-4.312m13.72 2.709c-1.667 1.389-3.788 2.241-6.107 2.303-5.518.1488-10.03-4.202-10.14-9.546-.1035-5.341 4.238-9.642 9.563-9.367 5.309.2739 9.567 5.038 9.228 10.95-.002.002-.004.004-.006.007-.3399 5.916-5.171 10.76-11.15 11.24-3.575.287-6.771-1.041-8.867-3.209m15.5-22.49 5.118 19.26m-16.11 6.607-9.822-17.48m10.34-9.984 17.13 10.48m-25.62 11.11 3.98-19.58m19.44 3.669-3.404 19.71" style="fill:#ce5bc6"/>
   <path d="m333 309.3c-1.794 1.908-4.33 3.093-7.141 3.088-5.482-.009-9.93-4.542-9.872-10.15.0578-5.614 4.603-10.19 10.21-10.31 5.612-.1236 10.16 4.242 10.24 9.612.00049-.001.00097-.002.001-.003.081 5.367-4.332 9.695-9.773 9.469-5.433-.2264-9.827-4.937-9.682-10.76.0343-1.379.3211-2.698.8153-3.912m15.67 15.19c-1.667 1.196-3.733 1.899-5.98 1.887-5.603-.031-10.19-4.502-10.36-9.981-.1683-5.466 4.131-9.864 9.396-9.699 5.257.1648 9.466 4.842 9.067 10.63-.002.001-.005.003-.007.004-.4012 5.797-5.287 10.53-11.35 10.85-6.068.3178-11.04-3.88-11.68-9.052-.5292-4.293 2.075-7.882 5.718-8.733m5.776 14.31c-1.984 2.132-4.906 3.463-8.153 3.355-5.731-.1902-10.34-4.818-10.42-10.51-.082-5.687 4.388-10.29 9.916-10.43 5.537-.1344 10.04 4.245 10.06 9.631 1e-4-.00096 2e-4-.002.00031-.003.0173 5.385-4.456 9.733-9.998 9.514-5.541-.2188-10.04-4.936-10.09-10.79-.00018-.0214-3e-4-.0428-.00036-.0642m29.58 5.353c-1.72 1.878-4.209 3.048-6.994 3.043-5.41-.0105-9.849-4.455-9.852-9.896-.003-5.425 4.431-9.783 9.868-9.56 5.432.223 9.794 4.958 9.609 10.82l-.003.006c-.1861 5.875-4.862 10.68-10.63 11.09-1.466.1046-2.863-.0832-4.134-.504m12.66-12.09c-.2792 5.021-4.539 8.985-9.789 8.906-5.532-.0831-10.06-4.618-10.16-10.2-.0978-5.57 4.266-10.07 9.623-10.07 5.352.002 9.652 4.51 9.39 10.06-.002 6e-5-.003.00013-.005.00019-.2213 4.693-3.637 8.635-8.221 9.745m-17.1-.7238 11.71-16.39m-11.06 18.69 8.66-18.02m12.53 25.16-19.57-3.928m24.37-1.443-18.92 6.21m5.623 1.577-13.52-15.02" style="fill:#ce5bc6"/>
   <path d="m268 315.8c-1.737 2.926-4.953 4.881-8.651 4.864-5.597-.0256-10.17-4.55-10.33-10.13-.1548-5.588 4.161-10.12 9.451-10.18 5.28-.0574 9.521 4.381 9.163 9.852-.002-.00047-.004-.00093-.006-.001-.3577 5.465-5.203 9.888-11.19 9.788-6.001-.0996-10.92-4.691-11.46-10.36-.1353-1.404.008-2.743.3741-3.965m28.38 10.23c-1.787 1.477-4.041 2.393-6.492 2.482-5.68.2049-10.28-4.111-10.39-9.421-.1148-5.309 4.29-9.591 9.718-9.296 5.427.2948 9.823 5.076 9.685 11-.00083.002-.002.005-.002.007-.1384 5.935-4.768 10.8-10.49 11.3-5.732.5072-10.4-3.497-10.66-8.389-.064-1.222.1535-2.381.5964-3.418m19.22 8.655c-1.895 2.666-4.988 4.423-8.473 4.461-5.629.0608-10.17-4.391-10.18-9.881-.0168-5.495 4.494-9.949 10.07-9.896 5.578.0533 10.12 4.597 10.18 10.21.00038.00039.00075.00079.001.001.0583 5.256-3.834 9.59-8.829 10.18m5.672-1.519c-1.099 4.235-4.814 7.312-9.255 7.39-5.466.0961-9.947-4.363-9.995-9.885-.0477-5.533 4.353-10.04 9.754-10.08 5.392-.0363 9.731 4.41 9.517 9.896-.001-.00037-.003-.00075-.004-.001-.2121 5.41-4.797 9.803-10.48 9.855m8.207-13.6c-.9081 4.646-4.837 8.129-9.544 8.272-5.456.1657-9.888-4.203-9.819-9.591.0695-5.391 4.62-9.757 10.23-9.583 5.612.1736 10.17 4.833 10.25 10.6.00051.001.001.003.002.004.0855 5.77-4.326 10.48-9.75 10.78-3.666.2045-6.853-1.648-8.48-4.456m18.91 4.457-20.37-.5454m16.99-22.32 6.065 18.98m.0648-12.73-6.258 18.91m7.795-11.59-15.31 13.18m2.941-28.31 12.27 16.01" style="fill:#ce5bc6"/>
   <path d="m363.1 618.9c-1.592 1.122-3.539 1.772-5.635 1.746-5.396-.0682-9.743-4.597-9.515-10.18.2275-5.572 4.959-10.08 10.83-10.09 5.875-.005 10.69 4.495 11.13 10.04.003 3e-5.005 7e-5.008.00011.4432 5.553-3.62 10.05-8.593 10.06-4.68.004-8.456-3.983-8.272-9.092m11.7 7.335c-1.666 1.199-3.674 1.915-5.825 1.953-5.569.0962-10.02-4.395-9.877-9.996.1452-5.612 4.843-10.22 10.69-10.41 5.856-.1963 10.67 4.077 11.12 9.32.003-.002.005-.004.008-.006.4514 5.236-3.598 9.433-8.567 9.042-4.829-.3802-8.705-4.99-8.27-10.76m19.36 8.441c-1.66 1.305-3.775 2.07-6.079 2.029-5.442-.0952-9.866-4.643-9.794-10.24.0709-5.593 4.614-10.12 10.22-10.14 5.597-.0255 10.13 4.457 10.19 9.982.00034-1e-4.00067-.00021.001-.00031.0554 5.529-4.389 10.01-9.857 9.98-5.469-.0273-9.891-4.551-9.776-10.15.0399-1.946.6236-3.766 1.608-5.318m9.624 15.07c-1.812 2.413-4.752 3.956-8.055 3.857-5.472-.1644-9.878-4.784-9.722-10.49.1553-5.698 4.824-10.32 10.61-10.5 5.791-.1716 10.53 4.165 10.86 9.493.002-.001.004-.003.006-.004.3122 4.954-3.269 9.005-7.888 9.318m8.2-8.78c-.3689 5.229-4.983 9.48-10.61 9.392-5.692-.0892-10.27-4.594-10.34-10.12-.0678-5.513 4.4-9.949 9.918-9.844 5.516.1055 9.999 4.72 9.973 10.41-.00016 9e-4-.00032.002-.00047.003-.0262 5.697-4.554 10.33-10.16 10.48-5.617.1575-10.19-4.207-10.33-9.622-.007-.2516-.004-.5011.008-.748m11.74 11.16-14.58-13.98m27.29 5.226-18.44 7.605m.4448-26.36 18.19 8.253m-20.98-6.825 19.55 4.025m-7.221-5.581 8.844 17.94" style="fill:#ce5bc6"/>
   <path d="m455.7 643.7c-1.713 1.563-4.055 2.492-6.646 2.408-5.435-.176-9.885-4.752-9.891-10.36-.006-5.597 4.434-10.1 9.883-10.08 5.444.0231 9.825 4.569 9.661 10.18-.00099.00041-.002.00082-.003.001-.1654 5.616-4.826 10.18-10.57 10.26-5.747.0775-10.43-4.353-10.64-9.848-.0487-1.248.137-2.445.5153-3.548m12.2-.4256c-1.621 1.071-3.555 1.704-5.632 1.729-5.635.0676-10.2-4.371-10.27-9.853-.0739-5.478 4.365-9.919 9.837-9.847 5.475.0724 9.911 4.636 9.827 10.27-.00051.00054-.001.001-.002.002-.0836 5.639-4.66 10.22-10.32 10.34-5.658.1199-10.26-4.255-10.42-9.644-.1454-4.997 3.584-9.097 8.383-9.492m7.183 20.45c-1.659 1.374-3.743 2.208-6.01 2.265-5.516.1381-10.02-4.359-10.07-9.992-.0519-5.652 4.363-10.31 9.785-10.61 5.418-.2981 9.784 3.86 9.596 8.951-.001-.003-.002-.006-.003-.008-.1879 5.079-4.87 9.126-10.65 8.541-5.282-.5349-9.678-4.783-10.61-10.25m15.1 4.039c-1.896 2.464-4.862 4.06-8.182 4.072-5.584.0204-10.08-4.463-10.02-10.01.0579-5.539 4.648-10.04 10.33-10.04 5.696-.007 10.34 4.479 10.56 10.01.001-7e-5.003-.00015.004-.00022.2152 5.534-4.071 10.01-9.353 10-5.274-.0133-9.528-4.516-9.226-10.07.1018-1.874.711-3.628 1.7-5.13m17.03 17.59c-1.884 1.531-4.361 2.436-7.077 2.348-5.752-.1865-10.42-4.778-10.63-10.41-.2088-5.621 4.103-10.15 9.406-10.17 5.302-.0135 9.578 4.495 9.272 10.05-.002.00011-.004.00021-.006.00032-.307 5.564-5.101 10.08-11.05 10.09-5.954.0116-10.83-4.483-11.37-10.06-.4194-4.37 1.933-8.111 5.306-9.575m10.75 23.73-13.88-14.68m26.74-6.167-5.783 19.06m.1708-.0998-19.19-5.356m22.82-16.65-.9822 20.3m2.738-3.594-19.23 5.267" style="fill:#ce5bc6"/>
   <path d="m130 632.7c-1.728 1.145-3.828 1.802-6.091 1.753-5.706-.1234-10.31-4.707-10.4-10.36-.0955-5.649 4.346-10.23 9.832-10.34 5.493-.108 9.953 4.291 9.909 9.704-.00026-.00079-.00053-.002-8e-4-.002-.0446 5.414-4.581 9.784-10.19 9.609-3.917-.1219-7.326-2.434-9.065-5.787m8.639.333c-1.81 1.505-4.172 2.412-6.752 2.386-5.577-.0563-10.07-4.482-10.03-9.868.0458-5.36 4.618-9.629 10.28-9.253 5.668.3762 10.29 5.28 10.47 11.37.001.003.002.007.003.01.1786 6.11-4.142 11.13-9.466 11.84-2.073.2754-3.992-.1404-5.542-1.027m24.62 3.808c-1.837 1.502-4.138 2.425-6.627 2.49-5.725.15-10.32-4.295-10.36-9.837-.0426-5.551 4.478-10.1 10.08-10.22 5.615-.1211 10.2 4.225 10.33 9.566.00079-.001.002-.002.002-.004.1313 5.338-4.232 9.629-9.623 9.372-2.332-.1114-4.471-1.059-6.136-2.573m3.927 3.665c-1.467 3.989-5.176 6.815-9.495 6.859-5.533.0564-9.989-4.483-9.895-10.15.0946-5.677 4.71-10.34 10.42-10.62 5.724-.2764 10.39 3.924 10.64 9.08.002-.002.003-.005.004-.007.1747 3.714-1.989 6.885-5.174 8.192m2.47-9.364c-1.537 1.155-3.42 1.848-5.458 1.895-5.391.1232-9.803-4.307-9.76-9.802.0434-5.498 4.529-9.979 10.04-9.984 5.504-.005 9.939 4.467 9.846 9.977-.00056-2e-4-.001-.00041-.002-.00062-.0933 5.512-4.686 9.967-10.35 9.927-5.465-.0392-9.941-4.262-10.33-9.572m23.22 9.785-19.75 3.359m-2.151-1.69.5901-20.36m-1.273 19.46 2.053-20.03m-2.74 3.057 19.62-3.736m5.664 7.65-9.467 17.64" style="fill:#ce5bc6"/>
   <path d="m302 630.3c-1.482 3.344-4.937 5.685-8.984 5.644-5.491-.0557-9.972-4.486-9.991-9.886-.0196-5.376 4.428-9.666 9.898-9.33 5.468.3356 9.876 5.191 9.761 11.21-7e-4.003-.001.006-.002.009-.1158 6.032-4.719 10.98-10.4 11.57-5.679.5883-10.29-3.364-10.43-8.252-.0157-.5588.0279-1.105.1256-1.633m14.2 1.65c-1.791 1.877-4.347 3.045-7.191 3.029-5.494-.0306-9.967-4.478-9.961-9.921.005-5.425 4.487-9.778 10-9.541 5.517.2363 9.974 4.987 9.923 10.87-3e-4.002-6e-4.004-.00091.006-.0507 5.897-4.593 10.72-10.2 11.16-5.603.4378-10.15-3.645-10.21-8.682-.004-.3931.0186-.7801.0676-1.159m23.27 1.345c-1.144 4.187-4.787 7.21-9.108 7.305-5.371.1178-9.738-4.328-9.59-9.849.148-5.525 4.764-10.03 10.46-10.08 5.704-.0423 10.33 4.396 10.53 9.868.001-.00043.002-.00087.003-.001.1937 5.474-4.109 9.898-9.395 9.828-5.011-.0667-9.086-4.168-9.169-9.365m15.39 10.15c-1.781 1.337-4.044 2.111-6.497 2.025-5.577-.1962-10.05-4.798-9.952-10.44.0995-5.635 4.743-10.18 10.5-10.21 5.777-.0319 10.5 4.458 10.84 9.993l.006-.00012c.3346 5.54-3.827 10.03-8.951 10.01-2.737-.0106-5.18-1.31-6.784-3.375m13.62-7.14c-.4089 4.923-4.486 8.756-9.46 8.802-5.384.0496-9.766-4.354-9.644-9.762.1222-5.394 4.712-9.734 10.37-9.502 5.666.2326 10.26 4.965 10.41 10.82.00089.002.002.004.003.006.1483 5.866-4.197 10.65-9.534 11.04-.1585.0116-.3161.0192-.4726.0229m-16.56-11.97 15.05-13.48m-15.01 15.57 12.91-15.52m-11.13 7.368 19.1-5.643m-4.642 26.53-16.14-12.07m11.61 11.99-11.54-16.49" style="fill:#ce5bc6"/>
   <path d="m208 617.1c-1.743 2.285-4.478 3.752-7.554 3.765-5.394.0221-9.775-4.429-9.652-9.91.1228-5.472 4.711-9.894 10.38-9.78 5.664.114 10.26 4.728 10.41 10.43.00087.00096.002.002.003.003.1445 5.709-4.211 10.35-9.56 10.56-.5964.0229-1.18-.0103-1.745-.0946m7.231-6.336c-.0531 5.327-4.337 9.564-9.622 9.556-5.451-.008-9.893-4.511-9.866-10.07.0269-5.559 4.514-10.07 10.05-10.09 5.526-.0232 9.996 4.449 9.966 9.961-.00018-.00019-.00036-.00038-.00054-.00057-.0301 5.515-4.551 9.977-10.11 9.936-3.676-.027-6.885-2.017-8.629-4.98m13.99-3.082c-1.647 1.563-3.805 2.529-6.169 2.604-5.363.171-9.733-4.273-9.62-9.822.1132-5.562 4.674-10.13 10.3-10.29 5.616-.155 10.16 4.151 10.23 9.441.00041-.002.00083-.003.001-.005.0693 5.284-4.362 9.523-9.806 9.199-4.337-.2584-8-3.345-9.232-7.57m20.13-4.707c-.3366 5.495-4.87 9.874-10.37 9.834-5.566-.0403-10.01-4.614-9.881-10.29.1331-5.683 4.806-10.33 10.61-10.55 5.809-.2219 10.57 4.049 10.93 9.297.002-.002.004-.004.006-.005.162 2.377-.6034 4.542-1.964 6.163m1.397 6.462c-1.782 2.772-4.81 4.594-8.226 4.622-5.453.045-9.837-4.493-9.655-10.15.1816-5.67 4.872-10.33 10.69-10.59 5.828-.2605 10.6 3.955 10.98 9.128l.007-.007c.383 5.164-3.738 9.299-8.795 8.83-4.786-.444-8.655-4.889-8.534-10.52m20.21 2.691-17.22 10.31m-3.667-25.99 19.29 4.981m-10.33-6.875 12.28 16m-6.297 9.913-19.6-3.93m15.01-21.7 10.61 17.06" style="fill:#ce5bc6"/>
   <path d="m117 57.52q-24.11 39.61-46.66 52.32-22.46 12.62-45.79 12.62-11.06 0-17.58-4.004-6.442-4.004-6.442-10.62 0-4.178 2.612-7.051 2.699-2.96 6.442-2.96 2.437 0 4.091 1.306 1.741 1.306 1.741 3.482 0 2.002-1.48 3.482-1.48 1.393-3.569 1.393-1.828 0-3.221-1.132-1.306-1.219-1.306-2.699 0-.3482.1741-1.219-.6964-.3482-.8705-.3482-1.045 0-2.089 1.741-.9576 1.741-.9576 3.917 0 6.181 5.745 10.01 5.832 3.743 16.71 3.743 14.71 0 28.73-5.92 14.1-6.007 25.51-17.58 11.4-11.66 28.99-37.87-19.93 5.484-35.34 5.484-17.15 0-26.55-6.877-9.315-6.877-9.315-16.89 0-16.71 17.76-28.99 17.85-12.36 47.97-12.36 7.225 0 15.06.7835l-.1741.7835q-7.051-.8705-13.49-.8705-30.03 0-48.05 13.84-17.93 13.84-17.93 27.51 0 8.792 8.966 15.5 9.053 6.616 26.38 6.616 12.45 0 35.52-5.658 15.5-24.64 35.69-38.91 20.2-14.28 32.12-14.28 3.656 0 5.92 1.915 2.35 1.828 2.35 4.44 0 6.877-9.663 16.1-9.663 9.14-28.55 18.19-18.8 8.966-29.42 11.06zm.6094-1.045q22.89-6.007 44.22-20.2 21.33-14.19 21.33-23.77 0-2.35-1.741-3.917-1.741-1.567-4.962-1.567-7.661 0-17.76 5.223-10.1 5.223-22.37 18.89-12.27 13.58-18.72 25.33z" style="fill:#ce5bc6;stroke:#ce5bc6"/>
   <path d="m150.5 87.73h7.748l-24.46 25.51q-3.569 3.743-3.569 6.007 0 1.48.9576 2.263 1.045.6964 2.089.6964 2.089 0 6.703-3.047 4.614-3.134 17.76-14.36l.6094.6094q-14.02 11.84-18.63 14.71-4.527 2.786-6.877 2.786-2.089 0-3.308-1.48-1.132-1.567-1.132-3.656 0-3.656 3.569-9.14l-.3482-.2612q-17.67 14.54-24.11 14.54-2.699 0-4.266-2.176-1.48-2.263-1.48-5.832 0-9.924 13.93-18.45 14.02-8.618 23.59-8.618 4.962 0 4.962 4.178 0 .9576-.1741 2.437zm-7.399 4.091q0-3.134-4.004-3.134-7.225 0-21.24 12.62-13.93 12.54-13.93 17.67 0 1.132.9576 2.176.9576.9576 2.699.9576 2.524 0 8.27-3.221 5.832-3.221 14.28-10.45 8.444-7.225 10.71-10.45 2.263-3.308 2.263-6.181z" style="fill:#ce5bc6;stroke:#ce5bc6"/>
   <path d="m157.7 104.8q20.54-17.15 27.94-17.15 1.741 0 2.96 1.219 1.306 1.132 1.306 3.134 0 5.745-7.399 13.49l.3482.3482q20.46-17.93 28.29-17.93 5.92 0 5.92 5.049 0 3.395-2.437 6.964-2.35 3.569-8.705 8.966-6.355 5.397-7.922 7.138-1.48 1.654-1.48 2.873 0 .9576.7835 1.654.8705.6964 1.915.6964 2.699 0 8.357-2.786 5.658-2.873 12.71-8.879l5.658-4.788.6094.6094q-18.72 16.71-27.6 16.71-1.915 0-3.308-1.48-1.393-1.567-1.393-3.83 0-2.176 1.045-4.44 1.132-2.263 2.437-3.83 1.393-1.567 6.529-5.92l4.004-3.395q6.79-5.745 6.79-8.009 0-2.35-3.482-2.35-6.442 0-17.93 9.14-11.49 9.053-26.72 23.59h-8.618l24.03-23.85q5.658-5.658 5.658-7.399 0-2.002-2.437-2.002-6.877 0-27.25 17.06z" style="fill:#ce5bc6;stroke:#ce5bc6"/>
   <path d="m320 40.54 7.138-.0871-61.72 61.55q-14.8 14.8-14.8 17.5 0 1.132.9576 1.915 1.045.7835 2.263.7835 2.525 0 7.748-3.482 5.31-3.482 17.41-13.93l.6094.6094-7.225 6.007q-8.792 7.312-12.54 9.489-3.743 2.176-6.007 2.176-2.002 0-3.482-1.219-1.393-1.219-1.393-3.308 0-4.266 4.962-10.79l-.3482-.3482q-3.656 3.482-10.62 8.618-6.877 5.049-9.924 6.094-2.96 1.045-5.31 1.045-2.786 0-4.353-1.915-1.48-1.915-1.48-4.875 0-6.355 5.745-12.71 5.832-6.442 15.84-10.88 10.01-4.527 15.5-4.527 2.35 0 3.917 1.306 1.567 1.306 1.567 3.395 0 1.219-1.045 3.743zm-56.58 52.32q0-3.569-4.091-3.569-6.964 0-21.15 12.36-14.1 12.36-14.1 17.41 0 3.047 3.743 3.047 3.83 0 7.748-2.263 4.004-2.35 12.19-8.618 8.27-6.355 11.93-10.71 3.743-4.44 3.743-7.661z" style="fill:#ce5bc6;stroke:#ce5bc6"/>
   <path d="m279.5 105.4-.6094-.6094 10.71-8.879q11.14-9.227 15.23-9.227 2.089 0 3.395 1.741 1.306 1.654 1.306 3.917 0 3.047-1.654 6.181-1.654 3.134-8.705 9.227-6.964 6.007-8.531 7.835t-1.567 3.221q0 2.699 3.047 2.699 4.004 0 11.66-5.31 7.661-5.397 11.84-8.966l21.5-19.5h8.009l-4.701 5.31-12.01 12.36q-6.877 7.138-8.618 9.315-1.741 2.089-1.741 3.482 0 1.741 1.306 2.699 1.393.8705 3.134.8705 5.397 0 13.58-4.266 8.183-4.266 16.71-11.84 1.654-6.268 5.31-12.19 3.743-6.007 5.92-6.007 1.393 0 1.393 1.654 0 3.047-4.091 8.357-4.091 5.31-7.574 8.27v.9576q0 1.306.9576 2.176 1.045.7835 2.35.7835t2.612-.5223q1.306-.5223 5.658-4.353l.6094.6094q-5.658 5.136-8.966 5.136-3.656 0-4.353-3.569-7.748 7.051-16.37 11.4-8.531 4.266-14.36 4.266-2.525 0-4.178-1.654-1.654-1.741-1.654-4.353 0-3.395 2.437-7.225 2.524-3.917 13.06-14.36l-.3482-.5223-14.02 12.45q-5.484 4.875-13.32 10.27-7.835 5.31-11.75 5.31-1.828 0-3.395-1.654-1.48-1.654-1.48-4.527 0-4.178 2.524-7.661 2.612-3.482 10.01-9.576 7.486-6.181 7.486-9.402 0-2.176-2.35-2.176-2.002 0-5.745 2.263-3.656 2.263-12.97 10.01z" style="fill:#ce5bc6;stroke:#ce5bc6"/>
   <path d="m408.6 70.58q0 1.915-1.567 3.221t-3.308 1.306q-1.219 0-2.089-.8705-.8705-.9576-.8705-2.263 0-1.654 1.48-3.134 1.48-1.48 3.308-1.48 1.306 0 2.176.9576.8705.9576.8705 2.263zm-42.74 34.82-.6094-.6094q4.266-3.656 21.5-17.06h8.444l-27.6 27.16q-1.567 1.567-2.089 3.134v.6094q0 1.132.8705 2.002t2.176.8705q2.786 0 7.835-2.786 5.136-2.873 17.85-13.93l.6094.6094q-19.41 16.98-26.2 16.98-2.176 0-3.569-1.393-1.306-1.393-1.306-3.743 0-3.308 2.176-6.964 2.263-3.743 16.71-17.67l-.1741-.4353-8.009 6.094z" style="fill:#ce5bc6;stroke:#ce5bc6"/>
   <path d="m427.5 104.8.6094.6094q-7.574 6.79-16.8 12.19-9.228 5.31-14.45 5.31-6.79 0-6.79-7.661 0-10.53 12.8-19.15 12.8-8.618 19.15-8.618 2.176 0 3.569 1.306 1.48 1.219 1.48 3.047 0 2.612-2.263 4.962t-4.266 2.35q-1.132 0-2.089-.9576-.9576-.9576-.9576-2.002 0-1.48 1.219-2.612 1.219-1.219 2.699-1.219 1.48 0 2.089 1.132.6094 1.132.9576 1.132.6964 0 1.219-1.045.5223-1.045.5223-1.828 0-1.48-1.219-2.437-1.219-.9576-2.524-.9576-5.223 0-17.67 13.41-12.45 13.41-12.45 17.06 0 1.48 1.306 2.35t3.047.8705q5.484 0 14.45-5.397 9.053-5.397 16.37-11.84z" style="fill:#ce5bc6;stroke:#ce5bc6"/>
   <path d="m428.2 105.4-.6094-.6094 8.357-6.877q6.79-5.658 16.1-12.1 9.402-6.442 9.576-6.616l24.03-24.55q7.051-7.225 13.75-13.06 6.79-5.832 13.32-9.837 6.529-4.091 10.01-5.223 3.569-1.132 5.571-1.132 5.31 0 5.31 5.049 0 6.703-14.97 18.89-14.97 12.19-38.74 23.07-10.01 4.614-11.32 6.007l-9.315 10.36q-9.489 10.53-19.24 22.46l.7835.2612q9.576-9.14 20.28-16.63 10.71-7.574 15.84-7.574 5.484 0 5.484 5.571 0 3.482-1.741 6.79-1.654 3.221-7.486 8.183l-5.31 4.527q-5.745 4.875-5.745 7.138 0 2.176 2.612 2.176 7.835 0 26.9-16.89l.5223.6094-6.79 5.745q-5.223 4.44-11.23 7.922-6.007 3.482-9.315 3.482-2.263 0-3.656-1.741-1.306-1.828-1.306-4.614 0-3.134 2.002-5.745 2.002-2.699 8.705-8.444 6.79-5.745 8.27-7.574 1.567-1.828 1.567-3.308 0-1.306-1.132-2.089-1.045-.8705-2.35-.8705-1.828 0-6.181 1.915-4.353 1.915-12.19 7.574-7.835 5.571-15.5 12.97-7.661 7.312-11.93 10.97l-8.618.0871 35.95-38.56-.3482-.4353q-7.922 4.527-29.95 22.72zm104-75.21q0-3.656-3.743-3.656-5.31 0-13.32 5.484-8.009 5.484-25.33 23.59-17.32 18.02-17.32 18.98 0 .1741 11.49-5.136 6.79-3.221 13.67-7.138 10.53-6.094 17.67-11.58 7.138-5.571 11.75-11.06 3.569-4.178 4.614-7.051.5223-1.306.5223-2.437z" style="fill:#ce5bc6;stroke:#ce5bc6"/>
   <path d="m526.9 104.8.6094.6094q-10.45 9.228-19.06 13.41-8.618 4.091-13.75 4.091-7.138 0-7.138-7.312 0-9.837 13.41-18.54 13.49-8.705 21.07-8.705 1.393 0 2.35.7835 1.045.7835 1.045 1.915 0 4.266-8.444 8.966-8.444 4.701-18.72 5.832-8.879 8.879-8.879 12.19 0 1.567 1.567 2.96 1.567 1.306 3.656 1.306 4.527 0 12.8-3.917 8.357-4.004 19.5-13.58zm-27.33 0q2.612 0 9.228-2.263 6.616-2.263 10.97-5.832 4.44-3.569 4.44-5.92 0-1.654-1.915-1.654-2.263 0-5.049 1.393-2.699 1.393-8.27 5.745-5.571 4.266-9.402 8.531z" style="fill:#ce5bc6;stroke:#ce5bc6"/>
   <path d="m527.4 105.4-.6094-.6094 31.95-26.72.5223.8705q-3.656 2.96-4.701 4.44-1.045 1.48-1.045 3.743 0 1.828.6094 5.658.6094 3.743.6094 6.877 0 6.355-4.527 11.75l7.835-6.616.6094.6094q-19.59 17.24-31.77 17.24-2.96 0-5.136-1.654-2.089-1.741-2.089-4.44 0-2.002 1.393-3.395 1.306-1.48 3.134-1.48 1.132 0 1.915.7835.8705.7835.8705 1.828 0 1.48-1.219 2.699-1.132 1.132-2.437 1.132-.5223 0-1.393-.2612 0 3.83 4.875 3.83 6.877 0 15.5-10.01 8.705-10.01 9.576-21.07.3482-3.569 1.219-6.442z" style="fill:#ce5bc6;stroke:#ce5bc6"/>
</svg>
