<?xml version="1.0"?>
<svg xmlns="http://www.w3.org/2000/svg" viewBox="0 0 16 16">
    <path style="line-height:normal;text-indent:0;text-align:start;text-decoration-line:none;text-decoration-style:solid;text-decoration-color:#000;text-transform:none;block-progression:tb;isolation:auto;mix-blend-mode:normal;fill:#00a905;" d="M 9.4648438 1 L 10.851562 2.3867188 L 9.4902344 3.6503906 L 6.4882812 1.0039062 L 3.03125 4.2617188 L 3.71875 4.9882812 L 6.5117188 2.3574219 L 9.5097656 5 L 11.558594 3.09375 L 13 4.5351562 L 13 1 L 9.4648438 1 z M 2.5 6 C 1.6774686 6 1 6.6774686 1 7.5 L 1 12.5 C 1 13.322531 1.6774686 14 2.5 14 L 13.5 14 C 14.322531 14 15 13.322531 15 12.5 L 15 7.5 C 15 6.6774686 14.322531 6 13.5 6 L 2.5 6 z M 3 7 L 13 7 C 13 7.5465314 13.453469 8 14 8 L 14 12 C 13.453469 12 13 12.453469 13 13 L 3 13 C 3 12.453469 2.5465314 12 2 12 L 2 8 C 2.5465314 8 3 7.5465314 3 7 z M 8 8 C 6.9013528 8 6 8.9013528 6 10 C 6 11.098647 6.9013528 12 8 12 C 9.0986472 12 10 11.098647 10 10 C 10 8.9013528 9.0986472 8 8 8 z M 4 9 A 1 1 0 0 0 3 10 A 1 1 0 0 0 4 11 A 1 1 0 0 0 5 10 A 1 1 0 0 0 4 9 z M 8 9 C 8.5582071 9 9 9.4417929 9 10 C 9 10.558207 8.5582071 11 8 11 C 7.4417929 11 7 10.558207 7 10 C 7 9.4417929 7.4417929 9 8 9 z M 12 9 A 1 1 0 0 0 11 10 A 1 1 0 0 0 12 11 A 1 1 0 0 0 13 10 A 1 1 0 0 0 12 9 z"/>
</svg>
