<?xml version="1.0" encoding="utf-8"?>
<!-- Svg Vector Icons : http://www.onlinewebfonts.com/icon -->
<!DOCTYPE svg PUBLIC "-//W3C//DTD SVG 1.1//EN" "http://www.w3.org/Graphics/SVG/1.1/DTD/svg11.dtd">
<svg version="1.1" xmlns="http://www.w3.org/2000/svg" xmlns:xlink="http://www.w3.org/1999/xlink" x="0px" y="0px" viewBox="0 0 1000 1000" enable-background="new 0 0 1000 1000" xml:space="preserve">
<g fill="#001d33"><path d="M782.5,75.1"/><path d="M204.9,149.3L10,54.8v487.5l5.2,2.7c0,0,28.5,17,43.6-14.7l155.4-338.4C214,191.8,228.8,162.9,204.9,149.3z"/><path d="M751.9,223.4c-40.4,7.1-130.2-23-130.2-23c-18.2-10.9-86.1-14.7-86.1-14.7c-52.1-3.8-121.2,36.9-121.2,36.9H246.4l-24.5,52.8h111.4c-28.9,36.9-31.2,80.4-31.2,80.4c1.7,60.5-18.9,89.2-18.9,89.2c-16.5,48.4,54.4,54.2,54.4,54.2C441.4,481.4,447.6,384,447.6,384c34.3-59.9,91.7-31.2,91.7-31.2l309.1,281c25.1,24.9,6.3,55.1,6.3,55.1c-14.7,28.1-47.9,17.2-47.9,17.2L588.2,544c-39.6-10-26.8,28.5-26.8,28.5l211.9,161c15.5,21.8,0,42.9,0,42.9c-11.5,21.1-38.7,10-38.7,10l-192-141.4c-36.8-2.7-22.4,31.4-22.4,31.4L682,798c20.9,23,6.1,44.2,6.1,44.2c-15.1,24.5-40,13.6-40,13.6l-152-111.6c-37.5-5.2-25.5,27.6-25.5,27.6l102,81c-2.5,45.4-45.9,27.4-45.9,27.4l-27.2-20.9c-4.6-23-32.7-25.5-32.7-25.5l-30.2-23.2c1.3-22-18-40.8-18-40.8c-15.9-19.9-48.4-11.5-48.4-11.5c-2.7-8.2-15.9-14-15.9-14c2.1-29.7-16.3-45-16.3-45c-20.1-24.5-53.2-16.3-53.2-16.3c-0.8-4.8-10.7-12.3-10.7-12.3c6.9-36.2-9-55.1-9-55.1c-16.8-31.4-65.3-19.9-65.3-19.9l-74.3-97.6L104.4,545l62.8,83.5l-46.5,66.2c-11.7,43.1,8.6,62.4,8.6,62.4c48,48.4,89.4-2.3,89.4-2.3c-24.1,48,6.1,73.7,6.1,73.7c44.4,43.3,84.8-4.4,84.8-4.4c-26,46.1,2.1,68.1,2.1,68.1c50.7,52.8,93.6-17.4,93.6-17.4c-22.4,38.9,9.4,66.2,9.4,66.2c50.1,38.9,85.4-30.2,85.4-30.2c19.5,19.7,53.2,14.4,53.2,14.4c46.1-7.8,55.3-46.1,55.3-46.1c57.8,40.8,95.1,7.3,95.1,7.3c31.4-22.6,28.7-56.7,28.7-56.7c47.5,7.7,67-20.3,67-20.3c26.6-21.8,20.9-60.3,20.9-60.3c37.9-1.7,61.3-20.3,70.2-39.4C923,652.4,879,605.3,879,605.3l23.9-56.8L751.9,223.4z"/><path d="M790.6,150.1c0,0-22.4,9.8-11.5,37.1c7.7,6.9,162.1,343.6,162.1,343.6s14.4,25.3,35.6,14.9l13.2-6.3V47.1L790.6,150.1z"/></g>
</svg>