<svg width="144.3mm" height="127.3mm" version="1.1" viewBox="0 0 144.3 127.3" xmlns="http://www.w3.org/2000/svg"><defs><filter id="filter1218" style="color-interpolation-filters:sRGB"><feFlood flood-color="rgb(3,6,9)" flood-opacity=".498" result="flood"/><feComposite in="flood" in2="SourceGraphic" operator="in" result="composite1"/><feGaussianBlur in="composite1" result="blur" stdDeviation="2"/><feOffset dx="0" dy="0" result="offset"/><feComposite in="SourceGraphic" in2="offset" result="composite2"/></filter></defs><path d="m22.83 117.3h103.7v-100.9h-103.7z" style="fill:#f9fcff"/><path d="m69.2 26.09 31.15-3.966-2.994-0.7043h-40.55z" style="fill:#a3dde8"/><path d="m59.07 42.48 16.5-3.18 37.39 24.49-7.323 3.377-19.86-16.51z" style="fill:#6fade4"/><path d="m16.34 27.9 3.701-4.89s20.86-1.181 24.9-0.5697c4.144 0.626 5.193-0.05244 7.317 0 2.128 0.05244 5.297 1.363 3.62 2.44-2.045 1.27-3.907 1.282-7.221 0.8739-3.264-0.402-4.831-0.8539-7.446-0.05773-6.832 2.22-23.46 2.082-24.87 2.203" style="fill:#008de8"/><path d="m123.1 54.51c-2.559-1.118-5.522-1.275-7.239-3.126-1.651-1.78-2.35-2.071-3.619-2.788-1.25-0.706-2.804-0.1192-5.292-0.8461-3.454-1.08-5.181-0.2457-3.247 2.254 1.87 2.636 6.693 2.605 7.763 3.704 1.097 1.125 2.232 6.262 10.96 3.456 0 0 3.082-0.9403 0.6784-2.656" style="fill:#008de8"/><path d="m112.6 80.39-13.16 8.025-8.264-4.158 15.39-8.941z" style="fill:#77ccf6"/><path d="m136.6 117.2-31.63-13.28 4.927-9.661-8.115-4.268 12.38-7.973 19.66 16.27z" style="fill:#6fade4"/><path d="m59.76 64.42-3.914-1.147 1.75-2.217 3.839 1.091z" style="fill:#1a588f"/><path d="m54.05 72.21-4.163-1.346 2.048-2.596 4.08 1.276z" style="fill:#1a588f"/><path d="m68.26 66.63-4.141-1.14 1.551-2.344 4.054 1.083z" style="fill:#1a588f"/><path d="m65.85 70.67-4.285-1.238 1.68-2.542 4.192 1.174z" style="fill:#1a588f"/><path d="m49.49 65.48-3.866-1.112 1.991-2.288 3.793 1.057z" style="fill:#1a588f"/><path d="m61.96 49.89-3.866-0.8172 1.991-2.288 3.793 1.116z" style="fill:#1a588f"/><path d="m115.3 75.19-3.451-2.799 5.51-3.37 3.163 2.589z" style="fill:#77ccf6"/><path d="m32.74 61.72-2.922-1.673 2.56-1.851 2.908 1.603z" style="fill:#1a588f"/><path d="m27.51 58.74-2.922-1.673 2.56-1.851 2.908 1.603z" style="fill:#1a588f"/><path d="m40.07 50.27-2.766-1.018 6.595-3.099 2.17 0.6959z" style="fill:#1a588f"/><path d="m63.25 74.9-4.431-1.347 1.824-2.76 4.333 1.274z" style="fill:#1a588f"/><path d="m99.7 27.08 15.79-2.37 2.528 1.06 10.71-0.9738 0.1685 1.58-25.01 2.419z" style="fill:#c8b39e"/><path d="m97.61 25.27-6.429 0.9169-1.205-0.3709 6.406-0.9044z" style="fill:#b7d6f1"/><path d="m108.6 23.5-6.429 0.9169-1.205-0.3707 6.406-0.9046z" style="fill:#c8b39e"/><path d="m120.5 21.34-6.429 0.9169-1.205-0.3707 6.406-0.9046z" style="fill:#0f1117"/><path d="m86.23 26.98-6.84 0.9776-1.161-0.3952 6.814-0.9641z" style="fill:#b7d6f1"/><path d="m52.89 28.15 6.047 0.3195-0.7477 0.6214-6.224-0.3659z" style="fill:#b7d6f1"/><path d="m43.1 27.61 5.961 0.3158-0.8466 0.6146-6.129-0.3617z" style="fill:#b7d6f1"/><path d="m26.35 41.42 13.42-1.806 1.096 2.042-14.41 2.699z" style="fill:#b7d6f1"/><path d="m58.65 36.99 9.789-1.827 1.19 1.062-10.25 2.25z" style="fill:#b7d6f1"/><path d="m98.56 33.53 3.281-0.09314 2.233 1.632-3.298 0.1032z" style="fill:#1a588f"/><path d="m85.3 30.35 2.392-0.3578 2.029 1.47-3 0.1379z" style="fill:#1a588f"/><path d="m107.7 33.34 2.943-0.1124 2.548 1.639-2.91 0.1368z" style="fill:#1a588f"/><path d="m57.02 31.51 1.786-1.64-15.39-0.6307-21.35 0.7837-0.3455 2.917 15.13 1.232 11-2.669z" style="fill:#77ccf6"/><path d="m50.73 56.82 6.379-5.868 15.02 3.002 2.547-3.976 9.275 2.292 6.358 5.383-12.74 6.351z" style="fill:#b7d6f1"/><path d="m88.56 27.56 40.48-6.737-0.0721 6.73-34.75 3.237z" style="fill:#77ccf6"/><path d="m81.98 37.96 2.684-0.7988 4.505 0.6093 6.291 8.032z" style="fill:#b7d6f1"/><path d="m102.1 29.68-8.397 0.7881-4.158-2.691 5.852-0.9472zm-16.16 2.723-4.006-3.396 6.439-1.042 6.341 4.174zm-12.11-5.302c0.2164 0 7.919-1.021 22.13-2.932l4.158 1.198-4.974 0.7948h-4.19e-4l-20.81 3.326c-0.3224 0.05138-0.5155 0.2488-0.4308 0.4416 0.07154 0.1622 0.3171 0.2696 0.5864 0.2696 0.05264 0 0.1066-0.0038 0.16-0.01331l6.1-0.9872 3.75 3.246-12.1 0.3627c-0.353 0.01059-0.6339 0.1986-0.6272 0.4216 0.0075 0.2177 0.2848 0.3887 0.6279 0.3887 0.0105 0 0.02115-2.11e-4 0.03195-4.13e-4l29.7-0.9022 8.831 6.018c0.2136 0.1451 0.4853 0.2246 0.7179 0.2246 0.1294 0 0.246-0.02444 0.3341-0.07525 0.2467-0.1427 0.176-0.4393-0.1557-0.6616l-8.283-5.549 7.479-0.2273 10.67 7.075c0.2433 0.1615 0.5491 0.2525 0.7979 0.2525 0.1183 0 0.2234-0.02058 0.3028-0.06369 0.2458-0.1342 0.1511-0.4343-0.2094-0.6692l-10.18-6.636 11.41-0.2838c0.3416-0.01059 0.479-0.1938 0.3072-0.4083-0.1702-0.2129-0.5825-0.3766-0.9185-0.3661l-27.04 0.7499-1.462-0.9459 34.51-3.227c0.3076-0.02925 0.4036-0.2089 0.2167-0.4002-0.1857-0.1897-0.581-0.3189-0.8851-0.2915l-25.02 2.311-6.942-2.913 32.7-5.502c0.2616-0.04262 0.3186-0.2034 0.1281-0.3588-0.189-0.1544-0.5512-0.2452-0.8111-0.2039l-27.15 4.584-4.107-1.17c2.422-0.3259 18.59-3.031 21.33-3.4 0.2657-0.03572 0.3512-0.1863 0.1926-0.3354-0.1582-0.1482-0.4981-0.2394-0.762-0.2043-2.484 0.3306-19.17 3.101-22.48 3.539-0.0015 1.94e-4 -3e-3 3.95e-4 -0.0045 6.35e-4 -9.76 1.296-21.24 2.813-21.9 2.878-0.2869 0.01703-0.5137 0.1536-0.518 0.3203-0.0045 0.18 0.2508 0.3266 0.5709 0.3266" style="fill:#e3fcff"/><path d="m93.58 77.02-14.36-12.86 11.08-5.592 14.15 12.07zm-6.613 3.883-9.057-5.277 2.969-7.39 10.78 9.911zm-6.934 4.071-14.77-4.809 8.369-16.28 3.463 0.8779 2.172 1.998-3.77 8.869c-0.2369 0.557-0.0294 1.227 0.4799 1.531l8.6 5.141zm-29.57-26.96 5.283 1.338-11.65 13.91-6.188-2.016zm-4.436 15.89 11.46-14.11 5.907 1.496-10.41 14.88zm8.992 2.929 10.19-15.08 6.544 1.658-8.631 16.06zm1.607-25.32 15.29 3.084c0.3864 0.07794 0.7912-0.07928 0.9798-0.3799l2.504-3.984 8.128 2.558 5.329 4.544-11.41 5.629-19.7-4.89c-0.07919-0.03185-0.1619-0.05427-0.2489-0.06177l-5.685-1.412zm-23.61 12.27-17.16 1.817 3.802-10.27 6.247-2.218 12.6 6.116zm-0.5118-13.2 11.86 3.786-4.229 3.51-11.92-5.648zm60.9-11.12 4.456 0.5764c0.5818 0.9538 2.077 2.933 3.018 4.159l-3.942-0.6501zm9.299 5.036c-1.103-1.382-2.544-3.241-3.247-4.253l4.419 0.5719 3.079 4.382zm14.81 2.443-8.781-1.448-3.232-4.466 8.66 1.121zm18.88 6.085c-0.4746-0.3514-1.092-0.4956-1.384-0.3246l-5.634 3.308-14.21-8.312 9.438 1.581c0.0693 0.01195 0.1357 0.01723 0.198 0.01723 0.1794 0 0.3248-0.04743 0.4109-0.137 0.1143-0.1203 0.108-0.3034-0.0168-0.4971l-5.96-9.26c-0.1745-0.2709-0.6314-0.4917-1.022-0.4951h-9e-3c-0.3843 0-0.5611 0.2135-0.3937 0.4824l5.274 8.471-3.767-0.6214-4.026-5.587c-0.1665-0.2309-0.5149-0.4184-0.8563-0.462l-10.19-1.301c-3e-3 -3.94e-4 -4e-3 -5.77e-4 -7e-3 -9.62e-4l-11.75-1.499-2.279-2.635c-0.1938-0.2244-0.6082-0.3316-0.9291-0.2406-0.3209 0.09122-0.4283 0.3479-0.2371 0.575l6.861 8.149c0.1426 0.1699 0.3781 0.2961 0.6314 0.3387l15.63 2.618 16.01 9.525-22.09 12.97-21.55-17.95c-0.09823-0.08169-0.2165-0.1453-0.3443-0.1846l-32.28-9.978c-0.3412-0.1056-0.81 0.02791-1.05 0.2989-0.2415 0.2733-0.1602 0.5843 0.1845 0.6927l5.459 1.718-10.65 8.84-4.12-1.288 9.103-5.389c0.2295-0.1359 0.3785-0.3316 0.4002-0.5245 0.02155-0.1918-0.08582-0.3554-0.2873-0.4393l-5.875-2.446c-0.3159-0.132-0.8105-0.01789-1.107 0.2549-0.2997 0.2749-0.2875 0.6089 0.03086 0.7439l5.034 2.139-8.71 5.065c-0.05617 0.03281-0.1084 0.06803-0.1567 0.1056l-6.768-2.117c-0.1924-0.06013-0.45-0.03945-0.7065 0.05754l-12.47 4.549 1.93-5.212c0.1238-0.3336-0.1619-0.5423-0.6376-0.468-0.4766 0.07428-0.9702 0.4047-1.101 0.7405l-6.95 17.73c-0.0039 0.0061-0.0096 0.01361-0.0132 0.01981-0.05614 0.1019-0.08832 0.1974-0.1075 0.2878l-22.18 56.61c-0.4533 1.156-0.2156 1.951 0.5199 1.951 0.1163 0 0.2448-0.02 0.3845-0.062 1.022-0.3036 2.251-1.638 2.74-2.959l20.37-55.01 17.63-1.865c0.3037-0.01921 0.638-0.1651 0.9104-0.3966l24.16-20.49 15.99 5.033-2.154 3.302-14.97-2.965c-0.3341-0.0664-0.7264 0.05859-0.9692 0.3084l-20.39 20.96c-0.2793 0.2867-0.4451 0.6383-0.4482 0.952-0.0036 0.315 0.1584 0.5558 0.4386 0.6495l27.25 9.104c0.07589 0.09226 0.1627 0.1756 0.269 0.2374 0.1519 0.08757 0.3178 0.1289 0.4855 0.1289 0.08189 0 0.164-0.01361 0.2452-0.03252l16.34 5.46c0.111 0.0366 0.2237 0.05536 0.336 0.05536 0.1843 0 0.3656-0.05006 0.5286-0.1488l6.84-4.132c0.07019-0.03191 0.1371-0.0723 0.1986-0.1205l6.341-3.831c0.09868-0.03811 0.1901-0.0909 0.2708-0.1639l11.94-7.213 32.46 27.67c0.4668 0.398 0.9421 0.6023 1.315 0.6023 0.3195 0 0.5636-0.1485 0.6643-0.4498 0.2189-0.6495-0.3064-1.755-1.162-2.468l-31.65-26.34 28.7-17.34c0.2927-0.1766 0.1383-0.6093-0.3403-0.9641" style="fill:#e3fcff"/><path d="m36.09 34.33 13.89 1.531c0.03342 0.0035 0.06722 0.0052 0.1012 0.0052 0.3042 0 0.6258-0.1409 0.7512-0.3381 0.1383-0.2182-0.01496-0.4223-0.3413-0.4579l-11.66-1.267 8.739-1.831 8.54 0.0062h0.0028l15.03 0.01088h6.04e-4c0.326 0 0.5929-0.1578 0.5968-0.3512 0.0042-0.1923-0.2538-0.3473-0.5754-0.3477l-13.91-0.0096 4.594-4.047c0.1663-0.1497 0.09614-0.329-0.1558-0.4012-0.2508-0.07215-0.59-0.01088-0.7583 0.1372l-3.284 2.822-8.161-0.3227 3.368-1.962c0.2283-0.1328 0.2479-0.3176 0.04526-0.4129-0.2015-0.09502-0.5488-0.06603-0.7773 0.06523l-3.938 2.258-4.505-0.1779c-0.02523-8.75e-4 -0.0507-8.75e-4 -0.07673 0l-5.793 0.2237 6.585-2.457c0.2835-0.1056 0.4109-0.2887 0.2858-0.4089-0.1243-0.1192-0.4519-0.1315-0.7337-0.02767l-8.05 2.968-15.29 0.5841c-0.3219 0.01239-0.6859 0.1682-0.8138 0.3496-0.1284 0.1824 0.03069 0.3216 0.3576 0.3082l23.13-0.8932 13.64 0.5461-0.9636 0.8473-8.177-0.0062h-7.84e-4c-0.07186 0-0.1469 0.0088-0.2212 0.02329l-10.97 2.269-18.84-1.522c-0.3096-0.02391-0.7259 0.1195-0.9319 0.3216-0.2075 0.2037-0.1232 0.3898 0.1898 0.4144l15.91 1.302-8.275 4.132c-0.3794 0.1893-0.558 0.4691-0.3963 0.6247 0.06973 0.06707 0.1919 0.09974 0.339 0.09974 0.1941 0 0.4309-0.05692 0.6473-0.1666l9.049-4.583z" style="fill:#e3fcff"/><path d="m125.6 38.05-43.21-4.345c-0.2087-0.02347-0.4182-0.01789-0.6148 0.01646l-7.07 1.237-4.053-2.436 3.065-2.159c0.245-0.172 0.35-0.3978 0.2913-0.6191-0.05849-0.2192-0.273-0.4131-0.5882-0.5327l-17.99-6.997c-0.4583-0.1732-0.781-0.2885-1.224-0.02415-0.4486 0.2673-0.1462 0.3617 0.3139 0.5389l16.21 7.291-2.659 1.794-47.2 5.207c-0.8938 0.1034-2.341 1.178-2.664 1.741-0.2895 0.5059-0.4338 1.446 0.3013 1.446 0.09741 0 0.202-0.0068 0.3118-0.01983l49.43-6.664 3.283 2.06-57.33 11.3c-1.09 0.2211-2.227 0.9805-2.54 1.709-0.2584 0.6008-0.5082 1.768 0.2595 1.768 0.1793 0 0.3791-0.02155 0.5958-0.06735l61.45-13.17 79.54 52.52c1.157 0.7342 2.191 1.101 2.933 1.101 0.7915 0 2.253-1.131 2.16-1.942-0.179-1.543-0.1726-3.908-2.488-5.286l-78.85-47 5.241-0.9472 45.12 5.583c0.9557 0.1114 1.095-0.6921 0.7394-1.286-0.3485-0.5838-1.846-1.691-2.753-1.792" style="fill:#1a588f"/><path d="m129.3 119.7c-0.2995 0-0.6328-0.0694-0.9798-0.2159l-117.9-47.49c-0.5738-0.2422-0.5881-0.8231-0.04145-1.293 0.54-0.4647 1.43-0.6513 1.997-0.4198l116.9 46.11c1.158 0.4724 1.418 1.285 1.366 2.259-0.0363 0.7017-0.6165 1.052-1.344 1.052" style="fill:#1a588f"/><path d="m4.673 70.92 105.8 44.16-123.9 4.746z" style="fill:#d4e2f4"/><path id="bluePath" d="m63.23 90.78-34-13.87 3.482-11.21 26.12-21.99-4.628-1.88 23.62-5.172-5.248-3.141 31.22-1.114s-0.5995-0.5007-0.6057-0.5005l-33.57 0.7764 5.325 3.55-24.71 5.088 6.248 2.703-24.84 21.37-3.902 12.22 33.88 14.41z" style="fill:#0f1117"/><g id="darkBlueMarker" transform="matrix(.5876 0 0 .5721 97.97 -22.06)"><path d="m-61.35 178.2c-3.447 0-6.242-2.795-6.242-6.243s2.795-6.243 6.242-6.243c3.448 0 6.243 2.795 6.243 6.243s-2.795 6.243-6.243 6.243m0.472 19.75c8.05-7.752 12.07-13.89 14.06-18.3 1.258-2.282 1.977-4.904 1.977-7.695 0-8.82-7.15-15.97-15.97-15.97-8.63 0-15.64 6.848-15.94 15.4h-0.02928c3.53e-4 0-2.977 9.894 13.91 26.56z" style="fill:#030609"/></g><path transform="matrix(.5876 0 0 .5721 102.3 -17.65)" d="m-204.2 4.624v261.9h306.9v-261.9zm70.14 69.08h168.5v131.4h-168.5z" style="fill:#f9fcff;filter:url(#filter1218);stroke-width:1.037"/><g id="whiteMarker" transform="matrix(.5876 0 0 .5721 100.1 -18.81)" style="fill:#030609"><path d="m-1.606 76.12h-0.01376s-1.46 4.85 6.817 13.02h0.9768c3.947-3.8 5.918-6.808 6.895-8.972 0.617-1.119 0.9698-2.404 0.9698-3.773 0-4.325-3.505-7.83-7.83-7.83-4.231 0-7.668 3.357-7.815 7.552m4.489 0.278c0-1.691 1.37-3.061 3.06-3.061 1.691 0 3.061 1.37 3.061 3.061s-1.37 3.06-3.061 3.06c-1.69 0-3.06-1.37-3.06-3.06" style="fill:#030609"/></g></svg>
