<svg width="79.85mm" height="155.4mm" version="1.1" viewBox="0 0 79.85 155.4" xmlns="http://www.w3.org/2000/svg"><g transform="translate(104.4 -20.37)"><g transform="matrix(.3528 0 0 -.3528 -24.57 165.1)" style="fill:none;stroke:#0f1117"><path d="m0 0-113-30.25v439.2l113-89.4z" style="fill:none;stroke:#0f1117"/></g><g transform="matrix(.3528 0 0 -.3528 -24.57 55.45)" style="fill:none;stroke:#0f1117"><path d="m0 0-113 86.12v12.12l113-89.4z" style="fill:none;stroke:#0f1117"/></g><g transform="matrix(.3528 0 0 -.3528 -50.26 76.48)" style="fill:none;stroke:#0f1117"><path d="m0 0-26.9 12.3v17.5l26.9-13.46z" style="fill:none;stroke:#0f1117"/></g><g transform="matrix(.3528 0 0 -.3528 -37.71 82.22)" style="fill:none;stroke:#0f1117"><path d="m0 0-21.92 10.02v15.75l21.92-10.97z" style="fill:none;stroke:#0f1117"/></g><g transform="matrix(.3528 0 0 -.3528 -27.2 87.02)" style="fill:none;stroke:#0f1117"><path d="m0 0-18.15 8.296v14.29l18.15-9.084z" style="fill:none;stroke:#0f1117"/></g><g transform="matrix(.3528 0 0 -.3528 -50.26 66.79)" style="fill:none;stroke:#0f1117"><path d="m0 0-26.9 14.25v17.5l26.9-15.42z" style="fill:none;stroke:#0f1117"/></g><g transform="matrix(.3528 0 0 -.3528 -37.71 73.44)" style="fill:none;stroke:#0f1117"><path d="m0 0-21.92 11.61v15.75l21.92-12.56z" style="fill:none;stroke:#0f1117"/></g><g transform="matrix(.3528 0 0 -.3528 -27.2 79.01)" style="fill:none;stroke:#0f1117"><path d="m0 0-18.15 9.615v14.3l18.15-10.41z" style="fill:none;stroke:#0f1117"/></g><g transform="matrix(.3528 0 0 -.3528 -50.26 57.1)" style="fill:none;stroke:#0f1117"><path d="m0 0-26.9 16.22v17.5l26.9-17.38z" style="fill:none;stroke:#0f1117"/></g><g transform="matrix(.3528 0 0 -.3528 -37.71 64.67)" style="fill:none;stroke:#0f1117"><path d="m0 0-21.92 13.21v15.75l21.92-14.16z" style="fill:none;stroke:#0f1117"/></g><g transform="matrix(.3528 0 0 -.3528 -27.2 71)" style="fill:none;stroke:#0f1117"><path d="m0 0-18.15 10.94v14.29l18.15-11.73z" style="fill:none;stroke:#0f1117"/></g><g transform="matrix(.3528 0 0 -.3528 -50.26 47.41)" style="fill:none;stroke:#0f1117"><path d="m0 0-26.9 18.18v17.5l26.9-19.34z" style="fill:none;stroke:#0f1117"/></g><g transform="matrix(.3528 0 0 -.3528 -37.71 55.89)" style="fill:none;stroke:#0f1117"><path d="m0 0-21.92 14.81v15.75l21.92-15.76z" style="fill:none;stroke:#0f1117"/></g><g transform="matrix(.3528 0 0 -.3528 -27.2 62.99)" style="fill:none;stroke:#0f1117"><path d="m0 0-18.15 12.26v14.3l18.15-13.05z" style="fill:none;stroke:#0f1117"/></g><g transform="matrix(.3528 0 0 -.3528 -50.26 86.17)" style="fill:none;stroke:#0f1117"><path d="m0 0-26.9 10.34v17.5l26.9-11.5z" style="fill:none;stroke:#0f1117"/></g><g transform="matrix(.3528 0 0 -.3528 -37.71 91)" style="fill:none;stroke:#0f1117"><path d="m0 0-21.92 8.42v15.75l21.92-9.372z" style="fill:none;stroke:#0f1117"/></g><g transform="matrix(.3528 0 0 -.3528 -27.2 95.03)" style="fill:none;stroke:#0f1117"><path d="m0 0-18.15 6.976v14.29l18.15-7.757z" style="fill:none;stroke:#0f1117"/></g><g transform="matrix(.3528 0 0 -.3528 -50.26 95.87)" style="fill:none;stroke:#0f1117"><path d="m0 0-26.9 8.373v17.51l26.9-9.537z" style="fill:none;stroke:#0f1117"/></g><g transform="matrix(.3528 0 0 -.3528 -37.71 99.77)" style="fill:none;stroke:#0f1117"><path d="m0 0-21.92 6.824v15.75l21.92-7.771z" style="fill:none;stroke:#0f1117"/></g><g transform="matrix(.3528 0 0 -.3528 -27.2 103)" style="fill:none;stroke:#0f1117"><path d="m0 0-18.15 5.651v14.3l18.15-6.439z" style="fill:none;stroke:#0f1117"/></g><g transform="matrix(.3528 0 0 -.3528 -50.26 105.6)" style="fill:none;stroke:#0f1117"><path d="m0 0-26.9 6.415v17.51l26.9-7.58z" style="fill:none;stroke:#0f1117"/></g><g transform="matrix(.3528 0 0 -.3528 -37.71 108.6)" style="fill:none;stroke:#0f1117"><path d="m0 0-21.92 5.224v15.75l21.92-6.177z" style="fill:none;stroke:#0f1117"/></g><g transform="matrix(.3528 0 0 -.3528 -27.2 111.1)" style="fill:none;stroke:#0f1117"><path d="m0 0-18.15 4.328v14.3l18.15-5.114z" style="fill:none;stroke:#0f1117"/></g><g transform="matrix(.3528 0 0 -.3528 -50.26 115.3)" style="fill:none;stroke:#0f1117"><path d="m0 0-26.9 4.448v17.51l26.9-5.615z" style="fill:none;stroke:#0f1117"/></g><g transform="matrix(.3528 0 0 -.3528 -37.71 117.3)" style="fill:none;stroke:#0f1117"><path d="m0 0-21.92 3.628v15.75l21.92-4.581z" style="fill:none;stroke:#0f1117"/></g><g transform="matrix(.3528 0 0 -.3528 -27.2 119.1)" style="fill:none;stroke:#0f1117"><path d="m0 0-18.15 3.005v14.29l18.15-3.793z" style="fill:none;stroke:#0f1117"/></g><g transform="matrix(.3528 0 0 -.3528 -50.26 124.9)" style="fill:none;stroke:#0f1117"><path d="m0 0-26.9 2.493v17.51l26.9-3.659z" style="fill:none;stroke:#0f1117"/></g><g transform="matrix(.3528 0 0 -.3528 -37.71 126.1)" style="fill:none;stroke:#0f1117"><path d="m0 0-21.92 2.028v15.75l21.92-2.983z" style="fill:none;stroke:#0f1117"/></g><g transform="matrix(.3528 0 0 -.3528 -27.2 127.1)" style="fill:none;stroke:#0f1117"><path d="m0 0-18.15 1.683v14.29l18.15-2.463z" style="fill:none;stroke:#0f1117"/></g><g transform="matrix(.3528 0 0 -.3528 -50.26 134.6)" style="fill:none;stroke:#0f1117"><path d="m0 0-26.9 0.533v17.5l26.9-1.699z" style="fill:none;stroke:#0f1117"/></g><g transform="matrix(.3528 0 0 -.3528 -37.71 134.9)" style="fill:none;stroke:#0f1117"><path d="m0 0-21.92 0.434v15.74l21.92-1.382z" style="fill:none;stroke:#0f1117"/></g><g transform="matrix(.3528 0 0 -.3528 -27.2 136)" style="fill:none;stroke:#0f1117"><path d="m0 0-18.15 0.361v14.3l18.15-1.147z" style="fill:none;stroke:#0f1117"/></g><g transform="matrix(.3528 0 0 -.3528 -50.26 144.3)" style="fill:none;stroke:#0f1117"><path d="m0 0-26.9-1.431v17.51l26.9 0.261z" style="fill:none;stroke:#0f1117"/></g><g transform="matrix(.3528 0 0 -.3528 -37.71 143.7)" style="fill:none;stroke:#0f1117"><path d="m0 0-21.92-1.158v15.75l21.92 0.213z" style="fill:none;stroke:#0f1117"/></g><g transform="matrix(.3528 0 0 -.3528 -27.2 144.9)" style="fill:none;stroke:#0f1117"><path d="m0 0-18.15-0.963v14.3l18.15 0.175z" style="fill:none;stroke:#0f1117"/></g><g transform="matrix(.3528 0 0 -.3528 -50.26 153.2)" style="fill:none;stroke:#0f1117"><path d="m0 0-26.9-3.215v17.5l26.9 2.049z" style="fill:none;stroke:#0f1117"/></g><g transform="matrix(.3528 0 0 -.3528 -37.71 151.7)" style="fill:none;stroke:#0f1117"><path d="m0 0-21.92-2.62v15.75l21.92 1.671z" style="fill:none;stroke:#0f1117"/></g><g transform="matrix(.3528 0 0 -.3528 -27.2 165.8)" style="fill:none;stroke:#0f1117"><path d="m0 0-18.15-4.806v47.84l18.15 1.379z" style="fill:none;stroke:#0f1117"/></g><g transform="matrix(.3528 0 0 -.3528 -50.26 162)" style="fill:none;stroke:#0f1117"><path d="m0 0-26.9-5.009v17.5l26.9 3.844z" style="fill:none;stroke:#0f1117"/></g><g transform="matrix(.3528 0 0 -.3528 -37.71 159.7)" style="fill:none;stroke:#0f1117"><path d="m0 0-21.92-4.076v15.75l21.92 3.127z" style="fill:none;stroke:#0f1117"/></g><g transform="matrix(.3528 0 0 -.3528 -64.42 175.7)" style="fill:none;stroke:#0f1117"><path d="m0 0-113.4 29.64v320.7l113.4 90.06z" style="fill:none;stroke:#0f1117"/></g><g transform="matrix(.3528 0 0 -.3528 -64.42 24.67)" style="fill:none;stroke:#0f1117"><path d="m0 0-113.4-86.74v8.869l113.4 90.06z" style="fill:none;stroke:#0f1117"/></g><g transform="matrix(.3528 0 0 -.3528 -95.36 84.01)" style="fill:none;stroke:#0f1117"><path d="m0 0-18.2-8.34v13.55l18.2 9.132z" style="fill:none;stroke:#0f1117"/></g><g transform="matrix(.3528 0 0 -.3528 -83.65 78.64)" style="fill:none;stroke:#0f1117"><path d="m0 0-21.93-10.05v14.84l21.93 11.01z" style="fill:none;stroke:#0f1117"/></g><g transform="matrix(.3528 0 0 -.3528 -69.11 71.98)" style="fill:none;stroke:#0f1117"><path d="m0 0-27.02-12.38v16.41l27.02 13.56z" style="fill:none;stroke:#0f1117"/></g><g transform="matrix(.3528 0 0 -.3528 -95.36 75.49)" style="fill:none;stroke:#0f1117"><path d="m0 0-18.2-9.678v13.56l18.2 10.47z" style="fill:none;stroke:#0f1117"/></g><g transform="matrix(.3528 0 0 -.3528 -83.65 69.27)" style="fill:none;stroke:#0f1117"><path d="m0 0-21.93-11.66v14.84l21.93 12.61z" style="fill:none;stroke:#0f1117"/></g><g transform="matrix(.3528 0 0 -.3528 -69.11 61.55)" style="fill:none;stroke:#0f1117"><path d="m0 0-27.02-14.36v16.42l27.02 15.53z" style="fill:none;stroke:#0f1117"/></g><g transform="matrix(.3528 0 0 -.3528 -95.36 66.98)" style="fill:none;stroke:#0f1117"><path d="m0 0-18.2-11.01v13.56l18.2 11.8z" style="fill:none;stroke:#0f1117"/></g><g transform="matrix(.3528 0 0 -.3528 -83.65 59.9)" style="fill:none;stroke:#0f1117"><path d="m0 0-21.93-13.27v14.84l21.93 14.22z" style="fill:none;stroke:#0f1117"/></g><g transform="matrix(.3528 0 0 -.3528 -69.11 51.11)" style="fill:none;stroke:#0f1117"><path d="m0 0-27.02-16.34v16.41l27.02 17.51z" style="fill:none;stroke:#0f1117"/></g><g transform="matrix(.3528 0 0 -.3528 -95.36 58.47)" style="fill:none;stroke:#0f1117"><path d="m0 0-18.2-12.34v13.55l18.2 13.14z" style="fill:none;stroke:#0f1117"/></g><g transform="matrix(.3528 0 0 -.3528 -83.65 50.54)" style="fill:none;stroke:#0f1117"><path d="m0 0-21.93-14.87v14.84l21.93 15.83z" style="fill:none;stroke:#0f1117"/></g><g transform="matrix(.3528 0 0 -.3528 -69.11 40.68)" style="fill:none;stroke:#0f1117"><path d="m0 0-27.02-18.32v16.42l27.02 19.49z" style="fill:none;stroke:#0f1117"/></g><g transform="matrix(.3528 0 0 -.3528 -95.36 92.52)" style="fill:none;stroke:#0f1117"><path d="m0 0-18.2-7.013v13.56l18.2 7.803z" style="fill:none;stroke:#0f1117"/></g><g transform="matrix(.3528 0 0 -.3528 -83.65 88.01)" style="fill:none;stroke:#0f1117"><path d="m0 0-21.93-8.447v14.84l21.93 9.403z" style="fill:none;stroke:#0f1117"/></g><g transform="matrix(.3528 0 0 -.3528 -69.11 82.41)" style="fill:none;stroke:#0f1117"><path d="m0 0-27.02-10.4v16.41l27.02 11.58z" style="fill:none;stroke:#0f1117"/></g><g transform="matrix(.3528 0 0 -.3528 -95.36 101)" style="fill:none;stroke:#0f1117"><path d="m0 0-18.2-5.676v13.56l18.2 6.47z" style="fill:none;stroke:#0f1117"/></g><g transform="matrix(.3528 0 0 -.3528 -83.65 97.38)" style="fill:none;stroke:#0f1117"><path d="m0 0-21.93-6.837v14.84l21.93 7.795z" style="fill:none;stroke:#0f1117"/></g><g transform="matrix(.3528 0 0 -.3528 -69.11 92.85)" style="fill:none;stroke:#0f1117"><path d="m0 0-27.02-8.422v16.41l27.02 9.603z" style="fill:none;stroke:#0f1117"/></g><g transform="matrix(.3528 0 0 -.3528 -95.36 109.5)" style="fill:none;stroke:#0f1117"><path d="m0 0-18.2-4.346v13.56l18.2 5.138z" style="fill:none;stroke:#0f1117"/></g><g transform="matrix(.3528 0 0 -.3528 -83.65 106.7)" style="fill:none;stroke:#0f1117"><path d="m0 0-21.93-5.233v14.84l21.93 6.185z" style="fill:none;stroke:#0f1117"/></g><g transform="matrix(.3528 0 0 -.3528 -69.11 103.3)" style="fill:none;stroke:#0f1117"><path d="m0 0-27.02-6.443v16.42l27.02 7.621z" style="fill:none;stroke:#0f1117"/></g><g transform="matrix(.3528 0 0 -.3528 -95.36 118.1)" style="fill:none;stroke:#0f1117"><path d="m0 0-18.2-3.01v13.56l18.2 3.799z" style="fill:none;stroke:#0f1117"/></g><g transform="matrix(.3528 0 0 -.3528 -83.65 116.1)" style="fill:none;stroke:#0f1117"><path d="m0 0-21.93-3.625v14.84l21.93 4.581z" style="fill:none;stroke:#0f1117"/></g><g transform="matrix(.3528 0 0 -.3528 -69.11 113.7)" style="fill:none;stroke:#0f1117"><path d="m0 0-27.02-4.465v16.41l27.02 5.646z" style="fill:none;stroke:#0f1117"/></g><g transform="matrix(.3528 0 0 -.3528 -95.36 126.6)" style="fill:none;stroke:#0f1117"><path d="m0 0-18.2-1.676v13.55l18.2 2.474z" style="fill:none;stroke:#0f1117"/></g><g transform="matrix(.3528 0 0 -.3528 -83.65 125.5)" style="fill:none;stroke:#0f1117"><path d="m0 0-21.93-2.017v14.84l21.93 2.974z" style="fill:none;stroke:#0f1117"/></g><g transform="matrix(.3528 0 0 -.3528 -69.11 124.1)" style="fill:none;stroke:#0f1117"><path d="m0 0-27.02-2.486v16.42l27.02 3.665z" style="fill:none;stroke:#0f1117"/></g><g transform="matrix(.3528 0 0 -.3528 -95.36 135.1)" style="fill:none;stroke:#0f1117"><path d="m0 0-18.2-0.347v13.56l18.2 1.134z" style="fill:none;stroke:#0f1117"/></g><g transform="matrix(.3528 0 0 -.3528 -83.65 134.9)" style="fill:none;stroke:#0f1117"><path d="m0 0-21.93-0.413v14.83l21.93 1.371z" style="fill:none;stroke:#0f1117"/></g><g transform="matrix(.3528 0 0 -.3528 -69.11 134.6)" style="fill:none;stroke:#0f1117"><path d="m0 0-27.02-0.511v16.41l27.02 1.685z" style="fill:none;stroke:#0f1117"/></g><g transform="matrix(.3528 0 0 -.3528 -95.36 143.6)" style="fill:none;stroke:#0f1117"><path d="m0 0-18.2 0.99v13.56l18.2-0.198z" style="fill:none;stroke:#0f1117"/></g><g transform="matrix(.3528 0 0 -.3528 -83.65 144.2)" style="fill:none;stroke:#0f1117"><path d="m0 0-21.93 1.194v14.84l21.93-0.235z" style="fill:none;stroke:#0f1117"/></g><g transform="matrix(.3528 0 0 -.3528 -69.11 145)" style="fill:none;stroke:#0f1117"><path d="m0 0-27.02 1.469v16.41l27.02-0.292z" style="fill:none;stroke:#0f1117"/></g><g transform="matrix(.3528 0 0 -.3528 -69.11 155)" style="fill:none;stroke:#0f1117"><path d="m0 0-27.02 3.206v16.42l27.02-2.031z" style="fill:none;stroke:#0f1117"/></g><g transform="matrix(.3528 0 0 -.3528 -69.11 164.4)" style="fill:none;stroke:#0f1117"><path d="m0 0-27.02 5.814v16.41l27.02-4.637z" style="fill:none;stroke:#0f1117"/></g><g transform="matrix(.3528 0 0 -.3528 -95.36 151.4)" style="fill:none;stroke:#0f1117"><path d="m0 0-18.2 2.205v13.56l18.2-1.411z" style="fill:none;stroke:#0f1117"/></g><g transform="matrix(.3528 0 0 -.3528 -83.65 152.8)" style="fill:none;stroke:#0f1117"><path d="m0 0-21.93 2.657v14.84l21.93-1.704z" style="fill:none;stroke:#0f1117"/></g><g transform="matrix(.3528 0 0 -.3528 -95.36 159.1)" style="fill:none;stroke:#0f1117"><path d="m0 0-18.2 3.424v13.56l18.2-2.63z" style="fill:none;stroke:#0f1117"/></g><g transform="matrix(.3528 0 0 -.3528 -83.65 161.3)" style="fill:none;stroke:#0f1117"><path d="m0 0-21.93 4.127v14.84l21.93-3.172z" style="fill:none;stroke:#0f1117"/></g></g></svg>
