<?xml version="1.0" encoding="UTF-8" standalone="no"?>
<!-- Created with Inkscape (http://www.inkscape.org/) -->

<svg
   xmlns:dc="http://purl.org/dc/elements/1.1/"
   xmlns:cc="http://creativecommons.org/ns#"
   xmlns:rdf="http://www.w3.org/1999/02/22-rdf-syntax-ns#"
   xmlns:svg="http://www.w3.org/2000/svg"
   xmlns="http://www.w3.org/2000/svg"
   xmlns:sodipodi="http://sodipodi.sourceforge.net/DTD/sodipodi-0.dtd"
   xmlns:inkscape="http://www.inkscape.org/namespaces/inkscape"
   width="65.999992mm"
   height="65.999992mm"
   viewBox="0 0 65.999993 65.999993"
   version="1.1"
   id="svg8"
   inkscape:version="0.92.3 (2405546, 2018-03-11)"
   sodipodi:docname="MBLogo.svg">
  <defs
     id="defs2">
    <inkscape:path-effect
       effect="bspline"
       id="path-effect1322"
       is_visible="true"
       weight="33.333333"
       steps="2"
       helper_size="0"
       apply_no_weight="true"
       apply_with_weight="true"
       only_selected="false" />
    <inkscape:path-effect
       effect="bspline"
       id="path-effect1312"
       is_visible="true"
       weight="33.333333"
       steps="2"
       helper_size="0"
       apply_no_weight="true"
       apply_with_weight="true"
       only_selected="false" />
    <inkscape:path-effect
       effect="spiro"
       id="path-effect1308"
       is_visible="true" />
    <inkscape:path-effect
       effect="bspline"
       id="path-effect1302"
       is_visible="true"
       weight="33.333333"
       steps="2"
       helper_size="0"
       apply_no_weight="true"
       apply_with_weight="true"
       only_selected="false" />
    <inkscape:path-effect
       effect="bspline"
       id="path-effect1272"
       is_visible="true"
       weight="33.333333"
       steps="2"
       helper_size="0"
       apply_no_weight="true"
       apply_with_weight="true"
       only_selected="false" />
  </defs>
  <sodipodi:namedview
     id="base"
     pagecolor="#ffffff"
     bordercolor="#666666"
     borderopacity="1.0"
     inkscape:pageopacity="0.0"
     inkscape:pageshadow="2"
     inkscape:zoom="1.4"
     inkscape:cx="263.79052"
     inkscape:cy="101.23416"
     inkscape:document-units="mm"
     inkscape:current-layer="layer1"
     showgrid="false"
     showguides="true"
     inkscape:guide-bbox="true"
     inkscape:window-width="1366"
     inkscape:window-height="749"
     inkscape:window-x="-4"
     inkscape:window-y="-4"
     inkscape:window-maximized="1">
    <sodipodi:guide
       position="-71.696674,-134.96289"
       orientation="0,1"
       id="guide1052"
       inkscape:locked="false" />
    <sodipodi:guide
       position="11,10.690781"
       orientation="1,0"
       id="guide1058"
       inkscape:locked="false"
       inkscape:label=""
       inkscape:color="rgb(0,0,255)" />
    <sodipodi:guide
       position="-132.4334,-225.4432"
       orientation="0,1"
       id="guide1060"
       inkscape:locked="false"
       inkscape:label=""
       inkscape:color="rgb(0,0,255)" />
    <sodipodi:guide
       position="55,5.3453906"
       orientation="1,0"
       id="guide1064"
       inkscape:locked="false"
       inkscape:label=""
       inkscape:color="rgb(0,0,255)" />
    <sodipodi:guide
       position="33,15.768902"
       orientation="1,0"
       id="guide1274"
       inkscape:locked="false"
       inkscape:label=""
       inkscape:color="rgb(0,0,255)" />
    <sodipodi:guide
       position="33.141422,22"
       orientation="0,1"
       id="guide1276"
       inkscape:locked="false"
       inkscape:label=""
       inkscape:color="rgb(0,0,255)" />
    <sodipodi:guide
       position="22,44.099"
       orientation="0,1"
       id="guide1278"
       inkscape:locked="false"
       inkscape:label=""
       inkscape:color="rgb(0,0,255)" />
    <sodipodi:guide
       position="0,55"
       orientation="0,1"
       id="guide1280"
       inkscape:locked="false"
       inkscape:label=""
       inkscape:color="rgb(0,0,255)" />
    <sodipodi:guide
       position="33,11"
       orientation="0,1"
       id="guide1282"
       inkscape:locked="false"
       inkscape:label=""
       inkscape:color="rgb(0,0,255)" />
    <sodipodi:guide
       position="22,-11.22532"
       orientation="1,0"
       id="guide1284"
       inkscape:locked="false"
       inkscape:label=""
       inkscape:color="rgb(0,0,255)" />
    <sodipodi:guide
       position="44,0.13228513"
       orientation="1,0"
       id="guide1286"
       inkscape:locked="false"
       inkscape:label=""
       inkscape:color="rgb(0,0,255)" />
    <sodipodi:guide
       position="44,66"
       orientation="0,1"
       id="guide1288"
       inkscape:locked="false"
       inkscape:label=""
       inkscape:color="rgb(0,0,255)" />
    <sodipodi:guide
       position="33,0"
       orientation="0,1"
       id="guide1290"
       inkscape:locked="false"
       inkscape:label=""
       inkscape:color="rgb(0,0,255)" />
    <sodipodi:guide
       position="0,0"
       orientation="1,0"
       id="guide1292"
       inkscape:locked="false"
       inkscape:label=""
       inkscape:color="rgb(0,0,255)" />
    <sodipodi:guide
       position="66,0"
       orientation="1,0"
       id="guide1294"
       inkscape:locked="false"
       inkscape:label=""
       inkscape:color="rgb(0,0,255)" />
    <sodipodi:guide
       position="0,33"
       orientation="0,1"
       id="guide1296"
       inkscape:locked="false"
       inkscape:label=""
       inkscape:color="rgb(0,0,255)" />
    <sodipodi:guide
       position="7.349912,38.5"
       orientation="0,1"
       id="guide1298"
       inkscape:locked="false"
       inkscape:label=""
       inkscape:color="rgb(0,0,255)" />
  </sodipodi:namedview>
  <metadata
     id="metadata5">
    <rdf:RDF>
      <cc:Work
         rdf:about="">
        <dc:format>image/svg+xml</dc:format>
        <dc:type
           rdf:resource="http://purl.org/dc/dcmitype/StillImage" />
        <dc:title></dc:title>
      </cc:Work>
    </rdf:RDF>
  </metadata>
  <g
     inkscape:label="Layer 1"
     inkscape:groupmode="layer"
     id="layer1"
     transform="translate(-132.4334,-5.5568072)">
    <path
       sodipodi:type="star"
       style="opacity:1;fill:none;fill-opacity:1;stroke:#0b0d21;stroke-width:0.20103985;stroke-linecap:round;stroke-linejoin:round;stroke-miterlimit:4;stroke-dasharray:none;stroke-dashoffset:0;stroke-opacity:1;paint-order:normal"
       id="path1029-4-9-8-3"
       sodipodi:sides="3"
       sodipodi:cx="187.75819"
       sodipodi:cy="26.89098"
       sodipodi:r1="12.701706"
       sodipodi:r2="6.3508534"
       sodipodi:arg1="0.52359878"
       sodipodi:arg2="1.5707963"
       inkscape:flatsided="true"
       inkscape:rounded="0"
       inkscape:randomized="0"
       d="m 198.75819,33.241833 -22,0 11,-19.052559 z"
       inkscape:transform-center-y="-5.5000039"
       inkscape:transform-center-x="8.9621817e-006"
       transform="matrix(1,0,0,1.7320508,-0.3247942,13.980257)" />
    <path
       sodipodi:type="star"
       style="opacity:1;fill:none;fill-opacity:1;stroke:#0b0d21;stroke-width:0.20103985;stroke-linecap:round;stroke-linejoin:round;stroke-miterlimit:4;stroke-dasharray:none;stroke-dashoffset:0;stroke-opacity:1;paint-order:normal"
       id="path1029-4-9-8-05"
       sodipodi:sides="3"
       sodipodi:cx="187.75819"
       sodipodi:cy="26.89098"
       sodipodi:r1="12.701706"
       sodipodi:r2="6.3508534"
       sodipodi:arg1="0.52359878"
       sodipodi:arg2="1.5707963"
       inkscape:flatsided="true"
       inkscape:rounded="0"
       inkscape:randomized="0"
       d="m 198.75819,33.241833 -22,0 11,-19.052559 z"
       inkscape:transform-center-y="-5.5000039"
       inkscape:transform-center-x="8.9621817e-006"
       transform="matrix(1,0,0,1.7320508,-44.324794,13.980257)" />
    <text
       xml:space="preserve"
       style="font-style:normal;font-variant:normal;font-weight:normal;font-stretch:normal;font-size:21.15678978px;line-height:1.25;font-family:'Harlow Solid Italic';-inkscape-font-specification:'Harlow Solid Italic, ';letter-spacing:0px;word-spacing:0px;fill:none;fill-opacity:1;stroke:#000000;stroke-width:0.26458335;stroke-opacity:1"
       x="152.74773"
       y="31.248497"
       id="text1326"
       transform="scale(1.0264497,0.97423187)"><tspan
         sodipodi:role="line"
         id="tspan1324"
         x="152.74773"
         y="31.248497"
         style="font-style:normal;font-variant:normal;font-weight:normal;font-stretch:normal;font-family:'Harlow Solid Italic';-inkscape-font-specification:'Harlow Solid Italic, ';fill:none;fill-opacity:1;stroke:#000000;stroke-width:0.26458335;stroke-opacity:1">B</tspan></text>
    <path
       style="fill:#000000;fill-opacity:1;fill-rule:nonzero;stroke:none;stroke-width:0.13333334"
       d="m 125.00586,-0.00585938 c -0.44095,0.00455613 -0.88327,0.01686113 -1.32617,0.02343751 -0.88551,0.01917732 -1.77622,0.02689574 -2.66407,0.05664062 -0.87851,0.0602948 -1.76083,0.12092629 -2.64453,0.18164063 -0.44228,0.030463 -0.88546,0.0620142 -1.32812,0.0917969 -0.48272,0.0440504 -0.90244,0.10242286 -1.35742,0.15429687 -0.89284,0.10784126 -1.78828,0.21513492 -2.6875,0.32226563 -0.89741,0.1179874 -1.78835,0.29711812 -2.6875,0.44335932 -1.8045,0.2683076 -3.58386,0.7144673 -5.38477,1.109375 -3.5701,0.910515 -7.158257,1.9640166 -10.650389,3.3808594 -1.77241,0.6437121 -3.476237,1.4732264 -5.21875,2.2363281 -0.856895,0.4123049 -1.70025,0.8558777 -2.554688,1.2832032 l -1.279297,0.6523437 -1.248047,0.7109375 c -6.705637,3.742162 -12.97701,8.530258 -18.548828,14.154297 -0.683905,0.715483 -1.368287,1.432409 -2.054687,2.15039 -0.674079,0.728618 -1.306236,1.497385 -1.962891,2.246094 -0.323641,0.378422 -0.654798,0.750664 -0.972656,1.134766 l -0.923828,1.177734 -0.923828,1.181641 c -0.308863,0.393479 -0.622344,0.784393 -0.904297,1.199219 -0.579137,0.817081 -1.159435,1.634275 -1.740235,2.453125 -0.573807,0.82391 -1.090892,1.687731 -1.640625,2.53125 -0.269442,0.425136 -0.546735,0.846293 -0.810546,1.27539 l -0.751954,1.310547 -0.755859,1.314453 c -0.252699,0.437465 -0.506279,0.873788 -0.728516,1.328125 -0.460686,0.900533 -0.921218,1.802697 -1.382812,2.705078 -0.451276,0.906974 -0.845418,1.841811 -1.271485,2.763672 -0.206324,0.463472 -0.423046,0.924552 -0.621093,1.392578 l -0.560547,1.417969 -0.560547,1.419922 -0.28125,0.710937 c -0.09146,0.237665 -0.165717,0.479797 -0.25,0.720704 -0.325002,0.966066 -0.651145,1.93316 -0.976563,2.90039 -0.310752,0.971917 -0.566208,1.961797 -0.851562,2.94336 -0.135572,0.492415 -0.283857,0.982853 -0.408203,1.478515 l -0.345703,1.494141 -0.34375,1.498047 -0.171875,0.748047 c -0.05631,0.250439 -0.09225,0.502643 -0.140625,0.753906 l -0.541016,3.027344 c -0.102047,0.502631 -0.142277,1.015442 -0.214844,1.523437 l -0.193359,1.527344 -0.191406,1.527344 -0.119141,1.535156 -0.117187,1.537109 c -0.03477,0.512474 -0.09212,1.022799 -0.09375,1.53711 l -0.08203,3.082031 c -0.0021,0.1448 -0.0039,0.289174 -0.0078,0.433594 h 1.59375 c 0.0033,-0.13932 0.0036,-0.278587 0.0078,-0.417969 l 0.07422,-3.023438 c 3.78e-4,-0.504434 0.05583,-1.006721 0.08984,-1.509765 l 0.113281,-1.50586 0.111328,-1.507812 0.1875,-1.5 0.1875,-1.498047 c 0.06954,-0.498641 0.10763,-1.000712 0.207031,-1.494141 L 44.625,67.345703 c 0.04573,-0.247404 0.08154,-0.494943 0.136719,-0.740234 l 0.167969,-0.736328 0.335937,-1.46875 0.333984,-1.466797 C 45.720819,62.446885 45.867717,61.965997 46,61.482422 c 0.278702,-0.963723 0.524251,-1.936139 0.828125,-2.890625 0.317216,-0.949826 0.63407,-1.900774 0.951172,-2.849609 0.08164,-0.236493 0.154944,-0.475712 0.244141,-0.708985 l 0.271484,-0.697265 0.544922,-1.396485 0.542968,-1.396484 c 0.191434,-0.460732 0.403201,-0.912873 0.603516,-1.369141 0.413972,-0.906962 0.795572,-1.829285 1.234375,-2.722656 0.449386,-0.888121 0.89914,-1.775791 1.347656,-2.66211 0.215282,-0.448304 0.462938,-0.877565 0.708985,-1.308593 l 0.734375,-1.292969 0.734375,-1.294922 c 0.256705,-0.423167 0.526385,-0.836441 0.789062,-1.255859 0.536391,-0.831183 1.041399,-1.681282 1.601563,-2.494141 0.567042,-0.808316 1.131508,-1.61617 1.697265,-2.421875 0.275755,-0.408552 0.580829,-0.795893 0.882813,-1.183594 l 0.904297,-1.164062 0.902344,-1.164063 c 0.310828,-0.378977 0.634825,-0.747147 0.951171,-1.121093 0.642482,-0.739404 1.258593,-1.498856 1.917969,-2.21875 0.669468,-0.711769 1.337828,-1.421904 2.00586,-2.13086 5.437757,-5.57701 11.576873,-10.343826 18.158203,-14.085937 L 85.78125,10.9375 87.039062,10.287109 c 0.838564,-0.4295762 1.66649,-0.8750334 2.507813,-1.2890621 1.713184,-0.7655736 3.388938,-1.5976576 5.132813,-2.2460938 3.436233,-1.4271001 6.971032,-2.4959907 10.492192,-3.4238281 1.77611,-0.4047005 3.53049,-0.8595689 5.3125,-1.1386719 0.88735,-0.1520753 1.76727,-0.3371239 2.65429,-0.4609375 0.88838,-0.1136088 1.77504,-0.2264503 2.65821,-0.3398437 0.44057,-0.053877 0.8843,-0.1184521 1.32031,-0.1621094 0.44292,-0.033778 0.88645,-0.068114 1.32812,-0.1015625 0.88328,-0.067521 1.76283,-0.13578516 2.64063,-0.203125 0.87844,-0.0366009 1.7543,-0.0508868 2.62695,-0.0761719 0.87281,-0.0204506 1.74231,-0.06188 2.60938,-0.0214844 0.86796,0.0210595 1.73262,0.0435901 2.59375,0.0644531 l 0.64648,0.0136719 0.64258,0.0488281 c 0.42875,0.030206 0.85458,0.0656559 1.28125,0.0957031 0.85236,0.072624 1.70558,0.1093863 2.54883,0.2089844 0.8431,0.1042167 1.68244,0.2128132 2.51953,0.3164062 0.4179,0.051545 0.83673,0.1000316 1.25195,0.1601563 0.41322,0.073497 0.82662,0.1451512 1.23828,0.21875 0.82386,0.1455356 1.64362,0.2894841 2.46094,0.4335937 0.81358,0.164403 1.61632,0.3622705 2.41992,0.5410156 0.80032,0.1928028 1.60883,0.3409021 2.39063,0.5800782 6.31245,1.6808753 12.20716,4.0398454 17.56445,6.8671877 5.35948,2.830901 10.1522,6.165384 14.38281,9.710937 4.22941,3.551989 7.88087,7.341266 10.98828,11.158204 3.10643,3.818286 5.69403,7.653763 7.76563,11.376953 0.55604,0.909747 1.00673,1.852397 1.48242,2.755859 0.46862,0.907499 0.94336,1.78831 1.33008,2.685547 0.40547,0.888079 0.80089,1.754994 1.1875,2.601562 0.34598,0.864031 0.68328,1.706786 1.01172,2.527344 2.58368,6.58859 3.75844,12.057775 4.38672,15.785156 0.0839,0.466061 0.16495,0.903528 0.23828,1.314453 0.0737,0.410899 0.10869,0.801341 0.1582,1.158204 0.0926,0.715971 0.16773,1.319744 0.23047,1.804687 0.1217,0.97098 0.18555,1.470703 0.18555,1.470703 0,0 0.0407,0.503484 0.11328,1.480469 0.0385,0.487861 0.0831,1.095892 0.13867,1.816406 0.0234,0.360378 0.0706,0.748208 0.0781,1.166016 0.0113,0.417222 0.0238,0.862778 0.0352,1.335937 0.0245,0.671858 0.0297,1.469212 0.0371,2.253907 h 0.17187 c -0.009,-0.788436 -0.017,-1.588346 -0.043,-2.263672 -0.0151,-0.474441 -0.0258,-0.922704 -0.0371,-1.341797 -0.006,-0.418794 -0.0554,-0.80594 -0.0781,-1.166016 -0.0556,-0.720816 -0.10283,-1.327966 -0.14062,-1.816406 -0.0767,-0.976105 -0.11524,-1.480469 -0.11524,-1.480469 l 0.002,-0.0039 v -0.002 c 1e-5,0 -0.0658,-0.50177 -0.1875,-1.47461 -0.0631,-0.486122 -0.139,-1.08873 -0.23046,-1.80664 -0.0503,-0.357933 -0.0845,-0.748358 -0.15821,-1.160156 -0.0733,-0.411924 -0.15047,-0.853171 -0.23437,-1.320313 -0.62226,-3.735949 -1.79173,-9.218215 -4.36914,-15.828125 -0.32754,-0.82323 -0.6635,-1.668514 -1.00782,-2.535156 -0.38611,-0.849475 -0.78057,-1.719915 -1.18554,-2.611328 -0.38616,-0.900492 -0.86007,-1.784371 -1.32813,-2.695313 -0.47516,-0.907086 -0.92724,-1.852196 -1.48242,-2.765625 -2.07307,-3.734853 -4.63853,-7.601762 -7.74023,-11.447265 -3.0991,-3.845352 -6.74652,-7.666681 -10.97657,-11.25586 -2.10519,-1.806553 -4.38313,-3.513384 -6.76953,-5.185547 -0.58359,-0.436814 -1.2171,-0.809472 -1.83203,-1.214843 -0.61931,-0.399264 -1.24249,-0.801599 -1.86914,-1.205079 -0.63579,-0.388748 -1.29076,-0.752157 -1.94141,-1.132812 -0.65582,-0.370898 -1.30108,-0.772948 -1.97656,-1.1250001 -5.36598,-2.8875409 -11.28054,-5.3093281 -17.6289,-7.0546875 -0.78607,-0.2478108 -1.59926,-0.402509 -2.4043,-0.6035156 -0.80848,-0.1863931 -1.61656,-0.3926132 -2.43555,-0.5644531 -0.8228,-0.1526623 -1.64879,-0.3056754 -2.47851,-0.4589844 -0.41458,-0.076653 -0.83215,-0.1521343 -1.24805,-0.2304688 -0.4187,-0.0653026 -0.84011,-0.11738086 -1.26172,-0.1738281 -0.84295,-0.11279622 -1.6895,-0.22588721 -2.53906,-0.33984375 -0.85036,-0.10721008 -1.70844,-0.15177521 -2.56836,-0.23046875 -0.43045,-0.0350702 -0.86258,-0.0699034 -1.29492,-0.10546875 l -0.64844,-0.0527344 -0.65234,-0.0214844 c -0.86926,-0.02783244 -1.74178,-0.05717529 -2.61719,-0.0859375 -0.43716,-0.02366778 -0.87741,-0.0260405 -1.31836,-0.02148438 z"
       transform="matrix(0.26458333,0,0,0.26458333,132.4334,5.5568072)"
       id="path1350-4"
       inkscape:connector-curvature="0" />
    <path
       d="M 166.00192,71.085 187.4334,27.4578 176.52419,38.535544 Z m 21.43148,-43.6272 -21.39957,44.050313 -0.0998,0.04869 10.48887,-32.987223 0.0105,-0.01278 11,-11.099"
       style="fill:#000000;fill-opacity:1;fill-rule:nonzero;stroke:none;stroke-width:0.03527777"
       id="path1372-5-4"
       inkscape:connector-curvature="0"
       sodipodi:nodetypes="cccccccccc" />
    <path
       d="M 165.76201,71.119036 143.4334,27.4578 l 0.40964,-4e-6 10.49573,11.07775 z m -21.91897,-43.66124 21.88572,44.084353 0.10398,0.04869 L 154.4443,38.56958 154.4334,38.5568 143.84304,27.457796"
       style="fill:#000000;fill-opacity:1;fill-rule:nonzero;stroke:none;stroke-width:0.03527777"
       id="path1372-5-4-1"
       inkscape:connector-curvature="0"
       sodipodi:nodetypes="ccccccccccc" />
  </g>
</svg>
