<?xml version="1.0" encoding="UTF-8" standalone="no"?>
<svg
   xmlns:dc="http://purl.org/dc/elements/1.1/"
   xmlns:cc="http://creativecommons.org/ns#"
   xmlns:rdf="http://www.w3.org/1999/02/22-rdf-syntax-ns#"
   xmlns:svg="http://www.w3.org/2000/svg"
   xmlns="http://www.w3.org/2000/svg"
   xmlns:sodipodi="http://sodipodi.sourceforge.net/DTD/sodipodi-0.dtd"
   xmlns:inkscape="http://www.inkscape.org/namespaces/inkscape"
   width="128"
   height="128"
   viewBox="0 0 33.866667 33.866667"
   version="1.1"
   id="SVGTMPLogo"
   sodipodi:docname="MBLogoSingle.svg"
   inkscape:version="0.92.3 (2405546, 2018-03-11)">
  <sodipodi:namedview
     units="px"
     inkscape:zoom="3.7686038"
     inkscape:cx="49.372568"
     inkscape:cy="67.756806"
     inkscape:window-width="1366"
     inkscape:window-height="749"
     inkscape:window-x="-4"
     inkscape:window-y="-4"
     inkscape:window-maximized="1"
     inkscape:current-layer="layer1" />
  <defs
     id="defs1213" />
  <metadata
     id="metadata1216">
    <rdf:RDF>
      <cc:Work
         rdf:about="">
        <dc:format>image/svg+xml</dc:format>
        <dc:type
           rdf:resource="http://purl.org/dc/dcmitype/StillImage" />
        <dc:title></dc:title>
      </cc:Work>
    </rdf:RDF>
  </metadata>
  <g
     inkscape:label="Layer 1"
     inkscape:groupmode="layer"
     id="layer1"
     transform="translate(-177.04774,-284.93187)">
    <path
       style="fill:#090d1b;fill-opacity:1;stroke:none;stroke-width:0.26458332px;stroke-linecap:butt;stroke-linejoin:miter;stroke-opacity:1"
       d="m 177.12012,318.78777 h 11.33923 l -5.66961,-11.33928"
       id="path2892-7-0"
       inkscape:connector-curvature="0" />
    <path
       style="fill:#090d1b;fill-opacity:1;stroke:none;stroke-width:0.26458332px;stroke-linecap:butt;stroke-linejoin:miter;stroke-opacity:1"
       d="m 205.25757,307.44849 5.66962,11.33928 h -11.33924"
       id="path2896-4-7"
       inkscape:connector-curvature="0" />
    <path
       id="path894-7-7"
       d="m 194.40171,285.05147 c -6.02482,0 -10.90971,4.72928 -10.90971,10.56453 0,1.63419 0.38354,3.18382 1.0686,4.5642 0.0384,0.0785 9.84111,18.67778 9.84111,18.67778 l 9.72287,-18.44669 c 0.75857,-1.43815 1.18685,-3.06825 1.18685,-4.79529 0,-5.83525 -4.88381,-10.56453 -10.90972,-10.56453 z m 0,16.90325 c -3.61493,0 -6.54583,-2.83922 -6.54583,-6.33872 0,-3.4995 2.9309,-6.33873 6.54583,-6.33873 3.61384,0 6.54583,2.83923 6.54583,6.33873 0,3.4995 -2.93199,6.33872 -6.54583,6.33872 z"
       inkscape:connector-curvature="0"
       style="fill:#090d1b;fill-opacity:1;stroke:none;stroke-width:0.26458329;stroke-opacity:1" />
    <path
       style="font-style:normal;font-variant:normal;font-weight:normal;font-stretch:normal;font-size:18.77519417px;line-height:1.25;font-family:'Brandon Grotesque';-inkscape-font-specification:'Brandon Grotesque';letter-spacing:0px;word-spacing:0px;fill:#090d1b;fill-opacity:1;stroke:none;stroke-width:0.26458332"
       d="m 194.50102,291.98525 v 0.0189 h -0.55587 l -1.02065,4.72508 -1.02998,-4.72508 h -1.7153 v 6.92701 h 1.06807 v -5.45275 l 1.11973,5.45275 h 1.10563 l 1.02837,-4.96533 v 4.94642 h 0.10095 v 0.0189 h 1.06327 v -0.0189 h 0.76842 c 0.83793,0 1.37188,-0.0283 1.60183,-0.085 0.33077,-0.0819 0.61723,-0.2962 0.85978,-0.64271 0.24256,-0.34966 0.36384,-0.7766 0.36384,-1.28062 0,-0.41581 -0.096,-0.7684 -0.28819,-1.05821 -0.18901,-0.28981 -0.45187,-0.49477 -0.78893,-0.61447 0.23626,-0.12916 0.42833,-0.32754 0.57638,-0.5953 0.14806,-0.27091 0.22214,-0.57328 0.22214,-0.90719 0,-0.36226 -0.0867,-0.68686 -0.25996,-0.97352 -0.17326,-0.28666 -0.3859,-0.48668 -0.63791,-0.60009 -0.25201,-0.1134 -0.68828,-0.16993 -1.30885,-0.16993 z m 1.16422,1.15277 h 0.64084 c 0.60482,0 0.97003,0.0159 1.09603,0.0474 0.12916,0.0315 0.23808,0.11163 0.32628,0.24078 0.0914,0.12601 0.13691,0.29146 0.13691,0.49622 0,0.22995 -0.0552,0.41269 -0.16541,0.54815 -0.11025,0.1323 -0.26308,0.21434 -0.45839,0.24584 -0.1071,0.0158 -0.38725,0.0234 -0.84086,0.0234 h -0.7354 z m 0,2.75487 h 0.90533 c 0.49141,0 0.816,0.0283 0.97351,0.085 0.16065,0.0536 0.28824,0.15452 0.38274,0.30258 0.0977,0.1449 0.1465,0.33066 0.1465,0.55747 0,0.22051 -0.0458,0.40325 -0.13717,0.54815 -0.0882,0.14176 -0.19851,0.23779 -0.33081,0.28819 -0.13231,0.0473 -0.43139,0.0709 -0.8976,0.0709 h -1.0425 z"
       id="text1031-9"
       inkscape:connector-curvature="0" />
  </g>
</svg>
