<svg height="512" viewBox="0 0 64 64" width="512" xmlns="http://www.w3.org/2000/svg" fill="rgb(9, 13, 27)"><path d="m32.651 24.241a1 1 0 0 0 -1.3 0l-9.056 8.052a1 1 0 1 0 1.414 1.414l.291-.293v6.586a1 1 0 0 0 1 1h14a1 1 0 0 0 1-1v-6.586l.293.293a1 1 0 0 0 1.414-1.414zm5.349 14.759h-12v-7.54l6-5.143 6 5.143z"/><path d="m48 19v-2a4.994 4.994 0 0 0 -4.236-4.923l-.834-2.729a.986.986 0 0 0 .07-.348v-7a1 1 0 0 0 -1-1h-20a1 1 0 0 0 -1 1v7a.986.986 0 0 0 .07.348l-.834 2.729a4.994 4.994 0 0 0 -4.236 4.923v30a4.994 4.994 0 0 0 4.236 4.923l.834 2.729a.986.986 0 0 0 -.07.348v7a1 1 0 0 0 1 1h20a1 1 0 0 0 1-1v-7a.986.986 0 0 0 -.07-.348l.834-2.729a4.994 4.994 0 0 0 4.236-4.923v-17a3 3 0 0 0 3-3v-5a3 3 0 0 0 -3-3zm-25.038-9h18.076l.611 2h-19.3zm.038-7h18v5h-18zm18.038 51h-18.076l-.611-2h19.3zm-.038 7h-18v-5h18zm5-14a3 3 0 0 1 -3 3h-22a3 3 0 0 1 -3-3v-30a3 3 0 0 1 3-3h22a3 3 0 0 1 3 3zm3-20a1 1 0 0 1 -1 1v-7a1 1 0 0 1 1 1z"/><path d="m27 17a1 1 0 0 0 -1-1h-6a1 1 0 0 0 0 2h6a1 1 0 0 0 1-1z"/><path d="m29 18h1a1 1 0 0 0 0-2h-1a1 1 0 0 0 0 2z"/></svg>