<svg height="90.1" enable-background="new 0 240 1024 150.5" version="1.1" viewBox="0 240 921.2 90.1" xmlns="http://www.w3.org/2000/svg">
   <path id="tableMountainPath" d="m897.4 312.9s-16-3.226-22.56-2.904c0 0-4.675 0.242-5.933-2.339 0 0-4.675-3.388-7.821-3.146l-4.045-4.517s-3.416-4.517-7.821-2.016l-4.405 1.371s-13.21-7.34-17.89-8.469c0 0-6.922-3.065-8.81-3.065l-11.6-3.63-9.709-3.307-6.293-5.969-1.888-2.823-3.146-2.823-2.787-2.823h-3.146l-5.034 1.613-8.181 5.001-5.663 5.566-3.146 2.258-3.146 2.742-8.45-1.049-4.045-1.533h-9.08l-4.045 1.533-1.259-1.694-8.181-1.613-10.34 1.775h-6.473l-4.495 2.5-4.675-2.581-3.146-2.339-5.663-3.388-6.562-2.581-6.293-1.452-6.562 1.371-3.776 1.129-12.86-0.5646-4.045 2.258-3.416-1.694-3.776 0.8873-5.304-1.694h-3.596l-1.978-1.775-4.045-2.662-1.259-5.888-2.517-2.742h-8.72l-1.798-3.468-3.416-1.371h-4.764l-3.686-1.21-4.045-1.21h-8.54l-4.045-3.146-1.259-2.904-1.259-5.082-3.146-1.129h-54.75l-3.326 0.8066h-40.27l-3.146 1.129-6.293-0.3226h-7.821l-34.52-1.049-3.776 1.049-30.47-0.3226-32.99 1.129-9.709 0.242-4.045 1.129-2.517 2.823-0.2697 2.823-2.517 3.63-0.6293 3.952-2.158 1.371-3.416 1.129-3.416-1.694-2.787-2.258-2.787-0.242-12.23-1.371-5.304 0.242-2.158-3.065-5.304-3.388-7.192-1.936-5.304-1.936-9.08-1.129-9.439-1.936-4.405 1.129-2.158 2.823-3.146 3.388-1.888 4.759 0.2697 2.5-2.787 1.694-3.776-1.129-6.293-0.5646-5.304 1.129-4.675 1.936-7.551 3.63-4.675 1.371-9.709 2.823-7.821 1.129-4.675 1.694-2.787 2.258-5.663 5.888-1.528 1.371-0.899 1.694-1.528 2.258-2.517 2.823-8.45 3.63-6.562 0.242-3.776 1.129-4.405 2.823-11.6 3.065-5.304 0.5646-6.562 3.388-4.675 0.5646-5.933 0.5646-6.922 2.823-5.663 2.823-5.933 1.129-3.416 0.1613h-0.0899l-3.686 0.1613v0.242l-4.315 0.4033h-14.92l-5.663 2.904-4.675 1.21h-4.764l-14.29 1.613h-3.236l-2.158 2.097-0.8091 1.452-6.113 0.4033-12.23 1.129-6.293 1.371-8.81 1.371-2.787 0.6453-2.158 2.097h-1.708l-4.495 2.581v1.533h920.5c0 0.1613-4.675-12.66-23.46-16.94z" style="fill:none;stroke-opacity:.64314;stroke:#f7b624"/>
   <g id="textAndLogo" transform="matrix(4.507 0 0 4.435 293.9 122.8)" enable-background="new" stroke-width=".2237">
      <text id="text" x="45.482872" y="39.852428" fill="#000000" font-family="'Brandon Grotesque'" font-size="6.682px" letter-spacing="0px" text-align="center" text-anchor="middle" word-spacing="0px" style="line-height:1.25" xml:space="preserve"><tspan x="45.482872" y="39.852428" fill="#f8b624" stroke-width=".2237" text-align="center" text-anchor="middle">Food &amp; Beverage</tspan></text>
      <g id="icon" fill="#f8b624" stroke="#f8b624">
         <path d="m9.691 44.53c-3.455 0-6.266-2.804-6.266-6.252 0-3.446 2.811-6.25 6.266-6.25s6.266 2.804 6.266 6.25c0 3.448-2.811 6.252-6.266 6.252zm0-11.31c-2.794 0-5.068 2.266-5.068 5.053 0 2.789 2.274 5.055 5.068 5.055s5.068-2.266 5.068-5.055c-0.0019-2.785-2.274-5.053-5.068-5.053z"/>
         <path d="m1.982 35.54c0.3342-0.397 0.2183-0.9212 0.2203-1.392-0.00193-0.0636-0.00193-0.1311-0.00386-0.2024-0.01932-1.016-0.04444-2.488-0.05024-2.748h-0.1121l-0.1275 2.718s-0.1043 0.3103-0.2454 0.0212c-0.1294-0.2621-0.0599-2.357-0.04057-2.737h-0.08308l-0.1913 2.671s-0.1024 0.4009-0.2473 0.04047c-0.141-0.3527-0.05603-2.554-0.0483-2.712h-0.09081l-0.1951 2.631s-0.1082 0.4105-0.2145 0.03469c-0.1063-0.3681-0.0541-2.658-0.0541-2.658h-0.1005s-0.1797 1.378-0.1874 2.737v0.1947c0 0.3816-0.02318 0.7555 0.09274 1.108 0.1024 0.2679 0.4135 0.4182 0.6511 0.6013 0 0 0.02512 0.0077 0.04637 0.1176s0.04251 0.3257 0.03091 0.7401c-0.02318 0.8307-0.313 7.532-0.313 7.532s-0.2415 0.9868 0.6086 1.014c0.8521 0.02891 0.6588-0.8191 0.6588-0.8191l-0.3864-8.226s0.0058-0.1118 0.04251-0.2371c0.03285-0.2082 0.2183-0.2968 0.34-0.4298z"/>
         <path d="m17.7 31.3s0.1468-0.4336 0.5661 0.02313c0.4212 0.4587 1.063 3.061 0.8192 4.934 0 0-0.6646 0.5204-0.6782 0.8673-0.01546 0.3469 0.1526 2.895 0.1526 2.895l0.2898 4.437s0.09081 0.424-0.6105 0.5589c-0.7014 0.1368-0.6685-0.6302-0.6685-0.6302z"/>
      </g>
   </g>
</svg>
