<?xml version="1.0"?>
<svg xmlns="http://www.w3.org/2000/svg" viewBox="0 0 512 512" width="512" height="512"><g id="Solid"><path d="M63.586,77.469,48.414,82.531l-8-24,15.172-5.062ZM191.375,52l10.578,12,11.336-10L202.711,42Zm106.977,95.785,7.3-14.234-26-13.336-7.3,14.234ZM279.086,53.664l12.5-9.992L278.25,27,265.75,37ZM50.406,220.93l-22.664-12-7.484,14.14,22.664,12Zm67.457-48.813a47.759,47.759,0,0,0-25.322-44.806L60.7,150.469,51.3,137.531,76.5,119.2,20.852,95.352l6.3-14.7,56,24-.03.071c.151.064.312.051.46.125l14.953,7.476a47.828,47.828,0,0,0,52-5.871C162,97.112,168,82.593,168,67.8v-5.57L138.086,29.387l11.828-10.774L168,38.472V16h16V69.391a47.819,47.819,0,0,0,28.462,43.858c13.487,6.1,29.17,4.989,42.411-1.631L281.4,99.271l6.733-36.712a8.006,8.006,0,0,1,2.214-4.219l24-24,11.312,11.312L303.422,67.9l-4.37,23.811,25.8-11.058,6.3,14.7-70.523,31.281a47.84,47.84,0,0,0-26.508,45.074c.569,14.786,8.573,28.312,20.411,37.191l9.379,7.036,54.96-7.852,2.266,15.836-38.57,5.51,41.874,27.916-8.875,13.312-55.156-37.351a48.105,48.105,0,0,0-74.317,24.4,10.527,10.527,0,0,1-9.35,7.449,10.687,10.687,0,0,1-10.9-7.68A48.114,48.114,0,0,0,104,226.761V264H88V236L36.437,270.656l-8.875-13.312L81.594,220.8c.156-.117.312-.231.461-.344L97.471,208.9C109.2,200.109,117.172,186.758,117.863,172.117ZM184,152h16V136H184Zm0,40h16V176H184Zm-16,0H152v16h16Zm-24-32a16,16,0,1,0,16-16A16.019,16.019,0,0,0,144,160ZM280,263.332V280h16V263.332Zm200-47.266a24.117,24.117,0,0,1-9.508,19.137l-.219.164,9.836,12.617A40.189,40.189,0,0,0,496,216.066v-2.16H480Zm0-34.16h16v-32H480ZM428.82,286.719l25.539-19.285-9.64-12.766L419.18,273.953Zm38.836-100.258a24.016,24.016,0,0,1-10.469-13.121l-15.2,4.976a40.01,40.01,0,0,0,17.438,21.864l7.836,4.7,8.234-13.719ZM440,144h16V112H440Zm-32,24a24.128,24.128,0,0,1-.75,5.957l15.516,3.922A40.324,40.324,0,0,0,424,168V144H408Zm-64-40v20.223a39.881,39.881,0,0,0,2.672,14.386l14.937-5.75A23.835,23.835,0,0,1,360,148.223V128Zm49.906,108.191-14.734,6.235a39.6,39.6,0,0,0,8.43,12.562l13.96,14.078,11.36-11.265-13.961-14.082A23.691,23.691,0,0,1,393.906,236.191ZM376,143.648h16V112H376Zm-9.931,261.1-7.013,7.671a7.769,7.769,0,0,0,11.225,10.737l7.1-7.091a69.355,69.355,0,0,0,9.2-11.39l-13.45-8.681A52.97,52.97,0,0,1,366.069,404.747Zm44.47-52.329L395.711,346.4q-1.98,4.893-4.227,9.684l-8.914,19.027,14.485,6.789,8.914-19.031Q408.395,357.7,410.539,352.418ZM376,207.648h16v-32H376Zm29.359,109.184,15.391,4.359,8.711-30.789-15.391-4.359ZM337.265,422.551l-26.445,14.6a11.928,11.928,0,0,0-5,16.111l3.793,7.206a11.927,11.927,0,0,0,16.111,5l26.444-14.6a11.929,11.929,0,0,0,5-16.112l-3.792-7.2A11.928,11.928,0,0,0,337.265,422.551ZM268.947,442.8l-23.968-18.382a11.928,11.928,0,0,0-16.765,1.873l-5.083,6.361A11.93,11.93,0,0,0,225,449.421L248.972,467.8a11.93,11.93,0,0,0,16.766-1.873l5.082-6.362A11.928,11.928,0,0,0,268.947,442.8ZM179.153,265.888l-8.142.061a11.929,11.929,0,0,0-11.839,12.018L160,308.161A11.93,11.93,0,0,0,172.019,320l8.142-.062A11.929,11.929,0,0,0,192,307.92l-.829-30.194A11.927,11.927,0,0,0,179.153,265.888Zm23.491,93.365a11.93,11.93,0,0,0-15.652-6.295l-7.49,3.194a11.929,11.929,0,0,0-6.294,15.652l12.4,27.544a11.928,11.928,0,0,0,15.651,6.294l7.491-3.193a11.929,11.929,0,0,0,6.294-15.652Z"/></g></svg>
