<svg width="488pt" height="488pt" version="1.1" viewBox="-4 0 488 488" xmlns="http://www.w3.org/2000/svg">
 <path d="m472 152h-32.801l-151.35-100.92c0.0625-1.0234 0.15234-2.0391 0.15234-3.0781 0-26.508-21.492-48-48-48s-48 21.492-48 48c0 1.0391 0.089844 2.0547 0.15234 3.0781l-151.35 100.92h-32.801c-4.418 0-8 3.582-8 8v320c0 4.418 3.582 8 8 8h464c4.418 0 8-3.582 8-8v-320c0-4.418-3.582-8-8-8zm-61.602 0h-28.797l-106.71-71.129c3.6797-3.8984 6.6836-8.3828 8.8906-13.27zm-191.6-61.008c13.359 6.6758 29.086 6.6758 42.445 0l91.555 61.008h-225.6zm21.199-74.992c17.672 0 32 14.328 32 32s-14.328 32-32 32-32-14.328-32-32 14.328-32 32-32zm-43.777 51.602c2.207 4.8867 5.2109 9.3711 8.8906 13.27l-106.71 71.129h-28.797zm267.78 404.4h-448v-304h448z" style="fill:#fff"/>
 <path d="m32 464h416c4.418 0 8-3.582 8-8v-272c0-4.418-3.582-8-8-8h-416c-4.418 0-8 3.582-8 8v272c0 4.418 3.582 8 8 8zm8-16v-99.199l68.984-45.258c7.293 7.8828 17.559 12.344 28.297 12.297 11.648-0.097656 22.684-5.2344 30.262-14.078 4.4883-6.043 11.57-9.6094 19.098-9.6094s14.609 3.5664 19.094 9.6094c7.4922 8.9102 18.539 14.055 30.18 14.055 11.645 0 22.691-5.1445 30.184-14.055 4.5-6.0508 11.598-9.6172 19.137-9.6172 7.543 0 14.641 3.5664 19.141 9.6172 7.4844 8.9023 18.512 14.055 30.145 14.078 11.629 0.019531 22.676-5.0898 30.191-13.969 0.51953-0.48828 1.082-0.93359 1.6016-1.4219l73.688 48.352v99.199zm400-118.34-101.21-66.398 32.062-21.035c7.9805-5.2227 18.301-5.2227 26.281 0l42.863 28.098zm-87.48-38.266c-4.4102 5.332-10.961 8.4297-17.879 8.4492-7.5234-0.12891-14.582-3.6602-19.199-9.6016-7.5039-8.918-18.566-14.062-30.223-14.062-11.652 0-22.715 5.1445-30.219 14.062-4.4844 6.043-11.566 9.6094-19.094 9.6094-7.5234 0-14.605-3.5664-19.09-9.6094-7.4922-8.9102-18.539-14.055-30.18-14.055-11.645 0-22.691 5.1445-30.18 14.055-4.6211 5.9414-11.68 9.4688-19.199 9.6016-5.3398 0.14844-10.523-1.7812-14.465-5.3828l104-68.258c7.9922-5.2461 18.34-5.2461 26.336 0zm87.48-99.391v59.199l-34.098-22.398c-13.305-8.7109-30.508-8.7109-43.812 0l-37.883 24.879-62.262-40.879c-13.324-8.7422-30.566-8.7422-43.891 0l-178.05 116.86v-137.66z" style="fill:#fff"/>
 <path d="m240 72c13.254 0 24-10.746 24-24s-10.746-24-24-24-24 10.746-24 24 10.746 24 24 24zm0-32c4.418 0 8 3.582 8 8s-3.582 8-8 8-8-3.582-8-8 3.582-8 8-8z" style="fill:#fff"/>
 <path d="m416 424h16v16h-16z" style="fill:#fff"/>
 <path d="m392 424h16v16h-16z" style="fill:#fff"/>
 <path d="m416 400h16v16h-16z" style="fill:#fff"/>
</svg>
