<svg width="75.415mm" height="84.344mm" version="1.1" viewBox="0 0 75.415 84.344" xmlns="http://www.w3.org/2000/svg">
 <g transform="translate(-53.763 -153.53)">
  <path d="m126.14 195.7c0 19.146-15.521 34.667-34.667 34.667-19.146 0-34.667-15.521-34.667-34.667s15.521-34.667 34.667-34.667c19.146 0 34.667 15.521 34.667 34.667z" style="fill:none;stroke-miterlimit:10;stroke-width:.35278;stroke:#141414"/>
  <path d="m72.482 206.66 18.988-32.888 18.988 32.888z" style="fill:none;stroke-miterlimit:10;stroke-width:.35278;stroke:#141414"/>
  <path d="m78.812 217.63-12.658-21.925 12.658-21.925h25.317l12.658 21.925-12.658 21.925z" style="fill:none;stroke-miterlimit:10;stroke-width:.35278;stroke:#141414"/>
  <path d="m85.595 217.63-10.176-5.8748-5.8748-10.176v-11.75l5.8748-10.176 10.176-5.8748h11.75l10.176 5.8748 5.8748 10.176v11.75l-5.8748 10.176-10.176 5.8748z" style="fill:none;stroke-miterlimit:10;stroke-width:.35278;stroke:#141414"/>
  <path d="m78.812 173.78 12.658 21.925" style="fill:none;stroke-miterlimit:10;stroke-width:.35278;stroke:#141414"/>
  <path d="m66.153 195.7h25.317" style="fill:none;stroke-miterlimit:10;stroke-width:.35278;stroke:#141414"/>
  <path d="m78.812 217.63 12.658-21.925" style="fill:none;stroke-miterlimit:10;stroke-width:.35278;stroke:#141414"/>
  <path d="m104.13 217.63-12.658-21.925" style="fill:none;stroke-miterlimit:10;stroke-width:.35278;stroke:#141414"/>
  <path d="m116.79 195.7h-25.317" style="fill:none;stroke-miterlimit:10;stroke-width:.35278;stroke:#141414"/>
  <path d="m104.13 173.78-12.658 21.925" style="fill:none;stroke-miterlimit:10;stroke-width:.35278;stroke:#141414"/>
  <path d="m91.47 195.7v-34.667" style="fill:none;stroke-miterlimit:10;stroke-width:.35278;stroke:#141414"/>
  <path d="m91.47 195.7-17.333-30.022" style="fill:none;stroke-miterlimit:10;stroke-width:.35278;stroke:#141414"/>
  <path d="m61.448 178.37 30.022 17.333" style="fill:none;stroke-miterlimit:10;stroke-width:.35278;stroke:#141414"/>
  <path d="m91.47 195.7h-34.667" style="fill:none;stroke-miterlimit:10;stroke-width:.35278;stroke:#141414"/>
  <path d="m91.47 195.7-30.022 17.333" style="fill:none;stroke-miterlimit:10;stroke-width:.35278;stroke:#141414"/>
  <path d="m91.47 195.7-17.333 30.022" style="fill:none;stroke-miterlimit:10;stroke-width:.35278;stroke:#141414"/>
  <path d="m91.47 195.7v34.667" style="fill:none;stroke-miterlimit:10;stroke-width:.35278;stroke:#141414"/>
  <path d="m91.47 195.7 17.333 30.022" style="fill:none;stroke-miterlimit:10;stroke-width:.35278;stroke:#141414"/>
  <path d="m91.47 195.7 30.022 17.333" style="fill:none;stroke-miterlimit:10;stroke-width:.35278;stroke:#141414"/>
  <path d="m91.47 195.7h34.667" style="fill:none;stroke-miterlimit:10;stroke-width:.35278;stroke:#141414"/>
  <path d="m91.47 195.7 30.022-17.333" style="fill:none;stroke-miterlimit:10;stroke-width:.35278;stroke:#141414"/>
  <path d="m82.523 229.09-15.498-8.9475-8.9471-15.497v-17.895l8.9471-15.497 15.498-8.9475h17.895l15.498 8.9475 8.9475 15.497v17.895l-8.9475 15.497-15.498 8.9475z" style="fill:none;stroke-miterlimit:10;stroke-width:.35278;stroke:#141414"/>
  <path d="m91.47 162.37-6.3373 22.353h12.675z" style="fill:none;stroke-miterlimit:10;stroke-width:.35278;stroke:#141414"/>
  <path d="m62.606 179.04 16.19 16.665 6.3369-10.976z" style="fill:none;stroke-miterlimit:10;stroke-width:.35278;stroke:#141414"/>
  <path d="m62.606 212.37 22.527-5.6882-6.3369-10.976z" style="fill:none;stroke-miterlimit:10;stroke-width:.35278;stroke:#141414"/>
  <path d="m91.47 229.03 6.3373-22.353h-12.675z" style="fill:none;stroke-miterlimit:10;stroke-width:.35278;stroke:#141414"/>
  <path d="m120.33 212.37-16.19-16.665-6.3369 10.976z" style="fill:none;stroke-miterlimit:10;stroke-width:.35278;stroke:#141414"/>
  <path d="m120.33 179.04-22.527 5.6882 6.3369 10.976z" style="fill:none;stroke-miterlimit:10;stroke-width:.35278;stroke:#141414"/>
  <path d="m62.606 179.04 28.864-16.665-6.3373 22.353z" style="fill:none;stroke-miterlimit:10;stroke-width:.35278;stroke:#141414"/>
  <path d="m62.606 212.37v-33.329l16.19 16.665z" style="fill:none;stroke-miterlimit:10;stroke-width:.35278;stroke:#141414"/>
  <path d="m91.47 229.03-28.864-16.665 22.527-5.6882z" style="fill:none;stroke-miterlimit:10;stroke-width:.35278;stroke:#141414"/>
  <path d="m120.33 212.37-28.864 16.665 6.3373-22.353z" style="fill:none;stroke-miterlimit:10;stroke-width:.35278;stroke:#141414"/>
  <path d="m120.33 179.04v33.329l-16.19-16.665z" style="fill:none;stroke-miterlimit:10;stroke-width:.35278;stroke:#141414"/>
  <path d="m91.47 162.37 28.864 16.665-22.527 5.6882z" style="fill:none;stroke-miterlimit:10;stroke-width:.35278;stroke:#141414"/>
  <path d="m100.14 162.37c0 4.7865-3.8802 8.6667-8.6667 8.6667-4.7865 0-8.6667-3.8802-8.6667-8.6667s3.8802-8.6667 8.6667-8.6667c4.7865 0 8.6667 3.8802 8.6667 8.6667z" style="fill:none;stroke-miterlimit:10;stroke-width:.35278;stroke:#141414"/>
  <path d="m66.94 171.53c4.1451 2.3932 5.5654 7.6937 3.1722 11.839-2.3932 4.1451-7.6937 5.5654-11.839 3.1722-4.1451-2.3932-5.5654-7.6937-3.1722-11.839 2.3932-4.1451 7.6937-5.5654 11.839-3.1722z" style="fill:none;stroke-miterlimit:10;stroke-width:.35278;stroke:#141414"/>
  <path d="m58.273 204.86c4.1451-2.3932 9.4456-0.97296 11.839 3.1722 2.3932 4.1451 0.97296 9.4456-3.1722 11.839-4.1451 2.3932-9.4456 0.97296-11.839-3.1722-2.3932-4.1451-0.97296-9.4456 3.1722-11.839z" style="fill:none;stroke-miterlimit:10;stroke-width:.35278;stroke:#141414"/>
  <path d="m82.804 229.03c0-4.7865 3.8802-8.6667 8.6667-8.6667s8.6667 3.8802 8.6667 8.6667-3.8802 8.6667-8.6667 8.6667-8.6667-3.8802-8.6667-8.6667z" style="fill:none;stroke-miterlimit:10;stroke-width:.35278;stroke:#141414"/>
  <path d="m116 219.87c-4.1451-2.3932-5.5654-7.6937-3.1722-11.839 2.3932-4.1451 7.6937-5.5654 11.839-3.1722 4.1451 2.3932 5.5654 7.6937 3.1722 11.839-2.3932 4.1452-7.6937 5.5654-11.839 3.1722z" style="fill:none;stroke-miterlimit:10;stroke-width:.35278;stroke:#141414"/>
  <path d="m124.67 186.54c-4.1451 2.3932-9.4456 0.97296-11.839-3.1722-2.3932-4.1451-0.97296-9.4456 3.1722-11.839 4.1451-2.3932 9.4456-0.97296 11.839 3.1722 2.3932 4.1451 0.97296 9.4456-3.1722 11.839z" style="fill:none;stroke-miterlimit:10;stroke-width:.35278;stroke:#141414"/>
 </g>
</svg>
