<svg width="74.762mm" height="75.463mm" version="1.1" viewBox="0 0 74.762 75.463" xmlns="http://www.w3.org/2000/svg">
 <g transform="translate(-103.98 -374.93)">
  <path d="m178.57 412.66c0 20.548-16.657 37.205-37.205 37.205s-37.205-16.657-37.205-37.205 16.657-37.205 37.205-37.205 37.205 16.657 37.205 37.205z" style="fill:none;stroke-miterlimit:10;stroke-width:.35278;stroke:#141414"/>
  <path d="m137.5 419.35-3.864-6.6926 3.864-6.6929h7.728l3.8643 6.6929-3.8643 6.6926z" style="fill:none;stroke-miterlimit:10;stroke-width:.35278;stroke:#141414"/>
  <path d="m133.18 426.83-8.182-14.172 8.182-14.172h16.364l8.1823 14.172-8.1823 14.172z" style="fill:none;stroke-miterlimit:10;stroke-width:.35278;stroke:#141414"/>
  <path d="m145.23 405.97 4.318-7.4789 8.182 14.172h-8.636z" style="fill:none;stroke-miterlimit:10;stroke-width:.35278;stroke:#141414"/>
  <path d="m137.5 405.97-4.318-7.4789h16.364l-4.318 7.4789z" style="fill:none;stroke-miterlimit:10;stroke-width:.35278;stroke:#141414"/>
  <path d="m133.63 412.66h-8.636l8.182-14.172 4.318 7.4789z" style="fill:none;stroke-miterlimit:10;stroke-width:.35278;stroke:#141414"/>
  <path d="m137.5 419.35-4.318 7.4789-8.182-14.171h8.636z" style="fill:none;stroke-miterlimit:10;stroke-width:.35278;stroke:#141414"/>
  <path d="m145.23 419.35 4.318 7.4789h-16.364l4.318-7.4789z" style="fill:none;stroke-miterlimit:10;stroke-width:.35278;stroke:#141414"/>
  <path d="m149.09 412.66h8.636l-8.182 14.172-4.318-7.4792z" style="fill:none;stroke-miterlimit:10;stroke-width:.35278;stroke:#141414"/>
  <path d="m133.18 398.49 8.182-9.1856 8.182 9.1856z" style="fill:none;stroke-miterlimit:10;stroke-width:.35278;stroke:#141414"/>
  <path d="m125 412.66-3.864-11.679 12.046-2.4931z" style="fill:none;stroke-miterlimit:10;stroke-width:.35278;stroke:#141414"/>
  <path d="m133.18 426.83-12.046-2.4931 3.8643-11.679z" style="fill:none;stroke-miterlimit:10;stroke-width:.35278;stroke:#141414"/>
  <path d="m149.55 426.83-8.182 9.186-8.182-9.186z" style="fill:none;stroke-miterlimit:10;stroke-width:.35278;stroke:#141414"/>
  <path d="m157.73 412.66 3.864 11.679-12.046 2.4931z" style="fill:none;stroke-miterlimit:10;stroke-width:.35278;stroke:#141414"/>
  <path d="m149.55 398.49 12.046 2.4931-3.8643 11.679z" style="fill:none;stroke-miterlimit:10;stroke-width:.35278;stroke:#141414"/>
  <path d="m149.55 398.49-8.182-23.033-8.182 23.033z" style="fill:none;stroke-miterlimit:10;stroke-width:.35278;stroke:#141414"/>
  <path d="m133.18 398.49-24.038-4.4305 15.856 18.602z" style="fill:none;stroke-miterlimit:10;stroke-width:.35278;stroke:#141414"/>
  <path d="m125 412.66-15.856 18.602 24.038-4.4305z" style="fill:none;stroke-miterlimit:10;stroke-width:.35278;stroke:#141414"/>
  <path d="m133.18 426.83 8.182 23.033 8.182-23.033z" style="fill:none;stroke-miterlimit:10;stroke-width:.35278;stroke:#141414"/>
  <path d="m149.55 426.83 24.038 4.4306-15.856-18.602z" style="fill:none;stroke-miterlimit:10;stroke-width:.35278;stroke:#141414"/>
  <path d="m157.73 412.66 15.856-18.602-24.038 4.4305z" style="fill:none;stroke-miterlimit:10;stroke-width:.35278;stroke:#141414"/>
  <path d="m141.36 375.46 32.22 18.602-24.038 4.4305z" style="fill:none;stroke-miterlimit:10;stroke-width:.35278;stroke:#141414"/>
  <path d="m109.14 394.06 32.22-18.602-8.182 23.033z" style="fill:none;stroke-miterlimit:10;stroke-width:.35278;stroke:#141414"/>
  <path d="m109.14 431.26v-37.205l15.856 18.602z" style="fill:none;stroke-miterlimit:10;stroke-width:.35278;stroke:#141414"/>
  <path d="m141.36 449.87-32.22-18.602 24.038-4.4306z" style="fill:none;stroke-miterlimit:10;stroke-width:.35278;stroke:#141414"/>
  <path d="m173.58 431.26-32.22 18.602 8.182-23.033z" style="fill:none;stroke-miterlimit:10;stroke-width:.35278;stroke:#141414"/>
  <path d="m173.58 394.06v37.205l-15.856-18.602z" style="fill:none;stroke-miterlimit:10;stroke-width:.35278;stroke:#141414"/>
  <path d="m127.52 389.3c0-7.6475 6.1997-13.847 13.847-13.847 7.6475 0 13.847 6.1997 13.847 13.847 0 7.6475-6.1997 13.847-13.847 13.847-7.6475 0-13.847-6.1997-13.847-13.847z" style="fill:none;stroke-miterlimit:10;stroke-width:.35278;stroke:#141414"/>
  <path d="m114.21 412.97c-6.623-3.8238-8.8921-12.293-5.0684-18.916 3.8238-6.623 12.293-8.8921 18.916-5.0684s8.8921 12.293 5.0684 18.916c-3.8238 6.623-12.293 8.8921-18.916 5.0684z" style="fill:none;stroke-miterlimit:10;stroke-width:.35278;stroke:#141414"/>
  <path d="m128.06 436.33c-6.623 3.8238-15.092 1.5547-18.916-5.0684-3.8238-6.623-1.5547-15.092 5.0684-18.916 6.623-3.8238 15.092-1.5547 18.916 5.0684 3.8238 6.623 1.5547 15.092-5.0684 18.916z" style="fill:none;stroke-miterlimit:10;stroke-width:.35278;stroke:#141414"/>
  <path d="m155.21 436.02c0 7.6475-6.1997 13.847-13.847 13.847-7.6475 0-13.847-6.1997-13.847-13.847s6.1997-13.847 13.847-13.847c7.6475 0 13.847 6.1997 13.847 13.847z" style="fill:none;stroke-miterlimit:10;stroke-width:.35278;stroke:#141414"/>
  <path d="m168.51 412.35c6.623 3.8238 8.8921 12.293 5.0684 18.916-3.8238 6.623-12.293 8.8921-18.916 5.0684-6.623-3.8238-8.8921-12.293-5.0684-18.916s12.293-8.8921 18.916-5.0684z" style="fill:none;stroke-miterlimit:10;stroke-width:.35278;stroke:#141414"/>
  <path d="m154.67 388.99c6.623-3.8238 15.092-1.5547 18.916 5.0684s1.5547 15.092-5.0684 18.916c-6.623 3.8238-15.092 1.5547-18.916-5.0684s-1.5547-15.092 5.0684-18.916z" style="fill:none;stroke-miterlimit:10;stroke-width:.35278;stroke:#141414"/>
 </g>
</svg>
