<svg width="84.301mm" height="74.763mm" version="1.1" viewBox="0 0 84.301 74.763" xmlns="http://www.w3.org/2000/svg">
 <g transform="translate(157.81 -155.3)">
  <path d="m-133.65 223.83-17.986-31.153 17.986-31.153h35.973l17.986 31.153-17.986 31.153z" style="fill:none;stroke-miterlimit:10;stroke-width:.35278;stroke:#141414"/>
  <path d="m-125.34 228.81-16.769-9.6816-9.6816-16.769v-19.363l9.6816-16.769 16.769-9.6816h19.363l16.769 9.6816 9.6816 16.769v19.363l-9.6816 16.769-16.769 9.6816z" style="fill:none;stroke-miterlimit:10;stroke-width:.35278;stroke:#141414"/>
  <path d="m-146.81 210.66 31.153-53.959 31.153 53.959z" style="fill:none;stroke-miterlimit:10;stroke-width:.35278;stroke:#141414"/>
  <path d="m-102.57 168.57c0 7.2326-5.8632 13.096-13.096 13.096-7.2323 0-13.095-5.8632-13.095-13.096s5.8632-13.096 13.095-13.096c7.2326 0 13.096 5.8632 13.096 13.096z" style="fill:none;stroke-miterlimit:10;stroke-width:.35278;stroke:#141414"/>
  <path d="m-129.99 169.28c6.2636 3.6163 8.4095 11.625 4.7932 17.889-3.616 6.2636-11.625 8.4095-17.889 4.7932-6.2636-3.616-8.4099-11.625-4.7935-17.889 3.6163-6.2632 11.625-8.4095 17.889-4.7932z" style="fill:none;stroke-miterlimit:10;stroke-width:.35278;stroke:#141414"/>
  <path d="m-143.09 193.39c6.2636-3.6163 14.273-1.47 17.889 4.7932 3.6163 6.2636 1.47 14.273-4.7935 17.889-6.2632 3.6163-14.273 1.4704-17.889-4.7932-3.6163-6.2636-1.4704-14.273 4.7932-17.889z" style="fill:none;stroke-miterlimit:10;stroke-width:.35278;stroke:#141414"/>
  <path d="m-128.76 216.79c0-7.2326 5.8632-13.095 13.095-13.095 7.2326 0 13.096 5.8628 13.096 13.095s-5.8632 13.096-13.096 13.096c-7.2323 0-13.095-5.8632-13.095-13.096z" style="fill:none;stroke-miterlimit:10;stroke-width:.35278;stroke:#141414"/>
  <path d="m-101.33 216.07c-6.2636-3.6163-8.4095-11.625-4.7932-17.889 3.616-6.2636 11.625-8.4095 17.889-4.7932 6.2636 3.616 8.4095 11.625 4.7932 17.889-3.6163 6.2632-11.625 8.4095-17.889 4.7932z" style="fill:none;stroke-miterlimit:10;stroke-width:.35278;stroke:#141414"/>
  <path d="m-88.234 191.97c-6.2636 3.6163-14.273 1.47-17.889-4.7932-3.6163-6.2636-1.47-14.273 4.7932-17.889 6.2636-3.6163 14.273-1.4704 17.889 4.7932 3.6163 6.2636 1.4704 14.273-4.7932 17.889z" style="fill:none;stroke-miterlimit:10;stroke-width:.35278;stroke:#141414"/>
  <path d="m-115.66 192.68v-37.205" style="fill:none;stroke-miterlimit:10;stroke-width:.35278;stroke:#141414"/>
  <path d="m-115.66 192.68-32.22-18.602" style="fill:none;stroke-miterlimit:10;stroke-width:.35278;stroke:#141414"/>
  <path d="m-115.66 192.68-32.22 18.602" style="fill:none;stroke-miterlimit:10;stroke-width:.35278;stroke:#141414"/>
  <path d="m-115.66 192.68v37.205" style="fill:none;stroke-miterlimit:10;stroke-width:.35278;stroke:#141414"/>
  <path d="m-115.66 192.68 32.22 18.602" style="fill:none;stroke-miterlimit:10;stroke-width:.35278;stroke:#141414"/>
  <path d="m-115.66 192.68 32.22-18.602" style="fill:none;stroke-miterlimit:10;stroke-width:.35278;stroke:#141414"/>
  <path d="m-127.65 161.53c0 3.3144-2.6868 6.0011-6.0011 6.0011s-6.0008-2.6868-6.0008-6.0011 2.6864-6.0011 6.0008-6.0011 6.0011 2.6868 6.0011 6.0011z" style="fill:none;stroke-miterlimit:10;stroke-width:.35278;stroke:#141414"/>
  <path d="m-148.63 187.48c2.8702 1.657 3.8538 5.3273 2.1964 8.1975-1.657 2.8702-5.3273 3.8537-8.1975 2.1967-2.8702-1.6574-3.8534-5.3273-2.1964-8.1978 1.657-2.8702 5.3273-3.8534 8.1975-2.1964z" style="fill:none;stroke-miterlimit:10;stroke-width:.35278;stroke:#141414"/>
  <path d="m-136.65 218.63c2.8702-1.657 6.5405-0.67381 8.1975 2.1964 1.657 2.8702 0.67381 6.5405-2.1964 8.1975-2.8702 1.6574-6.5405 0.67381-8.1975-2.1964-1.6574-2.8702-0.67381-6.5405 2.1964-8.1975z" style="fill:none;stroke-miterlimit:10;stroke-width:.35278;stroke:#141414"/>
  <path d="m-103.68 223.83c0-3.3144 2.6868-6.0011 6.0011-6.0011 3.3143 0 6.0008 2.6868 6.0008 6.0011s-2.6864 6.0011-6.0008 6.0011c-3.3143 0-6.0011-2.6868-6.0011-6.0011z" style="fill:none;stroke-miterlimit:10;stroke-width:.35278;stroke:#141414"/>
  <path d="m-82.688 197.88c-2.8702-1.657-3.8537-5.3273-2.1964-8.1975 1.657-2.8702 5.3273-3.8537 8.1975-2.1967 2.8702 1.6574 3.8534 5.3273 2.1964 8.1978-1.657 2.8702-5.3273 3.8534-8.1975 2.1964z" style="fill:none;stroke-miterlimit:10;stroke-width:.35278;stroke:#141414"/>
  <path d="m-94.674 166.72c-2.8702 1.657-6.5405 0.67381-8.1975-2.1964s-0.6738-6.5405 2.1964-8.1978c2.8702-1.657 6.5405-0.67346 8.1975 2.1967 1.6574 2.8702 0.67381 6.5405-2.1964 8.1975z" style="fill:none;stroke-miterlimit:10;stroke-width:.35278;stroke:#141414"/>
 </g>
</svg>
