<svg width="77.737mm" height="79.715mm" version="1.1" viewBox="0 0 77.737 79.715" xmlns="http://www.w3.org/2000/svg">
 <g transform="translate(-51.846 -152.82)">
  <path d="m121.68 192.68c0 17.105-13.866 30.971-30.971 30.971-17.104 0-30.971-13.866-30.971-30.971s13.866-30.971 30.971-30.971c17.105 0 30.971 13.866 30.971 30.971z" style="fill:none;stroke-miterlimit:10;stroke-width:.35278;stroke:#141414"/>
  <path d="m82.789 222.25-13.726-7.9248-7.9252-13.727v-15.85l7.9252-13.726 13.726-7.9252h15.85l13.726 7.9252 7.9252 13.726v15.85l-7.9252 13.727-13.726 7.9248z" style="fill:none;stroke-miterlimit:10;stroke-width:.35278;stroke:#141414"/>
  <path d="m75.405 219.2-15.31-26.517 15.31-26.518h30.62l15.31 26.518-15.31 26.517z" style="fill:none;stroke-miterlimit:10;stroke-width:.35278;stroke:#141414"/>
  <path d="m82.789 163.1 7.9248 29.576-21.651-21.651z" style="fill:none;stroke-miterlimit:10;stroke-width:.35278;stroke:#141414"/>
  <path d="m61.138 184.75 29.576 7.9248-29.576 7.9252z" style="fill:none;stroke-miterlimit:10;stroke-width:.35278;stroke:#141414"/>
  <path d="m69.063 214.33 21.651-21.651-7.9252 29.576z" style="fill:none;stroke-miterlimit:10;stroke-width:.35278;stroke:#141414"/>
  <path d="m98.639 222.25-7.9248-29.576 21.651 21.651z" style="fill:none;stroke-miterlimit:10;stroke-width:.35278;stroke:#141414"/>
  <path d="m120.29 200.6-29.576-7.9248 29.576-7.9251z" style="fill:none;stroke-miterlimit:10;stroke-width:.35278;stroke:#141414"/>
  <path d="m112.37 171.03-21.651 21.651 7.9251-29.576z" style="fill:none;stroke-miterlimit:10;stroke-width:.35278;stroke:#141414"/>
  <path d="m82.789 163.1 7.9248-9.9974 7.9251 9.9974z" style="fill:none;stroke-miterlimit:10;stroke-width:.35278;stroke:#141414"/>
  <path d="m61.138 184.75-4.6955-11.862 12.62-1.8648z" style="fill:none;stroke-miterlimit:10;stroke-width:.35278;stroke:#141414"/>
  <path d="m69.063 214.33-12.62-1.8644 4.6955-11.862z" style="fill:none;stroke-miterlimit:10;stroke-width:.35278;stroke:#141414"/>
  <path d="m98.639 222.25-7.9248 9.9974-7.9252-9.9974z" style="fill:none;stroke-miterlimit:10;stroke-width:.35278;stroke:#141414"/>
  <path d="m120.29 200.6 4.6955 11.862-12.62 1.8644z" style="fill:none;stroke-miterlimit:10;stroke-width:.35278;stroke:#141414"/>
  <path d="m112.37 171.03 12.62 1.8644-4.6955 11.862z" style="fill:none;stroke-miterlimit:10;stroke-width:.35278;stroke:#141414"/>
  <path d="m83.476 166.16c0-4.458-3.6139-8.0719-8.0719-8.0719-4.4577 0-8.0716 3.6139-8.0716 8.0719 0 4.4577 3.6138 8.0716 8.0716 8.0716 4.4581 0 8.0719-3.6139 8.0719-8.0716z" style="fill:none;stroke-miterlimit:10;stroke-width:.35278;stroke:#141414"/>
  <path d="m64.131 185.69c-3.8605-2.2288-8.7972-0.90629-11.026 2.9545-2.2292 3.8604-0.90629 8.7972 2.9545 11.026 3.8604 2.2288 8.7972 0.90629 11.026-2.9545 2.2288-3.8604 0.90629-8.7972-2.9545-11.026z" style="fill:none;stroke-miterlimit:10;stroke-width:.35278;stroke:#141414"/>
  <path d="m71.369 212.21c-3.8608 2.2288-5.1834 7.1656-2.9545 11.026 2.2288 3.8608 7.1656 5.1837 11.026 2.9545 3.8605-2.2288 5.1834-7.1656 2.9542-11.026-2.2288-3.8608-7.1653-5.1834-11.026-2.9545z" style="fill:none;stroke-miterlimit:10;stroke-width:.35278;stroke:#141414"/>
  <path d="m97.952 219.2c0 4.458 3.6139 8.0716 8.0716 8.0716 4.458 0 8.0719-3.6135 8.0719-8.0716s-3.6138-8.0716-8.0719-8.0716c-4.4577 0-8.0716 3.6135-8.0716 8.0716z" style="fill:none;stroke-miterlimit:10;stroke-width:.35278;stroke:#141414"/>
  <path d="m117.3 199.67c3.8608 2.2288 8.7972 0.90629 11.026-2.9545 2.2292-3.8605 0.90629-8.7972-2.9542-11.026-3.8608-2.2288-8.7972-0.90629-11.026 2.9545-2.2288 3.8604-0.90594 8.7972 2.9545 11.026z" style="fill:none;stroke-miterlimit:10;stroke-width:.35278;stroke:#141414"/>
  <path d="m110.06 173.15c3.8608-2.2288 5.1834-7.1656 2.9545-11.026-2.2288-3.8608-7.1656-5.1834-11.026-2.9545-3.8608 2.2288-5.1837 7.1656-2.9545 11.026 2.2288 3.8608 7.1653 5.1834 11.026 2.9545z" style="fill:none;stroke-miterlimit:10;stroke-width:.35278;stroke:#141414"/>
  <path d="m90.714 153.1v79.147" style="fill:none;stroke-miterlimit:10;stroke-width:.35278;stroke:#141414"/>
  <path d="m56.443 172.89 68.544 39.574" style="fill:none;stroke-miterlimit:10;stroke-width:.35278;stroke:#141414"/>
  <path d="m56.443 212.47 68.544-39.574" style="fill:none;stroke-miterlimit:10;stroke-width:.35278;stroke:#141414"/>
  <path d="m60.095 192.68 30.627 0.0296" style="fill:none;stroke-miterlimit:10;stroke-width:.35278;stroke:#141414"/>
  <path d="m75.383 219.22 15.339-26.509" style="fill:none;stroke-miterlimit:10;stroke-width:.35278;stroke:#141414"/>
  <path d="m106.01 219.25-15.288-26.539" style="fill:none;stroke-miterlimit:10;stroke-width:.35278;stroke:#141414"/>
  <path d="m121.35 192.74-30.627-0.0296" style="fill:none;stroke-miterlimit:10;stroke-width:.35278;stroke:#141414"/>
  <path d="m106.06 166.2-15.339 26.509" style="fill:none;stroke-miterlimit:10;stroke-width:.35278;stroke:#141414"/>
  <path d="m75.434 166.17 15.288 26.539" style="fill:none;stroke-miterlimit:10;stroke-width:.35278;stroke:#141414"/>
 </g>
</svg>
