<svg width="81.269mm" height="75.133mm" version="1.1" viewBox="0 0 81.269 75.133" xmlns="http://www.w3.org/2000/svg">
 <g transform="translate(48.95 -149.82)">
  <path d="m18.656 187.39c0 14.896-12.075 26.971-26.971 26.971-14.896 0-26.971-12.075-26.971-26.971s12.075-26.971 26.971-26.971c14.896 0 26.971 12.075 26.971 26.971z" style="fill:none;stroke-miterlimit:10;stroke-width:.35278;stroke:#141414"/>
  <path d="m-21.801 164.03 13.486 23.357v-26.845z" style="fill:none;stroke-miterlimit:10;stroke-width:.35278;stroke:#141414"/>
  <path d="m-35.286 187.39h26.971l-23.249-13.422z" style="fill:none;stroke-miterlimit:10;stroke-width:.35278;stroke:#141414"/>
  <path d="m-21.801 210.74 13.486-23.357-23.249 13.422z" style="fill:none;stroke-miterlimit:10;stroke-width:.35278;stroke:#141414"/>
  <path d="m5.1701 210.74-13.486-23.357v26.845z" style="fill:none;stroke-miterlimit:10;stroke-width:.35278;stroke:#141414"/>
  <path d="m18.656 187.39h-26.971l23.249 13.422z" style="fill:none;stroke-miterlimit:10;stroke-width:.35278;stroke:#141414"/>
  <path d="m5.1701 164.03-13.486 23.357 23.249-13.422z" style="fill:none;stroke-miterlimit:10;stroke-width:.35278;stroke:#141414"/>
  <path d="m-18.284 224.59-17.267-9.9692-9.9691-17.267v-19.938l9.9691-17.267 17.267-9.9692h19.938l17.267 9.9692 9.9691 17.267v19.938l-9.9691 17.267-17.267 9.9692z" style="fill:none;stroke-miterlimit:10;stroke-width:.35278;stroke:#141414"/>
  <path d="m-18.284 150.18-3.5165 13.847-13.75-3.8781z" style="fill:none;stroke-miterlimit:10;stroke-width:.35278;stroke:#141414"/>
  <path d="m-35.551 160.15 3.8781 13.75-13.847 3.5165z" style="fill:none;stroke-miterlimit:10;stroke-width:.35278;stroke:#141414"/>
  <path d="m-45.52 177.42 10.234 9.9688-10.234 9.9692z" style="fill:none;stroke-miterlimit:10;stroke-width:.35278;stroke:#141414"/>
  <path d="m-45.52 197.36 13.847 3.5165-3.8784 13.75z" style="fill:none;stroke-miterlimit:10;stroke-width:.35278;stroke:#141414"/>
  <path d="m-35.551 214.62 13.75-3.8781 3.5165 13.847z" style="fill:none;stroke-miterlimit:10;stroke-width:.35278;stroke:#141414"/>
  <path d="m-18.284 224.59 9.9691-10.234 9.9688 10.234z" style="fill:none;stroke-miterlimit:10;stroke-width:.35278;stroke:#141414"/>
  <path d="m1.6536 224.59 3.5165-13.847 13.75 3.8781z" style="fill:none;stroke-miterlimit:10;stroke-width:.35278;stroke:#141414"/>
  <path d="m18.92 214.62-3.8781-13.75 13.847-3.5165z" style="fill:none;stroke-miterlimit:10;stroke-width:.35278;stroke:#141414"/>
  <path d="m28.889 197.36-10.234-9.9692 10.234-9.9688z" style="fill:none;stroke-miterlimit:10;stroke-width:.35278;stroke:#141414"/>
  <path d="m28.889 177.42-13.847-3.5165 3.8784-13.75z" style="fill:none;stroke-miterlimit:10;stroke-width:.35278;stroke:#141414"/>
  <path d="m18.92 160.15-13.75 3.8781-3.5165-13.847z" style="fill:none;stroke-miterlimit:10;stroke-width:.35278;stroke:#141414"/>
  <path d="m1.6536 150.18-9.9688 10.234-9.9691-10.234z" style="fill:none;stroke-miterlimit:10;stroke-width:.35278;stroke:#141414"/>
  <path d="m-8.3153 164.03c0-7.4478-6.0378-13.486-13.486-13.486s-13.485 6.0378-13.485 13.486 6.0374 13.486 13.485 13.486 13.486-6.0378 13.486-13.486z" style="fill:none;stroke-miterlimit:10;stroke-width:.35278;stroke:#141414"/>
  <path d="m-28.544 175.71c-6.4502-3.7239-14.698-1.5141-18.422 4.9361-3.7239 6.4498-1.5138 14.697 4.9361 18.421 6.4502 3.7239 14.698 1.5141 18.422-4.9357 3.7239-6.4502 1.5138-14.698-4.9361-18.422z" style="fill:none;stroke-miterlimit:10;stroke-width:.35278;stroke:#141414"/>
  <path d="m-28.544 199.07c-6.4502 3.7239-8.66 11.972-4.9361 18.422 3.7239 6.4498 11.972 8.6596 18.422 4.9357 6.4498-3.7239 8.6596-11.972 4.9357-18.421-3.7239-6.4502-11.972-8.66-18.421-4.9361z" style="fill:none;stroke-miterlimit:10;stroke-width:.35278;stroke:#141414"/>
  <path d="m-8.3153 210.74c0 7.4478 6.0378 13.486 13.486 13.486 7.4478 0 13.485-6.0378 13.485-13.486s-6.0374-13.486-13.485-13.486c-7.4478 0-13.486 6.0378-13.486 13.486z" style="fill:none;stroke-miterlimit:10;stroke-width:.35278;stroke:#141414"/>
  <path d="m11.913 199.07c6.4498 3.7239 14.698 1.5141 18.421-4.9361 3.7239-6.4498 1.5141-14.697-4.9357-18.421-6.4502-3.7239-14.698-1.5141-18.422 4.9361-3.7239 6.4498-1.5141 14.697 4.9361 18.421z" style="fill:none;stroke-miterlimit:10;stroke-width:.35278;stroke:#141414"/>
  <path d="m11.913 175.71c6.4498-3.7239 8.66-11.972 4.9361-18.422-3.7239-6.4498-11.972-8.6596-18.422-4.9357-6.4498 3.7239-8.6596 11.972-4.9361 18.421 3.7239 6.4502 11.972 8.66 18.422 4.9361z" style="fill:none;stroke-miterlimit:10;stroke-width:.35278;stroke:#141414"/>
  <path d="m-17.046 164.03c0 2.6261-2.129 4.7551-4.7551 4.7551-2.6264 0-4.7551-2.129-4.7551-4.7551s2.1287-4.7551 4.7551-4.7551c2.6261 0 4.7551 2.129 4.7551 4.7551z" style="fill:none;stroke-miterlimit:10;stroke-width:.35278;stroke:#141414"/>
  <path d="m-32.909 183.27c2.2744 1.313 3.0536 4.2213 1.7406 6.4957-1.313 2.2744-4.2213 3.0536-6.4957 1.7406-2.2744-1.313-3.0536-4.2213-1.7406-6.4957 1.313-2.2744 4.2213-3.0536 6.4957-1.7406z" style="fill:none;stroke-miterlimit:10;stroke-width:.35278;stroke:#141414"/>
  <path d="m-24.178 206.63c2.2744-1.313 5.1827-0.53375 6.4957 1.7406 1.313 2.2744 0.53376 5.1826-1.7406 6.4957-2.2744 1.313-5.1827 0.53376-6.4957-1.7406-1.313-2.2744-0.53375-5.1827 1.7406-6.4957z" style="fill:none;stroke-miterlimit:10;stroke-width:.35278;stroke:#141414"/>
  <path d="m0.41497 210.74c0-2.6261 2.129-4.7551 4.7551-4.7551 2.6264 0 4.7551 2.129 4.7551 4.7551s-2.1287 4.7551-4.7551 4.7551c-2.6261 0-4.7551-2.129-4.7551-4.7551z" style="fill:none;stroke-miterlimit:10;stroke-width:.35278;stroke:#141414"/>
  <path d="m16.278 191.51c-2.2744-1.313-3.0536-4.2213-1.7406-6.4957 1.313-2.2744 4.2213-3.0536 6.4957-1.7406 2.2744 1.313 3.0536 4.2213 1.7406 6.4957-1.313 2.2744-4.2213 3.0536-6.4957 1.7406z" style="fill:none;stroke-miterlimit:10;stroke-width:.35278;stroke:#141414"/>
  <path d="m7.5477 168.15c-2.2744 1.313-5.1827 0.53375-6.4957-1.7406-1.313-2.2744-0.53375-5.1826 1.7406-6.4957 2.2744-1.313 5.1823-0.53376 6.4957 1.7406 1.313 2.2744 0.53375 5.1827-1.7406 6.4957z" style="fill:none;stroke-miterlimit:10;stroke-width:.35278;stroke:#141414"/>
 </g>
</svg>
