<svg width="80.326mm" height="80.326mm" version="1.1" viewBox="0 0 80.326 80.326" xmlns="http://www.w3.org/2000/svg">
 <g transform="translate(-225.18 -284.81)">
  <path d="m285.73 324.97c0 11.264-9.1313 20.395-20.395 20.395s-20.395-9.1313-20.395-20.395 9.131-20.395 20.395-20.395 20.395 9.1313 20.395 20.395z" style="fill:none;stroke-miterlimit:10;stroke-width:.35278;stroke:#141414"/>
  <path d="m253.76 352.91-16.369-16.369v-23.149l16.369-16.369h23.149l16.369 16.369v23.149l-16.369 16.369z" style="fill:none;stroke-miterlimit:10;stroke-width:.35278;stroke:#141414"/>
  <path d="m265.34 324.97 11.575-27.944 16.369 16.369z" style="fill:none;stroke-miterlimit:10;stroke-width:.35278;stroke:#141414"/>
  <path d="m265.34 324.97-11.575-27.944h23.149z" style="fill:none;stroke-miterlimit:10;stroke-width:.35278;stroke:#141414"/>
  <path d="m265.34 324.97-27.944-11.575 16.369-16.369z" style="fill:none;stroke-miterlimit:10;stroke-width:.35278;stroke:#141414"/>
  <path d="m265.34 324.97-27.944 11.575v-23.149z" style="fill:none;stroke-miterlimit:10;stroke-width:.35278;stroke:#141414"/>
  <path d="m265.34 324.97-11.575 27.944-16.369-16.369z" style="fill:none;stroke-miterlimit:10;stroke-width:.35278;stroke:#141414"/>
  <path d="m265.34 324.97 11.575 27.944h-23.149z" style="fill:none;stroke-miterlimit:10;stroke-width:.35278;stroke:#141414"/>
  <path d="m265.34 324.97 27.944 11.575-16.369 16.369z" style="fill:none;stroke-miterlimit:10;stroke-width:.35278;stroke:#141414"/>
  <path d="m265.34 324.97 27.944-11.575v23.149z" style="fill:none;stroke-miterlimit:10;stroke-width:.35278;stroke:#141414"/>
  <path d="m253.76 297.03 11.575-7.5029 11.575 7.5029z" style="fill:none;stroke-miterlimit:10;stroke-width:.35278;stroke:#141414"/>
  <path d="m237.4 313.4 2.879-13.49 13.49-2.879z" style="fill:none;stroke-miterlimit:10;stroke-width:.35278;stroke:#141414"/>
  <path d="m237.4 336.54-7.5029-11.575 7.5029-11.575z" style="fill:none;stroke-miterlimit:10;stroke-width:.35278;stroke:#141414"/>
  <path d="m253.76 352.91-13.49-2.879-2.879-13.49z" style="fill:none;stroke-miterlimit:10;stroke-width:.35278;stroke:#141414"/>
  <path d="m276.91 352.91-11.575 7.5029-11.575-7.5029z" style="fill:none;stroke-miterlimit:10;stroke-width:.35278;stroke:#141414"/>
  <path d="m293.28 336.54-2.879 13.49-13.49 2.879z" style="fill:none;stroke-miterlimit:10;stroke-width:.35278;stroke:#141414"/>
  <path d="m293.28 313.4 7.5029 11.575-7.5029 11.575z" style="fill:none;stroke-miterlimit:10;stroke-width:.35278;stroke:#141414"/>
  <path d="m276.91 297.03 13.49 2.879 2.879 13.49z" style="fill:none;stroke-miterlimit:10;stroke-width:.35278;stroke:#141414"/>
  <path d="m244.78 298.23c1.0005 2.4151-0.14605 5.1837-2.5612 6.1842-2.4151 1.0005-5.1837-0.14605-6.1842-2.5612-1.0005-2.4151 0.14605-5.1837 2.5612-6.1842 2.4148-1.0005 5.1837 0.14605 6.1842 2.5612z" style="fill:none;stroke-miterlimit:10;stroke-width:.35278;stroke:#141414"/>
  <path d="m231.9 320.6c2.4151 1.0001 3.562 3.7687 2.5619 6.1838-1.0001 2.4151-3.7687 3.5624-6.1838 2.5619-2.4151-1.0001-3.5624-3.7687-2.5619-6.1838 1.0001-2.4151 3.7687-3.562 6.1838-2.5619z" style="fill:none;stroke-miterlimit:10;stroke-width:.35278;stroke:#141414"/>
  <path d="m238.6 345.53c2.4151-1.0005 5.1837 0.14605 6.1842 2.5612 1.0005 2.4151-0.14605 5.1837-2.5612 6.1842-2.4151 1.0005-5.1837-0.14605-6.1842-2.5612-1.0005-2.4148 0.14605-5.1837 2.5612-6.1842z" style="fill:none;stroke-miterlimit:10;stroke-width:.35278;stroke:#141414"/>
  <path d="m260.97 358.41c1.0001-2.4151 3.7687-3.562 6.1838-2.5619 2.4151 1.0001 3.5624 3.7687 2.5619 6.1838-1.0001 2.4151-3.7687 3.5624-6.1838 2.5619-2.4151-1.0001-3.562-3.7687-2.5619-6.1838z" style="fill:none;stroke-miterlimit:10;stroke-width:.35278;stroke:#141414"/>
  <path d="m285.9 351.71c-1.0005-2.4151 0.14605-5.1837 2.5612-6.1842 2.4151-1.0005 5.1837 0.14605 6.1842 2.5612 1.0005 2.4151-0.14605 5.1837-2.5612 6.1842-2.4148 1.0005-5.1837-0.14605-6.1842-2.5612z" style="fill:none;stroke-miterlimit:10;stroke-width:.35278;stroke:#141414"/>
  <path d="m298.78 329.34c-2.4151-1.0001-3.562-3.7687-2.5619-6.1838 1.0001-2.4151 3.7687-3.5624 6.1838-2.5619 2.4151 1.0001 3.5624 3.7687 2.5619 6.1838-1.0001 2.4151-3.7687 3.562-6.1838 2.5619z" style="fill:none;stroke-miterlimit:10;stroke-width:.35278;stroke:#141414"/>
  <path d="m292.08 304.41c-2.4151 1.0005-5.1837-0.14605-6.1842-2.5612-1.0005-2.4151 0.14605-5.1837 2.5612-6.1842 2.4151-1.0005 5.1837 0.14605 6.1842 2.5612 1.0005 2.4151-0.14605 5.1837-2.5612 6.1842z" style="fill:none;stroke-miterlimit:10;stroke-width:.35278;stroke:#141414"/>
  <path d="m269.71 291.53c-1.0001 2.4151-3.7687 3.562-6.1838 2.5619-2.4151-1.0001-3.5624-3.7687-2.5619-6.1838 1.0001-2.4151 3.7687-3.5624 6.1838-2.5619 2.4151 1.0001 3.562 3.7687 2.5619 6.1838z" style="fill:none;stroke-miterlimit:10;stroke-width:.35278;stroke:#141414"/>
  <path d="m240.27 299.91 25.064-10.382-11.574 7.5029z" style="fill:none;stroke-miterlimit:10;stroke-width:.35278;stroke:#141414"/>
  <path d="m229.89 324.97 10.382-25.064-2.879 13.49z" style="fill:none;stroke-miterlimit:10;stroke-width:.35278;stroke:#141414"/>
  <path d="m240.27 350.03-10.382-25.064 7.5029 11.574z" style="fill:none;stroke-miterlimit:10;stroke-width:.35278;stroke:#141414"/>
  <path d="m265.34 360.42-25.064-10.382 13.49 2.879z" style="fill:none;stroke-miterlimit:10;stroke-width:.35278;stroke:#141414"/>
  <path d="m290.4 350.03-25.065 10.382 11.575-7.5029z" style="fill:none;stroke-miterlimit:10;stroke-width:.35278;stroke:#141414"/>
  <path d="m300.79 324.97-10.382 25.064 2.879-13.49z" style="fill:none;stroke-miterlimit:10;stroke-width:.35278;stroke:#141414"/>
  <path d="m290.4 299.91 10.382 25.064-7.5029-11.574z" style="fill:none;stroke-miterlimit:10;stroke-width:.35278;stroke:#141414"/>
  <path d="m265.34 289.52 25.065 10.382-13.49-2.879z" style="fill:none;stroke-miterlimit:10;stroke-width:.35278;stroke:#141414"/>
  <path d="m265.34 324.97v-35.446" style="fill:none;stroke-miterlimit:10;stroke-width:.35278;stroke:#141414"/>
  <path d="m240.27 299.91 25.064 25.064" style="fill:none;stroke-miterlimit:10;stroke-width:.35278;stroke:#141414"/>
  <path d="m229.89 324.97h35.446" style="fill:none;stroke-miterlimit:10;stroke-width:.35278;stroke:#141414"/>
  <path d="m240.27 350.03 25.064-25.064" style="fill:none;stroke-miterlimit:10;stroke-width:.35278;stroke:#141414"/>
  <path d="m265.34 360.42v-35.446" style="fill:none;stroke-miterlimit:10;stroke-width:.35278;stroke:#141414"/>
  <path d="m290.4 350.03-25.065-25.064" style="fill:none;stroke-miterlimit:10;stroke-width:.35278;stroke:#141414"/>
  <path d="m300.79 324.97h-35.446" style="fill:none;stroke-miterlimit:10;stroke-width:.35278;stroke:#141414"/>
  <path d="m290.4 299.91-25.065 25.064" style="fill:none;stroke-miterlimit:10;stroke-width:.35278;stroke:#141414"/>
  <path d="m288.12 297.03c0-6.1874-5.0158-11.203-11.203-11.203-6.1874 0-11.203 5.0158-11.203 11.203s5.0158 11.203 11.203 11.203c6.1874 0 11.203-5.0158 11.203-11.203z" style="fill:none;stroke-miterlimit:10;stroke-width:.35278;stroke:#141414"/>
  <path d="m261.69 289.1c-4.3752-4.3752-11.468-4.3752-15.844 0s-4.3752 11.468 0 15.844 11.468 4.3752 15.844 0 4.3752-11.468 0-15.844z" style="fill:none;stroke-miterlimit:10;stroke-width:.35278;stroke:#141414"/>
  <path d="m237.4 302.19c-6.1874 0-11.203 5.0158-11.203 11.203s5.0158 11.203 11.203 11.203 11.203-5.0158 11.203-11.203-5.0158-11.203-11.203-11.203z" style="fill:none;stroke-miterlimit:10;stroke-width:.35278;stroke:#141414"/>
  <path d="m229.47 328.62c-4.3752 4.3752-4.3752 11.468 0 15.844s11.468 4.3752 15.844 0 4.3752-11.468 0-15.844-11.468-4.3752-15.844 0z" style="fill:none;stroke-miterlimit:10;stroke-width:.35278;stroke:#141414"/>
  <path d="m242.56 352.91c0 6.1874 5.0158 11.203 11.203 11.203s11.203-5.0158 11.203-11.203-5.0158-11.203-11.203-11.203-11.203 5.0158-11.203 11.203z" style="fill:none;stroke-miterlimit:10;stroke-width:.35278;stroke:#141414"/>
  <path d="m268.99 360.84c4.3752 4.3752 11.468 4.3752 15.844 0s4.3752-11.468 0-15.844-11.468-4.3752-15.844 0-4.3752 11.468 0 15.844z" style="fill:none;stroke-miterlimit:10;stroke-width:.35278;stroke:#141414"/>
  <path d="m293.28 347.75c6.1874 0 11.203-5.0158 11.203-11.203s-5.0158-11.203-11.203-11.203-11.203 5.0158-11.203 11.203 5.0158 11.203 11.203 11.203z" style="fill:none;stroke-miterlimit:10;stroke-width:.35278;stroke:#141414"/>
  <path d="m301.2 321.32c4.3752-4.3752 4.3752-11.468 0-15.844s-11.468-4.3752-15.844 0-4.3752 11.468 0 15.844 11.468 4.3752 15.844 0z" style="fill:none;stroke-miterlimit:10;stroke-width:.35278;stroke:#141414"/>
 </g>
</svg>
