<svg style="enable-background:new 0 0 215.044 215.044" version="1.1" viewBox="0 0 215.04 215.04" xmlns="http://www.w3.org/2000/svg">
 <path d="m50.376 68.229-11.176-1.807c-1.882-0.294-3.615 0.966-3.915 2.826s0.964 3.613 2.825 3.913l11.431 1.847c0.179 0.029 0.364 0.043 0.544 0.043 4.379 0 7.943 2.724 7.943 6.074v4.21h-51.2v-4.21c0-3.35 3.564-6.074 7.943-6.074 0.181 0 0.365-0.012 0.544-0.043l11.918-1.927c1.86-0.3 3.125-2.053 2.825-3.913-0.302-1.864-2.06-3.133-3.915-2.826l-11.663 1.886c-8.012 0.133-14.48 5.867-14.48 12.897v7.624c0 1.886 1.529 3.413 3.413 3.413h58.027c1.884 0 3.413-1.527 3.417-3.413v-7.622c0-7.03-6.47-12.765-14.481-12.898z" style="fill:#174c66"/>
 <path d="m34.627 27.309h-4.454c-9.139 0-16.573 7.434-16.573 16.573v14.93c0 5.214 4.243 9.457 9.458 9.457h0.836v6.827c0 1.886 1.529 3.413 3.413 3.413h10.24c1.884 0 3.413-1.527 3.413-3.413v-6.827h0.783c5.216 0 9.457-4.243 9.457-9.457v-14.93c0-9.141-7.436-16.573-16.573-16.573zm9.746 31.503c0 1.451-1.179 2.63-2.63 2.63h-4.197c-1.884 0-3.413 1.527-3.413 3.413v6.827h-3.413v-6.827c0-1.886-1.529-3.413-3.413-3.413h-4.25c-1.452 0-2.632-1.179-2.632-2.63v-14.93c0-5.374 4.372-9.747 9.747-9.747h4.454c5.374 0 9.747 4.374 9.747 9.747z" style="fill:#174c66"/>
 <path d="m125.47 68.229-11.01-1.78c-1.86-0.321-3.613 0.966-3.913 2.826s0.963 3.613 2.826 3.913l11.264 1.819c0.179 0.029 0.36 0.043 0.543 0.043 4.379 0 7.943 2.724 7.943 6.074v4.21h-51.2v-4.212c0-3.35 3.564-6.074 7.943-6.074 0.181 0 0.365-0.012 0.544-0.043l11.844-1.913c1.864-0.3 3.127-2.053 2.826-3.913-0.3-1.86-2.057-3.123-3.913-2.826l-11.592 1.874c-8.011 0.133-14.481 5.867-14.481 12.897v7.624c0 1.886 1.529 3.413 3.413 3.413h58.027c1.886 0 3.413-1.527 3.415-3.413v-7.622c0-7.029-6.47-12.764-14.479-12.897z" style="fill:#174c66"/>
 <path d="m109.72 27.309h-4.453c-9.141 0-16.575 7.434-16.575 16.573v14.93c0 5.214 4.243 9.457 9.458 9.457h0.836v6.827c0 1.886 1.527 3.413 3.413 3.413h10.24c1.886 0 3.413-1.527 3.413-3.413v-6.827h0.783c5.214 0 9.457-4.243 9.457-9.457v-14.93c1e-3 -9.141-7.433-16.573-16.572-16.573zm9.747 31.503c0 1.451-1.179 2.63-2.63 2.63h-4.197c-1.886 0-3.413 1.527-3.413 3.413v6.827h-3.413v-6.827c0-1.886-1.527-3.413-3.413-3.413h-4.25c-1.452 0-2.632-1.179-2.632-2.63v-14.93c0-5.374 4.372-9.747 9.748-9.747h4.453c5.374 0 9.747 4.374 9.747 9.747z" style="fill:#174c66"/>
 <path d="m200.56 68.228-10.47-1.693c-1.87-0.307-3.613 0.963-3.913 2.826-0.3 1.86 0.963 3.613 2.826 3.913l10.723 1.734c0.179 0.029 0.36 0.043 0.543 0.043 4.379 0 7.943 2.724 7.943 6.074v4.21h-51.2v-4.212c0-3.35 3.564-6.074 7.943-6.074 0.183 0 0.364-0.012 0.543-0.043l10.824-1.749c1.864-0.3 3.127-2.053 2.826-3.913-0.3-1.86-2.06-3.149-3.913-2.826l-10.569 1.71c-8.009 0.133-14.479 5.867-14.479 12.897v7.624c0 1.886 1.527 3.413 3.413 3.413h58.027c1.886 0 3.413-1.527 3.415-3.413v-7.624c-2e-3 -7.03-6.472-12.764-14.482-12.897z" style="fill:#174c66"/>
 <path d="m184.81 27.309h-4.453c-9.141 0-16.573 7.434-16.573 16.573v14.93c0 5.214 4.243 9.457 9.457 9.457h0.836v6.827c0 1.886 1.527 3.413 3.413 3.413h10.24c1.886 0 3.413-1.527 3.413-3.413v-6.827h0.783c5.214 0 9.457-4.243 9.457-9.457v-14.93c1e-3 -9.141-7.434-16.573-16.573-16.573zm9.748 31.503c-1e-3 1.451-1.18 2.63-2.631 2.63h-4.197c-1.886 0-3.413 1.527-3.413 3.413v6.827h-3.413v-6.827c0-1.886-1.527-3.413-3.413-3.413h-4.25c-1.451 0-2.63-1.179-2.63-2.63v-14.93c0-5.374 4.374-9.747 9.747-9.747h4.453c5.374 0 9.747 4.374 9.747 9.747z" style="fill:#174c66"/>
 <path d="m32.427 102.4c-8.47 0-15.36 6.89-15.36 15.36s6.89 15.36 15.36 15.36 15.36-6.89 15.36-15.36-6.89-15.36-15.36-15.36zm0 23.893c-4.705 0-8.533-3.826-8.533-8.533s3.828-8.533 8.533-8.533 8.533 3.826 8.533 8.533-3.828 8.533-8.533 8.533z" style="fill:#174c66"/>
 <path d="m107.52 102.4c-8.47 0-15.36 6.89-15.36 15.36s6.89 15.36 15.36 15.36 15.36-6.89 15.36-15.36-6.89-15.36-15.36-15.36zm0 23.893c-4.707 0-8.533-3.826-8.533-8.533s3.826-8.533 8.533-8.533 8.533 3.826 8.533 8.533-3.826 8.533-8.533 8.533z" style="fill:#174c66"/>
 <path d="m182.61 102.4c-8.47 0-15.36 6.89-15.36 15.36s6.89 15.36 15.36 15.36 15.36-6.89 15.36-15.36-6.889-15.36-15.36-15.36zm0 23.893c-4.707 0-8.533-3.826-8.533-8.533s3.826-8.533 8.533-8.533 8.533 3.826 8.533 8.533-3.826 8.533-8.533 8.533z" style="fill:#174c66"/>
 <path d="m54.613 146.78h-44.373c-1.884 0-3.413 1.527-3.413 3.413s1.529 3.413 3.413 3.413h44.373c1.884 0 3.413-1.527 3.413-3.413s-1.529-3.413-3.413-3.413z" style="fill:#174c66"/>
 <path d="m47.787 163.84h-30.72c-1.884 0-3.413 1.527-3.413 3.413s1.529 3.413 3.413 3.413h30.72c1.884 0 3.413-1.527 3.413-3.413s-1.529-3.413-3.413-3.413z" style="fill:#174c66"/>
 <path d="m47.787 180.91h-30.72c-1.884 0-3.413 1.527-3.413 3.413s1.529 3.413 3.413 3.413h30.72c1.884 0 3.413-1.527 3.413-3.413s-1.529-3.413-3.413-3.413z" style="fill:#174c66"/>
 <path d="m129.71 146.78h-44.374c-1.884 0-3.413 1.527-3.413 3.413s1.529 3.413 3.413 3.413h44.373c1.886 0 3.413-1.527 3.413-3.413s-1.526-3.413-3.412-3.413z" style="fill:#174c66"/>
 <path d="m122.88 163.84h-30.72c-1.884 0-3.413 1.527-3.413 3.413s1.529 3.413 3.413 3.413h30.72c1.886 0 3.413-1.527 3.413-3.413s-1.527-3.413-3.413-3.413z" style="fill:#174c66"/>
 <path d="m122.88 180.91h-30.72c-1.884 0-3.413 1.527-3.413 3.413s1.529 3.413 3.413 3.413h30.72c1.886 0 3.413-1.527 3.413-3.413s-1.527-3.413-3.413-3.413z" style="fill:#174c66"/>
 <path d="m204.8 146.78h-44.373c-1.886 0-3.413 1.527-3.413 3.413s1.527 3.413 3.413 3.413h44.373c1.886 0 3.413-1.527 3.413-3.413s-1.527-3.413-3.413-3.413z" style="fill:#174c66"/>
 <path d="m197.97 163.84h-30.72c-1.886 0-3.413 1.527-3.413 3.413s1.527 3.413 3.413 3.413h30.72c1.886 0 3.413-1.527 3.413-3.413s-1.527-3.413-3.413-3.413z" style="fill:#174c66"/>
 <path d="m197.97 180.91h-30.72c-1.886 0-3.413 1.527-3.413 3.413s1.527 3.413 3.413 3.413h30.72c1.886 0 3.413-1.527 3.413-3.413s-1.527-3.413-3.413-3.413z" style="fill:#174c66"/>
</svg>
