<svg enable-background="new 0 0 2688.664 1559.805" version="1.1" viewBox="0 0 2688.7 1559.8" xmlns="http://www.w3.org/2000/svg">
 <defs>
  <filter id="filter6934" x="-.3024" y="-.3024" width="1.6048" height="1.6048" style="color-interpolation-filters:sRGB">
   <feGaussianBlur stdDeviation="81.751067"/>
  </filter>
 </defs>
 <circle cx="1634.1" cy="767.53" r="324.41" style="fill:#fffcdf;filter:url(#filter6934)"/>
 <path d="m1732.6 492.99c-3.195 0.0238-6.3275 0.8218-9.3925 2.5918-4.49 2.58-8.5103 2.2706-13.32 0.89062-10.34-2.97-21.06-3.4911-31.69-1.8711-25.63 3.88-48.25 14.62-68.23 31.01-4.39 3.61-7.9607 7.9206-11.221 12.641-7.21 10.42-13.219 21.531-19.809 32.311-6.41 10.49-9.5112 21.779-11.531 33.619-1.9 11.12-3.2992 22.391-6.1192 33.281-4.82 18.67-6.9712 37.87-11.781 56.51-0.49 1.93-1.1594 3.8584-1.3594 5.8184-0.78 7.45-0.5298 14.761 5.1602 20.531 3.98 4.03 5.129 9.0798 6.289 14.34 2.39 10.81 2.5317 21.719 2.1817 32.689-0.15 4.87 1.01 10.18-4.5 13.33-0.69 0.39-1.2209 1.7904-1.1309 2.6504 0.62 5.78-2.7105 10.889-2.5605 16.609 0.13 4.97-0.45 9.621-3.25 14.291-2.03 3.39-2.0992 7.9786-5.8692 10.559-1.41 9.83-8.9894 13.661-16.939 16.391-10.73 3.69-20.982 8.3312-31.182 13.201-6.38 3.05-12.089 6.9194-17.369 11.609-10.89 9.67-18.83 21.49-25.5 34.27-6.93 13.26-13.791 26.541-20.721 39.801-0.95 1.82-1.4188 3.6788-1.4688 5.7188-0.61 21.49-6.99 41.86-12.33 62.41-0.61 2.38-1.361 4.7408-1.961 7.1308-0.63 2.46-1.119 4.9292-1.209 7.4492-0.32 9.43-3.37 18.28-5.58 27.26-3.57 14.51-8.0597 28.79-11.93 43.23-2.84 10.58-4.8712 21.391-9.4512 31.471-0.93 2.05-1.2905 4.509-1.3105 6.789-0.04 4.49-1.5095 8.4311-3.4395 12.371-1.6 3.27-3.1301 6.6888-3.9101 10.219-1.03 4.66-2.9386 8.7504-5.4786 12.73-3.97 6.23-6.7707 12.901-7.3007 20.461-0.2 2.93-1.2707 5.8401-2.2207 8.6601-1.69 5.05-3.3186 10.06-3.9786 15.43-0.72 5.91-1.6909 11.9-3.4609 17.57-3.35 10.77-7.5905 21.259-9.4805 32.469-0.57 3.34-1.4504 3.6205-4.9004 1.7305-8.47-4.62-16.888-9.32-25.228-14.17-22.54-13.1-46.461-22.94-71.551-29.92-21.29-5.92-41.6-3.6805-60.32 8.5195-14.98 9.76-25.619 23.25-31.939 39.9-4.06 10.7-6.0799 21.94-3.6699 33.35 3.61 17.05 9.0804 33.42 19.73 47.6 2.6 3.46 5.0995 7.0007 7.6895 10.471 5.57 7.48 11.201 14.91 16.721 22.43 1.89 2.58 1.0798 4.5894-1.9102 4.8594-2.98 0.26-5.9904 0.251-8.9804 0.291-27.33 0.37-54.601-1.2506-81.881-2.3906-29.94-1.25-59.868-2.7397-89.818-3.9297-12.31-0.48-24.731 0.3999-36.951-0.8301-18.92-1.9-37.92-1.1903-56.85-3.1503-16.51-1.71-33.21-0.3391-49.85-2.0391-14.19-1.45-28.551-0.6602-42.861-1.9902-15.86-1.48-31.88-0.5899-47.85-2.0899-14.86-1.39-29.86-0.781-44.83-2.041-17.55-1.47-35.259-1.3886-52.889-2.0586-29.93-1.13-59.84-2.3609-89.74-4.1309-19.25-1.14-38.571-1.7507-57.861-2.3007-25.3-0.74-50.549-3.1686-75.889-2.5586-1.66 0.04-3.3605 0.01-4.9805-0.2813-15.47-2.77-31.211-2.129-46.791-3.039-21.91-1.28-43.89-1.9104-65.84-2.9004-6.65-0.29-13.379 0.261-19.979-0.459-22.88-2.5-45.92-0.9017-68.82-3.1817-10.25-1.02-20.681-0.2592-30.941-1.1992-14.91-1.38-29.879-1.3504-44.799-2.9004-16.51-1.71-33.241-0.2493-49.871-2.1093-11.86-1.32-23.95-1.6604-35.85-1.8204-25.65-0.34-51.2-2.9392-76.85-2.6992-3.31 0.03-6.6699 0.5695-9.9199-0.5605v225.97c3.65 0.17 7.2992 0.4687 10.949 0.4687 209.62 0 419.25 0.01 628.87 0 0.01 0.01 0.01 0.01 0.01 0 679.63 0.02 1359.3 0.02 2038.9 0 3.65 0 7.2993-0.2987 10.949-0.4687v-123.98c-7.98 0.07-15.971 0.2392-23.961 0.1992-8.97-0.06-17.9-0.1001-26.85-1.6601-9.14-1.6-18.419-3.3389-27.779-2.5489-18.37 1.56-36.54-1.8998-54.84-1.8398-0.99 0-1.9907-0.2004-2.9707-0.4004-10.89-2.31-22.13-2.2196-32.83-0.8496-14.16 1.81-28.789-0.4405-42.549 4.6895-1.2 0.45-2.6505 0.279-3.9805 0.289-20.98 0.17-41.96 0.361-62.94 0.461-10.32 0.05-20.631-0.1-30.941-0.1-6.63 0-13.33 0.8093-19.42-3.0507-1.29-0.82-3.1996-0.8197-4.8496-0.9297-10.27-0.66-20.55-1.3908-30.83-1.8008-9.32-0.37-18.65-0.3795-27.98-0.5195-2.66-0.04-5.2901 0.05-7.8301-1.0996-5.01-2.26-10.31-2.5311-15.69-2.0411-4.69 0.42-9.3905 0.3202-13.81-1.3398-4.83-1.81-9.7893-1.8487-14.779-1.8887-14.99-0.11-29.99-0.1797-44.99-0.2597-6.33-0.04-12.63-0.7806-18.92-1.0606-19.28-0.83-38.601-1.7204-57.881 0.5996-10.89 1.31-21.81 2.5408-32.76 0.3008-1.24-0.26-2.6202 0.03-3.9102 0.25-5.25 0.85-10.458 2.0691-15.728 2.6191-11.27 1.16-22.54 1.9901-33.68-1.4199-3.75-1.15-7.53-2.1798-11.75-1.5898-4.41 0.61-8.4914-1.671-11.521-4.711-2.43-2.44-0.199-5.7391 0.121-8.6191 0.36-3.29 1.1097-6.5491 1.8497-9.7891 4.81-21.16 8.0102-42.501 8.2402-64.281 0.13-12.25-1.9297-23.911-7.1797-34.891-8.62-18.05-20.7-33.378-37.26-44.818-4.52-3.11-8.2714-6.5005-10.521-11.56-0.94-2.1-2.3901-4.0199-3.8301-5.8399-2.92-3.68-2.5689-7.3994-0.2989-11.109 1.55-2.55 3.3486-4.8617 3.8086-8.0117 1.07-7.24 2.6511-14.41 3.6211-21.66 0.69-5.26 0.2205-10.41-2.2695-15-0.55-1.03-1.2007-2.03-1.9707-3-8.88-11.22-12.42-24.92-17.58-37.84-1.2-3-2.0001-6.709-1.4101-9.789 2.9-15.16-2.8795-30.31 0.3105-45.43 0.26-1.19-0.4405-2.5907-0.7305-3.8907-0.63-2.93-1.1789-5.8795-1.9589-8.7695-1.41-5.26-1.65-10.4 0-15.73 1.62-5.22 2.5095-10.57 2.7695-16.02 0.07-1.53 0.1003-3.0711 0.07-4.6211-0.06-3.28 0.4093-6.6796 1.2793-9.8496 2.93-10.65 3.7706-21.64 4.6406-32.5 1.71-21.59 1.0696-43.26 0.3496-64.92-0.5-15.11-3.1405-29.68-8.3105-43.9-4.61-12.71-12.53-22.549-23.6-30.129-10.45-7.15-21.269-13.68-32.369-19.73-4.07-2.22-7.5303-5.3499-12.07-6.9199-10.21-3.52-16.67-10.521-18.15-21.551-0.26-1.93 0.2898-4.2697-1.7402-5.4297-3.62-2.07-4.9298-7.1794-10.26-7.1894-2.18-0.01-4.2211-2.1096-5.4511-4.0996-3.21-5.18-1.8288-10.921-1.7188-16.531 0.07-3.54 1.4106-4.8596 4.8906-4.0996 0.13 0.02 0.9689-1.6798 0.8789-2.5098-0.21-1.97-0.7107-3.9101-1.2207-5.8301-1.1-4.14-3.1893-8.2406-3.2793-12.391-0.33-15.28-1.6006-30.43-3.6406-45.59-1.59-11.87-3.2497-23.729-6.4297-35.219-4.73-17.11-7.1389-34.501-8.3789-52.121-0.21-2.97-0.5602-6.0301-1.4902-8.8301-3.79-11.35-7.5899-22.699-11.84-33.889-4.5-11.81-9.5409-23.421-17.211-33.641-6.01-7.99-13.05-15.119-19.43-22.779-9.31-11.19-21.409-17.542-34.529-22.762-3.315-1.325-6.5726-2.0745-9.7676-2.0508zm-223.55 641.82c0.75 0.1 1.779 1.1993 1.959 2.0293 0.95 4.21 1.7112 8.4493 2.4512 12.699 0.28 1.63 0 3.4314 0.5488 4.9414 4.41 12.24 5.5099 25.259 8.9199 37.719 2.21 8.09 3.1306 16.311 3.1406 24.631 0.01 7.33 0.5694 14.61 1.3594 20.68-0.75 8.75-1.1887 16.32-2.1387 23.83-0.55 4.45-0.4111 8.58 2.0489 12.42 1.9 2.97 2.0204 5.9504 1.4004 9.4804-1.47 8.46-1.7204 17.04-1.1504 25.65 0.37 5.62 0.1211 11.29 0.1211 16.93 0 2.95-1.751 4.0703-4.461 4.0703-1.33 0-2.7787 0.3087-3.9687-0.1113-6.14-2.15-12.502-1.4896-18.772-1.5996-13.09-0.22-25.71-2.27-37.42-8.5-1.17-0.63-2.4702-0.9901-3.6602-1.5801-2.91-1.46-7.3201-1.2103-8.5801-4.3203-1.33-3.29 2.4611-5.7188 4.0411-8.4688 2.02-3.5 3.7401-7.0596 4.1601-11.1 0.59-5.75 2.9302-10.942 5.4902-15.932 2.28-4.44 5.1797-8.4987 5.8497-13.639 0.17-1.23 0.839-2.7704 1.789-3.4804 5.43-4.04 5.9217-9.9593 6.6817-15.949 0.99-7.92 3.0094-15.511 6.4394-22.871 2.76-5.93 4.7306-12.29 4.0606-19.27-0.51-5.37 1.9096-10.42 4.0996-15.27 2.91-6.44 4.6295-13.002 4.5195-20.182-0.16-10.15 4.21-19.349 7-28.859 0.27-0.92 0.9409-1.8003 1.6309-2.4903 0.68-0.67 1.6894-1.559 2.4394-1.459z"/>
</svg>
