<svg style="enable-background:new 0 0 512 512" version="1.1" viewBox="0 0 512 512" xmlns="http://www.w3.org/2000/svg">
 <path d="m187.73 315.73c0 4.71 3.823 8.533 8.533 8.533h34.134c4.71 0 8.533-3.823 8.533-8.533v-51.2c0-4.71-3.823-8.533-8.533-8.533h-34.133c-4.71 0-8.533 3.823-8.533 8.533v51.2zm17.067-42.666h17.067v34.133h-17.067z" style="fill:#fff"/>
 <path d="m196.27 221.87h34.133c4.71 0 8.533-3.823 8.533-8.533v-51.2c0-4.71-3.823-8.533-8.533-8.533h-34.133c-4.71 0-8.533 3.823-8.533 8.533v51.2c-1e-3 4.71 3.822 8.533 8.533 8.533zm8.533-51.2h17.067v34.133h-17.067z" style="fill:#fff"/>
 <path d="m132.4 160.91 123.6-74.163 123.6 74.163c1.374 0.828 2.893 1.22 4.386 1.22 2.901 0 5.726-1.476 7.322-4.139 2.432-4.045 1.118-9.284-2.918-11.708l-123.86-74.316v-54.903h42.667v17.067h-25.6c-4.71 0-8.533 3.823-8.533 8.533s3.823 8.533 8.533 8.533h34.133c4.71 0 8.533-3.823 8.533-8.533v-34.134c0-4.71-3.823-8.533-8.533-8.533h-59.733c-4.71 0-8.533 3.823-8.533 8.533v63.437l-123.86 74.317c-4.036 2.423-5.35 7.663-2.918 11.708 2.414 4.036 7.67 5.35 11.707 2.918z" style="fill:#fff"/>
 <path d="m93.867 324.27c4.71 0 8.533-3.823 8.533-8.533v-51.2c0-4.71-3.823-8.533-8.533-8.533h-34.134c-4.71 0-8.533 3.823-8.533 8.533v17.066c0 4.71 3.823 8.533 8.533 8.533s8.533-3.823 8.533-8.533v-8.533h17.067v42.667c0 4.71 3.823 8.533 8.534 8.533z" style="fill:#fff"/>
 <path d="m153.6 435.2v-247.47c0-4.71-3.823-8.533-8.533-8.533s-8.533 3.823-8.533 8.533v247.47c0 4.71 3.823 8.533 8.533 8.533s8.533-3.823 8.533-8.533z" style="fill:#fff"/>
 <path d="m110.93 477.87h290.13c4.71 0 8.533-3.823 8.533-8.533s-3.823-8.533-8.533-8.533h-76.8v-85.333h8.533c4.71 0 8.533-3.823 8.533-8.533s-3.823-8.533-8.533-8.533h-153.6c-4.71 0-8.533 3.823-8.533 8.533s3.823 8.533 8.533 8.533h8.533v85.332h-76.8c-4.71 0-8.533 3.823-8.533 8.533s3.823 8.534 8.533 8.534zm153.6-51.2c4.71 0 8.533-3.823 8.533-8.533s-3.823-8.533-8.533-8.533v-34.133h42.667v85.332h-42.667zm-59.733-51.2h42.667v34.133c-4.71 0-8.533 3.823-8.533 8.533s3.823 8.533 8.533 8.533v34.134h-42.667z" style="fill:#fff"/>
 <path d="m452.27 366.93h-34.133c-4.71 0-8.533 3.823-8.533 8.533v51.2c0 4.71 3.823 8.533 8.533 8.533h34.133c4.71 0 8.533-3.823 8.533-8.533v-51.2c0-4.71-3.823-8.533-8.533-8.533zm-8.534 51.2h-17.067v-34.133h17.067z" style="fill:#fff"/>
 <path d="m452.27 264.53h-34.133c-4.71 0-8.533 3.823-8.533 8.533v51.2c0 4.71 3.823 8.533 8.533 8.533h34.133c4.71 0 8.533-3.823 8.533-8.533v-51.2c0-4.71-3.823-8.533-8.533-8.533zm-8.534 51.2h-17.067v-34.133h17.067z" style="fill:#fff"/>
 <path d="m435.2 494.93h-358.4c-4.71 0-8.533 3.823-8.533 8.533s3.823 8.534 8.533 8.534h358.4c4.71 0 8.533-3.823 8.533-8.533s-3.823-8.534-8.533-8.534z" style="fill:#fff"/>
 <path d="m503.47 187.73c-4.71 0-8.533 3.823-8.533 8.533v8.533h-93.867c-4.71 0-8.533 3.823-8.533 8.533s3.823 8.533 8.533 8.533h93.867v281.6c0 4.71 3.823 8.533 8.533 8.533s8.533-3.823 8.533-8.533v-307.2c0-4.709-3.823-8.532-8.533-8.532z" style="fill:#fff"/>
 <path d="m273.07 315.73c0 4.71 3.823 8.533 8.533 8.533h34.133c4.71 0 8.533-3.823 8.533-8.533v-51.2c0-4.71-3.823-8.533-8.533-8.533h-34.133c-4.71 0-8.533 3.823-8.533 8.533zm17.066-42.666h17.067v34.133h-17.067z" style="fill:#fff"/>
 <path d="m85.333 418.13c0-1.109-0.486-110.93-42.667-110.93-42.18 0-42.666 109.82-42.666 110.93 0 20.608 14.686 37.837 34.133 41.805v43.529c0 4.71 3.823 8.533 8.533 8.533s8.533-3.823 8.533-8.533v-43.529c19.448-3.968 34.134-21.197 34.134-41.805zm-42.666 25.6c-14.114 0-25.6-11.486-25.6-25.6 0-42.513 11.418-93.867 25.6-93.867s25.6 51.354 25.6 93.867c0 14.114-11.486 25.6-25.6 25.6z" style="fill:#fff"/>
 <path d="m375.47 435.2v-256c0-4.71-3.823-8.533-8.533-8.533s-8.533 3.823-8.533 8.533v256c0 4.71 3.823 8.533 8.533 8.533s8.533-3.823 8.533-8.533z" style="fill:#fff"/>
 <path d="m281.6 221.87h34.133c4.71 0 8.533-3.823 8.533-8.533v-51.2c0-4.71-3.823-8.533-8.533-8.533h-34.133c-4.71 0-8.533 3.823-8.533 8.533v51.2c0 4.71 3.823 8.533 8.533 8.533zm8.533-51.2h17.067v34.133h-17.067z" style="fill:#fff"/>
 <path d="m8.533 298.67c4.71 0 8.533-3.823 8.533-8.533v-68.267h93.867c4.71 0 8.533-3.823 8.533-8.533s-3.823-8.533-8.533-8.533h-93.866v-8.533c0-4.71-3.823-8.533-8.533-8.533s-8.534 3.821-8.534 8.532v93.867c0 4.71 3.823 8.533 8.533 8.533z" style="fill:#fff"/>
</svg>
