<svg xmlns="http://www.w3.org/2000/svg" xmlns:osb="http://www.openswatchbook.org/uri/2009/osb" version="1.1" viewBox="0 0 13.22 16.25">
   <path class="markerBody" d="m6.609.1323c1.657 0 3.314.7374 4.518 1.917 1.205 1.327 1.958 2.802 1.958 4.572 0 1.77-.7531 3.687-1.958 4.867l-4.518 4.572-4.518-4.572c-1.205-1.18-1.958-2.95-1.958-4.867 0-1.77.6025-3.244 1.958-4.572 1.205-1.18 2.862-1.917 4.518-1.917z" style="fill:#030609;stroke-width:.2646;stroke:#f55b02"/>
   <g transform="matrix(.000645 0 0 -.000645 2.483 8.407)" stroke="1" style="fill:#f55b02;stroke-width:54.7">
      <path d="m5865 9476c-247-57-434-222-517-456-20-58-23-83-23-230 0-143 3-176 23-245 51-178 153-321 282-397 35-21 57-39 49-41-170-45-279-101-378-192-178-165-267-420-296-846l-7-96-106-7c-353-23-874-104-1139-177l-111-31-180-172c-99-95-225-219-280-277-70-72-102-99-105-89-3 8-15 47-27 85-40 130-95 230-168 304-52 52-128 105-169 117-2 0 17 21 41 47 106 114 169 301 197 588 37 383-49 730-222 900-132 130-286 130-418 0-95-93-168-247-208-442-25-116-24-539 0-678 32-182 97-327 177-394 18-15 31-29 29-31-2-1-25-14-50-29-100-57-205-206-254-360l-22-68-6 128c-21 419-206 725-438 725-191 0-358-225-421-567-17-94-17-502 1-615 16-105 55-238 88-304 14-27 47-73 75-102l50-53-34-17c-99-50-194-168-248-308l-33-85-49 98c-174 354-480 352-653-3-87-178-122-390-111-677 12-339 66-530 187-655l39-40-61-40c-152-97-255-308-308-627-11-67-25-167-31-222-34-338-38-1302-6-1515 22-142 43-225 77-291 38-77 68-110 125-139 49-25 50-25 292-22 134 2 256 1 271-3 26-5 30-13 46-78 31-132 96-311 118-330 39-32 200-105 302-136 594-183 1802-304 3610-363 501-16 2290-16 2795 0 2234 72 3608 230 4162 478 57 26 59 29 99 113 49 102 101 234 124 313l16 56 227-1 227-2 53 29c90 50 137 126 176 283 47 189 51 253 50 813-1 735-29 1037-120 1310-61 181-175 335-291 393l-51 27 56 57c140 143 202 404 189 793-8 239-36 361-120 524-49 95-135 191-209 232-48 26-62 29-143 29-75 0-98-4-140-24-77-38-172-141-224-243l-45-88-53 110c-63 130-141 220-232 269l-59 31 57 58c141 141 199 379 188 776-6 215-20 305-71 440-55 146-156 276-257 331-69 37-176 46-247 20-215-80-368-387-374-750-1-55-5-91-9-80s-17 47-30 80c-30 81-88 180-138 237-36 41-140 119-171 130-6 2 14 29 44 60 87 90 141 216 171 402 21 128 21 492 0 610-46 260-166 461-323 538-251 124-501-97-594-527-20-93-17-445 6-570 36-204 107-363 199-454l45-43-66-34c-164-82-272-248-341-527l-27-108-165 152c-90 84-251 230-358 325l-195 173-110 30c-301 84-760 152-1251 186-126 9-253 18-281 21l-51 5-7 103c-15 234-62 430-140 591-102 209-246 326-496 402-9 2 8 17 45 36 119 64 221 198 259 342 42 156 40 414-4 546-68 203-237 368-445 435-99 32-258 41-350 20zm4993-3888 54-58-29-12c-15-7-51-27-79-44l-52-32-6 116c-4 65-9 144-12 177l-5 60 38-74c20-41 61-101 91-133zm-8964 25c-3-71-7-147-10-171l-5-43-27 17c-15 10-48 30-74 44l-48 26 36 35c40 38 95 125 115 182 7 20 14 37 16 37 1 0 0-57-3-127zm9989-1773c-5-3-20-11-35-18l-28-12v104l35-34c19-19 32-37 28-40zm-10983-30v-50l-70 34 32 33c17 18 33 33 35 33s3-22 3-50z" style="fill:#f55b02;stroke-width:54.7"/>
   </g>
</svg>