<svg xmlns="http://www.w3.org/2000/svg" xmlns:osb="http://www.openswatchbook.org/uri/2009/osb" version="1.1" viewBox="0 0 13.22 16.25">
   <path class="markerBody" d="m6.609.1323c1.657 0 3.314.7374 4.518 1.917 1.205 1.327 1.958 2.802 1.958 4.572 0 1.77-.7531 3.687-1.958 4.867l-4.518 4.572-4.518-4.572c-1.205-1.18-1.958-2.95-1.958-4.867 0-1.77.6025-3.244 1.958-4.572 1.205-1.18 2.862-1.917 4.518-1.917z" style="fill:#030609;stroke-width:.2646;stroke:#a1ff1b"/>
   <g transform="matrix(.01334 0 0 .01334 3.182 2.276)" style="fill:#a1ff1b;stroke-width:19.83">
      <path d="m497 128.5h-96.4c-8.284 0-15 6.716-15 15v33.2h-49.27c-8.284 0-15 6.716-15 15v33.2h-49.27c-8.284 0-15 6.716-15 15v33.2h-49.27c-8.284 0-15 6.716-15 15v33.2h-49.27c-8.284 0-15 6.716-15 15v33.2h-49.27c-8.284 0-15 6.716-15 15v33.2h-49.27c-8.284 0-15 6.716-15 15v64.27c0 8.284 6.716 15 15 15h482c8.284 0 15-6.716 15-15v-353.5c0-8.284-6.716-15-15-15zm-15 353.5h-452v-34.27h49.27c8.284 0 15-6.716 15-15v-33.2h49.27c8.284 0 15-6.716 15-15v-33.2h49.27c8.284 0 15-6.716 15-15v-33.2h49.27c8.284 0 15-6.716 15-15v-33.2h49.27c8.284 0 15-6.716 15-15v-33.2h49.27c8.284 0 15-6.716 15-15v-33.2h66.4z" style="fill:#a1ff1b;stroke-width:19.83"/>
      <path d="m15 238.9h62.09l-71.09 53.34c-6.627 4.972-7.97 14.37-2.998 21s14.37 7.969 21 2.998l103.1-77.33h48.58c8.284 0 15-6.716 15-15v-32.66l218.9-164.2c6.627-4.971 7.971-14.37 3-21-4.97-6.626-14.37-7.97-21-3l-201.9 151.4c-2.115-5.721-7.602-9.808-14.06-9.808h-1.067v-65.33c0-8.284-6.716-15-15-15h-128.5c-8.284 0-15 6.716-15 15v65.33h-1.066c-8.284 0-15 6.716-15 15v64.27c0 8.284 6.716 15 15 15zm145.7-30h-130.7v-34.27h130.7zm-114.6-114.6h98.53v50.33h-98.53z" style="fill:#a1ff1b;stroke-width:19.83"/>
   </g>
</svg>