<svg xmlns="http://www.w3.org/2000/svg" viewBox="0 0 32.66 29.63"><defs><style>.cls-1{fill:#00c8a8;}</style></defs><title>Asset 80</title><g id="Layer_2" data-name="Layer 2"><g id="RULES"><path class="cls-1" d="M31.33.77a146,146,0,0,0-30,0A1.38,1.38,0,0,0,.05,2.14V22.86a1.43,1.43,0,0,0,1.43,1.43H31.23a1.43,1.43,0,0,0,1.43-1.43V2.14A1.48,1.48,0,0,0,31.33.77Zm-15-.16a.78.78,0,0,1,.76.77.74.74,0,0,1-.76.76.78.78,0,0,1-.77-.76A.79.79,0,0,1,16.33.61ZM30.62,22.25H2V2.86H30.62Z"/><path class="cls-1" d="M31.18,28.83a138.26,138.26,0,0,1-29.75,0A1.6,1.6,0,0,1,0,27.25H0a1.58,1.58,0,0,1,1.58-1.58H31a1.58,1.58,0,0,1,1.58,1.58h0A1.51,1.51,0,0,1,31.18,28.83Z"/><path class="cls-1" d="M24.7,8.47H13a.46.46,0,0,0-.46.46v7.45h0v.05a.44.44,0,0,0,.41.36H24.7a.39.39,0,0,0,.4-.36V8.93A.38.38,0,0,0,24.7,8.47Zm-11.33.87,3.21,2.86-3.21,3.21Zm.51,6.58,3.37-3.37.51.46,1.07.92L19.9,13l.51-.46,3.37,3.37Zm10.41-.51L21.07,12.2l3.22-2.86Z"/><rect class="cls-1" x="7.5" y="9.39" width="4.54" height="0.77"/><rect class="cls-1" x="8.57" y="10.61" width="3.52" height="0.77"/><rect class="cls-1" x="9.75" y="11.84" width="2.3" height="0.77"/></g></g></svg>