<svg xmlns="http://www.w3.org/2000/svg" viewBox="0 0 42.86 27.25"><defs><style>.cls-1{fill:#00c8a8;}</style></defs><title>Asset 85</title><g id="Layer_2" data-name="Layer 2"><g id="RULES"><path class="cls-1" d="M34.42,4.51H31.31a.87.87,0,1,0,0,1.74h3.11a6.69,6.69,0,1,1,0,13.37H31.17a.88.88,0,0,0-.88.87v3.73l-4.15-4.33a.84.84,0,0,0-.61-.27H21.44a6.63,6.63,0,0,1-3.67-1.09A.86.86,0,0,0,16.83,20a8.39,8.39,0,0,0,4.62,1.37h3.71L30.55,27a.88.88,0,0,0,.62.27.81.81,0,0,0,.31-.06.87.87,0,0,0,.54-.81v-5h2.4a8.43,8.43,0,1,0,0-16.85Z"/><path class="cls-1" d="M21.42,16.84A8.42,8.42,0,1,0,21.41,0h-13a8.42,8.42,0,1,0,0,16.84h2.4v5.07a.85.85,0,0,0,.53.8.75.75,0,0,0,.33.06.87.87,0,0,0,.62-.28l5.38-5.65Zm-4.71-1.45-4.14,4.35V16a.91.91,0,0,0-.88-.9H8.44a6.69,6.69,0,1,1,0-13.37h13a6.69,6.69,0,1,1,0,13.37H17.32A.85.85,0,0,0,16.71,15.39Z"/><path class="cls-1" d="M14.86,11.17a.79.79,0,0,0-.58.23.81.81,0,0,0-.23.57.73.73,0,0,0,.24.59.87.87,0,0,0,.57.21.83.83,0,0,0,.56-.21.8.8,0,0,0-.56-1.39Z"/><path class="cls-1" d="M16.37,4.91A3.18,3.18,0,0,0,15,4.63,2.91,2.91,0,0,0,13.52,5a2.52,2.52,0,0,0-1,.86,2,2,0,0,0-.33,1,.65.65,0,0,0,.21.46.69.69,0,0,0,.51.21.72.72,0,0,0,.7-.61,2.33,2.33,0,0,1,.48-.88A1.11,1.11,0,0,1,15,5.77a1.15,1.15,0,0,1,.83.29.94.94,0,0,1,.32.73.8.8,0,0,1-.1.41,1.7,1.7,0,0,1-.26.34l-.5.45a6.11,6.11,0,0,0-.62.59,1.94,1.94,0,0,0-.38.58,2.05,2.05,0,0,0-.14.78.69.69,0,0,0,.2.55.65.65,0,0,0,.46.18.6.6,0,0,0,.65-.55c0-.18.07-.3.08-.37a1,1,0,0,1,.09-.21,1,1,0,0,1,.17-.23,2.57,2.57,0,0,1,.29-.3c.44-.39.75-.67.92-.84a2.22,2.22,0,0,0,.44-.59,1.58,1.58,0,0,0,.19-.8A1.91,1.91,0,0,0,17.3,5.7,2.34,2.34,0,0,0,16.37,4.91Z"/></g></g></svg>