<svg xmlns="http://www.w3.org/2000/svg" viewBox="0 0 29.34 29.34"><defs><style>.cls-1{fill:#00c8a8;}</style></defs><title>Asset 81</title><g id="Layer_2" data-name="Layer 2"><g id="RULES"><path class="cls-1" d="M23.92,29.34a.34.34,0,0,1-.21-.08l-2.83-2.39A25.64,25.64,0,0,0,8.51,21.14L.27,19.77A.33.33,0,0,1,0,19.4a.32.32,0,0,1,.37-.26l8.25,1.37A26.4,26.4,0,0,1,21.3,26.38l2.82,2.4a.31.31,0,0,1,0,.45A.32.32,0,0,1,23.92,29.34Z"/><path class="cls-1" d="M29,26.15a.32.32,0,0,1-.24-.11l-10-11.86-7.41,7.41a.32.32,0,1,1-.45-.45l7.65-7.65a.31.31,0,0,1,.24-.1.35.35,0,0,1,.23.12l10.2,12.12a.32.32,0,0,1,0,.45A.33.33,0,0,1,29,26.15Z"/><path class="cls-1" d="M3.51,22.32A.32.32,0,0,1,3.19,22V11.16a.32.32,0,0,1,.32-.32.33.33,0,0,1,.32.32V22A.32.32,0,0,1,3.51,22.32Z"/><path class="cls-1" d="M5.42,22.32A.32.32,0,0,1,5.1,22V17.54a.32.32,0,0,1,.32-.32.32.32,0,0,1,.32.32V22A.32.32,0,0,1,5.42,22.32Z"/><path class="cls-1" d="M25.19,21.69H20.73a.32.32,0,0,1-.32-.32.32.32,0,0,1,.32-.32h4.46a.32.32,0,0,1,.32.32A.32.32,0,0,1,25.19,21.69Z"/><path class="cls-1" d="M26.47,23.6H23.92a.32.32,0,0,1,0-.64h2.55a.32.32,0,0,1,0,.64Z"/><path class="cls-1" d="M23.92,14.67a2.23,2.23,0,1,1,2.23-2.23A2.23,2.23,0,0,1,23.92,14.67Zm0-3.83a1.6,1.6,0,1,0,0,3.19,1.6,1.6,0,0,0,0-3.19Z"/><path class="cls-1" d="M29,29.34H.38a.32.32,0,1,1,0-.64H28.7V25.77a.32.32,0,0,1,.64,0V29A.32.32,0,0,1,29,29.34ZM.32,26.21A.31.31,0,0,1,0,25.9v-.07a.32.32,0,0,1,.32-.32.32.32,0,0,1,.32.32v.07A.31.31,0,0,1,.32,26.21ZM.32,23A.32.32,0,0,1,0,22.64V4.78a.32.32,0,0,1,.32-.32.32.32,0,0,1,.32.32,4.15,4.15,0,1,0,8.29,0,.32.32,0,0,1,.32-.32.33.33,0,0,1,.32.32A4.78,4.78,0,0,1,.64,7.17V22.64A.32.32,0,0,1,.32,23ZM29,22.9a.32.32,0,0,1-.32-.32v-.07a.32.32,0,0,1,.64,0v.07A.32.32,0,0,1,29,22.9Zm0-3.26a.31.31,0,0,1-.32-.31V5.1h-17a.32.32,0,0,1-.32-.32.33.33,0,0,1,.32-.32H29a.32.32,0,0,1,.32.32V19.33A.31.31,0,0,1,29,19.64Z"/><path class="cls-1" d="M4.78,9.57A4.79,4.79,0,1,1,9.57,4.78,4.79,4.79,0,0,1,4.78,9.57Zm0-8.93A4.15,4.15,0,1,0,8.93,4.78,4.15,4.15,0,0,0,4.78.64Z"/><path class="cls-1" d="M4.78,7a2.24,2.24,0,1,1,1.49-3.9.32.32,0,0,1-.42.48A1.59,1.59,0,0,0,3.19,4.78a1.6,1.6,0,0,0,1.59,1.6A1.62,1.62,0,0,0,5.85,6,.32.32,0,0,1,6.3,6a.33.33,0,0,1,0,.45A2.27,2.27,0,0,1,4.78,7Z"/><path class="cls-1" d="M22.64,29.34H.32A.32.32,0,0,1,0,29V19.45a.32.32,0,0,1,.32-.32.32.32,0,0,1,.32.32V28.7h22a.32.32,0,0,1,0,.64Z"/><path class="cls-1" d="M8,26.15H8a.32.32,0,0,1-.32-.32A.33.33,0,0,1,8,25.51H8a.32.32,0,0,1,.32.32A.32.32,0,0,1,8,26.15Z"/><path class="cls-1" d="M10.52,26.15h0a.31.31,0,0,1-.31-.32.32.32,0,0,1,.31-.32h0a.32.32,0,0,1,.32.32A.32.32,0,0,1,10.52,26.15Z"/><path class="cls-1" d="M13.71,26.79h0a.32.32,0,0,1,0-.64h0a.32.32,0,1,1,0,.64Z"/><path class="cls-1" d="M16.26,27.43h0a.32.32,0,0,1-.31-.32.31.31,0,0,1,.31-.32h0a.32.32,0,0,1,.32.32A.32.32,0,0,1,16.26,27.43Z"/></g></g></svg>