<svg xmlns="http://www.w3.org/2000/svg" viewBox="0 0 23.51 32.66"><defs><style>.cls-1{fill:#00c8a8;}</style></defs><title>Asset 83</title><g id="Layer_2" data-name="Layer 2"><g id="RULES"><path class="cls-1" d="M22.49,1a0,0,0,0,1,0,.05v30.6a0,0,0,0,1,0,.05H1A0,0,0,0,1,1,31.63V1A0,0,0,0,1,1,1H22.49m0-1H1A1,1,0,0,0,0,1v30.6a1,1,0,0,0,1,1H22.49a1,1,0,0,0,1-1V1a1,1,0,0,0-1-1Z"/><path class="cls-1" d="M19.76,16.82H11.27a.49.49,0,1,1,0-1h8.49a.49.49,0,0,1,0,1Z"/><path class="cls-1" d="M5.84,16.33,7.2,15a.47.47,0,0,0,0-.69.49.49,0,0,0-.69,0L5.14,15.64,3.78,14.27a.5.5,0,0,0-.7,0,.49.49,0,0,0,0,.69l1.37,1.37L3.08,17.7a.49.49,0,0,0,0,.69.52.52,0,0,0,.35.14.54.54,0,0,0,.35-.14L5.14,17l1.37,1.37a.52.52,0,0,0,.35.14.49.49,0,0,0,.34-.14.47.47,0,0,0,0-.69Z"/><path class="cls-1" d="M19.76,9.47H11.27a.49.49,0,0,1,0-1h8.49a.49.49,0,0,1,0,1Z"/><path class="cls-1" d="M4.57,11.22,3.08,9.73a.49.49,0,0,1,0-.69.5.5,0,0,1,.7,0l.79.8L7.33,7.08a.49.49,0,0,1,.69,0,.5.5,0,0,1,0,.7Z"/><path class="cls-1" d="M19.76,24.17H11.27a.49.49,0,0,1,0-1h8.49a.49.49,0,0,1,0,1Z"/><path class="cls-1" d="M4.57,25.92,3.08,24.43a.49.49,0,0,1,0-.69.5.5,0,0,1,.7,0l.79.79,2.76-2.75a.49.49,0,0,1,.69.69Z"/></g></g></svg>