<svg width="72.6mm" height="72.6mm" version="1.1" viewBox="0 0 72.6 72.6" xmlns="http://www.w3.org/2000/svg"><path d="m36.33 21.53c8.149 0 14.77 6.604 14.77 14.77 0 8.149-6.604 14.77-14.77 14.77-8.149 0-14.77-6.604-14.77-14.77 0-8.149 6.626-14.77 14.77-14.77m0-0.3092c8.326 0 15.08 6.758 15.08 15.08s-6.758 15.08-15.08 15.08c-8.326 0-15.08-6.758-15.08-15.08s6.758-15.08 15.08-15.08z" style="clip-rule:evenodd;fill-opacity:.9412;fill-rule:evenodd;fill:#f5f9ff;stroke-width:.2646"/><path d="m36.33 20.7c8.639 0 15.62 7.001 15.62 15.62 0 8.639-7.001 15.62-15.62 15.62-8.639 0-15.62-7.001-15.62-15.62 0-8.639 6.979-15.62 15.62-15.62m0-0.3313c8.815 0 15.94 7.134 15.94 15.94 0 8.815-7.134 15.94-15.94 15.94-8.815 0-15.94-7.134-15.94-15.94 0-8.815 7.134-15.94 15.94-15.94z" style="clip-rule:evenodd;fill-rule:evenodd;fill:#110b2c;stroke-width:.2646"/><path d="m36.33 13.94c12.39 0 22.44 10.05 22.44 22.44 0 12.39-10.05 22.44-22.44 22.44-12.39 0-22.44-10.05-22.44-22.44 0-12.39 10.05-22.44 22.44-22.44m0-0.9274c12.92 0 23.36 10.47 23.36 23.36 0 12.92-10.47 23.36-23.36 23.36-12.92 0-23.36-10.47-23.36-23.36 0-12.92 10.47-23.36 23.36-23.36z" style="clip-rule:evenodd;fill-rule:evenodd;fill:#110b2c;stroke-width:.2646"/><polygon id="XMLID_216_" transform="matrix(.2209 0 0 .2209 -28.15 -118.3)" points="291.4 567.8 291.4 698.8 276.1 670.2" style="clip-rule:evenodd;fill-rule:evenodd;fill:#4fc3f7;stroke-width:1.198"/><path d="m36.16 8.261v27.5l-3.225-5.985zm0.1546-2.186-3.556 23.74 3.556 6.604z" style="clip-rule:evenodd;fill-rule:evenodd;fill:#4fc3f7;stroke-width:.2646"/><polygon id="XMLID_213_" transform="matrix(.2209 0 0 .2209 -28.15 -118.3)" points="291.8 562.9 291.8 700.3 307.9 670.4" style="clip-rule:evenodd;fill-rule:evenodd;fill:#110b2c;stroke-width:1.198"/><polygon id="XMLID_212_" transform="matrix(.2209 0 0 .2209 -28.15 -118.3)" points="291.8 699.9 275.7 729.8 291.8 837.3" style="clip-rule:evenodd;fill-rule:evenodd;fill:#110b2c;stroke-width:1.198"/><polygon id="XMLID_211_" transform="matrix(.2209 0 0 .2209 -28.15 -118.3)" points="292.2 832.3 292.2 701.4 307.5 729.9" style="clip-rule:evenodd;fill-rule:evenodd;fill:#4fc3f7;stroke-width:1.198"/><path d="m36.5 36.89 3.225 5.985-3.225 21.54zm-0.1767-0.6405v30.34l3.556-23.74z" style="clip-rule:evenodd;fill-rule:evenodd;fill:#4fc3f7;stroke-width:.2646"/><polygon id="XMLID_208_" transform="matrix(.2209 0 0 .2209 -28.15 -118.3)" points="321.7 684.3 424.1 699.7 293.1 699.7" style="clip-rule:evenodd;fill-rule:evenodd;fill:#4fc3f7;stroke-width:1.198"/><path d="m42.92 32.97 21.54 3.225h-27.52zm-0.02211-0.1767-6.604 3.556h30.34z" style="clip-rule:evenodd;fill-rule:evenodd;fill:#4fc3f7;stroke-width:.2646"/><polygon id="XMLID_205_" transform="matrix(.2209 0 0 .2209 -28.15 -118.3)" points="429 700.1 291.6 700.1 321.5 716.2" style="clip-rule:evenodd;fill-rule:evenodd;fill:#110b2c;stroke-width:1.198"/><polygon id="XMLID_204_" transform="matrix(.2209 0 0 .2209 -28.15 -118.3)" points="292 700.1 262.1 684 154.6 700.1" style="clip-rule:evenodd;fill-rule:evenodd;fill:#110b2c;stroke-width:1.198"/><polygon id="XMLID_203_" transform="matrix(.2209 0 0 .2209 -28.15 -118.3)" points="262.1 715.8 159.6 700.5 290.5 700.5" style="clip-rule:evenodd;fill-rule:evenodd;fill:#4fc3f7;stroke-width:1.198"/><path d="m35.74 36.47-5.985 3.225-21.54-3.225zm0.6405-0.1546h-30.34l23.74 3.556z" style="clip-rule:evenodd;fill-rule:evenodd;fill:#4fc3f7;stroke-width:.2646"/><polygon id="XMLID_200_" transform="matrix(.2209 0 0 .2209 -28.15 -118.3)" points="358.4 632.9 293.2 698.1 308.2 670.6" style="clip-rule:evenodd;fill-rule:evenodd;fill:#4fc3f7;stroke-width:1.198"/><path d="m50.18 22.28-13.19 13.19 3.026-5.566zm1.723-1.524-12.04 9.032-3.578 6.582z" style="clip-rule:evenodd;fill-rule:evenodd;fill:#4fc3f7"/><polygon id="XMLID_197_" transform="matrix(.2209 0 0 .2209 -28.15 -118.3)" points="362.4 629.5 291.7 700.2 321.5 684" style="clip-rule:evenodd;fill-rule:evenodd;fill:#110b2c;stroke-width:1.198"/><polygon id="XMLID_196_" transform="matrix(.2209 0 0 .2209 -28.15 -118.3)" points="291.9 700 262.1 716.2 221.3 770.6" style="clip-rule:evenodd;fill-rule:evenodd;fill:#110b2c;stroke-width:1.198"/><polygon id="XMLID_195_" transform="matrix(.2209 0 0 .2209 -28.15 -118.3)" points="225.2 767.2 290.4 702.1 275.4 729.6" style="clip-rule:evenodd;fill-rule:evenodd;fill:#4fc3f7;stroke-width:1.198"/><path d="m35.66 37.23-3.026 5.566-10.16 7.619zm0.6846-0.9057-15.59 15.59 12.04-9.032z" style="clip-rule:evenodd;fill-rule:evenodd;fill:#4fc3f7;stroke-width:.2646"/><polygon id="XMLID_192_" transform="matrix(.2209 0 0 .2209 -28.15 -118.3)" points="291.9 700.2 275.7 670.4 221.3 629.5" style="clip-rule:evenodd;fill-rule:evenodd;fill:#110b2c;stroke-width:1.198"/><polygon id="XMLID_191_" transform="matrix(.2209 0 0 .2209 -28.15 -118.3)" points="289.8 698.6 262.3 683.7 224.7 633.5" style="clip-rule:evenodd;fill-opacity:.9412;fill-rule:evenodd;fill:#4fc3f8;stroke-width:1.198"/><path d="m22.24 22.45 13.19 13.19-5.566-3.026zm-1.502-1.745 9.032 12.04 6.582 3.578z" style="clip-rule:evenodd;fill-rule:evenodd;fill:#4fc3f7;stroke-width:.2646"/><polygon id="XMLID_188_" transform="matrix(.2209 0 0 .2209 -28.15 -118.3)" points="321.3 716.5 359 766.7 293.8 701.5" style="clip-rule:evenodd;fill-rule:evenodd;fill:#4fc3f7;stroke-width:1.198"/><path d="m37.16 36.98 5.566 3.026 7.619 10.16zm-0.9057-0.6846 15.59 15.59-9.032-12.04z" style="clip-rule:evenodd;fill-rule:evenodd;fill:#4fc3f7;stroke-width:.2646"/><polygon id="XMLID_185_" transform="matrix(.2209 0 0 .2209 -28.15 -118.3)" points="362.3 770.6 291.7 700 307.9 729.8" style="clip-rule:evenodd;fill-rule:evenodd;fill:#110b2c;stroke-width:1.198"/><text x="33.969543" y="5.6681647" style="fill:#110b2c;font-family:'Britannic Bold';font-size:8.287px;letter-spacing:0px;line-height:1.25;stroke-width:.2646;word-spacing:0px" xml:space="preserve"><tspan x="33.969543" y="5.6681647" style="fill:#110b2c;font-family:Algerian;stroke-width:.2646">N</tspan></text><text x="0.32531008" y="39.028652" style="fill:#110b2c;font-family:'Britannic Bold';font-size:8.287px;letter-spacing:0px;line-height:1.25;stroke-width:.2646;word-spacing:0px" xml:space="preserve"><tspan x="0.32531008" y="39.028652" style="fill:#110b2c;font-family:Algerian;stroke-width:.2646">W</tspan></text><text x="67.196198" y="38.771458" style="fill:#110b2c;font-family:'Britannic Bold';font-size:8.287px;letter-spacing:0px;line-height:1.25;stroke-width:.2646;word-spacing:0px" xml:space="preserve"><tspan x="67.196198" y="38.771458" style="fill:#110b2c;font-family:Algerian;stroke-width:.2646">E</tspan></text><text x="33.957767" y="72.636551" style="fill:#110b2c;font-family:'Britannic Bold';font-size:8.287px;letter-spacing:0px;line-height:1.25;stroke-width:.2646;word-spacing:0px" xml:space="preserve"><tspan x="33.957767" y="72.636551" style="fill:#110b2c;font-family:Algerian;stroke-width:.2646">S</tspan></text><polygon transform="matrix(.06176 0 0 .06092 18.27 -28.36)" points="291.8 562.9 291.8 700.3 307.9 670.4" style="clip-rule:evenodd;fill-rule:evenodd;fill:#fe0012;stroke-width:4.314"/><polygon transform="matrix(-.06244 0 0 .06092 54.53 -28.36)" points="291.8 562.9 291.8 700.3 307.9 670.4" style="clip-rule:evenodd;fill-rule:evenodd;fill:#fe0012;stroke-width:4.29"/></svg>
