<svg version="1.1" viewBox="0 0 1629 896.8" xmlns="http://www.w3.org/2000/svg"><defs><filter id="filter1140" style="color-interpolation-filters:sRGB"><feFlood flood-color="rgb(0,0,0)" flood-opacity=".498" result="flood"/><feComposite in="flood" in2="SourceGraphic" operator="in" result="composite1"/><feGaussianBlur in="composite1" result="blur" stdDeviation="3.1"/><feOffset dx="-3" dy="-3.9" result="offset"/><feComposite in="SourceGraphic" in2="offset" result="composite2"/></filter><filter id="filter1320" style="color-interpolation-filters:sRGB"><feFlood flood-color="rgb(0,0,0)" flood-opacity=".498" result="flood"/><feComposite in="flood" in2="SourceGraphic" operator="in" result="composite1"/><feGaussianBlur in="composite1" result="blur" stdDeviation="3.1"/><feOffset dx="7.3" dy="-3.8" result="offset"/><feComposite in="SourceGraphic" in2="offset" result="composite2"/></filter><filter id="filter1140-3" style="color-interpolation-filters:sRGB"><feFlood flood-color="rgb(0,0,0)" flood-opacity=".498" result="flood"/><feComposite in="flood" in2="SourceGraphic" operator="in" result="composite1"/><feGaussianBlur in="composite1" result="blur" stdDeviation="3.1"/><feOffset dx="-3" dy="-3.9" result="offset"/><feComposite in="SourceGraphic" in2="offset" result="composite2"/></filter><filter id="filter1320-2" style="color-interpolation-filters:sRGB"><feFlood flood-color="rgb(0,0,0)" flood-opacity=".498" result="flood"/><feComposite in="flood" in2="SourceGraphic" operator="in" result="composite1"/><feGaussianBlur in="composite1" result="blur" stdDeviation="3.1"/><feOffset dx="7.3" dy="-3.8" result="offset"/><feComposite in="SourceGraphic" in2="offset" result="composite2"/></filter><filter id="filter1140-4" style="color-interpolation-filters:sRGB"><feFlood flood-color="rgb(0,0,0)" flood-opacity=".498" result="flood"/><feComposite in="flood" in2="SourceGraphic" operator="in" result="composite1"/><feGaussianBlur in="composite1" result="blur" stdDeviation="3.1"/><feOffset dx="-3" dy="-3.9" result="offset"/><feComposite in="SourceGraphic" in2="offset" result="composite2"/></filter><filter id="filter1320-5" style="color-interpolation-filters:sRGB"><feFlood flood-color="rgb(0,0,0)" flood-opacity=".498" result="flood"/><feComposite in="flood" in2="SourceGraphic" operator="in" result="composite1"/><feGaussianBlur in="composite1" result="blur" stdDeviation="3.1"/><feOffset dx="7.3" dy="-3.8" result="offset"/><feComposite in="SourceGraphic" in2="offset" result="composite2"/></filter><filter id="filter1140-2" style="color-interpolation-filters:sRGB"><feFlood flood-color="rgb(0,0,0)" flood-opacity=".498" result="flood"/><feComposite in="flood" in2="SourceGraphic" operator="in" result="composite1"/><feGaussianBlur in="composite1" result="blur" stdDeviation="3.1"/><feOffset dx="-3" dy="-3.9" result="offset"/><feComposite in="SourceGraphic" in2="offset" result="composite2"/></filter><filter id="filter1320-8" style="color-interpolation-filters:sRGB"><feFlood flood-color="rgb(0,0,0)" flood-opacity=".498" result="flood"/><feComposite in="flood" in2="SourceGraphic" operator="in" result="composite1"/><feGaussianBlur in="composite1" result="blur" stdDeviation="3.1"/><feOffset dx="7.3" dy="-3.8" result="offset"/><feComposite in="SourceGraphic" in2="offset" result="composite2"/></filter></defs><g transform="matrix(.5115 -.3727 -.5152 -.37 307.6 656.5)" style="stroke-width:2.159"><path d="m211 747.6 14.4 4.08 0.48-1.92 61.69 16.56-0.48 1.68 14.4 3.84 14.4-3.84-0.48-1.68 17.28-4.561 10.56-2.88 0.24 1.68 14.4-3.84-0.48-1.68 27.84-7.441 0.48 1.92 14.4-3.84-0.48-1.92 27.6-7.441 0.48 1.92 14.4-3.84-0.48-1.92 27.6-7.441 0.48 1.92 40.56-11.04v30.48h-20.16v9.361h48.72v54.73h85.93v-54.73h47.52v-8.401h23.28v-105.4l0.24-5.281 0.48-5.041 0.7201-5.281 0.7201-5.041 0.9601-5.041 1.2-5.041 1.44-5.041 1.44-4.801 1.68-5.041 1.92-4.801 1.92-4.561 2.16-4.801 2.4-4.561 2.64-4.561 5.281-8.641 3.12-4.32 6.241-8.161 3.36-3.84 3.6-3.84 3.6-3.6 3.84-3.6 3.84-3.36 8.161-6.241 4.32-3.12 8.641-5.281 4.56-2.64 4.56-2.4 4.56-2.16 9.601-3.84 5.041-1.68 4.8-1.44 5.04-1.44 5.041-1.2 5.041-0.9601 5.04-0.7201 5.281-0.7201 5.04-0.24 5.281-0.48h105.4v-23.76h8.881v-48.73h100.1v-85.93h-100.6v-46.57h-8.401v19.2h-34.08l10.8-40.56 41.76-155.5-3.84-14.4-1.68 0.48-10.08-37.92 1.68-0.4801-3.84-14.4h-14.88v1.92h-45.36v-1.92h-14.64v1.92h-45.36v-1.92h-6.001v1.68h-2.88v-1.68h-6.001v1.92h-45.12v-1.92h-14.88v1.92h-45.36v-1.92h-14.64l-0.48 1.92h-84.49v13.92h-5.761v1.68h-60.25v-1.68h-6.001v1.68h-2.88v-1.68h-6.001v1.68h-60.25v-1.68h-14.88l-44.64 44.65 1.2 1.2-2.4 2.4-10.08 10.32-30 30-1.44-1.2-4.08 4.321 1.2 0.9601-2.16 2.16-1.2-1.2-4.08 4.32 1.2 1.2-42 42-1.2-1.2-26.64 26.4 1.2 1.2-2.16 2.16-0.9601-1.2-16.8 16.8v14.64h1.68v60.25h-1.68v6.241h1.68v2.64h-1.68v6.001h1.68v31.44h-71.29v-8.161h-9.121v149.5h9.121v-7.441h17.28v3.36h1.92v44.65h-1.92v14.88h1.92v44.41h-1.92v6.001h1.68v2.88h-1.68v6.001h1.92v44.41h-1.92v14.88h1.92v44.65h-1.92v6.241h1.68v2.64h-1.68z" style="fill-rule:evenodd;fill:#0f6c87;stroke-width:2.159"/></g><g transform="matrix(.5115 -.3727 -.5152 -.37 307.6 656.5)" style="fill:#0fb3ed;filter:url(#filter1140);stroke-width:2.159"><path d="m616.9 746.4h55.45v0.9601h23.28v-105.4l0.24-5.281 0.48-5.041 0.7201-5.281 0.7201-5.041 0.9601-5.041 1.2-5.041 1.44-5.041 1.44-4.801 1.68-5.041 1.92-4.801 1.92-4.561 2.16-4.801 2.4-4.561 2.64-4.561 5.281-8.641 3.12-4.32 6.241-8.161 3.36-3.84 3.6-3.84 3.6-3.6 3.84-3.6 3.84-3.36 8.161-6.241 4.32-3.12 8.641-5.281 4.56-2.64 4.56-2.4 4.56-2.16 9.601-3.84 5.041-1.68 4.8-1.44 5.04-1.44 5.041-1.2 5.041-0.9601 5.04-0.7201 5.281-0.7201 5.04-0.24 5.281-0.48h105.4v-23.76h-0.48v-55.45h-106.8l-6.961 0.48-22.56 2.4-6.241 1.2-6.001 1.2-6.001 1.44 1.2 4.32-7.921 1.92-0.7201-3.36-7.201 2.16-6.721 2.4-6.961 2.64-6.721 2.64-6.721 3.12-6.481 3.12-6.481 3.36 1.92 3.12-6.961 4.08-2.16-3.84-6.721 4.08-6.721 4.561-6.241 4.561-6.241 4.801-12 10.56-5.761 5.521-5.281 5.521-5.521 6.001-5.041 6.001-4.8 6.241-4.56 6.241-4.56 6.721-4.08 6.721 3.84 2.16-4.08 6.961-3.12-1.68-3.36 6.241-3.12 6.721-3.12 6.481-2.88 6.721-4.8 13.92-2.16 6.961 3.36 0.9601-1.92 7.681-4.32-1.2-1.44 6.001-1.2 6.241-1.2 6.001-2.4 22.56-0.48 6.961v6.961z" style="fill-rule:evenodd;fill:#0fb3ed;stroke-width:2.159"/><path d="m551.8 751.5v4.32h-12.96v54.73h85.93v-54.73h-14.4v-4.32h-15.12v0.9601h-28.32v-0.9601z" style="fill-rule:evenodd;fill:#0fb3ed;stroke-width:2.159"/><path d="m193.7 403h20.4v-0.7201h28.32v0.7201h20.88v-1.2h1.68v-28.8h-71.29z" style="fill-rule:evenodd;fill:#0fb3ed;stroke-width:2.159"/><path d="m952.7 416.2h42.96v-19.2h1.44v-25.2h-1.44v-19.2h-42.96v2.4h-4.32v58.57h4.32z" style="fill-rule:evenodd;fill:#0fb3ed;stroke-width:2.159"/></g><g id="Rooms" transform="matrix(.5115 -.3727 -.5152 -.37 307.6 656.5)" style="fill:#0bff32;filter:url(#filter1320);stroke-width:2.159"><path d="m588.3 178.5v29.28h42.96v-26.4h-4.56v-2.88z" style="fill-rule:evenodd;fill:#0bff32;stroke-width:2.159"/><path d="m511.3 124.8v-52.09h-60.25l-6.241 6.241 45.84 45.85z" style="fill-rule:evenodd;fill:#0bff32;stroke-width:2.159"/><path d="m512.9 72.68v72.25l7.681 7.921h80.89v-55.69l10.08-2.64-5.041-18.96h-6.001v-2.88h-65.77v2.88h-7.441v-2.88z" style="fill-rule:evenodd;fill:#0bff32;stroke-width:2.159"/><path d="m400.4 232.8 19.92 19.92 12-12-4.08-4.08 5.281-5.281 4.08 4.08 7.681-7.921-19.68-19.68z" style="fill-rule:evenodd;fill:#0bff32;stroke-width:2.159"/><path d="m381.4 252 19.92 19.68 17.76-17.76-19.92-19.92z" style="fill-rule:evenodd;fill:#0bff32;stroke-width:2.159"/><path d="m302.7 248.6 39.84 39.84 81.85-81.85-6.241-6.241 0.9601-1.2 27.36 27.36 29.04-29.04-11.28-11.76-18.72 18.72-1.2-1.2 18.72-18.72-48-48.01z" style="fill-rule:evenodd;fill:#0bff32;stroke-width:2.159"/><path d="m362.7 270.5 6.241 6.481 17.52-17.52-6.241-6.481z" style="fill-rule:evenodd;fill:#0bff32;stroke-width:2.159"/><path d="m451.7 170.9 25.2 25.2 28.32-28.32-25.44-25.2-28.08 28.32" style="fill:#0bff32;stroke-linecap:round;stroke-linejoin:round;stroke-miterlimit:10;stroke-width:1.036;stroke:#828282"/><path d="m425.8 144.9 24.72 24.72 28.32-28.32-24.96-24.72z" style="fill-rule:evenodd;fill:#0bff32;stroke-width:2.159"/><path d="m343.7 289.7 19.68 19.68 18-17.76-19.92-19.92z" style="fill-rule:evenodd;fill:#0bff32;stroke-width:2.159"/><path d="m301.5 249.8-12.24 12.48v142.3h60.49v-67.69h-8.401v-1.68h8.401v-12.24l3.12-2.88 9.601-9.601-11.76-11.52-17.04 16.8v4.801h-1.68v-5.521l17.52-17.28-26.16-26.16-6.241 6.241-1.2-0.9601 6.481-6.481z" style="fill-rule:evenodd;fill:#0bff32;stroke-width:2.159"/><path d="m479.6 533.1h14.64l1.2-4.561-1.2-0.4801 0.9601-3.12-12.96-3.36-0.9601 3.12-1.68-0.48z" style="fill-rule:evenodd;fill:#0bff32;stroke-width:2.159"/><path d="m223 506.5v236.1l81.9 21.93 12.37-3.5 1.167 4.199 16.8-4.434-1.167-4.199 177.8-47.6v-24.03l-4.199 1.167-0.7-3.266-12.6 3.5 0.9333 3.033-21.46 5.834v-165.5l-168.9-45.27-56.47 15.16-1.4-5.834-17.03 4.667 1.4 5.834z" style="fill-rule:evenodd;fill:#0bff32;stroke-width:2.159"/><path d="m559 416.4 22.08 22.08 42.24-42-22.08-22.08z" style="fill-rule:evenodd;fill:#0bff32;stroke-width:2.159"/><path d="m518 457.4 28.08 16.32 34.08-34.08-22.08-22.08z" style="fill-rule:evenodd;fill:#0bff32;stroke-width:2.159"/><path d="m586.9 209.5-208.8 224.9h102.3l34.56 19.92 120-120 3.36 3.12 10.32-10.56-3.12-3.12 5.761-5.761-19.92-34.56v-73.93z" style="fill-rule:evenodd;fill:#0bff32;stroke-width:2.159"/><path d="m602.2 373.2 22.08 22.08 46.32-46.09-16.32-28.08z" style="fill-rule:evenodd;fill:#0bff32;stroke-width:2.159"/><path d="m725.4 298.5 4.56-1.2v-14.64h-8.881z" style="fill-rule:evenodd;fill:#0bff32;stroke-width:2.159"/><path d="m725.6 300.2 3.84 13.92h76.57v-31.44h-74.41v15.84z" style="fill-rule:evenodd;fill:#0bff32;stroke-width:2.159"/><path d="m807.4 314.2h43.2v-31.44h-43.2z" style="fill-rule:evenodd;fill:#0bff32;stroke-width:2.159"/><path d="m942.7 59.43h-240.5l-2.351 8.466-5.879-1.411-4.703 17.16 5.879 1.411-8.936 33.62 42.32 157.8h163.7l-10.35 38.33h24.22l44.44-166.5 5.879 1.411 4.703-17.16-5.879-1.411 3.292-12.46z" style="fill-rule:evenodd;fill:#0bff32;filter:url(#filter1140);stroke-width:2.159"/><path d="m852.3 314.2h22.56l0.7201-2.4 3.12 0.9601 3.36-11.76-3.36-0.9601 4.56-17.28h-30.96z" style="fill-rule:evenodd;fill:#0bff32;stroke-width:2.159"/><path d="m479.6 689.6 31.2-8.161v-36.24h-31.2z" style="fill-rule:evenodd;fill:#0bff32;stroke-width:2.159"/><path d="m479.6 534.7v35.04h31.2v-37.2l-13.68-3.6-1.68 5.761z" style="fill-rule:evenodd;fill:#0bff32;stroke-width:2.159"/><path d="m514.4 643.5v-14.88h-3.12v-42.24h3.12v-14.88h-34.8v72.01z" style="fill-rule:evenodd;fill:#0bff32;stroke-width:2.159"/><path d="m586.9 209.5h-0.24v-30.96h-48.72v5.761h-4.8l-3.36 3.36-4.08-4.08-70.09 69.85 4.08 4.08-5.281 5.281-4.08-4.08-69.85 69.85 4.08 4.32-3.36 3.36v4.801h-5.761v88.81h2.64v4.561z" style="fill-rule:evenodd;fill:#0bff32;stroke-width:2.159"/></g><g transform="matrix(.5115 -.3727 -.5152 -.37 307.6 656.5)" style="fill:#0fb3ed;filter:url(#filter1320);stroke-width:2.159"><path d="m635.6 257.5h26.88v-72.73h-26.88v72.73" style="fill:#0fb3ed;stroke-linecap:round;stroke-linejoin:round;stroke-miterlimit:10;stroke-width:1.036;stroke:#b2b2b2"/><path d="m381.6 465.6h72.73v-26.64h-72.73v26.64" style="fill:#0fb3ed;stroke-linecap:round;stroke-linejoin:round;stroke-miterlimit:10;stroke-width:1.036;stroke:#b2b2b2"/></g><g transform="matrix(.5115 -.3727 -.5152 -.37 307.6 656.5)" style="fill:#0f445d;stroke-width:2.159"><path d="m847.3 333.1v-0.24l-0.24-0.24v-0.9601h-0.24v-0.24l-0.24-0.24v-0.24l-0.24-0.24v-0.24h-0.24l-0.48-0.4801h-0.24v-0.24h-0.48v-0.24h-0.7201l-0.24-0.24h-0.9601l-0.24 0.24h-0.7201v0.24h-0.48v0.24h-0.24v0.24h-0.24l-0.48 0.4801v0.24h-0.24v0.24l-0.24 0.24v0.24l-0.24 0.24v2.4h0.24v0.48l0.48 0.4801v0.24h0.24v0.24h0.24v0.24h0.24v0.24h0.48v0.24h0.48l0.24 0.24h1.92l0.24-0.24h0.48v-0.24h0.48v-0.24h0.24v-0.24h0.24l0.24-0.24v-0.24h0.24v-0.24l0.24-0.24v-0.24l0.24-0.24v-0.9601h0.24v-0.24" style="fill:#0f445d;stroke-linecap:round;stroke-linejoin:round;stroke-miterlimit:10;stroke-width:1.036;stroke:#828282"/><path d="m765.9 343.7v-0.9601l-0.24-0.24v-0.4801h-0.24v-0.24l-0.24-0.24v-0.24h-0.24v-0.24h-0.24v-0.24h-0.24v-0.24h-0.48v-0.24h-0.48l-0.24-0.24h-1.92l-0.24 0.24h-0.48v0.24h-0.48v0.24h-0.24v0.24h-0.24v0.24h-0.24v0.24h-0.24v0.4801h-0.24v0.24l-0.24 0.24v0.9601h-0.24v0.48l0.24 0.24v0.9601h0.24v0.4801h0.24v0.24l0.24 0.24v0.24h0.24l0.48 0.4801h0.24v0.24h0.48v0.24h0.7201v0.24h1.44v-0.24h0.7201v-0.24h0.48v-0.24h0.24v-0.24h0.24l0.48-0.4801v-0.24h0.24v-0.24h0.24v-0.4801l0.24-0.24v-1.2" style="fill:#0f445d;stroke-linecap:round;stroke-linejoin:round;stroke-miterlimit:10;stroke-width:1.036;stroke:#828282"/><path d="m682.9 375.1v0.24l0.24 0.24v0.9601h0.24v0.48h0.24v0.24h0.24v0.24l0.48 0.48h0.24v0.24h0.48v0.24h0.48v0.24h2.4v-0.24h0.48v-0.24h0.48v-0.24h0.24v-0.24h0.24v-0.24h0.24v-0.24l0.48-0.48v-0.4801h0.24v-2.4h-0.24v-0.4801l-0.24-0.24v-0.24h-0.24v-0.24l-0.48-0.48h-0.24v-0.24h-0.24v-0.24h-0.48v-0.24h-0.7201l-0.24-0.24h-0.9601l-0.24 0.24h-0.7201v0.24h-0.48v0.24h-0.24l-0.24 0.24h-0.24v0.24h-0.24v0.24l-0.24 0.24v0.24h-0.24v0.48h-0.24v0.9601h-0.24v0.24z" style="fill-rule:evenodd;fill:#0f445d;stroke-width:2.159"/><path d="m625.5 424.8v-0.4801l-0.24-0.24v-0.48l-0.24-0.24v-0.24l-0.24-0.24v-0.24h-0.24v-0.24h-0.24v-0.24h-0.24v-0.24h-0.24l-0.24-0.24h-0.24v-0.24h-0.48l-0.24-0.24h-1.68l-0.24 0.24h-0.48l-0.24 0.24h-0.24v0.24h-0.24l-0.48 0.4801h-0.24v0.24l-0.24 0.24v0.24l-0.24 0.24v0.48h-0.24v2.16h0.24v0.48l0.24 0.24v0.24l0.9601 0.9601h0.24v0.24h0.24l0.24 0.24h0.7201v0.24h1.44l0.24-0.24h0.7201v-0.24h0.24l0.24-0.24h0.24v-0.24h0.24v-0.24h0.24v-0.24h0.24v-0.24l0.24-0.24v-0.24l0.24-0.24v-0.48l0.24-0.24v-0.4801z" style="fill-rule:evenodd;fill:#0f445d;stroke-width:2.159"/><path d="m575.6 489.9v-0.9601l-0.24-0.24v-0.4801h-0.24v-0.24l-0.24-0.24v-0.24h-0.24v-0.24h-0.24v-0.24h-0.24v-0.24h-0.48v-0.24h-0.48v-0.24h-2.64v0.24h-0.48v0.24h-0.24l-0.24 0.24h-0.24v0.24l-0.24 0.24h-0.24v0.48h-0.24v0.4801h-0.24v0.7201h-0.24v1.44h0.24v0.7201h0.24v0.4801h0.24v0.4801h0.24l0.24 0.24v0.24h0.24l0.24 0.24h0.24v0.24h0.48v0.24h2.64v-0.24h0.48v-0.24h0.48v-0.24h0.24v-0.24h0.24v-0.24h0.24v-0.24l0.24-0.24v-0.24h0.24v-0.48l0.24-0.24v-0.9601" style="fill:#0f445d;stroke-linecap:round;stroke-linejoin:round;stroke-miterlimit:10;stroke-width:1.036;stroke:#828282"/><path d="m536.9 565.5v1.2h0.24v0.48l0.24 0.24v0.24h0.24v0.24h0.24v0.24l0.24 0.24h0.24v0.24h0.24l0.24 0.24h0.24l0.24 0.24h0.9601v0.24h0.48l0.24-0.24h0.7201l0.24-0.24h0.24l0.24-0.24h0.24l0.48-0.4801 0.48-0.48v-0.24h0.24v-0.4801l0.24-0.24v-0.7201h0.24v-0.9601h-0.24v-0.7201l-0.24-0.24v-0.4801h-0.24v-0.24h-0.24v-0.24l-0.24-0.24h-0.24v-0.24h-0.24v-0.24h-0.24l-0.24-0.24h-0.48v-0.24h-2.4v0.24h-0.48l-0.24 0.24h-0.24v0.24h-0.24v0.24h-0.24v0.24h-0.24v0.24h-0.24v0.24l-0.24 0.24v0.4801h-0.24v1.2" style="fill:#0f445d;stroke-linecap:round;stroke-linejoin:round;stroke-miterlimit:10;stroke-width:1.036;stroke:#828282"/><path d="m533.6 646.6v-0.9601h-0.24v-0.7201h-0.24v-0.24h-0.24v-0.24l-0.24-0.24v-0.24h-0.24v-0.24h-0.24l-0.24-0.24h-0.24l-0.24-0.24h-0.48v-0.24h-2.16v0.24h-0.48l-0.24 0.24h-0.24v0.24h-0.24l-0.24 0.24h-0.24v0.24l-0.24 0.24v0.24h-0.24v0.24l-0.24 0.24v0.4801l-0.24 0.24v1.44l0.24 0.24v0.7201h0.24v0.24l0.24 0.24v0.24h0.24v0.24h0.24v0.24h0.24l0.48 0.4801h0.24l0.24 0.24h0.7201v0.24h1.2v-0.24h0.7201l0.24-0.24h0.24l0.24-0.24h0.24v-0.24h0.24v-0.24h0.24v-0.24h0.24v-0.24l0.24-0.24v-0.24h0.24v-0.7201h0.24v-0.7201z" style="fill-rule:evenodd;fill:#0f445d;stroke-width:2.159"/><path d="m943.3 413.5v61.93h9.361v-61.93z" style="fill-rule:evenodd;fill:#0f445d;stroke-width:2.159"/><path d="m610.4 755.8h61.93v-9.361h-61.93z" style="fill-rule:evenodd;fill:#0f445d;stroke-width:2.159"/><path d="m899.1 475v-10.32h-13.2v10.32z" style="fill-rule:evenodd;fill:#0f445d;stroke-width:2.159"/><path d="m789.9 472.6 2.64 10.08 12.96-3.6-2.64-10.08z" style="fill-rule:evenodd;fill:#0f445d;stroke-width:2.159"/><path d="m717.4 529.9 9.361-9.361-7.441-7.441-9.361 9.601 7.441 7.201" style="fill:#0f445d;stroke-linecap:round;stroke-linejoin:round;stroke-miterlimit:10;stroke-width:1.036;stroke:#828282"/><path d="m679.5 595.7-10.08-2.64-3.6 12.96 10.08 2.64 3.6-12.96" style="fill:#0f445d;stroke-linecap:round;stroke-linejoin:round;stroke-miterlimit:10;stroke-width:1.036;stroke:#828282"/><path d="m671.8 702.3v-13.2h-10.32v13.2z" style="fill-rule:evenodd;fill:#0f445d;stroke-width:2.159"/></g><g transform="matrix(.5115 -.3727 -.5152 -.37 1105 627.7)" style="stroke-width:2.159"><path d="m211 747.6 14.4 4.08 0.48-1.92 61.69 16.56-0.48 1.68 14.4 3.84 14.4-3.84-0.48-1.68 17.28-4.561 10.56-2.88 0.24 1.68 14.4-3.84-0.48-1.68 27.84-7.441 0.48 1.92 14.4-3.84-0.48-1.92 27.6-7.441 0.48 1.92 14.4-3.84-0.48-1.92 27.6-7.441 0.48 1.92 40.56-11.04v30.48h-20.16v9.361h48.72v54.73h85.93v-54.73h47.52v-8.401h23.28v-105.4l0.24-5.281 0.48-5.041 0.7201-5.281 0.7201-5.041 0.9601-5.041 1.2-5.041 1.44-5.041 1.44-4.801 1.68-5.041 1.92-4.801 1.92-4.561 2.16-4.801 2.4-4.561 2.64-4.561 5.281-8.641 3.12-4.32 6.241-8.161 3.36-3.84 3.6-3.84 3.6-3.6 3.84-3.6 3.84-3.36 8.161-6.241 4.32-3.12 8.641-5.281 4.56-2.64 4.56-2.4 4.56-2.16 9.601-3.84 5.041-1.68 4.8-1.44 5.04-1.44 5.041-1.2 5.041-0.9601 5.04-0.7201 5.281-0.7201 5.04-0.24 5.281-0.48h105.4v-23.76h8.881v-48.73h100.1v-85.93h-100.6v-46.57h-8.401v19.2h-34.08l10.8-40.56 41.76-155.5-3.84-14.4-1.68 0.48-10.08-37.92 1.68-0.4801-3.84-14.4h-14.88v1.92h-45.36v-1.92h-14.64v1.92h-45.36v-1.92h-6.001v1.68h-2.88v-1.68h-6.001v1.92h-45.12v-1.92h-14.88v1.92h-45.36v-1.92h-14.64l-0.48 1.92h-84.49v13.92h-5.761v1.68h-60.25v-1.68h-6.001v1.68h-2.88v-1.68h-6.001v1.68h-60.25v-1.68h-14.88l-44.64 44.65 1.2 1.2-2.4 2.4-10.08 10.32-30 30-1.44-1.2-4.08 4.321 1.2 0.9601-2.16 2.16-1.2-1.2-4.08 4.32 1.2 1.2-42 42-1.2-1.2-26.64 26.4 1.2 1.2-2.16 2.16-0.9601-1.2-16.8 16.8v14.64h1.68v60.25h-1.68v6.241h1.68v2.64h-1.68v6.001h1.68v31.44h-71.29v-8.161h-9.121v149.5h9.121v-7.441h17.28v3.36h1.92v44.65h-1.92v14.88h1.92v44.41h-1.92v6.001h1.68v2.88h-1.68v6.001h1.92v44.41h-1.92v14.88h1.92v44.65h-1.92v6.241h1.68v2.64h-1.68z" style="fill-rule:evenodd;fill:#0f6c87;stroke-width:2.159"/></g><g transform="matrix(.5115 -.3727 -.5152 -.37 1105 627.7)" style="fill:#0fb3ed;filter:url(#filter1140-3);stroke-width:2.159"><path d="m616.9 746.4h55.45v0.9601h23.28v-105.4l0.24-5.281 0.48-5.041 0.7201-5.281 0.7201-5.041 0.9601-5.041 1.2-5.041 1.44-5.041 1.44-4.801 1.68-5.041 1.92-4.801 1.92-4.561 2.16-4.801 2.4-4.561 2.64-4.561 5.281-8.641 3.12-4.32 6.241-8.161 3.36-3.84 3.6-3.84 3.6-3.6 3.84-3.6 3.84-3.36 8.161-6.241 4.32-3.12 8.641-5.281 4.56-2.64 4.56-2.4 4.56-2.16 9.601-3.84 5.041-1.68 4.8-1.44 5.04-1.44 5.041-1.2 5.041-0.9601 5.04-0.7201 5.281-0.7201 5.04-0.24 5.281-0.48h105.4v-23.76h-0.48v-55.45h-106.8l-6.961 0.48-22.56 2.4-6.241 1.2-6.001 1.2-6.001 1.44 1.2 4.32-7.921 1.92-0.7201-3.36-7.201 2.16-6.721 2.4-6.961 2.64-6.721 2.64-6.721 3.12-6.481 3.12-6.481 3.36 1.92 3.12-6.961 4.08-2.16-3.84-6.721 4.08-6.721 4.561-6.241 4.561-6.241 4.801-12 10.56-5.761 5.521-5.281 5.521-5.521 6.001-5.041 6.001-4.8 6.241-4.56 6.241-4.56 6.721-4.08 6.721 3.84 2.16-4.08 6.961-3.12-1.68-3.36 6.241-3.12 6.721-3.12 6.481-2.88 6.721-4.8 13.92-2.16 6.961 3.36 0.9601-1.92 7.681-4.32-1.2-1.44 6.001-1.2 6.241-1.2 6.001-2.4 22.56-0.48 6.961v6.961z" style="fill-rule:evenodd;fill:#0fb3ed;stroke-width:2.159"/><path d="m551.8 751.5v4.32h-12.96v54.73h85.93v-54.73h-14.4v-4.32h-15.12v0.9601h-28.32v-0.9601z" style="fill-rule:evenodd;fill:#0fb3ed;stroke-width:2.159"/><path d="m193.7 403h20.4v-0.7201h28.32v0.7201h20.88v-1.2h1.68v-28.8h-71.29z" style="fill-rule:evenodd;fill:#0fb3ed;stroke-width:2.159"/><path d="m952.7 416.2h42.96v-19.2h1.44v-25.2h-1.44v-19.2h-42.96v2.4h-4.32v58.57h4.32z" style="fill-rule:evenodd;fill:#0fb3ed;stroke-width:2.159"/></g><g transform="matrix(.5115 -.3727 -.5152 -.37 1105 627.7)" style="fill:#ffa35a;filter:url(#filter1320-2);stroke-width:2.159"><path d="m588.3 178.5v29.28h42.96v-26.4h-4.56v-2.88z" style="fill-rule:evenodd;fill:#ffa35a;stroke-width:2.159"/><path d="m511.3 124.8v-52.09h-60.25l-6.241 6.241 45.84 45.85z" style="fill-rule:evenodd;fill:#ffa35a;stroke-width:2.159"/><path d="m512.9 72.68v72.25l7.681 7.921h80.89v-55.69l10.08-2.64-5.041-18.96h-6.001v-2.88h-65.77v2.88h-7.441v-2.88z" style="fill-rule:evenodd;fill:#ffa35a;stroke-width:2.159"/><path d="m400.4 232.8 19.92 19.92 12-12-4.08-4.08 5.281-5.281 4.08 4.08 7.681-7.921-19.68-19.68z" style="fill-rule:evenodd;fill:#ffa35a;stroke-width:2.159"/><path d="m381.4 252 19.92 19.68 17.76-17.76-19.92-19.92z" style="fill-rule:evenodd;fill:#ffa35a;stroke-width:2.159"/><path d="m302.7 248.6 39.84 39.84 81.85-81.85-6.241-6.241 0.9601-1.2 27.36 27.36 29.04-29.04-11.28-11.76-18.72 18.72-1.2-1.2 18.72-18.72-48-48.01z" style="fill-rule:evenodd;fill:#ffa35a;stroke-width:2.159"/><path d="m362.7 270.5 6.241 6.481 17.52-17.52-6.241-6.481z" style="fill-rule:evenodd;fill:#ffa35a;stroke-width:2.159"/><path d="m451.7 170.9 25.2 25.2 28.32-28.32-25.44-25.2-28.08 28.32" style="fill:#ffa35a;stroke-linecap:round;stroke-linejoin:round;stroke-miterlimit:10;stroke-width:1.036;stroke:#828282"/><path d="m425.8 144.9 24.72 24.72 28.32-28.32-24.96-24.72z" style="fill-rule:evenodd;fill:#ffa35a;stroke-width:2.159"/><path d="m343.7 289.7 19.68 19.68 18-17.76-19.92-19.92z" style="fill-rule:evenodd;fill:#ffa35a;stroke-width:2.159"/><path d="m301.5 249.8-12.24 12.48v142.3h60.49v-67.69h-8.401v-1.68h8.401v-12.24l3.12-2.88 9.601-9.601-11.76-11.52-17.04 16.8v4.801h-1.68v-5.521l17.52-17.28-26.16-26.16-6.241 6.241-1.2-0.9601 6.481-6.481z" style="fill-rule:evenodd;fill:#ffa35a;stroke-width:2.159"/><path d="m479.6 533.1h14.64l1.2-4.561-1.2-0.4801 0.9601-3.12-12.96-3.36-0.9601 3.12-1.68-0.48z" style="fill-rule:evenodd;fill:#ffa35a;stroke-width:2.159"/><path d="m223 506.5v236.1l81.9 21.93 12.37-3.5 1.167 4.199 16.8-4.434-1.167-4.199 177.8-47.6v-24.03l-4.199 1.167-0.7-3.266-12.6 3.5 0.9333 3.033-21.46 5.834v-165.5l-168.9-45.27-56.47 15.16-1.4-5.834-17.03 4.667 1.4 5.834z" style="fill-rule:evenodd;fill:#ffa35a;stroke-width:2.159"/><path d="m559 416.4 22.08 22.08 42.24-42-22.08-22.08z" style="fill-rule:evenodd;fill:#ffa35a;stroke-width:2.159"/><path d="m518 457.4 28.08 16.32 34.08-34.08-22.08-22.08z" style="fill-rule:evenodd;fill:#ffa35a;stroke-width:2.159"/><path d="m586.9 209.5-208.8 224.9h102.3l34.56 19.92 120-120 3.36 3.12 10.32-10.56-3.12-3.12 5.761-5.761-19.92-34.56v-73.93z" style="fill-rule:evenodd;fill:#ffa35a;stroke-width:2.159"/><path d="m602.2 373.2 22.08 22.08 46.32-46.09-16.32-28.08z" style="fill-rule:evenodd;fill:#ffa35a;stroke-width:2.159"/><path d="m725.4 298.5 4.56-1.2v-14.64h-8.881z" style="fill-rule:evenodd;fill:#ffa35a;stroke-width:2.159"/><path d="m725.6 300.2 3.84 13.92h76.57v-31.44h-74.41v15.84z" style="fill-rule:evenodd;fill:#ffa35a;stroke-width:2.159"/><path d="m807.4 314.2h43.2v-31.44h-43.2z" style="fill-rule:evenodd;fill:#ffa35a;stroke-width:2.159"/><path d="m942.7 59.43h-240.5l-2.351 8.466-5.879-1.411-4.703 17.16 5.879 1.411-8.936 33.62 42.32 157.8h163.7l-10.35 38.33h24.22l44.44-166.5 5.879 1.411 4.703-17.16-5.879-1.411 3.292-12.46z" style="fill-rule:evenodd;fill:#ffa35a;filter:url(#filter1140-3);stroke-width:2.159"/><path d="m852.3 314.2h22.56l0.7201-2.4 3.12 0.9601 3.36-11.76-3.36-0.9601 4.56-17.28h-30.96z" style="fill-rule:evenodd;fill:#ffa35a;stroke-width:2.159"/><path d="m479.6 689.6 31.2-8.161v-36.24h-31.2z" style="fill-rule:evenodd;fill:#ffa35a;stroke-width:2.159"/><path d="m479.6 534.7v35.04h31.2v-37.2l-13.68-3.6-1.68 5.761z" style="fill-rule:evenodd;fill:#ffa35a;stroke-width:2.159"/><path d="m514.4 643.5v-14.88h-3.12v-42.24h3.12v-14.88h-34.8v72.01z" style="fill-rule:evenodd;fill:#ffa35a;stroke-width:2.159"/><path d="m586.9 209.5h-0.24v-30.96h-48.72v5.761h-4.8l-3.36 3.36-4.08-4.08-70.09 69.85 4.08 4.08-5.281 5.281-4.08-4.08-69.85 69.85 4.08 4.32-3.36 3.36v4.801h-5.761v88.81h2.64v4.561z" style="fill-rule:evenodd;fill:#ffa35a;stroke-width:2.159"/></g><g transform="matrix(.5115 -.3727 -.5152 -.37 1105 627.7)" style="fill:#0fb3ed;filter:url(#filter1320-2);stroke-width:2.159"><path d="m635.6 257.5h26.88v-72.73h-26.88v72.73" style="fill:#0fb3ed;stroke-linecap:round;stroke-linejoin:round;stroke-miterlimit:10;stroke-width:1.036;stroke:#b2b2b2"/><path d="m381.6 465.6h72.73v-26.64h-72.73v26.64" style="fill:#0fb3ed;stroke-linecap:round;stroke-linejoin:round;stroke-miterlimit:10;stroke-width:1.036;stroke:#b2b2b2"/></g><g transform="matrix(.5115 -.3727 -.5152 -.37 1105 627.7)" style="fill:#0f445d;stroke-width:2.159"><path d="m847.3 333.1v-0.24l-0.24-0.24v-0.9601h-0.24v-0.24l-0.24-0.24v-0.24l-0.24-0.24v-0.24h-0.24l-0.48-0.4801h-0.24v-0.24h-0.48v-0.24h-0.7201l-0.24-0.24h-0.9601l-0.24 0.24h-0.7201v0.24h-0.48v0.24h-0.24v0.24h-0.24l-0.48 0.4801v0.24h-0.24v0.24l-0.24 0.24v0.24l-0.24 0.24v2.4h0.24v0.48l0.48 0.4801v0.24h0.24v0.24h0.24v0.24h0.24v0.24h0.48v0.24h0.48l0.24 0.24h1.92l0.24-0.24h0.48v-0.24h0.48v-0.24h0.24v-0.24h0.24l0.24-0.24v-0.24h0.24v-0.24l0.24-0.24v-0.24l0.24-0.24v-0.9601h0.24v-0.24" style="fill:#0f445d;stroke-linecap:round;stroke-linejoin:round;stroke-miterlimit:10;stroke-width:1.036;stroke:#828282"/><path d="m765.9 343.7v-0.9601l-0.24-0.24v-0.4801h-0.24v-0.24l-0.24-0.24v-0.24h-0.24v-0.24h-0.24v-0.24h-0.24v-0.24h-0.48v-0.24h-0.48l-0.24-0.24h-1.92l-0.24 0.24h-0.48v0.24h-0.48v0.24h-0.24v0.24h-0.24v0.24h-0.24v0.24h-0.24v0.4801h-0.24v0.24l-0.24 0.24v0.9601h-0.24v0.48l0.24 0.24v0.9601h0.24v0.4801h0.24v0.24l0.24 0.24v0.24h0.24l0.48 0.4801h0.24v0.24h0.48v0.24h0.7201v0.24h1.44v-0.24h0.7201v-0.24h0.48v-0.24h0.24v-0.24h0.24l0.48-0.4801v-0.24h0.24v-0.24h0.24v-0.4801l0.24-0.24v-1.2" style="fill:#0f445d;stroke-linecap:round;stroke-linejoin:round;stroke-miterlimit:10;stroke-width:1.036;stroke:#828282"/><path d="m682.9 375.1v0.24l0.24 0.24v0.9601h0.24v0.48h0.24v0.24h0.24v0.24l0.48 0.48h0.24v0.24h0.48v0.24h0.48v0.24h2.4v-0.24h0.48v-0.24h0.48v-0.24h0.24v-0.24h0.24v-0.24h0.24v-0.24l0.48-0.48v-0.4801h0.24v-2.4h-0.24v-0.4801l-0.24-0.24v-0.24h-0.24v-0.24l-0.48-0.48h-0.24v-0.24h-0.24v-0.24h-0.48v-0.24h-0.7201l-0.24-0.24h-0.9601l-0.24 0.24h-0.7201v0.24h-0.48v0.24h-0.24l-0.24 0.24h-0.24v0.24h-0.24v0.24l-0.24 0.24v0.24h-0.24v0.48h-0.24v0.9601h-0.24v0.24z" style="fill-rule:evenodd;fill:#0f445d;stroke-width:2.159"/><path d="m625.5 424.8v-0.4801l-0.24-0.24v-0.48l-0.24-0.24v-0.24l-0.24-0.24v-0.24h-0.24v-0.24h-0.24v-0.24h-0.24v-0.24h-0.24l-0.24-0.24h-0.24v-0.24h-0.48l-0.24-0.24h-1.68l-0.24 0.24h-0.48l-0.24 0.24h-0.24v0.24h-0.24l-0.48 0.4801h-0.24v0.24l-0.24 0.24v0.24l-0.24 0.24v0.48h-0.24v2.16h0.24v0.48l0.24 0.24v0.24l0.9601 0.9601h0.24v0.24h0.24l0.24 0.24h0.7201v0.24h1.44l0.24-0.24h0.7201v-0.24h0.24l0.24-0.24h0.24v-0.24h0.24v-0.24h0.24v-0.24h0.24v-0.24l0.24-0.24v-0.24l0.24-0.24v-0.48l0.24-0.24v-0.4801z" style="fill-rule:evenodd;fill:#0f445d;stroke-width:2.159"/><path d="m575.6 489.9v-0.9601l-0.24-0.24v-0.4801h-0.24v-0.24l-0.24-0.24v-0.24h-0.24v-0.24h-0.24v-0.24h-0.24v-0.24h-0.48v-0.24h-0.48v-0.24h-2.64v0.24h-0.48v0.24h-0.24l-0.24 0.24h-0.24v0.24l-0.24 0.24h-0.24v0.48h-0.24v0.4801h-0.24v0.7201h-0.24v1.44h0.24v0.7201h0.24v0.4801h0.24v0.4801h0.24l0.24 0.24v0.24h0.24l0.24 0.24h0.24v0.24h0.48v0.24h2.64v-0.24h0.48v-0.24h0.48v-0.24h0.24v-0.24h0.24v-0.24h0.24v-0.24l0.24-0.24v-0.24h0.24v-0.48l0.24-0.24v-0.9601" style="fill:#0f445d;stroke-linecap:round;stroke-linejoin:round;stroke-miterlimit:10;stroke-width:1.036;stroke:#828282"/><path d="m536.9 565.5v1.2h0.24v0.48l0.24 0.24v0.24h0.24v0.24h0.24v0.24l0.24 0.24h0.24v0.24h0.24l0.24 0.24h0.24l0.24 0.24h0.9601v0.24h0.48l0.24-0.24h0.7201l0.24-0.24h0.24l0.24-0.24h0.24l0.48-0.4801 0.48-0.48v-0.24h0.24v-0.4801l0.24-0.24v-0.7201h0.24v-0.9601h-0.24v-0.7201l-0.24-0.24v-0.4801h-0.24v-0.24h-0.24v-0.24l-0.24-0.24h-0.24v-0.24h-0.24v-0.24h-0.24l-0.24-0.24h-0.48v-0.24h-2.4v0.24h-0.48l-0.24 0.24h-0.24v0.24h-0.24v0.24h-0.24v0.24h-0.24v0.24h-0.24v0.24l-0.24 0.24v0.4801h-0.24v1.2" style="fill:#0f445d;stroke-linecap:round;stroke-linejoin:round;stroke-miterlimit:10;stroke-width:1.036;stroke:#828282"/><path d="m533.6 646.6v-0.9601h-0.24v-0.7201h-0.24v-0.24h-0.24v-0.24l-0.24-0.24v-0.24h-0.24v-0.24h-0.24l-0.24-0.24h-0.24l-0.24-0.24h-0.48v-0.24h-2.16v0.24h-0.48l-0.24 0.24h-0.24v0.24h-0.24l-0.24 0.24h-0.24v0.24l-0.24 0.24v0.24h-0.24v0.24l-0.24 0.24v0.4801l-0.24 0.24v1.44l0.24 0.24v0.7201h0.24v0.24l0.24 0.24v0.24h0.24v0.24h0.24v0.24h0.24l0.48 0.4801h0.24l0.24 0.24h0.7201v0.24h1.2v-0.24h0.7201l0.24-0.24h0.24l0.24-0.24h0.24v-0.24h0.24v-0.24h0.24v-0.24h0.24v-0.24l0.24-0.24v-0.24h0.24v-0.7201h0.24v-0.7201z" style="fill-rule:evenodd;fill:#0f445d;stroke-width:2.159"/><path d="m943.3 413.5v61.93h9.361v-61.93z" style="fill-rule:evenodd;fill:#0f445d;stroke-width:2.159"/><path d="m610.4 755.8h61.93v-9.361h-61.93z" style="fill-rule:evenodd;fill:#0f445d;stroke-width:2.159"/><path d="m899.1 475v-10.32h-13.2v10.32z" style="fill-rule:evenodd;fill:#0f445d;stroke-width:2.159"/><path d="m789.9 472.6 2.64 10.08 12.96-3.6-2.64-10.08z" style="fill-rule:evenodd;fill:#0f445d;stroke-width:2.159"/><path d="m717.4 529.9 9.361-9.361-7.441-7.441-9.361 9.601 7.441 7.201" style="fill:#0f445d;stroke-linecap:round;stroke-linejoin:round;stroke-miterlimit:10;stroke-width:1.036;stroke:#828282"/><path d="m679.5 595.7-10.08-2.64-3.6 12.96 10.08 2.64 3.6-12.96" style="fill:#0f445d;stroke-linecap:round;stroke-linejoin:round;stroke-miterlimit:10;stroke-width:1.036;stroke:#828282"/><path d="m671.8 702.3v-13.2h-10.32v13.2z" style="fill-rule:evenodd;fill:#0f445d;stroke-width:2.159"/></g><g transform="matrix(.5115 -.3727 -.5152 -.37 298.2 1034)" style="stroke-width:2.159"><path d="m211 747.6 14.4 4.08 0.48-1.92 61.69 16.56-0.48 1.68 14.4 3.84 14.4-3.84-0.48-1.68 17.28-4.561 10.56-2.88 0.24 1.68 14.4-3.84-0.48-1.68 27.84-7.441 0.48 1.92 14.4-3.84-0.48-1.92 27.6-7.441 0.48 1.92 14.4-3.84-0.48-1.92 27.6-7.441 0.48 1.92 40.56-11.04v30.48h-20.16v9.361h48.72v54.73h85.93v-54.73h47.52v-8.401h23.28v-105.4l0.24-5.281 0.48-5.041 0.7201-5.281 0.7201-5.041 0.9601-5.041 1.2-5.041 1.44-5.041 1.44-4.801 1.68-5.041 1.92-4.801 1.92-4.561 2.16-4.801 2.4-4.561 2.64-4.561 5.281-8.641 3.12-4.32 6.241-8.161 3.36-3.84 3.6-3.84 3.6-3.6 3.84-3.6 3.84-3.36 8.161-6.241 4.32-3.12 8.641-5.281 4.56-2.64 4.56-2.4 4.56-2.16 9.601-3.84 5.041-1.68 4.8-1.44 5.04-1.44 5.041-1.2 5.041-0.9601 5.04-0.7201 5.281-0.7201 5.04-0.24 5.281-0.48h105.4v-23.76h8.881v-48.73h100.1v-85.93h-100.6v-46.57h-8.401v19.2h-34.08l10.8-40.56 41.76-155.5-3.84-14.4-1.68 0.48-10.08-37.92 1.68-0.4801-3.84-14.4h-14.88v1.92h-45.36v-1.92h-14.64v1.92h-45.36v-1.92h-6.001v1.68h-2.88v-1.68h-6.001v1.92h-45.12v-1.92h-14.88v1.92h-45.36v-1.92h-14.64l-0.48 1.92h-84.49v13.92h-5.761v1.68h-60.25v-1.68h-6.001v1.68h-2.88v-1.68h-6.001v1.68h-60.25v-1.68h-14.88l-44.64 44.65 1.2 1.2-2.4 2.4-10.08 10.32-30 30-1.44-1.2-4.08 4.321 1.2 0.9601-2.16 2.16-1.2-1.2-4.08 4.32 1.2 1.2-42 42-1.2-1.2-26.64 26.4 1.2 1.2-2.16 2.16-0.9601-1.2-16.8 16.8v14.64h1.68v60.25h-1.68v6.241h1.68v2.64h-1.68v6.001h1.68v31.44h-71.29v-8.161h-9.121v149.5h9.121v-7.441h17.28v3.36h1.92v44.65h-1.92v14.88h1.92v44.41h-1.92v6.001h1.68v2.88h-1.68v6.001h1.92v44.41h-1.92v14.88h1.92v44.65h-1.92v6.241h1.68v2.64h-1.68z" style="fill-rule:evenodd;fill:#0f6c87;stroke-width:2.159"/></g><g transform="matrix(.5115 -.3727 -.5152 -.37 298.2 1034)" style="fill:#0fb3ed;filter:url(#filter1140-4);stroke-width:2.159"><path d="m616.9 746.4h55.45v0.9601h23.28v-105.4l0.24-5.281 0.48-5.041 0.7201-5.281 0.7201-5.041 0.9601-5.041 1.2-5.041 1.44-5.041 1.44-4.801 1.68-5.041 1.92-4.801 1.92-4.561 2.16-4.801 2.4-4.561 2.64-4.561 5.281-8.641 3.12-4.32 6.241-8.161 3.36-3.84 3.6-3.84 3.6-3.6 3.84-3.6 3.84-3.36 8.161-6.241 4.32-3.12 8.641-5.281 4.56-2.64 4.56-2.4 4.56-2.16 9.601-3.84 5.041-1.68 4.8-1.44 5.04-1.44 5.041-1.2 5.041-0.9601 5.04-0.7201 5.281-0.7201 5.04-0.24 5.281-0.48h105.4v-23.76h-0.48v-55.45h-106.8l-6.961 0.48-22.56 2.4-6.241 1.2-6.001 1.2-6.001 1.44 1.2 4.32-7.921 1.92-0.7201-3.36-7.201 2.16-6.721 2.4-6.961 2.64-6.721 2.64-6.721 3.12-6.481 3.12-6.481 3.36 1.92 3.12-6.961 4.08-2.16-3.84-6.721 4.08-6.721 4.561-6.241 4.561-6.241 4.801-12 10.56-5.761 5.521-5.281 5.521-5.521 6.001-5.041 6.001-4.8 6.241-4.56 6.241-4.56 6.721-4.08 6.721 3.84 2.16-4.08 6.961-3.12-1.68-3.36 6.241-3.12 6.721-3.12 6.481-2.88 6.721-4.8 13.92-2.16 6.961 3.36 0.9601-1.92 7.681-4.32-1.2-1.44 6.001-1.2 6.241-1.2 6.001-2.4 22.56-0.48 6.961v6.961z" style="fill-rule:evenodd;fill:#0fb3ed;stroke-width:2.159"/><path d="m551.8 751.5v4.32h-12.96v54.73h85.93v-54.73h-14.4v-4.32h-15.12v0.9601h-28.32v-0.9601z" style="fill-rule:evenodd;fill:#0fb3ed;stroke-width:2.159"/><path d="m193.7 403h20.4v-0.7201h28.32v0.7201h20.88v-1.2h1.68v-28.8h-71.29z" style="fill-rule:evenodd;fill:#0fb3ed;stroke-width:2.159"/><path d="m952.7 416.2h42.96v-19.2h1.44v-25.2h-1.44v-19.2h-42.96v2.4h-4.32v58.57h4.32z" style="fill-rule:evenodd;fill:#0fb3ed;stroke-width:2.159"/></g><g transform="matrix(.5115 -.3727 -.5152 -.37 298.2 1034)" style="fill:#ff8814;filter:url(#filter1320-5);stroke-width:2.159"><path d="m588.3 178.5v29.28h42.96v-26.4h-4.56v-2.88z" style="fill-rule:evenodd;fill:#ff8814;stroke-width:2.159"/><path d="m511.3 124.8v-52.09h-60.25l-6.241 6.241 45.84 45.85z" style="fill-rule:evenodd;fill:#ff8814;stroke-width:2.159"/><path d="m512.9 72.68v72.25l7.681 7.921h80.89v-55.69l10.08-2.64-5.041-18.96h-6.001v-2.88h-65.77v2.88h-7.441v-2.88z" style="fill-rule:evenodd;fill:#ff8814;stroke-width:2.159"/><path d="m400.4 232.8 19.92 19.92 12-12-4.08-4.08 5.281-5.281 4.08 4.08 7.681-7.921-19.68-19.68z" style="fill-rule:evenodd;fill:#ff8814;stroke-width:2.159"/><path d="m381.4 252 19.92 19.68 17.76-17.76-19.92-19.92z" style="fill-rule:evenodd;fill:#ff8814;stroke-width:2.159"/><path d="m302.7 248.6 39.84 39.84 81.85-81.85-6.241-6.241 0.9601-1.2 27.36 27.36 29.04-29.04-11.28-11.76-18.72 18.72-1.2-1.2 18.72-18.72-48-48.01z" style="fill-rule:evenodd;fill:#ff8814;stroke-width:2.159"/><path d="m362.7 270.5 6.241 6.481 17.52-17.52-6.241-6.481z" style="fill-rule:evenodd;fill:#ff8814;stroke-width:2.159"/><path d="m451.7 170.9 25.2 25.2 28.32-28.32-25.44-25.2-28.08 28.32" style="fill:#ff8814;stroke-linecap:round;stroke-linejoin:round;stroke-miterlimit:10;stroke-width:1.036;stroke:#828282"/><path d="m425.8 144.9 24.72 24.72 28.32-28.32-24.96-24.72z" style="fill-rule:evenodd;fill:#ff8814;stroke-width:2.159"/><path d="m343.7 289.7 19.68 19.68 18-17.76-19.92-19.92z" style="fill-rule:evenodd;fill:#ff8814;stroke-width:2.159"/><path d="m301.5 249.8-12.24 12.48v142.3h60.49v-67.69h-8.401v-1.68h8.401v-12.24l3.12-2.88 9.601-9.601-11.76-11.52-17.04 16.8v4.801h-1.68v-5.521l17.52-17.28-26.16-26.16-6.241 6.241-1.2-0.9601 6.481-6.481z" style="fill-rule:evenodd;fill:#ff8814;stroke-width:2.159"/><path d="m479.6 533.1h14.64l1.2-4.561-1.2-0.4801 0.9601-3.12-12.96-3.36-0.9601 3.12-1.68-0.48z" style="fill-rule:evenodd;fill:#ff8814;stroke-width:2.159"/><path d="m223 506.5v236.1l81.9 21.93 12.37-3.5 1.167 4.199 16.8-4.434-1.167-4.199 177.8-47.6v-24.03l-4.199 1.167-0.7-3.266-12.6 3.5 0.9333 3.033-21.46 5.834v-165.5l-168.9-45.27-56.47 15.16-1.4-5.834-17.03 4.667 1.4 5.834z" style="fill-rule:evenodd;fill:#ff8814;stroke-width:2.159"/><path d="m559 416.4 22.08 22.08 42.24-42-22.08-22.08z" style="fill-rule:evenodd;fill:#ff8814;stroke-width:2.159"/><path d="m518 457.4 28.08 16.32 34.08-34.08-22.08-22.08z" style="fill-rule:evenodd;fill:#ff8814;stroke-width:2.159"/><path d="m586.9 209.5-208.8 224.9h102.3l34.56 19.92 120-120 3.36 3.12 10.32-10.56-3.12-3.12 5.761-5.761-19.92-34.56v-73.93z" style="fill-rule:evenodd;fill:#ff8814;stroke-width:2.159"/><path d="m602.2 373.2 22.08 22.08 46.32-46.09-16.32-28.08z" style="fill-rule:evenodd;fill:#ff8814;stroke-width:2.159"/><path d="m725.4 298.5 4.56-1.2v-14.64h-8.881z" style="fill-rule:evenodd;fill:#ff8814;stroke-width:2.159"/><path d="m725.6 300.2 3.84 13.92h76.57v-31.44h-74.41v15.84z" style="fill-rule:evenodd;fill:#ff8814;stroke-width:2.159"/><path d="m807.4 314.2h43.2v-31.44h-43.2z" style="fill-rule:evenodd;fill:#ff8814;stroke-width:2.159"/><path d="m942.7 59.43h-240.5l-2.351 8.466-5.879-1.411-4.703 17.16 5.879 1.411-8.936 33.62 42.32 157.8h163.7l-10.35 38.33h24.22l44.44-166.5 5.879 1.411 4.703-17.16-5.879-1.411 3.292-12.46z" style="fill-rule:evenodd;fill:#ff8814;filter:url(#filter1140-4);stroke-width:2.159"/><path d="m852.3 314.2h22.56l0.7201-2.4 3.12 0.9601 3.36-11.76-3.36-0.9601 4.56-17.28h-30.96z" style="fill-rule:evenodd;fill:#ff8814;stroke-width:2.159"/><path d="m479.6 689.6 31.2-8.161v-36.24h-31.2z" style="fill-rule:evenodd;fill:#ff8814;stroke-width:2.159"/><path d="m479.6 534.7v35.04h31.2v-37.2l-13.68-3.6-1.68 5.761z" style="fill-rule:evenodd;fill:#ff8814;stroke-width:2.159"/><path d="m514.4 643.5v-14.88h-3.12v-42.24h3.12v-14.88h-34.8v72.01z" style="fill-rule:evenodd;fill:#ff8814;stroke-width:2.159"/><path d="m586.9 209.5h-0.24v-30.96h-48.72v5.761h-4.8l-3.36 3.36-4.08-4.08-70.09 69.85 4.08 4.08-5.281 5.281-4.08-4.08-69.85 69.85 4.08 4.32-3.36 3.36v4.801h-5.761v88.81h2.64v4.561z" style="fill-rule:evenodd;fill:#ff8814;stroke-width:2.159"/></g><g transform="matrix(.5115 -.3727 -.5152 -.37 298.2 1034)" style="fill:#0fb3ed;filter:url(#filter1320-5);stroke-width:2.159"><path d="m635.6 257.5h26.88v-72.73h-26.88v72.73" style="fill:#0fb3ed;stroke-linecap:round;stroke-linejoin:round;stroke-miterlimit:10;stroke-width:1.036;stroke:#b2b2b2"/><path d="m381.6 465.6h72.73v-26.64h-72.73v26.64" style="fill:#0fb3ed;stroke-linecap:round;stroke-linejoin:round;stroke-miterlimit:10;stroke-width:1.036;stroke:#b2b2b2"/></g><g transform="matrix(.5115 -.3727 -.5152 -.37 298.2 1034)" style="fill:#0f445d;stroke-width:2.159"><path d="m847.3 333.1v-0.24l-0.24-0.24v-0.9601h-0.24v-0.24l-0.24-0.24v-0.24l-0.24-0.24v-0.24h-0.24l-0.48-0.4801h-0.24v-0.24h-0.48v-0.24h-0.7201l-0.24-0.24h-0.9601l-0.24 0.24h-0.7201v0.24h-0.48v0.24h-0.24v0.24h-0.24l-0.48 0.4801v0.24h-0.24v0.24l-0.24 0.24v0.24l-0.24 0.24v2.4h0.24v0.48l0.48 0.4801v0.24h0.24v0.24h0.24v0.24h0.24v0.24h0.48v0.24h0.48l0.24 0.24h1.92l0.24-0.24h0.48v-0.24h0.48v-0.24h0.24v-0.24h0.24l0.24-0.24v-0.24h0.24v-0.24l0.24-0.24v-0.24l0.24-0.24v-0.9601h0.24v-0.24" style="fill:#0f445d;stroke-linecap:round;stroke-linejoin:round;stroke-miterlimit:10;stroke-width:1.036;stroke:#828282"/><path d="m765.9 343.7v-0.9601l-0.24-0.24v-0.4801h-0.24v-0.24l-0.24-0.24v-0.24h-0.24v-0.24h-0.24v-0.24h-0.24v-0.24h-0.48v-0.24h-0.48l-0.24-0.24h-1.92l-0.24 0.24h-0.48v0.24h-0.48v0.24h-0.24v0.24h-0.24v0.24h-0.24v0.24h-0.24v0.4801h-0.24v0.24l-0.24 0.24v0.9601h-0.24v0.48l0.24 0.24v0.9601h0.24v0.4801h0.24v0.24l0.24 0.24v0.24h0.24l0.48 0.4801h0.24v0.24h0.48v0.24h0.7201v0.24h1.44v-0.24h0.7201v-0.24h0.48v-0.24h0.24v-0.24h0.24l0.48-0.4801v-0.24h0.24v-0.24h0.24v-0.4801l0.24-0.24v-1.2" style="fill:#0f445d;stroke-linecap:round;stroke-linejoin:round;stroke-miterlimit:10;stroke-width:1.036;stroke:#828282"/><path d="m682.9 375.1v0.24l0.24 0.24v0.9601h0.24v0.48h0.24v0.24h0.24v0.24l0.48 0.48h0.24v0.24h0.48v0.24h0.48v0.24h2.4v-0.24h0.48v-0.24h0.48v-0.24h0.24v-0.24h0.24v-0.24h0.24v-0.24l0.48-0.48v-0.4801h0.24v-2.4h-0.24v-0.4801l-0.24-0.24v-0.24h-0.24v-0.24l-0.48-0.48h-0.24v-0.24h-0.24v-0.24h-0.48v-0.24h-0.7201l-0.24-0.24h-0.9601l-0.24 0.24h-0.7201v0.24h-0.48v0.24h-0.24l-0.24 0.24h-0.24v0.24h-0.24v0.24l-0.24 0.24v0.24h-0.24v0.48h-0.24v0.9601h-0.24v0.24z" style="fill-rule:evenodd;fill:#0f445d;stroke-width:2.159"/><path d="m625.5 424.8v-0.4801l-0.24-0.24v-0.48l-0.24-0.24v-0.24l-0.24-0.24v-0.24h-0.24v-0.24h-0.24v-0.24h-0.24v-0.24h-0.24l-0.24-0.24h-0.24v-0.24h-0.48l-0.24-0.24h-1.68l-0.24 0.24h-0.48l-0.24 0.24h-0.24v0.24h-0.24l-0.48 0.4801h-0.24v0.24l-0.24 0.24v0.24l-0.24 0.24v0.48h-0.24v2.16h0.24v0.48l0.24 0.24v0.24l0.9601 0.9601h0.24v0.24h0.24l0.24 0.24h0.7201v0.24h1.44l0.24-0.24h0.7201v-0.24h0.24l0.24-0.24h0.24v-0.24h0.24v-0.24h0.24v-0.24h0.24v-0.24l0.24-0.24v-0.24l0.24-0.24v-0.48l0.24-0.24v-0.4801z" style="fill-rule:evenodd;fill:#0f445d;stroke-width:2.159"/><path d="m575.6 489.9v-0.9601l-0.24-0.24v-0.4801h-0.24v-0.24l-0.24-0.24v-0.24h-0.24v-0.24h-0.24v-0.24h-0.24v-0.24h-0.48v-0.24h-0.48v-0.24h-2.64v0.24h-0.48v0.24h-0.24l-0.24 0.24h-0.24v0.24l-0.24 0.24h-0.24v0.48h-0.24v0.4801h-0.24v0.7201h-0.24v1.44h0.24v0.7201h0.24v0.4801h0.24v0.4801h0.24l0.24 0.24v0.24h0.24l0.24 0.24h0.24v0.24h0.48v0.24h2.64v-0.24h0.48v-0.24h0.48v-0.24h0.24v-0.24h0.24v-0.24h0.24v-0.24l0.24-0.24v-0.24h0.24v-0.48l0.24-0.24v-0.9601" style="fill:#0f445d;stroke-linecap:round;stroke-linejoin:round;stroke-miterlimit:10;stroke-width:1.036;stroke:#828282"/><path d="m536.9 565.5v1.2h0.24v0.48l0.24 0.24v0.24h0.24v0.24h0.24v0.24l0.24 0.24h0.24v0.24h0.24l0.24 0.24h0.24l0.24 0.24h0.9601v0.24h0.48l0.24-0.24h0.7201l0.24-0.24h0.24l0.24-0.24h0.24l0.48-0.4801 0.48-0.48v-0.24h0.24v-0.4801l0.24-0.24v-0.7201h0.24v-0.9601h-0.24v-0.7201l-0.24-0.24v-0.4801h-0.24v-0.24h-0.24v-0.24l-0.24-0.24h-0.24v-0.24h-0.24v-0.24h-0.24l-0.24-0.24h-0.48v-0.24h-2.4v0.24h-0.48l-0.24 0.24h-0.24v0.24h-0.24v0.24h-0.24v0.24h-0.24v0.24h-0.24v0.24l-0.24 0.24v0.4801h-0.24v1.2" style="fill:#0f445d;stroke-linecap:round;stroke-linejoin:round;stroke-miterlimit:10;stroke-width:1.036;stroke:#828282"/><path d="m533.6 646.6v-0.9601h-0.24v-0.7201h-0.24v-0.24h-0.24v-0.24l-0.24-0.24v-0.24h-0.24v-0.24h-0.24l-0.24-0.24h-0.24l-0.24-0.24h-0.48v-0.24h-2.16v0.24h-0.48l-0.24 0.24h-0.24v0.24h-0.24l-0.24 0.24h-0.24v0.24l-0.24 0.24v0.24h-0.24v0.24l-0.24 0.24v0.4801l-0.24 0.24v1.44l0.24 0.24v0.7201h0.24v0.24l0.24 0.24v0.24h0.24v0.24h0.24v0.24h0.24l0.48 0.4801h0.24l0.24 0.24h0.7201v0.24h1.2v-0.24h0.7201l0.24-0.24h0.24l0.24-0.24h0.24v-0.24h0.24v-0.24h0.24v-0.24h0.24v-0.24l0.24-0.24v-0.24h0.24v-0.7201h0.24v-0.7201z" style="fill-rule:evenodd;fill:#0f445d;stroke-width:2.159"/><path d="m943.3 413.5v61.93h9.361v-61.93z" style="fill-rule:evenodd;fill:#0f445d;stroke-width:2.159"/><path d="m610.4 755.8h61.93v-9.361h-61.93z" style="fill-rule:evenodd;fill:#0f445d;stroke-width:2.159"/><path d="m899.1 475v-10.32h-13.2v10.32z" style="fill-rule:evenodd;fill:#0f445d;stroke-width:2.159"/><path d="m789.9 472.6 2.64 10.08 12.96-3.6-2.64-10.08z" style="fill-rule:evenodd;fill:#0f445d;stroke-width:2.159"/><path d="m717.4 529.9 9.361-9.361-7.441-7.441-9.361 9.601 7.441 7.201" style="fill:#0f445d;stroke-linecap:round;stroke-linejoin:round;stroke-miterlimit:10;stroke-width:1.036;stroke:#828282"/><path d="m679.5 595.7-10.08-2.64-3.6 12.96 10.08 2.64 3.6-12.96" style="fill:#0f445d;stroke-linecap:round;stroke-linejoin:round;stroke-miterlimit:10;stroke-width:1.036;stroke:#828282"/><path d="m671.8 702.3v-13.2h-10.32v13.2z" style="fill-rule:evenodd;fill:#0f445d;stroke-width:2.159"/></g><g style="opacity:.95"><g transform="matrix(.5115 -.3727 -.5152 -.37 1105 1021)" style="stroke-width:2.159"><path d="m211 747.6 14.4 4.08 0.48-1.92 61.69 16.56-0.48 1.68 14.4 3.84 14.4-3.84-0.48-1.68 17.28-4.561 10.56-2.88 0.24 1.68 14.4-3.84-0.48-1.68 27.84-7.441 0.48 1.92 14.4-3.84-0.48-1.92 27.6-7.441 0.48 1.92 14.4-3.84-0.48-1.92 27.6-7.441 0.48 1.92 40.56-11.04v30.48h-20.16v9.361h48.72v54.73h85.93v-54.73h47.52v-8.401h23.28v-105.4l0.24-5.281 0.48-5.041 0.7201-5.281 0.7201-5.041 0.9601-5.041 1.2-5.041 1.44-5.041 1.44-4.801 1.68-5.041 1.92-4.801 1.92-4.561 2.16-4.801 2.4-4.561 2.64-4.561 5.281-8.641 3.12-4.32 6.241-8.161 3.36-3.84 3.6-3.84 3.6-3.6 3.84-3.6 3.84-3.36 8.161-6.241 4.32-3.12 8.641-5.281 4.56-2.64 4.56-2.4 4.56-2.16 9.601-3.84 5.041-1.68 4.8-1.44 5.04-1.44 5.041-1.2 5.041-0.9601 5.04-0.7201 5.281-0.7201 5.04-0.24 5.281-0.48h105.4v-23.76h8.881v-48.73h100.1v-85.93h-100.6v-46.57h-8.401v19.2h-34.08l10.8-40.56 41.76-155.5-3.84-14.4-1.68 0.48-10.08-37.92 1.68-0.4801-3.84-14.4h-14.88v1.92h-45.36v-1.92h-14.64v1.92h-45.36v-1.92h-6.001v1.68h-2.88v-1.68h-6.001v1.92h-45.12v-1.92h-14.88v1.92h-45.36v-1.92h-14.64l-0.48 1.92h-84.49v13.92h-5.761v1.68h-60.25v-1.68h-6.001v1.68h-2.88v-1.68h-6.001v1.68h-60.25v-1.68h-14.88l-44.64 44.65 1.2 1.2-2.4 2.4-10.08 10.32-30 30-1.44-1.2-4.08 4.321 1.2 0.9601-2.16 2.16-1.2-1.2-4.08 4.32 1.2 1.2-42 42-1.2-1.2-26.64 26.4 1.2 1.2-2.16 2.16-0.9601-1.2-16.8 16.8v14.64h1.68v60.25h-1.68v6.241h1.68v2.64h-1.68v6.001h1.68v31.44h-71.29v-8.161h-9.121v149.5h9.121v-7.441h17.28v3.36h1.92v44.65h-1.92v14.88h1.92v44.41h-1.92v6.001h1.68v2.88h-1.68v6.001h1.92v44.41h-1.92v14.88h1.92v44.65h-1.92v6.241h1.68v2.64h-1.68z" style="fill-rule:evenodd;fill:#0f6c87;stroke-width:2.159"/></g><g transform="matrix(.5115 -.3727 -.5152 -.37 1105 1021)" style="fill:#0fb3ed;filter:url(#filter1140-2);stroke-width:2.159"><path d="m616.9 746.4h55.45v0.9601h23.28v-105.4l0.24-5.281 0.48-5.041 0.7201-5.281 0.7201-5.041 0.9601-5.041 1.2-5.041 1.44-5.041 1.44-4.801 1.68-5.041 1.92-4.801 1.92-4.561 2.16-4.801 2.4-4.561 2.64-4.561 5.281-8.641 3.12-4.32 6.241-8.161 3.36-3.84 3.6-3.84 3.6-3.6 3.84-3.6 3.84-3.36 8.161-6.241 4.32-3.12 8.641-5.281 4.56-2.64 4.56-2.4 4.56-2.16 9.601-3.84 5.041-1.68 4.8-1.44 5.04-1.44 5.041-1.2 5.041-0.9601 5.04-0.7201 5.281-0.7201 5.04-0.24 5.281-0.48h105.4v-23.76h-0.48v-55.45h-106.8l-6.961 0.48-22.56 2.4-6.241 1.2-6.001 1.2-6.001 1.44 1.2 4.32-7.921 1.92-0.7201-3.36-7.201 2.16-6.721 2.4-6.961 2.64-6.721 2.64-6.721 3.12-6.481 3.12-6.481 3.36 1.92 3.12-6.961 4.08-2.16-3.84-6.721 4.08-6.721 4.561-6.241 4.561-6.241 4.801-12 10.56-5.761 5.521-5.281 5.521-5.521 6.001-5.041 6.001-4.8 6.241-4.56 6.241-4.56 6.721-4.08 6.721 3.84 2.16-4.08 6.961-3.12-1.68-3.36 6.241-3.12 6.721-3.12 6.481-2.88 6.721-4.8 13.92-2.16 6.961 3.36 0.9601-1.92 7.681-4.32-1.2-1.44 6.001-1.2 6.241-1.2 6.001-2.4 22.56-0.48 6.961v6.961z" style="fill-rule:evenodd;fill:#0fb3ed;stroke-width:2.159"/><path d="m551.8 751.5v4.32h-12.96v54.73h85.93v-54.73h-14.4v-4.32h-15.12v0.9601h-28.32v-0.9601z" style="fill-rule:evenodd;fill:#0fb3ed;stroke-width:2.159"/><path d="m193.7 403h20.4v-0.7201h28.32v0.7201h20.88v-1.2h1.68v-28.8h-71.29z" style="fill-rule:evenodd;fill:#0fb3ed;stroke-width:2.159"/><path d="m952.7 416.2h42.96v-19.2h1.44v-25.2h-1.44v-19.2h-42.96v2.4h-4.32v58.57h4.32z" style="fill-rule:evenodd;fill:#0fb3ed;stroke-width:2.159"/></g><g transform="matrix(.5115 -.3727 -.5152 -.37 1105 1021)" style="fill:#ff2712;filter:url(#filter1320-8);stroke-width:2.159"><path d="m588.3 178.5v29.28h42.96v-26.4h-4.56v-2.88z" style="fill-rule:evenodd;fill:#ff2712;stroke-width:2.159"/><path d="m511.3 124.8v-52.09h-60.25l-6.241 6.241 45.84 45.85z" style="fill-rule:evenodd;fill:#ff2712;stroke-width:2.159"/><path d="m512.9 72.68v72.25l7.681 7.921h80.89v-55.69l10.08-2.64-5.041-18.96h-6.001v-2.88h-65.77v2.88h-7.441v-2.88z" style="fill-rule:evenodd;fill:#ff2712;stroke-width:2.159"/><path d="m400.4 232.8 19.92 19.92 12-12-4.08-4.08 5.281-5.281 4.08 4.08 7.681-7.921-19.68-19.68z" style="fill-rule:evenodd;fill:#ff2712;stroke-width:2.159"/><path d="m381.4 252 19.92 19.68 17.76-17.76-19.92-19.92z" style="fill-rule:evenodd;fill:#ff2712;stroke-width:2.159"/><path d="m302.7 248.6 39.84 39.84 81.85-81.85-6.241-6.241 0.9601-1.2 27.36 27.36 29.04-29.04-11.28-11.76-18.72 18.72-1.2-1.2 18.72-18.72-48-48.01z" style="fill-rule:evenodd;fill:#ff2712;stroke-width:2.159"/><path d="m362.7 270.5 6.241 6.481 17.52-17.52-6.241-6.481z" style="fill-rule:evenodd;fill:#ff2712;stroke-width:2.159"/><path d="m451.7 170.9 25.2 25.2 28.32-28.32-25.44-25.2-28.08 28.32" style="fill:#ff2712;stroke-linecap:round;stroke-linejoin:round;stroke-miterlimit:10;stroke-width:1.036;stroke:#828282"/><path d="m425.8 144.9 24.72 24.72 28.32-28.32-24.96-24.72z" style="fill-rule:evenodd;fill:#ff2712;stroke-width:2.159"/><path d="m343.7 289.7 19.68 19.68 18-17.76-19.92-19.92z" style="fill-rule:evenodd;fill:#ff2712;stroke-width:2.159"/><path d="m301.5 249.8-12.24 12.48v142.3h60.49v-67.69h-8.401v-1.68h8.401v-12.24l3.12-2.88 9.601-9.601-11.76-11.52-17.04 16.8v4.801h-1.68v-5.521l17.52-17.28-26.16-26.16-6.241 6.241-1.2-0.9601 6.481-6.481z" style="fill-rule:evenodd;fill:#ff2712;stroke-width:2.159"/><path d="m479.6 533.1h14.64l1.2-4.561-1.2-0.4801 0.9601-3.12-12.96-3.36-0.9601 3.12-1.68-0.48z" style="fill-rule:evenodd;fill:#ff2712;stroke-width:2.159"/><path d="m223 506.5v236.1l81.9 21.93 12.37-3.5 1.167 4.199 16.8-4.434-1.167-4.199 177.8-47.6v-24.03l-4.199 1.167-0.7-3.266-12.6 3.5 0.9333 3.033-21.46 5.834v-165.5l-168.9-45.27-56.47 15.16-1.4-5.834-17.03 4.667 1.4 5.834z" style="fill-rule:evenodd;fill:#ff2712;stroke-width:2.159"/><path d="m559 416.4 22.08 22.08 42.24-42-22.08-22.08z" style="fill-rule:evenodd;fill:#ff2712;stroke-width:2.159"/><path d="m518 457.4 28.08 16.32 34.08-34.08-22.08-22.08z" style="fill-rule:evenodd;fill:#ff2712;stroke-width:2.159"/><path d="m586.9 209.5-208.8 224.9h102.3l34.56 19.92 120-120 3.36 3.12 10.32-10.56-3.12-3.12 5.761-5.761-19.92-34.56v-73.93z" style="fill-rule:evenodd;fill:#ff2712;stroke-width:2.159"/><path d="m602.2 373.2 22.08 22.08 46.32-46.09-16.32-28.08z" style="fill-rule:evenodd;fill:#ff2712;stroke-width:2.159"/><path d="m725.4 298.5 4.56-1.2v-14.64h-8.881z" style="fill-rule:evenodd;fill:#ff2712;stroke-width:2.159"/><path d="m725.6 300.2 3.84 13.92h76.57v-31.44h-74.41v15.84z" style="fill-rule:evenodd;fill:#ff2712;stroke-width:2.159"/><path d="m807.4 314.2h43.2v-31.44h-43.2z" style="fill-rule:evenodd;fill:#ff2712;stroke-width:2.159"/><path d="m942.7 59.43h-240.5l-2.351 8.466-5.879-1.411-4.703 17.16 5.879 1.411-8.936 33.62 42.32 157.8h163.7l-10.35 38.33h24.22l44.44-166.5 5.879 1.411 4.703-17.16-5.879-1.411 3.292-12.46z" style="fill-rule:evenodd;fill:#ff2712;filter:url(#filter1140-2);stroke-width:2.159"/><path d="m852.3 314.2h22.56l0.7201-2.4 3.12 0.9601 3.36-11.76-3.36-0.9601 4.56-17.28h-30.96z" style="fill-rule:evenodd;fill:#ff2712;stroke-width:2.159"/><path d="m479.6 689.6 31.2-8.161v-36.24h-31.2z" style="fill-rule:evenodd;fill:#ff2712;stroke-width:2.159"/><path d="m479.6 534.7v35.04h31.2v-37.2l-13.68-3.6-1.68 5.761z" style="fill-rule:evenodd;fill:#ff2712;stroke-width:2.159"/><path d="m514.4 643.5v-14.88h-3.12v-42.24h3.12v-14.88h-34.8v72.01z" style="fill-rule:evenodd;fill:#ff2712;stroke-width:2.159"/><path d="m586.9 209.5h-0.24v-30.96h-48.72v5.761h-4.8l-3.36 3.36-4.08-4.08-70.09 69.85 4.08 4.08-5.281 5.281-4.08-4.08-69.85 69.85 4.08 4.32-3.36 3.36v4.801h-5.761v88.81h2.64v4.561z" style="fill-rule:evenodd;fill:#ff2712;stroke-width:2.159"/></g><g transform="matrix(.5115 -.3727 -.5152 -.37 1105 1021)" style="fill:#0fb3ed;filter:url(#filter1320-8);stroke-width:2.159"><path d="m635.6 257.5h26.88v-72.73h-26.88v72.73" style="fill:#0fb3ed;stroke-linecap:round;stroke-linejoin:round;stroke-miterlimit:10;stroke-width:1.036;stroke:#b2b2b2"/><path d="m381.6 465.6h72.73v-26.64h-72.73v26.64" style="fill:#0fb3ed;stroke-linecap:round;stroke-linejoin:round;stroke-miterlimit:10;stroke-width:1.036;stroke:#b2b2b2"/></g><g transform="matrix(.5115 -.3727 -.5152 -.37 1105 1021)" style="fill:#0f445d;stroke-width:2.159"><path d="m847.3 333.1v-0.24l-0.24-0.24v-0.9601h-0.24v-0.24l-0.24-0.24v-0.24l-0.24-0.24v-0.24h-0.24l-0.48-0.4801h-0.24v-0.24h-0.48v-0.24h-0.7201l-0.24-0.24h-0.9601l-0.24 0.24h-0.7201v0.24h-0.48v0.24h-0.24v0.24h-0.24l-0.48 0.4801v0.24h-0.24v0.24l-0.24 0.24v0.24l-0.24 0.24v2.4h0.24v0.48l0.48 0.4801v0.24h0.24v0.24h0.24v0.24h0.24v0.24h0.48v0.24h0.48l0.24 0.24h1.92l0.24-0.24h0.48v-0.24h0.48v-0.24h0.24v-0.24h0.24l0.24-0.24v-0.24h0.24v-0.24l0.24-0.24v-0.24l0.24-0.24v-0.9601h0.24v-0.24" style="fill:#0f445d;stroke-linecap:round;stroke-linejoin:round;stroke-miterlimit:10;stroke-width:1.036;stroke:#828282"/><path d="m765.9 343.7v-0.9601l-0.24-0.24v-0.4801h-0.24v-0.24l-0.24-0.24v-0.24h-0.24v-0.24h-0.24v-0.24h-0.24v-0.24h-0.48v-0.24h-0.48l-0.24-0.24h-1.92l-0.24 0.24h-0.48v0.24h-0.48v0.24h-0.24v0.24h-0.24v0.24h-0.24v0.24h-0.24v0.4801h-0.24v0.24l-0.24 0.24v0.9601h-0.24v0.48l0.24 0.24v0.9601h0.24v0.4801h0.24v0.24l0.24 0.24v0.24h0.24l0.48 0.4801h0.24v0.24h0.48v0.24h0.7201v0.24h1.44v-0.24h0.7201v-0.24h0.48v-0.24h0.24v-0.24h0.24l0.48-0.4801v-0.24h0.24v-0.24h0.24v-0.4801l0.24-0.24v-1.2" style="fill:#0f445d;stroke-linecap:round;stroke-linejoin:round;stroke-miterlimit:10;stroke-width:1.036;stroke:#828282"/><path d="m682.9 375.1v0.24l0.24 0.24v0.9601h0.24v0.48h0.24v0.24h0.24v0.24l0.48 0.48h0.24v0.24h0.48v0.24h0.48v0.24h2.4v-0.24h0.48v-0.24h0.48v-0.24h0.24v-0.24h0.24v-0.24h0.24v-0.24l0.48-0.48v-0.4801h0.24v-2.4h-0.24v-0.4801l-0.24-0.24v-0.24h-0.24v-0.24l-0.48-0.48h-0.24v-0.24h-0.24v-0.24h-0.48v-0.24h-0.7201l-0.24-0.24h-0.9601l-0.24 0.24h-0.7201v0.24h-0.48v0.24h-0.24l-0.24 0.24h-0.24v0.24h-0.24v0.24l-0.24 0.24v0.24h-0.24v0.48h-0.24v0.9601h-0.24v0.24z" style="fill-rule:evenodd;fill:#0f445d;stroke-width:2.159"/><path d="m625.5 424.8v-0.4801l-0.24-0.24v-0.48l-0.24-0.24v-0.24l-0.24-0.24v-0.24h-0.24v-0.24h-0.24v-0.24h-0.24v-0.24h-0.24l-0.24-0.24h-0.24v-0.24h-0.48l-0.24-0.24h-1.68l-0.24 0.24h-0.48l-0.24 0.24h-0.24v0.24h-0.24l-0.48 0.4801h-0.24v0.24l-0.24 0.24v0.24l-0.24 0.24v0.48h-0.24v2.16h0.24v0.48l0.24 0.24v0.24l0.9601 0.9601h0.24v0.24h0.24l0.24 0.24h0.7201v0.24h1.44l0.24-0.24h0.7201v-0.24h0.24l0.24-0.24h0.24v-0.24h0.24v-0.24h0.24v-0.24h0.24v-0.24l0.24-0.24v-0.24l0.24-0.24v-0.48l0.24-0.24v-0.4801z" style="fill-rule:evenodd;fill:#0f445d;stroke-width:2.159"/><path d="m575.6 489.9v-0.9601l-0.24-0.24v-0.4801h-0.24v-0.24l-0.24-0.24v-0.24h-0.24v-0.24h-0.24v-0.24h-0.24v-0.24h-0.48v-0.24h-0.48v-0.24h-2.64v0.24h-0.48v0.24h-0.24l-0.24 0.24h-0.24v0.24l-0.24 0.24h-0.24v0.48h-0.24v0.4801h-0.24v0.7201h-0.24v1.44h0.24v0.7201h0.24v0.4801h0.24v0.4801h0.24l0.24 0.24v0.24h0.24l0.24 0.24h0.24v0.24h0.48v0.24h2.64v-0.24h0.48v-0.24h0.48v-0.24h0.24v-0.24h0.24v-0.24h0.24v-0.24l0.24-0.24v-0.24h0.24v-0.48l0.24-0.24v-0.9601" style="fill:#0f445d;stroke-linecap:round;stroke-linejoin:round;stroke-miterlimit:10;stroke-width:1.036;stroke:#828282"/><path d="m536.9 565.5v1.2h0.24v0.48l0.24 0.24v0.24h0.24v0.24h0.24v0.24l0.24 0.24h0.24v0.24h0.24l0.24 0.24h0.24l0.24 0.24h0.9601v0.24h0.48l0.24-0.24h0.7201l0.24-0.24h0.24l0.24-0.24h0.24l0.48-0.4801 0.48-0.48v-0.24h0.24v-0.4801l0.24-0.24v-0.7201h0.24v-0.9601h-0.24v-0.7201l-0.24-0.24v-0.4801h-0.24v-0.24h-0.24v-0.24l-0.24-0.24h-0.24v-0.24h-0.24v-0.24h-0.24l-0.24-0.24h-0.48v-0.24h-2.4v0.24h-0.48l-0.24 0.24h-0.24v0.24h-0.24v0.24h-0.24v0.24h-0.24v0.24h-0.24v0.24l-0.24 0.24v0.4801h-0.24v1.2" style="fill:#0f445d;stroke-linecap:round;stroke-linejoin:round;stroke-miterlimit:10;stroke-width:1.036;stroke:#828282"/><path d="m533.6 646.6v-0.9601h-0.24v-0.7201h-0.24v-0.24h-0.24v-0.24l-0.24-0.24v-0.24h-0.24v-0.24h-0.24l-0.24-0.24h-0.24l-0.24-0.24h-0.48v-0.24h-2.16v0.24h-0.48l-0.24 0.24h-0.24v0.24h-0.24l-0.24 0.24h-0.24v0.24l-0.24 0.24v0.24h-0.24v0.24l-0.24 0.24v0.4801l-0.24 0.24v1.44l0.24 0.24v0.7201h0.24v0.24l0.24 0.24v0.24h0.24v0.24h0.24v0.24h0.24l0.48 0.4801h0.24l0.24 0.24h0.7201v0.24h1.2v-0.24h0.7201l0.24-0.24h0.24l0.24-0.24h0.24v-0.24h0.24v-0.24h0.24v-0.24h0.24v-0.24l0.24-0.24v-0.24h0.24v-0.7201h0.24v-0.7201z" style="fill-rule:evenodd;fill:#0f445d;stroke-width:2.159"/><path d="m943.3 413.5v61.93h9.361v-61.93z" style="fill-rule:evenodd;fill:#0f445d;stroke-width:2.159"/><path d="m610.4 755.8h61.93v-9.361h-61.93z" style="fill-rule:evenodd;fill:#0f445d;stroke-width:2.159"/><path d="m899.1 475v-10.32h-13.2v10.32z" style="fill-rule:evenodd;fill:#0f445d;stroke-width:2.159"/><path d="m789.9 472.6 2.64 10.08 12.96-3.6-2.64-10.08z" style="fill-rule:evenodd;fill:#0f445d;stroke-width:2.159"/><path d="m717.4 529.9 9.361-9.361-7.441-7.441-9.361 9.601 7.441 7.201" style="fill:#0f445d;stroke-linecap:round;stroke-linejoin:round;stroke-miterlimit:10;stroke-width:1.036;stroke:#828282"/><path d="m679.5 595.7-10.08-2.64-3.6 12.96 10.08 2.64 3.6-12.96" style="fill:#0f445d;stroke-linecap:round;stroke-linejoin:round;stroke-miterlimit:10;stroke-width:1.036;stroke:#828282"/><path d="m671.8 702.3v-13.2h-10.32v13.2z" style="fill-rule:evenodd;fill:#0f445d;stroke-width:2.159"/></g></g><text x="315.62729" y="80.073685" style="fill:#0080d5;font-family:'Britannic Bold';font-size:40px;letter-spacing:0px;line-height:1.25;word-spacing:0px" xml:space="preserve"><tspan x="315.62729" y="80.073685">Decision 1</tspan></text><text x="1128.7926" y="60.962513" style="fill:#0080d5;font-family:'Britannic Bold';font-size:40px;letter-spacing:0px;line-height:1.25;word-spacing:0px" xml:space="preserve"><tspan x="1128.7926" y="60.962513">Decision 2</tspan></text><text x="299.05075" y="506.74539" style="fill:#0080d5;font-family:'Britannic Bold';font-size:40px;letter-spacing:0px;line-height:1.25;word-spacing:0px" xml:space="preserve"><tspan x="299.05075" y="506.74539">Decision 3</tspan></text><text x="1102.7615" y="487.22208" style="fill:#0080d5;font-family:'Britannic Bold';font-size:40px;letter-spacing:0px;line-height:1.25;word-spacing:0px" xml:space="preserve"><tspan x="1102.7615" y="487.22208">Decision 4</tspan></text></svg>
