<svg width="162.9mm" height="91.02mm" version="1.1" viewBox="0 0 162.9 91.02" xmlns="http://www.w3.org/2000/svg"><defs><clipPath id="clipPath2137"><path d="m18.81 329h297.9v-258h-297.9z"/></clipPath></defs><g transform="translate(-15.58 -122.5)"><path d="m114 167.9c0 17.78 14.41 32.19 32.19 32.19s32.19-14.41 32.19-32.19c0-17.78-14.41-32.19-32.19-32.19s-32.19 14.41-32.19 32.19" style="fill:#002142"/><g transform="matrix(.3528 0 0 -.3528 8.945 238.5)"><g transform="translate(448.7 132.2)"><path d="m0 0c1.241 4.388 6.433 9.02 11.44 9.897 5.005 0.89 7.698-2.155 6.12-6.479-1.581-4.345-6.674-8.357-11.34-9.293-4.66-0.932-7.46 1.484-6.221 5.875m-6.509 1.279c-0.368-1.545-0.75-3.039-1.146-4.477 1.283 0.166 2.557 0.341 3.823 0.524-0.017-0.372-7e-3 -0.729 0.027-1.07-1.249-0.676-2.496-1.338-3.741-1.986 0.497-1.068 0.96-2.088 1.39-3.061 1.23 0.619 2.463 1.253 3.698 1.903 0.204-0.218 0.429-0.416 0.674-0.596-0.921-0.918-1.84-1.81-2.756-2.673 1.165-0.385 2.299-0.745 3.4-1.085 0.932 0.835 1.865 1.7 2.798 2.591 0.367-0.03 0.748-0.04 1.145-0.028-0.408-0.901-0.825-1.771-1.25-2.607 1.565 0.294 3.116 0.601 4.651 0.925 0.452 0.845 0.893 1.723 1.326 2.629 0.452 0.158 0.904 0.337 1.354 0.53 0.189-0.668 0.362-1.313 0.518-1.937 1.63 0.89 3.254 1.81 4.868 2.759-0.147 0.652-0.309 1.326-0.488 2.021 0.418 0.313 0.827 0.637 1.225 0.974 0.748-0.247 1.48-0.483 2.195-0.707 1.284 1.319 2.553 2.678 3.807 4.074-0.717 0.242-1.45 0.497-2.201 0.763 0.276 0.395 0.534 0.797 0.77 1.203 1.109 0.288 2.202 0.585 3.279 0.888 0.572 1.427 1.122 2.892 1.65 4.394-1.084-0.298-2.186-0.589-3.305-0.872 0.054 0.384 0.078 0.756 0.079 1.117 1.161 0.803 2.309 1.614 3.443 2.433-0.317 1.143-0.663 2.321-1.039 3.535-1.147-0.826-2.31-1.646-3.485-2.46-0.193 0.259-0.41 0.501-0.652 0.723 0.874 1.155 1.738 2.323 2.592 3.5-1.152 0.524-2.344 1.076-3.571 1.652-0.856-1.194-1.721-2.379-2.595-3.553-0.392 0.059-0.801 0.098-1.229 0.108 0.3 1.226 0.589 2.472 0.868 3.734-1.691-0.297-3.415-0.58-5.168-0.852-0.264-1.276-0.539-2.534-0.824-3.771-0.489-0.171-0.975-0.366-1.458-0.581-0.396 0.969-0.81 1.96-1.24 2.97-1.722-1.094-3.457-2.176-5.202-3.243 0.444-1.001 0.874-1.981 1.285-2.939-0.429-0.354-0.845-0.722-1.245-1.101-0.993 0.44-2.005 0.894-3.034 1.362-1.212-1.574-2.426-3.116-3.64-4.621 1.018-0.445 2.019-0.876 3.001-1.292-0.251-0.425-0.483-0.851-0.687-1.28-1.294-0.181-2.597-0.355-3.91-0.52" style="fill:#fff"/></g><g transform="translate(432.9 111.6)"><path d="m0 0c-2.045 3.503-5.615 9.422-10.54 17.48 7.391 8.844 15.42 19.76 23.13 31.37 13.02 1.052 24.98 2.57 34.9 4.494 3.259-9.091 5.192-16.76 6.099-23.13-7.138-9.781-15.8-18.8-24.86-25.06-9.149-2.358-18.86-4.022-28.72-5.141z" style="fill:none;stroke-miterlimit:10;stroke:#fff"/></g><g transform="translate(454.4 277.7)"><path d="m0 0c0.25-0.568 0.496-1.146 0.739-1.735 4.058-0.817 8.472-4.323 9.834-8.085 1.362-3.747-0.973-6.353-5.284-5.57-4.317 0.775-8.801 4.747-9.906 8.538-0.76 0.122-1.524 0.241-2.291 0.357 1.361-4.891 7.164-10.1 12.76-11.07 5.593-0.987 8.569 2.431 6.787 7.246-1.785 4.843-7.468 9.278-12.64 10.32" style="fill:#fff"/></g><g transform="translate(463.8 274.5)"><path d="m0 0c-0.33-0.26-0.666-0.525-1.009-0.796 5.008-4.318 6.818-10.1 3.701-12.86-3.097-2.77-10.11-1.191-15.15 3.659-5.044 4.861-6.102 10.64-2.968 12.85-1e-3 1e-3 0 0 0 0-0.649 0.522-1.297 1.036-1.944 1.541-3.789-2.578-2.646-9.586 3.479-15.56 6.121-5.951 14.72-7.82 18.45-4.408 3.76 3.391 1.517 10.39-4.554 15.57" style="fill:#fff"/></g><g transform="translate(467.1 273.4)"><path d="m0 0c-0.418-0.157-0.844-0.318-1.274-0.484 5.606-5.841 6.512-12.77 1.526-15.29-4.966-2.551-14.11 0.793-19.53 7.417-5.421 6.646-5.183 13.14-0.423 14.84-0.572 0.533-1.145 1.056-1.716 1.569-5.51-1.873-5.962-9.398 0.352-17.27 6.32-7.838 17.14-11.73 22.93-8.67 5.813 3.001 4.701 11.11-1.861 17.89" style="fill:#fff"/></g><g transform="translate(445.6 241.5)"><path d="m0 0c-7.688 11.66-15.72 22.68-23.12 31.66 4.964 8.19 8.578 14.27 10.67 17.95 9.924-1.146 19.68-2.851 28.85-5.25 9.032-6.438 17.66-15.57 24.76-25.42-0.941-6.453-2.914-14.2-6.212-23.36-9.919 1.889-21.9 3.381-34.94 4.416z" style="fill:none;stroke-miterlimit:10;stroke:#fff"/></g><g transform="translate(504.2 228.5)"><path d="m0 0c1.457-0.884 2.466-3.756 2.839-7.027 0.062-0.532 0.205-1.017 0.325-1.133 0.02-0.018 0.038-0.037 0.057-0.055 0.135-0.133 0.191 0.266 0.131 0.867-0.406 4.316-1.624 8.448-3.698 9.769-2.043 1.32-3.883-1.074-3.595-5.999 0.037-0.674 0.423-1.373 0.799-1.493 0.051-0.016 0.102-0.032 0.152-0.049 0.321-0.103 0.522 0.254 0.494 0.819-0.188 3.541 1.051 5.184 2.496 4.301" style="fill:#fff"/></g><g transform="translate(503 236)"><path d="m0 0c3.673-2.518 4.942-9.906 5.187-16.28 0.03-0.502 0.07-0.983 0.077-1.106 1e-3 -0.029 2e-3 -0.059 3e-3 -0.088 1e-3 -0.136-0.034 0.206-0.054 0.743-0.11 7.676-1.184 16.12-5.695 19.27-4.351 3.125-8.659-1.645-7.661-12.25 0.062-0.714 0.518-1.415 0.987-1.525 0.101-0.024 0.202-0.047 0.302-0.071 0.419-0.099 0.698 0.311 0.648 0.939-0.727 8.351 2.651 12.88 6.206 10.37" style="fill:#fff"/></g><g transform="translate(503.6 232.5)"><path d="m0 0c2.557-1.678 3.861-6.963 4.227-11.9 0.044-0.519 0.136-1.008 0.198-1.128 0.071-0.135 0.082 0.237 0.044 0.807-0.325 5.864-1.645 12.22-4.826 14.37-3.099 2.139-6.022-1.656-5.455-9.018 0.049-0.695 0.471-1.396 0.894-1.511 0.375-0.101 0.617 0.288 0.576 0.891-0.436 5.918 1.838 9.159 4.342 7.485" style="fill:#fff"/></g><g transform="translate(498 203.6)"><path d="m0 0c-3.542 9.453-8.572 20.05-14.92 30.86 3.275 8.97 5.256 16.59 6.259 22.97 7.707-3.426 13.38-7.435 15.92-11.88 2.709-9.441 2.744-18.32 0.649-25.64 1.411-4.5 2.676-10 2.778-16.87 0.155 0.202-3.776 0.393-10.68 0.563z" style="fill:none;stroke-miterlimit:10;stroke:#fff"/></g><g transform="translate(323.7 194.7)"><path d="m0 0c-0.757 2.868 0.217 7.407 2.176 9.518 1.933 2.097 5.48 3.419 5.49 3.419-0.047-2.189-0.07-4.382-0.067-6.574 4.338 3.269 8.98 6.693 13.84 10.21-4.778 3.083-9.297 6.021-13.49 8.762-0.116-1.759-0.216-3.527-0.299-5.3-0.025 0.01-6.368-1.81-9.202-7.637-2.893-5.761 1.522-12.34 1.553-12.39" style="fill:#fff"/></g><g transform="translate(343.9 205.9)"><path d="m0 0c0.753-3.057-0.439-7.985-2.584-10.13-2.167-2.16-5.813-3.305-5.803-3.304-0.064 2.215-0.104 4.435-0.12 6.659-4.465-3.288-8.644-6.422-12.47-9.351 4.189-3.178 8.715-6.486 13.49-9.856-0.126 1.775-0.237 3.56-0.331 5.353-0.025 5e-3 6.508 1.108 9.733 7.272 3.177 6.209-1.932 13.4-1.909 13.36" style="fill:#fff"/></g><g transform="translate(319 169.2)"><path d="m0 0c-6.504 11.1-11.72 22-15.44 31.75 3.688 9.725 8.864 20.62 15.33 31.74 10.01 1.67 22.12 2.988 35.32 3.898 5.581-10.93 12.35-23.19 19.61-35.74-7.247-12.55-13.99-24.76-19.54-35.63-13.18 0.929-25.28 2.275-35.28 3.982z" style="fill:none;stroke-miterlimit:10;stroke:#fff"/></g><g transform="translate(294.6 155.9)"><path d="m0 0c-2.879 9.586-3.01 18.67-0.946 26.18-1.372 4.561-2.645 10.12-2.766 17.07-0.16-0.286 3.767-0.551 10.67-0.783 3.579-9.651 8.676-20.45 15.12-31.41-3.177-9.055-5.038-16.71-5.91-23.1-7.737 3.461-13.5 7.523-16.16 12.05z" style="fill:none;stroke-miterlimit:10;stroke:#fff"/></g><g transform="translate(465 203.7)"><path d="m0 0c-0.02 2.655-0.075 5.306-0.165 7.949-0.397-0.188-0.774-0.454-1.129-0.802-0.833-0.814-1.241-1.854-1.214-3.107 0.024-1.222 0.466-2.265 1.321-3.117 0.328-0.315 0.724-0.624 1.187-0.923m3.772-6.737c-0.04-2.618-0.116-5.23-0.229-7.832 0.401 0.216 0.775 0.498 1.123 0.847 0.864 0.872 1.311 1.91 1.348 3.124 0.035 1.184-0.338 2.177-1.126 2.985-0.301 0.3-0.673 0.592-1.116 0.876m-4.127 19.25c-0.045 0.902-0.093 1.801-0.146 2.699 1.28-0.073 2.54-0.147 3.78-0.225 0.054-0.886 0.105-1.775 0.151-2.665 1.623-0.421 3.049-1.275 4.287-2.551 1.344-1.386 2.228-3.322 2.644-5.827-1.33-0.471-2.694-0.953-4.086-1.443-0.264 2.224-0.77 3.697-1.489 4.423-0.36 0.363-0.746 0.659-1.159 0.888 0.113-3.167 0.172-6.348 0.179-9.529 1.559-0.664 2.941-1.624 4.155-2.867 1.597-1.634 2.343-3.577 2.272-5.875-0.074-2.297-0.949-4.3-2.659-6.058-1.233-1.266-2.65-2.12-4.261-2.55-0.053-0.879-0.109-1.757-0.169-2.632-1.239-0.086-2.498-0.17-3.775-0.251 0.059 0.886 0.113 1.774 0.163 2.665-1.636 0.246-3.082 0.965-4.332 2.175-1.362 1.312-2.211 3.29-2.553 5.928 1.569 0.576 3.115 1.146 4.636 1.712 0.19-2.282 0.625-3.762 1.329-4.449 0.354-0.343 0.734-0.615 1.143-0.815 0.131 3.199 0.212 6.417 0.241 9.638-1.599 0.655-3.082 1.634-4.439 2.945-1.792 1.722-2.725 3.827-2.768 6.273-0.049 2.447 0.805 4.519 2.524 6.177 1.26 1.221 2.706 1.954 4.332 2.214" style="fill:#fff"/></g><g transform="translate(446.1 165.3)"><path d="m0 0c-5.508 10.84-12.22 23.03-19.45 35.57 7.249 12.54 13.99 24.78 19.53 35.69 13.15-0.926 25.2-2.259 35.12-3.943 6.426-11.1 11.54-21.95 15.17-31.63-3.666-9.713-8.824-20.58-15.28-31.65-9.914-1.721-21.95-3.084-35.08-4.029z" style="fill:none;stroke-miterlimit:10;stroke:#fff"/></g><g transform="translate(417.9 231.9)"><path d="m0 0c-0.02 0.065-0.049 0.126-0.072 0.189-0.201 6.873-0.47 13.51-0.804 19.74-0.045 0.852-0.091 1.697-0.14 2.534-0.037 0.646-0.075 1.287-0.113 1.923-6.902-0.944-13.99-2.075-21.14-3.369-0.02-1.508-0.039-3.04-0.057-4.594-0.06-5.134-0.109-10.51-0.148-16.04-1.545 0.842-3.836 1.052-6.215 0.41-3.792-1.023-6.391-3.822-5.793-6.257 0.598-2.436 4.209-3.586 8.054-2.558 3.76 1.006 6.3 3.718 5.799 6.108 0.025 6.456 0.056 12.72 0.096 18.66 6.041 1.093 12.04 2.078 17.92 2.942 0.264-5.547 0.483-11.41 0.654-17.48-1.552 0.829-3.783 1.077-6.085 0.511-3.746-0.92-6.282-3.658-5.611-6.106 0.669-2.449 4.33-3.657 8.127-2.703 3.799 0.955 6.249 3.68 5.53 6.093" style="fill-rule:evenodd;fill:#fff"/></g><g transform="translate(378.6 204.3)"><path d="m0 0c-7.28 12.35-14.12 24.38-19.82 35.09 7.653 11.59 15.56 22.57 22.79 31.64 12.62 0.634 25.54 0.604 38.13-0.089 7.3-9.101 15.24-20.09 22.89-31.67-5.619-10.66-12.4-22.64-19.65-34.97-14.57 0.038-29.72 0.04-44.34 5e-3z" style="fill:none;stroke-miterlimit:10;stroke:#fff"/></g><g transform="translate(419.8 167.4)"><path d="m0 0c-0.209-5e-3 -0.414-0.021-0.62-0.041-1.393 4.975-6.328 8.558-12.11 8.23-1.628-0.092-3.17-0.488-4.566-1.124-1.989 4.778-6.975 8.115-12.58 7.868-7.134-0.311-12.4-6.216-11.78-12.98 0.062-0.71 0.189-1.401 0.367-2.071-3.664-0.608-6.233-3.725-5.99-7.379 0.282-4.158 3.976-7.62 8.247-7.779 3.697-0.121 7.424-0.204 11.16-0.246 2.826 3.964 5.779 8.124 8.807 12.42 1e-3 0.01 1e-3 0.02 0 0.03 1e-3 0.011 0 0.021 0 0.032 1e-3 -0.011 1e-3 -0.021 0-0.032 1e-3 -0.01 1e-3 -0.02 0-0.03 2.799-4.272 5.521-8.404 8.125-12.34 3.413 0.07 6.816 0.173 10.19 0.309 0 0 0.034-1e-3 0.067 0 4.271 0.163 7.946 3.562 8.23 7.718 0.283 4.153-3.102 7.527-7.554 7.414" style="fill:#fff"/></g><g transform="translate(405.9 151.3)"><path d="m0 0c-1.816 2.644-3.684 5.374-5.592 8.175-1.962-2.817-3.884-5.563-5.754-8.221-0.408-0.579-0.814-1.154-1.217-1.724 1.179-0.015 2.359-0.026 3.54-0.033 0.03-3.15 0.062-6.189 0.098-9.096 1.659-0.01 3.318-0.013 4.977-4e-3 0.026 2.907 0.051 5.947 0.074 9.096 1.696 8e-3 3.394 0.024 5.088 0.048-0.402 0.582-0.807 1.168-1.214 1.759" style="fill:#fff"/></g><g transform="translate(381.4 130.2)"><path d="m0 0c-7.232 8.975-15.17 20-22.86 31.71 5.604 10.79 12.39 22.98 19.65 35.55 14.61-0.047 29.76-0.046 44.34 3e-3 7.243-12.55 14-24.72 19.56-35.48-7.688-11.71-15.65-22.74-22.92-31.73-12.48-0.681-25.27-0.696-37.76-0.046z" style="fill:none;stroke-miterlimit:10;stroke:#fff"/></g><g transform="translate(508 181.5)"><path d="m0 0c-0.011-0.035-0.024-0.075-0.037-0.118 0.104 2.799-0.055 4.429-1.17 3.603-0.311-0.242-0.668-0.677-1.04-1.268-0.214 2.942-1.319 4.802-3.37 4.18-2.588-0.754-5.669-5.801-6.157-11.13-0.052-0.552-0.073-1.081-0.067-1.584-1.919-1.044-3.869-4.051-4.391-7.1-0.604-3.472 0.871-5.618 3.102-4.754 1.913 0.735 3.64 1.498 5.161 2.287 1.793 3.719 3.299 7.362 4.516 10.87 1e-3 8e-3 2e-3 0.014 3e-3 0.022 1e-3 7e-3 2e-3 0.015 3e-3 0.022-2e-3 -8e-3 -2e-3 -0.015-3e-3 -0.022-1e-3 -8e-3 -1e-3 -0.014-3e-3 -0.022 0.424-2.538 0.713-4.903 0.901-7.115 0.779 0.793 1.355 1.604 1.712 2.429 0 0 5e-3 0.011 8e-3 0.019 0.478 1.062 0.571 3.996 0.671 6.49 0.094 2.493 0.394 3.899 0.161 3.195" style="fill:#fff"/></g><g transform="translate(488.8 143.9)"><path d="m0 0c-0.868 6.39-2.727 14.04-5.899 23.1 6.437 10.96 11.53 21.76 15.1 31.41 6.89 0.232 10.8 0.497 10.63 0.783-0.129-6.95-1.409-12.5-2.786-17.06 2.076-7.506 1.958-16.59-0.909-26.17-2.656-4.525-8.405-8.588-16.13-12.05z" style="fill:none;stroke-miterlimit:10;stroke:#fff"/></g><g transform="translate(413.3 112.5)"><path d="m0 0c0.184 0.12 0.248 0.29 0.124 0.412-0.073 0.07-0.123 0.253-0.202 0.325-1.646 1.504-5.391 3.812-12.57 3.797h-0.438c-0.146 0-0.293 0-0.439-1e-3 -7.179-2e-3 -10.95-2.317-12.62-3.825-0.08-0.072-0.146-0.197-0.219-0.269-0.126-0.121-0.059-0.313 0.123-0.432-1.561-1.643-1.654-3.141-1.315-3.823 0.799-1.689 3.499-2.074 3.463-2.019 0.306-6e-3 0.612-0.014 0.919-0.019 0.064-0.013 0.128-0.023 0.192-0.03 0.188-0.022 0.796-0.018 1.376-0.029 0.528-8e-3 0.854-0.022 0.788 3e-3 6e-3 0 0.011 2e-3 0.016 2e-3 0.055-0.011 0.042-0.015-0.057-0.014h5e-3c0.659-3e-3 0.806-0.02 0.303 0.457-0.504 0.468-1.544 1.188-2.299 1.168-0.014 0-0.024-0.01-0.039-0.011 0.122-0.05 0.217-0.115 0.263-0.176 0.021-0.029 0.042-0.056 0.063-0.083-0.173 0.224-0.87 0.427-1.544 0.415-0.675-0.012-1.057-0.229-0.857-0.448 0.116-0.13 0.233-0.25 0.348-0.361-0.106 0.042-1.666 0.545-1.748 1.537-0.058 0.874 0.388 1.919 1.409 2.877 0.224-0.059 0.468-0.039 0.592 0.066 0.098 0.082 0.221 0.06 0.327 0.139 1.382 1.037 4.478 2.326 10.51 2.32h0.424c0.141-1e-3 0.283 0 0.424 1e-3 6.032 0.02 9.111-1.261 10.48-2.295 0.105-0.079 0.217-0.108 0.314-0.19 0.122-0.104 0.37-0.097 0.595-0.038 1.006-0.953 1.439-1.987 1.363-2.861-0.103-0.992-1.677-1.495-1.784-1.538 0.124 0.112 0.25 0.233 0.376 0.364 0.205 0.221-0.12 0.441-0.827 0.449-0.707 9e-3 -1.393-0.195-1.571-0.421-0.325-0.4-0.643-0.717-0.955-0.944 0.328 0.242 0.665 0.586 1.007 1.025 0.048 0.062 0.141 0.12 0.263 0.172-0.013 0-0.029 2e-3 -0.043 2e-3 -0.752 0.019-1.804-0.685-2.329-1.157-0.526-0.479-0.399-0.465 0.261-0.46h5e-3c-0.099-2e-3 -0.106 4e-3 -0.05 0.015l0.231 0.012c-0.168-0.038 0.156-0.027 0.913-0.013h3e-3c-0.014 1e-3 1.004 7e-3 1.202 0.029 8e-3 7e-3 0.017 0.016 0.024 0.028 0.307 7e-3 0.613 0.013 0.919 0.02-0.036-0.053 2.703 0.338 3.536 2.028 0.356 0.685 0.282 2.161-1.255 3.794" style="fill:#fff"/></g><g transform="translate(389.7 108.9)"><path d="m0 0c-5.005-3.345-11.62-2.466-19.17 1.714 2.235 3.205 6.014 8.931 11.13 16.85 12.27-0.652 24.82-0.636 37.09 0.046 5.061-7.905 8.779-13.62 10.96-16.83-7.603-4.209-14.29-5.118-19.37-1.79-6.936 0.155-13.7 0.159-20.63 9e-3z" style="fill:none;stroke-miterlimit:10;stroke:#fff"/></g><g transform="translate(348 145.9)"><path d="m0 0c-6.384 0.848-12.46 1.86-18.11 3.028-2.01 0.414-3.012-0.757-2.449-2.785 1.277-4.593 2.728-8.93 4.345-12.92 0.717-1.766 2.707-3.59 4.62-4.056 5.428-1.319 11.15-2.446 17.07-3.383 1.664-1.722 3.324-3.356 4.97-4.888-0.527 2.104-0.99 4.425-1.39 6.934-0.019 0.122-9e-3 0.369-0.047 0.499-1.18 4.001-2.25 8.453-3.195 13.25-0.412 2.122-3.534 4.023-5.809 4.323" style="fill-rule:evenodd;fill:#fff"/></g><g transform="translate(338.5 116.6)"><path d="m0 0c-9.049 6.227-17.74 15.22-24.93 25 0.937 6.394 2.912 14.1 6.214 23.22 9.999-1.907 22.03-3.407 35.09-4.441 7.707-11.61 15.73-22.52 23.08-31.35-4.973-8.067-8.595-14-10.69-17.5-9.874 1.096-19.6 2.736-28.77 5.066z" style="fill:none;stroke-miterlimit:10;stroke:#fff"/></g><g transform="translate(319.7 237.2)"><path d="m0 0c-3.343 9.192-5.356 16.97-6.328 23.45 7.145 9.85 15.8 18.96 24.83 25.37 9.195 2.372 18.96 4.051 28.9 5.175 2.141-3.678 5.808-9.769 10.82-17.97-7.37-8.97-15.39-19.98-23.08-31.65-13.08-1.017-25.13-2.491-35.13-4.365z" style="fill:none;stroke-miterlimit:10;stroke:#fff"/></g><g transform="translate(347.1 274.7)"><path d="m0 0c0.945 2.551 1.947 4.92 3.002 7.076-4.546-0.835-8.974-1.797-13.24-2.888-4.351-7.895-7.847-18.08-10.38-29.41 7.486 1.554 15.84 2.843 24.72 3.847 1.393 8.601 3.151 16.39 5.226 22.9-3.165-0.455-6.279-0.961-9.328-1.521" style="fill:#fff"/></g><g transform="translate(348.8 281.3)"><path d="m0 0c1.852-1.631 3.941-3.489 6.281-5.59" style="fill:none;stroke-linecap:round;stroke-miterlimit:10;stroke:#fff"/></g><g transform="translate(294.2 237.2)"><path d="m0 0c-0.559-0.663-1.005-1.338-1.329-2.022-0.913-6.974-1.399-13.88-1.666-20.72 0.075 0.295 0.289 0.586 0.632 0.873 0.405 7.275 1.136 14.58 2.363 21.87" style="fill:#fff"/></g><g transform="translate(296 234.5)"><path d="m0 0c-0.799-0.561-1.49-1.133-2.064-1.715-0.838-5.697-1.396-11.41-1.739-17.12 0.429 0.284 0.986 0.564 1.663 0.839 0.431 6.031 1.126 12.05 2.14 18" style="fill:#fff"/></g><g transform="translate(299.2 233.8)"><path d="m0 0c-1.06-0.494-2.018-1-2.867-1.516-0.823-5.145-1.414-10.34-1.801-15.56 0.757 0.271 1.632 0.539 2.618 0.799 0.445 5.479 1.122 10.92 2.05 16.28" style="fill:#fff"/></g><g transform="translate(291.1 213.7)"><path d="M 0,0 C 0.35,1.387 4.143,2.69 10.478,3.844 4.143,2.691 0.35,1.387 0,0" style="fill:#fff"/></g><g transform="translate(410.4 293.4)"><path d="m0 0c-2.702-1.247-8.091-1.148-11.14 0.18-3.076 1.336-2.626 2.641 0.066 2.841 2.712 0.188 6.628 0.174 9.717-0.098 3.068-0.284 4.087-1.672 1.357-2.923m-0.028 3.027c-4.122 0.094-8.98 0.087-12.59 0.109-3.121-0.05-4.229-1.305-1.71-3.05-1.076-0.441-2.189-0.932-3.333-1.471 0.115-0.056 0.231-0.114 0.346-0.172-3.43-1.639-7.157-3.714-11.11-6.19 0.743-0.51 1.505-1.04 2.286-1.593 3.954 2.599 7.678 4.811 11.11 6.602 0.122-0.065 0.245-0.132 0.367-0.198 1.144 0.605 2.255 1.164 3.332 1.676 4.185-1.376 10.28-1.202 13.42 0.382 3.642 1.859 1.978 3.78-2.106 3.905" style="fill:#fff"/></g><g transform="translate(381.1 274.8)"><path d="m0 0c-5.099 8.205-8.836 14.17-11 17.54 7.636 4.375 14.34 5.362 19.41 1.967 6.905-0.155 13.64-0.157 20.54-3e-3 5.045 3.398 11.73 2.421 19.35-1.945-2.18-3.369-5.935-9.339-11.05-17.55-12.32 0.665-24.93 0.66-37.24-0.013z" style="fill:none;stroke-miterlimit:10;stroke:#fff"/></g><g transform="translate(317.1 123.1)"><path d="m0 0c1.785-2.232 1.271-2.968-1.17-1.814-2.449 1.156-5.729 4.001-7.294 6.435-1.565 2.423-1.082 3.347 1.143 1.996 2.23-1.349 5.537-4.381 7.321-6.617" style="fill:#fff"/></g><g transform="translate(318 119.2)"><path d="m0 0c-3.972 1.688-9.192 6.149-11.51 10.1-2.315 3.917-1.62 5.412 1.786 3.233 3.431-2.168 8.716-7.093 11.58-10.56 2.865-3.446 2.084-4.461-1.86-2.775m-10.85 15.32c-4.143 2.746-4.919 0.877-2.185-4.081 2.735-5.024 9.296-10.58 14.34-12.56 4.986-1.974 5.914-0.862 2.308 3.369-3.607 4.267-10.27 10.54-14.46 13.27" style="fill:#fff"/></g><g transform="translate(312.6 130.7)"><path d="m0 0c0.077-0.04 0.155-0.08 0.233-0.121 0.727-0.375 1.468-0.743 2.225-1.104 0.08-0.039 0.162-0.077 0.243-0.116-0.921 0.437-1.823 0.884-2.701 1.341m7.604-3.491c-1.058 0.429-2.093 0.871-3.107 1.324 0.083-0.038 0.168-0.075 0.251-0.112 0.095-0.042 0.19-0.084 0.286-0.126-0.117 0.192-0.234 0.385-0.349 0.579-0.026 0.044-0.053 0.087-0.078 0.131-6e-3 0.01-0.011 0.019-0.017 0.028-0.942 0.418-1.864 0.844-2.765 1.281-0.497 0.241-0.986 0.485-1.47 0.731-0.935 0.476-1.845 0.965-2.728 1.464 3.758-2.672 8.925-7.882 11.92-11.4 2.13-2.544 2.796-3.94 1.761-4.169 2.309-0.848 4.682-1.625 7.098-2.336 0.321-0.095 0.637-0.259 0.401-0.074-1e-3 1e-3 -1e-3 1e-3 -2e-3 1e-3 -0.053 0.042-0.106 0.085-0.16 0.127-0.194 0.155-0.388 0.312-0.579 0.472l-0.15 0.126c-2.178 1.835-4.228 4.012-6.143 6.463-0.133-0.052-0.264-0.103-0.393-0.154 0.13 0.05 0.26 0.103 0.391 0.155-0.219 0.28-0.436 0.564-0.652 0.852-0.049 0.068-0.1 0.133-0.15 0.201-0.81 1.091-1.596 2.231-2.357 3.416-0.076 0.119-0.152 0.239-0.229 0.36-0.187 0.296-0.459 0.533-0.778 0.663" style="fill:#fff"/></g><g transform="translate(320.4 281.2)"><path d="m0 0c-0.893 1.227-1.576 2.269-2.112 3.194-4.949-3.356-9.452-7.397-13.21-11.82-2.232-3.833-4.106-7.94-5.673-12.18 1.221 1.247 2.611 2.45 4.15 3.606 1.19 2.71 2.501 5.336 3.944 7.839 1.296 0.862 2.663 1.693 4.092 2.492-1.545-2.454-2.965-5.056-4.267-7.766 1.754 1.085 3.639 2.122 5.64 3.113 2.201 4.241 4.687 8.139 7.459 11.53-9e-3 -4e-3 -0.018-7e-3 -0.026-0.011" style="fill:#fff"/></g><g transform="translate(322.9 282.7)"><path d="m0 0c-0.348 0.455-0.664 0.882-0.951 1.286 1.553 1.616 3.188 3.08 4.9 4.359-0.8-0.26-1.595-0.529-2.383-0.806-1.064-0.84-2.096-1.748-3.095-2.718-0.372 0.556-0.688 1.066-0.956 1.541-6.233-3.754-11.86-8.637-16.31-14.09-0.384-0.673-0.756-1.355-1.117-2.044 4.235 5.562 9.671 10.63 15.76 14.65 0.637-1.105 1.49-2.379 2.679-3.95 0.01 4e-3 0.021 8e-3 0.032 0.013 0.48 0.605 0.969 1.195 1.466 1.767-0.011-4e-3 -0.021-8e-3 -0.032-0.012" style="fill:#fff"/></g></g><g transform="matrix(.3528 0 0 -.3528 8.945 238.5)" style="fill:none"><path d="m480.6 200.3c0-50.39-40.85-91.24-91.24-91.24-50.39 0-91.24 40.85-91.24 91.24s40.85 91.24 91.24 91.24c50.39 0 91.24-40.85 91.24-91.24" style="fill:none;opacity:.97"/></g><path d="m111.1 166.7c0.037-2.423 0.4844-4.363 0.9828-5.949-0.7412-2.582-0.7306-5.713 0.2233-9.043 0.8925-1.57 2.894-2.985 5.612-4.193 0.3531 2.252 1.052 4.939 2.206 8.102-2.24 3.815-4.014 7.551-5.262 10.88-2.435 0.06-3.82 0.1277-3.762 0.199z" style="fill:none;stroke-miterlimit:10;stroke-width:.3528;stroke:#fff"/><g transform="matrix(.3528 0 0 -.3528 8.945 238.5)" clip-path="url(#clipPath2137)" style="fill:none;stroke:#002142"><g transform="translate(215.2 135.6)" style="fill:none;stroke:#002142"><path d="m0 0c0 5.241 4.264 9.505 9.505 9.505s9.505-4.264 9.505-9.505-4.264-9.505-9.505-9.505-9.505 4.264-9.505 9.505m-7.203 2.673v-5.346h3.914c0.101-0.48 0.229-0.949 0.38-1.407l-3.392-1.959 2.673-4.63 3.398 1.961c0.323-0.361 0.666-0.704 1.027-1.027l-1.961-3.398 4.63-2.673 1.959 3.392c0.459-0.151 0.927-0.28 1.407-0.38v-3.914h5.346v3.914c0.48 0.1 0.949 0.229 1.407 0.38l1.959-3.392 4.63 2.673-1.961 3.398c0.361 0.323 0.704 0.666 1.028 1.027l3.397-1.961 2.674 4.63-3.393 1.959c0.151 0.458 0.28 0.927 0.38 1.407h3.914v5.346h-3.914c-0.1 0.48-0.229 0.949-0.38 1.407l3.393 1.959-2.674 4.63-3.397-1.961c-0.324 0.361-0.667 0.704-1.028 1.028l1.961 3.397-4.63 2.673-1.959-3.392c-0.458 0.151-0.927 0.28-1.407 0.38v3.914h-5.346v-3.914c-0.48-0.1-0.948-0.229-1.407-0.38l-1.959 3.392-4.63-2.673 1.961-3.397c-0.361-0.324-0.704-0.667-1.027-1.028l-3.398 1.961-2.673-4.63 3.392-1.959c-0.151-0.458-0.279-0.927-0.38-1.407z" style="fill:none;stroke:#002142"/></g><g transform="translate(206.9 105.5)" style="fill:none;stroke:#002142"><path d="m0 0-17.75 30.5 17.75 30.5h35.49l17.75-30.5-17.75-30.5z" style="fill:none;stroke-miterlimit:10;stroke:#002142"/></g><g transform="translate(224.7 276.7)" style="fill:none;stroke:#002142"><path d="m0 0v-2.371c4.536 0 8.227-3.691 8.227-8.227s-3.691-8.227-8.227-8.227-8.227 3.691-8.227 8.227h-2.371c0-5.844 4.754-10.6 10.6-10.6s10.6 4.754 10.6 10.6c0 5.844-4.754 10.6-10.6 10.6" style="fill:none;stroke:#002142"/></g><g transform="translate(234.8 275)" style="fill:none;stroke:#002142"><path d="m0 0-1.784-1.561c4.047-4.624 3.577-11.68-1.047-15.72-4.623-4.046-11.68-3.577-15.72 1.047-4.046 4.623-3.577 11.68 1.047 15.72l-1.562 1.784c-5.607-4.908-6.176-13.46-1.269-19.07 4.908-5.607 13.46-6.176 19.07-1.269 5.607 4.908 6.177 13.46 1.269 19.07" style="fill:none;stroke:#002142"/></g><g transform="translate(238.6 274.7)" style="fill:none;stroke:#002142"><path d="m0 0-2.022-1.239c4.027-6.572 1.956-15.19-4.616-19.22s-15.19-1.956-19.22 4.616-1.956 15.2 4.616 19.22l-1.238 2.021h-1e-3c-7.686-4.709-10.11-14.8-5.399-22.48 4.71-7.687 14.8-10.11 22.48-5.4 7.686 4.71 10.11 14.8 5.399 22.48" style="fill:none;stroke:#002142"/></g><g transform="translate(206.9 233.5)" style="fill:none;stroke:#002142"><path d="m0 0-17.75 30.5 17.75 30.5h35.49l17.75-30.5-17.75-30.5z" style="fill:none;stroke-miterlimit:10;stroke:#002142"/></g><g transform="translate(286.2 225.8)" style="fill:none;stroke:#002142"><path d="m0 0c0-3.082-2.499-5.581-5.581-5.581s-5.581 2.499-5.581 5.581 2.499 5.581 5.581 5.581 5.581-2.499 5.581-5.581" style="fill:none;stroke:#002142"/></g><g transform="translate(280.6 233.4)" style="fill:none;stroke:#002142"><path d="m0 0c4.055 0 7.408-2.713 7.942-6.845 0.086-0.665 0.635-1.172 1.306-1.172h0.319c0.779 0 1.41 0.676 1.316 1.45-0.681 5.613-5.294 9.521-10.88 9.521s-10.2-3.908-10.88-9.521c-0.094-0.774 0.537-1.45 1.316-1.45h0.319c0.67 0 1.22 0.507 1.306 1.172 0.534 4.132 3.886 6.845 7.942 6.845" style="fill:none;stroke:#002142"/></g><g transform="translate(280.6 238.3)" style="fill:none;stroke:#002142"><path d="m0 0c6.724 0 12.25-5.1 12.85-11.7 0.062-0.682 0.624-1.208 1.309-1.208 0.774 0 1.39 0.665 1.322 1.435-0.711 8.063-7.372 14.11-15.48 14.11s-14.77-6.049-15.48-14.11c-0.068-0.77 0.548-1.435 1.322-1.435 0.684 0 1.247 0.526 1.309 1.208 0.606 6.6 6.129 11.7 12.85 11.7" style="fill:none;stroke:#002142"/></g><g transform="translate(262.8 202.5)" style="fill:none;stroke:#002142"><path d="m-0.4013 0.6784-17.35 29.32 17.35 29.32h34.69l14.13-23.96-14-34.81z" style="fill:none;stroke-miterlimit:10;stroke:#002142"/></g><g transform="translate(101.4 194.6)" style="fill:none;stroke:#002142"><path d="m0 0c-0.727 2.598 0.363 6.754 2.39 8.625 2.026 1.87 5.559 2.961 5.559 2.961v-5.793l12.99 8.651-13.25 8.157v-4.728s-6.338-1.299-9.352-6.572c-3.013-5.274 1.663-11.3 1.663-11.3" style="fill:none;stroke:#002142"/></g><g transform="translate(121.3 204.5)" style="fill:none;stroke:#002142"><path d="m0 0c0.727-2.598-0.364-6.754-2.39-8.625-2.026-1.87-5.559-2.961-5.559-2.961v5.793l-12.99-8.651 13.25-8.157v4.728s6.339 1.299 9.353 6.573c3.013 5.273-1.663 11.3-1.663 11.3" style="fill:none;stroke:#002142"/></g><g transform="translate(93.66 169.5)" style="fill:none;stroke:#002142"><path d="m0 0-17.75 30 17.75 30h35.49l17.75-30-17.75-30z" style="fill:none;stroke-miterlimit:10;stroke:#002142"/></g><g transform="translate(49.61 178.6)" style="fill:none;stroke:#002142"><path d="m0 0c0-0.716 0.143-1.398 0.401-2.02h-3.912c-1.989 0-3.602-1.612-3.602-3.601v-17.58c0-1.988 1.613-3.601 3.602-3.601h17.58c1.989 0 3.601 1.613 3.601 3.601v3.913c-0.622-0.258-1.304-0.401-2.02-0.401-2.914 0-5.276 2.362-5.276 5.276s2.362 5.277 5.276 5.277c0.716 0 1.398-0.144 2.02-0.402v7.511h-3.462c-0.046 1e-3 -0.092 3e-3 -0.139 3e-3h-3.912c0.258 0.622 0.401 1.304 0.401 2.02 0 2.914-2.362 5.276-5.276 5.276-2.915 0-5.277-2.362-5.277-5.276" style="fill:none;stroke:#002142"/></g><g transform="translate(37.14 137.5)" style="fill:none;stroke:#002142"><path d="m0 0-17.75 30 17.75 30h35.49l17.75-30-17.75-30z" style="fill:none;stroke-miterlimit:10;stroke:#002142"/></g><g transform="translate(222.9 202.7)" style="fill:none;stroke:#002142"><path d="m0 0v6.935c-0.393-0.176-0.766-0.42-1.119-0.732-0.826-0.732-1.24-1.64-1.24-2.725 0-1.058 0.406-1.953 1.22-2.685 0.312-0.271 0.692-0.535 1.139-0.793m3.742-5.918v-6.935c0.394 0.176 0.759 0.413 1.099 0.711 0.84 0.746 1.261 1.661 1.261 2.746 0 1.057-0.408 1.953-1.221 2.684-0.312 0.272-0.691 0.537-1.139 0.794m-3.742 16.86v2.379h3.742v-2.379c1.614-0.298 3.037-0.997 4.271-2.095 1.342-1.193 2.203-2.922 2.583-5.186l-4.311-1.383c-0.231 1.979-0.699 3.281-1.404 3.905-0.352 0.312-0.732 0.562-1.139 0.752v-8.42c1.56-0.583 2.977-1.436 4.251-2.562 1.681-1.478 2.522-3.261 2.522-5.349s-0.847-3.884-2.543-5.389c-1.22-1.085-2.63-1.776-4.23-2.075v-2.359h-3.742v2.359c-1.613 0.299-3.037 0.996-4.271 2.095-1.342 1.193-2.203 2.922-2.582 5.186l4.311 1.383c0.23-1.98 0.698-3.281 1.403-3.905 0.353-0.312 0.732-0.563 1.139-0.752v8.419c-1.559 0.583-2.976 1.438-4.25 2.563-1.681 1.478-2.522 3.261-2.522 5.349s0.841 3.878 2.522 5.369c1.234 1.098 2.65 1.797 4.25 2.095" style="fill:none;stroke:#002142"/></g><g transform="translate(207 169.5)" style="fill:none;stroke:#002142"><path d="m0 0-17.75 30 17.75 30h35.49l17.75-30-17.75-30z" style="fill:none;stroke-miterlimit:10;stroke:#002142"/></g><g transform="translate(182.6 225.5)" style="fill:none;stroke:#002142"><path d="m0 0c-0.014 0.054-0.037 0.105-0.055 0.158v21.52l-18.31-3.443v-18.06c-1.263 0.71-3.142 0.901-5.08 0.389-3.093-0.818-5.168-3.117-4.635-5.134 0.534-2.018 3.474-2.99 6.567-2.172 3.025 0.8 5.07 3.015 4.659 5v16.06l15.29 2.886v-15.37c-1.263 0.675-3.102 0.85-5.001 0.348-3.093-0.818-5.168-3.117-4.635-5.134 0.534-2.018 3.474-2.99 6.567-2.172s5.168 3.117 4.635 5.134" style="fill:none;stroke:#002142"/></g><g transform="translate(150.8 202.5)" style="fill:none;stroke:#002142"><path d="m0 0-17.75 30 17.75 30h35.49l17.75-30-17.75-30z" style="fill:none;stroke-miterlimit:10;stroke:#002142"/></g><g transform="translate(184.2 172.9)" style="fill:none;stroke:#002142"><path d="m0 0c-0.174 0-0.345-9e-3 -0.515-0.022-1.316 4.276-5.4 7.283-10.07 7.048-1.319-0.066-2.563-0.387-3.692-0.909-1.632 3.948-5.614 6.634-10.12 6.407-5.73-0.288-10.14-5.167-9.853-10.9 0.03-0.601 0.114-1.186 0.241-1.754-3.072-0.605-5.389-3.371-5.389-6.619 0-3.693 2.994-6.747 6.687-6.747l9.292 0.035 7.2 11.04v0.054-0.054l7.201-10.99 8.86 0.033s0.096-2e-3 0.124-2e-3c3.693 0 6.707 2.993 6.707 6.686s-2.974 6.687-6.667 6.687" style="fill:none;stroke:#002142"/></g><g transform="translate(172.9 158.8)" style="fill:none;stroke:#002142"><path d="m0 0-4.771 7.439-4.891-7.509-1.067-1.72h2.809v-8h6v8h2.99z" style="fill:none;stroke:#002142"/></g><g transform="translate(150.4 137.5)" style="fill:none;stroke:#002142"><path d="m0 0-17.75 30 17.75 30h35.49l17.75-30-17.75-30z" style="fill:none;stroke-miterlimit:10;stroke:#002142"/></g><g transform="translate(296.7 172.9)" style="fill:none;stroke:#002142"><path d="m-1.5 0c-0.173 0-0.345-9e-3 -0.515-0.022-1.316 4.276-5.4 7.283-10.07 7.048-1.319-0.066-2.563-0.387-3.692-0.909-1.632 3.948-5.614 6.634-10.12 6.407-5.73-0.288-10.14-5.167-9.853-10.9 0.03-0.601 0.114-1.186 0.241-1.754-3.072-0.605-5.389-3.371-5.389-6.619 0-3.693 2.994-6.747 6.687-6.747l10.04 0.035 7.953 11.04v0.054-0.054l6.448-10.99 8.484 0.033s-0.093-2e-3 -0.065-2e-3c3.693 0 6.613 2.993 6.613 6.686s-3.068 6.687-6.761 6.687" style="fill:none;stroke:#002142"/></g><g transform="translate(286.4 159.8)" style="fill:none;stroke:#002142"><path d="m0 0-4.772 7.439-4.89-7.509-1.067-1.72h3.315v-8h5v8h3.484z" style="fill:none;stroke:#002142"/></g><g transform="translate(262.9 137.5)" style="fill:none;stroke:#002142"><path d="m-0.2676 0-17.48 30 17.48 30h34.96l17.48-30-17.48-30z" style="fill:none;stroke-miterlimit:10;stroke:#002142"/></g><g transform="translate(182.8 110.9)" style="fill:none;stroke:#002142"><path d="m0 0c0.176 0.238 0.203 0.594 0.032 0.857-0.1 0.154-0.203 0.121-0.308 0.273-2.263 3.26-6.518 6.96-13.93 6.96h-0.913c-7.416 0-11.67-3.694-13.93-6.953-0.106-0.152-0.208-0.209-0.308-0.363-0.171-0.262-0.145-0.557 0.032-0.795-2.169-3.579-3.005-7.769-3.005-10.26 0-5.451 2.512-11.63 2.512-11.63h1.275l0.131-0.883c0.111-0.944 0.894-1.496 1.741-1.373 0.772 0.112 1.335 0.908 1.345 1.756l0.032-0.345c0.038-0.322-0.028-0.155-0.168-1.155h7e-3c0.941 0 1.428 3.161 1.087 6.431-0.34 3.271-1.379 5.967-2.32 5.846-0.019-3e-3 -0.036 0.064-0.054 0.06 0.129-0.188 0.219-0.378 0.248-0.629l0.039-0.317c-0.11 0.944-0.893 1.625-1.74 1.502s-1.449-0.993-1.339-1.937l0.195-1.666c-0.122 0.189-1.696 2.69-1.301 5.874 0.352 2.834 1.243 5.516 2.636 7.732 0.241-0.113 0.524-0.046 0.688 0.194 0.13 0.19 0.264 0.442 0.402 0.623 1.817 2.382 5.339 5.287 11.8 5.287h0.913c6.46 0 9.981-2.905 11.8-5.286 0.138-0.182 0.272-0.4 0.402-0.591 0.165-0.24 0.448-0.323 0.688-0.21 1.394-2.216 2.285-4.905 2.637-7.74 0.395-3.184-1.179-5.688-1.302-5.877l0.356 1.667c0.11 0.944-0.178 1.819-1.178 1.942v-2e-3c-1 0.124-1.79-0.549-1.901-1.494l-0.667-5.023 0.586 5.358c0.029 0.251 0.098 0.477 0.228 0.665-0.018 4e-3 -0.046 9e-3 -0.064 0.012-0.941 0.122-1.985-2.719-2.326-5.99-0.34-3.27 0.142-6.431 1.083-6.431h7e-3c-0.14 1-0.207 0.859-0.169 1.181l0.462 0.479c-0.11-0.944 0.761-1.727 1.761-1.85v0.027c0-0.123 1.207 0.322 1.318 1.267l-0.292 0.896h1.276s2.511 6.2 2.511 11.65c0 2.493-0.835 6.68-3.004 10.26" style="fill:none;stroke:#002142"/></g><g transform="translate(150.4 72.5)" style="fill:none;stroke:#002142"><path d="m0 0-17.75 31 17.75 31h35.49l17.75-31-17.75-31z" style="fill:none;stroke-miterlimit:10;stroke:#002142"/></g><g transform="translate(120.6 150)" style="fill:none;stroke:#002142"><path d="m0 0h-18.78c-2.23 0-3.816-0.902-3.816-3.132v-15.14c0-2.23 1.586-4.732 3.816-4.732h18.94l3.544-5.972 1.372 9.919c0.02 0.159 0.332 0.62 0.332 0.785v15.14c0 2.23-3.175 3.132-5.404 3.132" style="fill:none;stroke:#002142"/></g><g transform="translate(93.77 105.5)" style="fill:none;stroke:#002142"><path d="m0 0-17.75 30.5 17.75 30.5h35.49l17.75-30.5-17.75-30.5z" style="fill:none;stroke-miterlimit:10;stroke:#002142"/></g><g transform="translate(93.77 233.5)" style="fill:none;stroke:#002142"><path d="m0 0-17.75 30.5 17.75 30.5h35.49l17.75-30.5-17.75-30.5z" style="fill:none;stroke-miterlimit:10;stroke:#002142"/></g><g transform="translate(113,272)" style="fill:none;stroke:#002142"><path d="m0 0v10h-13v-35h24v25z" style="fill:none;stroke:#002142"/></g><g transform="translate(113.2 281.4)" style="fill:none;stroke:#002142"><path d="m0 0 9.949-9.949" style="fill:none;stroke-linecap:round;stroke-miterlimit:10;stroke:#002142"/></g><path d="m45 248h-6v-29h6z" style="fill:none;stroke:#002142"/><path d="m54 241h-6v-22h6z" style="fill:none;stroke:#002142"/><path d="m63 238h-7v-19h7z" style="fill:none;stroke:#002142"/><path d="m65 219h6v17h-6z" style="fill:none;stroke:#002142"/><path d="m39 217h32v1h-32z" style="fill:none;stroke:#002142"/><g transform="translate(37.14 202.5)" style="fill:none;stroke:#002142"><path d="m0 0-17.75 30 17.75 30h35.49l17.75-30-17.75-30z" style="fill:none;stroke-miterlimit:10;stroke:#002142"/></g><g transform="translate(180.4 297.3)" style="fill:none;stroke:#002142"><path d="m0 0c-3.656-3.655-9.582-3.656-13.24 0-3.655 3.655-3.655 9.582 0 13.24 3.656 3.656 9.582 3.656 13.24 0 3.655-3.655 3.655-9.582 0-13.24m2.176 15.41c-4.857 4.858-12.73 4.858-17.59 0-4.246-4.245-4.78-10.79-1.605-15.62l-3.68-3.68 0.426-0.426-11.03-11.03 2.72-2.719 11.03 11.03 0.427-0.427 3.68 3.681c4.826-3.175 11.38-2.641 15.62 1.604 4.857 4.857 4.857 12.73 0 17.59" style="fill:none;stroke:#002142"/></g><g transform="translate(149.9 266.5)" style="fill:none;stroke:#002142"><path d="m0 0-17.75 31 17.75 31h35.49l17.75-31-17.75-31z" style="fill:none;stroke-miterlimit:10;stroke:#002142"/></g><g transform="translate(37.79 71.5)" style="fill:none;stroke:#002142"><path d="m0 0-17.75 31 17.75 31h35.49l17.75-31-17.75-31z" style="fill:none;stroke-miterlimit:10;stroke:#002142"/></g><g transform="translate(62.53 102.7)" style="fill:none;stroke:#002142"><path d="m0 0c0-3.875-3.141-7.016-7.016-7.016s-7.016 3.141-7.016 7.016 3.141 7.016 7.016 7.016 7.016-3.141 7.016-7.016" style="fill:none;stroke:#002142"/></g><g transform="translate(55.65 91.83)" style="fill:none;stroke:#002142"><path d="m0 0c-6.137 0-11.11 4.975-11.11 11.11 0 6.137 4.974 11.11 11.11 11.11s11.11-4.975 11.11-11.11c0-6.136-4.974-11.11-11.11-11.11m-0.201 25.02c-7.678 0-13.9-6.225-13.9-13.9 0-7.678 6.225-13.9 13.9-13.9 7.679 0 13.9 6.225 13.9 13.9 0 7.679-6.225 13.9-13.9 13.9" style="fill:none;stroke:#002142"/></g><g transform="translate(63.85 115)" style="fill:none;stroke:#002142"><path d="m0 0 0.373 1h3.472l0.372-1zm11.43 0h-4.512l0.373 1h0.857v1h-11.34c5.634-2 9.652-7.904 9.652-14.28 0-4.554-2.053-8.723-5.279-11.72h10.25c0.453 0 0.718 0.991 0.718 1.444v14.43l-1.027-0.74 1.027 0.742v7.829c0 0.454-0.265 0.296-0.718 0.296" style="fill:none;stroke:#002142"/></g><g transform="translate(40.59 102.5)" style="fill:none;stroke:#002142"><path d="m0 0c0 5.164 2.637 9.511 6.635 12.51h-11.12c-0.454 0-0.106 0.158-0.106-0.295v-7.301l1.349-1.271-1.349 1.268v-14.96c0-0.454-0.348-1.445 0.106-1.445h9.767c-3.226 3-5.28 6.935-5.28 11.49" style="fill:none;stroke:#002142"/></g><g transform="translate(37.14 266.5)" style="fill:none;stroke:#002142"><path d="m0 0-17.75 31 17.75 31h35.49l17.75-31-17.75-31z" style="fill:none;stroke-miterlimit:10;stroke:#002142"/></g><g transform="translate(67.66 298.3)" style="fill:none;stroke:#002142"><path d="m0 0-12.89 12.89-12.89-12.89v-17.85h9.344v11.36h7.125v-11.36h9.343v17.85z" style="fill:none;stroke:#002142"/></g><g transform="translate(70.51 299.6)" style="fill:none;stroke:#002142"><path d="m0 0-4.897 4.897v9.394h-3.521v-5.873l-7.325 7.325-15.74-15.74v-3.137l15.74 15.74 15.74-15.74h0.047v3.137z" style="fill:none;stroke:#002142"/></g><g transform="translate(280.6 242.7)" style="fill:none;stroke:#002142"><path d="m0 0c9.146 0 16.63-7.086 17.26-16.08 0.048-0.689 0.621-1.222 1.311-1.222h0.494c0.766 0 1.369 0.653 1.322 1.418-0.692 11.2-9.555 19.01-20.39 19.01s-19.7-7.807-20.39-19.01c-0.047-0.765 0.556-1.418 1.322-1.418h0.494c0.69 0 1.263 0.533 1.311 1.222 0.626 8.995 8.114 16.08 17.26 16.08" style="fill:none;stroke:#002142"/></g></g></g></svg>
