<svg xmlns="http://www.w3.org/2000/svg" viewBox="0 0 225.48 226"><defs><style>.cls-1{fill:#fc0;}.cls-2{opacity:0.33;}.cls-3,.cls-4{fill:#fff;}.cls-4{font-size:52.57px;font-family:TrebuchetMS-Bold, Trebuchet MS;font-weight:700;}</style></defs><title>Asset 188</title><g id="Layer_2" data-name="Layer 2"><g id="ENTER"><rect class="cls-1" width="225.48" height="226" rx="23.53"/><g class="cls-2"><path class="cls-3" d="M196.11,140.16V140L176.38,57.05a2.87,2.87,0,0,0-2.78-2.19H137.67v-31A2.86,2.86,0,0,0,134.82,21H93.74a2.85,2.85,0,0,0-2.85,2.85v31H56.7a2.85,2.85,0,0,0-2.77,2.19L34.16,140h0a2.09,2.09,0,0,0,0,.5h0v46.66A2.85,2.85,0,0,0,37,190H193.32a2.86,2.86,0,0,0,2.85-2.85V140.66h0A4,4,0,0,0,196.11,140.16ZM96.59,26.7H132v54a2.84,2.84,0,0,0,2.85,2.85h14.64L114.27,128.2,79,83.56H93.68a2.85,2.85,0,0,0,2.85-2.85ZM58.9,60.56h32V77.87H73.22A2.85,2.85,0,0,0,71,82.39L112,134.56a2.85,2.85,0,0,0,4,.48,2.73,2.73,0,0,0,.48-.48l41.06-52.17a2.85,2.85,0,0,0-.47-4,2.9,2.9,0,0,0-1.77-.61H137.67V60.56h33.67l18.37,77.25H146.5a2.85,2.85,0,0,0-2.85,2.85v12h-57v-12a2.84,2.84,0,0,0-2.85-2.85H40.54ZM190.47,184.3H39.78V143.51H80.94v11.92a2.84,2.84,0,0,0,2.84,2.85h62.68a2.85,2.85,0,0,0,2.85-2.85V143.51h41.16Z"/><path class="cls-3" d="M145.7,168.86H84.26a2.85,2.85,0,0,0,0,5.7H145.7a2.85,2.85,0,1,0,0-5.7Z"/></g><text class="cls-4" transform="translate(39.55 100.29)">ENTER<tspan x="20.33" y="63.08">NOW</tspan></text></g></g></svg>