<svg xmlns="http://www.w3.org/2000/svg" viewBox="0 0 274 74.65"><defs><style>.cls-1{font-size:24px;font-family:TrebuchetMS-Bold, Trebuchet MS;font-weight:700;}.cls-1,.cls-3{fill:#f2504f;}.cls-2{letter-spacing:-0.05em;}</style></defs><title>Asset 46</title><g id="Layer_2" data-name="Layer 2"><g id="CONTACT"><text class="cls-1" transform="translate(96.83 38.51)"><tspan class="cls-2">F</tspan><tspan x="12.88" y="0">or the teacher</tspan></text><path class="cls-3" d="M22.08,50.89H55.91a1,1,0,0,0,.94-.94.93.93,0,0,0-.94-.94H22.08a.93.93,0,0,0-.94.94,1,1,0,0,0,.94.94Z"/><path class="cls-3" d="M22.08,56.84H55.91a.95.95,0,0,0,0-1.89H22.08a.93.93,0,0,0-.94.94,1,1,0,0,0,.94.94Z"/><path class="cls-3" d="M22.08,62.78H55.91a.94.94,0,1,0,0-1.88H22.08a.94.94,0,1,0,0,1.87Z"/><path class="cls-3" d="M22.08,68.73H55.91a.94.94,0,1,0,0-1.88H22.08a.94.94,0,0,0,0,1.88Z"/><path class="cls-3" d="M70.27,21H62.09V0H15.91V21H7.73A7.74,7.74,0,0,0,0,28.72V52.55a7.74,7.74,0,0,0,7.73,7.73h4.45a1.41,1.41,0,0,0,1.41-1.42V54.7h2.32v20H62.09v-20h2.32v4.17a1.41,1.41,0,0,0,1.41,1.41h4.45A7.74,7.74,0,0,0,78,52.55V28.72A7.74,7.74,0,0,0,70.27,21Zm-1.59,4A2.66,2.66,0,1,1,66,27.65,2.66,2.66,0,0,1,68.68,25Zm-4.4,2.66A2.67,2.67,0,1,1,61.62,25,2.67,2.67,0,0,1,64.28,27.65ZM17.79,1.88H60.21V21H17.79ZM60.21,72.77H17.79V45H60.21Zm15-38.11H2.82a1.41,1.41,0,1,1,0-2.82H75.18a1.41,1.41,0,0,1,0,2.82Z"/></g></g></svg>