<svg width="184.4mm" height="525mm" version="1.1" viewBox="0 0 184.4 525" xmlns="http://www.w3.org/2000/svg"><g transform="translate(44.28 51.69)"><path d="m6.722-9.988c1.525-0.8287 2.2-2.817 3.524-4.229 0.5288-0.5637 2.867-1.781 2.82-2.467-0.04763-0.6837-3.985-2.587-5.287-2.996-6.403-2.01-13.54-0.4822-19.74 1.234-4.101 1.136-8.206 2.091-11.81 3.525-6.954 2.768-13.62 5.574-20.51 7.376v4.151c5.25-2.1 11.54-4.727 18.22-6.593 11.05-3.084 24.04-6.275 32.78 0" style="fill:#261210"/><path d="m-0.1502 0.7617c-12.98-5.719-30.46-0.01058-44.13 2.896v5.675c13.49-3.968 36.33 1.439 44.13-8.571" style="fill:#261210"/><path d="m-44.28 21.33v0.4434c0.02287-0.01376 0.05195-0.02152 0.07317-0.03634-0.01984-0.1344-0.04754-0.2709-0.07317-0.4071" style="fill:#754531"/><path d="m-31.52 298.8c1.363-0.8806 3.976-2.318 2.996-4.229-1.975-3.853-5.237 0.4375-2.996 4.229" style="fill:#754531"/><path d="m1.611-1c1.755-1.887 2.981-4.303 4.054-6.872-3.111-2.247-7.023-3.551-11.81-3.525-13.42 0.07232-26.36 6.075-38.14 9.586v3.95c13.63-3.527 32.65-9.584 45.89-3.138" style="fill:#493735"/><path d="m129.7 114.1c2.306 1.416 3.718-1.665 4.758-3.172-2.611-0.6361-4.307 1.071-4.758 3.172" style="fill:#b0120f"/><path d="m125.1 132.2c-1.146-1.79-3.402-3.194-3.876-5.992-0.5856-3.443 1.551-5.935 2.818-8.634-1.635 0.2325-2.941 0.527-4.404 0.5285 1.792 4.039-4.555 8.715-1.586 12.16 1.378 1.6 4.111 1.587 7.048 1.939" style="fill:#c8a49a"/><path d="m113.7 119.7c-1.112-0.3059-2.76 1.501-4.406 1.233 0.9419 1.642 1.82 3.349 3.349 4.406 1.134-0.961 3.038-5.096 1.057-5.639" style="fill:#c8a49a"/><path d="m118.4 118.7c-1.52-0.169-2.123 0.5789-3.348 0.7052 1.795 2.727-1.832 5.157-1.587 7.049 0.1612 1.227 1.918 1.813 2.996 2.643-0.8643-4.724 3.615-6.587 1.939-10.4" style="fill:#ff5a3f"/><path d="m130.6 120.6c-1.692 1.371-1.555 5.323 0.7038 5.992 0.5796-1.604 0.6142-5.169-0.7038-5.992" style="fill:#c8a49a"/><path d="m124.3 114.4c1.53 0.1221 2.647-0.1725 4.052-0.1757 0.8135-3.044 2.857-5.666 7.048-4.758 0.5408-0.87 0.8301-1.99 0.8826-3.349-5.79-2.678-11.64 2.164-11.98 8.283" style="fill:#ff4133"/><path d="m114.9 111.8c-1.057 2.373-1.259 4.539-2.467 6.168 6.05-1.046 5.548-8.197 8.987-12.51 2.571-3.227 7.175-6.086 12.16-5.463-7.109-5.378-15.75 5.228-18.68 11.81" style="fill:#ff4133"/><path d="m130.8 101c-7.654 0.8463-11.29 9.507-13.04 15.15 1.944-0.2875 3.488-0.9775 5.288-1.41 0.4508-7.065 5.881-12.32 13.22-10.22 0.3863-2.955-2.959-3.801-5.465-3.525" style="fill:#c8a49a"/><path d="m128.8 126.1c-1.365-2.566-0.3584-4.926 1.409-6.873-3.632-4.69-8.28 1.462-7.93 6.169 0.1962 2.631 3.029 6.162 5.288 5.991 1.037-0.0783 3.307-2.052 3.17-3.172-0.0914-0.756-1.478-1.251-1.937-2.115" style="fill:#ff4133"/><path d="m-31.34 273.7c0.1504-1.395 1.307-1.264 3.172-1.233 2.956 3.047-3.529 4.525-3.172 1.233zm11.63 5.462c1.164-0.5362 3.587 0.374 3.701 1.587 0.3823 4.079-7.122-9e-3 -3.701-1.587zm13.04 4.229c1.298 1.963-1.449 5.886-3.348 3.349-0.5101-2.162 2.235-5.03 3.348-3.349zm11.98 3.702c-0.6008 2.078-0.4618 7.087-3.877 6.345-1.344-2.98-0.4272-7.962 3.877-6.345zm13.57 4.405c-0.1877 1.525-0.7204 2.378-1.234 4.053-0.5154 1.683-0.4762 5.015-2.468 4.405-2.48-0.7606-1.427-11.87 3.702-8.459zm8.635 3.7c0.8375-0.4762 2.063-0.417 2.819 0-0.3517 2.736-1.596 5.569-1.763 8.812-0.08326 1.621 0.07867 4.009-1.41 4.228-1.772 0.2646-2.761-2.674-2.819-4.755-0.07902-2.772 2.057-7.648 3.173-8.284zm8.987 11.81c0.4798-4.344 1.241-9.78 5.463-9.869 1.788 4.091-1.772 10.11-1.587 16.21 0.05645 1.859 0.822 4.064-0.8802 4.23-0.9218 0.0882-2.473-2.226-2.82-3.524-0.5574-2.085-0.4833-4.279-0.176-7.049zm-61.68-22.91c10.42 6.386 21.29 11.81 31.72 18.33 3.494 2.184 7.219 3.832 10.75 5.814 9.84 5.528 19.81 11.24 28.02 17.98 0.6227 0.5115 1.062 1.708 2.115 1.408-1.916-5.944 0.2632-11.53 1.762-17.44 1.373-5.412 4.428-11.29 0.5288-15.16-3.179-3.15-9.499-5.401-14.45-7.226-10.97-4.043-23.03-5.359-34.72-8.635-12.79-3.587-23.61-6.268-29.96-15.33-3.026 1.316-8.361 3.394-8.986 7.049-1.024 5.981 4.741 8.105 8.105 10.04 1.754 1.011 3.443 2.151 5.111 3.173" style="fill:#5b2e17"/><path d="m109.1 156c2.342 0.1958 5.44 0.6653 7.577 0 0.5179-4.172 1.596-7.958 4.759-9.692 1.398-0.7676 4.19-2.012 4.19-2.012s0.2664-1.633 0.1425-3.041c-10.25 0.0818-14.22 6.857-16.67 14.74" style="fill:#915743"/><path d="m54.3 280.1c1.766-0.6958 1.711-4.572 0.8812-6.698-3.129 0.2786-5.31 1.505-6.696 3.526 2.019 0.3991 3.72 3.996 5.815 3.172" style="fill:#4f2513"/><path d="m12.36-20.03c0.726 0.4096 1.715 1.788 2.819 1.762 1.796-0.04233 3.115-2.915 5.287-2.819-6.413-9.342-21.97-8.539-33.83-5.463-10.83 2.806-20.8 7.407-30.91 10.6v7.096c7.724-2.519 15.38-6.636 22.98-9.239 9.872-3.379 24.13-7.316 33.66-1.938" style="fill:#493735"/><path d="m45.14 368.4c-2.626 7.112-9.864 13.85-16.39 16.57-4.041 1.683-9.468 1.968-14.1-0.1764-3.162-1.464-7.067-4.6-10.04-6.872-5.4-4.124-8.955-8.615-11.98-15.68-4.12-9.624-9.487-20.17-13.39-30.31-1.006-2.607-1.793-5.352-2.82-8.103-0.9411-2.522-2.51-4.995-3.349-7.581-1.574-4.847-0.1119-8.096 4.406-8.633 2.022-0.2398 5.628-0.0317 7.929 0.5292 5.901 1.429 11.83 4.403 16.74 7.401 5.03 3.069 9.369 5.599 14.45 9.514 4.301 3.313 8.949 7.257 13.39 10.57 4.057 3.03 9.361 7.539 12.16 11.81 3.292 5.02 5.655 13.77 2.995 20.97zm-31.54 33.48c-0.4787 2.021-1.035 3.581-2.466 2.995-2.706-1.101 1.127-7.666 1.762-9.338 0.09031-0.2399-0.03281-0.2434 0.1764-0.3528 0.8587-0.4516 1.697 0.7091 1.762 1.937 0.05785 1.115-0.8354 3.083-1.234 4.759zm-16.56-5.99c0.8382-3.119 2.5-7.814 5.816-8.46 0.8026 2.903-3.094 10.32-5.816 8.46zm-14.27-15.51c0.4899-2.117 3.162-5.56 5.111-6.872 0.7343-0.4939 2.088-1.051 2.82-0.1764-1.626 3.26-3.612 7.066-7.93 7.048zm-14.8-79.65c-2.495-0.5654-1.53-8.28 0.7047-8.811 1.943-0.4625 4.093 1.065 4.405 2.643 0.566 2.856-3.079 6.627-5.11 6.168zm68.9 23.61c-13.91-10.93-31.87-18.56-47.93-26.79-5.456-2.794-9.895-5.407-14.98-8.811-1.972-1.32-5.804-4.435-7.401-4.581-2.575-0.2375-4.824 6.208-5.286 9.514-1.596 11.42 2.754 21.61 6.345 31.02 4.675 12.24 11.29 26 6.519 40.18-0.4175 1.242-3.346 4.854-3.348 5.817-0.0018 0.6879 2.88 5.136 3.7 6.519 3.901 6.576 8.379 12.88 12.86 18.15 6.539 7.68 13.26 14.89 21.68 19.56 3.239 1.799 8.499 2.713 12.51 1.764 4.618-11.07 11.31-19.08 18.15-28.2 4.809-6.406 10.42-12.89 14.1-20.8 1.235-2.653 3.084-5.56 3.525-8.103 0.743-4.3 0.0448-9.543-1.586-13.92-1.433-3.849-5.018-8.333-7.754-11.45-3.054-3.485-7.199-6.805-11.1-9.871" style="fill:#3e1c14"/><path d="m-19.54 70.37c-8.276-0.8234-18.59-1.08-24.74 2.206v19.22c5.043-4.766 13.32-6.299 21.57-7.855 0.5636-5.017 1.818-9.342 3.172-13.57" style="fill:#493735"/><path d="m82.85 145.4c-8.553-1.655-16.55-3.961-24.32-6.696-7.941-2.795-14.03-6.144-19.74-11.28-5.339-4.805-10.3-10.6-13.57-17.45-0.9698-2.034-2.365-5.188-2.291-7.577 0.1503-4.866 4.158-7.874 9.339-6.52 2.964 0.7747 6.525 2.787 9.34 4.405 5.263 3.025 10.5 6.843 16.74 8.987 4.219 1.45 10.77 3.478 15.68 2.115 1.365-0.3796 2.883-1.728 4.405-2.643 4.66-2.804 7.9-6.59 11.1-10.22 4.623-5.242 9.258-9.387 14.8-13.57h-0.351c-4.416 1.579-8.136 3.312-11.81 5.64-5.976 3.789-11.8 8.092-19.21 10.22-6.67 1.917-12.96 0.7571-19.21-1.234-8.468-2.699-14.78-5.474-22.38-8.987-3.08-1.423-7.888-4.715-11.63-3.701-4.034 1.093-3.021 7.355-2.115 11.63 1.676 7.914 5.4 14.97 9.163 20.79 2.989 4.628 4.593 8.183 7.401 12.69 1.278 2.05 2.807 4.279 3.877 5.287 2.812 2.647 6.38 4.457 9.901 5.951 7.677 3.258 15.85 4.873 23.94 6.753 8.935 2.078 17.95 4.051 27.14 4.566 5.225 0.2917 8.8-1.01 10.04-4.759-8.414-2.131-17.59-2.727-26.26-4.405" style="fill:#5b2e17"/><path d="m50.25 272.7c0.9306-0.4668 2.111-0.7458 3.172-0.8819 5.363-0.6866 5.19 3.913 3.877 7.93-1.311 4.015-4.364 3.336-7.754 1.41-1.042-0.5924-3.911-2.431-3.877-3.876 0.03739-1.593 3.291-3.936 4.581-4.583zm-58.15 0.5271c7.007 2.086 14.79 3.966 22.2 5.815 15.26 3.813 31.1 6.017 41.59 14.28 2.404-6.33 6.412-11.76 7.401-18.86 0.8886-6.37-3.62-8.393-8.987-8.987-5.348-0.5934-10.66 0.1714-16.21 0-5.873-0.1824-11.68 1.169-17.8 0.7034-6.442-0.4868-13.06-0.5652-18.5-1.233-8.382-1.028-18.44-5.221-26.96-2.29 3.667 5.783 10.28 8.492 17.27 10.57" style="fill:#754531"/><path d="m-39.03 129.4c0.1309-2.12 0.468-4.043 0.9712-5.799-2.238-0.418-4.282-1.029-6.218-1.748v7.842c0.6998 0.018 1.447 0.0931 2.01 0.0857 1.315-0.0173 2.242-0.1605 3.237-0.3803" style="fill:#493735"/><path d="m-33.46 205.7c0.2322-3.116 1.239-5.457 1.938-8.106-2.206 0.792-4.963 1.89-8.635 1.585-0.5892-0.049-2.613-0.4085-4.126-1.009v7.436c3.174 0.6646 7.776 0.8946 10.82 0.0931" style="fill:#754531"/><path d="m-30.46 194.6c0.08354-2.442 1.387-3.665 1.587-5.991-2.133 1.209-6.071 2.65-10.4 2.643-0.6726-7.1e-4 -3.211-0.1457-5.006-0.5666v5.551c1.01 0.2078 2.214 0.5962 2.892 0.6548 4.084 0.351 8.543-1.156 10.92-2.291" style="fill:#592919"/><path d="m-35.57 216.5c0.3436-2.769 0.9036-5.323 1.41-7.931-2.94 0.0857-7.607 0.5704-10.12-0.914v7.936c2.283-0.9712 6.288 0.575 8.708 0.9091" style="fill:#592919"/><path d="m-27.11 184.2c1.838-2.667 1.875-5.334 3.701-8.283-4.692 3.216-9.236 5.941-15.86 7.577-0.7262 0.1803-3.268 0.4886-5.006 0.4851v4.535c0.9594 0.1683 2.058 0.5652 2.716 0.6195 4.396 0.3672 12.07-1.48 14.45-4.934" style="fill:#754531"/><path d="m-23.41 172.9c0.9611-0.7814 2.335-1.538 2.819-2.114 1.876-2.236 2.31-6.276 3.899-8.672-1.907-0.3866-3.593-0.8752-4.842-1.48-0.4145-0.2007-0.8577-0.43-1.318-0.684-3.227 7.941-8.178 14.32-16.77 16.3-1.634 0.3754-3.107 0.798-4.654 1.187v4.275c0.3289-0.0776 0.6604-0.1337 0.954-0.1746 8.744-1.223 14.61-4.319 19.91-8.635" style="fill:#592919"/><path d="m-28.88 248.9c-1.796-1.159-1.846-6.235-3.524-7.225-0.47-0.2773-1.948-0.2399-2.821-0.3528-3.538-0.4583-6.618 0.6075-9.059 1.637v9.547c3.429-3.095 9.262-4.542 15.4-3.606" style="fill:#754531"/><path d="m-33.63 239c-0.4937-2.513-1.293-5.671-1.938-8.281-2.912-1.204-5.923-1.107-8.708-0.5345v10.62c2.327-2.13 6.776-2.334 10.65-1.806" style="fill:#592919"/><path d="m-35.92 228.1c0.08036-2.603-0.3697-6.498 0.3528-9.163-2.229-1.185-5.858-1.488-8.708-1.166v10.03c0.6554-0.2364 1.4-0.3372 2.01-0.4096 2.333-0.2769 4.885 0.6981 6.345 0.7048" style="fill:#754531"/><path d="m-25.27 158.5c-1.08-0.7331-2.21-1.597-3.338-2.605-3.705 4.998-8.789 9.283-15.68 10.72v8.079c8.846-2.891 15.9-7.574 19.01-16.2" style="fill:#754531"/><path d="m-38.97 134.4c-0.07994-1.002-0.1207-1.965-0.1243-2.895-1.163 0.0268-3.481 0.1535-5.18-0.0392v6.023c1.91-0.3517 4.117-0.4046 5.5-1.284-0.07691-0.5906-0.145-1.19-0.1953-1.804" style="fill:#c33027"/><path d="m41.79 112.7c-1.5-1.537-3.224-4.359-5.129-5.65-0.8954-0.6057-2.299-1.422-2.8-0.5172-0.5704 1.028 0.6509 2.483 1.186 3.881 1.604 4.194 4.312 8.985 6.744 11.27 2.143 2.016 6.446 1.941 6.168-1.586-0.09419-1.196-1.699-2.754-2.819-3.877-1.292-1.295-2.166-2.313-3.349-3.525" style="fill:#915743"/><path d="m-39.8 262.1c5.362-2.844 13-4.154 20.44-4.758-1.97-1.312-3.669-4.046-6.168-5.287-5.821-2.887-13.2 0.1055-18.75 1.704v11.37c1.227-1.292 2.905-2.191 4.479-3.026" style="fill:#592919"/><path d="m-41.03 103.7c4.949-3.072 12.31-6.406 19.38-6.696-0.5062-3.736-1.166-6.959-1.057-10.93-8.525 1.094-16.59 2.973-21.57 7.993v12.26c1.009-1.09 2.22-1.992 3.244-2.628" style="fill:#261210"/><path d="m-35.15 117.2c-3.668-1.805-6.681-4.264-8.531-7.886-0.2208 0.0434-0.4192 0.1422-0.6007 0.2716v10.63c2.182 0.3136 4.348 1.466 6.667 1.948 0.6515-1.834 1.491-3.475 2.465-4.964" style="fill:#c33027"/><path d="m-30.26 154.3c-0.9928-1.026-1.965-2.168-2.879-3.441-1.532 1.241-2.858 2.468-5.253 3.389-0.7839 0.302-3.852 1.188-5.888 1.449v8.915c0.8372-0.2935 1.768-0.4336 2.363-0.672 5.054-2.026 9.043-5.361 11.66-9.641" style="fill:#754531"/><path d="m-37.06 143.4c-0.5596-1.543-1.024-3.199-1.367-4.976-1.511 0.1697-4.062 0.8188-5.854 0.6286v7.458c1.767-0.3785 4.238-0.5309 5.006-0.896 1.376-0.6551 2.006-1.381 2.215-2.214" style="fill:#754531"/><path d="m-34.3 149.1c-0.6329-1.022-1.226-2.117-1.764-3.287-1.184 0.5856-1.483 1.393-3.03 1.903-0.5469 0.1796-3.279 0.6653-5.183 0.611v5.583c0.3672-0.079 0.7123-0.1386 0.954-0.2032 3.855-1.034 7.043-2.256 9.024-4.607" style="fill:#754531"/><path d="m92.37 290.8c5.426-0.9475 9.868 0.3896 13.39 2.645 1.998 1.275 5.126 2.929 4.055 5.815-3.895-1.353-5.888-4.485-10.22-5.111-4.23-0.6113-8.53-0.3189-12.69 0.8812-1.507 0.4358-3.976 1.675-4.405 0.1757-0.5736-2.011 6.379-3.794 9.869-4.406zm-3.348-15.15c2.863-1.251 5.87-2.922 9.692-3.35 4.112-0.46 9.658 1.189 13.04 2.644 1.979 0.8506 4.374 3.195 4.934 4.758 0.4696 1.31 0.3591 3.407-0.5292 3.7-1.23 0.4064-2.442-1.802-3.17-2.467-1.033-0.9404-2.229-2.213-2.996-2.642-2.464-1.379-7.622-2.068-11.45-1.762-5.314 0.4236-7.805 2.397-12.51 2.466-0.2882-1.651 1.473-2.683 2.996-3.346zm6.872-17.62c7.404-3.328 22.87-4.282 25.2 4.053 0.3768 1.348 0.4685 6.014-0.8805 6.345-2.792 0.683-2.628-3.744-3.878-5.465-1.867-2.566-7.405-4.048-12.16-3.876-7.015 0.2533-9.807 4.849-15.51 5.638-0.7306-3.69 3.862-5.184 7.225-6.696zm-5.815 48.46c0.8999-1.369 4.329-1.27 4.758 0.1764 0.8361 2.808-5.847 4.611-4.758-0.1764zm-3.172 11.1c0.1651-0.8044 1.044-1.136 2.468-1.235 1.22-0.0848 1.922 0.2081 2.114 0.5292 1.686 2.801-5.358 4.501-4.582 0.7056zm-2.291 12.69c-0.454-1.252 0.1422-2.021 1.586-2.289 5.008-0.9242-0.3164 5.793-1.586 2.289zm-26.43 113.5c2.995-8.11 6.664-15.83 9.868-23.79 3.188-7.916 5.348-16.51 8.634-24.85 1.59-4.029 2.982-8.181 4.406-12.33 4.301-12.54 8.63-24.31 14.27-36.13 3.639-7.62 7.131-15.57 11.28-22.38 4.11-6.752 8.048-13.93 12.16-21.32 1.853-3.333 3.62-7.328 5.11-11.63 1.527-4.408 3.608-8.811 4.053-12.86 0.8396-7.655 0.6766-13.73-1.41-19.56-0.6823-1.909-1.344-4.037-2.114-5.463-3.887-7.198-13.21-10.82-22.2-12.86-17.23-3.917-37-3.905-55.51-2.114-7.855 0.7595-15.71 2.205-22.91 1.937-17.41-0.6438-33.35-1.548-43.35-9.516-2.88-2.295-5.819-6.592-6.872-10.93-0.87-3.576-1.67-8.532-1.234-13.22 0.1746-1.873 0.95-4.05 1.41-6.167 1.451-6.692 3.067-12.06 5.287-17.45 1.253-3.044 2.606-7.208 4.229-10.93 0.7054-1.616 1.668-2.992 2.643-4.935 0.1612-0.3182 1.862-3.401 2.113-4.435-0.5071-0.0561-1.011-0.1154-1.51-0.182-1.56 1.342-3.187 5.543-3.599 6.381-4.291 8.742-8.079 16.49-10.93 26.26-0.896 3.073-2.272 6.139-2.82 9.517-0.5726 3.525-0.8876 7.231-1.057 11.1-1.209 27.78 15.19 43 41.59 44.05 9.674 0.3874 17.63 0.6685 26.96-0.1746 8.311-0.7511 20.61-0.6794 26.79 2.643 6.205 3.34 7.398 10.71 4.23 17.8-2.898 6.486-6.785 11.83-9.516 19.21-1.32 3.567-1.922 7.261-2.82 11.1-1.091 4.667-2.177 10.59-0.5292 14.8 1.666 4.251 4.291 7.214 5.992 12.33 5.167 15.56-1.381 32.27-8.635 42.29-1.409 1.947-2.653 4.293-4.053 5.994-5.757 6.992-12.3 12.53-16.92 19.73-5.547 8.654-8.932 20.55-12.86 30.66-2.011 5.175-4.199 9.998-6.696 14.27-4.688 8.029-11.29 14.66-15.49 22.67h51.69c0.7398-4.177 2.781-7.352 3.985-10.69 2.333-6.466 4.07-12.7 6.345-18.86" style="fill:#a26a53"/><path d="m-38.92 29.13c-0.1805 1.359-3.297 2.251-4.582 1.234-0.706-3.487 4.983-4.244 4.582-1.234zm6.696-0.3521c3.371-1.628 6.327 2.58 3.171 3.171-1.361 0.2551-5.97-1.82-3.171-3.171zm14.27-1.234c2.242-0.4748 6.377 0.828 5.992 3.348-0.4152 2.712-7.3 1.218-7.931-0.7048-0.6526-1.992 0.7259-2.387 1.939-2.643zm13.92-1.057c1.765-2.699 7.533-2.177 7.401 1.41-0.1362 3.745-8.788 3.943-7.401-1.41zm12.86-7.578c4.815-1.069-0.00776 5.046-1.761 2.467-0.8975-1.318 0.6664-2.224 1.761-2.467zm-34.54 17.8c5.969 1.118 11.31 2.538 17.62 2.115 2.904-0.1947 6.99-0.4833 9.34-1.41 1.615-0.6368 3.398-2.72 4.758-3.877 1.703-1.448 3.229-2.765 4.406-4.229 7.251-9.024 7.783-25.14 11.81-36.65-4.674 0.7486-7.185 4.628-8.987 8.106-2.54 4.905-4.239 10.55-7.93 14.45-4.704 4.975-12.84 8.9-20.97 8.811-1.502-0.01729-3.033-0.3383-4.582-0.3524-2.952-0.02858-5.997 0.5789-8.986 0.3524-3.829-0.2907-7.8-1.011-11.46-0.5295-1.262 0.1665-2.419 0.5338-3.596 0.8301v11.04c5.847-1.463 12.36 0.1838 18.58 1.349" style="fill:#493735"/><path d="m-15.48 44.64c2.527 0.4745 6.171 2.116 7.754 1.586 1.036-0.3471 1.661-2.051 2.29-2.82 0.9539-1.162 2.022-2.32 2.996-3.524-3.996 0.5726-7.533 0.8717-11.81 0.5285-9.461-0.7581-20.78-5.609-30.03-2.642v6.049c7.689-2.326 20-0.8301 28.8 0.8227" style="fill:#261210"/><path d="m-19.01 68.78c0.4009-0.8929 1.231-2.459 2.374-5.056 0 0-1.408-4.194-0.9639-6.751-8.428-0.5644-19.27-3.546-26.68-0.4738v14.13c6.816-3.321 18.2-2.976 25.27-1.852" style="fill:#261210"/><path d="m-40.68 44.99c-1.521 0.151-2.596 0.4547-3.596 0.8354v8.314c0.9553-0.2977 2.007-0.4981 3.069-0.6904-0.1188-2.774-0.5089-5.833 0.5276-8.459" style="fill:#c33027"/><path d="m-40.68 289.1c-1.338-0.3157-2.642-0.6748-3.596-1.34v6.7c0.4969 0.3518 1.068 0.7078 1.835 0.6304-8.29e-4 -2.584 1.299-3.871 1.762-5.99" style="fill:#754531"/><path d="m-42.8 304.7c-0.2082-2.357 0.2081-4.888 0.1757-7.576-0.4885-0.301-1.106-0.4724-1.659-0.7087v8.083c0.4592 0.2971 0.9561 0.5334 1.483 0.2018" style="fill:#754531"/><path d="m-40.51 287.5c1.783-0.2004 3.255-4.581 4.405-5.288-1.122-1.36-2.986-2.396-4.582-3.876-1.097-1.018-2.519-2.355-3.596-3.694v10.41c1.099 1.29 2.425 2.597 3.773 2.445" style="fill:#754531"/><path d="m118.3 155.5c5.239-0.1602 8.165-5.401 7.225-9.516-4.48 0.986-7.631 4.231-7.225 9.516" style="fill:#ab806c"/><path d="m-9.737 100.7c4.247-1.137 7.962-1.784 9.487-2.026-0.2847-1.149-0.7892-2.034-1.277-3.495-3.627-0.01164-7.255-0.3732-10.61 0.26 0.5695 1.839 1.076 3.741 1.939 5.287 0.1542-4e-3 0.3059-0.0159 0.4579-0.0261" style="fill:#754531"/><path d="m-2.089 93.63c0.05891-1.778-1.085-3.838-1.762-5.463-2.794-0.2639-6.869 0.429-9.516-0.5288-0.3739 1.919 0.4637 4.105 0.7044 5.992 3.473-0.03104 6.688 0.308 10.57 0" style="fill:#754531"/><path d="m9.365 112.5c-0.7849 8.601-8.215 15.96-17.45 14.63-4.089-0.5934-5.504-3.936-7.225-7.049-2.042 5.849-0.3736 12.71 4.053 16.04 3.141 2.361 7.619 4.448 11.81 4.054 2.89-0.273 5.705-3.034 7.401-5.111 4.962-6.076 4.785-15.43 1.939-22.56h-0.5295" style="fill:#b2693a"/><path d="m-13.72 86.05c2.507 0.7179 6.241 0.9694 9.164 0.7048-0.2649-2.32-1.043-4.127-1.762-5.992-1.904 0.06491-4.86-0.1365-7.049-0.3524-0.5719 1.673-0.3398 3.793-0.3526 5.639" style="fill:#754531"/><path d="m-11.25 72.31c-0.8713 1.889-1.582 3.94-1.938 6.344 1.913 0.412 5.006 1.275 6.168 0-1.59-1.933-2.144-4.905-4.229-6.344" style="fill:#754531"/><path d="m-17.07 46.4c-3.556-0.224-6.709-2.01-9.868-1.41-3.357 0.6378-4.611 5.163-5.639 8.459 3.111 0.01975 5.055 0.5789 8.635 0.7048 1.167-3.709 4.013-5.739 6.872-7.754" style="fill:#c33027"/><path d="m-3.852 122.5c8.019 0.9761 11.38-10.42 9.692-17.45-2.194 0.3062-4.405-2.291-4.405-2.291s-10.32 7.302-10.93 11.81c-0.6361 4.715 2.448 7.542 5.639 7.931" style="fill:#2c170e"/><path d="m-30.11 44.82c-2.295-0.2981-5.808-0.2875-8.106 0-1.476 1.782-1.56 5.92-0.5286 8.283 1.367 0.362 2.336 0.1951 3.876 0.1757 0.8217-1.939 1.156-4.183 2.468-5.815 0.6409-0.7983 0.9584-1.723 2.29-2.643" style="fill:#493735"/><path d="m40.2 61.21c3.379-1.032 5.073 2.231 3.349 4.229-1.347 1.562-8.186-2.751-3.349-4.229zm0.8816 8.987c2.492 0.7796 13.76 2.954 14.27-0.5288 0.06209-0.4216-0.6032-2.276-1.057-2.995-1.264-2.007-3.214-3.443-5.463-5.816-2.719-2.869-4.937-6.92-9.163-5.992-2.557 0.562-4.339 2.459-6.52 4.229-1.482 1.202-4.793 3.105-4.229 5.992 0.6396 3.277 8.806 4.062 12.16 5.11" style="fill:#b88c7a"/><path d="m5.841 59.27c0.8378-7.918 6.182-11.79 10.22-16.21 3.218-3.52 7.019-6.011 9.771-10.41 2.8-4.479 3.759-11.11 4.504-17.43 0.5711-4.858 1.099-10.46 1.938-14.63 1.239-6.157 2.412-12.39 5.816-16.56 3.008-3.694 7.748-6.146 13.39-6.52-1.069-1.097-2.482-2.838-3.877-1.939-1.642 1.058-4.184 1.057-5.991 1.762-1.542 0.6022-2.716 1.743-4.229 2.467-3.471 1.663-6.423 2.582-8.987 5.463-6.263 7.037-7.227 18.83-9.692 29.61-1.421 6.211-2.509 12.42-6.168 16.56-2.538 2.875-5.62 4.656-8.106 6.696-4.226 3.469-8.989 6.077-10.57 11.63 5.536 1.513 8.629 6.406 11.98 9.516" style="fill:#c33027"/><path d="m23.29-9.107c1.838-3.859 4.277-7.117 7.225-9.869-6.705-1.307-12.32 3.117-9.164 9.517 0.6639 0.06385 1.441 0.6766 1.939 0.3521" style="fill:#493735"/><path d="m-8.786 47.99c-6.069-2.508-11.52 1.345-13.22 6.696 6.483 2.398 7.39-3.859 12.34-4.582-0.164-1.099 1.33-1.3 0.8816-2.114" style="fill:#493735"/><path d="m19.41-16.68c-1.51 1.26-5.339 2.088-5.816 4.582-0.351 1.848 1.039 4.949 2.468 4.935 1.217-0.01199 1.769-2.171 3.701-1.939-0.5867-2.107-1.498-5.319-0.3535-7.578" style="fill:#c33027"/><path d="m27.69 62.62c1.007-2.495 9.334-8.882 12.51-9.34 5.304-0.7648 8.592 4.376 11.81 8.106 1.984 2.302 7.264 6.935 5.639 10.04-0.6717 1.287-4 1.83-6.344 1.938-6.09 0.2826-14.86-1.48-20.09-3.877-2.426-1.111-4.95-3.34-3.523-6.872zm-3.878 8.282c4.433 2.748 10.47 3.699 17.62 5.111 5.782 1.141 14.86 2.694 20.27 1.058 1.671-0.5059 4.462-2.152 4.934-3.349 0.817-2.068-1.389-5.262-2.82-7.224-2.026-2.778-5.089-5.568-8.459-8.635-3.516-3.203-5.791-6.34-9.164-8.106-1.597-0.8371-3.992-1.124-5.639-0.8812-3.126 0.4625-5.095 2.371-7.578 3.877-1.623 0.985-3.394 2.121-5.286 3.348-3.043 1.974-8.991 4.305-8.635 8.811 0.1796 2.284 3.144 4.991 4.757 5.991" style="fill:#a26a53"/><path d="m-3.675 65.44c3.032-0.8625 4.439 2.842 5.991 4.758 2.823 3.485 7.433 6.169 8.811 9.868 0.314 0.8424 0.4177 2.007 0.3528 2.82-0.1418 1.788-2.854 10.18-5.287 8.988-0.8936-0.4378-1.2-3.721-2.114-5.111-1.134-1.725-3.454-2.571-4.758-4.582-1.051-1.621-1.978-4.149-2.819-6.344-1.078-2.813-3.617-9.419-0.1764-10.4zm30.84-10.93c1.894-1.183 4.051-1.912 5.815-2.996 2.735-1.681 3.642-3.439 7.401-3.877 5.755-0.6703 9.595 3.105 13.04 5.991 3.887 3.256 8.166 8.148 11.45 12.51 3.243 4.301 6.763 8.992 0.3524 11.98-6.361 2.969-17.15 1.154-24.32-0.5288-4.231-0.9934-8.678-1.642-11.98-2.819-3.375-1.203-8.695-4.34-10.04-6.697-3.917-6.835 4.233-11.04 8.281-13.57zm-42.29 8.458c1.299 3.149 4.362 5.845 6.168 8.987 1.906 3.318 3.897 6.509 5.286 10.04 1.417 3.608 3.275 7.329 4.405 10.75 1.078 3.264 2.692 9.06 5.639 9.692 2.55 0.5475 5.754-1.918 6.345-3.7 0.9102-2.751-0.8879-4.676 0.176-8.459 0.387-1.378 3.218-4.653 4.582-5.463 3.447-2.049 8.894 1.496 12.69 3.172 9.951 4.397 22.12 9.769 34.72 10.22 4.681 0.1679 8.548-1.129 11.81-2.468 11.6-4.762 20.28-13.98 35.07-13.57 0.2798-3.481 2.547-4.972 4.934-6.344-1.005-3.645-2.224-6.707-4.229-8.987-1.606-1.827-3.539-3.194-7.056-4.479-0.7786-0.2847-3.705-0.3112-4.399-0.4554-3.3-0.69-7.382-0.1598-10.93-0.1771-3.707-0.01693-7.447 0.7126-10.57 0.3521-6.793-0.7814-8.905-5.557-12.69-9.515-2.291-2.397-4.516-4.991-6.52-7.225-5.909-6.586-13.83-10.72-25.73-11.1-0.7867-0.02575-3.897-0.06738-4.758 0.3524-0.7976 0.3881-1.623 2.266-2.467 3.171-6.871 7.376-16.44 10.3-19.03 21.32-0.2081 0.8816 0.03104 1.856-0.1767 2.82-0.1386 0.6399-1.427 4.476-1.939 4.582-1.249 0.2565-2.542-2.905-2.82-3.349-1.042-1.678-1.818-2.897-2.467-3.876-1.589-2.395-3.367-5.985-5.815-6.873-6.723-2.437-12.59 4.825-10.22 10.57" style="fill:#754531"/><path d="m8.484 85.17c2.416-4.444 0.1453-7.157-2.643-9.869-1.574-1.531-3.699-2.714-5.11-4.053-1.629-1.547-1.621-3.73-3.525-4.581h-0.3514c-1.077 7.253 3.309 11.91 6.696 15.86 2.749-1.336 3.737 1.341 4.934 2.643" style="fill:#2c170e"/><path d="m7.779 140.7c-6.417 5.303-15.26 2.943-20.62-1.586-4.718-3.992-6.961-12.24-7.049-18.33-4.402 6.538-3.755 15.84-0.5282 21.67 3.417 6.184 16.2 9.346 23.61 5.991 4.991-2.258 10.64-8.904 12.34-14.98 1.158-4.148 1.355-8.469-0.5288-12.51 0.8735 8.366-3.221 16.43-7.225 19.74" style="fill:#ffe6bf"/><path d="m49.36 187.9c2.29-7.268 4.365-14.89 8.32-21.47 0.01058-0.0183 0.02117-0.0353 0.0314-0.0533 2.852-4.728 6.761-8.115 11.19-11.09-1.991-0.2805-3.872-0.5655-5.542-0.8632-0.9698-0.1739-3.599-0.3355-6.984-0.647-3.337 3.531-4.871 8.576-6.277 13.11-1.881 6.065-4.005 12.06-6.516 17.9-3.881 9.017-8.423 17.79-13.68 26.08-2.563 4.042-5.321 7.969-8.317 11.7-1.48 1.842-3.004 3.651-4.601 5.392-0.6343 0.6918-3.732 4.773-4.625 4.711 7.444 0.5147 16.17 0.6802 23.26-0.176 2.341-9.848 5.174-19.19 8.283-27.84 1.987-5.527 3.692-11.15 5.455-16.75" style="fill:#2c170e"/><path d="m-14.24 102c0.5833-0.2699 1.144-0.5609 1.758-0.7987-3.422-7.958-4.665-18.69-1.938-27.31 0.3762-1.191 1.938-3.877 1.938-3.877s-2.191-3.16-2.996-3.876c-4.976 9.767-5.48 26.57 0.1463 36.25 0.3627-0.1305 0.7272-0.2575 1.091-0.3803" style="fill:#c33027"/><path d="m-18.83-38.01c5.37-1.523 12.58-1.68 19.21-2.114 9.213-0.6036 18.12 0.4413 23.61 3.701 4.225 2.506 7.881 8.167 15.33 6.168-1.988-5.483-6.272-8.413-11.45-11.1-1.724-0.8946-3.428-2.241-4.934-2.819-1.138-0.4374-2.633-0.4921-3.877-0.8816-11.08-3.466-26.49-4.408-38.42-1.233-9.614 2.558-17.72 7.175-24.92 11.13v8.492c4.209-1.83 8.039-4.304 12.76-6.05 4.314-1.596 8.362-4.06 12.69-5.287" style="fill:#493735"/><path d="m-30.46 111.8c-3.001-1.578-3.882-5.278-5.286-8.454-2.482 1.336-4.948 2.688-6.696 4.759 2.075 3.259 4.448 6.218 8.272 7.729 1.125-1.487 2.383-2.814 3.71-4.033" style="fill:#493735"/><path d="m-28.91 110.4c1.024-0.852 2.072-1.654 3.119-2.424-1.952-1.573-3.243-3.808-3.256-7.321-1.401 0.3775-4.45 0.495-4.758 2.115-0.1381 0.7313 1.051 3.395 1.763 4.758 0.9274 1.778 2.03 2.746 3.132 2.872" style="fill:#c33027"/><path d="m-24.37 107c0.2108-0.152 0.4218-0.303 0.6313-0.4533 1.668-1.191 2.756-1.746 4.903-2.647-0.6193-1.173-2.11-4.773-2.11-4.773s-3.711 0.3535-5.991 0.7052c-0.6433 2.255 0.8118 6.647 2.567 7.168" style="fill:#493735"/><path d="m-7.024 191.4c-0.4374-1.646-0.9599-4.55 0.176-5.992 0.7458-0.9458 2.671-1.476 3.349-0.3524 1.318 2.182-1.475 5.95-3.525 6.344zm14.98-17.8c-0.4907-2.922-6.172-4.126-9.339-3.524-5.022 0.955-7.632 7.763-9.163 13.22-1.447 5.149-3.306 11.52-2.644 17.45 0.5311 4.744 2.77 2.393 4.23 0.1767 2.407-3.657 4.677-6.944 6.872-10.05 3.501-4.946 6.991-8.836 9.164-13.57 0.2882-0.6279 1.039-2.759 0.8805-3.701" style="fill:#754531"/><path d="m-13.37 205.4c-2.668-0.8728-1.556-12.05-1.057-15.15 0.8396-5.227 2.829-10.2 4.757-13.92 1.51-2.914 4.156-7.384 7.754-7.93 3.255-0.4946 11.13 1.915 11.45 5.286 0.2787 2.867-3.29 7.539-4.405 9.34-3.641 5.881-7.217 10.07-11.28 16.04-1.375 2.018-3.854 7.445-7.225 6.344zm22.56-18.15c8.706-11.95 19.34-22.92 23.8-39.09-0.2018-0.1362-0.4015-0.2762-0.5874-0.4194-2.6-2.013-3.361-4.257-3.739-6.534-0.02928-0.0399-0.05962-0.0857-0.08996-0.1263-0.175 0.689-0.569 1.874-0.8213 2.469-3.012 7.118-8.439 10.46-14.36 14.93-2.753 2.08-6.028 3.551-9.397 4.259-2.008 0.423-4.053 0.6371-6.105 0.6622-0.1542 2e-3 -0.544-0.0296-1.047-0.0744-1.478 0.019-3.121-0.0148-4.82-0.1072-5.004 7.253-8.446 16.83-10.5 27.73-1.919 10.19-5.287 25.11 1.233 33.31 3.075-7.398 7.095-13.89 12.16-19.56 5.064-5.666 9.831-11.35 14.27-17.45" style="fill:#633b31"/><path d="m9.717 156.7c4.835-2.787 11.49-8.371 14.1-12.86 1.917-3.3 3.723-8.427 2.82-12.69-0.2709-1.278-0.9013-3.432-1.41-4.758-0.3972-1.038-3.635-8.581-5.11-10.93-1.865-2.966-6.306-6.759-9.163-8.283 3.294 5.529 7.6 11.2 8.458 18.68 0.5948 5.185-0.8749 10.34-2.643 13.57-3.24 5.913-9.027 11.74-16.21 13.04-4.185 0.7599-11.28-0.315-14.98-1.939-4.224-1.852-8.465-5.963-10.22-9.868-1.458-3.245-2.138-9.205-1.585-13.57 0.9932-7.836 4.438-12.64 8.635-16.92 2.231-2.276 4.584-4.396 7.05-5.992-11.31 3.637-24.4 13.62-24.67 27.49-0.05775 3.035 0.328 7.152 1.41 10.57 0.494 1.561 2.099 3.894 3.173 5.638 2.669 4.338 5.889 6.774 10.22 9.164 1.577 0.8706 4.091 1.589 6.167 2.115 8.796 2.228 17.6 1.205 23.97-2.467" style="fill:#ed842e"/><path d="m3.902 220c-3.905 0.2166-1.084-5.821 0.3531-6.871 0.2607-0.1919 1.137-0.3041 1.41-0.3531 5.56-0.9977 0.7758 7.085-1.763 7.225zm13.04-22.2c5.363-1.401-1.493 9.434-2.819 4.581-0.4142-1.518 1.709-4.291 2.819-4.581zm9.34-16.39c3.445-1.27 2.52 4.523 0.3524 5.11-3.188 0.865-2.02-4.496-0.3524-5.11zm-5.788 38.33c7.767-9.681 14.6-21.48 18.62-33.22 3.108-9.086 4.242-18.95 7.788-27.84 0.8685-2.177 1.992-3.861 2.95-5.608-5.183-0.7066-10.76-1.829-14.72-3.725-0.6188 1.606-3.077 8.067-3.313 8.678-1.512 3.898-3.08 7.841-5.491 11.29-2.26 3.232-4.426 6.528-6.592 9.822-7.334 11.15-15.84 21.17-24.11 31.53-1.483 1.858-3.424 3.71-4.581 6.696-0.9881 2.547-2.709 6.818-1.939 8.987 0.5405 1.521 4.437 3.865 6.344 4.581 1.635 0.6152 4.193 1.186 6.167 1.41 1.795 0.2046 4.506 0.5475 5.991 0.1767 1.309-0.327 3.53-2.947 5.111-4.406 2.799-2.584 5.397-5.394 7.781-8.364" style="fill:#592919"/><path d="m108.8 26.14c0.2074-0.8999 1.1-1.419 1.762-1.586 3.809-0.961 3.392 7.804 0.176 7.402-1.169-0.1464-2.313-4.184-1.938-5.815zm-2.291 11.63c3.128 0.9592 7.18 0.4484 9.868-0.5285-0.2907-11.11-2.157-22.73-8.281-29.43-0.2847 2.382-1.774 3.963-2.82 6.344-2.701 6.15-3.921 19.45 1.233 23.61" style="fill:#b88c7a"/><path d="m-25.88 15.21c-1.852 1.047-2.639 4.132-1.938 6.696 2.256-0.04304 5.143-0.3253 7.93-0.3517-0.2923-1.946-0.09839-3.813 0-5.816-2.387 0.0056-4.15-1.571-5.991-0.5278" style="fill:#c33027"/><path d="m85.85 44.8c1.266-0.2586 3.15 0.1136 4.117 1.15 1.072 1.147 1.484 2.617 0.08537 4.33-0.2893 0.3538-1.532 0.835-2.195 0.725-1.131-0.188-2.687-0.8262-3.258-1.949-0.7609-1.495-0.7052-3.856 1.25-4.256zm7.223 7.064c1.676-1.652 1.805-6.357-2.111-7.947-3.707-1.506-5.445-0.2448-10.75 1.075-1.196 5.847 8.602 11.08 12.86 6.872" style="fill:#391510"/><path d="m102.1 32.48c-0.5994-5.752-0.3598-12 1.586-17.45 0.8795-2.465 3.714-5.969 3.348-8.282-0.2275-1.442-5.175-4.888-6.168-6.168-0.1506 2.846 0.1489 6.343-0.5295 9.693-0.8029 3.964-2.886 7.551-3.348 11.1-0.8079 6.222 0.6248 9.304 5.11 11.1" style="fill:#754531"/><path d="m22.58-21.62c4.202-2.093 11.8-0.1665 15.51-3.349-4.384 1.288-7.332 0.1609-10.75-1.585-1.655-0.846-3.465-1.377-4.758-2.115-1.108-0.6318-2.068-1.911-2.996-2.467-7.884-4.724-19.24-5.756-30.13-2.995-4.316 1.094-8.755 1.812-12.86 2.995-7.518 2.166-14.64 5.195-20.87 8.241v5.224c8.942-3.286 18.77-7.477 29.5-10.64 13.3-3.926 30.8-4.493 37.36 6.697" style="fill:#261210"/><path d="m-36.45 21.03c1.633 0.7281 5.023 0.6008 6.697 0.7048-0.2653-2.67 0.6463-5.223 1.762-7.049-5.622-1.278-8.662 1.242-8.459 6.344" style="fill:#493735"/><path d="m-37.33 15.04c-3.96-0.1993-6.952 2.377-5.111 6.344 1.424-0.1616 2.95-0.2215 4.581-0.1757-0.4852-2.497 1.111-4.746 0.5296-6.168" style="fill:#c33027"/><path d="m58.71-1.352c-0.8714-3.792-3.005-7.353-2.291-11.1 1.717-0.6375 3.44 1.269 4.229 2.996 2.494 5.459 3.099 17.25 0.5292 23.26-0.8326 1.947-2.797 3.87-5.111 2.115-0.3214-1.287 0.7768-1.992 1.234-2.996 1.872-4.105 2.433-9.82 1.41-14.27zm18.33-3.349c1.853 4.819 1.317 12.85-0.3528 16.39-0.6283 1.334-2.112 2.185-3.876 1.233 0.5302-4.343 2.3-8.913 1.586-13.39-0.4875-3.054-1.82-5.927-3.349-8.106 2.217-3.07 5.081 1.51 5.992 3.877zm5.287-1.234c0.0956-0.7327 1.555-1.956 3.172-1.233 2.609 1.166 4.364 10.17 3.877 14.45-0.2776 2.432-1.921 10.07-5.64 6.696 2.812-4.142 3.274-11.71 0.7052-16.56-0.562-1.062-2.273-2.131-2.115-3.348zm-45.46 4.582c-0.9158 4.522-1.108 10.49-1.41 15.15-0.1199 1.839-0.6431 4.182-0.3517 5.286 0.5683 2.161 5.376 6.131 7.752 6.344 1.836 0.1644 3.493-1.175 5.111-1.586 2.754-0.7003 5.545-1.234 8.317-1.993 6.222-1.703 13.08-2.717 19.53-2.765 4.886-0.03634 11.11 2.675 15.09 5.453 0.3492 0.2438 3.407 2.096 3.417 2.125-3.095-8.211 3.504-15.99 3.349-24.14-0.03281-1.708-0.2032-4.527-1.233-6.168-0.5881-0.9359-2.962-2.455-4.229-3.348-6.645-4.682-16.49-6.325-25.73-9.164-2.363-0.726-4.399-2.063-6.519-2.643-5.201-1.424-11.18 0.06738-14.63 2.467-4.697 3.269-7.049 8.019-8.459 14.98" style="fill:#a26a53"/><path d="m11.83-10.34c-2.062 2.361-5.207 8.027-0.5285 9.868 1.184-1.811 2.428-3.563 3.524-5.463-1.483-0.9842-1.975-2.959-2.996-4.405" style="fill:#493735"/><path d="m84.96 29.84c0.0194-1.479 2.119-1.143 2.29 0-0.611 0.4304-1.679 0.4304-2.29 0zm-5.992 0.7045c-1.819-0.1993-2.006-3.149 0.7045-2.995 2.197 0.1249 1.062 3.19-0.7045 2.995zm-6.872-0.5278c-0.575 4.547-7.894-1.345-2.644-2.115 1.566-0.2293 2.884 0.2096 2.644 2.115zm-11.28 3.347c-2.838 0.218-5.383-4.736-0.5288-4.934 3.107-0.1263 3.471 4.709 0.5288 4.934zm46.52 7.578c-3.2-0.4897-6.018-3.102-8.105-5.11-3.233-3.109-7.09-6.37-10.93-8.635-6.134-3.624-16.18-3.492-24.14-2.644-6.581 0.7017-13.23 2.255-19.03 3.173-4.639 0.7327-8.38-2.179-10.75-4.405-0.756 2.768-1.597 5.451-2.467 8.106 5.886-0.08819 10.54 0.7331 14.8 2.115 3.404 1.103 6.206 3.106 9.868 3.525 5.255 0.5997 11.28-1.529 16.92-2.291 5.106-0.69 10.17-2.606 15.15-1.938 6.899 0.9222 11.21 6.027 12.86 11.98 1.219 4.39 2.617 11.8 5.288 14.8 0.72 0.8103 1.999 1.11 2.819 1.762 4.797 3.813 7.455 9.209 9.868 15.86-2.359 1.481-6.316 1.474-6.168 5.11 0.0459 1.127 1.377 3.342 3.172 3.524 2.417 0.2462 4.441-2.199 7.225-2.819 2.737-0.6092 5.192 1.061 7.225 0.8812 2.073-0.1834 5.183-2.792 5.465-4.229 0.7267-3.735-4.337-5.932-6.697-7.577-3.949-2.753-6.115-6.889-8.812-10.93-1.338-2.004-2.608-3.806-3.307-5.998-1.536-4.821-0.7341-10.37-0.9225-15.68-3.122 0.4762-5.685 1.968-9.34 1.41" style="fill:#3e1c14"/><path d="m89.72 36.18c-1.917-0.6569-4.616-0.5048-6.697 0 0.2325 1.877-0.3154 2.973-0.8812 4.053 3.163-0.7147 7.607-0.1478 7.578-4.053" style="fill:#ff4b2b"/><path d="m80.56 58.39c-4.346-3.467-9.055-6.571-13.22-10.22 3.42 4.391 5.466 10.16 13.22 10.22" style="fill:#884b35"/><path d="m42.14 123.2c-3.303-2.292-6.301-8.157-8.108-12.86-0.6156-1.605-2.521-4.308-0.1753-5.11 3.567-1.221 6.115 4.052 8.635 6.696 1.809 1.899 6.513 5.193 6.52 8.459 0.0085 4.118-4.744 4.298-6.872 2.819zm84.94-35.77c-2.775-5.547-5.621 1.245-11.1 0-3.703-0.8407-3.972-2.701-3.972-2.701s-1.928-3.212-12.42 6.578c-1.646 1.537-3.51 2.968-4.935 4.582-2.91 3.296-6.238 6.884-9.339 9.868-3.397 3.268-8.381 6.651-13.22 7.93-3.542 0.9366-7.908-0.1947-11.46-1.058-5.715-1.389-10.07-3.975-14.63-6.344-1.819-0.9447-4.019-2.415-6.519-3.877-2.573-1.504-6.41-4.44-10.04-4.053-3.756 0.4004-3.55 5.082-2.468 8.635 0.8361 2.741 2.408 6.589 3.702 8.635 5.638 8.918 14.09 15.54 24.49 20.27 13.36 6.073 29.02 7.872 45.47 10.57 2.795 0.459 9.28 1.808 9.28 1.808s3.551-4.1 4.817-5.155c2.889-2.408 6.049-3.132 10.93-3.348-0.2572-2.312-0.1785-3.799-0.1768-5.817-9 0.7186-13.44-5.232-17.8-9.516-1.063-1.045-1.909-2.563-2.996-3.348-0.8562-0.6184-2.178-0.2935-2.289-1.762 1.995-0.7366 3.651-1.842 4.933-3.172 3.757-3.9 6.207-10.05 10.05-14.1 3.359-3.543 7.85-5.477 13.52-6.956-1.561-1.285-2.754-2.592-3.304-4.674-0.3083-1.164-0.1739-2.284-0.5288-2.996" style="fill:#4f2513"/><path d="m73.89 38.17c-3.55 0.8562-6.502 2.696-10.6 2.95 2.218 3 5.243 4.339 8.811 2.115 1.393-0.8689 2.306-3.397 1.788-5.065" style="fill:#ff4b2b"/><path d="m80.38 36.54c-1.852 0.2618-3.554 0.6752-5.111 1.233 0.7574 1.672 0.3044 3.15-0.1753 4.758 3.305-0.3418 5.922-2.295 5.287-5.991" style="fill:#ff4b2b"/><path d="m101.7 58.92c-1.781-2.976-3.513-6.003-5.462-8.811-2.062 10.22-19.79 5.761-18.33-4.758-2.681 0.3729-4.707 1.402-7.577 1.586 6.431 7.957 16.83 13.23 31.37 11.98" style="fill:#fff"/><path d="m99.94 51.16c-0.8724-6.528-2.78-12.02-8.106-14.1-0.3418 0.539-0.7232 1.039-0.8816 1.762 5.521 1.587 6.661 7.555 8.987 12.33" style="fill:#ff4b2b"/><path d="m-9.667 15.39c-0.1506 2.324 0.9179 3.429 1.586 4.934 3.411-0.8774 6.384-2.193 8.458-4.405-1.693-0.5973-2.971-1.61-4.229-2.644-1.951 0.6925-3.939 1.348-5.816 2.115" style="fill:#c33027"/><path d="m7.251-2.234c-1.259 2.56-2.172 5.465-3.349 8.106 3.729 5.016 5.474-2.423 6.872-4.934-1.542-0.6897-2.574-1.89-3.523-3.171" style="fill:#c33027"/><path d="m-1.56 12.39c0.7108 1.285 2.416 1.577 3.523 2.467 1.946-1.639 3.557-3.611 4.759-5.992-1.603-0.1595-2.697-0.8276-3.701-1.586-1.171 2.059-3.274 3.187-4.58 5.111" style="fill:#493735"/><path d="m-11.96 15.74c-1.38-0.5648-3.572 0.756-5.815 0.1767-0.9398 1.495-1.001 3.785-0.5293 5.462 2.42 1.027 6.457 0.3069 8.635-0.5285-1.305-1.252-0.6787-4.45-2.29-5.111" style="fill:#493735"/><path d="m56.06 15.92c2.314 1.755 4.278-0.1672 5.111-2.115 2.57-6.012 1.965-17.8-0.5292-23.26-0.7885-1.728-2.512-3.634-4.229-2.996-0.7144 3.75 1.42 7.311 2.291 11.1 1.023 4.454 0.4625 10.17-1.41 14.27-0.4576 1.004-1.556 1.71-1.234 2.996" style="fill:#ffe6bf"/><path d="m72.8 12.92c1.764 0.9525 3.248 0.1009 3.876-1.233 1.67-3.538 2.206-11.57 0.3528-16.39-0.9105-2.367-3.774-6.947-5.992-3.877 1.529 2.179 2.861 5.052 3.349 8.106 0.7144 4.48-1.056 9.049-1.586 13.39" style="fill:#ffe6bf"/><path d="m83.73 13.98c3.719 3.379 5.362-4.264 5.64-6.696 0.4868-4.278-1.268-13.28-3.877-14.45-1.617-0.7228-3.076 0.5006-3.172 1.233-0.1584 1.217 1.553 2.286 2.115 3.348 2.569 4.858 2.106 12.42-0.7052 16.56" style="fill:#ffe6bf"/><path d="m8.836 18.91c-1.095 0.2434-2.659 1.149-1.761 2.467 1.754 2.579 6.577-3.536 1.761-2.467"/><path d="m110.7 31.95c3.216 0.4022 3.633-8.363-0.176-7.402-0.6625 0.1679-1.555 0.6865-1.762 1.586-0.3746 1.631 0.7687 5.669 1.938 5.815" style="fill:#ffe6bf"/><path d="m3.373 27.9c0.1319-3.586-5.636-4.108-7.401-1.41-1.387 5.352 7.265 5.155 7.401 1.41"/><path d="m-43.5 30.37c1.284 1.018 4.401 0.1252 4.582-1.234 0.4013-3.01-5.288-2.254-4.582 1.234"/><path d="m-11.96 30.9c0.3849-2.52-3.75-3.823-5.992-3.348-1.213 0.2568-2.592 0.6509-1.939 2.643 0.6303 1.923 7.516 3.417 7.931 0.7048"/><path d="m79.68 27.55c-2.711-0.1538-2.524 2.796-0.7045 2.995 1.766 0.1944 2.902-2.871 0.7045-2.995"/><path d="m69.46 27.9c-5.25 0.7705 2.069 6.662 2.644 2.115 0.2399-1.906-1.078-2.345-2.644-2.115"/><path d="m60.29 28.43c-4.855 0.1972-2.309 5.152 0.5288 4.934 2.942-0.2251 2.578-5.06-0.5288-4.934"/><path d="m-29.05 31.95c3.156-0.5913 0.1993-4.8-3.171-3.171-2.799 1.351 1.811 3.427 3.171 3.171"/><path d="m84.96 29.84c0.611 0.4304 1.679 0.4304 2.29 0-0.1707-1.143-2.271-1.479-2.29 0"/><path d="m27.69 56.09c1.891-1.227 3.663-2.363 5.286-3.348 2.483-1.506 4.452-3.415 7.578-3.877 1.646-0.2431 4.042 0.0441 5.639 0.8812 3.373 1.766 5.648 4.904 9.164 8.106 3.369 3.067 6.433 5.857 8.459 8.635 1.431 1.962 3.637 5.156 2.82 7.224-0.4727 1.197-3.263 2.843-4.934 3.349-5.41 1.637-14.48 0.08326-20.27-1.058-7.154-1.411-13.19-2.363-17.62-5.111-1.613-0.9998-4.578-3.708-4.757-5.991-0.3556-4.506 5.592-6.837 8.635-8.811zm1.233 18.68c3.306 1.178 7.753 1.826 11.98 2.819 7.165 1.682 17.96 3.497 24.32 0.5288 6.41-2.991 2.891-7.681-0.3524-11.98-3.288-4.364-7.568-9.256-11.45-12.51-3.446-2.886-7.285-6.662-13.04-5.991-3.76 0.4382-4.666 2.195-7.401 3.877-1.764 1.084-3.921 1.814-5.815 2.996-4.048 2.527-12.2 6.734-8.281 13.57 1.349 2.357 6.669 5.493 10.04 6.697"/><path d="m33.16 59.09c2.181-1.77 3.963-3.667 6.52-4.229 4.226-0.9289 6.444 3.122 9.163 5.992 2.249 2.372 4.199 3.809 5.463 5.816 0.454 0.719 1.119 2.574 1.057 2.995-0.5129 3.483-11.78 1.308-14.27 0.5288-3.352-1.049-11.52-1.833-12.16-5.11-0.5637-2.886 2.747-4.79 4.229-5.992zm-1.939 10.4c5.234 2.397 14 4.16 20.09 3.877 2.344-0.1087 5.672-0.6516 6.344-1.938 1.625-3.11-3.655-7.743-5.639-10.04-3.215-3.73-6.503-8.871-11.81-8.106-3.177 0.4586-11.5 6.845-12.51 9.34-1.427 3.532 1.097 5.761 3.523 6.872"/><path d="m43.55 65.44c1.724-1.999 0.02999-5.262-3.349-4.229-4.837 1.479 2.002 5.791 3.349 4.229" style="fill:#ffe6bf"/><path d="m-3.146 66.67h0.3514c1.904 0.8516 1.896 3.035 3.525 4.581 1.411 1.339 3.536 2.522 5.11 4.053 2.789 2.712 5.059 5.425 2.643 9.869-1.197-1.302-2.185-3.979-4.934-2.643-3.387-3.947-7.773-8.606-6.696-15.86zm2.467 15.51c1.304 2.011 3.624 2.857 4.758 4.582 0.914 1.39 1.221 4.673 2.114 5.111 2.434 1.189 5.146-7.2 5.287-8.988 0.06491-0.8124-0.03881-1.977-0.3528-2.82-1.378-3.699-5.988-6.383-8.811-9.868-1.552-1.916-2.959-5.62-5.991-4.758-3.44 0.9783-0.9021 7.584 0.1764 10.4 0.841 2.195 1.768 4.722 2.819 6.344"/><path d="m41.79 121.6c-2.432-2.29-5.139-7.08-6.744-11.27-0.5352-1.398-1.756-2.853-1.186-3.881 0.5016-0.9049 1.905-0.0885 2.8 0.5172 1.905 1.292 3.629 4.114 5.129 5.65 1.183 1.211 2.056 2.229 3.349 3.525 1.12 1.123 2.725 2.681 2.819 3.877 0.2787 3.527-4.025 3.603-6.168 1.586zm0.7048-9.693c-2.52-2.644-5.068-7.917-8.635-6.696-2.346 0.8019-0.4403 3.504 0.1753 5.11 1.807 4.707 4.804 10.57 8.108 12.86 2.128 1.478 6.88 1.299 6.872-2.819-0.0071-3.266-4.711-6.56-6.52-8.459"/><path d="m-8.962 200.9c-1.46 2.216-3.699 4.567-4.23-0.1767-0.6621-5.923 1.198-12.3 2.644-17.45 1.531-5.454 4.141-12.26 9.163-13.22 3.167-0.6015 8.849 0.6022 9.339 3.524 0.1588 0.9423-0.5923 3.073-0.8805 3.701-2.173 4.733-5.663 8.623-9.164 13.57-2.195 3.102-4.465 6.389-6.872 10.05zm18.5-27.31c-0.3281-3.371-8.199-5.781-11.45-5.286-3.598 0.5457-6.244 5.015-7.754 7.93-1.929 3.725-3.918 8.695-4.757 13.92-0.4987 3.103-1.61 14.28 1.057 15.15 3.371 1.101 5.85-4.326 7.225-6.344 4.061-5.965 7.637-10.16 11.28-16.04 1.115-1.802 4.684-6.474 4.405-9.34"/><path d="m26.64 186.5c2.167-0.587 3.092-6.38-0.3524-5.11-1.668 0.6138-2.836 5.975 0.3524 5.11" style="fill:#ffe6bf"/><path d="m-6.848 185.4c-1.136 1.441-0.6135 4.346-0.176 5.992 2.05-0.3944 4.843-4.162 3.525-6.344-0.6784-1.123-2.603-0.5934-3.349 0.3524" style="fill:#ffe6bf"/><path d="m16.94 197.8c-1.111 0.29-3.234 3.064-2.819 4.581 1.327 4.852 8.182-5.982 2.819-4.581" style="fill:#ffe6bf"/><path d="m5.665 212.8c-0.273 0.049-1.149 0.1612-1.41 0.3531-1.437 1.051-4.258 7.088-0.3531 6.871 2.539-0.1394 7.323-8.222 1.763-7.225" style="fill:#ffe6bf"/><path d="m104.2 259.1c4.753-0.1725 10.29 1.31 12.16 3.876 1.251 1.72 1.086 6.148 3.878 5.465 1.349-0.3309 1.257-4.997 0.8805-6.345-2.332-8.335-17.8-7.381-25.2-4.053-3.363 1.511-7.955 3.006-7.225 6.696 5.702-0.7892 8.494-5.385 15.51-5.638" style="fill:#ffe6bf"/><path d="m55.18 273.4c0.8294 2.126 0.8848 6.002-0.8812 6.698-2.096 0.8241-3.796-2.773-5.815-3.172 1.386-2.021 3.567-3.247 6.696-3.526zm-5.639 7.755c3.39 1.926 6.442 2.606 7.754-1.41 1.313-4.017 1.486-8.617-3.877-7.93-1.061 0.1361-2.242 0.4152-3.172 0.8819-1.29 0.6463-4.544 2.989-4.581 4.583-0.03351 1.444 2.835 3.283 3.877 3.876"/><path d="m98.53 276.5c3.833-0.3059 8.991 0.3827 11.45 1.762 0.7669 0.4297 1.963 1.702 2.996 2.642 0.7281 0.6646 1.94 2.873 3.17 2.467 0.8883-0.2928 0.9987-2.39 0.5292-3.7-0.5599-1.563-2.955-3.907-4.934-4.758-3.381-1.455-8.927-3.104-13.04-2.644-3.822 0.4276-6.829 2.099-9.692 3.35-1.523 0.6632-3.284 1.695-2.996 3.346 4.707-0.0685 7.198-2.042 12.51-2.466" style="fill:#ffe6bf"/><path d="m-28.17 272.5c-1.866-0.031-3.022-0.1615-3.172 1.233-0.3568 3.292 6.128 1.814 3.172-1.233"/><path d="m-16.01 280.8c-0.1139-1.213-2.536-2.123-3.701-1.587-3.421 1.578 4.083 5.666 3.701 1.587"/><path d="m-6.671 283.4c-1.113-1.681-3.858 1.187-3.348 3.349 1.899 2.537 4.645-1.385 3.348-3.349"/><path d="m5.312 287.1c-4.304-1.617-5.221 3.364-3.877 6.345 3.415 0.7422 3.276-4.266 3.877-6.345"/><path d="m15.18 300c1.991 0.6092 1.952-2.722 2.468-4.405 0.514-1.675 1.047-2.528 1.234-4.053-5.129-3.412-6.182 7.698-3.702 8.459"/><path d="m-31.52 298.8c-2.241-3.791 1.021-8.082 2.996-4.229 0.9797 1.911-1.633 3.348-2.996 4.229zm4.582-4.229c-0.3127-1.578-2.463-3.105-4.405-2.643-2.235 0.5303-3.2 8.245-0.7047 8.811 2.031 0.4586 5.676-3.312 5.11-6.168"/><path d="m27.16 308.3c1.488-0.2187 1.326-2.607 1.41-4.228 0.1669-3.243 1.411-6.075 1.763-8.812-0.756-0.417-1.982-0.4762-2.819 0-1.116 0.6357-3.252 5.512-3.173 8.284 0.05856 2.081 1.047 5.02 2.819 4.755"/><path d="m39.5 317.6c1.702-0.1658 0.9366-2.371 0.8802-4.23-0.1849-6.099 3.374-12.12 1.587-16.21-4.222 0.0893-4.983 5.526-5.463 9.869-0.3073 2.769-0.3814 4.964 0.176 7.049 0.3464 1.298 1.898 3.613 2.82 3.524"/><path d="m87.85 51.01c0.6625 0.1101 1.906-0.3711 2.195-0.725 1.399-1.713 0.9867-3.183-0.08537-4.33-0.9677-1.036-2.851-1.408-4.117-1.15-1.955 0.4004-2.011 2.761-1.25 4.256 0.5708 1.123 2.127 1.761 3.258 1.949"/><path d="m86.9 295.1c4.159-1.2 8.459-1.493 12.69-0.8812 4.332 0.6262 6.325 3.759 10.22 5.111 1.071-2.885-2.057-4.54-4.055-5.815-3.524-2.256-7.965-3.593-13.39-2.645-3.49 0.6117-10.44 2.395-9.869 4.406 0.4293 1.5 2.899 0.26 4.405-0.1757" style="fill:#ffe6bf"/><path d="m98.69 435.3c-0.6054-6.622-2.953-13.46-4.091-17.34 1.121-1.662 3.397-3.45 4.467-4.501 2.384-2.346 4.467-3.535 6.62-5.059 0.8879 3.524 1.696 6.336 2.287 7.772 0.5144 1.252 1.353 3.179 2.372 5.479-4.622 3.806-8.788 8.079-11.65 13.65zm-8.045-27.92c0.9462-1.552 3.361-3.327 5.072-4.664 2.791-2.184 5.222-4.082 7.578-4.406 0.0596 0.1834 0.1058 0.3775 0.1616 0.5609 0.4995 2.279 1.006 4.494 1.499 6.562-4.948 1.15-8.128 5.207-11.68 8.35-0.678-1.778-1.618-4.022-2.627-6.403zm-4.561-11.07c3.743-4.537 8.773-7.786 14.8-10.04 0.5637 3.009 1.212 6.248 1.894 9.472-5.328 2.099-9.155 5.694-13.25 9.024-1.281-3.016-2.554-6.05-3.451-8.456zm-1.24-4.357c0-1.323 0.03457-3.644 0.2134-6.219 1.175-6.491 4.734-13.05 6.607-18.79 2.417-7.391 5.326-13.65 7.931-19.56 0.0208-4e-3 0.03 7e-3 0.0487 4e-3 -0.1951 6.904-0.5016 21.26-0.665 25.65-0.05644 1.535 0.5373 5.652 1.458 10.78-6.139 2.06-10.72 5.683-15.43 9.169-0.103-0.4304-0.1637-0.7902-0.1637-1.044zm-72.48-159.3c0.8929 0.0628 3.99-4.019 4.625-4.711 1.598-1.741 3.122-3.55 4.601-5.392 2.996-3.732 5.755-7.66 8.317-11.7 5.26-8.293 9.801-17.06 13.68-26.08 2.511-5.835 4.634-11.83 6.516-17.9 1.406-4.533 2.94-9.577 6.277-13.11 3.385 0.3115 6.014 0.4731 6.984 0.647 1.669 0.2977 3.551 0.5828 5.542 0.8632-4.432 2.973-8.341 6.361-11.19 11.09-0.01023 0.018-0.02081 0.0349-0.0314 0.0533-3.956 6.58-6.031 14.2-8.32 21.47-1.763 5.599-3.469 11.22-5.455 16.75-3.109 8.653-5.942 17.99-8.283 27.84-7.093 0.8562-15.82 0.6907-23.26 0.176zm-4.759-0.176c-1.485 0.3708-4.196 0.0279-5.991-0.1767-1.974-0.2237-4.532-0.7945-6.167-1.41-1.908-0.7161-5.804-3.06-6.344-4.581-0.7709-2.169 0.9504-6.441 1.939-8.987 1.157-2.986 3.098-4.838 4.581-6.696 8.271-10.37 16.78-20.38 24.11-31.53 2.167-3.294 4.332-6.59 6.592-9.822 2.411-3.446 3.979-7.389 5.491-11.29 0.2367-0.6107 2.695-7.072 3.313-8.678 3.966 1.896 9.538 3.019 14.72 3.725-0.9574 1.747-2.081 3.431-2.95 5.608-3.546 8.891-4.68 18.76-7.788 27.84-4.017 11.75-10.85 23.54-18.62 33.22-2.384 2.97-4.982 5.78-7.781 8.364-1.581 1.458-3.802 4.079-5.111 4.406zm-26.08-41.59c2.052-10.9 5.494-20.47 10.5-27.73 1.699 0.0924 3.342 0.1263 4.82 0.1072 0.5027 0.0448 0.8925 0.0765 1.047 0.0744 2.052-0.025 4.098-0.2392 6.105-0.6622 3.369-0.708 6.645-2.179 9.397-4.259 5.924-4.477 11.35-7.816 14.36-14.93 0.2522-0.5951 0.6463-1.78 0.8213-2.469 0.03034 0.0406 0.06068 0.0864 0.08996 0.1263 0.3789 2.276 1.139 4.521 3.739 6.534 0.1859 0.1432 0.3856 0.2833 0.5874 0.4194-4.457 16.17-15.1 27.14-23.8 39.09-4.443 6.099-9.21 11.78-14.27 17.45-5.065 5.668-9.085 12.16-12.16 19.56-6.52-8.202-3.153-23.11-1.233-33.31zm4.229-31.72c-2.076-0.5263-4.59-1.245-6.167-2.115-4.332-2.39-7.551-4.826-10.22-9.164-1.074-1.744-2.679-4.078-3.173-5.638-1.082-3.422-1.468-7.538-1.41-10.57 0.268-13.87 13.36-23.85 24.67-27.49-2.466 1.595-4.819 3.715-7.05 5.992-4.197 4.282-7.641 9.082-8.635 16.92-0.5528 4.364 0.1271 10.32 1.585 13.57 1.757 3.906 5.998 8.017 10.22 9.868 3.701 1.623 10.79 2.698 14.98 1.939 7.185-1.305 12.97-7.128 16.21-13.04 1.768-3.228 3.238-8.384 2.643-13.57-0.8576-7.478-5.164-13.15-8.458-18.68 2.858 1.525 7.299 5.317 9.163 8.283 1.475 2.345 4.713 9.887 5.11 10.93 0.5091 1.326 1.139 3.48 1.41 4.758 0.9028 4.261-0.9035 9.388-2.82 12.69-2.608 4.494-9.263 10.08-14.1 12.86-6.37 3.672-15.17 4.695-23.97 2.467zm-28.2-51.1c1.748-2.071 4.214-3.423 6.696-4.759 1.404 3.176 2.285 6.876 5.286 8.454-1.327 1.219-2.585 2.546-3.71 4.033-3.824-1.51-6.198-4.47-8.272-7.729zm8.635-5.287c0.3072-1.62 3.356-1.737 4.758-2.115 0.01323 3.513 1.304 5.748 3.256 7.321-1.047 0.7698-2.095 1.572-3.119 2.424-1.102-0.1259-2.204-1.095-3.132-2.872-0.7116-1.362-1.901-4.027-1.763-4.758zm6.873-2.996c2.28-0.3517 5.991-0.7052 5.991-0.7052s1.49 3.6 2.11 4.773c-2.147 0.9017-3.235 1.457-4.903 2.647-0.2094 0.1503-0.4204 0.3013-0.6313 0.4533-1.755-0.5214-3.21-4.913-2.567-7.168zm11.45-33.66c0.8045 0.7165 2.996 3.876 2.996 3.876s-1.562 2.686-1.938 3.877c-2.727 8.62-1.484 19.36 1.938 27.31-0.6142 0.2378-1.175 0.5288-1.758 0.7987-0.364 0.1228-0.7285 0.2498-1.091 0.3803-5.626-9.671-5.123-26.48-0.1463-36.25zm-6.52-11.46c1.697-5.351 7.148-9.204 13.22-6.696 0.4484 0.8146-1.046 1.015-0.8816 2.114-4.946 0.7228-5.853 6.98-12.34 4.582zm-10.57-1.233c1.028-3.296 2.282-7.821 5.639-8.459 3.159-0.6001 6.312 1.186 9.868 1.41-2.86 2.015-5.705 4.045-6.872 7.754-3.579-0.1259-5.523-0.6851-8.635-0.7048zm-6.168-0.3524c-1.031-2.363-0.9475-6.501 0.5286-8.283 2.298-0.2875 5.81-0.2981 8.106 0-1.331 0.9204-1.649 1.845-2.29 2.643-1.312 1.632-1.647 3.876-2.468 5.815-1.54 0.0194-2.51 0.1863-3.876-0.1757zm40.18 49.69s2.212 2.598 4.405 2.291c1.689 7.028-1.673 18.42-9.692 17.45-3.191-0.3888-6.275-3.216-5.639-7.931 0.6078-4.505 10.93-11.81 10.93-11.81zm-2.963-7.661c0.4875 1.46 0.992 2.346 1.277 3.495-1.524 0.2417-5.24 0.8886-9.487 2.026-0.152 0.0102-0.3037 0.0222-0.4579 0.0261-0.8625-1.546-1.369-3.448-1.939-5.287 3.351-0.6332 6.98-0.2716 10.61-0.26zm-11.84-7.494c2.647 0.9578 6.722 0.2649 9.516 0.5288 0.677 1.625 1.821 3.685 1.762 5.463-3.885 0.308-7.1-0.03104-10.57 0-0.2407-1.886-1.078-4.072-0.7044-5.992zm0.1757-8.987c0.3565-2.404 1.067-4.455 1.938-6.344 2.085 1.439 2.639 4.411 4.229 6.344-1.162 1.275-4.255 0.412-6.168 0zm6.873 2.115c0.7197 1.864 1.498 3.671 1.762 5.992-2.923 0.2646-6.657 0.01305-9.164-0.7048 0.01281-1.846-0.2193-3.967 0.3526-5.639 2.189 0.2159 5.145 0.4173 7.049 0.3524zm14.27 54.28c-1.697 2.078-4.512 4.838-7.401 5.111-4.188 0.394-8.666-1.693-11.81-4.054-4.426-3.327-6.094-10.19-4.053-16.04 1.721 3.113 3.135 6.455 7.225 7.049 9.23 1.339 16.66-6.024 17.45-14.63h0.5295c2.846 7.123 3.023 16.48-1.939 22.56zm7.048-14.1c1.884 4.042 1.687 8.364 0.5288 12.51-1.695 6.074-7.344 12.72-12.34 14.98-7.414 3.355-20.2 0.1926-23.61-5.991-3.227-5.838-3.873-15.14 0.5282-21.67 0.08749 6.091 2.331 14.34 7.049 18.33 5.357 4.529 14.2 6.889 20.62 1.586 4.004-3.31 8.098-11.37 7.225-19.74zm-19.91-68.55c2.448 0.8879 4.226 4.477 5.815 6.873 0.6491 0.979 1.424 2.198 2.467 3.876 0.2773 0.4441 1.571 3.605 2.82 3.349 0.5119-0.1055 1.8-3.942 1.939-4.582 0.2078-0.9645-0.0314-1.939 0.1767-2.82 2.594-11.02 12.16-13.95 19.03-21.32 0.8438-0.9059 1.669-2.783 2.467-3.171 0.8611-0.4198 3.972-0.3782 4.758-0.3524 11.9 0.3778 19.82 4.516 25.73 11.1 2.004 2.234 4.229 4.827 6.52 7.225 3.783 3.959 5.895 8.734 12.69 9.515 3.126 0.3605 6.866-0.369 10.57-0.3521 3.544 0.01729 7.627-0.5129 10.93 0.1771 0.6939 0.1443 3.62 0.1707 4.399 0.4554 3.516 1.285 5.449 2.651 7.056 4.479 2.005 2.28 3.223 5.342 4.229 8.987-2.387 1.371-4.655 2.863-4.934 6.344-14.79-0.4124-23.47 8.807-35.07 13.57-3.259 1.339-7.126 2.636-11.81 2.468-12.6-0.4519-24.76-5.824-34.72-10.22-3.793-1.676-9.241-5.221-12.69-3.172-1.364 0.81-4.195 4.085-4.582 5.463-1.064 3.782 0.7341 5.708-0.176 8.459-0.5909 1.782-3.795 4.248-6.345 3.7-2.947-0.6325-4.561-6.428-5.639-9.692-1.13-3.419-2.989-7.141-4.405-10.75-1.389-3.536-3.38-6.727-5.286-10.04-1.806-3.142-4.869-5.839-6.168-8.987-2.372-5.749 3.498-13.01 10.22-10.57zm9.339-14.27c2.486-2.04 5.569-3.822 8.106-6.696 3.659-4.146 4.747-10.35 6.168-16.56 2.465-10.78 3.429-22.57 9.692-29.61 2.565-2.881 5.516-3.8 8.987-5.463 1.513-0.7239 2.687-1.865 4.229-2.467 1.807-0.7048 4.349-0.7034 5.991-1.762 1.396-0.8992 2.808 0.841 3.877 1.939-5.645 0.3743-10.38 2.827-13.39 6.52-3.404 4.179-4.577 10.41-5.816 16.56-0.8386 4.169-1.367 9.769-1.938 14.63-0.7447 6.325-1.704 12.95-4.504 17.43-2.751 4.4-6.552 6.892-9.771 10.41-4.039 4.418-9.383 8.295-10.22 16.21-3.354-3.11-6.446-8.003-11.98-9.516 1.584-5.553 6.347-8.161 10.57-11.63zm16.92-47.58c-3.161-6.4 2.459-10.82 9.164-9.517-2.947 2.752-5.387 6.01-7.225 9.869-0.4978 0.3246-1.275-0.2882-1.939-0.3521zm-5.287 2.291c-1.429 0.01446-2.819-3.086-2.468-4.935 0.4766-2.493 4.305-3.321 5.816-4.582-1.144 2.258-0.2332 5.47 0.3535 7.578-1.933-0.2328-2.485 1.927-3.701 1.939zm-4.758 6.696c-4.679-1.84-1.533-7.507 0.5285-9.868 1.021 1.446 1.513 3.421 2.996 4.405-1.096 1.9-2.34 3.652-3.524 5.463zm-7.402 6.344c1.177-2.641 2.09-5.546 3.349-8.106 0.9493 1.282 1.982 2.482 3.523 3.171-1.398 2.511-3.144 9.951-6.872 4.934zm-1.939 8.988c-1.107-0.8901-2.812-1.182-3.523-2.467 1.306-1.924 3.409-3.052 4.58-5.111 1.004 0.7588 2.098 1.427 3.701 1.586-1.202 2.381-2.813 4.353-4.759 5.992zm-10.04 5.463c-0.6682-1.505-1.737-2.611-1.586-4.934 1.877-0.7673 3.865-1.422 5.816-2.115 1.257 1.034 2.535 2.046 4.229 2.644-2.074 2.213-5.048 3.528-8.458 4.405zm-10.22 1.057c-0.4715-1.677-0.4105-3.968 0.5293-5.462 2.243 0.5793 4.436-0.7415 5.815-0.1767 1.611 0.6604 0.9846 3.859 2.29 5.111-2.178 0.8354-6.215 1.555-8.635 0.5285zm-1.586 0.1771c-2.786 0.02646-5.673 0.3087-7.93 0.3517-0.7007-2.564 0.08668-5.649 1.938-6.696 1.842-1.043 3.604 0.5334 5.991 0.5278-0.09839 2.003-0.2923 3.87 0 5.816zm-9.868 0.1757c-1.673-0.1041-5.064 0.02328-6.697-0.7048-0.2024-5.102 2.838-7.622 8.459-6.344-1.116 1.827-2.028 4.379-1.762 7.049zm-8.107-0.5285c-1.631-0.04586-3.157 0.01411-4.581 0.1757-1.841-3.967 1.15-6.543 5.111-6.344 0.5818 1.422-1.015 3.672-0.5296 6.168zm97.8-40c2.12 0.58 4.156 1.917 6.519 2.643 9.241 2.838 19.08 4.481 25.73 9.164 1.267 0.8936 3.641 2.412 4.229 3.348 1.03 1.641 1.201 4.46 1.233 6.168 0.1552 8.149-6.443 15.93-3.349 24.14-0.0099-0.02893-3.067-1.881-3.417-2.125-3.971-2.778-10.2-5.489-15.09-5.453-6.45 0.04833-13.3 1.062-19.53 2.765-2.772 0.7592-5.563 1.293-8.317 1.993-1.618 0.4113-3.275 1.751-5.111 1.586-2.377-0.2131-7.184-4.183-7.752-6.344-0.2914-1.104 0.2318-3.447 0.3517-5.286 0.302-4.665 0.4942-10.63 1.41-15.15 1.41-6.961 3.762-11.71 8.459-14.98 3.447-2.399 9.426-3.89 14.63-2.467zm40.35 29.08c0.6784-3.349 0.3789-6.847 0.5295-9.693 0.9924 1.28 5.94 4.726 6.168 6.168 0.3658 2.314-2.469 5.817-3.348 8.282-1.946 5.451-2.186 11.69-1.586 17.45-4.486-1.799-5.918-4.881-5.11-11.1 0.4614-3.55 2.545-7.138 3.348-11.1zm16.04 26.96c-2.687 0.9768-6.74 1.488-9.868 0.5285-5.154-4.159-3.934-17.46-1.233-23.61 1.046-2.381 2.535-3.962 2.82-6.344 6.125 6.694 7.99 18.32 8.281 29.43zm-25.38 1.586c0.1584-0.7232 0.5398-1.223 0.8816-1.762 5.326 2.075 7.233 7.569 8.106 14.1-2.327-4.78-3.466-10.75-8.987-12.33zm0.0035 5.093c3.916 1.591 3.787 6.295 2.111 7.947-4.262 4.206-14.06-1.025-12.86-6.872 5.308-1.32 7.046-2.581 10.75-1.075zm-7.933-7.736c2.081-0.5048 4.78-0.6569 6.697 0 0.02822 3.905-4.416 3.338-7.578 4.053 0.5659-1.08 1.114-2.176 0.8812-4.053zm-7.754 1.586c1.558-0.5577 3.259-0.9712 5.111-1.233 0.6354 3.696-1.982 5.649-5.287 5.991 0.4798-1.608 0.9327-3.086 0.1753-4.758zm-4.933 9.163c2.869-0.1842 4.895-1.213 7.577-1.586-1.464 10.52 16.26 14.97 18.33 4.758 1.95 2.808 3.681 5.835 5.462 8.811-14.54 1.25-24.93-4.027-31.37-11.98zm-7.05-5.815c4.097-0.2536 7.05-2.093 10.6-2.95 0.5182 1.668-0.3948 4.196-1.788 5.065-3.568 2.224-6.593 0.8851-8.811-2.115zm17.27 17.27c-7.752-0.06209-9.797-5.829-13.22-10.22 4.162 3.649 8.871 6.753 13.22 10.22zm37.05-3.179c0.6985 2.191 1.969 3.994 3.307 5.998 2.696 4.038 4.863 8.174 8.812 10.93 2.36 1.645 7.424 3.842 6.697 7.577-0.2822 1.438-3.392 4.046-5.465 4.229-2.033 0.1799-4.488-1.49-7.225-0.8812-2.783 0.6205-4.808 3.066-7.225 2.819-1.795-0.182-3.126-2.397-3.172-3.524-0.1475-3.636 3.809-3.629 6.168-5.11-2.414-6.652-5.071-12.05-9.868-15.86-0.8202-0.6519-2.099-0.9518-2.819-1.762-2.671-3.003-4.069-10.41-5.288-14.8-1.652-5.956-5.964-11.06-12.86-11.98-4.985-0.6678-10.05 1.248-15.15 1.938-5.638 0.7616-11.66 2.891-16.92 2.291-3.661-0.4184-6.464-2.422-9.868-3.525-4.265-1.381-8.917-2.203-14.8-2.115 0.87-2.655 1.711-5.338 2.467-8.106 2.37 2.226 6.11 5.138 10.75 4.405 5.801-0.9172 12.45-2.471 19.03-3.173 7.965-0.8481 18.01-0.9797 24.14 2.644 3.836 2.265 7.694 5.525 10.93 8.635 2.088 2.009 4.905 4.621 8.105 5.11 3.654 0.5584 6.218-0.9334 9.34-1.41 0.1884 5.305-0.6138 10.86 0.9225 15.68zm13.31 39.92c-5.674 1.48-10.17 3.413-13.52 6.956-3.839 4.049-6.289 10.2-10.05 14.1-1.281 1.331-2.937 2.436-4.933 3.172 0.1111 1.469 1.433 1.144 2.289 1.762 1.087 0.7853 1.933 2.303 2.996 3.348 4.358 4.284 8.799 10.23 17.8 9.516-2e-3 2.017-0.0804 3.505 0.1768 5.817-4.878 0.2163-8.038 0.9402-10.93 3.348-1.266 1.055-4.817 5.155-4.817 5.155s-6.485-1.349-9.28-1.808c-16.44-2.7-32.1-4.499-45.47-10.57-10.4-4.728-18.86-11.35-24.49-20.27-1.294-2.045-2.866-5.893-3.702-8.635-1.083-3.553-1.288-8.235 2.468-8.635 3.635-0.3866 7.472 2.549 10.04 4.053 2.5 1.463 4.701 2.933 6.519 3.877 4.559 2.369 8.912 4.955 14.63 6.344 3.547 0.8629 7.913 1.994 11.46 1.058 4.836-1.28 9.82-4.662 13.22-7.93 3.102-2.984 6.43-6.573 9.339-9.868 1.424-1.614 3.288-3.045 4.935-4.582 10.49-9.791 12.42-6.578 12.42-6.578s0.2692 1.861 3.972 2.701c5.481 1.245 8.327-5.547 11.1 0 0.3549 0.7123 0.2205 1.832 0.5288 2.996 0.55 2.082 1.743 3.389 3.304 4.674zm-9.472 10.3c-3.439 4.314-2.937 11.47-8.987 12.51 1.207-1.629 1.41-3.795 2.467-6.168 2.932-6.579 11.57-17.18 18.68-11.81-4.984-0.6237-9.587 2.236-12.16 5.463zm14.8-0.8812c-7.336-2.101-12.77 3.156-13.22 10.22-1.8 0.4322-3.344 1.122-5.288 1.41 1.748-5.648 5.386-14.31 13.04-15.15 2.506-0.2766 5.851 0.5694 5.465 3.525zm-0.8826 4.934c-4.191-0.9084-6.235 1.713-7.048 4.758-1.405 3e-3 -2.522 0.2978-4.052 0.1757 0.3426-6.119 6.194-10.96 11.98-8.283-0.0526 1.359-0.3418 2.479-0.8826 3.349zm-5.638 4.582c0.4516-2.101 2.148-3.808 4.758-3.172-1.04 1.506-2.452 4.588-4.758 3.172zm1.585 12.51c-2.258-0.6685-2.396-4.621-0.7038-5.992 1.318 0.823 1.283 4.387 0.7038 5.992zm-11.63-8.459c1.463-1e-3 2.769-0.296 4.404-0.5285-1.267 2.698-3.404 5.191-2.818 8.634 0.4741 2.798 2.73 4.202 3.876 5.992-2.938-0.3517-5.671-0.3383-7.048-1.939-2.969-3.444 3.379-8.12 1.586-12.16zm-7.049 7.226c-1.529-1.057-2.407-2.764-3.349-4.406 1.646 0.2678 3.294-1.539 4.406-1.233 1.981 0.5436 0.0769 4.678-1.057 5.639zm3.876 3.7c-1.078-0.8308-2.835-1.416-2.996-2.643-0.2448-1.892 3.382-4.322 1.587-7.049 1.225-0.1263 1.828-0.8742 3.348-0.7052 1.676 3.811-2.804 5.674-1.939 10.4zm11.1 2.291c-2.259 0.1711-5.092-3.36-5.288-5.991-0.35-4.707 4.298-10.86 7.93-6.169-1.768 1.947-2.775 4.307-1.409 6.873 0.4586 0.8632 1.846 1.359 1.937 2.115 0.1362 1.12-2.133 3.094-3.17 3.172zm-1.979 12.97s-2.791 1.244-4.19 2.012c-3.163 1.734-4.241 5.52-4.759 9.692-2.137 0.6653-5.236 0.1958-7.577 0 2.451-7.888 6.414-14.66 16.67-14.74 0.1238 1.407-0.1425 3.041-0.1425 3.041zm-7.361 11.17c-0.406-5.285 2.745-8.53 7.225-9.516 0.9398 4.115-1.986 9.356-7.225 9.516zm-19.21-0.8805c-9.184-0.5147-18.2-2.488-27.14-4.566-8.085-1.881-16.26-3.495-23.94-6.753-3.521-1.494-7.089-3.303-9.901-5.951-1.07-1.008-2.599-3.237-3.877-5.287-2.808-4.505-4.413-8.06-7.401-12.69-3.763-5.828-7.487-12.88-9.163-20.79-0.9059-4.276-1.918-10.54 2.115-11.63 3.742-1.014 8.55 2.278 11.63 3.701 7.597 3.513 13.91 6.289 22.38 8.987 6.247 1.991 12.54 3.15 19.21 1.234 7.407-2.129 13.23-6.432 19.21-10.22 3.67-2.328 7.391-4.061 11.81-5.64h0.351c-5.544 4.182-10.18 8.327-14.8 13.57-3.202 3.631-6.442 7.417-11.1 10.22-1.522 0.9158-3.04 2.264-4.405 2.643-4.91 1.363-11.46-0.6653-15.68-2.115-6.242-2.144-11.48-5.963-16.74-8.987-2.816-1.619-6.376-3.631-9.34-4.405-5.181-1.355-9.189 1.654-9.339 6.52-0.07479 2.389 1.321 5.543 2.291 7.577 3.265 6.848 8.23 12.64 13.57 17.45 5.707 5.134 11.8 8.483 19.74 11.28 7.768 2.735 15.76 5.041 24.32 6.696 8.67 1.678 17.84 2.274 26.26 4.405-1.245 3.749-4.82 5.051-10.04 4.759zm-97.27 110.3c5.445 0.6678 12.06 0.7461 18.5 1.233 6.116 0.466 11.92-0.8858 17.8-0.7034 5.553 0.1714 10.86-0.5934 16.21 0 5.368 0.5948 9.876 2.618 8.987 8.987-0.9895 7.093-4.997 12.53-7.401 18.86-10.49-8.259-26.33-10.46-41.59-14.28-7.41-1.849-15.2-3.729-22.2-5.815-6.992-2.079-13.6-4.789-17.27-10.57 8.517-2.931 18.58 1.262 26.96 2.29zm53.92 80.71c1.631 4.382 2.329 9.624 1.586 13.92-0.4406 2.544-2.29 5.45-3.525 8.103-3.68 7.909-9.289 14.39-14.1 20.8-6.843 9.116-13.53 17.13-18.15 28.2-4.013 0.949-9.273 0.0353-12.51-1.764-8.413-4.671-15.14-11.88-21.68-19.56-4.485-5.267-8.963-11.57-12.86-18.15-0.8202-1.383-3.702-5.831-3.7-6.519 0.0021-0.9631 2.93-4.576 3.348-5.817 4.77-14.18-1.844-27.94-6.519-40.18-3.591-9.402-7.941-19.6-6.345-31.02 0.4625-3.307 2.712-9.752 5.286-9.514 1.597 0.1457 5.43 3.261 7.401 4.581 5.084 3.404 9.522 6.017 14.98 8.811 16.07 8.226 34.02 15.86 47.93 26.79 3.902 3.066 8.047 6.385 11.1 9.871 2.735 3.119 6.32 7.602 7.754 11.45zm-94.1-74.72c0.6252-3.654 5.96-5.733 8.986-7.049 6.352 9.062 17.16 11.74 29.96 15.33 11.68 3.276 23.75 4.591 34.72 8.635 4.951 1.825 11.27 4.076 14.45 7.226 3.9 3.864 0.8438 9.744-0.5288 15.16-1.499 5.913-3.678 11.5-1.762 17.44-1.053 0.2999-1.492-0.8961-2.115-1.408-8.209-6.734-18.18-12.45-28.02-17.98-3.531-1.983-7.256-3.63-10.75-5.814-10.43-6.511-21.3-11.94-31.72-18.33-1.667-1.023-3.357-2.162-5.111-3.173-3.364-1.939-9.129-4.063-8.105-10.04zm153.5 148.9c-2.201-4.805-5.876-14.75-7.342-19.83-0.9825-3.397-2.454-10.41-3.656-16.44-2.262-17.08-2.262-37.3 2.862-52.07 1.553-4.473 4.626-7.56 6.697-11.63 2.074-4.078 4.02-8.195 6.344-12.34 2.205-3.935 4.374-7.828 6.168-12.51 3.241-8.472 7.651-19.42 5.286-31.01-0.5422-2.659-1.908-5.64-2.819-8.284-2.26-6.555-5.815-9.726-10.75-13.92-10.18-8.66-28.96-9.911-46.35-9.517-10.67 0.2424-22.07-0.4611-32.42 0.1767 2.241-12.13 5.703-22.7 9.692-33.48 4.108-11.11 6.143-22.13 11.63-31.54 2.114-3.626 4.686-5.974 8.811-8.459 1.452-0.8735 3.751-2.019 5.64-2.924 4.519 0.58 9.108 1.153 12.8 1.767 12.43 2.071 22.49 1.425 25.29 1.178 3.257 0.1323 7.055-0.3563 9.319-1.606 2.14-1.181 5.551-5.797 5.992-8.812 0.3373-2.305 0.1856-5.143 0-7.754-0.1404-1.993-0.1767-7.225-0.1767-7.225s1.599-0.6928 2.292-1.41c2.23-2.305 3.097-4.212 3.422-5.976 0.532-2.873-0.6816-6.484-1.308-9.531 5.275-2.243 10.31-11.02 5.993-16.92-0.8809-1.203-2.046-2.367-3.173-3.172-1.844-1.318-2.649-1.749-4.582-3.525-1.886-1.732-1.668-3.868-1.585-4.582 0.1789-1.537 3.294-2.662 4.758-3.701 2.885-2.045 6.188-5.575 2.996-9.516-1.815-2.241-4.359-3.239-6.343-4.758-3.875-2.964-7.376-7.834-9.34-12.69-1.095-2.705-1.046-5.686-1.057-8.811-0.0145-3.391-0.4194-7.206-0.7056-10.93-0.2688-3.48-0.5126-7.005-0.7045-10.4-0.7698-13.49-6.969-21.76-14.63-28.9-2.009-1.874-3.881-4.074-5.992-5.64-8.499-6.301-19.09-8.534-29.78-12.51-3.526-1.311-7.269-2.06-10.57-3.524-3-1.33-6.336-4.257-9.515-5.463-1.5-0.569-3.113-0.4942-4.406-1.41-1.702-1.204-2.008-3.452-3.349-5.639-4.318-7.044-13.33-11.75-22.91-13.92-10.7-2.427-21.79-3.32-33.48-1.235-9.497 1.693-18.33-0.7408-25.88 3.058-0.3955 0.1997-2.439-0.665-2.439-0.665l-0.1233 12.96c7.202-3.952 15.31-8.568 24.92-11.13 11.93-3.175 27.34-2.233 38.42 1.233 1.244 0.3895 2.738 0.4441 3.877 0.8816 1.506 0.5778 3.21 1.924 4.934 2.819 5.182 2.689 9.467 5.619 11.45 11.1-7.451 1.999-11.11-3.662-15.33-6.168-5.495-3.259-14.4-4.304-23.61-3.701-6.625 0.4339-13.84 0.5916-19.21 2.114-4.326 1.227-8.374 3.691-12.69 5.287-4.721 1.747-8.551 4.22-12.76 6.05v3.776c6.23-3.046 13.35-6.075 20.87-8.241 4.11-1.183 8.549-1.901 12.86-2.995 10.89-2.76 22.25-1.728 30.13 2.995 0.9278 0.5563 1.888 1.836 2.996 2.467 1.293 0.738 3.104 1.269 4.758 2.115 3.417 1.746 6.365 2.874 10.75 1.585-3.707 3.182-11.31 1.256-15.51 3.349-6.555-11.19-24.06-10.62-37.36-6.697-10.73 3.167-20.56 7.359-29.5 10.64v1.719c10.12-3.194 20.09-7.794 30.91-10.6 11.86-3.076 27.42-3.879 33.83 5.463-2.172-0.09596-3.491 2.777-5.287 2.819-1.104 0.02611-2.093-1.353-2.819-1.762-9.532-5.377-23.79-1.441-33.66 1.938-7.605 2.603-15.26 6.72-22.98 9.239v1.31c6.894-1.803 13.56-4.608 20.51-7.376 3.601-1.434 7.706-2.389 11.81-3.525 6.195-1.716 13.33-3.244 19.74-1.234 1.303 0.4089 5.24 2.312 5.287 2.996 0.04657 0.6865-2.291 1.904-2.82 2.467-1.325 1.412-2 3.4-3.524 4.229-8.74-6.275-21.73-3.084-32.78 0-6.688 1.867-12.97 4.494-18.22 6.593v1.583c11.77-3.511 24.72-9.514 38.14-9.586 4.784-0.02575 8.696 1.278 11.81 3.525-1.073 2.569-2.298 4.986-4.054 6.872-13.24-6.446-32.26-0.3888-45.89 3.138v1.519c13.67-2.906 31.15-8.615 44.13-2.896-7.801 10.01-30.64 4.603-44.13 8.571v11.99c0.02563 0.1362 0.05333 0.2727 0.07317 0.4071-0.02122 0.01482-0.0503 0.02258-0.07317 0.03634v2.556c1.177-0.2963 2.334-0.6636 3.596-0.8301 3.656-0.4812 7.626 0.2388 11.46 0.5295 2.989 0.2265 6.034-0.381 8.986-0.3524 1.549 0.01411 3.08 0.3351 4.582 0.3524 8.127 0.08855 16.27-3.836 20.97-8.811 3.691-3.905 5.39-9.546 7.93-14.45 1.802-3.478 4.313-7.358 8.987-8.106-4.024 11.52-4.555 27.63-11.81 36.65-1.177 1.464-2.703 2.781-4.406 4.229-1.36 1.156-3.143 3.24-4.758 3.877-2.35 0.9267-6.436 1.215-9.34 1.41-6.311 0.4233-11.65-0.997-17.62-2.115-6.218-1.165-12.73-2.811-18.58-1.349v2.407c9.247-2.967 20.57 1.884 30.03 2.642 4.274 0.3433 7.811 0.0441 11.81-0.5285-0.9737 1.204-2.042 2.361-2.996 3.524-0.6294 0.7687-1.254 2.473-2.29 2.82-1.583 0.5306-5.227-1.111-7.754-1.586-8.801-1.653-21.11-3.149-28.8-0.8227v2.01c1-0.3806 2.075-0.6844 3.596-0.8354-1.037 2.626-0.6465 5.685-0.5276 8.459-1.061 0.1923-2.114 0.3926-3.069 0.6904v2.36c7.411-3.072 18.25-0.09066 26.68 0.4738-0.4439 2.557 0.9639 6.751 0.9639 6.751-1.143 2.598-1.973 4.163-2.374 5.056-7.069-1.124-18.46-1.469-25.27 1.852v1.94c6.149-3.286 16.47-3.029 24.74-2.206-1.354 4.227-2.609 8.552-3.172 13.57-8.252 1.556-16.53 3.089-21.57 7.855v2.252c4.978-5.02 13.05-6.899 21.57-7.993-0.1089 3.967 0.5508 7.19 1.057 10.93-7.076 0.29-14.44 3.624-19.38 6.696-1.025 0.6357-2.236 1.538-3.244 2.628v3.283c0.1815-0.1295 0.3799-0.2282 0.6007-0.2716 1.85 3.623 4.863 6.081 8.531 7.886-0.9742 1.489-1.814 3.129-2.465 4.964-2.319-0.4822-4.484-1.634-6.667-1.948v1.612c1.936 0.719 3.98 1.33 6.218 1.748-0.5033 1.756-0.8403 3.679-0.9712 5.799-0.9949 0.2198-1.921 0.363-3.237 0.3803-0.5631 7e-3 -1.311-0.0677-2.01-0.0857v1.811c1.699 0.1926 4.017 0.066 5.18 0.0392 0.0036 0.9303 0.04438 1.893 0.1243 2.895 0.05027 0.6149 0.1184 1.214 0.1953 1.804-1.382 0.8798-3.59 0.9328-5.5 1.284v1.549c1.791 0.1902 4.342-0.459 5.854-0.6286 0.3437 1.777 0.8076 3.433 1.367 4.976-0.2084 0.8336-0.8387 1.559-2.215 2.214-0.768 0.3651-3.239 0.5175-5.006 0.896v1.83c1.904 0.0543 4.636-0.4314 5.183-0.611 1.548-0.5101 1.847-1.318 3.03-1.903 0.5381 1.171 1.131 2.265 1.764 3.287-1.98 2.351-5.168 3.573-9.024 4.607-0.2417 0.0646-0.5868 0.1242-0.954 0.2032v1.775c2.037-0.2614 5.105-1.147 5.888-1.449 2.395-0.9218 3.721-2.148 5.253-3.389 0.9138 1.273 1.886 2.414 2.879 3.441-2.615 4.28-6.603 7.615-11.66 9.641-0.5951 0.2385-1.526 0.3785-2.363 0.672v2.002c6.886-1.439 11.97-5.723 15.68-10.72 1.128 1.008 2.258 1.871 3.338 2.605-3.114 8.622-10.17 13.31-19.01 16.2v2.77c1.548-0.3888 3.02-0.8114 4.654-1.187 8.593-1.974 13.54-8.357 16.77-16.3 0.46 0.254 0.9032 0.4833 1.318 0.684 1.249 0.6043 2.935 1.093 4.842 1.48-1.589 2.395-2.023 6.436-3.899 8.672-0.4838 0.5764-1.858 1.333-2.819 2.114-5.307 4.316-11.17 7.412-19.91 8.635-0.2937 0.0409-0.6251 0.097-0.954 0.1746v2.248c1.739 4e-3 4.28-0.3048 5.006-0.4851 6.624-1.636 11.17-4.361 15.86-7.577-1.826 2.949-1.862 5.615-3.701 8.283-2.38 3.454-10.05 5.301-14.45 4.934-0.6583-0.0543-1.757-0.4512-2.716-0.6195v2.168c1.795 0.4209 4.334 0.5658 5.006 0.5666 4.327 7e-3 8.265-1.434 10.4-2.643-0.1993 2.326-1.503 3.548-1.587 5.991-2.382 1.135-6.84 2.642-10.92 2.291-0.6783-0.0586-1.883-0.447-2.892-0.6548v1.937c1.513 0.6001 3.536 0.9596 4.126 1.009 3.672 0.3044 6.429-0.7934 8.635-1.585-0.6991 2.648-1.706 4.99-1.938 8.106-3.046 0.8015-7.648 0.5715-10.82-0.0931v1.998c2.51 1.484 7.177 0.9998 10.12 0.914-0.5064 2.608-1.066 5.162-1.41 7.931-2.42-0.3341-6.425-1.88-8.708-0.9091v2.209c2.85-0.3221 6.478-0.0191 8.708 1.166-0.7225 2.666-0.2724 6.561-0.3528 9.163-1.46-7e-3 -4.011-0.9818-6.345-0.7048-0.6105 0.0723-1.355 0.1732-2.01 0.4096v2.405c2.785-0.5729 5.795-0.6699 8.708 0.5345 0.6453 2.61 1.444 5.768 1.938 8.281-3.87-0.5281-8.319-0.3242-10.65 1.806v2.122c2.442-1.03 5.521-2.096 9.059-1.637 0.873 0.1129 2.351 0.0755 2.821 0.3528 1.678 0.9899 1.728 6.066 3.524 7.225-6.141-0.9359-11.97 0.5112-15.4 3.606v1.269c5.557-1.598 12.93-4.591 18.75-1.704 2.499 1.24 4.198 3.974 6.168 5.287-7.44 0.604-15.08 1.913-20.44 4.758-1.574 0.835-3.251 1.735-4.479 3.026v9.492c1.078 1.339 2.5 2.676 3.596 3.694 1.596 1.48 3.46 2.515 4.582 3.876-1.15 0.7066-2.623 5.087-4.405 5.288-1.348 0.1524-2.674-1.155-3.773-2.445v2.691c0.954 0.6654 2.259 1.025 3.596 1.34-0.463 2.12-1.763 3.406-1.762 5.99-0.7665 0.0773-1.338-0.2786-1.835-0.6304v2.036c0.5526 0.2363 1.17 0.4078 1.659 0.7087 0.03238 2.688-0.3839 5.219-0.1757 7.576-0.527 0.3317-1.024 0.0954-1.483-0.2018v1.93c0.5954 0.1339 1.275 0.141 1.835 0.2115 0.1112 3.239 1.313 5.383 1.762 8.283-1.626 0.1976-2.684-0.6208-3.596-1.213v2.367c1.091 0.642 2.759 0.6597 4.302 0.4304 0.7355 2.614 2.098 4.6 2.643 7.401-2.394 0.2611-5.287 0.0212-6.945 1.016v1.76c2.144-0.8749 5.727-2.067 7.65-0.6633 1.512 1.108 0.8828 3.736 1.762 5.641-3.479-0.2822-7.559 1.898-9.412 4.791v4.706c0.8596-4.406 5.818-10.05 9.941-6.854 2.585 2.007 3.992 9.158 4.406 13.57 0.5858 6.237-1.318 11.78-4.229 14.8-2.92-4.526-5.188-9.289-7.754-14.8-0.643-1.383-1.976-3.171-2.363-4.473v13.26c2.818 6.844 7.42 12.89 11.17 19.06 7.861 12.92 15.95 26.18 27.14 35.25 4.39 3.556 8.413 6.83 14.27 8.985 3.776 1.393 10.06 2.681 9.164 8.107-0.2399 1.45-1.875 3.648-2.82 5.461-4.821 9.267-10.64 16.44-16.04 25.03-3.079 4.897-6.194 8.834-7.301 14.74h4.849c4.203-8.015 10.81-14.64 15.49-22.67 2.497-4.276 4.685-9.098 6.696-14.27 3.931-10.12 7.317-22.01 12.86-30.66 4.623-7.207 11.16-12.74 16.92-19.73 1.4-1.7 2.643-4.046 4.053-5.994 7.253-10.03 13.8-26.73 8.635-42.29-1.701-5.119-4.326-8.082-5.992-12.33-1.647-4.209-0.5616-10.14 0.5292-14.8 0.8982-3.842 1.5-7.535 2.82-11.1 2.73-7.38 6.617-12.72 9.516-19.21 3.168-7.092 1.975-14.46-4.23-17.8-6.173-3.322-18.47-3.394-26.79-2.643-9.336 0.8431-17.29 0.562-26.96 0.1746-26.4-1.056-42.8-16.27-41.59-44.05 0.1698-3.871 0.4848-7.577 1.057-11.1 0.5486-3.377 1.924-6.444 2.82-9.517 2.846-9.771 6.634-17.52 10.93-26.26 0.4117-0.8378 2.039-5.039 3.599-6.381 0.4983 0.0667 1.002 0.1259 1.51 0.182-0.2506 1.034-1.951 4.117-2.113 4.435-0.9743 1.942-1.937 3.318-2.643 4.935-1.623 3.718-2.976 7.882-4.229 10.93-2.22 5.388-3.836 10.75-5.287 17.45-0.4598 2.117-1.235 4.294-1.41 6.167-0.4366 4.684 0.3638 9.64 1.234 13.22 1.053 4.334 3.992 8.631 6.872 10.93 9.996 7.967 25.94 8.872 43.35 9.516 7.204 0.2671 15.06-1.178 22.91-1.937 18.5-1.791 38.27-1.802 55.51 2.114 8.996 2.044 18.32 5.666 22.2 12.86 0.7701 1.426 1.432 3.554 2.114 5.463 2.087 5.836 2.25 11.91 1.41 19.56-0.4452 4.053-2.526 8.455-4.053 12.86-1.49 4.303-3.257 8.298-5.11 11.63-4.111 7.394-8.05 14.57-12.16 21.32-4.148 6.812-7.64 14.76-11.28 22.38-5.644 11.82-9.973 23.59-14.27 36.13-1.424 4.152-2.816 8.304-4.406 12.33-3.286 8.34-5.447 16.93-8.634 24.85-3.204 7.959-6.872 15.68-9.868 23.79-2.275 6.16-4.012 12.39-6.345 18.86-1.204 3.337-3.245 6.512-3.985 10.69h5.25c6.73-19.91 13.33-40.74 21.12-58.97 2.899 10.65 1.933 24.99-0.7052 34.36-2.565 9.116-7.76 16.85-11.42 24.61h7.361c4.073-9.179 7.918-18.3 9.879-29.55 1.08-6.195 2.058-12.78 1.058-18.86-0.7204-4.374-1.587-9.006-2.468-13.57-0.2551-1.323-1.088-3.256-1.057-4.23 0.04269-1.344 1.563-3.267 2.115-4.583 0.7793-1.856 1.276-3.44 1.939-4.759 4.471 14.87 14.88 30.72 11.28 49.52-0.9218 4.808-2.606 9.645-3.878 14.45-1.031 3.898-2.441 7.712-3.575 11.57h9.588c1.576-15.28 6.585-30.31 15.31-39.77 0.9994-1.08 2.979-3.701 4.47-3.531 1.467 3.228 2.987 6.548 4.352 9.504-0.3902 0.9948-1.417 2.272-1.951 3.369-4.125 8.484-6.372 18.25-3.876 29.61 0.0533 0.2469 0.1044 0.5292 0.1637 0.822h2.072c-0.7786-4.819-1.631-10.61-0.8255-15.98 0.8886-5.927 3.191-11.26 5.587-15.29 1.518 3.27 2.714 5.807 3.209 6.798 5.418 10.83 3.043 20.26 1.425 24.47h7.653c0.9786-2.829 2.37-8.237 2.487-16.39 0.1528-10.45-14.93-27.58-19.27-37.08"/></g></svg>
