<?xml version="1.0" encoding="utf-8"?>
<!-- Svg Vector Icons : http://www.onlinewebfonts.com/icon -->
<!DOCTYPE svg PUBLIC "-//W3C//DTD SVG 1.1//EN" "http://www.w3.org/Graphics/SVG/1.1/DTD/svg11.dtd">
<svg version="1.1" xmlns="http://www.w3.org/2000/svg" xmlns:xlink="http://www.w3.org/1999/xlink" x="0px" y="0px" viewBox="0 0 1000 1000" enable-background="new 0 0 1000 1000" xml:space="preserve">
<metadata> Svg Vector Icons : http://www.onlinewebfonts.com/icon </metadata>
<g><g transform="translate(0.000000,512.000000) scale(0.100000,-0.100000)"><path d="M4504.7,5000.5C4391.7,4969.9,189.8,2957,141.9,2913c-55.5-51.7-55.5-113-1.9-162.8c36.4-32.6,1767.7-869.5,2106.7-1017l88.1-38.3l11.5,44c9.6,34.5,191.5,136,930.8,519c915.5,475,921.2,476.9,909.7,530.5c-23,134.1,109.2,277.7,308.3,331.3c363.9,97.7,775.7-107.3,697.1-346.6c-30.6-90-151.3-193.4-270-227.9c-111.1-32.6-319.8-40.2-409.8-13.4c-53.6,15.3-141.7-26.8-938.4-440.5c-482.6-250.9-892.5-469.2-907.8-486.5c-26.8-24.9-24.9-32.6,7.7-65.1c21.1-21.1,440.5-227.9,932.7-461.6c863.7-409.9,898.2-425.2,1034.2-432.8c90-7.7,172.4,0,235.6,17.2c128.3,36.4,4316.8,2035.8,4372.4,2087.6c53.6,49.8,53.6,111.1-1.9,162.8c-23,23-448.2,233.7-942.3,469.2C5491,4724.8,4945.2,4983.3,4876.2,5002.4C4784.3,5027.3,4594.7,5027.3,4504.7,5000.5z"/><path d="M1802.4,1043.8V417.5l49.8-105.3c47.9-105.3,139.8-239.4,153.2-226c7.7,9.6,181.9,1398.1,176.2,1403.8c-3.8,3.8-90,44-191.5,91.9l-187.7,88.1V1043.8z"/><path d="M6245.6,1028.4C5535.1,685.6,4903,392.6,4839.8,375.4c-114.9-28.7-224.1-23-356.2,17.2c-36.4,11.5-432.8,197.3-877.2,411.8c-446.2,212.6-817.8,388.8-825.4,388.8c-7.7,0,38.3-417.5,101.5-928.9l114.9-928.9l159-65.1c821.6-344.7,1716-404.1,2552.9-170.5c808.2,224.1,1539.8,712.5,1773.5,1183.6l65.1,134.1l-3.8,616.7l-5.7,618.6L6245.6,1028.4z"/><path d="M2449.7,1260.2c-5.7-30.6-82.3-607.1-170.4-1277.4l-159-1220l46-49.8c57.5-61.3,147.5-86.2,306.4-86.2c137.9,0,272,49.8,304.5,111.1c15.3,28.7-19.2,344.7-141.7,1279.4C2447.8,1444,2465,1334.9,2449.7,1260.2z"/><path d="M8725.8-884.8c-136-34.5-409.9-111.1-605.2-170.4c-750.8-222.2-1852-528.6-1907.5-528.6c-7.7,0,28.7-24.9,84.3-55.5c185.8-101.5,339-264.3,432.8-453.9c30.7-65.1,57.5-88.1,139.8-120.7c197.3-82.4,317.9-275.8,327.5-522.9l3.8-145.5l155.1-220.3l155.1-218.3l413.7,101.5c227.9,57.5,582.2,137.9,789.1,181.9c662.6,137.9,701,151.3,861.8,296.9c185.8,166.6,302.6,432.8,321.7,735.4c32.6,503.7-310.3,1047.6-731.6,1158.7C9016.9-808.2,9015-808.2,8725.8-884.8z"/><path d="M5575.3-1746.7c-339-88.1-1541.7-317.9-2413.1-459.6c-237.5-38.3-444.3-72.8-459.6-78.5s42.1-49.8,143.6-109.2c227.9-132.2,553.5-453.9,683.7-674.2c306.4-520.9,298.8-1105.1-19.2-1511.1c-47.9-63.2-76.6-109.1-61.3-103.4c511.4,218.3,1511.1,593.7,2072.2,781.4l356.2,118.8l193.4,434.7c187.7,419.4,193.4,434.7,172.4,509.4c-47.9,174.3,30.6,430.9,170.4,547.8l76.6,63.2l-78.5,113C6195.8-1804.1,5881.7-1668.1,5575.3-1746.7z"/><path d="M1911.5-2426.6C1471-2543.4,1178-2826.8,1065-3240.5c-65.1-247.1-57.5-649.3,19.2-900.1c47.9-157.1,42.1-155.1,218.3-74.7c137.9,63.2,155.1,74.7,143.6,111.1c-59.4,180-63.2,471.1-9.6,641.6c174.3,561.1,771.8,735.4,1279.4,373.5c298.8-212.6,469.2-563.1,436.7-888.7c-34.5-337.1-247.1-524.8-593.7-524.8c-166.6,0-310.3,59.4-450.1,191.5c-279.6,260.5-294.9,702.9-30.6,852.3c90,49.8,243.2,55.5,327.5,11.5c72.8-38.3,206.8-178.1,247.1-256.6l30.6-61.3l113,49.8c107.3,45.9,113,51.7,95.8,99.6c-9.6,26.8-55.5,99.6-99.6,159c-331.3,440.5-875.2,471.1-1097.4,63.2c-187.7-344.7-80.4-819.7,254.7-1118.5c321.7-287.3,752.7-348.6,1120.4-162.8c128.3,65.1,300.7,229.8,365.8,348.6c199.2,365.8,128.3,871.4-181.9,1290.8c-229.8,310.3-578.4,549.7-911.6,620.5C2177.7-2380.6,2072.4-2384.4,1911.5-2426.6z"/><path d="M6578.8-2424.6c-74.7-46-141.7-180-141.7-285.4c0-185.8,145.5-367.7,291.1-367.7c78.5,0,174.3,67,220.3,153.2c59.4,113,57.5,233.7-5.7,360C6862.3-2401.7,6711-2344.2,6578.8-2424.6z"/><path d="M7048.1-3146.6c-24.9-26.8-82.4-69-124.5-90l-80.4-42.1l128.3-371.6l130.2-371.5l90,157.1c97.7,168.5,91.9,166.6,266.2,137.9l90-15.3l-32.6,49.8c-38.3,61.3-388.8,561.2-407.9,582.2C7101.7-3102.6,7074.9-3117.9,7048.1-3146.6z"/><path d="M6197.7-3598.6c-101.5-243.2-193.4-463.5-203-490.3c-15.3-42.1-1.9-36.4,180,59.4l195.4,103.4l134.1-105.3c86.2-67,136-95.8,137.9-78.5c5.7,34.5,101.5,792.9,101.5,806.3c0,5.7-46,19.2-103.4,32.6c-55.5,11.5-130.2,44-166.6,68.9c-34.5,26.8-69,47.9-76.6,47.9C6391.1-3154.3,6301.1-3353.5,6197.7-3598.6z"/><path d="M2195-3631.2c-72.8-30.6-95.8-78.5-93.8-193.4c3.8-287.3,283.4-520.9,559.2-463.5c126.4,26.8,185.8,63.2,233.7,141.7c34.5,57.5,70.9,237.5,51.7,256.6c-3.8,5.8-80.4-19.2-166.6-55.5c-174.3-72.8-224.1-70.9-252.8,3.8C2432.5-3694.4,2311.8-3583.3,2195-3631.2z"/></g></g>
</svg>