<?xml version="1.0" encoding="UTF-8" standalone="no"?>
<!-- Created with Inkscape (http://www.inkscape.org/) -->

<svg
   xmlns:dc="http://purl.org/dc/elements/1.1/"
   xmlns:cc="http://creativecommons.org/ns#"
   xmlns:rdf="http://www.w3.org/1999/02/22-rdf-syntax-ns#"
   xmlns:svg="http://www.w3.org/2000/svg"
   xmlns="http://www.w3.org/2000/svg"
   xmlns:sodipodi="http://sodipodi.sourceforge.net/DTD/sodipodi-0.dtd"
   xmlns:inkscape="http://www.inkscape.org/namespaces/inkscape"
   width="292.08701mm"
   height="38.841282mm"
   viewBox="0 0 292.08701 38.841282"
   version="1.1"
   id="svg8"
   inkscape:version="0.92.3 (2405546, 2018-03-11)"
   sodipodi:docname="creatingOppu.svg">
  <defs
     id="defs2" />
  <sodipodi:namedview
     id="base"
     pagecolor="#ffffff"
     bordercolor="#666666"
     borderopacity="1.0"
     inkscape:pageopacity="0.0"
     inkscape:pageshadow="2"
     inkscape:zoom="0.7"
     inkscape:cx="471.17783"
     inkscape:cy="81.21644"
     inkscape:document-units="mm"
     inkscape:current-layer="layer1"
     showgrid="false"
     inkscape:window-width="1366"
     inkscape:window-height="749"
     inkscape:window-x="-4"
     inkscape:window-y="-4"
     inkscape:window-maximized="1" />
  <metadata
     id="metadata5">
    <rdf:RDF>
      <cc:Work
         rdf:about="">
        <dc:format>image/svg+xml</dc:format>
        <dc:type
           rdf:resource="http://purl.org/dc/dcmitype/StillImage" />
        <dc:title></dc:title>
      </cc:Work>
    </rdf:RDF>
  </metadata>
  <g
     inkscape:label="Layer 1"
     inkscape:groupmode="layer"
     id="layer1"
     transform="translate(93.103207,-118.20182)">
    <g
       aria-label="Creating Opportunities"
       style="font-style:normal;font-variant:normal;font-weight:normal;font-stretch:normal;font-size:35.79063797px;line-height:1.25;font-family:'Britannic Bold';-inkscape-font-specification:'Britannic Bold, ';letter-spacing:0px;word-spacing:0px;fill:#000000;fill-opacity:1;stroke:none;stroke-width:0.24404022"
       id="text817"
       transform="matrix(1.0841791,0,0,1.0841791,-4.4564688,-11.584941)">
      <path
         d="m -54.641333,123.86898 q -0.59418,2.65633 -3.687414,6.34375 -3.337896,3.96703 -5.697143,3.96703 -1.398071,0 -1.398071,-1.32817 0,-2.00973 3.687414,-5.34763 3.302945,-2.9709 5.714618,-3.94955 0.192235,-0.47185 0.192235,-0.90875 0,-1.32817 -1.502927,-1.32817 -3.233041,0 -8.912708,3.66994 -5.522383,3.56509 -9.646695,8.14377 -4.526257,5.01558 -4.526257,8.336 0,2.67382 3.180613,2.67382 2.306818,0 5.033058,-1.24079 1.904873,-0.8738 3.932077,-2.3243 l 1.660211,-1.24078 q 0.279614,0 0.279614,0.5068 0,1.25826 -2.481577,2.88352 -1.642735,1.0835 -3.687415,1.93982 -2.027204,0.83885 -3.949553,0.83885 -2.201963,0 -3.722366,-1.32817 -1.590306,-1.3806 -1.590306,-3.56508 0,-4.61364 5.574811,-10.13602 4.491305,-4.45636 9.699123,-7.09522 5.871901,-2.9709 8.947659,-2.9709 2.831096,0 2.970903,2.67381 0.559229,-0.20971 0.821367,-0.20971 0.314566,0 0.314566,0.31457 0,0.29709 -1.205837,0.68156 z m -1.765065,0.62913 q -2.970903,1.5204 -5.557336,4.38645 -2.586432,2.84857 -2.586432,3.66994 0,0.38447 0.29709,0.38447 1.223313,0 4.246643,-3.53013 2.603909,-3.04081 3.600035,-4.91073 z"
         style="font-style:normal;font-variant:normal;font-weight:normal;font-stretch:normal;font-family:'Vladimir Script';-inkscape-font-specification:'Vladimir Script';stroke-width:0.24404022"
         id="path819"
         inkscape:connector-curvature="0" />
      <path
         d="m -57.59476,137.13318 q -0.08738,-0.5767 -0.08738,-0.69903 0,-0.47185 1.118457,-1.46798 1.135933,-1.0136 1.555355,-1.0136 0.401946,0 0.401946,0.36699 0,0.31457 -0.436898,1.04856 1.974776,0 1.974776,1.57283 0,1.24079 -2.551481,3.96703 -2.551481,2.70876 -2.551481,3.0408 0,0.31457 0.332042,0.34952 l 0.576705,-0.0175 q 0.244663,0 0.244663,0.27962 0,0.34952 -1.013602,0.34952 -1.293217,0 -1.293217,-1.15341 0,-1.13594 1.293217,-2.8311 0.803891,-1.06603 2.394198,-2.63886 1.293216,-1.27574 1.293216,-1.39807 0,-0.26214 -0.29709,-0.26214 -0.262139,0 -0.996126,0.20971 -0.733988,0.19224 -0.873795,0.31457 -8.126293,7.70687 -10.957388,7.70687 -0.209711,0 -0.209711,-0.22719 0,-0.29709 0.471849,-0.38447 0.576705,-0.10485 1.520404,-0.54175 1.415547,-0.62913 4.229167,-2.98838 2.499053,-2.07963 3.862173,-3.58256 z"
         style="font-style:normal;font-variant:normal;font-weight:normal;font-stretch:normal;font-family:'Vladimir Script';-inkscape-font-specification:'Vladimir Script';stroke-width:0.24404022"
         id="path821"
         inkscape:connector-curvature="0" />
      <path
         d="m -50.744209,142.02643 q -0.873795,0.20971 -3.285469,1.60779 -2.132059,1.22331 -3.233041,1.22331 -0.209711,0 -0.209711,-0.22719 0,-0.31456 0.454374,-0.38447 1.066029,-0.17476 3.005854,-1.31069 2.132059,-1.22331 3.477704,-1.53788 0.803891,-1.93982 3.32042,-4.07188 2.673812,-2.28935 4.561209,-2.28935 1.398072,0 1.398072,1.18837 0,1.55535 -2.953427,3.39032 -2.167011,1.36312 -4.438877,2.13206 -0.244663,0.55923 -0.244663,1.17088 0,0.90875 0.629132,1.18837 0.314566,0.12233 1.188361,0.15728 0.629133,0.0175 0.629133,0.29709 0,0.4369 -2.149536,0.4369 -2.271866,0 -2.271866,-1.97478 0,-0.45437 0.122331,-0.99613 z m 2.306818,-0.97865 q 1.607783,-0.78641 3.390324,-2.13206 2.376722,-1.76506 2.376722,-2.79614 0,-0.41942 -0.384469,-0.41942 -1.135934,0 -3.093234,2.09711 -1.74759,1.90487 -2.289343,3.25051 z"
         style="font-style:normal;font-variant:normal;font-weight:normal;font-stretch:normal;font-family:'Vladimir Script';-inkscape-font-specification:'Vladimir Script';stroke-width:0.24404022"
         id="path823"
         inkscape:connector-curvature="0" />
      <path
         d="m -40.276146,141.18759 q -4.666064,3.66994 -6.43113,3.66994 -0.209711,0 -0.209711,-0.22719 0,-0.31456 0.419422,-0.38447 1.642734,-0.26214 4.543733,-2.534 l 2.254391,-1.76507 3.617511,-2.88352 q 2.481577,-1.71264 4.246643,-1.71264 1.310692,0 1.467975,1.31069 0.68156,-0.64661 0.943698,-0.64661 0.576705,0 0.576705,0.47185 0,0.61166 -2.691288,3.73985 -2.673812,3.12818 -2.673812,3.65246 0,0.36699 0.576704,0.38447 0.576705,0.0175 0.576705,0.29709 0,0.34952 -1.188361,0.34952 -1.170885,0 -1.170885,-1.03108 0,-0.82137 0.943698,-2.34177 l -2.167011,1.83497 q -1.590307,1.18836 -2.534005,1.18836 -1.502927,0 -1.502927,-1.5204 0,-0.83885 0.401945,-1.85245 z m 8.685521,-5.12044 q -1.031078,0 -4.264119,3.07576 -3.233041,3.07576 -3.233041,4.10684 0,0.47185 0.454374,0.47185 0.996126,0 4.264118,-3.00586 3.285469,-3.02333 3.285469,-4.07188 0,-0.57671 -0.506801,-0.57671 z"
         style="font-style:normal;font-variant:normal;font-weight:normal;font-stretch:normal;font-family:'Vladimir Script';-inkscape-font-specification:'Vladimir Script';stroke-width:0.24404022"
         id="path825"
         inkscape:connector-curvature="0" />
      <path
         d="m -19.374973,133.44577 -6.291323,0.24466 q -0.524277,0 -0.524277,-0.27961 0,-0.22719 0.856319,-0.34952 1.205837,-0.19224 3.390324,-0.33204 2.42915,-0.13981 3.4078,-0.26214 l 2.499054,-2.98838 q 2.009728,-2.37672 2.429149,-2.37672 0.524277,0 0.524277,0.66408 0,0.71651 -3.180613,4.70102 1.834969,-0.12233 3.040806,-0.12233 0.803891,0 0.803891,0.31456 0,0.34952 -1.939824,0.47185 l -2.656337,0.0874 -3.897125,4.87578 q -3.687414,4.80587 -3.687414,5.73209 0,0.4369 0.59418,0.45437 0.594181,0 0.594181,0.27962 0,0.33204 -0.76894,0.33204 -1.555354,0 -1.555354,-1.25826 0,-0.99613 1.013602,-2.84858 l 1.520403,-2.55148 -5.172866,4.07189 q -3.233041,2.55148 -4.980631,2.55148 -0.20971,0 -0.20971,-0.22719 0,-0.29709 0.349517,-0.38447 0.594181,-0.12233 1.800018,-0.61165 1.170885,-0.61166 5.207817,-3.7748 2.988379,-2.32429 3.757318,-3.02333 1.380596,-1.25826 3.075758,-3.39032 z"
         style="font-style:normal;font-variant:normal;font-weight:normal;font-stretch:normal;font-family:'Vladimir Script';-inkscape-font-specification:'Vladimir Script';stroke-width:0.24404022"
         id="path827"
         inkscape:connector-curvature="0" />
      <path
         d="m -7.7535022,131.69818 q -0.838843,0 -0.838843,-0.85632 0,-0.71651 0.8563189,-1.29322 0.7689395,-0.52427 1.537879,-0.52427 0.9087467,0 0.9087467,0.99612 0,0.71651 -0.9087467,1.22331 -0.7864154,0.45438 -1.5553549,0.45438 z m -7.7243468,12.11079 q 0,0.47185 1.013602,0.47185 0.227187,0 0.227187,0.27962 0,0.33204 -1.153409,0.33204 -1.310693,0 -1.310693,-1.25826 0,-1.46798 3.897125,-6.13404 l -4.77092,3.89712 q -4.229167,3.46023 -6.13404,3.46023 -0.20971,0 -0.20971,-0.22719 0,-0.31456 0.349518,-0.38447 1.100981,-0.20971 2.009728,-0.71651 1.135933,-0.62913 4.823348,-3.54761 l 5.347624,-4.4913 q 0.349518,-0.12233 0.943699,-0.12233 0.5941801,0 0.5941801,0.68156 0,0.73398 -2.8136191,3.96703 -2.81362,3.21556 -2.81362,3.79226 z"
         style="font-style:normal;font-variant:normal;font-weight:normal;font-stretch:normal;font-family:'Vladimir Script';-inkscape-font-specification:'Vladimir Script';stroke-width:0.24404022"
         id="path829"
         inkscape:connector-curvature="0" />
      <path
         d="m -2.8253009,139.56233 q 4.8058718,-4.07188 6.7456964,-4.07188 1.2407887,0 1.2407887,1.17088 0,1.03108 -2.8136195,3.73984 -2.81361945,2.69129 -2.81361945,3.25052 0,0.55923 0.62913231,0.61166 0.6291323,0.035 0.6291323,0.29709 0,0.34952 -1.25826461,0.34952 -1.45049945,0 -1.45049945,-1.29322 0,-1.08351 1.39807176,-2.74372 0.71651179,-0.85631 2.58643284,-2.63886 1.3980718,-1.32816 1.3980718,-1.60778 0,-0.22719 -0.3145662,-0.22719 -0.9961261,0 -4.3340225,2.65634 -2.7786677,2.20196 -4.1243118,3.61751 -1.712638,1.80002 -2.0796318,1.80002 -0.2796144,0 -0.5068011,-0.26214 -0.2271866,-0.27961 -0.2271866,-0.5767 0,-0.40195 2.4116738,-3.25052 l 2.8835231,-3.4078 -4.4738298,3.63499 -3.3029443,2.534 q -2.51653,1.71264 -3.862174,1.71264 -0.227186,0 -0.227186,-0.20971 0,-0.31457 0.489325,-0.41942 0.664084,-0.12233 1.555355,-0.52428 1.27574,-0.55923 5.2078172,-3.73984 3.5301313,-2.86605 5.0854861,-4.38645 0.2621385,-0.26214 0.8213672,-0.62914 0.2796144,-0.10485 0.59418052,-0.10485 0.29709025,0 0.59418051,0.20971 0.31456615,0.19224 0.31456615,0.47185 0,0.31457 -2.79614358,4.03693 z"
         style="font-style:normal;font-variant:normal;font-weight:normal;font-stretch:normal;font-family:'Vladimir Script';-inkscape-font-specification:'Vladimir Script';stroke-width:0.24404022"
         id="path831"
         inkscape:connector-curvature="0" />
      <path
         d="m 7.3107218,140.92545 q -2.4641015,1.92235 -3.1631374,2.37672 -2.3068185,1.55536 -3.58255902,1.55536 -0.22718667,0 -0.22718667,-0.20971 0,-0.29709 0.41942154,-0.40195 1.85244515,-0.4369 4.59616105,-2.56895 l 4.8932517,-3.89713 q 3.530131,-2.58643 5.330148,-2.58643 1.485452,0 1.4505,1.66021 0.821367,-0.9437 1.170885,-0.9437 0.506801,0 0.506801,0.5767 0,0.54176 -5.871902,7.82921 0.104856,0 0.401946,-0.0175 0.244663,-0.0175 0.38447,-0.0175 0.227186,0 0.227186,0.27962 0,0.29709 -0.68156,0.36699 l -0.908746,0.0524 q -8.5107623,10.55544 -12.5127428,10.55544 -1.6427344,0 -1.6427344,-1.38059 0,-2.20197 3.2679929,-5.19035 3.2679928,-2.9709 9.1049423,-4.35149 1.502927,-1.67769 2.42915,-3.05829 -1.782542,1.55536 -2.254391,1.90488 -1.5728306,1.15341 -2.6563362,1.15341 -1.2757405,0 -1.2757405,-1.53788 0,-0.97865 0.5941805,-2.14954 z m 9.0699912,-4.3515 q 0,-0.62913 -0.576705,-0.62913 -1.118457,0 -4.316547,3.07576 -3.1806131,3.05828 -3.1806131,4.28159 0,0.4369 0.3320421,0.4369 0.9786503,0 4.316547,-2.95343 3.425276,-3.0408 3.425276,-4.21169 z m -6.5359861,8.89524 q -3.8971251,0.94369 -7.5146359,3.9146 -3.6175107,2.98837 -3.6175107,4.71849 0,0.73399 0.64660816,0.73399 1.46797538,0 5.46995594,-3.9146 2.9883784,-2.91848 5.0155825,-5.45248 z"
         style="font-style:normal;font-variant:normal;font-weight:normal;font-stretch:normal;font-family:'Vladimir Script';-inkscape-font-specification:'Vladimir Script';stroke-width:0.24404022"
         id="path833"
         inkscape:connector-curvature="0" />
      <path
         d="m 51.175227,120.61846 q 1.485451,0 2.359246,0.90875 0.891271,0.89127 0.891271,2.37672 0,4.26412 -4.788396,10.64282 -4.124312,5.52238 -8.423382,8.61562 -2.935951,2.11458 -5.592288,2.11458 -4.421402,0 -4.421402,-4.57868 0,-4.42141 3.267993,-9.36709 2.831096,-4.26411 6.90298,-7.33987 4.159263,-3.14566 4.928203,-3.14566 0.856319,0 0.856319,1.03107 1.415547,-0.90874 3.110709,-1.24079 0.122332,-0.92622 0.262139,-0.92622 0.768939,0 0.646608,0.90875 z m -0.174759,0.85632 q -0.629132,2.00973 -2.289342,4.50878 -5.662191,8.47581 -8.65057,8.47581 -1.36312,0 -1.36312,-1.8874 0,-4.28159 6.868028,-9.62922 -3.005854,1.8874 -4.753444,3.60004 -3.093234,3.02333 -5.400052,7.00783 -2.72624,4.70102 -2.72624,8.24863 0,1.11845 0.559228,1.81749 0.594181,0.76894 1.677686,0.76894 2.831096,0 7.427257,-4.31655 4.141788,-3.87965 7.49716,-9.01756 3.4078,-5.22529 3.4078,-7.81173 0,-1.83497 -1.852445,-1.83497 -0.209711,0 -0.401946,0.0699 z m -0.996126,0.27961 q -2.219439,0.83885 -4.910727,3.37285 -2.534005,2.35925 -3.862174,4.63111 -1.310692,2.27187 -1.310692,3.18062 0,0.62913 0.576705,0.62913 1.607782,0 5.295197,-4.96316 3.302944,-4.45635 4.211691,-6.85055 z"
         style="font-style:normal;font-variant:normal;font-weight:normal;font-stretch:normal;font-family:'Vladimir Script';-inkscape-font-specification:'Vladimir Script';stroke-width:0.24404022"
         id="path835"
         inkscape:connector-curvature="0" />
      <path
         d="m 55.596635,136.66133 q -2.306818,2.04468 -5.120438,4.24665 l -3.128185,2.39419 q -2.289343,1.55536 -3.669939,1.55536 -0.209711,0 -0.209711,-0.22719 0,-0.29709 0.436898,-0.38447 0.59418,-0.10485 1.520403,-0.52427 1.100981,-0.47185 4.613637,-3.25052 l 4.334022,-3.61751 q 3.757318,-3.09324 4.036933,-3.09324 0.646608,0 0.646608,0.71652 0,0.27961 -1.74759,2.6039 2.062156,-1.73011 3.355372,-1.73011 1.36312,0 1.36312,1.46798 0,1.90487 -2.132059,4.29907 -1.834969,2.07963 -3.827222,3.11071 0.209711,0.0524 2.062156,0.0524 0.227187,0 0.227187,0.27962 0,0.36699 -1.36312,0.36699 -1.118457,0 -1.887397,-0.33204 -0.419421,0.15728 -0.856319,0.15728 -1.74759,0 -1.625258,-2.44662 l -9.349605,10.52049 q -0.332043,0.38447 -0.611657,0.38447 -0.524277,0 -0.524277,-0.85632 0,-0.83884 3.582559,-4.91073 l 3.634987,-3.96703 z m -0.646608,6.6758 q 2.027204,-1.15341 3.757318,-3.46023 1.74759,-2.30682 1.74759,-3.05828 0,-0.48933 -0.541753,-0.48933 -1.031078,0 -3.267993,1.9573 -1.607782,1.39807 -2.900999,2.86605 0.506801,0 0.751464,0.89127 0.332042,1.13593 0.454373,1.29322 z m -0.699036,0.24466 -0.314566,-1.15341 q -0.262138,-0.92622 -0.38447,-0.92622 -0.349518,0 -0.349518,1.18836 0,0.97865 0.699036,0.97865 0.192235,0 0.349518,-0.0874 z"
         style="font-style:normal;font-variant:normal;font-weight:normal;font-stretch:normal;font-family:'Vladimir Script';-inkscape-font-specification:'Vladimir Script';stroke-width:0.24404022"
         id="path837"
         inkscape:connector-curvature="0" />
      <path
         d="m 69.996766,136.66133 q -2.306818,2.04468 -5.120438,4.24665 l -3.128185,2.39419 q -2.289343,1.55536 -3.669939,1.55536 -0.20971,0 -0.20971,-0.22719 0,-0.29709 0.436897,-0.38447 0.594181,-0.10485 1.520403,-0.52427 1.100982,-0.47185 4.613637,-3.25052 l 4.334023,-3.61751 q 3.757318,-3.09324 4.036932,-3.09324 0.646608,0 0.646608,0.71652 0,0.27961 -1.74759,2.6039 2.062156,-1.73011 3.355373,-1.73011 1.36312,0 1.36312,1.46798 0,1.90487 -2.13206,4.29907 -1.834969,2.07963 -3.827221,3.11071 0.20971,0.0524 2.062156,0.0524 0.227186,0 0.227186,0.27962 0,0.36699 -1.36312,0.36699 -1.118457,0 -1.887397,-0.33204 -0.419421,0.15728 -0.856319,0.15728 -1.747589,0 -1.625258,-2.44662 l -9.349605,10.52049 q -0.332042,0.38447 -0.611657,0.38447 -0.524277,0 -0.524277,-0.85632 0,-0.83884 3.582559,-4.91073 l 3.634987,-3.96703 z m -0.646608,6.6758 q 2.027204,-1.15341 3.757318,-3.46023 1.74759,-2.30682 1.74759,-3.05828 0,-0.48933 -0.541753,-0.48933 -1.031078,0 -3.267993,1.9573 -1.607782,1.39807 -2.900999,2.86605 0.506801,0 0.751464,0.89127 0.332042,1.13593 0.454373,1.29322 z m -0.699036,0.24466 -0.314566,-1.15341 q -0.262138,-0.92622 -0.38447,-0.92622 -0.349518,0 -0.349518,1.18836 0,0.97865 0.699036,0.97865 0.192235,0 0.349518,-0.0874 z"
         style="font-style:normal;font-variant:normal;font-weight:normal;font-stretch:normal;font-family:'Vladimir Script';-inkscape-font-specification:'Vladimir Script';stroke-width:0.24404022"
         id="path839"
         inkscape:connector-curvature="0" />
      <path
         d="m 80.202698,140.19146 -3.600035,2.74372 q -2.761192,1.92235 -4.124312,1.92235 -0.209711,0 -0.209711,-0.20971 0,-0.33204 0.349518,-0.40195 1.06603,-0.19223 1.817493,-0.61165 1.310693,-0.71652 4.264119,-3.05829 l 4.613637,-3.79227 q 1.328168,-1.17088 1.625259,-1.17088 0.436897,0 0.961174,0.48932 1.013602,-0.76894 1.800018,-0.76894 1.188361,0 1.188361,1.27575 0,1.90487 -3.040807,5.19034 -3.093233,3.32042 -4.998106,3.32042 -1.782542,0 -1.782542,-1.86992 0,-0.97865 1.135934,-3.05829 z m 5.924329,0.035 q 0.646608,-0.61166 1.293216,-1.66021 0.716512,-1.20584 0.716512,-1.92235 0,-0.66409 -0.576705,-0.66409 -0.856319,0 -1.730113,1.08351 -0.856319,1.06603 -0.856319,1.93982 0,0.97865 1.153409,1.22332 z m -1.712638,-2.18449 q -3.565083,3.11071 -3.565083,5.06801 0,0.83884 0.803891,0.83884 1.310692,0 4.08936,-3.16314 -1.467975,-0.34951 -1.467975,-1.88739 0,-0.40195 0.139807,-0.85632 z"
         style="font-style:normal;font-variant:normal;font-weight:normal;font-stretch:normal;font-family:'Vladimir Script';-inkscape-font-specification:'Vladimir Script';stroke-width:0.24404022"
         id="path841"
         inkscape:connector-curvature="0" />
      <path
         d="m 94.934875,137.13318 q -0.08738,-0.5767 -0.08738,-0.69903 0,-0.47185 1.118457,-1.46798 1.135934,-1.0136 1.555355,-1.0136 0.401946,0 0.401946,0.36699 0,0.31457 -0.436897,1.04856 1.974776,0 1.974776,1.57283 0,1.24079 -2.551481,3.96703 -2.551481,2.70876 -2.551481,3.0408 0,0.31457 0.332042,0.34952 l 0.576705,-0.0175 q 0.244662,0 0.244662,0.27962 0,0.34952 -1.013602,0.34952 -1.293216,0 -1.293216,-1.15341 0,-1.13594 1.293216,-2.8311 0.803891,-1.06603 2.394198,-2.63886 1.293216,-1.27574 1.293216,-1.39807 0,-0.26214 -0.29709,-0.26214 -0.262138,0 -0.996126,0.20971 -0.733988,0.19224 -0.873795,0.31457 -8.126292,7.70687 -10.957388,7.70687 -0.20971,0 -0.20971,-0.22719 0,-0.29709 0.471849,-0.38447 0.576705,-0.10485 1.520403,-0.54175 1.415548,-0.62913 4.229167,-2.98838 2.499054,-2.07963 3.862174,-3.58256 z"
         style="font-style:normal;font-variant:normal;font-weight:normal;font-stretch:normal;font-family:'Vladimir Script';-inkscape-font-specification:'Vladimir Script';stroke-width:0.24404022"
         id="path843"
         inkscape:connector-curvature="0" />
      <path
         d="m 109.24763,133.44577 -6.29133,0.24466 q -0.52427,0 -0.52427,-0.27961 0,-0.22719 0.85632,-0.34952 1.20583,-0.19224 3.39032,-0.33204 2.42915,-0.13981 3.4078,-0.26214 l 2.49905,-2.98838 q 2.00973,-2.37672 2.42915,-2.37672 0.52428,0 0.52428,0.66408 0,0.71651 -3.18061,4.70102 1.83497,-0.12233 3.0408,-0.12233 0.80389,0 0.80389,0.31456 0,0.34952 -1.93982,0.47185 l -2.65634,0.0874 -3.89712,4.87578 q -3.68742,4.80587 -3.68742,5.73209 0,0.4369 0.59418,0.45437 0.59419,0 0.59419,0.27962 0,0.33204 -0.76894,0.33204 -1.55536,0 -1.55536,-1.25826 0,-0.99613 1.0136,-2.84858 l 1.52041,-2.55148 -5.17287,4.07189 q -3.23304,2.55148 -4.98063,2.55148 -0.209711,0 -0.209711,-0.22719 0,-0.29709 0.349518,-0.38447 0.594181,-0.12233 1.800017,-0.61165 1.170886,-0.61166 5.207816,-3.7748 2.98838,-2.32429 3.75732,-3.02333 1.3806,-1.25826 3.07576,-3.39032 z"
         style="font-style:normal;font-variant:normal;font-weight:normal;font-stretch:normal;font-family:'Vladimir Script';-inkscape-font-specification:'Vladimir Script';stroke-width:0.24404022"
         id="path845"
         inkscape:connector-curvature="0" />
      <path
         d="m 117.8982,141.57206 q -3.04081,2.9709 -4.47383,2.9709 -1.08351,0 -1.08351,-1.20583 0,-1.41555 1.25827,-3.18062 l 2.25439,-2.65633 -4.99811,4.14178 q -4.22916,3.21557 -5.9418,3.21557 -0.20971,0 -0.20971,-0.22719 0,-0.29709 0.5068,-0.40194 0.64661,-0.12233 1.5204,-0.52428 1.0136,-0.47185 4.2816,-3.04081 1.50292,-1.17088 4.4214,-3.66994 0.48932,-0.5068 1.57283,-1.38059 0.4369,-0.27962 0.80389,-0.27962 1.0136,0 1.0136,0.66409 0,0.68156 -2.44662,3.39032 -2.44663,2.70877 -2.44663,3.86218 0,0.29709 0.31457,0.29709 1.04855,0 4.66606,-4.00198 3.61751,-4.00198 4.10684,-4.00198 0.24466,0 0.47185,0.26213 0.24466,0.24467 0.24466,0.5068 0,0.41943 -2.70876,3.54761 -2.70877,3.11071 -2.70877,3.98451 0,0.40194 0.59418,0.41942 0.59418,0.0175 0.59418,0.29709 0,0.33204 -0.87379,0.33204 -1.46798,0 -1.46798,-1.11846 0,-0.80389 0.73399,-2.20196 z"
         style="font-style:normal;font-variant:normal;font-weight:normal;font-stretch:normal;font-family:'Vladimir Script';-inkscape-font-specification:'Vladimir Script';stroke-width:0.24404022"
         id="path847"
         inkscape:connector-curvature="0" />
      <path
         d="m 130.90026,139.56233 q 4.80587,-4.07188 6.7457,-4.07188 1.24079,0 1.24079,1.17088 0,1.03108 -2.81362,3.73984 -2.81362,2.69129 -2.81362,3.25052 0,0.55923 0.62913,0.61166 0.62913,0.035 0.62913,0.29709 0,0.34952 -1.25826,0.34952 -1.4505,0 -1.4505,-1.29322 0,-1.08351 1.39807,-2.74372 0.71651,-0.85631 2.58643,-2.63886 1.39808,-1.32816 1.39808,-1.60778 0,-0.22719 -0.31457,-0.22719 -0.99613,0 -4.33402,2.65634 -2.77867,2.20196 -4.12432,3.61751 -1.71263,1.80002 -2.07963,1.80002 -0.27961,0 -0.5068,-0.26214 -0.22718,-0.27961 -0.22718,-0.5767 0,-0.40195 2.41167,-3.25052 l 2.88352,-3.4078 -4.47383,3.63499 -3.30294,2.534 q -2.51653,1.71264 -3.86218,1.71264 -0.22718,0 -0.22718,-0.20971 0,-0.31457 0.48932,-0.41942 0.66409,-0.12233 1.55536,-0.52428 1.27574,-0.55923 5.20782,-3.73984 3.53013,-2.86605 5.08548,-4.38645 0.26214,-0.26214 0.82137,-0.62914 0.27961,-0.10485 0.59418,-0.10485 0.29709,0 0.59418,0.20971 0.31457,0.19224 0.31457,0.47185 0,0.31457 -2.79615,4.03693 z"
         style="font-style:normal;font-variant:normal;font-weight:normal;font-stretch:normal;font-family:'Vladimir Script';-inkscape-font-specification:'Vladimir Script';stroke-width:0.24404022"
         id="path849"
         inkscape:connector-curvature="0" />
      <path
         d="m 150.22861,131.69818 q -0.83884,0 -0.83884,-0.85632 0,-0.71651 0.85632,-1.29322 0.76894,-0.52427 1.53788,-0.52427 0.90875,0 0.90875,0.99612 0,0.71651 -0.90875,1.22331 -0.78642,0.45438 -1.55536,0.45438 z m -7.72434,12.11079 q 0,0.47185 1.0136,0.47185 0.22719,0 0.22719,0.27962 0,0.33204 -1.15341,0.33204 -1.31069,0 -1.31069,-1.25826 0,-1.46798 3.89712,-6.13404 l -4.77092,3.89712 q -4.22917,3.46023 -6.13404,3.46023 -0.20971,0 -0.20971,-0.22719 0,-0.31456 0.34952,-0.38447 1.10098,-0.20971 2.00973,-0.71651 1.13593,-0.62913 4.82334,-3.54761 l 5.34763,-4.4913 q 0.34952,-0.12233 0.9437,-0.12233 0.59418,0 0.59418,0.68156 0,0.73398 -2.81362,3.96703 -2.81362,3.21556 -2.81362,3.79226 z"
         style="font-style:normal;font-variant:normal;font-weight:normal;font-stretch:normal;font-family:'Vladimir Script';-inkscape-font-specification:'Vladimir Script';stroke-width:0.24404022"
         id="path851"
         inkscape:connector-curvature="0" />
      <path
         d="m 157.48112,133.44577 -6.29133,0.24466 q -0.52427,0 -0.52427,-0.27961 0,-0.22719 0.85632,-0.34952 1.20583,-0.19224 3.39032,-0.33204 2.42915,-0.13981 3.4078,-0.26214 l 2.49905,-2.98838 q 2.00973,-2.37672 2.42915,-2.37672 0.52428,0 0.52428,0.66408 0,0.71651 -3.18061,4.70102 1.83497,-0.12233 3.0408,-0.12233 0.80389,0 0.80389,0.31456 0,0.34952 -1.93982,0.47185 l -2.65634,0.0874 -3.89712,4.87578 q -3.68742,4.80587 -3.68742,5.73209 0,0.4369 0.59418,0.45437 0.59419,0 0.59419,0.27962 0,0.33204 -0.76894,0.33204 -1.55536,0 -1.55536,-1.25826 0,-0.99613 1.0136,-2.84858 l 1.52041,-2.55148 -5.17287,4.07189 q -3.23304,2.55148 -4.98063,2.55148 -0.20971,0 -0.20971,-0.22719 0,-0.29709 0.34952,-0.38447 0.59418,-0.12233 1.80001,-0.61165 1.17089,-0.61166 5.20782,-3.7748 2.98838,-2.32429 3.75732,-3.02333 1.3806,-1.25826 3.07576,-3.39032 z"
         style="font-style:normal;font-variant:normal;font-weight:normal;font-stretch:normal;font-family:'Vladimir Script';-inkscape-font-specification:'Vladimir Script';stroke-width:0.24404022"
         id="path853"
         inkscape:connector-curvature="0" />
      <path
         d="m 169.10258,131.69818 q -0.83885,0 -0.83885,-0.85632 0,-0.71651 0.85632,-1.29322 0.76894,-0.52427 1.53788,-0.52427 0.90875,0 0.90875,0.99612 0,0.71651 -0.90875,1.22331 -0.78641,0.45438 -1.55535,0.45438 z m -7.72435,12.11079 q 0,0.47185 1.0136,0.47185 0.22719,0 0.22719,0.27962 0,0.33204 -1.15341,0.33204 -1.31069,0 -1.31069,-1.25826 0,-1.46798 3.89712,-6.13404 l -4.77092,3.89712 q -4.22916,3.46023 -6.13404,3.46023 -0.20971,0 -0.20971,-0.22719 0,-0.31456 0.34952,-0.38447 1.10098,-0.20971 2.00973,-0.71651 1.13593,-0.62913 4.82335,-3.54761 l 5.34762,-4.4913 q 0.34952,-0.12233 0.9437,-0.12233 0.59418,0 0.59418,0.68156 0,0.73398 -2.81362,3.96703 -2.81362,3.21556 -2.81362,3.79226 z"
         style="font-style:normal;font-variant:normal;font-weight:normal;font-stretch:normal;font-family:'Vladimir Script';-inkscape-font-specification:'Vladimir Script';stroke-width:0.24404022"
         id="path855"
         inkscape:connector-curvature="0" />
      <path
         d="m 168.89287,142.02643 q -0.87379,0.20971 -3.28547,1.60779 -2.13206,1.22331 -3.23304,1.22331 -0.20971,0 -0.20971,-0.22719 0,-0.31456 0.45437,-0.38447 1.06603,-0.17476 3.00586,-1.31069 2.13206,-1.22331 3.4777,-1.53788 0.80389,-1.93982 3.32042,-4.07188 2.67382,-2.28935 4.56121,-2.28935 1.39807,0 1.39807,1.18837 0,1.55535 -2.95342,3.39032 -2.16701,1.36312 -4.43888,2.13206 -0.24466,0.55923 -0.24466,1.17088 0,0.90875 0.62913,1.18837 0.31457,0.12233 1.18836,0.15728 0.62913,0.0175 0.62913,0.29709 0,0.4369 -2.14953,0.4369 -2.27187,0 -2.27187,-1.97478 0,-0.45437 0.12233,-0.99613 z m 2.30682,-0.97865 q 1.60778,-0.78641 3.39032,-2.13206 2.37673,-1.76506 2.37673,-2.79614 0,-0.41942 -0.38447,-0.41942 -1.13594,0 -3.09324,2.09711 -1.74759,1.90487 -2.28934,3.25051 z"
         style="font-style:normal;font-variant:normal;font-weight:normal;font-stretch:normal;font-family:'Vladimir Script';-inkscape-font-specification:'Vladimir Script';stroke-width:0.24404022"
         id="path857"
         inkscape:connector-curvature="0" />
      <path
         d="m 178.4522,141.86915 q -3.63499,2.98838 -5.52239,2.98838 -0.20971,0 -0.20971,-0.20971 0,-0.31457 0.34952,-0.40195 0.64661,-0.15728 1.99225,-0.69903 1.25827,-0.68156 6.39618,-4.96316 4.87578,-4.05441 4.99811,-4.05441 0.40194,0 0.78641,0.34952 0.40195,0.34952 0.40195,0.75146 0,1.27575 -1.99225,4.49131 -1.73012,2.77867 -3.02333,4.15926 0.75146,0 0.75146,0.27962 0,0.34952 -0.73399,0.34952 -0.19223,0 -0.5767,-0.0699 -0.367,-0.0699 -0.55923,-0.0699 -0.13981,0 -0.41942,0.0524 -0.27962,0.0524 -0.41942,0.0524 -2.21944,0 -2.21944,-3.00585 z m 2.77866,1.5204 q 1.22332,-1.0136 2.69129,-3.49518 1.36312,-2.30681 1.90487,-4.07188 l -6.25637,5.08549 q 0.64661,0.10485 1.08351,1.0136 z m -0.5068,0.54176 -0.48932,-1.3806 q -0.38447,-1.0136 -0.75147,-1.0136 -0.38447,0 -0.38447,0.59418 0,0.59418 0.34952,1.22331 0.40195,0.71651 0.9437,0.71651 0.20971,0 0.33204,-0.1398 z"
         style="font-style:normal;font-variant:normal;font-weight:normal;font-stretch:normal;font-family:'Vladimir Script';-inkscape-font-specification:'Vladimir Script';stroke-width:0.24404022"
         id="path859"
         inkscape:connector-curvature="0" />
    </g>
  </g>
</svg>
