<?xml version="1.0" encoding="utf-8"?>
<!-- Svg Vector Icons : http://www.onlinewebfonts.com/icon -->
<!DOCTYPE svg PUBLIC "-//W3C//DTD SVG 1.1//EN" "http://www.w3.org/Graphics/SVG/1.1/DTD/svg11.dtd">
<svg version="1.1" xmlns="http://www.w3.org/2000/svg" xmlns:xlink="http://www.w3.org/1999/xlink" x="0px" y="0px" viewBox="0 0 1000 1000" enable-background="new 0 0 1000 1000" xml:space="preserve">
<metadata> Svg Vector Icons : http://www.onlinewebfonts.com/icon </metadata>
<g><g transform="translate(0.000000,511.000000) scale(0.100000,-0.100000)"><path d="M4522.2,4980.4c-299.9-75.6-553.9-224.3-791.7-459.3c-248.6-248.6-386.4-486.4-470.1-813.3c-197.2-770.1,189.1-1610.4,897.1-1953.5c375.6-181,732.2-229.7,1121.3-148.6c532.3,108.1,967.3,445.8,1207.8,934.9c467.4,945.7-32.4,2088.6-1056.5,2415.6C5243.6,5015.5,4716.7,5029,4522.2,4980.4z M5324.6,4534.6c359.4-113.5,694.5-424.2,826.8-775.5c75.7-199.9,100-543.1,54-740.3c-113.5-478.2-486.4-859.2-959.2-983.5c-691.7-178.3-1432.1,283.7-1583.4,986.2c-43.2,200-16.2,545.8,56.7,737.6c129.7,345.9,464.8,662,818.7,772.8C4768.1,4604.8,5089.6,4604.8,5324.6,4534.6z"/><path d="M2695.6,1303c-440.4-118.9-797.1-494.5-907.9-959.2c-29.7-132.4-40.5-351.3-40.5-932.2v-761.9l-70.3-151.3c-297.2-648.5,29.7-1488.8,618.8-1596.9l100-18.9v-594.4v-594.4l62.1,16.2c486.4,137.8,589,156.7,951.1,170.2c297.2,10.8,416.1,5.4,553.9-29.7c291.8-72.9,543.1-213.4,780.9-437.7l216.2-202.7l210.8,213.5c529.6,529.6,1145.7,624.2,2102.1,318.8c164.8-54,299.9-97.3,305.3-97.3c2.7,0,5.4,281,5.4,621.5v621.5h62.1c248.6,0,532.3,221.6,686.3,535c102.7,205.3,102.7,205.3,102.7,545.8c0,340.4,0,340.4-100,545.8L8232-1280.1V-556c0,553.9-10.8,767.4-40.5,899.8c-110.8,470.1-467.4,843-918.7,961.9C7040.4,1365.1,2919.9,1362.4,2695.6,1303z M7321.4,832.8c159.4-81.1,327-256.7,405.3-426.9c51.3-116.2,56.8-181,67.5-753.8c5.4-389.1,0-629.6-16.2-629.6c-13.5,0-64.9,8.1-110.8,16.2l-83.8,18.9v670.1v672.8l-67.5,16.2c-37.8,8.1-348.6,10.8-694.4,2.7c-518.8-10.8-664.7-21.6-824.1-67.5c-354-97.3-651.2-259.4-897.1-489.1c-67.5-62.1-135.1-105.4-148.6-97.3c-16.2,8.1-108.1,81.1-205.4,162.1c-491.8,413.4-1137.5,591.7-1910.3,526.9c-189.1-16.2-367.5-35.1-391.8-43.2c-45.9-13.5-48.6-70.3-48.6-683.6v-672.8l-110.8-27l-108.1-27l8.1,637.7c8.1,637.7,8.1,640.4,83.8,794.4c89.2,181,294.5,378.3,459.3,437.7c97.3,35.1,410.7,37.8,2288.6,35.1l2175.1-5.4L7321.4,832.8z M3719.7-21c440.4-113.5,802.5-356.6,1180.8-799.8l108.1-129.7l102.7,154c240.5,359.4,521.5,583.6,886.3,697.1C6243.3-21,6821.6,41.2,7024.2,11.4l127-18.9v-543.1v-543.1l-118.9-127c-418.8-448.5-413.4-1205.1,10.8-1650.9l108.1-113.5v-391.8v-389.1l-73,16.2c-843,183.7-1507.7,75.7-1999.5-324.2c-62.1-51.3-121.6-91.9-129.7-91.9c-10.8,0-75.7,40.5-145.9,91.9c-170.2,124.3-413.4,243.2-651.2,316.1c-175.6,56.8-259.4,64.9-607.9,64.9c-221.6,0-475.6-10.8-559.3-21.6l-156.7-21.6v364.7v364.8l129.7,121.6c240.5,224.3,343.2,516.1,324.2,932.2c-8.1,240.5-18.9,283.7-110.8,470.2c-64.9,132.4-143.2,243.2-221.6,310.7L2828-1064v540.4c0,540.4,0,543.1,62.1,556.6C3003.7,57.4,3544.1,22.2,3719.7-21z M2571.3-1426c181-83.8,289.1-313.4,291.8-607.9c2.7-175.6-10.8-229.7-78.4-364.8c-94.6-189.1-213.5-281-370.2-281c-89.2,0-124.3,18.9-221.6,116.2c-299.9,297.2-256.7,926.8,78.4,1129.4C2374.1-1372,2455.2-1369.3,2571.3-1426z M7780.8-1453.1c259.4-191.8,327-683.6,137.8-1002.4c-197.3-340.4-564.7-278.3-713.3,116.2C7005.3-1798.9,7407.9-1177.4,7780.8-1453.1z"/></g></g>
</svg>