<?xml version="1.0" encoding="UTF-8" standalone="no"?>
<!-- Generator: Adobe Illustrator 16.0.0, SVG Export Plug-In . SVG Version: 6.00 Build 0)  -->

<svg
   xmlns:dc="http://purl.org/dc/elements/1.1/"
   xmlns:cc="http://creativecommons.org/ns#"
   xmlns:rdf="http://www.w3.org/1999/02/22-rdf-syntax-ns#"
   xmlns:svg="http://www.w3.org/2000/svg"
   xmlns="http://www.w3.org/2000/svg"
   xmlns:sodipodi="http://sodipodi.sourceforge.net/DTD/sodipodi-0.dtd"
   xmlns:inkscape="http://www.inkscape.org/namespaces/inkscape"
   version="1.1"
   id="Capa_1"
   x="0px"
   y="0px"
   width="284.92899"
   height="166.16499"
   viewBox="0 0 284.929 166.165"
   xml:space="preserve"
   sodipodi:docname="adown.svg"
   inkscape:version="0.92.3 (2405546, 2018-03-11)"><metadata
   id="metadata41"><rdf:RDF><cc:Work
       rdf:about=""><dc:format>image/svg+xml</dc:format><dc:type
         rdf:resource="http://purl.org/dc/dcmitype/StillImage" /></cc:Work></rdf:RDF></metadata><defs
   id="defs39">
	
</defs><sodipodi:namedview
   pagecolor="#ffffff"
   bordercolor="#666666"
   borderopacity="1"
   objecttolerance="10"
   gridtolerance="10"
   guidetolerance="10"
   inkscape:pageopacity="0"
   inkscape:pageshadow="2"
   inkscape:window-width="1366"
   inkscape:window-height="749"
   id="namedview37"
   showgrid="false"
   inkscape:zoom="0.82827656"
   inkscape:cx="142.46449"
   inkscape:cy="83.082507"
   inkscape:window-x="-4"
   inkscape:window-y="-4"
   inkscape:window-maximized="1"
   inkscape:current-layer="Capa_1" />
<path
   inkscape:connector-curvature="0"
   id="path2"
   d="M 282.082,17.129 267.808,2.856 C 265.906,0.95 263.715,0 261.238,0 c -2.471,0 -4.661,0.95 -6.563,2.856 L 142.466,115.059 30.262,2.859 C 28.359,0.953 26.169,0.003 23.695,0.003 c -2.475,0 -4.665,0.95 -6.567,2.856 L 2.856,17.133 C 0.95,19.035 0,21.225 0,23.7 c 0,2.473 0.953,4.663 2.856,6.565 l 133.043,133.046 c 1.902,1.903 4.093,2.854 6.567,2.854 2.474,0 4.661,-0.951 6.562,-2.854 L 282.082,30.265 c 1.902,-1.903 2.847,-4.093 2.847,-6.565 0,-2.475 -0.945,-4.665 -2.847,-6.571 z"
   style="fill:#00597d;fill-opacity:1" />
<g
   id="g6"
   transform="translate(0,-59.382)">
</g>
<g
   id="g8"
   transform="translate(0,-59.382)">
</g>
<g
   id="g10"
   transform="translate(0,-59.382)">
</g>
<g
   id="g12"
   transform="translate(0,-59.382)">
</g>
<g
   id="g14"
   transform="translate(0,-59.382)">
</g>
<g
   id="g16"
   transform="translate(0,-59.382)">
</g>
<g
   id="g18"
   transform="translate(0,-59.382)">
</g>
<g
   id="g20"
   transform="translate(0,-59.382)">
</g>
<g
   id="g22"
   transform="translate(0,-59.382)">
</g>
<g
   id="g24"
   transform="translate(0,-59.382)">
</g>
<g
   id="g26"
   transform="translate(0,-59.382)">
</g>
<g
   id="g28"
   transform="translate(0,-59.382)">
</g>
<g
   id="g30"
   transform="translate(0,-59.382)">
</g>
<g
   id="g32"
   transform="translate(0,-59.382)">
</g>
<g
   id="g34"
   transform="translate(0,-59.382)">
</g>
</svg>