<svg xmlns="http://www.w3.org/2000/svg" viewBox="0 0 475.55 554.05"><defs><style>.cls-1{fill:#f1e306;}</style></defs><title>Asset 70</title><g id="Layer_2" data-name="Layer 2"><g id="Layer_1-2" data-name="Layer 1"><path class="cls-1" d="M181.14,198.48l.09-1.57,3.67.54,5.55-3.13c3,3.43,4.49,6.51,4.26,8.93a6.69,6.69,0,0,0,6,2.05l-.09-.09c1.47,1,3.13.93,3.54-.55.37-1.33,1.23-1.86,1.92-2.74.41-.54.32-1.46.47-2.27,1.63,1.06.55,2.31.16,3.45l1.92,5.28,5.52,1.11,2.54-1.74c-.24-.82-.42-1.47-.68-2.35l1.88-3.71c-.26-.81-.57-1.72-.94-2.83l2.81-.64,1.6-2.14,2.35,1.47c-.77,4.28,1.18,8.55-.17,13.25l2,5.65L220.8,221c.35,1.39.68,2.72,1,4,1.67.47,3.07.6,4.16-.95l-1.63-2.48,3.24.23c.08-.24.22-.63.36-1,.87-2.46.66-5.42,3.26-7.09l.47.43.09-.09-.5-.4V211l-1.64-.61c.12-.64.13-1.12.22-1.14a3.61,3.61,0,0,0,3.11-3.15l0,.06c.2-.17.56-.34.57-.52a11.47,11.47,0,0,0-.17-1.75l3.89-.27-.1-.12-.44,1.19c.56,1.92,1.15,4,1.89,6.52.71.59,2.42.93,2.81,2.61l.12-.11c-1.65-.56-3.09.17-4.58.72-1.1.41-2.25.68-3.9,1.16l-.94,1.4c-.45.67-1.34,1.43-1.23,2,.53,2.62-1.1,5.06-.43,7.66l1.75,1.62-.4.28.28-.39.95.14-.11-.1c.42,1.88,2.31,1.8,3.51,2.63l-.12-.1,1,2.25-3.24,6v3.42c1,2.12,2.71.53,4.39.79-.07.73-.13,1.34-.17,1.73l2.18,3.37-3.71,5.07c1.61,4,4.78,5.7,9.29,5.22v-2h7.4l-3,1.92c-.69-1.2-1.5-1.78-3-.88.26,1.29.52,2.63.79,4,1.15,1.51,2.32,3,3.27,4.27-.15,2.28-2,4.13.2,5.8l-.1-.11.94,1.56,8.75,1.1c1.07-1.22,2.23-2.56,3.43-3.92,1.58-.39,3.28-.65,4.22-2.28l1.89,1.46,3.39-2.63c2.43,1.42,2.43,1.42.84,4.55l-3.29-.49c-.41,1.3-.77,2.46-1.16,3.69l1.19,2.33,3.53-.53a3,3,0,0,1,.73,1.08c.31,1.35-.46,2.34-1.26,3.22-2.41-.07-.86-2.37-1.94-3.63-1.39,1.74-.57,3.56-1.15,5l-3.26,2.28-4.37-1c-.75,1.41-1.34,2.61.37,3.64l-.11-.11c0,.52.09,1,.13,1.59,2.46.78,3.69-1.06,6-2.47l2.85,2.38c-.24.24-.48.48-.73.71l1.19-.41-.11-.12L270.89,295l-2.83.54V300c1.6-.09,2.86-.83,3.63-3.28.33,3.24,3.09,4.9,2.65,7.76-2.88,3.45-3.29,4.7-3.48,10.53l3.72.66-.06-.06c-.23.49-.47,1-.77,1.59l3.17.51c-.76.68-1.38,1.22-2.24,2l2.24,1.13c.86,1.84-.37,5.24-3,7.22,2.9,2.11,2.92,6.33,6,7.88.67,2.16,1.24,4,1.87,6-3.26,2.58-3.41-2.84-6.08-2.44-.3,1.51-.61,3.09-.88,4.43.62,2.42,1.2,4.69,1.8,7.06l1.7-.24c-.32,1.36-.62,1.66-2.06,2.06,1.05,1.76,2.89,2.15,4.62,3,2.47-1.38,5.63-1.05,8.32-3.46l3.63-.27c-1.67-4.2,1.32-6.4,3.74-9l5.58,1.7,2.75-1.53.84.81-.73,3.66,4.72.57a7.37,7.37,0,0,0-.58.47c-.19.19-.52.49-.47.61.95,2.35-1.65,4.4-.51,6.79l-2.22,1.89.11.12-.88-1.6,1.52-2.54-2.43-.21.07.07v-4.38c-2.95.43-3.79,3.22-6.73,4l3,1.95-5.47,1.79-3.07-1.83-1.75.5-1.49-1.58-3.34,1.93h-3.38l-1.62,1.79-1.27-1.53c-1.62-.66-2.58.54-3.77,1.29l1.84,3.22-2.18.36c-.32-1.13-.6-2.16-.95-3.41l-3.23.69-1.4-2.35-7.38-.88-1.23,5.3,4.75-.79c.2,1,.4,1.92.65,3.1l3.44.48c.94,1.72,1.4,4.22,4.38,4.28-2.41,1.24-1.18,2.48-.19,3.82l3.19.43,1.52,2c-.71,1.5-1.45,3.2-.08,5l-2.84,2.63c-2.83.52-2.47-2-3.5-3.32L270,380.21c-.37-1.16-.69-2.13-1-3.23l-1.7.31c-.11-.49-.23-1-.39-1.78L263,374.14l-3.65,1.36c-.16,1.49-2.69,2.11-1.43,4.65l7.5.34L261.77,382l-.28-.42.39.3c-1.25,1.65-2.8.33-4.45.45l-.95,1.74h1.86c-.27.67-.5,1.25-.82,2l1.19,1.7,4.31.36c-.65,1.57-1.26,3.05-1.91,4.64-2.69.37-5.39-2.19-7.67,0l-4.28-4-1.48,1.07-3.07-.44-2.19,2.1c.36.94.71,1.83,1.06,2.75-.14.11-.3.37-.5.39-1.07.12-2.15.18-3.59.28,2.43,3.45,5.43.15,7.85,1.64l1.83-3.71,1.34,2.89L254,395l-.47,4.19L250,397a15.61,15.61,0,0,1-2.92.77,12.82,12.82,0,0,1-3-.49c-.09,2.18,1.32,2.84,2.49,3.7.27,1.18.56,2.43.87,3.74l3.84.58c0,.18,0,.35,0,.53L249,406c1,2.13,3,2,4.55,2.38a48.77,48.77,0,0,0,5.3.6l3-2.3c3.13.66,3.22.79,2.36,4.06l-5.77-.7-2.62.75.1.1c-.11-.24-.16-.64-.33-.7-2.21-.73-4.44-1.42-6.69-2.12-.77-.81-.61-2.6-2.41-2.36l.06.06c-.87-2.61-3.32-1.44-5-2.06-1.66-1.63-2.94-3.78-6.45-3.89,2.16,1.77,2.16,4.62,4.76,4.52.27.86.45,1.47.7,2.27l3-.18,1.43,3.36,4.28,2.07a3.9,3.9,0,0,1-3.27.31,10.9,10.9,0,0,0-2.6-.33l-8-1.9.1.11c-.13-.48-.27-1-.52-1.88l4.82,1.35,1.1-1.44-3-2c-3.66-1.14-5.06,2.41-7.71,4.31l1.92,2.2-.09-.11c0,1-.48,2.16.95,2.66l-.11-.11c.54,1.06,1.34,1.21,2.67.51v-2.2l-.12.11,1.33-.62.6,2.92,2.89.61c-1.73.62-4-.48-4.9,2.31l1.88,1.56-.09-.09c-.09.41-.17.81-.32,1.5l-2.52-1.44c.16-1,.3-1.9.47-3l-2-.59-1.89,2.55-3-.21-2.49,1.93-5.53-5.22-4.47,3.63c-2-2.07-4.17-2.26-6.63-1.28-1.57-1.2-1.57-1.2-1.93-3.36l3.23-.48.95,1.45h6.41c.35-1.19.74-2.46,1-3.42l3.54.33-1.72-1.78c.1-.12.2-.24.29-.37l3.12,1.32,2-1.82c.11,1.6.18,2.47.25,3.5l2-.18c-.31-1.09-.51-1.95-.8-2.77s-.64-1.48-1-2.21l-.11.12c1.56-1.17,3.17.22,4.92-.06l1.29-1.49c.2-.64.39-1.29.59-1.94l.41-.61c-.11.23-.23.45-.35.67l-1.13,1.45-2.36.2c2.87-1.56,2-3.78,2.22-5.78h-3.51c-.46,1.82-.87,3.42-1.27,5l.1-.12-4.19,1.24c-.06.57-.1,1-.15,1.41l.11-.1-2.44.5a28.93,28.93,0,0,0-3.38-.48c-.35,0-.72.59-1.08.92l.11-.1-3.5,1.88.22.59,2.07-.1.83,1.58-.91,1-1.59-1.33-3.16,1.62c-.42-.73-.84-1.46-1.31-2.26.11-.67.22-1.43.36-2.33l-2.89-1c.07-.63.14-1.25.22-1.9-2-.56-1.22,1.52-1.84,1.88l-3.52.61,2.94,1.48-.18.56-2.95-.49-1.15,2.4-2.46.76c0,.26.05.51.07.77l2.39.36c.18-.69.29-1.09.39-1.49l1.54-1,1.34,1.06c-.45.62-.85,1.16-1,1.34.37,1.84.68,3.38,1,4.93l-1.9,1.8a4.76,4.76,0,0,0,.5,5.59l-2.36-.38c-.21,1.15-.4,2.23-.59,3.31l-5.32,4.93,5.31,4-3.28,2-2.59-.64c-2.55,2.41-4.93,4.66-7.4,7,1.67,1.52,3,.38,4.53-.07l3,1.78-1.53,1.78c-2,1-3.37-.16-4.91-.79s-2.88-1-4.51-1.53c-5.58,5.46-11.67,10-19.93,10.37l-2.86-4.43v-5.89l-2.15-1.91,2.33.16,7.7-9.28-1.71-3.19c.59-2.78,1.27-6,2.09-9.89l-.5-1.13,1.71-2.64-2.33-1.85c.25-.61.51-1.21.84-2h4.31l1.82,3.79c.72.08,1.54.15,2.35.28,3.12.46,6,1.38,8.19,3.86a8.22,8.22,0,0,0,1.65,1.15l-.1-.12c.21,1.21.64,2.34.08,3.66a2,2,0,0,0,1.41,2.89l7.85-.55c.13-1.33.22-2.41.32-3.49l2.39-1.82-1.19-1.61c.14-1.6.27-3,.41-4.64l-2.76.46.1.09c-.23-.64-.47-1.27-.8-2.17l3.82-2.35c-2.48-.92-4.25-1.35-6.07.35l-2.6-4.29H185.8c.12,1.81.22,3.45.33,5.09l.12-.12c-2.52,1.37-5.22.73-8.76.8l-3.81-4.87H168c-1.75-3.36-5-5.28-8.38-7.09L154,407.7c-.16.88-.33,1.82-.52,2.85a11.81,11.81,0,0,1-4.38,3.34c.17-.83.35-1.67.57-2.7L146,408.3,143.61,410l-4-3.82c1.8-1,1.8-1,3.58-1l2.42,2.4.59-.34-.76-2.56-11.08-7.47.07.08c-.43-1.59-1.7-.84-2.66-.94l.12.11-2.65-1.82.1.09v-1.41c-.53-.16-1.05-.29-1.54-.48s-1-.44-1.61-.73c0-.62.09-1.15.16-2l-2.55-2.83-3.71-1.16c.13.66.19,1,.28,1.44-1.68.68-2.43-.68-3.48-1.7l1.19-.67-.81-5.16-4.49-3.68c-.33-1.69-.6-3-1-4.84,2-2-.85-4.33-.43-6.28l-3.55-5.28-3.88-.4-2.31-2.58-7-2.67c-2.39-.56-4.93-1-7.36,1.33.77.36,1.5,1,2,.86A12.26,12.26,0,0,0,91.92,355a2,2,0,0,1,2.45,1.53l.11-.11a47.37,47.37,0,0,0-5.64,2.6,5.5,5.5,0,0,1-4.48.63l1.35-1.81c-1.59-1.92-3.74-1.47-5.78-1.42l.13.12c-.67-.8-1.35-1.59-2-2.39l1.15-1-1.84-1.06c.57-.91,1.14-1.79,1.7-2.69l1.69-2.72-2.31-7.82-2.81-2,.57-.69-5.32-1.27-2.45,3.2-5.71-.53A12.28,12.28,0,0,1,64.31,339a12.74,12.74,0,0,1,.79,1.61c-2.44,1.32-3.48-.69-5-1.92l.5-2.42L57.88,332l-1.59-.33-1.67-3.69a26.3,26.3,0,0,1,11.72,1,22.33,22.33,0,0,0,4.25.5c.38-1.36.67-2.39,1-3.65-1-.75-1.86-1.42-2.14-1.63-1.31-2.86,1-3,1.86-4-1-4-1.92-7.87-2.85-11.66-2.79-3.94-6.44-7.33-8.18-12.05a9.4,9.4,0,0,1-.69-3.28c.09-5.1-.84-9.79-4.71-13.5a8.63,8.63,0,0,1-1.15-2l-5.31-3-2.29-3.08c0-.71.06-1.4.1-2.36l3.48-.24c2-1.38,3.37-7.55,2.6-10.7,2.18-4.31,2.1-4.93-1.09-6.32a16.84,16.84,0,0,0-.13,2.05,7.45,7.45,0,0,0,.4,1.49c-4-.57-4-.57-6.82-5.14-2.09-.69-4.86.59-6.68-1.42-1-1.07-2.34-2.16-1.94-4,1.52-1.24,2.91.08,4.44.28l2-1.23-3.28-4a4.83,4.83,0,0,1,3.35,1.71c3.09.92,5.71-1,8.46-1.47,3.51.7,6.72,1.82,9.14,4.73l2-3.29c-.18-2.32-1.91-4.78.3-7.27l3.75-.27L68.17,232c-.39-3.14-.77-6.18-1.19-9.59l-1.16-1.45,2.07-.4,12.94-12.88c0-.65.09-2,.15-3.37l-1.42-1.16c.16-.53.31-1.06.52-1.82-3.11-1.33-3.67-4.26-4.26-7.17l-.11.11c2-.16,3.45.88,5,2s3.34,2.34,5.11.68c.55-1.72,1-3.25,1.64-5.17l-1.69-4.93c1.83-1,2.7,1.55,5,1.52l3.51-1.26.24-2.87-5.83-4.48c1.26-2.7,1-4.9-.68-6.94-.43-.53-1.08-1.18-1.05-1.74.17-3.29-2.63-4.47-4.4-6.33a30.61,30.61,0,0,0-3.78-2.95c.12-.65.2-1,.27-1.44-3.85-3.24-5.42-7.86-7.82-12.89a10.32,10.32,0,0,1,1.29.88,4.62,4.62,0,0,1,.71,1.05c1.75,3.71,4.53,6.43,7.59,9.16a35.08,35.08,0,0,1,8.31,10.34c1.62,3.22,4,6.06,6.27,8.94,1.3,1.68,2.61,1.54,4.35,0l3.27.28c-3.69-6.52-7.69-12.33-10.2-19.6,3.46,2.52,4.75,6.08,7,8.82s3.48,6.36,5.29,9.83c1.24-.18,2.77,1,3.84-.86l-.08.07c3.21.28,6.06-1.24,8.9-1.17.64-2.75,1.13-4.87,1.56-6.74L124,169l2.06-2.14c-.35-1.16-.57-1.91-.82-2.73l1.52.4-.06-.08c.16.66.12,1.5.52,1.93,1.54,1.63,3.22,3.12,5.17,5,.47,1.36.81,3.38,2.9,4.26l-.12-.11c.25.93.49,1.85.73,2.78l-1.47,1.06,1,2.06c3.57-.1,6.54,1.62,9.58,4.13.15.63.41,1.68.63,2.6l4.38.17,1.05,3.6-2.34-.16c0-1.05.81-2.7-1.49-2.21-.37,1.48.79,1.66,1.61,2.11.31,1,.61,2.1.89,3.06l4,1.56-.79,2.82,3.06.41.91-2.46,2.45,3.43,4-1.18c1.18-1.1.81-3.19,2.58-3.09l8.42,9.7c2.1.76,3.92.46,5.15-.81l6.3.4.59-2.34c-2.78-.54-4-2.71-5.35-4.71ZM240.76,380.9l-.73-.54-.23.25.57.69.72.57.25-.25Zm.74-4.82,2.57-.18-2-3.46c-.37,1.85-.54,2.69-.7,3.52l-.62.47.59.49-.57,2.52,3.31-.2-1.41-1.16,1.76-1.32h-2.91C241.52,376.54,241.51,376.31,241.5,376.08Zm-5.11,5.83.82-1.5c-1.9.33-1.9.33-.93,1.58a7.09,7.09,0,0,1,.11,1.88c-.28,1.23.22,1.79,1.46,2,.38-1.2.75-2.35,1.22-3.82ZM267,313.19h2.48c0-2.49,1-4.62-.47-6.9l-2.13.34v6.44l-1.57.2c0,.58.07.94.1,1.38l1.39.11C266.84,314.2,266.9,313.69,267,313.19Zm-2.65,25.37.11.12c-.06-.81-.11-1.61-.2-2.93l-4,2.4a40.74,40.74,0,0,1,2.93,5.15c.69,1.75-.16,4,1.62,5.39h4.57c-.56-1.83-1.9-1.7-3.16-1.75-.12,0-.22-.22-.35-.37l1.74-.57c.05-1.17.1-2.26.16-3.47l-3.24-1.25.12-.62,4.68-.79v-2.22Zm-12.68,35.78c-1.88-.94.51-2.15-.34-3.07l2.38-1-3.25-1.61,6.11-1.4c1.08-1.41,3.75-1.45,4-4.39-3.2,2.61-6.53-.77-10,.77l-3.05,6.15,1.79.62-1.52,1.41c1,2.11,1.94,3.92,2.89,5.81h4.91l.8-2.15-4.46.38c-.16-.75-.24-1.16-.33-1.57,1.87,0,3.77.64,6.1-.42l-4.34-1.19Zm4.83,13.52c-1-1.63-1.52-2.54-2.09-3.49l-4.08.23C252.27,386.1,253.27,388,256.47,387.86Zm6.31-68.47c.7-1.5,1.11-2.37,1.68-3.56l-2.31-.23-2.08,2.5ZM174.83,452.86c2.65-1.27,4.53-2,4.28-5.19C177.41,449.28,175.72,450,174.83,452.86Zm4.76-8.94,4.45-3.56-4.75.36C179.39,441.72,179.45,442.37,179.59,443.92ZM238,387.34l2,2.71c.55-1.59.91-2.62,1.46-4.18Zm12.91-5.88-.57-3.51L248,380Zm16.69-30.55c-.86-1.47-1.84-1.76-3.51-.56C265.22,351.63,266.23,351.77,267.58,350.91Zm-6.38-27.25,2.11-2.89-3.47.52Zm-35,74.38.4,1a21.23,21.23,0,0,0,3-.9c.4-.18.6-.81,1.37-1.93Zm48-79.89-3.86.3c.66.73,1,1.11,1.4,1.57Zm-4.33,5.28.53-.63c-.13-.35-.25-.71-.43-1.21l-2.67.23Zm-6.43-14.64c-.59,2.53-.59,2.53,1.09,2.16Zm6.7,42.38c-1.32-.6-1.95-.4-1.08,1C269.36,351.82,269.72,351.5,270.07,351.17Zm-13.7,29.68-.58-.49-.5,1.09.37.2C255.89,381.38,256.13,381.12,256.37,380.85Zm7.85-58.19-.32-.06c-.09.28-.19.56-.29.84l.55.14Zm-28.3,81.66-.15.2.23,0Z"/><path class="cls-1" d="M140.5,143.52c.75.48,1.31.82,2.08,1.3.29-1.07.55-2,.87-3.28,4.22,1.62,6.35,4.79,7.69,8.56a34,34,0,0,1,1.57,6.46c.32,2.16.38,4.34-1.07,6.34-.64.89-.63,2.24-1,3.8l-1.4.73c-3.81-2.56-3.58-6.59-3.72-10.48C143.85,152.54,142.21,148.13,140.5,143.52Z"/><path class="cls-1" d="M278.75,300.45l7.73,1.68-.07-.06c.49.32,1.11,1,1.47.89a15.84,15.84,0,0,0,2.7-1.43l6.81,1,.75.76c-.33,2.46-2.41,2.61-4.09,3.47l.17,2.25-1.05,2.51.11-.11c-2.19.07-2-2.6-4.36-3.31h-2.64c-2,2.56-4.25,5.37-6.44,8.12l-3.64-2.28.11.1,1.68-3.37-.11-.13,2.32.76c-.7-3.32-1.27-6-2-9.25.06-.16.34-.92.61-1.68Z"/><path class="cls-1" d="M129.7,99.46c2,3.75,3.85,7.14,5.59,10.58a10.73,10.73,0,0,1,1.52,5.58c-.1,1.54,0,3.09,0,4.77l-2,2.36-3.78-3a24.53,24.53,0,0,1-2.59-12.57c.07-2.42.57-5.25-2.26-7.72Z"/><path class="cls-1" d="M40.65,301.26l6.76,3.47,1.7.23-1.1.88,2.06,4.53-1.45,1.55c-6.82.58-10.7-1.73-13.16-7.76C36.43,302,38.52,302,40.65,301.26Z"/><path class="cls-1" d="M147.79,440.45c1-4.63,1.84-8.72,2.75-13.08a13.49,13.49,0,0,1,1.85-.18,9.39,9.39,0,0,1,1.83.5c1.4-2.44,2.4-5,4.12-6.9s4.07-3,6.31-4.31c-2.69,4.27-5.43,8.45-10,11.5l1.71,2.41c-.68,1.86-1.38,3.76-2.33,6.31C152.35,437.19,151.52,440.26,147.79,440.45Z"/><path class="cls-1" d="M135.17,146.59c2.08,2.94,4.29,5.82,6.22,8.86,1.5,2.35,2.7,4.91,2,8a6.27,6.27,0,0,1-1.46.81,7.2,7.2,0,0,1-1.75,0c-1.62-1.86-1.42-5-4.22-6.08h-2.2c.84-4.06-2.12-7.78-.57-12.08l2.12.58Z"/><path class="cls-1" d="M284.78,331.77l-1.6.66c-1.69-.56-3.73-.72-5-3l3.51-6.79-4.1-1.62,2.08-1.89-.11-.12c1,2.11,2.68.39,4.07,1,1-1.16,1.84-2.2,2.75-3.29l1.41.16c.11,1.36.22,2.71.33,4.19l2.19,1-2.09,4.38-4.39.33c.48,1.85-.57,3.61.82,5.13Z"/><path class="cls-1" d="M285.84,381.62c.09-1.79.15-3.1.23-4.6-2-.5-4.19,1.38-7-.4l5.58-.91c1-1.67,1.53-3.16,2.55-4.2.84-.83,2.23-1.11,3.62-1.75,0,.35,0,.82,0,1.29s-.07.8-.11,1.23l1.2.69-1.18.91c2.78,3.28,7.15,2.49,10.51,4.49l-5-.51-2.54,3.76Z"/><path class="cls-1" d="M96.1,156.87c1.13-.54.69-1.36.37-2.13-.83-2-1.69-4-2.59-6.16l-4.58-2.19c-.31-1.65-.58-3.08-.79-4.16l-3.16-1,3.78-5.08c-1.13-1.65-2.49-3.13-1.92-5.95L90.75,136s-.19.71-.59,2.14l1.89,1.38a35.08,35.08,0,0,0,1.87,4.6c2,3.36,3.32,7,5.12,10.43.79,1.51.87,3.4,1.33,5.39-2.59,0-2.4-2.84-4.18-3.19Z"/><path class="cls-1" d="M289.7,268.3l2.87-2.37,2.68.85,2.84,3.67v2.95l-7,5c-2.29-1.74-2.82-4-3.35-6.34Z"/><path class="cls-1" d="M27.31,218l1.2-.65-1.14-1.81-2.2.46c.72-2.25,2.76-2.1,4.75-2.88l5.67,4.79,6.38.39-5.35.93c-.07.67-.15,1.49-.24,2.34l-2.17,1.85c.89.4,1.51.68,2.3,1l-1.37,1.91c-.81-.2-1.9-.14-2.32-.64-2-2.42-4.66-4.46-5.47-7.76Z"/><path class="cls-1" d="M47.84,64.22c1,1.47.57,3.54,2.77,3,3,3.14,4.65,7,6,11.27l1.07-1.28v3.55l-.89-.84-1.83,1.94c-.49-.15-.83-.15-1-.32-1.66-1.7-2.24-4.12-4.36-5.67-1.16-.85-1.4-3.24-1.65-5A53.07,53.07,0,0,1,47.84,64.22Z"/><path class="cls-1" d="M281.53,387.3c.48-.72.84-1.28,1.26-1.92l7.94,4.57c-.44,2.11-.83,4-1.2,5.74-1.8,2-3.54,1.65-5.08.44.17-1.83.33-3.5.48-5.13Z"/><path class="cls-1" d="M47.39,335.27l-2.22,1.24c-.1.88-.17,1.58-.27,2.48l-2.31,1.2-7.1-2.05,2-.62c-.22-1-.4-1.77-.66-2.94.52-.55,1.19-1.25,2-2.1C41.34,334.38,44.49,332.74,47.39,335.27Z"/><path class="cls-1" d="M160.7,64.83a15,15,0,0,1,2.46,6.82c.36,2.32,1,4.59,1.52,7-.32.94-.66,2-1.05,3.15-.38-.1-.84-.08-1.09-.29-1.86-1.63-1.87-4.06-2.15-6.16C160,72,158.26,68.66,160.7,64.83Z"/><path class="cls-1" d="M137.72,410.05c.93,1.14,1.87,2.27,2.52,3.08-.26,2-.46,3.48-.66,5.05L134,419.39l-2.3-2.51c.55-1.32,1-2.45,1.47-3.57,1.28-1.57,4.05-1,4.63-3.36Z"/><path class="cls-1" d="M63.15,221.57l-3.26,1.5-2.28-1.69c-.14.78-.25,1.36-.42,2.24l-5.66-1.93c-1.49-1.78-1.49-1.78-4.66-2.89l2.37-2.4Z"/><path class="cls-1" d="M129.24,124.51c-.11,1.62-.21,3.24-.33,5.09-2.64-.55-4.71-1.31-5.53-3.93-.14-.46-.63-.81-1-1.21l.12.1v-3.33l2.26-2.39,4.51,5.73Z"/><path class="cls-1" d="M118.64,152c1.5-1.95-.45-4.73,1.48-6.78,2.53,1.38,3.55,3.79,4.66,6.49v4l-2,1.07Z"/><path class="cls-1" d="M111.8,398.69l-2.5-2.84,1.86-3.83c2.51-1.25,4.11-.09,5.78,1.07l1,3.72C116.36,398.87,114.2,399,111.8,398.69Z"/><path class="cls-1" d="M319.11,338.45l-1.24-3,2.91-3.88c3,.84,6.14.52,10.17-.74-.93,1.31-1.31,2.33-1.71,2.34-2.44,0-4,1.68-5.87,2.8C322.07,336.73,320.75,337.49,319.11,338.45Z"/><path class="cls-1" d="M98,358.33a15.33,15.33,0,0,0,6.9,3.39,15.61,15.61,0,0,1,3.13,1.71l-2,.9v2.86l-1.62.15c-1.27-2.33-1.27-2.33-.91-4.86a29.61,29.61,0,0,1-9.79-1.74Z"/><path class="cls-1" d="M307.72,303.73l-3.78.88c-2.24-1.52-2.27-3.4-1.85-5.66.86-.82,1.87-1.76,3-2.82,2.81,2.08,3.28,4.69,2.53,7.7Z"/><path class="cls-1" d="M108.5,105.27l1.44-.15c1,3.34,2.09,6.6,2.93,9.93.2.76-.41,1.73-.69,2.72-2.87-.81-2.72-3.4-4-5C108.23,110.28,107.85,107.77,108.5,105.27Z"/><path class="cls-1" d="M276.32,286.86a33.94,33.94,0,0,1,1.08-4.42c.52-1.31,1.43-2.45,3-2.24,1.43,3.7,5.35,6.88,2.27,11.54l-1.19-1c.54-2,1.56-3.83-.15-5.78-1.74.41-3,2.47-5.15,1.76Z"/><path class="cls-1" d="M337.55,299.57c1.27-3.16,4.79-2.52,6.59-5.73a12.27,12.27,0,0,1-1.87,8.55l-3.22,1.12Z"/><path class="cls-1" d="M214.92,170.71l2.22-1.21c3.6,2.14.88,6,3.08,8.63l-3.14.46-.77,1.68C213.83,177.28,216.32,173.91,214.92,170.71Z"/><path class="cls-1" d="M336.3,314.28l-1.51-4,2.19-3.59,4.35-1.19C342.25,310,339,311.59,336.3,314.28Z"/><path class="cls-1" d="M163.23,61.7c.73.62,1.79,1.08,2.15,1.87,1.78,3.89,4.93,6.32,8.51,8.27,1.92,1,3.21,2.61,4.92,4.47-3.25-.23-4.95-2.29-7-3.71a28.76,28.76,0,0,1-8-8.58,8,8,0,0,1-.57-2.41Z"/><path class="cls-1" d="M80.81,114.38c1.18,2.87,1.9,5.91,4.09,8.35a4.94,4.94,0,0,1,.67,4.83,5.32,5.32,0,0,1-3.87-3.91c-.89-2.79-1.88-5.51-1.66-8.5l-.09.09,1-1Z"/><path class="cls-1" d="M249.27,240.48c-1.65,2.25-5.4,1.59-5.55,5.36l-.92-1.94-1,.07c.06-1.15.12-2.3.19-3.79l1.46-1.62c.31.86.53,1.5.83,2.34l3.11-.25c-.26-1.58-.48-2.87-.72-4.28a8.36,8.36,0,0,0,1.95.19c.59-.08,1.14-.35,1.05.57C249.6,238.35,249.4,239.55,249.27,240.48Z"/><path class="cls-1" d="M284.68,331.9l3.09-2.07,2.68,4c-.67,2.6-3,3.74-5.25,5.36,0-.65-.13-1.78.13-1.89,1.41-.59,1.2-1.71,1.24-2.91l-1.79-2.64Z"/><path class="cls-1" d="M48.74,229.25l-3.59-4.42c.11-.91.24-2.06.4-3.57,3.2,1.69,4.67,4.5,7.08,6.85Z"/><path class="cls-1" d="M304.83,313.94c-.26,1-.42,1.6-.71,2.69l3.85-.81-8,6.55c-.23-.17-.45-.35-.67-.53l3.81-6.59c-.38-1-.8-2.11-1.23-3.22l.49-.37Z"/><path class="cls-1" d="M263.54,242.56c-1.35.26-2.7.58-4.06.76s-2.73.24-4.1.36L252,241.14l3.13-2.68c.64,1.28,1.22,2.44,2,4l6.1-2c.06.71.14,1.46.21,2.22Z"/><path class="cls-1" d="M53.43,372.28c-3.78.86-6.29-.2-7.82-3.46l1.79-1.09C52.92,369.26,52.92,369.26,53.43,372.28Z"/><path class="cls-1" d="M18.47,343.47,15.84,346a4.69,4.69,0,0,1-5.52-2.64l3.7-2.27Z"/><path class="cls-1" d="M316.12,297.81l-4.85,3c-1.57-1.2-.74-3-.88-4.64A3,3,0,0,1,312.1,293c2,1,1.74,3.34,2.82,4.82l1.31.13Z"/><path class="cls-1" d="M279.67,348.83c.37-1.14.73-2.28,1.19-3.71l4.78-2.19-.1-.09c.29.75.57,1.5.91,2.41l-3.28,4.2-3.53-.65Z"/><path class="cls-1" d="M149.53,132.69c-.62,3.75,1.73,6.76,3.07,10.9l-3.65-1.8c.17-.84.32-1.63.49-2.52-1-2.54-2.62-5.1-2-8.58Z"/><path class="cls-1" d="M126.18,408.16l-2.75-.16c1-2.3,1.47-4.43-1.06-6.37l3.26-1,2.16,1.95C127.27,404.39,126.76,406.13,126.18,408.16Z"/><path class="cls-1" d="M256.61,399.21l.89-.57c.08-.79.17-1.7.27-2.78h3.55c.41,1.65.82,3.33,1.35,5.42a9.11,9.11,0,0,1-2.23-.26C259.09,400.47,257.79,399.78,256.61,399.21Z"/><path class="cls-1" d="M295.67,315.94a5.38,5.38,0,0,1,1.23-.25,10.94,10.94,0,0,1,1.7.28l1.22,2.15-2.2,2.43H294.7C293.63,318.66,294.46,317.28,295.67,315.94Z"/><path class="cls-1" d="M10,120.19l4.4,7.81.81-1.54v3.84c-.5,0-1.28.28-1.47,0a29.25,29.25,0,0,1-2.56-3.69A11.43,11.43,0,0,1,10,120.19Z"/><path class="cls-1" d="M30.89,316.32l1.81-2.39,4.24,2L34.88,318c.12.39.31,1,.56,1.77l-1,1L32,319.14c.15-.73.27-1.35.44-2.23Z"/><path class="cls-1" d="M264.43,242.69v-1.26c1.48,1.19,1.47,1.19,1.57,3.18.06,1.38.15,2.76.26,4.69-.13.19-.58.84-1.07,1.53l.57,2.14-2.61.43c-.2-.43-.34-.58-.31-.66.89-1.85.2-4.1,1.6-5.86,1.1-1.37,1.57-2.92-.12-4.31Z"/><path class="cls-1" d="M36.51,421.79A43.86,43.86,0,0,1,53,414.49l.28.25c-.21.19-.38.46-.63.55Q44.59,418.56,36.51,421.79Z"/><path class="cls-1" d="M27.18,165.91l-1.45.84-2.54-3.85v-3c.44-.11.91-.4,1.2-.27.95.43,1.84,1,2.77,1.54a11.88,11.88,0,0,0-.59,2.59A8.31,8.31,0,0,0,27.18,165.91Z"/><path class="cls-1" d="M7.85,306.87H3.21L0,304.71,1.6,303C3.89,303.66,6.36,303.75,7.85,306.87Z"/><path class="cls-1" d="M156,177.24l1,3.79c-2.39.55-1.77-2.32-3.4-2.6l-1.42,1a4.19,4.19,0,0,1-1.37-4.5Z"/><path class="cls-1" d="M158.14,190.31l1.74-1.17c2,1.64,1.55,4.14,2.84,6l-2.05,2.9C159.74,195.17,159,192.91,158.14,190.31Z"/><path class="cls-1" d="M347.17,321.27l5.74-4,1.55,3.51C352.13,323.86,350,321.52,347.17,321.27Z"/><path class="cls-1" d="M119.1,166.29c-2.38-2.62-5.37-4.71-6.31-8.4l3.4,1.05Z"/><path class="cls-1" d="M280.19,265.11l3.42-3.08c1.09,1.71-1.08,3.89-.06,6C280.23,269.33,281.45,264.92,280.19,265.11Z"/><path class="cls-1" d="M192.93,164.41c2.2,2.38,1.77,4.83,1.55,7.22-1.85.65-2.12-.64-2.51-1.62C191.24,168.12,190.83,166.24,192.93,164.41Z"/><path class="cls-1" d="M63.85,319.94l1.42,3c-3.37.08-5.37-2.32-8-4.31C59.67,318.16,61.69,318.14,63.85,319.94Z"/><path class="cls-1" d="M322.92,315.65l-4.13,1.8-2.74-1.38,3.16-3.58c2.49.17,1.42,2.42,2.61,3.21l1.21.05Z"/><path class="cls-1" d="M145,451.8a15.4,15.4,0,0,0-2.8-1.05,6.38,6.38,0,0,0-2,.44c-.2-.57-.37-1.05-.74-2.06l2.45.79,2-3.74,2.06,3.49Z"/><path class="cls-1" d="M213.06,195.51l-3.31,1.33a5.14,5.14,0,0,1,.84-5.91C212.68,191.63,213.67,193,213.06,195.51Z"/><path class="cls-1" d="M297.42,366.07c.53-1.55,1-2.95,1.53-4.5l2.5.27c.45,2.22.63,4.07-1.78,5.16Z"/><path class="cls-1" d="M334.24,358.62V356l2.78-1.9,2.31,1.85-1.62,2.91Z"/><path class="cls-1" d="M178.15,180.89a7.59,7.59,0,0,1-3.65-6.64C177.37,174.46,178.35,176.13,178.15,180.89Z"/><path class="cls-1" d="M270.35,262.09l-3.71,2-2.06-1.77a21.3,21.3,0,0,1,2.29-.86,13.56,13.56,0,0,1,2-.24v-4.14l2.11.9-.78,4.22Z"/><path class="cls-1" d="M86.2,438.92c.49.86.89,1.56,1.57,2.77l-1.1.48c-2.53,1.14-2.53,1.14-4.71-.48C83.34,439.94,83.34,439.94,86.2,438.92Z"/><path class="cls-1" d="M271.79,386.77c.18-1.5.36-3,.57-4.81l1.8,2.3c-.27.39-.64.95-1.06,1.58.85,1.92,3,1.73,4.69,2.72-.07.75-.16,1.62-.31,3.23C276,388.75,273.39,388.32,271.79,386.77Z"/><path class="cls-1" d="M238,203.58l2.86-3.2c2.66,1.17,2.17,3.25,2,5.65l-2.28-.86.11.11-1.14-.81-1.41-1Z"/><path class="cls-1" d="M246.54,78.27c2.13,6.79,2.12,6.89-.18,8.56C245.36,83.17,245.36,82.3,246.54,78.27Z"/><path class="cls-1" d="M25.17,248.71l-4.33-2.84c0-.63-.09-1.27-.13-1.86.47-.15.8-.38.95-.29,1.76,1.05,3.5,2.15,5.58,3.45Z"/><path class="cls-1" d="M104.74,439.08c1-2.36,2.74-1.79,4.7-1.56,0,.75.15,1.52-.15,2a3.81,3.81,0,0,1-1.83,1.62C106,441.57,105,440.88,104.74,439.08Z"/><path class="cls-1" d="M48.6,363.53h3.95c.07.91.14,1.69.22,2.6a7.37,7.37,0,0,1-5.16-.16Z"/><path class="cls-1" d="M204.79,4.38c.53,1.69,1.07,3.38,1.63,5.16-.38,1.13-.76,2.29-1.4,4.23C203.69,10.22,204.16,7.32,204.79,4.38Z"/><path class="cls-1" d="M286.51,294.5c1.51-1.44,3.35-.44,5.2-.66-2,1.33-1.94,3.49-2.28,5.52l-2.1-.14c.56-1.34,1-2.43,1.55-3.67l-2.47-1.17Z"/><path class="cls-1" d="M109.38,374c-1.5,1.86-2.94.95-4.56-.15v-2.23C106,370.5,107.88,371.55,109.38,374Z"/><path class="cls-1" d="M127.9,410.44l2.08-.93c.61,1,1.19,1.91,2,3.18l-2.43,1.53C127.67,413.33,127.51,412.15,127.9,410.44Z"/><path class="cls-1" d="M49.73,261.82H47.19L45.39,258c1.76-1,2.57.16,3.47.81S50.52,260.35,49.73,261.82Z"/><path class="cls-1" d="M350.56,305.23l3.39-.48c.13.67.37,1.12.25,1.44-.58,1.53-1.49,2.7-3.64,2.44Z"/><path class="cls-1" d="M114.37,171.74l-2.33.18c-1.65-2.22-1.65-2.22-2-4.76.72.18,1.55.15,1.85.53A42.39,42.39,0,0,1,114.37,171.74Z"/><path class="cls-1" d="M324.72,304.88c-.7-1.15-1.12-1.83-1.7-2.76l2.59-2.79,1.74,2.6Z"/><path class="cls-1" d="M267.71,381.93l2,2.57-1.57,3.07c-.25-.17-.7-.3-.83-.58-.58-1.27-1.08-2.59-1.71-4.12l2.16-.87Z"/><path class="cls-1" d="M248.28,440.62c.06-.69.13-1.37.23-2.36l3.51,1c.29.87.56,1.65.86,2.53l-1.66.84-3-2.14Z"/><path class="cls-1" d="M207.72,154.45c-1.95-2.14-.16-3.76-.18-5.4a16,16,0,0,1,.53-5.13,9.84,9.84,0,0,1,.8,3.06C208.68,149.3,208.18,151.6,207.72,154.45Z"/><path class="cls-1" d="M224.73,178.44c1.91-.42,3.41-.56,4.74,1.27a4.66,4.66,0,0,0-1.45.58,11.68,11.68,0,0,0-1.27,1.66l-2-1Z"/><path class="cls-1" d="M37.13,358.82c.08.58.14,1,.19,1.41-2.44,1-4.21-.49-7-1.44,1.4-.7,2.06-1.33,2.62-1.24A29.54,29.54,0,0,1,37.13,358.82Z"/><path class="cls-1" d="M133,92.56l1.85,1.06L136,98.69C133.25,97.65,132.89,96.89,133,92.56Z"/><path class="cls-1" d="M.17,185.71c3.5.25,3.73,2.82,5.14,4.58-3,.26-3,.26-5.22-1.73l1.81-.75Z"/><path class="cls-1" d="M43,291l2-4,2.84,1.43L46.7,290.8Z"/><path class="cls-1" d="M276.21,287.71c1.92-.16,2,1.87,3.64,2.42l-5.34,2.74,1.79-5.27Z"/><path class="cls-1" d="M330.69,252.84c1.83-3.71,5.07-6.14,8.14-8.74-1.76,2.78-4.4,4.8-6.36,7.39-.55.72-.92,1.35-1.9,1.26Z"/><path class="cls-1" d="M429.39,269.44c-3.74-.43-4.28-2.46-4.8-4.6l1.14-.91C427.27,265.24,428,267,429.39,269.44Z"/><path class="cls-1" d="M279,380.39l3.62.37c.67.48.21,1.93-1.38,3.54C280,383.53,278.71,382.77,279,380.39Z"/><path class="cls-1" d="M253.08,89.63c.06-2.21-1.43-4.35.57-6.41,1.8,1.09,1.12,2.76,1.19,4.19C254.87,88.15,254.78,88.16,253.08,89.63Z"/><path class="cls-1" d="M52.19,399.19c3-.09,5-.67,6.1,1.88l-3.37,1Z"/><path class="cls-1" d="M269.83,220.91c1.52,2.44,1.58,4.67-.29,7.3-.37-1.21-.91-2.07-.82-2.86A33.51,33.51,0,0,1,269.83,220.91Z"/><path class="cls-1" d="M9.55,288.54c.29-.74.57-1.48.88-2.29,1.47.79,3.32.35,4.09,2.49-.31.35-.72.84-1.25,1.47l-3.82-1.77Z"/><path class="cls-1" d="M200.29,166.79c-.4-1.16-.8-2.32-1.24-3.56.36-.89.71-1.79,1.14-2.84.45.27,1,.41,1,.66a11.54,11.54,0,0,1,0,5.69Z"/><path class="cls-1" d="M260.33,458.8l-1.59-.88v-2.53c.56-.07,1-.28,1.33-.14,1.21.58,2.35,1.26,3.51,1.89Z"/><path class="cls-1" d="M294,339.41l1.09,2.82-2.72,1.65L291,341.75c.39-.74.71-1.35,1-2l2.09-.23Z"/><path class="cls-1" d="M186.13,417.69l2.43-.57,2.17,2.91c-1.58,2.16-3.2-.5-4.82,0l.34-2.43Z"/><path class="cls-1" d="M251.65,271.56c1.38-2.62,1.38-2.62,3.86-3.19v3.72l-4-.64Z"/><path class="cls-1" d="M267,198.52l-.89-1.79,3.57-2.5c1.15,2.13-.7,3.16-1.18,4.63l-1.61-.46Z"/><path class="cls-1" d="M69.32,344.25c-.36-.76-.75-1.6-1.29-2.73l3.9-.26c.09,1,.16,1.9.25,3Z"/><path class="cls-1" d="M262.63,138.18c.13.06.34.11.36.19a25.2,25.2,0,0,1-1,9.89c-.19-3.74-.68-7,.7-10.18Z"/><path class="cls-1" d="M83.46,178.09c-.48-1.6.67-3.13-.16-4.87,2.66-.1,2.51,2,3.33,2.89-.49,2.18-2.3,1.17-3.29,1.87Z"/><path class="cls-1" d="M17.24,216.91c-3.47,0-4.14-2.18-5.46-4.57C14.17,213.46,16,214.34,17.24,216.91Z"/><path class="cls-1" d="M333.65,290.51c-.61,1.92-.19,3.66-2.25,4.62l-1.23-.87C330.51,292.56,330.89,291,333.65,290.51Z"/><path class="cls-1" d="M117.48,412l3.3-2.06,1.45,1.32C122.23,413.32,120.28,413.62,117.48,412Z"/><path class="cls-1" d="M313.71,284.89a1.87,1.87,0,0,1-1.54-2.5c.36-1.25,1.35-1.6,2.66-1.19C315.47,282.77,315.47,284.09,313.71,284.89Z"/><path class="cls-1" d="M33.31,263.83l-.54,1.9c-.69-1.66-1.14-2.77-1.73-4.19,1.86-.11,3.67-.68,4.76,1.84l-2.56.52-.26-.33Z"/><path class="cls-1" d="M356.41,295.76c-.05-.6-.08-1-.11-1.42l3.34-2.46c.08,1,.43,1.91.13,2.37C359.12,295.27,358.28,296.36,356.41,295.76Z"/><path class="cls-1" d="M199.53,202.25c.12-1.33.29-2.67.34-4a22.55,22.55,0,0,1,.39-4.53c.38,1.55.75,3.1,1.19,4.91-.34,1.07-.76,2.36-1.18,3.64Z"/><path class="cls-1" d="M56,296a2.38,2.38,0,0,1-.88-.07,5.22,5.22,0,0,1-.92-.77L55.32,292l2.53.89C57.19,294,56.68,294.88,56,296Z"/><path class="cls-1" d="M279.62,362.27,278,368.13l-1.92-.91C276.72,365.48,277,363.56,279.62,362.27Z"/><path class="cls-1" d="M305.84,262.86l-2.75-.77c.18-.36.23-.66.37-.7,1.32-.39.42-3.17,2.86-2.46A3.12,3.12,0,0,1,305.84,262.86Z"/><path class="cls-1" d="M47.94,324.48l4.31,2.09a3.35,3.35,0,0,1-4.41.38c-.46-.29-.47-1.28-.68-1.94Z"/><path class="cls-1" d="M341.91,285.39c.69,3.06.67,3.09-2.11,3.73C339.35,287,339.35,287,341.91,285.39Z"/><path class="cls-1" d="M226.47,421.13c3.17.42,4.11,1.77,4.59,3.82l-1.87,1.45a13.78,13.78,0,0,0-.55-3.06C228.35,422.71,227.64,422.28,226.47,421.13Z"/><path class="cls-1" d="M81.72,423.49c-2.11,1.86-2.11,1.86-4.07.32C79,421.52,79.08,421.51,81.72,423.49Z"/><path class="cls-1" d="M134.17,451.66l2.58-3.09L138.3,451l-1.89,2.6Z"/><path class="cls-1" d="M7.85,148.25l-1.41,2.11c-1.61-1.18-2-3.13-2.33-5.29l3.61,3.29Z"/><path class="cls-1" d="M303.89,334.88c-.39-.72-.78-1.45-1.22-2.29l3.7-2.32C307.46,332.74,304.05,332.9,303.89,334.88Z"/><path class="cls-1" d="M228.35,136.34a10.59,10.59,0,0,1-.68-8c.15,1.43.3,2.86.46,4.47l1.38,1Z"/><path class="cls-1" d="M84.46,428.65l-2.17,1.78-2.47-1.52L82.3,427Z"/><path class="cls-1" d="M320.61,42.84c-.47,1.93-.93,3.86-1.49,6.18C318,46.68,318.15,45.66,320.61,42.84Z"/><path class="cls-1" d="M39.44,207.81l3.81,5.25C40,212,39.87,211.9,39.44,207.81Z"/><path class="cls-1" d="M139.79,429.85l2.4-2.27,1.71,3C142.07,431.29,140.8,431.46,139.79,429.85Z"/><path class="cls-1" d="M90.41,400.18v-1.71h3.37c.2.82.39,1.57.64,2.56Z"/><path class="cls-1" d="M285.33,283.74l2.84,3.05-1.5,1.59C284.53,287.57,284.75,286.07,285.33,283.74Z"/><path class="cls-1" d="M246.46,27.65v8.24l-.69.17c-.27-.46-.75-.92-.77-1.39a16.69,16.69,0,0,1,1.59-6.93Z"/><path class="cls-1" d="M286,369.85l-3.27,3c-.69-1.93-.64-3.16.71-4.48Z"/><path class="cls-1" d="M294.7,265.29l-1-2.73c.66-.34,1.39-.72,2.34-1.23a4.61,4.61,0,0,1,.21,4Z"/><path class="cls-1" d="M281.32,404.64l2.09-1.17c1.31.85,1.5,1.92.71,3.45l-1.87.41C281.93,406.43,281.68,405.7,281.32,404.64Z"/><path class="cls-1" d="M312.89,267l1.94,1.35-3.12.44c-.92-1.72-.47-3.07.73-4.69C312.61,265.18,312.73,266,312.89,267Z"/><path class="cls-1" d="M101.75,378.31l-3.3-3,2.4-1.53C102.39,374.87,101.89,376.1,101.75,378.31Z"/><path class="cls-1" d="M107.11,493.86l-2.42,1.93-1.77-1.61C104.14,492.37,105.28,492,107.11,493.86Z"/><path class="cls-1" d="M301.7,406.78h3.78l-.82,3-1,.07Z"/><path class="cls-1" d="M44.84,386.84l-4.48-.23c-.09-1.55.76-2.13,2-1.88A12,12,0,0,1,45,385.86C44.92,386.19,44.88,386.52,44.84,386.84Z"/><path class="cls-1" d="M114.21,404.05l-2.57-2.13c1.61-1.68,2.78-1.37,4,.42Z"/><path class="cls-1" d="M134.2,476.61c.11,2.3-.81,3-2.69,2.84C131.42,476.9,131.42,476.9,134.2,476.61Z"/><path class="cls-1" d="M109.52,376.8l2.66,1.66-1.29,1.67L108.48,379Z"/><path class="cls-1" d="M259.06,261.17l-1.72-3h3.31C260.8,259.49,261.05,260.67,259.06,261.17Z"/><path class="cls-1" d="M237.87,475.41l3,1.27c-.83.94-1.32,1.49-2.12,2.41l-1.68-2.81Z"/><path class="cls-1" d="M202.27,431.18l.85,3.75-1.79.5a5.9,5.9,0,0,0-.14-2c-.24-.53-.85-.9-1.7-1.74l2.9-.39Z"/><path class="cls-1" d="M79.2,380.6c-2.66,1.08-3.57-.74-5-1.87l1.59-1.07Z"/><path class="cls-1" d="M16.84,200.54c-.16-1.37-.28-2.38-.48-4.07l3.86,4.07Z"/><path class="cls-1" d="M293.21,213.39l-1.32-.4-1.5,2.13-.58-.27,1.61-5.14Z"/><path class="cls-1" d="M305.94,358.1l-.18,1-4.6.21c.36-.85.73-1.72,1.21-2.83l1.62,1.72h2.06Z"/><path class="cls-1" d="M16.77,358.65,13.48,357c2.25-1.12,2.25-1.12,4.12-.23Z"/><path class="cls-1" d="M26.14,209.33c-.92-1.47-1.83-3-3-4.82C26.39,205,26.37,207.16,26.14,209.33Z"/><path class="cls-1" d="M239.78,41c-.82-2.86-.82-2.86.56-5.34C240.42,37.56,240.73,39.3,239.78,41Z"/><path class="cls-1" d="M123,166.24a4.85,4.85,0,0,1-2.13-4.75C122.71,162.92,122.71,162.92,123,166.24Z"/><path class="cls-1" d="M90.2,444.38c1.81-2.12,1.81-2.12,3.87-.94C93.29,445.06,92,444.74,90.2,444.38Z"/><path class="cls-1" d="M89.11,111.92c-1,1.66-1.51,2.49-2.54,4.17-.65-1.43-1.06-2.31-1.43-3.11Z"/><path class="cls-1" d="M162.74,47a5.92,5.92,0,0,1,2.95,5.3C163.75,50.6,163.52,48.6,162.74,47Z"/><path class="cls-1" d="M40.28,496.4c.35-2.78.35-2.78,3.57-2.89C43.4,495.25,41.89,495.6,40.28,496.4Z"/><path class="cls-1" d="M5.17,325.84c-.08.41-.16.82-.24,1.28-1.62.59-3,.56-3.84-1.41,1.52-1.39,2.82.65,4.2.24Z"/><path class="cls-1" d="M183.17,181.56l1.5,4.38c-1.6-1.05-2.77-2.26-2.46-4.12Z"/><path class="cls-1" d="M321.9,171.67c-.09,2,.82,4-.91,6.06C319.87,175.33,321.34,173.56,321.9,171.67Z"/><path class="cls-1" d="M346.69,275.06l-1.55-1.43c.53-1.58,1.31-2.27,3.24-1.66C347.81,273,347.31,273.92,346.69,275.06Z"/><path class="cls-1" d="M242.94,219.18c.07,1.34.15,2.69.23,4.22l-2.24.47c.41-1.8.75-3.27,1.09-4.75Z"/><path class="cls-1" d="M297,284.48c.8-2,1.24-3.1,2-4.93a9.62,9.62,0,0,1,.92,2.46C299.9,283,299.78,283,297,284.48Z"/><path class="cls-1" d="M281.86,274.75a3.2,3.2,0,0,1,.52-4l1.26,1C283.69,273.25,283.32,274.28,281.86,274.75Z"/><path class="cls-1" d="M7.37,98c-.09-.56-.18-1.18-.31-2h3.09C9.83,97.65,9.12,98.36,7.37,98Z"/><path class="cls-1" d="M227,52.52c1.76,1.66,1.61,3.38,1.33,5.52C226.38,56.41,227.39,54.49,227,52.52Z"/><path class="cls-1" d="M125.42,422.69l-2.63-.22c-.19-2.18,1-2.2,2.63-2Z"/><path class="cls-1" d="M64.93,94l-.7-2.54L67,92.63v2.3Z"/><path class="cls-1" d="M292.75,331.44c.5.88,1,1.73,1.5,2.65l-2.22,1C291.56,333.54,291.26,332.25,292.75,331.44Z"/><path class="cls-1" d="M375.14,344.29l-3.48-3.71c1.43.3,2.09.24,2.38.54a21.92,21.92,0,0,1,1.87,2.47Z"/><path class="cls-1" d="M82.52,140.15c-2.16-1.2-2-3.14-1.58-5.17C81.46,136.7,82,138.43,82.52,140.15Z"/><path class="cls-1" d="M278.85,300.35l-2.44-.3c.16-1.84,1.62-2.11,3.21-2.9-.35,1.31-.61,2.3-.87,3.3Z"/><path class="cls-1" d="M326.81,290l-1.13-1.22,1.51-3.12C328.33,287.5,328.11,288.65,326.81,290Z"/><path class="cls-1" d="M291.59,262.91l-1.28-.92,1.06-3.51c1.33,1.58.66,2.89,1,4Z"/><path class="cls-1" d="M217.07,154.58v-4.72C218.76,151.75,218.32,153.15,217.07,154.58Z"/><path class="cls-1" d="M100.37,406.88c1.7-1.24,2.79-1.34,4.16.34l-2.26.52Z"/><path class="cls-1" d="M18.67,389.69a9.06,9.06,0,0,1-1.55-.72,12.18,12.18,0,0,1-.9-1.21l2.27-2.05C18.57,387.38,18.61,388.3,18.67,389.69Z"/><path class="cls-1" d="M172.87,157.92l1.13,4.89C172.94,161.71,172.94,161.71,172.87,157.92Z"/><path class="cls-1" d="M162.23,423c.46-2.42,1.85-1.71,3.2-1.77l-1,2.19Z"/><path class="cls-1" d="M220.19,186.18l-2.64-1.09,1.73-2C220.15,184.11,221,184.78,220.19,186.18Z"/><path class="cls-1" d="M363,352.9l-1.45-2c1-1.45,2.23-1.09,3.68-.75Z"/><path class="cls-1" d="M66.5,345.5c-1.48,0-2.77-.27-2.43-2.3C65.79,343.07,66.28,344.14,66.5,345.5Z"/><path class="cls-1" d="M345.21,354.23c-2.14.58-3.5.63-4.32-1.59C342.48,352.59,343.54,353.15,345.21,354.23Z"/><path class="cls-1" d="M228.19,456.43l-2.64-4.86C227.51,452.51,228.78,453.37,228.19,456.43Z"/><path class="cls-1" d="M68.93,196.76c2.07-.39,2.5,1.25,3.62,2.85-2.11-.39-3.49-.86-3.58-2.88Z"/><path class="cls-1" d="M358.86,376.84l2,2.12-4.38.48Z"/><path class="cls-1" d="M146.34,447.2a7,7,0,0,1,.54-1.37,13.12,13.12,0,0,1,1.12-1l2,2.2Z"/><path class="cls-1" d="M347.11,304.82c.37,1.25.73,2.47,1.27,4.27C345.78,306.43,345.78,306.43,347.11,304.82Z"/><path class="cls-1" d="M255.8,173.86l2.3-1.57c.06.92.11,1.67.16,2.61l-1.21.07-.88,1.32-.26-2.52Z"/><path class="cls-1" d="M135.33,434.23c1,2.23.36,3.09-1.14,3.69-.19-.4-.46-.71-.39-.86C134.17,436.26,134.63,435.49,135.33,434.23Z"/><path class="cls-1" d="M242.76,424.43l1.47-1.27c1.22.55,1.62,1.32.85,2.83Z"/><path class="cls-1" d="M126.75,164.5c.17-.5.33-1,.5-1.53,1.9.17,1.89,1.63,2.53,3.19l-3.09-1.74Z"/><path class="cls-1" d="M131,425l1.41,1.37c-.92,1.5-1.83,1.58-3.25.75Z"/><path class="cls-1" d="M160.25,184.26l-1.92-4.54C160.62,180.62,160.74,181.92,160.25,184.26Z"/><path class="cls-1" d="M31.54,207.85c2.26.26,2.07,2.11,3,4.44-2.15-1.57-2.77-2.9-2.86-4.55Z"/><path class="cls-1" d="M218.38,110.18,220,111.6c-.34.82-.61,1.44-1,2.39-.47-1.24-.84-2.24-1.22-3.23Z"/><path class="cls-1" d="M380.91,327.78c2.47-.2,2.44,1.46,3.43,2.81A3.65,3.65,0,0,1,380.91,327.78Z"/><path class="cls-1" d="M157.83,410.12l1.45.55V413C158.21,413.39,157.66,412.43,157.83,410.12Z"/><path class="cls-1" d="M132,404.27h1.14c.1.53.19,1,.34,1.81l-2.81.39Z"/><path class="cls-1" d="M299.31,382.22h3.19l-1.25,2.6Z"/><path class="cls-1" d="M307.75,376.31l1.62-1.24,1.75,1.84C309.78,377.87,308.9,377.71,307.75,376.31Z"/><path class="cls-1" d="M292.33,323.3c.19.48.37,1,.61,1.59l-1.76,2.49-.35-3.54,1.61-.44Z"/><path class="cls-1" d="M236.73,9.94l1.9-2.76,2.11,1.66Z"/><path class="cls-1" d="M215.63,115.2v4C214.3,116.92,214.3,116.92,215.63,115.2Z"/><path class="cls-1" d="M66.57,139.59c1,1.74,1.68,2.83,2.5,4.23C66.75,143,66.75,143,66.57,139.59Z"/><path class="cls-1" d="M173.7,153.13c-.38-1.41-.76-2.83-1.27-4.77C175,149.84,173.8,151.6,173.7,153.13Z"/><path class="cls-1" d="M209.75,53.24l2.92,1.5C210.65,55.33,210.65,55.33,209.75,53.24Z"/><path class="cls-1" d="M426.82,352.79h-2.4c-.08-.49-.29-.94-.16-1.24a8,8,0,0,1,1.25-1.49Z"/><path class="cls-1" d="M79.93,356.4l.57,1.34a2.71,2.71,0,0,1-.85.27c-.92-.05-1.83-.18-3.31-.34,1.34-1.5,2.66-.89,3.72-1.15Z"/><path class="cls-1" d="M226.33,94.39c.22-2.67-.73-4.6,1.56-6.65C227.34,90.1,226.94,91.78,226.33,94.39Z"/><path class="cls-1" d="M235.43,409.93c0,1.18,0,2.35,0,3.53l.12-.11a3.9,3.9,0,0,0-3.51-.86l.09.11c1.11-.89,1.74-2.43,3.42-2.56Z"/><path class="cls-1" d="M159.49,132.44l.31,4C158.56,134.92,157.88,133.86,159.49,132.44Z"/><path class="cls-1" d="M105.73,137.75c-.34-1.11-.69-2.23-1.27-4.08C106.32,135.06,106.74,136.15,105.73,137.75Z"/><path class="cls-1" d="M82.15,192.11c-1.16-1-2-2.13-1.2-3.77Z"/><path class="cls-1" d="M303.3,283.28c-.1,1.36-.17,2.31-.25,3.37-.65-.25-1.07-.29-1.11-.44C301.68,285.16,301.48,284.09,303.3,283.28Z"/><path class="cls-1" d="M101.21,412.58l2-.75a1.77,1.77,0,0,1-.67,2.82c-.41-.73-.82-1.45-1.22-2.18Z"/><path class="cls-1" d="M245.41,253.75c-.39,1-.54,1.34-.83,2l-2.19-1c0-.22.06-.44.1-.66Z"/><path class="cls-1" d="M302.44,435.69l-2.1,1.25-2.23-2.46Z"/><path class="cls-1" d="M261.84,255.31l-3.85.79-.23-.63,3.2-1.65c.34.7.56,1.15.77,1.6Z"/><path class="cls-1" d="M59.58,205.29c1.31-.37,2.62-.8,3.94,0-1.29.68-2.59,1.31-3.86-.05Z"/><path class="cls-1" d="M277.55,293.14l1.9,1c-.05.53-.1,1.13-.22,2.55l-2.08-3Z"/><path class="cls-1" d="M402.84,348.28l-3.2-3.06C401.36,345.18,402.28,345.93,402.84,348.28Z"/><path class="cls-1" d="M118.57,424.68l2.77.13a1.85,1.85,0,0,1-2.78.82C118.56,425.31,118.56,425,118.57,424.68Z"/><path class="cls-1" d="M193.28,182c-.08-1.17-.16-2.33-.27-4,1.31,1.5,1.81,2.62,1.24,3.94Z"/><path class="cls-1" d="M373.35,345.23l-3.11.89C370.65,344.71,371.12,343.55,373.35,345.23Z"/><path class="cls-1" d="M195.18,119.93c-1.61-1.07-1.23-2.3-1-3.55C195.66,117.18,195.51,118.41,195.18,119.93Z"/><path class="cls-1" d="M53.88,183.33c-1.8-1.32-2.85-2.15-2.73-4.3C52.72,180.05,53.19,181.27,53.88,183.33Z"/><path class="cls-1" d="M83.56,362.82l4-.3c-.64.41-.79.59-1,.61C85.68,363.21,84.64,365,83.56,362.82Z"/><path class="cls-1" d="M284.27,367.59,281,366.51l3.69-1.35C284.54,366.12,284.42,366.74,284.27,367.59Z"/><path class="cls-1" d="M39.16,154.49l-2-4.31,1.85.13C39,151.56,39.08,152.69,39.16,154.49Z"/><path class="cls-1" d="M403.65,266.33c-2.08.44-2.57-.48-2.35-2.47Z"/><path class="cls-1" d="M194.2,486.66l1.3,1.37-1.08,1.7L193,488.21Z"/><path class="cls-1" d="M69,196.73c-1.1-.86-2.69-1.2-3.38-3.18,2.29.3,3.17,1.39,3.34,3.21Z"/><path class="cls-1" d="M137.62,440.5l-2.57-.34,2.26-2.54C137.44,438.86,137.51,439.44,137.62,440.5Z"/><path class="cls-1" d="M138.74,464.18l2-1.89c.12,1.12.19,1.72.29,2.62l-2,.1Z"/><path class="cls-1" d="M134.35,397.2c-.3.46-.59.92-.91,1.43l-4-1.24,2.41-.94-.12-.11c.45,1.56,1.66,1,2.66.94Z"/><path class="cls-1" d="M316.23,251.77l1.25-1.19c1.38,1,1.31,1.8,0,2.78Z"/><path class="cls-1" d="M214.26,167l-1.44-.41c0-.88.08-1.79.16-3.52a5,5,0,0,1,1.17,4Z"/><path class="cls-1" d="M285.79,279.27h1.92c-.26,1-.5,1.93-.73,2.84l-.61,0C286.19,281.24,286,280.34,285.79,279.27Z"/><path class="cls-1" d="M110.39,163.46l-1.48-3.1c2,.45,2.15,1.57,2.28,2.67Z"/><path class="cls-1" d="M255.24,100.82c.07-1.36.12-2.32.2-3.84C256.5,99.14,256.5,99.14,255.24,100.82Z"/><path class="cls-1" d="M82,368.63l2.76.39-.06.64H81.94Z"/><path class="cls-1" d="M230,451.32c-1.35-1-1.3-1.82,0-2.76Z"/><path class="cls-1" d="M263.12,429.16c-1.63-2-.84-2.72.19-3.8C263.25,426.6,263.21,427.48,263.12,429.16Z"/><path class="cls-1" d="M113.53,435.54l-1.42-2.22,2.77-.24C114.35,434,114.08,434.54,113.53,435.54Z"/><path class="cls-1" d="M207.67,423.61l3.33.22L209.61,426Z"/><path class="cls-1" d="M250.82,485.63c.33-.77.65-1.55,1.14-2.72l1.46,2.34-2.7.29Z"/><path class="cls-1" d="M205.68,79.37c-1.43-1-1.83-1.8-.71-3.73C205.27,77.24,205.44,78.15,205.68,79.37Z"/><path class="cls-1" d="M32.73,270.72c-1.32,1.34-2.22-.08-3.77-.64,1.54,0,2.6,0,3.65,0C32.66,270.11,32.69,270.5,32.73,270.72Z"/><path class="cls-1" d="M150.4,76.91c-.15,1.8-.25,2.94-.39,4.53C148.14,79.68,149.63,78.66,150.4,76.91Z"/><path class="cls-1" d="M57.94,381.07l-3.14-1.76,2.68-.7c.14,1,.26,1.75.38,2.54Z"/><path class="cls-1" d="M261.28,83.22c1,1.36.53,2.51-.16,4.23C259.75,85.42,261.53,84.47,261.28,83.22Z"/><path class="cls-1" d="M257,264.2l-1.38,2.14-1.7-2.39Z"/><path class="cls-1" d="M160,184.89l2.28,2.14C160.27,187.65,159.85,186.51,160,184.89Z"/><path class="cls-1" d="M79.18,114.29a9.83,9.83,0,0,1-2.08-1c-.68-.56-.5-1.15.39-1.42l-.1-.1c.33.89.66.68,1,0l-.08.11c1.13.57.88,1.59.81,2.54Z"/><path class="cls-1" d="M79,528.46l-2.14-1.66,1.8-1.47C78.73,526.43,78.8,527.1,79,528.46Z"/><path class="cls-1" d="M246.59,27.74c-.09-1.06-1.59-2-.05-3.31.83,1.14,1.25,2.16-.08,3.22Z"/><path class="cls-1" d="M269.79,393.25l-.79,3.81C267.58,395.39,269,394.32,269.79,393.25Z"/><path class="cls-1" d="M222.37,421.68c.06,1.1.1,1.73.17,2.91l-2.27-1.41Z"/><path class="cls-1" d="M246,466.93l-1.26-1.41,2.45-1.3c-.1,1.14-.16,1.76-.22,2.38Z"/><path class="cls-1" d="M104.12,394.81c-.09-1.09-.13-1.48-.2-2.35l2.61,1.18Z"/><path class="cls-1" d="M6.82,444.66,8.28,442c.49,1.05.75,1.59,1.15,2.44Z"/><path class="cls-1" d="M335.25,301.84c-1.24-1-1.28-1.88.31-2.86C335.44,300.13,335.34,301,335.25,301.84Z"/><path class="cls-1" d="M204.13,436.19l1.51,1.66-.85,2.22-.44,0C204.29,439,204.23,437.91,204.13,436.19Z"/><path class="cls-1" d="M235.11,437c.09,1.08.14,1.69.23,2.82l-2.25-1.29Z"/><path class="cls-1" d="M109.34,466.25l1.41,1.95h-3Z"/><path class="cls-1" d="M43.3,256.16l-2.44-1.8c.61-.25,1-.5,1.06-.42.66.46,1.28,1,1.89,1.5a.36.36,0,0,1,.09.34C43.84,255.88,43.68,255.93,43.3,256.16Z"/><path class="cls-1" d="M205.73,422.88l-1.23,2.86-.65,0C204.69,425,203.38,423.21,205.73,422.88Z"/><path class="cls-1" d="M175.51,45.8c-.53-1.74-.86-2.85-1.37-4.54C176.22,42.52,175.92,43.8,175.51,45.8Z"/><path class="cls-1" d="M27.38,227.25l4,1.95C29,229.86,28.51,228.68,27.38,227.25Z"/><path class="cls-1" d="M108.2,382.68l-2.32-1.17,1.7-1.05,1.25,1.57Z"/><path class="cls-1" d="M399.56,181.87l-3.22-3.33C397.82,178.78,399.08,179.25,399.56,181.87Z"/><path class="cls-1" d="M310.43,339.63l3.26.19-1.31,2.54C311.8,341.54,311.46,341.06,310.43,339.63Z"/><path class="cls-1" d="M99,124.74l1,2.15C98.06,127,97.83,126.18,99,124.74Z"/><path class="cls-1" d="M280.5,407.92c-.16.72-.28,1.22-.54,2.37l-1.94-2.8Z"/><path class="cls-1" d="M116.48,151.68c-.41.73-.82,1.46-1.39,2.5L114,151.41l2.62.37Z"/><path class="cls-1" d="M254.51,230.81,256,231l-1.74,3-.48-.15C254,232.81,254.27,231.8,254.51,230.81Z"/><path class="cls-1" d="M290.34,174.79l1.28,2.22-3.05-.16Z"/><path class="cls-1" d="M337.87,236.29c-.16-1.22-.23-1.72-.32-2.45l2.56-.7Z"/><path class="cls-1" d="M125.47,399.41l-1.3-1.19,2.9-.9.21.49C126.68,398.33,126.08,398.86,125.47,399.41Z"/><path class="cls-1" d="M70.31,458.7c.41.49.74.89,1.2,1.46l-1.29,1.36C68.42,460.35,70,459.67,70.31,458.7Z"/><path class="cls-1" d="M242.59,423.6l-2.18,1.8-1-2.35Z"/><path class="cls-1" d="M38.42,468.6l1.79,1.22L37.37,472C37.79,470.61,38.07,469.7,38.42,468.6Z"/><path class="cls-1" d="M149.37,18.52c.06,1,.1,1.82.15,2.74C148.18,20.12,148.18,20.12,149.37,18.52Z"/><path class="cls-1" d="M311.51,397.62l1.8.12c0,.23,0,.45,0,.68l-1.81.19Z"/><path class="cls-1" d="M265,395.55l-.28,2.63C263.7,396.65,263.7,396.65,265,395.55Z"/><path class="cls-1" d="M213.54,441.23l1.12-1.28,1.22,1.44-.34.54Z"/><path class="cls-1" d="M235.74,431.69l1.91-.23.17.72-1.91.52C235.85,432.36,235.8,432,235.74,431.69Z"/><path class="cls-1" d="M338.2,240.86l-3.12,2.33c.05-2.56,1.95-1.93,3.24-2.21Z"/><path class="cls-1" d="M15.54,241.89l1.39,1.86-.56.45a9.1,9.1,0,0,1-.93-1,4.22,4.22,0,0,1-.34-1Z"/><path class="cls-1" d="M36,492.76l-3.19,1.45C33.81,492.78,33.81,492.78,36,492.76Z"/><path class="cls-1" d="M265.38,206.5v-4.07h.44v4Z"/><path class="cls-1" d="M84.21,61.71a6.92,6.92,0,0,1,1.4,1.35,4.78,4.78,0,0,1,.15,1.72c-1.67-.73-1.34-2-1.46-3.16Z"/><path class="cls-1" d="M244.76,41.24v5.47c-.85-3.35-.85-3.35.12-5.37Z"/><path class="cls-1" d="M9.69,260.29c-.07-1-.11-1.44-.18-2.4L12,260.08Z"/><path class="cls-1" d="M243.69,48.54v4.05h-.24V48.54Z"/><path class="cls-1" d="M46.34,500.1l2.48-.81c.08.19.15.37.22.56l-2.29,1C46.62,500.62,46.48,500.36,46.34,500.1Z"/><path class="cls-1" d="M203.89,442.72l-.36,2.77-.7-.12c.16-.91.32-1.83.47-2.75Z"/><path class="cls-1" d="M215,435.43c.28.59.56,1.19.85,1.79l.1-.1-2.24-.23c-.07-.6-.13-1.11-.22-1.81l1.61.45Z"/><path class="cls-1" d="M151.4,444.24l2.62.21C152.5,445.56,152.5,445.56,151.4,444.24Z"/><path class="cls-1" d="M335.77,287.65l1.21-1.52,1,1-1.61,1.22Z"/><path class="cls-1" d="M269.32,119.05c.4,1.17.63,1.86,1,3C268.4,121.49,268.46,120.69,269.32,119.05Z"/><path class="cls-1" d="M19.22,293.15c-2,.34-2.51-.39-2.95-2.07Z"/><path class="cls-1" d="M174.27,128.75c-2.13-.64-1.2-1.9-1.16-2.85C173.44,126.71,173.76,127.51,174.27,128.75Z"/><path class="cls-1" d="M282.7,293.92c.37.65.63,1.13,1.23,2.18l-3.15-1.19Z"/><path class="cls-1" d="M110.61,417.06l2.63.14C111.7,418.24,111.7,418.24,110.61,417.06Z"/><path class="cls-1" d="M333.17,327.67l-1.82,1.52-.55-.59,1.74-1.69Z"/><path class="cls-1" d="M47.54,297.43c-1.87.47-2.47,0-2.1-1.92Z"/><path class="cls-1" d="M154.28,418.33c.81-1.54,1.61-1.7,2.93-.23Z"/><path class="cls-1" d="M155.56,173.76l-1.51-1.83.54-.5c.55.58,1.09,1.16,1.64,1.73Z"/><path class="cls-1" d="M262.57,422.26c-.05.61-.1,1.22-.16,2C261.17,423.4,261.17,423.4,262.57,422.26Z"/><path class="cls-1" d="M115.91,165.58l1.49,3.27-.45.36c-.34-.39-.82-.72-1-1.18A9.76,9.76,0,0,1,115.91,165.58Z"/><path class="cls-1" d="M25.24,323H23.37l-.09-.63,1.95-.33Z"/><path class="cls-1" d="M156,163.81v2.52C155,164.75,155,164.75,156,163.81Z"/><path class="cls-1" d="M11.4,320.43l2.53-.35.09.35-2.33,1C11.6,321.12,11.5,320.77,11.4,320.43Z"/><path class="cls-1" d="M46.8,319v2.4l-2.7-1.27,2.82-1Z"/><path class="cls-1" d="M208.73,464.93v-2l.63-.11.42,2Z"/><path class="cls-1" d="M168.44,148.91l-.89-2.64.72-.24.87,2.64Z"/><path class="cls-1" d="M270.14,418.65c-.93,1.27-1.73,1.77-3.15.28Z"/><path class="cls-1" d="M7,317l1.25-1.09,1.19,1.64L9,318Z"/><path class="cls-1" d="M158.49,155.13c.54,1.41.86,2.22,1.33,3.44C157.84,157.86,158.27,156.77,158.49,155.13Z"/><path class="cls-1" d="M12,309.79l2.36,1.29-.92,1-2-1.82Z"/><path class="cls-1" d="M183.52,421.5h-2.16C182.34,420.2,182.34,420.2,183.52,421.5Z"/><path class="cls-1" d="M98,459.23l-2.29,2.46c-.11-.75-.18-1.19-.29-1.9Z"/><path class="cls-1" d="M170.28,153.14c-.34-.81-.69-1.61-1-2.41l.46-.29a3.87,3.87,0,0,1,.81,1,7.24,7.24,0,0,1,.2,1.56Z"/><path class="cls-1" d="M254.7,105.68c-1.79-1.28-.15-2.4,0-3.48Z"/><path class="cls-1" d="M12.52,103.92l-2-2.07h2.77C13,102.54,12.81,103.1,12.52,103.92Z"/><path class="cls-1" d="M289.72,360.64c-2.05-1.35-1.51-2.12-.23-3.19C289.57,358.55,289.63,359.35,289.72,360.64Z"/><path class="cls-1" d="M321.69,360.44v-2l.62-.08c.12.67.25,1.35.37,2Z"/><path class="cls-1" d="M157.91,415.23l-2.38.74,1.38-2.56C157.32,414.17,157.56,414.6,157.91,415.23Z"/><path class="cls-1" d="M200.31,189.66v-1.93l.64,0,.25,1.94Z"/><path class="cls-1" d="M116.9,476.78l.15-1.93h.71c.07.65.13,1.3.19,1.94Z"/><path class="cls-1" d="M377.74,363l-2.15-1.3C377,361.16,377,361.16,377.74,363Z"/><path class="cls-1" d="M332.12,363.92l-1.31-1.13,1.51-1.18.54.35Z"/><path class="cls-1" d="M261.93,438.5l-.78-1.69.69-.29.68,1.72Z"/><path class="cls-1" d="M400.4,302.43l2.59-.34c-.92.87-1.33,1.26-1.91,1.79Z"/><path class="cls-1" d="M60.76,411.12l1.84.46-.15.64-1.86-.39C60.65,411.59,60.7,411.35,60.76,411.12Z"/><path class="cls-1" d="M243.18,420.21c.12-.49.24-1,.58-2.4l1.12,3-1.81-.67Z"/><path class="cls-1" d="M75.33,405.46c-.31-.26-.63-.51-1-.83l.62-1C76.06,404.42,76.06,404.42,75.33,405.46Z"/><path class="cls-1" d="M249.57,431.54v1.9C248.33,433,248.11,432.4,249.57,431.54Z"/><path class="cls-1" d="M235.52,429.93l-.69-1.66.69-.27.76,1.75Z"/><path class="cls-1" d="M290.35,231.79c-.46-1.63-.68-2.39-.9-3.16C290.43,229.13,290.43,229.13,290.35,231.79Z"/><path class="cls-1" d="M255.92,403.23c.08-.41.16-.81.3-1.57l2,.69-.09.57-2.3.21Z"/><path class="cls-1" d="M55.27,236.6l-1.51-1.8.44-.38c.52.55,1,1.11,1.55,1.67Z"/><path class="cls-1" d="M345.86,313.36l1.34-1.77C347.45,313.38,347.45,313.38,345.86,313.36Z"/><path class="cls-1" d="M306.94,308.16c.35-.49.7-1,1.06-1.48l.45.21c-.22.62-.43,1.25-.64,1.87Z"/><path class="cls-1" d="M333.85,430.29c-1.34.44-1.69.69-2,.62s-.58-.44-1.46-1.18Z"/><path class="cls-1" d="M211.71,421l1.23-1.42,1.21.79-2,1.17Z"/><path class="cls-1" d="M260.32,429.85h2C261.7,431.84,261.1,430.8,260.32,429.85Z"/><path class="cls-1" d="M73.43,410.31h2.1C74.68,411.53,74.68,411.53,73.43,410.31Z"/><path class="cls-1" d="M383.33,232.29l1.63-1.52.51.45L383.8,233Z"/><path class="cls-1" d="M238.34,413.49l1.92.23C239.7,415.37,239.15,415,238.34,413.49Z"/><path class="cls-1" d="M260,377.79l1.6.58-.21.72-1.74-.44C259.78,378.36,259.89,378.07,260,377.79Z"/><path class="cls-1" d="M269.17,412.68c.6,1.42.84,2,1.08,2.53l-.46.35c-.28-.27-.66-.5-.79-.82S269,414,269.17,412.68Z"/><path class="cls-1" d="M289.75,347.41c-.17.64-.21.77-.33,1.25L287,347.41Z"/><path class="cls-1" d="M381.54,292.13l.69-1.79.74.31-.84,1.72Z"/><path class="cls-1" d="M344.65,342.94c-.74-.87-1.27-1.47-1.79-2.08C344.41,340.88,344.41,340.88,344.65,342.94Z"/><path class="cls-1" d="M38.29,350.52l1.73.74c-.08.22-.15.45-.23.67L38,351.47C38.06,351.15,38.17,350.84,38.29,350.52Z"/><path class="cls-1" d="M309.21,334.56c0,.85-.09,1.46-.14,2.22C307.83,335.88,307.83,335.88,309.21,334.56Z"/><path class="cls-1" d="M53.8,334.23l-2.74-1.17a6.42,6.42,0,0,1,1.78-.17,6.5,6.5,0,0,1,1.36.7Z"/><path class="cls-1" d="M36.07,286.71l-1.83-.64c.08-.24.15-.48.23-.72l1.84.5Z"/><path class="cls-1" d="M34.51,333.19,32,332.31a19,19,0,0,1,2.11-.26,8.12,8.12,0,0,1,1.19.17Z"/><path class="cls-1" d="M3.22,255.93l-1.88-.77.18-.54,2,.55C3.39,255.42,3.31,255.67,3.22,255.93Z"/><path class="cls-1" d="M283.63,374.44l-1.85.56-.21-.57,1.81-.74Z"/><path class="cls-1" d="M26,356.69l1.66.37c0,.2,0,.4,0,.59H26Z"/><path class="cls-1" d="M33.69,297.65l-1.85-.93.21-.5,2,.73Z"/><path class="cls-1" d="M212.54,428.33l-.59-1.8.67-.25.68,1.76Z"/><path class="cls-1" d="M119.65,390.32l-1.79.77-.27-.74,1.84-.56Z"/><path class="cls-1" d="M277.45,428.21l-1.71-1.58.4-.44,1.73,1.56Z"/><path class="cls-1" d="M256.56,393.43c-.23.62-.46,1.25-.7,1.87l-.67-.2c.15-.67.3-1.34.44-2Z"/><path class="cls-1" d="M93.12,374.7c.19-.61.38-1.22.58-1.83l.38.1v1.88Z"/><path class="cls-1" d="M247.32,223.79l-1.32-.25-.27-1.73c.77.61,1.32,1,1.86,1.48.07.06.15.23.12.25A2,2,0,0,1,247.32,223.79Z"/><path class="cls-1" d="M105.78,68.66l1,1.92-.39.27c-.44-.61-.88-1.23-1.31-1.85Z"/><path class="cls-1" d="M225.64,445.23l1.77.5,0,.47-1.82.11C225.59,446,225.61,445.59,225.64,445.23Z"/><path class="cls-1" d="M75.69,179.72l-1.08.88c-.46-.8-.84-1.46-1.37-2.4.62.11,1.05.05,1.29.24a11.94,11.94,0,0,1,1.27,1.38Z"/><path class="cls-1" d="M159,175.57l2.22,1.14c-1.23,1.12-1.23,1.12-2.11-1.25Z"/><path class="cls-1" d="M211.6,453.34l1.53,1.18C212,455.31,211.33,455.15,211.6,453.34Z"/><path class="cls-1" d="M218.53,85.39l-1.18-3.25c1.85,1.22,1.79,2.23,1.08,3.35Z"/><path class="cls-1" d="M106.13,121.57c.31.8.63,1.59.94,2.39l-.65.23-.82-2.43Z"/><path class="cls-1" d="M194.75,86.68c.21.55.41,1.11.61,1.67l-.64.27c-.27-.56-.54-1.13-.8-1.7Z"/><path class="cls-1" d="M85.58,454.9l-1.62.79-.34-.64,1.6-.84Z"/><path class="cls-1" d="M18,170.58l1.65,2.07C17.9,172.83,17.93,171.71,18,170.58Z"/><path class="cls-1" d="M222.43,94.38c.06,1.05.11,2.09.16,3.14l-.36,0V94.4Z"/><path class="cls-1" d="M138.25,98.48c.33.87.66,1.74,1,2.6l-.57.18-.81-2.65Z"/><path class="cls-1" d="M140.71,461.68l-1.17-1.48,2.73-.46C141.46,460.74,141.16,461.11,140.71,461.68Z"/><path class="cls-1" d="M270.1,151.77l2.54.39c-1.13.58-1.51.92-1.88.92s-.57-.45-.85-.69C270,152.18,270,152,270.1,151.77Z"/><path class="cls-1" d="M126.42,109.53l1.14,2.39-.46.35c-.29-.3-.7-.56-.85-.91a6.27,6.27,0,0,1-.24-1.52Z"/><path class="cls-1" d="M319,11.8c1.69,1.08.38,1.86-.17,3.57C318.93,13.64,319,12.79,319,11.8Z"/><path class="cls-1" d="M130.23,25.58c.73,1.62,1.09,2.43,1.67,3.73C130,28.51,130.35,27.44,130.23,25.58Z"/><path class="cls-1" d="M101.43,141.86c-.06-1-.11-2.06-.17-3.09l.49,0v3.09Z"/><path class="cls-1" d="M151.8,465.76c-.75-1.12-.51-1.74.9-2.1,0,.59.12,1,0,1.31S152.11,465.5,151.8,465.76Z"/><path class="cls-1" d="M1.62,227.36l1.76.68-.3.7-1.69-.81Z"/><path class="cls-1" d="M412.76,187.9c-.35.65-.71,1.3-1.07,1.95l-.6-.3c.32-.7.65-1.4,1-2.11Z"/><path class="cls-1" d="M158.31,466.35c.24-.54.48-1.08,1.08-2.46a10.38,10.38,0,0,1,.38,2.05,3.67,3.67,0,0,1-.44,1.1Z"/><path class="cls-1" d="M269.06,442.07l-1.66-.39.06-.6h1.68C269.12,441.41,269.09,441.74,269.06,442.07Z"/><path class="cls-1" d="M69.61,185.72l-1.51-1.59.36-.39,1.75,1.51Z"/><path class="cls-1" d="M256.82,462.66l-2.1-1.74,2.6.57Z"/><path class="cls-1" d="M309.17,310.32l-.33.81a4.31,4.31,0,0,1-.85-.45c-.05,0,.16-.58.26-.59A3.27,3.27,0,0,1,309.17,310.32Z"/><path class="cls-1" d="M186,459.07l-.41.76a3.74,3.74,0,0,1-.8-.54c-.05-.06.23-.58.3-.57A3.79,3.79,0,0,1,186,459.07Z"/><path class="cls-1" d="M331.68,321.33l1-1.11,1.2,1.11Z"/><path class="cls-1" d="M223.38,460.33a4.2,4.2,0,0,1-.92.32,1.09,1.09,0,0,1-.28-.59,3.81,3.81,0,0,1,.82-.52Z"/><path class="cls-1" d="M316.13,321.7l1.19-1.39.46.35-1,1.51Z"/><path class="cls-1" d="M212.72,464.56l.41-.77a4,4,0,0,1,.8.54c0,.06-.23.59-.3.58A4.26,4.26,0,0,1,212.72,464.56Z"/><path class="cls-1" d="M129.77,143.86c-.14-.54-.28-1.08-.41-1.63l.44-.19.85,1.5Z"/><path class="cls-1" d="M350.14,314l1.65.83-1.29,1.86c-.13-1.3-.21-2-.28-2.77Z"/><path class="cls-1" d="M349.3,315.6l-.85,1.55-.56-.25.72-1.75Z"/><path class="cls-1" d="M174.16,143.5l.9,1.6-.44.31-1.13-1.28Z"/><path class="cls-1" d="M164.72,460.29v1.92C163.1,461.82,163.4,461.23,164.72,460.29Z"/><path class="cls-1" d="M46.92,319.14l.23-1.56,1.48,1.25-.24.57L46.8,319Z"/><path class="cls-1" d="M136,430.5l.9.84-.31.49-1.21-.55Z"/><path class="cls-1" d="M95.24,430.9l-2.6.18L94,429.47Z"/><path class="cls-1" d="M177.67,190.85c.29.54.57,1.08,1,1.78-2-.24-1.15-1.14-.84-1.89Z"/><path class="cls-1" d="M287.89,449.18a4.21,4.21,0,0,1-.91.4c-.09,0-.25-.32-.39-.5a4.89,4.89,0,0,1,.79-.52C287.43,448.53,287.65,448.87,287.89,449.18Z"/><path class="cls-1" d="M30.77,279.25l1.28,1.09-.32.42-1.49-1Z"/><path class="cls-1" d="M174,188.7l.94,2C173.39,190.51,173.54,189.66,174,188.7Z"/><path class="cls-1" d="M273.74,288.55a2.64,2.64,0,0,1,2.58-1.69l-.11-.12v1l.09-.11-2.67.83Z"/><path class="cls-1" d="M56.76,288.61c-.19.13-.38.26-.58.38l-.43-.87c.24-.07.54-.25.71-.17S56.67,288.38,56.76,288.61Z"/><path class="cls-1" d="M146.61,181.4l1.26,1.9-.42.39c-.28-.29-.66-.53-.81-.87A4.42,4.42,0,0,1,146.61,181.4Z"/><path class="cls-1" d="M108.93,176.32l-2.15-1c1.93-.61,1.86.4,2.07,1.06Z"/><path class="cls-1" d="M257.23,424.3l-1.1-1.22,2.42-.22Z"/><path class="cls-1" d="M227.19,176c-.18-.61-.37-1.22-.56-1.83l.51-.17c.2.61.41,1.21.61,1.82Z"/><path class="cls-1" d="M144,171.65l-.75-1.69.42-.21.8,1.61Z"/><path class="cls-1" d="M224.23,422.08l.8.5-.62.69-.64-.73Z"/><path class="cls-1" d="M314.61,300.63l.44-.8a4.69,4.69,0,0,1,.83.53c0,.05-.22.59-.32.58A3.4,3.4,0,0,1,314.61,300.63Z"/><path class="cls-1" d="M347.3,303l-.53.49-.54-.83c.24-.1.5-.3.72-.26S347.18,302.79,347.3,303Z"/><path class="cls-1" d="M196.74,456.81l1.56,1.47-2.78-.16Z"/><path class="cls-1" d="M222.54,156.23l1.19,1.39-.42.46L222,156.89Z"/><path class="cls-1" d="M200.52,460.23c-.74-.87-1-1.15-1.24-1.47l1.13-.87C200.44,458.56,200.47,459.06,200.52,460.23Z"/><path class="cls-1" d="M361.24,309.17l.5.48-.82.61c-.09-.24-.29-.5-.24-.7S361.05,309.29,361.24,309.17Z"/><path class="cls-1" d="M113.8,93.31c.3.59.61,1.17.92,1.76l-.48.25-1-1.71Z"/><path class="cls-1" d="M60.64,485l.42-.77a3.51,3.51,0,0,1,.8.54c.06.06-.22.59-.3.58A4,4,0,0,1,60.64,485Z"/><path class="cls-1" d="M59.29,486.62l-.65.38c-.12-.31-.24-.62-.35-.93.25-.06.56-.24.73-.15S59.2,486.37,59.29,486.62Z"/><path class="cls-1" d="M88.25,366l1.49.19,0,.59H88C88.1,366.49,88.18,366.23,88.25,366Z"/><path class="cls-1" d="M206.33,486.66l.85.34a3.9,3.9,0,0,1-.48.85c0,.06-.61-.16-.61-.26A3.36,3.36,0,0,1,206.33,486.66Z"/><path class="cls-1" d="M127.78,488.75h-2.4l1-1.19Z"/><path class="cls-1" d="M113,490.44c-.18.38-.29.6-.4.82a3.5,3.5,0,0,1-.81-.55c0-.06.21-.6.32-.59A3.42,3.42,0,0,1,113,490.44Z"/><path class="cls-1" d="M87.33,370.34l2.08-.24.06.49-2.09.21C87.37,370.65,87.35,370.5,87.33,370.34Z"/><path class="cls-1" d="M190.72,77.36c-.05-.87-.09-1.73-.14-2.6l.41,0c.07.87.15,1.73.23,2.59Z"/><path class="cls-1" d="M81.73,371.83l1.21,1.07-.28.42-1.5-.79Z"/><path class="cls-1" d="M293.78,372.33l.92-.8.85.68c-.2.38-.39.76-.58,1.14Z"/><path class="cls-1" d="M177.87,491.74c.2-.35.31-.56.43-.78a4.11,4.11,0,0,1,.79.55c.06.06-.22.6-.3.59A4.07,4.07,0,0,1,177.87,491.74Z"/><path class="cls-1" d="M420.41,375.51l-1.8-1.54a9.8,9.8,0,0,1,1.32.33C420.06,374.34,420.09,374.66,420.41,375.51Z"/><path class="cls-1" d="M152.74,497.7l-.63.36c-.12-.3-.25-.6-.38-.9.24-.06.55-.23.71-.14S152.65,497.46,152.74,497.7Z"/><path class="cls-1" d="M55.89,385.5H54.15c0-.22,0-.43,0-.65l1.62-.2C55.77,384.93,55.83,385.21,55.89,385.5Z"/><path class="cls-1" d="M244.88,41.34V38.48l.43,0a4.35,4.35,0,0,1,.17,1.45,4.91,4.91,0,0,1-.72,1.35Z"/><path class="cls-1" d="M98.24,521.5l1.48-1,.31.42-1.22,1.12Z"/><path class="cls-1" d="M364.5,386.28c-.49.62-.72.92-1,1.31l-1.26-.95Z"/><path class="cls-1" d="M449.91,389.87l1.87-.74.24.78-2,.43C450,390.18,450,390,449.91,389.87Z"/><path class="cls-1" d="M98.26,38.56c-.1-.58-.21-1.15-.32-1.73l.41-.15c.27.54.53,1.08.8,1.61Z"/><path class="cls-1" d="M36.92,390.83l1.33.06c0,.23,0,.45,0,.68l-1.33-.12C36.88,391.24,36.9,391,36.92,390.83Z"/><path class="cls-1" d="M87.34,391.47h2.35v.38l-2.34.11Z"/><path class="cls-1" d="M276.26,404a10.78,10.78,0,0,1,1.05-.46,5.16,5.16,0,0,1,.31.63l-1.1.44Z"/><path class="cls-1" d="M132.53,401l-1.63.45-.18-.36,1.37-.74Z"/><path class="cls-1" d="M103.32,401.48c-1,.88-1.24,1.15-1.56,1.43l-1.26-1.06Z"/><path class="cls-1" d="M245.31.61l-.53.48-.55-.85c.23-.08.5-.29.69-.23S245.19.4,245.31.61Z"/><path class="cls-1" d="M54.62,324.41l2,.9C55.42,325.79,55.42,325.79,54.62,324.41Z"/><path class="cls-1" d="M140,132.37l-.62.34-.37-.87c.24-.06.54-.22.69-.13S139.85,132.14,140,132.37Z"/><path class="cls-1" d="M192.94,129.69c1.22.77.69,1.82.4,3.79l-.29-3.89Z"/><path class="cls-1" d="M101.67,418.31l-.09-1.22.64,0,.09,1.22Z"/><path class="cls-1" d="M143.74,127.2c.26.61.51,1.22.76,1.83l-.42.18-.81-1.81Z"/><path class="cls-1" d="M152.62,126.36c.49.88.75,1.35,1,1.84C151.82,128.7,152.4,127.58,152.62,126.36Z"/><path class="cls-1" d="M298.39,332.09l.49.52-.84.61c-.09-.25-.29-.52-.24-.73S298.18,332.22,298.39,332.09Z"/><path class="cls-1" d="M244.39,415.44l1,1.06-2.28.15Z"/><path class="cls-1" d="M122.26,416.59a4.39,4.39,0,0,1-.32-.92,1,1,0,0,1,.59-.28,4,4,0,0,1,.52.81Z"/><path class="cls-1" d="M154.58,122.63l-.42.77a3.68,3.68,0,0,1-.79-.54c-.06-.06.22-.59.3-.58A4.7,4.7,0,0,1,154.58,122.63Z"/><path class="cls-1" d="M249.45,414.44a12.07,12.07,0,0,1,1.05.62,4.15,4.15,0,0,1-.32.61l-1.07-.64Z"/><path class="cls-1" d="M143.42,121l-1.06-1.94.27-.31c.3.25.72.44.85.76S143.47,120.27,143.42,121Z"/><path class="cls-1" d="M288.72,343.73l-.45.51-.62-.78c.23-.11.48-.32.69-.29S288.59,343.53,288.72,343.73Z"/><path class="cls-1" d="M171.47,116.6V119h-.27v-2.36Z"/><path class="cls-1" d="M58.91,346.84l1.91-.45.12.43-1.86.64C59,347.25,59,347.05,58.91,346.84Z"/><path class="cls-1" d="M146.86,114.61l1.07,1.41-.46.41-1.18-1.22Z"/><path class="cls-1" d="M332.36,348.76l-1.61-.33.81-1.69c.35,1.07.52,1.6.7,2.12Z"/><path class="cls-1" d="M198.31,114.8v-2.56l.45,0c0,.84-.08,1.69-.11,2.54Z"/><path class="cls-1" d="M70.45,350.48l1.76.59-.18.54-1.7-.55Z"/><path class="cls-1" d="M283.25,353.72c0-.7-.05-1.21-.1-2.16l1.37,1.17Z"/><path class="cls-1" d="M329.25,354.56l-2.33.24-.05-.5,2.33-.25Z"/><path class="cls-1" d="M255.82,410.78l-1,2.07c-.66-1.93.46-1.74,1.11-2Z"/><path class="cls-1" d="M358.33,355.48l-1.65.86c-.1-.18-.19-.36-.28-.54l1.64-.88C358.13,355.11,358.23,355.3,358.33,355.48Z"/><path class="cls-1" d="M188.51,106.63c-.17-.64-.33-1.28-.5-1.92l.38-.14c.28.62.56,1.24.85,1.86Z"/><path class="cls-1" d="M119.26,103.81l-.89-1.56.43-.25c.31.51.62,1,.94,1.53Z"/><path class="cls-1" d="M45.5,218.58H43.19l0-.27,2.21-.15Z"/><path class="cls-1" d="M16.69,224.42l-1.43-.72.08-.33,1.7.41Z"/><path class="cls-1" d="M11.84,243.28l-.42.76a4.53,4.53,0,0,1-.8-.55c0-.05.23-.58.31-.57A4.77,4.77,0,0,1,11.84,243.28Z"/><path class="cls-1" d="M339.5,259.2c.29-.32.56-.62,1-1.13v2.23Z"/><path class="cls-1" d="M3.8,240.81c-.5-.28-1-.56-1.49-.87a3.91,3.91,0,0,1,.22-.51l1.55.92Z"/><path class="cls-1" d="M241.35,215.39l-.16,3.3c-.82-1.49-.8-2.42.28-3.19Z"/><path class="cls-1" d="M466.74,239.42l.41-.77a3.51,3.51,0,0,1,.8.54c.06.06-.22.59-.3.58A3.79,3.79,0,0,1,466.74,239.42Z"/><path class="cls-1" d="M115,441.19l1.67-.54.16.43-1.62.68Z"/><path class="cls-1" d="M305.24,219.85a10.25,10.25,0,0,1-.83,2.09c-1.5-.19-.07-.82-.12-1.27C304.28,220.55,304.59,220.4,305.24,219.85Z"/><path class="cls-1" d="M238.94,443.93l1.09-.5a4.44,4.44,0,0,1,.24.65,6.7,6.7,0,0,1-1.06.47Z"/><path class="cls-1" d="M254.22,260.79,252.28,262l-.38-.41c.28-.28.5-.66.83-.81S253.43,260.79,254.22,260.79Z"/><path class="cls-1" d="M294,249.85l-1.32.09-.16-.62,1.32-.49C293.86,249.17,293.92,249.51,294,249.85Z"/><path class="cls-1" d="M9.74,227l1.88,1.57a9.5,9.5,0,0,1-1.4-.33C10.08,228.18,10.06,227.85,9.74,227Z"/><path class="cls-1" d="M198.19,435.79c.17.18.33.36.5.53l-.85.59c-.1-.24-.31-.51-.25-.71S198,435.92,198.19,435.79Z"/><path class="cls-1" d="M328.22,266.47l1-.83.39.46-1,.85Z"/><path class="cls-1" d="M284.7,200.12c-.31,1.12.52,2.51-.84,3.37l.09.1c.26-1.14-.66-2.56.83-3.39Z"/><path class="cls-1" d="M434.78,261.67l1.1,1.48-.44.33L434.33,262Z"/><path class="cls-1" d="M302.71,253.14l-2,1.41-.44-.41a3.7,3.7,0,0,1,.81-1C301.38,253,301.81,253.14,302.71,253.14Z"/><path class="cls-1" d="M208,442v2.34h-.26V442Z"/><path class="cls-1" d="M310.12,363.46l.72.82-.32.29-.74-.81Z"/><path class="cls-1" d="M274.34,363.9l-.87.89-.5-.51.89-.87Z"/><path class="cls-1" d="M329.19,305.17l-.71-.93c.11-.07.28-.22.31-.19.3.21.57.46.84.69Z"/><path class="cls-1" d="M338.32,241l1.06-1.59.42.5-1.6,1Z"/><path class="cls-1" d="M286.38,362.36l-1.82.83c-.05-.18-.11-.36-.16-.55l2.08-.17Z"/><path class="cls-1" d="M425,219l-1.33,1.2c-.05-.26-.21-.68-.14-.73A6.72,6.72,0,0,1,425,219Z"/><path class="cls-1" d="M143.42,90.14l.13,1.48-.35,0c0-.5-.1-1-.16-1.49Z"/><path class="cls-1" d="M326.12,362l.91.68-.46.46-.79-.8Z"/><path class="cls-1" d="M362.37,220l.74-.82.31.27-.72.85Z"/><path class="cls-1" d="M434.7,483.6l-.79-.74.22-.27.85.67Z"/><path class="cls-1" d="M272.67,360.09l.89.7-.46.57-1-.61Z"/><path class="cls-1" d="M328.57,293.25l-.93.81c-.07-.11-.21-.28-.18-.32.22-.31.47-.59.72-.88Z"/><path class="cls-1" d="M188.4,155.46l.77.81-.3.29-.79-.79Z"/><path class="cls-1" d="M450.86,307.53l.87,1c-.11.06-.28.21-.33.18-.32-.22-.61-.48-.91-.72Z"/><path class="cls-1" d="M293.55,298.26c-.05-.47-.09-.94-.13-1.41l.33,0,.18,1.41Z"/><path class="cls-1" d="M23.47,372.46,22,372.32v-.27h1.49Z"/><path class="cls-1" d="M132.27,409.64l.91-.78.81.74-.77.9Z"/><path class="cls-1" d="M28.28,298.59l-.86-.81.36-.43.9.75C28.54,298.26,28.41,298.42,28.28,298.59Z"/><path class="cls-1" d="M92,455.76l-.85-.8.36-.42.85.73Z"/><path class="cls-1" d="M19.88,370.69h-1.2l0-.28,1.31-.16C19.93,370.4,19.91,370.54,19.88,370.69Z"/><path class="cls-1" d="M352.61,296l-1,.73-.44-.42.86-.9Z"/><path class="cls-1" d="M327.26,298.63c-.53-.81-.53-.81.24-1.33-.12.52-.23,1-.34,1.44Z"/><path class="cls-1" d="M99.88,434.13l.91-.84.33.36-.93.83C100.09,434.36,100,434.24,99.88,434.13Z"/><path class="cls-1" d="M244.14,222.64l-.06-1.44.4,0,.12,1.44Z"/><path class="cls-1" d="M332.34,221.36l-1,.74-.32-.44,1-.8Z"/><path class="cls-1" d="M157.62,170.88l-.16-1.69.44,0,.12,1.7Z"/><path class="cls-1" d="M31.11,238.06l-.8-.91.29-.27.83.89Z"/><path class="cls-1" d="M218.43,85.49l.72,1.77-.5.13c0-.66-.08-1.33-.11-2Z"/><path class="cls-1" d="M224.12,432.26l1.11.6c-.13.19-.25.38-.37.57l-1-.79Z"/><path class="cls-1" d="M239.51,68.92l.12,1.59-.45,0L239,69Z"/><path class="cls-1" d="M137.76,457.48l-.88.83-.42-.36.72-.92Z"/><path class="cls-1" d="M59.64,366.48l-.8-.73.41-.56,1.08.44Z"/><path class="cls-1" d="M310.56,246.45l-.84-.72.22-.29.91.68Z"/><path class="cls-1" d="M279.7,319.15l.26-1.53,1.05,1.11-1.42.3Z"/><path class="cls-1" d="M250,145c-.14-.46-.28-.93-.43-1.45,1.48.23,1,.77.33,1.35Z"/><path class="cls-1" d="M322.55,344.83h1.59v.25h-1.6Z"/><path class="cls-1" d="M185.88,141.08v1.72h-.4l.09-1.72Z"/><path class="cls-1" d="M310.88,344.29l-1,.91-.39-.43,1-.89Z"/><path class="cls-1" d="M33.13,341.9l-.93.77-.29-.34.9-.81Z"/><path class="cls-1" d="M280.18,418l1.64,1.25-2-.56C279.92,418.46,280.05,418.23,280.18,418Z"/><path class="cls-1" d="M301.18,341.46l1-.94.34.39-1,.91Z"/><path class="cls-1" d="M129.31,124.57c.07-.66.14-1.33.22-2l.42.14c-.24.6-.48,1.19-.71,1.79Z"/><path class="cls-1" d="M429.05,215.12l-.71,1-.47-.36.83-.92Z"/><path class="cls-1" d="M169.4,133.27l.12-1.4h.23v1.44Z"/><path class="cls-1" d="M455.81,214.07l.78-.82.29.26-.75.85Z"/><path class="cls-1" d="M474.69,327.05l.86.91-.32.3-.88-.89Z"/><path class="cls-1" d="M58.6,209.71l.84.78L59,211l-.82-.8Z"/><path class="cls-1" d="M54,126.81l-1-.9.39-.42,1,.89Z"/><path class="cls-1" d="M54.72,213.69l-1-.95.41-.45c.35.32.69.65,1,1Z"/><path class="cls-1" d="M338.9,328.56l1.39.15,0,.29h-1.5Z"/><path class="cls-1" d="M312.92,358.36l.86-.82.43.45-.83.85Z"/><path class="cls-1" d="M171.51,154.68c0,.53.07,1.06.11,1.59l-.4,0-.09-1.58Z"/><path class="cls-1" d="M232.36,433.45l-1.3.16-.06-.35,1.3-.18Z"/><path class="cls-1" d="M317,260.32c.74-.67,1-.94,1.33-1.2.06.25.23.68.15.73A6.27,6.27,0,0,1,317,260.32Z"/><path class="cls-1" d="M250.59,104.59c0,.51.09,1,.13,1.53l-.47,0-.18-1.51Z"/><path class="cls-1" d="M29.58,259.05l.84.88-.34.33c-.28-.3-.56-.59-.85-.88Z"/><path class="cls-1" d="M293.17,311.5H295l-.11-.12-1.28,1.8-.31-1.78Z"/><path class="cls-1" d="M81.21,109l-.85-.94.37-.34.86.93Z"/><path class="cls-1" d="M28.55,313.7l-1.62.1,0-.42h1.63Z"/><path class="cls-1" d="M101.31,412.47l-1.43.31c.28-1.4.8-.84,1.33-.2Z"/><path class="cls-1" d="M12.57,314.24l1,.85-.48.49-.94-.92Z"/><path class="cls-1" d="M96.25,434.88l.8-1,.42.36-.86.91Z"/><path class="cls-1" d="M276.2,313.92c0,1.1-.38,1.87-1.68,1.73l.06.06,1.73-1.69Z"/><path class="cls-1" d="M292.82,314.57h-1.6v-.25h1.6Z"/><path class="cls-1" d="M21.94,315.09l.83.93-.33.37-1-.69Z"/><path class="cls-1" d="M7.72,148.36l.72,1.81-.59.1v-2Z"/><path class="cls-1" d="M353.84,218.34v-1.52h.29v1.52Z"/><path class="cls-1" d="M80,114.37v-2l.49,0c.09.69.19,1.38.29,2.07l.11-.1-1,0Z"/><path class="cls-1" d="M121.33,112.07l.85.74-.34.36-.84-.74Z"/><path class="cls-1" d="M254.17,415.07l-1.35-.36.72-1.14c.26.68.43,1.1.6,1.53Z"/><path class="cls-1" d="M217.9,192.8c0-.4-.07-.8-.1-1.21l.35-.08.26,1.3Z"/><path class="cls-1" d="M357.55,284.09,357,285l-.58-.47Z"/><path class="cls-1" d="M335.07,449.5c0-.47-.05-.95-.07-1.42l.41,0c0,.48.09.95.14,1.42Z"/><path class="cls-1" d="M277.29,192.74c0-.47,0-.94.08-1.41h.31l.14,1.45Z"/><path class="cls-1" d="M219.85,424.76l.83.91-.37.33-.83-.91Z"/><path class="cls-1" d="M208.57,451.78l.73-.9.51.38-.5,1.07Z"/><path class="cls-1" d="M52.57,285.34l.91.8-.46.45-.85-.86Z"/><path class="cls-1" d="M78.82,185.33l.82-.94.9.84-.78,1Z"/><path class="cls-1" d="M98.13,382.53H96.67v-.29h1.46Z"/><path class="cls-1" d="M308.21,286.44l-.92.84-.32-.36.93-.83Z"/><path class="cls-1" d="M321.84,265.85l.8.78-.3.33-.84-.75Z"/><path class="cls-1" d="M244,183.94l-1.53.47c.38-1.29.74-1.82,1.43-.36Z"/><path class="cls-1" d="M108.8,408.15l1.35-1.2c0,.25.22.67.13.73A6.27,6.27,0,0,1,108.8,408.15Z"/><path class="cls-1" d="M388.88,270.15l.85.9-.36.33-.84-.91Z"/><path class="cls-1" d="M318.86,264.13l.77-1,.43.35-.85.93Z"/><path class="cls-1" d="M450,407.17l-1.47.09,0-.32,1.47-.16Z"/><path class="cls-1" d="M210,431.26c.15-.7,0-1.66,1.81-1.35l-1.91,1.25Z"/><path class="cls-1" d="M185.38,426.19l1.18-1.49.39.53-1.67.84Z"/><path class="cls-1" d="M250.46,529.23l.82.72-.28.32-.84-.69Z"/><path class="cls-1" d="M165.42,34.78l.86.94L166,36l-.89-.92Z"/><path class="cls-1" d="M271.12,427.89l-1,.66-.29-.39,1-.8Z"/><path class="cls-1" d="M95,390.55H96.4l0,.35-1.38.24C95,390.94,95,390.74,95,390.55Z"/><path class="cls-1" d="M113.65,405.25l.78.88-.38.31-.74-.9Z"/><path class="cls-1" d="M181.06,198.4c-.07.37-.14.74-.23,1.27l-1.23-.84,1.54-.35Z"/><path class="cls-1" d="M341.41,388.06l1,.79-.38.47-.95-.82Z"/><path class="cls-1" d="M310.61,275.24l.88-.65.23.33-.91.62Z"/><path class="cls-1" d="M27.09,274.66l-.95.9-.39-.38c.3-.31.6-.63.91-.94Z"/><path class="cls-1" d="M324,274.24l.87-.87.41.4-.91.84Z"/><path class="cls-1" d="M301.46,273.69l-1,.84-.33-.41,1-.78Z"/><path class="cls-1" d="M215.4,429.85l.82-1,.42.43-.9.87Z"/><path class="cls-1" d="M264.94,6V7.6h-.31c0-.53-.05-1.06-.07-1.6Z"/><path class="cls-1" d="M266.1,200.08h-.94l.11.1c.07-1.08.4-1.87,1.72-1.65l-.11-.12c-.3.59-.59,1.19-.89,1.79Z"/><path class="cls-1" d="M102.29,379.61l.91-.8.47.47-.85.86Z"/><path class="cls-1" d="M6.61,292.06l1.09.67-.37.51-1-.83Z"/><path class="cls-1" d="M83.25,498.21l-.93.8-.27-.31.91-.82Z"/><path class="cls-1" d="M242.53,4.31V2.76h.25V4.31Z"/><path class="cls-1" d="M183.57,179.11l.7.83-.31.28-.72-.83Z"/><path class="cls-1" d="M124.15,452.68l.7.78-.42.41-.77-.72Z"/><path class="cls-1" d="M278.57,269.48l-.51,1-.57-.3c.2-.33.4-.66.61-1Z"/><path class="cls-1" d="M32.46,291.07c.08-.41.16-.81.28-1.37l1.26.95-1.61.35Z"/><path class="cls-1" d="M337.2,377.25c.23.3.46.59.7.88-.11.07-.27.22-.33.19-.28-.18-.55-.4-.82-.6Z"/><path class="cls-1" d="M107.09,430.47l.9.78-.39.49-.95-.72Z"/><path class="cls-1" d="M194.29,424.21l-.76.8-.37-.36.77-.8Z"/><path class="cls-1" d="M109.2,404.43l-.76-.8.29-.27c.25.27.5.54.76.8Z"/><path class="cls-1" d="M3.28,401l1.27-.16.06.35-1.28.2C3.31,401.23,3.3,401.1,3.28,401Z"/><path class="cls-1" d="M224.7,449.46l-.91-.63.32-.44,1,.5Z"/><path class="cls-1" d="M232.85,451.55l.68,1.51c-1.62-.32-1.53-.78-.57-1.39Z"/><path class="cls-1" d="M243.86,449l-.81.86-.44-.36.71-.93Z"/><path class="cls-1" d="M93.52,409l-1.06.74-.42-.39c.29-.31.57-.63.86-.95Z"/><path class="cls-1" d="M132.2,532.08h0C132.29,531.48,132.25,531.72,132.2,532.08Z"/><path class="cls-1" d="M3.88,348.28l.85.08c-.08.08-.17.22-.23.21A4.48,4.48,0,0,1,3.88,348.28Z"/><path class="cls-1" d="M132.71,127l-.76-1,.47-.24.18,1.33Z"/><path class="cls-1" d="M256.11,415.47Z"/><path class="cls-1" d="M282.66,247.2l.84.1c-.09.08-.21.24-.27.22A2.92,2.92,0,0,1,282.66,247.2Z"/><path class="cls-1" d="M138.31,115.55c0,.35-.06.59-.09.84-.07-.08-.2-.18-.19-.24A4.18,4.18,0,0,1,138.31,115.55Z"/><path class="cls-1" d="M53.17,404.31c.29,0,.57-.06.85-.06.06,0,.11.14.17.22l-1,.14Z"/><path class="cls-1" d="M229.82,12l.1-.88c.08.09.23.2.22.26A3.36,3.36,0,0,1,229.82,12Z"/><path class="cls-1" d="M101.61,473.41l-.83-.11c.09-.07.2-.21.27-.2A3.36,3.36,0,0,1,101.61,473.41Z"/><path class="cls-1" d="M34.46,254.41l-1.65-.34c.1-.06.22-.19.31-.18S33.54,254.05,34.46,254.41Z"/><path class="cls-1" d="M17,403.78l-1.08-.21a5,5,0,0,1,.68-.26C16.6,403.3,16.7,403.48,17,403.78Z"/><path class="cls-1" d="M168.39,128.72l-.76-1,.44-.23c.08.44.15.87.22,1.3Z"/><path class="cls-1" d="M133.82,23.08l.07-.83c.08.08.22.17.21.22A3.77,3.77,0,0,1,133.82,23.08Z"/><path class="cls-1" d="M32.81,352.12l-1.7-.34c.11-.07.23-.21.32-.19A13,13,0,0,1,32.81,352.12Z"/><path class="cls-1" d="M352.35,337.86l1.68.35c-.1.07-.22.21-.31.19S353.3,338.24,352.35,337.86Z"/><path class="cls-1" d="M13.13,339Z"/><path class="cls-1" d="M322.34,339.08c0-.32.07-.65.11-1l.23,0-.07,1Z"/><path class="cls-1" d="M306.45,414.73Z"/><path class="cls-1" d="M241.35,213.78c.89.54.78,1.08,0,1.61l.12.11v-1.83Z"/><path class="cls-1" d="M111,539.58c-.12,0-.3.16-.36.12s-.1-.25-.15-.38a.9.9,0,0,1,.39,0C111,539.3,111,539.48,111,539.58Z"/><path class="cls-1" d="M305.21,341.12c.16-.62.25-.95.34-1.27a5.11,5.11,0,0,1,.23.76C305.79,340.68,305.59,340.79,305.21,341.12Z"/><path class="cls-1" d="M291.55,250h-1.23l0-.2Z"/><path class="cls-1" d="M288.46,341.66v-1h.24l-.06,1Z"/><path class="cls-1" d="M254.43,548Z"/><path class="cls-1" d="M128.52,121.56c.21-1.11.27-1.45.33-1.79.07.11.22.24.2.34A12,12,0,0,1,128.52,121.56Z"/><path class="cls-1" d="M249.6,250l-1-.23a3.55,3.55,0,0,1,.64-.17C249.3,249.59,249.39,249.76,249.6,250Z"/><path class="cls-1" d="M268.29,400.11c0-.43,0-.21,0,0Z"/><path class="cls-1" d="M75.41,119.05v.86H75.1c0-.29,0-.58.07-.86Z"/><path class="cls-1" d="M322.79,341.32c-.13.56-.21.86-.28,1.16a3.62,3.62,0,0,1-.24-.7C322.25,341.71,322.45,341.61,322.79,341.32Z"/><path class="cls-1" d="M39.64,342.46l.68-.07c0,.06-.1.17-.14.17A3,3,0,0,1,39.64,342.46Z"/><path class="cls-1" d="M100.73,119.07a4.52,4.52,0,0,1-.2-.72c0-.07.17-.16.26-.25l.14.94Z"/><path class="cls-1" d="M357.35,343.42c0-.37,0-.62,0,0C357.45,342.81,357.41,343.06,357.35,343.42Z"/><path class="cls-1" d="M127.87,118.22v-1h.24l0,1Z"/><path class="cls-1" d="M354,336.61h-.94v-.22H354Z"/><path class="cls-1" d="M292.16,402.18l-1.09-.27a5.23,5.23,0,0,1,.68-.18C291.82,401.73,291.91,401.9,292.16,402.18Z"/><path class="cls-1" d="M89,402.65h.7v.17H89Z"/><path class="cls-1" d="M308.08,6.14,307.24,6c.09-.07.2-.21.27-.2A3.39,3.39,0,0,1,308.08,6.14Z"/><path class="cls-1" d="M164.4,8.6l0-.95h.22l0,.95Z"/><path class="cls-1" d="M153,471l-1.22-.3a4.37,4.37,0,0,1,.68-.2C152.49,470.48,152.6,470.65,153,471Z"/><path class="cls-1" d="M277.54,236.19l.69-.05v.16h-.69Z"/><path class="cls-1" d="M171.2,54.4v-.77h.19v.77Z"/><path class="cls-1" d="M304.56,381.58c0-.32,0-.64.05-1l.29,0c0,.32,0,.64,0,1Z"/><path class="cls-1" d="M329.31,381l-1.7-.36c.1-.07.22-.21.3-.2A13.58,13.58,0,0,1,329.31,381Z"/><path class="cls-1" d="M146,84.1v1h-.22v-1Z"/><path class="cls-1" d="M226.06,441.36c-.07.42-.14.85-.05.3-.34.42-.09.12.15-.19Z"/><path class="cls-1" d="M154.84,88.38c.23-1.09.3-1.4.36-1.71.07.11.21.23.19.31A10.76,10.76,0,0,1,154.84,88.38Z"/><path class="cls-1" d="M252.76,406.92h1v.22l-1-.05Z"/><path class="cls-1" d="M287.08,365.29l.65.08-.6.1A1.71,1.71,0,0,1,287.08,365.29Z"/><path class="cls-1" d="M160,90.05c.22-1.06.28-1.36.35-1.67.06.1.2.22.18.3A10.5,10.5,0,0,1,160,90.05Z"/><path class="cls-1" d="M77,364.84l-1.68-.31c.11-.06.22-.18.31-.17A13.08,13.08,0,0,1,77,364.84Z"/><path class="cls-1" d="M104.33,51l-.06.81c-.07-.07-.21-.16-.2-.21A4.34,4.34,0,0,1,104.33,51Z"/><path class="cls-1" d="M101.55,382.28h1v.19h-1Z"/><path class="cls-1" d="M115.36,49.29v1h-.22v-1Z"/><path class="cls-1" d="M234.39,509Z"/><path class="cls-1" d="M137.82,410l-.77-1,.48-.23c.07.44.13.89.19,1.33Z"/><path class="cls-1" d="M124.94,64.66c-.23,1.1-.29,1.41-.36,1.72-.06-.11-.2-.22-.19-.31S124.55,65.64,124.94,64.66Z"/><path class="cls-1" d="M94.87,377.17h.95v.23l-1-.06Z"/><path class="cls-1" d="M97.75,64.64c-.23,1.13-.29,1.45-.35,1.77-.07-.11-.22-.23-.2-.32A13.15,13.15,0,0,1,97.75,64.64Z"/><path class="cls-1" d="M311.43,71c0-.65-.06-.89-.07-1.13l.18,0C311.52,70.12,311.5,70.34,311.43,71Z"/><path class="cls-1" d="M116.84,410.48v-1h.24v1Z"/><path class="cls-1" d="M190.73,71.45l.05-.94.22,0-.06.93Z"/><path class="cls-1" d="M195.63,74c.22-1.09.28-1.41.35-1.74.07.11.21.24.19.33A11.34,11.34,0,0,1,195.63,74Z"/><path class="cls-1" d="M213.92,496.25c0,.34-.07.57-.1.8-.06-.08-.18-.18-.17-.25A2.71,2.71,0,0,1,213.92,496.25Z"/><path class="cls-1" d="M300.36,372.08l.85.08c-.08.07-.17.21-.22.19A3.27,3.27,0,0,1,300.36,372.08Z"/><path class="cls-1" d="M125.53,58.8l-.83-.08c.08-.07.17-.21.22-.19A2.94,2.94,0,0,1,125.53,58.8Z"/><path class="cls-1" d="M230.05,438v1.15l-.17,0Z"/><path class="cls-1" d="M273.37,55.22v1h-.23l.05-1Z"/><path class="cls-1" d="M245.33,236.21a3.68,3.68,0,0,1,.23.71c0,.07-.18.16-.28.24-.05-.3-.1-.61-.16-.92Z"/><path class="cls-1" d="M240.25,220.93c.07.24.15.48.22.72l-.53-.05Z"/><path class="cls-1" d="M242.8,55.24v1h-.21v-1Z"/><path class="cls-1" d="M143.29,411.13l.92.05,0,.23-.92-.08Z"/><path class="cls-1" d="M235.93,217.36c0,.39,0,.62,0,0Z"/><path class="cls-1" d="M45.56,355.94h1v.21h-1Z"/><path class="cls-1" d="M66.66,217.78H66v-.22h.68Z"/><path class="cls-1" d="M80.39,389.09h1v.24l-1-.06Z"/><path class="cls-1" d="M105.4,36.65c-.23,1.08-.29,1.38-.35,1.69-.07-.1-.21-.22-.19-.31A10.19,10.19,0,0,1,105.4,36.65Z"/><path class="cls-1" d="M248.18,440.51c-.33.23-.65.47-.27.2l.37-.09Z"/><path class="cls-1" d="M268.35,436.73c0,.29,0,.59,0,.89h-.28v-.89Z"/><path class="cls-1" d="M237.1,229l-.85,1.71.12.1.84-1.69Z"/><path class="cls-1" d="M103.74,107.6l.78,1-.54.25c0-.43-.09-.87-.14-1.31Z"/><path class="cls-1" d="M213.76,29.92c0-.38,0-.62,0,0Z"/><path class="cls-1" d="M246.05,520.67l1,.06,0,.24-1-.05Z"/><path class="cls-1" d="M208.89,109.37l-.22,1.18a4.11,4.11,0,0,1-.27-.74C208.38,109.75,208.58,109.64,208.89,109.37Z"/><path class="cls-1" d="M204.35,524.21v-.72h.18v.73Z"/><path class="cls-1" d="M6.53,352.74h-1v-.21h1Z"/><path class="cls-1" d="M375.2,394.11l.92.08c0,.11,0,.23,0,.34l-.91-.13Z"/><path class="cls-1" d="M286.41,361.61,288,362l-1.66.37.1.11,0-1Z"/><path class="cls-1" d="M316.33,383.05l1.1.2a4.53,4.53,0,0,1-.67.19C316.68,383.45,316.59,383.29,316.33,383.05Z"/><path class="cls-1" d="M296.24,384.16h-.92V384h.92Z"/><path class="cls-1" d="M269.1,359.51l0,.74H269v-.74Z"/><path class="cls-1" d="M180.72,480.91c0,.35,0,.57,0,0C180.63,481.47,180.67,481.25,180.72,480.91Z"/><path class="cls-1" d="M265.18,358.22l1.45.23c-.08.15-.16.29-.23.44l-1.12-.79Z"/><path class="cls-1" d="M251.19,410.46a3.05,3.05,0,0,1-.59.07s-.06-.13-.1-.19Z"/><path class="cls-1" d="M289.3,45.19c0-.37.06-.62.09-.88.07.09.21.19.2.24A4.54,4.54,0,0,1,289.3,45.19Z"/><path class="cls-1" d="M14.88,232Z"/><path class="cls-1" d="M279.17,231.08h.92v.2h-.93Z"/><path class="cls-1" d="M279.06,385.24l-1.6-.33c.1-.06.21-.2.3-.18A13.24,13.24,0,0,1,279.06,385.24Z"/><path class="cls-1" d="M265.28,358.1l-1.72-.82-.08.08,1.7.86Z"/><path class="cls-1" d="M80.52,100.18l.73.1c-.08.07-.18.2-.23.19A3.22,3.22,0,0,1,80.52,100.18Z"/><path class="cls-1" d="M225.62,104.52c0-.25,0-.5,0-.74h.15v.73Z"/><path class="cls-1" d="M107.14,385.32l-1,.78-.24-.49,1.31-.21Z"/><path class="cls-1" d="M320.8,385.7h1V386l-1-.07Z"/><path class="cls-1" d="M385.5,300.48l1.67.35c-.1.07-.22.21-.31.19A13.42,13.42,0,0,1,385.5,300.48Z"/><path class="cls-1" d="M399.05,296.5a3.38,3.38,0,0,1,.68-.17c.06,0,.14.14.22.22l-.87.12Z"/><path class="cls-1" d="M255.91,173.77c-.25-.32-.51-.64-.76-1l.51-.23.14,1.29Z"/><path class="cls-1" d="M230.64,453.62c-.49,0-.24,0,0,0C230.41,453.67,230.17,453.73,230.64,453.62Z"/><path class="cls-1" d="M220.71,173.44l-.1.81c-.08-.09-.22-.2-.2-.26A2.38,2.38,0,0,1,220.71,173.44Z"/><path class="cls-1" d="M221.48,453.4l1.72.36c-.1.06-.22.21-.31.19S222.46,453.79,221.48,453.4Z"/><path class="cls-1" d="M286.41,294.38l-.22.18.32-.06Z"/><path class="cls-1" d="M298.8,293.89l.85.11c-.09.07-.2.22-.27.2A3.09,3.09,0,0,1,298.8,293.89Z"/><path class="cls-1" d="M142.89,454.12l-.27-.05.2.13Z"/><path class="cls-1" d="M303.94,293.29l-.88-.09c.08-.08.19-.23.24-.21A3.79,3.79,0,0,1,303.94,293.29Z"/><path class="cls-1" d="M287.63,176.8l.09-.84c.08.08.25.19.23.24A4.05,4.05,0,0,1,287.63,176.8Z"/><path class="cls-1" d="M131.36,423.87l.95,0v.23l-1-.06Z"/><path class="cls-1" d="M145.14,432.41l.65.08a5.86,5.86,0,0,1-.58.1S145.16,432.47,145.14,432.41Z"/><path class="cls-1" d="M398.06,292.37v-1h.21v1Z"/><path class="cls-1" d="M296.25,291.63h-.94v-.22h.94Z"/><path class="cls-1" d="M130.66,432.66v.68h-.17v-.68Z"/><path class="cls-1" d="M317.34,291.52v-1h.22v1Z"/><path class="cls-1" d="M235.85,423.86l1,.05v.22l-1-.05Z"/><path class="cls-1" d="M8.57,289.31l-.18.15.29,0Z"/><path class="cls-1" d="M268.92,424Z"/><path class="cls-1" d="M159.48,433.46h-1v-.22h1Z"/><path class="cls-1" d="M343.75,309.23a6,6,0,0,1,.72-.23c.06,0,.15.18.23.28l-.92.16Z"/><path class="cls-1" d="M332.64,309.16v-.69h.17v.69Z"/><path class="cls-1" d="M120.16,421.76l-1.55-.32c.1-.06.21-.2.3-.18S119.32,421.42,120.16,421.76Z"/><path class="cls-1" d="M324.34,307.56v1h-.21l-.06-.95Z"/><path class="cls-1" d="M193.79,421l-.23,1.33-.46-.24c.27-.33.53-.67.79-1Z"/><path class="cls-1" d="M64.32,307.48l1,.06,0,.2-1-.07Z"/><path class="cls-1" d="M303.81,306.66l-1.48.18v-.18Z"/><path class="cls-1" d="M65.52,201.89c.25.3.51.6.14.16.11.56,0,.15-.06-.26Z"/><path class="cls-1" d="M54.83,159.83l.09-.87c.07.09.23.19.21.26A3.69,3.69,0,0,1,54.83,159.83Z"/><path class="cls-1" d="M410.26,304.25Z"/><path class="cls-1" d="M311.37,305.14l.05-.95h.19v.95Z"/><path class="cls-1" d="M129,159.75v1h-.24l0-.95Z"/><path class="cls-1" d="M55,303.92l1,.25c-.12.08-.25.25-.34.23a3.56,3.56,0,0,1-.7-.29Z"/><path class="cls-1" d="M105.07,422.19l.91,0v.24h-.92Z"/><path class="cls-1" d="M178,161.51v-.92h.23l-.06.93Z"/><path class="cls-1" d="M65.6,201.79l-1.28-.23.25-.46c.32.26.64.52,1,.79Z"/><path class="cls-1" d="M4.82,302.48Z"/><path class="cls-1" d="M202.82,422.23c0,.39.06.63,0,0C202.73,422.85,202.76,422.62,202.82,422.23Z"/><path class="cls-1" d="M249.56,164.07c0,.33-.06.55-.09.78-.08-.08-.24-.19-.22-.24A3.69,3.69,0,0,1,249.56,164.07Z"/><path class="cls-1" d="M11.71,301.62v1H11.5v-1Z"/><path class="cls-1" d="M38.75,279.92l-1.7-.36c.1-.06.22-.2.31-.18A11.24,11.24,0,0,1,38.75,279.92Z"/><path class="cls-1" d="M27.82,278.6l.82.11c-.09.07-.2.21-.27.19A2.87,2.87,0,0,1,27.82,278.6Z"/><path class="cls-1" d="M263,266.06v-1h.27c0,.32,0,.65,0,1Z"/><path class="cls-1" d="M50.72,278l-.94,0v-.22l.94.05Z"/><path class="cls-1" d="M464.77,276.49l-1.24-.31a4.88,4.88,0,0,1,.7-.19C464.31,276,464.42,276.15,464.77,276.49Z"/><path class="cls-1" d="M219.29,190c.25.33.5.65.16.22.09.54,0,.1,0-.33Z"/><path class="cls-1" d="M225.62,430.69l.85.08c-.08.07-.17.21-.23.2A4.24,4.24,0,0,1,225.62,430.69Z"/><path class="cls-1" d="M52,429.58l.23-.17-.34,0Z"/><path class="cls-1" d="M190.91,429.21H190V429h.95Z"/><path class="cls-1" d="M204.47,191.08c.5.23.25.11,0,0Z"/><path class="cls-1" d="M51.92,429.46c-.32.27-.63.53-.22.18-.53.11-.1,0,.33-.06Z"/><path class="cls-1" d="M271.46,196.25v-.74h.18v.74Z"/><path class="cls-1" d="M202.39,431.29c.08-.37.15-.73.09-.45.17-.25,0,0-.21.34Z"/><path class="cls-1" d="M169.52,193.75c0-.35.06-.59.09-.84.09.09.26.21.24.26A3.36,3.36,0,0,1,169.52,193.75Z"/><path class="cls-1" d="M260.91,268.92l-1,.74-.22-.51L261,269Z"/><path class="cls-1" d="M10,269.49H9v-.22h1Z"/><path class="cls-1" d="M270.87,448.58v1h-.27v-1Z"/><path class="cls-1" d="M52.33,289h-.95v-.21h.95Z"/><path class="cls-1" d="M134.05,424.81v1h-.24v-1Z"/><path class="cls-1" d="M202.8,447.9h-1v-.21h1Z"/><path class="cls-1" d="M188.18,424.75a4.76,4.76,0,0,1,.79-.24c.07,0,.17.19.26.3l-1,.15Z"/><path class="cls-1" d="M314.12,199.62h0C314.18,199.92,314.23,200.22,314.12,199.62Z"/><path class="cls-1" d="M200.1,184.45l0-.94.28,0-.12.93Z"/><path class="cls-1" d="M264.4,286.86l.94-.89.28.48-1.33.3Z"/><path class="cls-1" d="M152.67,186.33l-.95-.09V186l1,.06Z"/><path class="cls-1" d="M148.43,451.3h-1v-.21h1Z"/><path class="cls-1" d="M152.41,189.82c.12-.59.19-.91.26-1.24a4.62,4.62,0,0,1,.18.71C152.86,189.38,152.7,189.49,152.41,189.82Z"/><path class="cls-1" d="M282.71,425.71v.9h-.27v-.9Z"/><path class="cls-1" d="M473.82,281.77l1.71.36c-.11.07-.23.21-.31.2A13.58,13.58,0,0,1,473.82,281.77Z"/><path class="cls-1" d="M297.86,425.6h1v.21h-1Z"/><path class="cls-1" d="M279.16,450.45l-.77-.09c.23,0,.45-.09.68-.12C279.09,450.24,279.13,450.38,279.16,450.45Z"/><path class="cls-1" d="M3.07,281.17H4v.21h-1Z"/><path class="cls-1" d="M126.33,426.69l-.94,0v-.23l.95.06Z"/><path class="cls-1" d="M218.57,452c.22-1.08.28-1.39.35-1.71.07.11.21.23.19.32A14.37,14.37,0,0,1,218.57,452Z"/><path class="cls-1" d="M160.64,426.08c-.07.41-.14.83,0,.28l.15-.17Z"/><path class="cls-1" d="M248.77,449.44v1h-.23c0-.32-.06-.64-.08-1Z"/><path class="cls-1" d="M291.2,279.53a5.53,5.53,0,0,1,.18.7c0,.07-.16.17-.24.25l-.14-.92Z"/><path class="cls-1" d="M219.52,466.77l.27-1.18a4,4,0,0,1,.17.68C220,466.35,219.81,466.45,219.52,466.77Z"/><path class="cls-1" d="M345.34,323h-.69v-.17h.69Z"/><path class="cls-1" d="M267.35,205.53c0,.35,0,.57,0,0C267.26,206.09,267.29,205.87,267.35,205.53Z"/><path class="cls-1" d="M220.56,419.25l-1.71-.36c.1-.08.22-.23.3-.21A13.71,13.71,0,0,1,220.56,419.25Z"/><path class="cls-1" d="M31.6,256.15c-.21-.3-.43-.61-.17-.25-.09-.43,0,0,.07.37Z"/><path class="cls-1" d="M250.09,418.7l1.18.24a4.39,4.39,0,0,1-.67.17C250.51,419.11,250.41,419,250.09,418.7Z"/><path class="cls-1" d="M31.5,256.27l1.35.22-.26.46-1-.8Z"/><path class="cls-1" d="M266.48,256.72a5.39,5.39,0,0,1-.66.18c-.06,0-.14-.16-.22-.24l.86-.12Z"/><path class="cls-1" d="M157.05,444.37c0,.31,0,.62,0,.93h-.21v-.93Z"/><path class="cls-1" d="M131.31,433.85l1.83.37c-.11.07-.23.22-.33.2A13,13,0,0,1,131.31,433.85Z"/><path class="cls-1" d="M201.11,444.48h-1v-.21l1-.08Z"/><path class="cls-1" d="M197.5,461.42l.06-.92h.22l-.06.92Z"/><ellipse class="cls-1" cx="340.83" cy="316.11" rx="0.68" ry="0.15"/><path class="cls-1" d="M312.42,316.21h-1V316h1Z"/><path class="cls-1" d="M135.28,146.68c.05-.45.11-.91.16-1.37l.51.27-.78,1Z"/><path class="cls-1" d="M159.53,147.09v.69h-.16c0-.22,0-.45,0-.68Z"/><path class="cls-1" d="M282.77,316h.67v.16h-.67Z"/><path class="cls-1" d="M193.05,129.59l-.73-1.08.38-.19.24,1.37Z"/><path class="cls-1" d="M133.47,128.75c-.08.43-.17.86-.25,1.28l-.43-.26.78-.94Z"/><path class="cls-1" d="M300.71,328.65l-.24,1.07a3.93,3.93,0,0,1-.19-.67C300.28,329,300.45,328.89,300.71,328.65Z"/><path class="cls-1" d="M348.28,328l-.09,1-.25,0,.06-1Z"/><path class="cls-1" d="M307.21,328l.68-.24,0,.52Z"/><path class="cls-1" d="M294.62,328.11l0,.71h-.16v-.71Z"/><path class="cls-1" d="M15.7,328.11H15V328h.69Z"/><path class="cls-1" d="M126.37,417.31h-1v-.23l1,.06Z"/><path class="cls-1" d="M20.89,327.06h1v.25l-1-.07Z"/><path class="cls-1" d="M370.09,326.65l-1.71-.36c.11-.07.22-.21.31-.19A12.17,12.17,0,0,1,370.09,326.65Z"/><path class="cls-1" d="M160.54,417.42l-1.15-.24a4.37,4.37,0,0,1,.7-.22C160.16,417,160.26,417.13,160.54,417.42Z"/><path class="cls-1" d="M26.8,325.78l-1.65-.34c.1-.07.22-.2.31-.19S25.88,325.41,26.8,325.78Z"/><ellipse class="cls-1" cx="236.75" cy="468.62" rx="0.15" ry="0.68"/><path class="cls-1" d="M116,134.36v-1h.22v1Z"/><path class="cls-1" d="M270,417.16l.74.08Z"/><path class="cls-1" d="M319.14,417.13h1v.24h-1Z"/><path class="cls-1" d="M142.31,137.73c0-.32,0-.63,0-.94h.22l-.06.94Z"/><path class="cls-1" d="M139.37,136.82c-.21,1.09-.27,1.43-.34,1.77-.07-.11-.21-.24-.19-.34A13.24,13.24,0,0,1,139.37,136.82Z"/><path class="cls-1" d="M323,315.75c.08-.45.17-.9.25-1.35l.47.28-.83,1Z"/><path class="cls-1" d="M116.58,151.78l.25-1.32.48.27-.83,1Z"/><path class="cls-1" d="M15.81,314.3h1v.22h-1Z"/><path class="cls-1" d="M131.42,151.8c0,.54,0,.76,0,0C131.34,152.56,131.37,152.33,131.42,151.8Z"/><path class="cls-1" d="M261.47,433.45h-1v-.22h1Z"/><path class="cls-1" d="M180.76,147.84v1h-.22v-1Z"/><path class="cls-1" d="M247.73,419.58l.88-.06v.4l-.88-.09Z"/><path class="cls-1" d="M130.48,420.5l.69-.2,0,.52Z"/><path class="cls-1" d="M111.73,448.6l.11-.83c.07.09.21.2.19.27A2.63,2.63,0,0,1,111.73,448.6Z"/><path class="cls-1" d="M215.12,435.53l.26-.34-.36.24Z"/><path class="cls-1" d="M255,404l-.36.57.42-.5Z"/><path class="cls-1" d="M207.49,421.92l.29-.39-.39.29Z"/><polygon class="cls-1" points="216.51 421.46 216.29 421.53 216.32 421.32 216.51 421.46"/><path class="cls-1" d="M215.87,437.22l.4.29-.3-.39Z"/><polygon class="cls-1" points="117.86 511.39 117.93 511.61 117.71 511.56 117.86 511.39"/><path class="cls-1" d="M226.16,441.47l.12-.21-.22.1Z"/><path class="cls-1" d="M255.81,403.13,255,404l.06.07.88-.85Z"/><polygon class="cls-1" points="218.89 553.82 218.99 554.04 218.73 554.02 218.89 553.82"/><path class="cls-1" d="M243.07,420.11l-.27.41.38-.31Z"/><polygon class="cls-1" points="129.74 442.57 129.81 442.78 129.6 442.74 129.74 442.57"/><path class="cls-1" d="M254.14,415.1l.38.32c-.08-.08-.21-.22-.35-.35Z"/><path class="cls-1" d="M82.56,460.12l.3-.56c-.11.18-.22.36-.32.54Z"/><polygon class="cls-1" points="218.02 446.2 217.98 445.94 218.17 445.98 218.02 446.2"/><polygon class="cls-1" points="216.45 432.59 216.23 432.66 216.28 432.43 216.45 432.59"/><polygon class="cls-1" points="215.36 452.86 215.6 452.81 215.56 453.01 215.36 452.86"/><polygon class="cls-1" points="150.02 442.05 149.92 441.8 150.17 441.83 150.02 442.05"/><path class="cls-1" d="M207.39,421.82c-.11.2-.22.4-.12.23-.16.08,0,0,.22-.13Z"/><polygon class="cls-1" points="196.11 455.47 195.88 455.52 195.92 455.32 196.11 455.47"/><polygon class="cls-1" points="188.2 423.16 188.46 423.1 188.42 423.32 188.2 423.16"/><path class="cls-1" d="M82.54,460.1l-.32.56.34-.54Z"/><path class="cls-1" d="M142.82,454.2l.64.46-.57-.54Z"/><path class="cls-1" d="M160.74,426.19l.3-.33-.4.22Z"/><polygon class="cls-1" points="218.75 457.11 218.99 457.06 218.96 457.25 218.75 457.11"/><path class="cls-1" d="M209.94,431.16l-.3.4.4-.3Z"/><polygon class="cls-1" points="114.44 484.2 114.49 484.44 114.29 484.4 114.44 484.2"/><polygon class="cls-1" points="117.08 418.94 116.84 418.98 116.88 418.79 117.08 418.94"/><path class="cls-1" d="M233,451.67l.28-.31-.39.19Z"/><path class="cls-1" d="M246.49,405.7l-.42.42.48-.36Z"/><path class="cls-1" d="M237.21,420.24l.35-.39-.44.3Z"/><polygon class="cls-1" points="255.3 441.82 255.54 441.77 255.5 441.97 255.3 441.82"/><polygon class="cls-1" points="185.87 452.08 185.62 452.11 185.66 451.93 185.87 452.08"/><polygon class="cls-1" points="107.74 472.47 107.53 472.54 107.57 472.33 107.74 472.47"/><polygon class="cls-1" points="229.1 443.69 229.03 443.48 229.24 443.51 229.1 443.69"/><path class="cls-1" d="M250.72,485.54l-.3.4.4-.31Z"/><polygon class="cls-1" points="204.57 189.36 204.63 189.63 204.43 189.59 204.57 189.36"/><path class="cls-1" d="M219.4,189.9l-.38-.28.27.39Z"/><path class="cls-1" d="M177.78,190.74l-.39-.29.28.4Z"/><path class="cls-1" d="M75.82,194.14l-.22-.09.11.2Z"/><polygon class="cls-1" points="219.88 193.79 219.64 193.91 219.69 193.6 219.88 193.79"/><polygon class="cls-1" points="157.02 194.57 156.83 194.67 156.86 194.42 157.02 194.57"/><polygon class="cls-1" points="214.61 194.81 214.55 194.49 214.76 194.53 214.61 194.81"/><path class="cls-1" d="M11.24,196.79l.14-.38-.24.28Z"/><path class="cls-1" d="M11.14,196.69l-.29.57.39-.47Z"/><path class="cls-1" d="M284.78,200.2l.24-.3-.32.22Z"/><path class="cls-1" d="M265.16,200.07l-.18.38.29-.28Z"/><path class="cls-1" d="M266,200.19l.38.25-.27-.36Z"/><path class="cls-1" d="M238.08,203.48l-1,0,.1.12c.14-.16.28-.33.43-.49.12.17.25.33.37.49Z"/><path class="cls-1" d="M214.15,167.07l.4.21-.29-.32Z"/><path class="cls-1" d="M135.28,175.58l.23-.4-.35.29Z"/><path class="cls-1" d="M159.07,175.46l-.27-.21.16.32Z"/><polygon class="cls-1" points="139.95 177.52 140 177.8 139.79 177.76 139.95 177.52"/><path class="cls-1" d="M83.34,178l-.24.38.36-.27Z"/><path class="cls-1" d="M75.8,179.82l.27-.43-.38.33Z"/><path class="cls-1" d="M243.91,184.05l.58.26-.48-.37Z"/><path class="cls-1" d="M237.21,229.09c.12-.2.23-.39.13-.23l-.24.11Z"/><polygon class="cls-1" points="252.99 231.09 253.04 231.32 252.84 231.27 252.99 231.09"/><path class="cls-1" d="M448.76,232.45c.12-.18.23-.37.12-.2.14-.05-.05,0-.23.1Z"/><path class="cls-1" d="M448.65,232.35l-.1.23.21-.13Z"/><polygon class="cls-1" points="251.92 233.72 252.18 233.62 252.14 233.9 251.92 233.72"/><polygon class="cls-1" points="311.67 242.18 311.4 242.29 311.44 241.98 311.67 242.18"/><path class="cls-1" d="M264.32,242.57l-.39.55-.39-.56-.09.12h1Z"/><path class="cls-1" d="M1.88,244.25l-.24-.09c-.1-.15,0,0,.13.21Z"/><path class="cls-1" d="M1.77,244.37l.37.26-.26-.38Z"/><polygon class="cls-1" points="252.07 252.19 252.13 252.45 251.94 252.42 252.07 252.19"/><path class="cls-1" d="M330.57,252.75c-.1.16-.2.32-.26.4l.38-.31Z"/><path class="cls-1" d="M283.86,203.49l-.27.29.36-.19Z"/><path class="cls-1" d="M59.66,205.2l-.4-.31.32.4Z"/><path class="cls-1" d="M200.68,205.3l-.09-.09Z"/><path class="cls-1" d="M233,206.06l-.24-.18.19.24Z"/><path class="cls-1" d="M240.52,205.17c-.12.17-.24.34-.27.37l.38-.26Z"/><path class="cls-1" d="M31.64,207.74l-.1.11Z"/><path class="cls-1" d="M27.35,218l-.36-.31.32.36Z"/><polygon class="cls-1" points="239.33 217.7 239.25 217.5 239.48 217.53 239.33 217.7"/><polygon class="cls-1" points="40.49 222.53 40.55 222.78 40.33 222.75 40.49 222.53"/><path class="cls-1" d="M233,228.25l.29-.39-.4.29Z"/><path class="cls-1" d="M84.3,61.62,84,61.4l.26.31Z"/><path class="cls-1" d="M163.31,61.61l-.32-.2.24.29Z"/><polygon class="cls-1" points="237.59 63.64 237.66 63.85 237.45 63.82 237.59 63.64"/><path class="cls-1" d="M211.72,3l-.38-.28.28.38Z"/><path class="cls-1" d="M211.62,3.08l.4.3-.3-.4Z"/><polygon class="cls-1" points="248.52 37.41 248.77 37.37 248.73 37.56 248.52 37.41"/><polygon class="cls-1" points="221.6 38.28 221.39 38.36 221.42 38.13 221.6 38.28"/><path class="cls-1" d="M261.85,45.46l-.11.1Z"/><path class="cls-1" d="M261.74,45.56l.38.29-.27-.39Z"/><polygon class="cls-1" points="158.59 144.27 158.67 144.53 158.45 144.51 158.59 144.27"/><path class="cls-1" d="M249.87,144.85l.1.1Z"/><polygon class="cls-1" points="238.43 148.91 238.34 148.69 238.57 148.72 238.43 148.91"/><polygon class="cls-1" points="16.66 152.28 16.59 151.99 16.82 152.03 16.66 152.28"/><path class="cls-1" d="M96.19,156.77l-.21-.09.12.19Z"/><polygon class="cls-1" points="246.1 156.25 246.21 156.51 245.92 156.47 246.1 156.25"/><path class="cls-1" d="M103.84,107.49l-.33-.25.23.36Z"/><polygon class="cls-1" points="193.44 110.35 193.5 110.57 193.31 110.54 193.44 110.35"/><path class="cls-1" d="M77.49,111.84l.35-.48.45.48.08-.11h-1Z"/><path class="cls-1" d="M79.1,114.38H80L80,114.3c0,.31,0,.63,0,.94l.09-.09-.86-.86Z"/><path class="cls-1" d="M122.42,124.46l-.26.4.38-.3Z"/><path class="cls-1" d="M133.57,127.86l-.86-.85-.11.12.87.82Z"/><path class="cls-1" d="M133.57,128.83v-1l-.1.09.51.4-.51.4Z"/><path class="cls-1" d="M168.29,128.82l.4.32-.3-.42Z"/><path class="cls-1" d="M262.72,138.08l-.09.1Z"/><polygon class="cls-1" points="438.96 328.15 438.88 327.94 439.11 327.97 438.96 328.15"/><path class="cls-1" d="M294.13,339.52l.12-.21-.23.1Z"/><path class="cls-1" d="M285.64,342.93c.09-.21.18-.42.1-.24l-.2.15Z"/><path class="cls-1" d="M279.64,348.8l-.32.32.35-.29Z"/><path class="cls-1" d="M332.26,348.86l.38.29-.28-.39Z"/><polygon class="cls-1" points="12.42 353.35 12.52 353.56 12.26 353.52 12.42 353.35"/><path class="cls-1" d="M278,310.65c.11-.2.23-.4.13-.22.13-.06-.05,0-.24.09Z"/><polygon class="cls-1" points="323.39 310.02 323.47 310.23 323.25 310.2 323.39 310.02"/><path class="cls-1" d="M295,311.49l.12-.21-.23.09Z"/><polygon class="cls-1" points="58.4 313.43 58.49 313.65 58.24 313.61 58.4 313.43"/><path class="cls-1" d="M350.22,314l-.41-.34.33.42Z"/><polygon class="cls-1" points="327.73 315.13 327.82 315.35 327.57 315.31 327.73 315.13"/><polygon class="cls-1" points="290.29 315.87 290.36 316.12 290.17 316.1 290.29 315.87"/><polygon class="cls-1" points="337.02 317.63 337.09 317.86 336.89 317.83 337.02 317.63"/><polygon class="cls-1" points="335.22 321.33 335.13 321.11 335.38 321.16 335.22 321.33"/><path class="cls-1" d="M292.44,323.4l.3-.4-.41.3Z"/><path class="cls-1" d="M5.29,326l.26-.4-.38.29Z"/><path class="cls-1" d="M267.79,382c.13-.15.27-.29.35-.37l-.43.3Z"/><path class="cls-1" d="M17.17,382.83l.33-.58c-.14.17-.28.33-.41.5Z"/><path class="cls-1" d="M17.09,382.75l-.24.31.32-.23Z"/><path class="cls-1" d="M107.23,385.4l.2-.31-.29.23Z"/><polygon class="cls-1" points="103.42 390.3 103.3 390.02 103.57 390.04 103.42 390.3"/><path class="cls-1" d="M129.23,394.63l-.26.42.36-.33Z"/><polygon class="cls-1" points="109.35 400.35 109.27 400.11 109.52 400.15 109.35 400.35"/><path class="cls-1" d="M304.26,353.87l.07.07Z"/><path class="cls-1" d="M332.37,354.79l.27-.35-.35.27Z"/><path class="cls-1" d="M332.29,354.71l.08.08Z"/><path class="cls-1" d="M94.37,356.51l.25.12-.14-.23Z"/><path class="cls-1" d="M263.56,357.28l-.39-.31.31.39Z"/><polygon class="cls-1" points="286.03 358.73 285.93 358.52 286.19 358.55 286.03 358.73"/><path class="cls-1" d="M286.51,361.52l-.37-.33.27.42Z"/><polygon class="cls-1" points="334.35 373.84 334.6 373.81 334.55 373.99 334.35 373.84"/><path class="cls-1" d="M57.86,381.15l.67.23-.59-.31Z"/><polygon class="cls-1" points="23.55 268.4 23.61 268.62 23.4 268.58 23.55 268.4"/><path class="cls-1" d="M261,269l.23-.36-.33.26Z"/><polygon class="cls-1" points="40.48 272.09 40.41 271.87 40.61 271.9 40.48 272.09"/><path class="cls-1" d="M18,275.7l-.38-.29.29.39Z"/><path class="cls-1" d="M17.92,275.8l.39.31-.3-.41Z"/><path class="cls-1" d="M32.45,276.56l-.17-.09.09.18Z"/><path class="cls-1" d="M32.37,276.65l.64.25-.56-.34Z"/><polygon class="cls-1" points="42.25 280.31 42.32 280.51 42.1 280.47 42.25 280.31"/><path class="cls-1" d="M261.73,255.42l.4.24-.29-.35Z"/><polygon class="cls-1" points="397.26 257.61 397.19 257.4 397.41 257.44 397.26 257.61"/><polygon class="cls-1" points="248.61 258.2 248.69 258.49 248.44 258.45 248.61 258.2"/><path class="cls-1" d="M368.07,258.81l.24-.36-.35.25Z"/><path class="cls-1" d="M368,258.7c-.1.2-.19.39-.28.59l.39-.48Z"/><path class="cls-1" d="M270.23,262.21l.38.26-.26-.38Z"/><path class="cls-1" d="M348.53,263.05l.28-.38-.38.28Z"/><path class="cls-1" d="M347.67,263.89l.86-.84-.1-.1-.86.85Z"/><polygon class="cls-1" points="390.59 263.31 390.68 263.53 390.44 263.48 390.59 263.31"/><path class="cls-1" d="M347.57,263.8l-.29.39.39-.3Z"/><path class="cls-1" d="M348.52,296.17c.13-.15.26-.3.27-.3l-.39.2Z"/><polygon class="cls-1" points="457.68 295.57 457.75 295.79 457.54 295.75 457.68 295.57"/><path class="cls-1" d="M348.4,296.07l-.1.23.22-.13Z"/><polygon class="cls-1" points="21.87 297.3 21.94 297.5 21.72 297.46 21.87 297.3"/><path class="cls-1" d="M316.23,297.91l.26-.41-.37.31Z"/><path class="cls-1" d="M327.16,298.74l.4.29-.3-.4Z"/><path class="cls-1" d="M286.48,302.13c.1-.21.2-.42.09-.18l-.16.12Z"/><path class="cls-1" d="M307.62,303.83l.4.3-.3-.4Z"/><polygon class="cls-1" points="318.28 305.19 318.23 304.95 318.42 305 318.28 305.19"/><polygon class="cls-1" points="319.03 306.71 319.24 306.63 319.2 306.86 319.03 306.71"/><path class="cls-1" d="M297.53,308.07l-.07-.08Z"/><path class="cls-1" d="M297.46,308c-.12.23-.24.47-.1.19-.23.16,0,0,.17-.11Z"/><polygon class="cls-1" points="34.65 283.01 34.39 283.05 34.43 282.86 34.65 283.01"/><path class="cls-1" d="M8.68,289.41l.87-.87-.1-.1-.88.87Z"/><polygon class="cls-1" points="296.32 288.99 296.1 289.06 296.14 288.84 296.32 288.99"/><path class="cls-1" d="M323,289.38l.32-.38-.41.29Z"/><path class="cls-1" d="M322.94,289.29l-.29.39.38-.3Z"/><path class="cls-1" d="M32.39,291l.07.07Z"/><path class="cls-1" d="M215.87,409.18l2.13,1.14c-1.42.42-1.42.42-2-1.24Z"/><path class="cls-1" d="M226.2,408.23l-.38-.07.27.19Z"/><path class="cls-1" d="M222.66,408.34l.16.17c.1.52,0,.12,0-.27Z"/><path class="cls-1" d="M226.9,405.81l.23.1c.1.17,0,0-.13-.22Z"/><polygon class="cls-1" points="251.33 365.42 251.05 365.46 251.09 365.28 251.33 365.42"/><path class="cls-1" d="M264.32,338.56l-1.6.9-.18-.47,1.89-.31Z"/><path class="cls-1" d="M233,415.15l.26-.35-.37.24Z"/></g></g></svg>