<svg xmlns="http://www.w3.org/2000/svg" viewBox="0 0 484.14 554.5"><defs><style>.cls-1{fill:#f2504f;}</style></defs><title>Asset 195</title><g id="Layer_2" data-name="Layer 2"><g id="Layer_1-2" data-name="Layer 1"><path class="cls-1" d="M302.72,352.05l0,1.58-3.7-.29c-1.48,1-3.41,2.26-5.32,3.51-3.23-3.2-4.93-6.18-4.87-8.61a6.66,6.66,0,0,0-6.09-1.62l.09.08c-1.54-.86-3.19-.71-3.49.79s-1.1,1.95-1.72,2.88c-.38.56-.23,1.47-.32,2.29-1.7-.94-.7-2.27-.4-3.43-.76-1.7-1.49-3.36-2.28-5.14l-5.58-.72-2.42,1.92c.3.8.53,1.44.84,2.29l-1.62,3.84,1.14,2.76-2.76.83-1.44,2.25-2.45-1.3c.47-4.33-1.77-8.45-.76-13.24l-2.41-5.49,4.4-4.91-1.28-3.94c-1.71-.35-3.11-.38-4.09,1.23L258,332h-3.25c-.06.25-.17.64-.29,1-.7,2.52-.28,5.45-2.76,7.3l-.5-.39-.07.09.52.36.19,2.74,1.68.49c-.07.64-.05,1.13-.14,1.15a3.63,3.63,0,0,0-2.89,3.36l.06-.06c-.19.18-.54.37-.54.55a10.78,10.78,0,0,0,.3,1.74l-3.87.54.11.11.36-1.22-2.35-6.37c-.74-.54-2.47-.76-3-2.4l-.11.12c1.69.44,3.07-.39,4.51-1,1.07-.49,2.2-.84,3.82-1.43,0-.09.45-.77.84-1.47s1.24-1.52,1.08-2.07c-.71-2.57.75-5.12-.11-7.67L249.78,326l.37-.31c0,.05-.15.23-.26.41l-.95-.07.12.09c-.55-1.85-2.43-1.63-3.68-2.38l.12.09-1.16-2.17,2.81-6.17-.24-3.42c-1.1-2-2.73-.34-4.43-.47,0-.74,0-1.35,0-1.75l-2.4-3.21,3.34-5.31c-1.88-3.82-5.16-5.35-9.62-4.56l.14,2-7.38.51,2.88-2.13c.78,1.15,1.62,1.67,3,.68-.34-1.28-.7-2.59-1.06-3.93l-3.56-4c0-2.28,1.72-4.26-.61-5.78l.11.1-1-1.48-8.81-.49-3.15,4.15c-1.55.5-3.22.88-4,2.56l-2-1.31-3.19,2.85c-2.53-1.24-2.53-1.24-1.16-4.48l3.31.27c.32-1.33.6-2.51.9-3.77l-1.35-2.24-3.48.77a2.81,2.81,0,0,1-.8-1c-.4-1.33.3-2.36,1-3.3,2.42-.1,1,2.31,2.19,3.48,1.27-1.83.32-3.58.8-5.08l3.09-2.51,4.43.74c.65-1.47,1.15-2.7-.62-3.61l.12.11c-.08-.52-.16-1-.25-1.58-2.51-.6-3.6,1.31-5.82,2.88l-3-2.18.68-.76-1.16.49.12.12c.74-2.19,1.49-4.38,2.28-6.7l2.78-.74-.32-4.53c-1.58.2-2.79,1-3.39,3.52-.55-3.2-3.42-4.66-3.18-7.55,2.63-3.64,3-4.92,2.74-10.75l-3.76-.4.06.05.66-1.64-3.2-.28,2.1-2.12-2.31-1c-1-1.77,0-5.25,2.53-7.42-3-1.9-3.35-6.1-6.56-7.44-.82-2.11-1.52-3.91-2.28-5.88,3.07-2.8,3.6,2.6,6.23,2,.19-1.53.4-3.13.57-4.48l-2.29-6.92-1.68.36c.23-1.38.5-1.7,1.92-2.2-1.18-1.68-3-1.94-4.82-2.69-2.37,1.55-5.55,1.44-8.07,4l-3.6.53c2,4.06-.86,6.47-3.1,9.25l-5.69-1.31-2.63,1.72-.9-.75c.14-1.07.29-2.24.48-3.71l-4.75-.24a5.43,5.43,0,0,0,.55-.51c.17-.2.48-.52.42-.64-1.11-2.28,1.34-4.5,0-6.8l2.09-2.05-.12-.11,1,1.54-1.35,2.64,2.44,0-.07-.06.3,4.36c2.92-.64,3.56-3.47,6.44-4.45l-3.13-1.74,5.34-2.16,3.19,1.61,1.72-.63,1.59,1.48,3.19-2.16,3.37-.23,1.5-1.9,1.37,1.44c1.66.54,2.53-.72,3.67-1.55l-2.06-3.09,2.15-.51c.4,1.11.75,2.11,1.19,3.33l3.17-.91c.63.9,1.26,1.82,1.56,2.24l7.43.37c.27-1.7.52-3.27.85-5.38l-4.68,1.12-.86-3-3.47-.23c-1-1.66-1.7-4.12-4.67-4,2.32-1.41,1-2.56-.07-3.83l-3.22-.2-1.65-1.87c.61-1.54,1.22-3.3-.27-5l2.65-2.82c2.79-.71,2.6,1.82,3.73,3.07.72-.69,1.28-1.22,2.08-2l1.26,3.15,1.68-.42c.14.47.29,1,.51,1.74l3.91,1.1,3.55-1.61c.05-1.49,2.54-2.29,1.11-4.74l-7.51.19,3.58-1.79.3.4-.41-.27c1.13-1.73,2.77-.53,4.41-.76l.83-1.81-1.86.13c.22-.68.42-1.27.68-2.08l-1.31-1.61-4.32-.06,1.58-4.76c2.65-.56,5.53,1.81,7.65-.49L221.6,167l1.4-1.17,3.09.22,2-2.24-1.25-2.68c.13-.12.28-.39.47-.42,1.06-.19,2.13-.32,3.56-.53-2.66-3.27-5.43.23-7.95-1.09L221.4,163c-.63-1.14-1.05-1.92-1.54-2.8l-3.54,1c.05-1.34.1-2.5.17-4.21l3.68,2a14.92,14.92,0,0,1,2.86-1,12.79,12.79,0,0,1,3,.27c-.06-2.17-1.52-2.73-2.74-3.51-.36-1.16-.73-2.39-1.13-3.67l-3.87-.31c0-.18,0-.35,0-.53l2.29-.35c-1.16-2-3.1-1.81-4.71-2.06a50.64,50.64,0,0,0-5.32-.23L207.69,150c-3.18-.44-3.27-.56-2.64-3.89l5.81.29,2.56-.93-.11-.09c.12.24.2.63.37.68,2.26.58,4.53,1.1,6.83,1.65.82.75.79,2.55,2.56,2.18l-.06-.05c1.05,2.53,3.41,1.21,5.11,1.71,1.77,1.5,3.2,3.56,6.71,3.42-2.29-1.61-2.48-4.45-5.07-4.17l-.85-2.22-3,.39-1.65-3.26L219.87,144a4,4,0,0,1,3.24-.54,10.88,10.88,0,0,0,2.61.15l8.1,1.34-.11-.1.64,1.84-4.9-1-1,1.51,3.17,1.76c3.72.88,4.88-2.76,7.39-4.83L236.94,142l.09.1c-.08-1,.33-2.19-1.13-2.58l.12.1c-.61-1-1.42-1.12-2.7-.33l.16,2.2.11-.12-1.29.71c-.26-.91-.5-1.77-.8-2.87l-2.93-.41c1.68-.74,4,.2,4.73-2.64l-2-1.43.1.08c.05-.41.11-.82.2-1.52l2.62,1.27c-.09,1-.16,1.91-.25,3l2,.45,1.71-2.68h3c.65-.57,1.36-1.21,2.35-2.1L249,138.1l4.2-3.94c2.14,1.93,4.33,2,6.71.82,1.65,1.08,1.65,1.08,2.16,3.21l-3.19.71c-.46-.61-.92-1.22-1.05-1.38l-6.39.45c-.27,1.2-.56,2.5-.79,3.48l-3.55-.08L248.9,143l-.26.39-3.2-1.09-1.89,2c-.22-1.59-.35-2.45-.5-3.48l-2,.32c.38,1.08.64,1.92,1,2.72s.74,1.42,1.11,2.13l.1-.12c-1.47,1.27-3.18,0-4.91.4l-1.18,1.57-.45,2-.37.64.3-.7,1-1.52,2.34-.36c-2.75,1.75-1.74,3.9-1.81,5.92l3.5-.25c.34-1.85.63-3.47.92-5.09l-.1.12,4.1-1.53c0-.57,0-1,0-1.41l-.1.11L249,145a29.49,29.49,0,0,0,3.41.25c.34,0,.67-.64,1-1l-.1.11,3.36-2.13-.26-.57-2.07.24-.94-1.52.85-1,1.67,1.22,3-1.84L260.4,141c-.06.68-.12,1.45-.2,2.35l3,.84c0,.63-.06,1.26-.09,1.91,2.05.42,1.11-1.6,1.71-2l3.46-.86-3-1.27c.05-.19.09-.38.14-.57l3,.29,1-2.48,2.4-.93c0-.25-.09-.51-.13-.76l-2.41-.19c-.13.7-.21,1.11-.28,1.51l-1.46,1.06-1.42-1c.41-.65.76-1.22.88-1.4-.5-1.82-.92-3.32-1.34-4.85l1.76-1.94a4.74,4.74,0,0,0-.89-5.53l2.39.21c.12-1.16.23-2.25.35-3.34l5-5.29-5.58-3.66,3.13-2.21,2.63.46,6.9-7.51c-1.78-1.41-3-.18-4.52.38l-3.13-1.56,1.41-1.89c1.89-1.1,3.37-.07,4.95.45s2.94.78,4.61,1.21c5.19-5.83,11-10.76,19.16-11.74l3.16,4.23.41,5.87,2.28,1.75H307.2l-7,9.8c.58.92,1.15,1.82,1.92,3.06-.39,2.81-.84,6.08-1.38,10l.57,1.08-1.53,2.76,2.47,1.69c-.22.62-.43,1.23-.71,2l-4.29.3-2.08-3.65c-.73,0-1.55,0-2.37-.12-3.14-.24-6.09-1-8.43-3.28a7.91,7.91,0,0,0-1.74-1l.12.11c-.3-1.19-.81-2.29-.35-3.64a2,2,0,0,0-1.6-2.79L273,120c0,1.34-.05,2.42-.07,3.5l-2.26,2,1.3,1.52c0,1.61-.05,3.07-.08,4.66l2.72-.65-.11-.08.95,2.11-3.64,2.6c2.53.75,4.33,1.06,6-.76l2.89,4.1,2.43-.17c-.24-1.8-.46-3.43-.68-5.06l-.11.13c2.41-1.54,5.15-1.09,8.68-1.41l4.14,4.59,5.67-.39c2,3.22,5.38,4.91,8.85,6.48l5.48-1.67c.1-.89.2-1.84.32-2.89a11.85,11.85,0,0,1,4.14-3.63l-.39,2.74,3.87,2.62,2.3-1.85,4.27,3.53c-1.73,1.13-1.73,1.13-3.5,1.25L323.58,141l-.56.38.94,2.5,11.58,6.68-.09-.08c.55,1.56,1.76.72,2.73.75l-.13-.1,2.77,1.63-.11-.08.1,1.41c.54.12,1.07.21,1.57.37s1,.37,1.66.61c0,.63,0,1.16,0,2,.73.71,1.69,1.64,2.74,2.64l3.77.9c-.17-.64-.26-1-.37-1.41,1.62-.8,2.47.51,3.59,1.45l-1.14.76q.53,2.34,1.16,5.08l4.74,3.37c.45,1.65.8,3,1.28,4.76-1.84,2.14,1.15,4.25.87,6.23l3.91,5,3.9.12,2.48,2.42,7.13,2.17c2.41.4,5,.7,7.24-1.83-.8-.31-1.56-.91-2-.73a12.85,12.85,0,0,0-2.51,1.66,2,2,0,0,1-2.55-1.36l-.1.11a46.89,46.89,0,0,0,5.45-3,5.52,5.52,0,0,1,4.43-.94c-.48.74-.85,1.3-1.23,1.9,1.73,1.8,3.83,1.2,5.87,1l-.14-.11,2.19,2.25-1.08,1.05,1.91.93c-.51.95-1,1.87-1.5,2.8l-1.51,2.84c.92,2.44,1.77,4.72,2.86,7.63l2.94,1.81-.52.73,5.4.9c.89-1.37,1.66-2.53,2.21-3.37l5.74.13a12,12,0,0,1-1.7-1.31,13.53,13.53,0,0,1-.91-1.55c2.34-1.49,3.52.45,5.15,1.56-.1.79-.21,1.56-.32,2.45l3,4.11,1.61.23,1.92,3.56a26.36,26.36,0,0,1-11.76-.17,22.28,22.28,0,0,0-4.27-.21l-.78,3.72,2.25,1.48c1.51,2.75-.77,3.09-1.57,4.11,1.26,3.93,2.46,7.72,3.65,11.44,3.06,3.73,6.94,6.86,9,11.44a9.17,9.17,0,0,1,.92,3.23c.27,5.09,1.52,9.7,5.64,13.14a8.67,8.67,0,0,1,1.29,1.94l5.51,2.57c.67.79,1.58,1.85,2.5,2.91,0,.72,0,1.41.06,2.37l-3.46.48c-1.91,1.52-2.83,7.77-1.84,10.86-1.88,4.44-1.75,5.06,1.53,6.23a19.89,19.89,0,0,0,0-2.06,7.56,7.56,0,0,0-.51-1.46c4,.3,4,.3,7.17,4.65,2.13.55,4.81-.92,6.76,1,1,1,2.49,2,2.21,3.88-1.42,1.34-2.9.13-4.44,0L437.86,297l3.54,3.75a4.81,4.81,0,0,1-3.45-1.47c-3.14-.7-5.62,1.39-8.34,2.06-3.55-.45-6.83-1.34-9.44-4.08-.78,1.49-1.27,2.41-1.8,3.43.34,2.3,2.23,4.63.21,7.27l-3.72.53-1.78,2.28c.61,3.1,1.19,6.11,1.85,9.48l1.27,1.37-2,.54-12,13.75c0,.65.05,2,.09,3.37l1.49,1.06c-.12.54-.23,1.08-.39,1.86,3.19,1.1,4,4,4.75,6.85l.1-.12c-2,.3-3.5-.64-5.1-1.63s-3.5-2.11-5.15-.33c-.42,1.76-.79,3.32-1.27,5.27.56,1.32,1.29,3,2,4.8-1.77,1.09-2.81-1.36-5.14-1.16l-3.4,1.5,0,2.87,6.12,4.07c-1.07,2.78-.63,4.95,1.17,6.88.46.5,1.15,1.1,1.17,1.66.06,3.29,2.93,4.28,4.82,6a31.18,31.18,0,0,0,4,2.68c-.07.65-.12,1-.17,1.45,4.07,3,6,7.47,8.7,12.31a8.68,8.68,0,0,1-1.35-.79,4.62,4.62,0,0,1-.77-1c-2-3.58-5-6.1-8.21-8.61a35.29,35.29,0,0,1-9-9.73c-1.83-3.1-4.44-5.77-6.87-8.49-1.42-1.58-2.72-1.35-4.35.27l-3.28,0c4.13,6.24,8.53,11.76,11.54,18.84-3.62-2.27-5.15-5.73-7.58-8.32s-3.91-6.09-5.95-9.43c-1.23.26-2.84-.79-3.77,1.13l.07-.08c-3.22-.05-6,1.66-8.8,1.79-.44,2.79-.79,4.94-1.09,6.83l-4.7-.16-1.9,2.28,1,2.67-1.54-.29.07.06c-.21-.64-.22-1.48-.66-1.88-1.64-1.52-3.42-2.89-5.5-4.6-.57-1.32-1.05-3.31-3.19-4.05l.12.1c-.3-.91-.61-1.81-.92-2.72l1.39-1.15-1.16-2c-3.56.36-6.64-1.15-9.85-3.44-.2-.63-.52-1.65-.81-2.55l-4.38.13-1.3-3.52h2.35c.09,1-.62,2.75,1.63,2.1.27-1.5-.9-1.6-1.74-2-.39-1-.77-2.06-1.11-3l-4.1-1.28c.21-1,.37-1.81.59-2.86l-3.08-.2-.74,2.51-2.67-3.24-3.9,1.45c-1.09,1.18-.58,3.24-2.35,3.26L309,344.23c-2.15-.62-3.94-.19-5.08,1.16l-6.31,0-.43,2.38c2.82.34,4.16,2.42,5.67,4.32Zm-72.2-177.81.76.49.22-.26-.62-.66-.75-.51-.24.27Zm-.4,4.86-2.55.36c.66,1,1.15,1.7,2.23,3.31.24-1.87.35-2.71.46-3.56l.58-.51-.62-.45c.11-.76.23-1.52.39-2.55l-3.29.43,1.49,1.06-1.66,1.43,2.9-.2C230.07,178.65,230.09,178.88,230.12,179.1Zm4.69-6.17-.71,1.55c1.87-.46,1.87-.46.81-1.64a6.72,6.72,0,0,1-.23-1.86c.18-1.26-.35-1.77-1.61-1.93-.3,1.22-.58,2.39-.94,3.89ZM209.1,243.62l-2.47.17c.14,2.48-.71,4.67,1,6.85l2.09-.49-.45-6.43,1.56-.3-.19-1.37h-1.4C209.16,242.6,209.13,243.11,209.1,243.62Zm.87-25.5-.11-.11.4,2.91,3.81-2.68a39.71,39.71,0,0,1-3.28-4.93c-.81-1.69-.12-4-2-5.26l-4.56.32c.69,1.79,2,1.56,3.28,1.53.12,0,.23.2.38.34l-1.7.69c0,1.17.06,2.26.09,3.47l3.31,1c0,.21-.05.42-.08.63l-4.61,1.12.15,2.21Zm10.15-36.57c1.94.8-.35,2.18.55,3l-2.29,1.17,3.35,1.39-6,1.82c-1,1.48-3.64,1.71-3.68,4.66,3-2.83,6.57.31,9.91-1.46l2.61-6.36-1.83-.49,1.43-1.51-3.29-5.6-4.91.34-.65,2.2,4.43-.68c.21.73.32,1.14.44,1.54-1.86.12-3.81-.38-6.06.84l4.42.89Zm-5.76-13.16,2.33,3.34,4.05-.51C218.68,169.86,217.54,168.06,214.36,168.39Zm-1.51,68.75-1.43,3.67,2.32.06,1.9-2.63ZM291.27,97.86c-2.56,1.45-4.38,2.27-3.91,5.47C289,101.61,290.58,100.74,291.27,97.86Zm-4.13,9.25L283,111l4.71-.69C287.5,109.29,287.39,108.64,287.14,107.11Zm-54.3,60.52-2.18-2.57c-.44,1.62-.73,2.67-1.16,4.28Zm-12.46,6.76c.31,1.34.5,2.12.81,3.46l2.2-2.24ZM205.85,206c1,1.4,2,1.62,3.55.31C208.16,205.15,207.15,205.08,205.85,206Zm8.27,26.74-1.9,3,3.42-.76Zm29.76-76.65-.47-.93a23.32,23.32,0,0,0-2.89,1.11c-.39.21-.55.85-1.24,2Zm-42.27,83,3.83-.56-1.5-1.47Zm3.95-5.56-.48.66c.15.34.29.69.5,1.18l2.65-.41ZM213,247.75c.41-2.56.41-2.56-1.24-2.08C212,246.12,212.27,246.53,213,247.75ZM203.36,206c1.36.5,2,.25,1-1.09ZM215,175.38l.61.45.43-1.12-.38-.18ZM211.19,234l.31,0c.08-.29.16-.57.23-.86l-.55-.11C211.18,233.36,211.18,233.67,211.19,234Zm22.52-83.43.14-.22-.23,0Z"/><path class="cls-1" d="M347.1,404l-2.17-1.14-.64,3.33c-4.32-1.32-6.66-4.34-8.27-8a33.39,33.39,0,0,1-2-6.34c-.47-2.13-.68-4.3.62-6.4.58-.93.47-2.28.75-3.86l1.35-.83c4,2.29,4,6.33,4.45,10.2Z"/><path class="cls-1" d="M198.24,257.15,190.41,256l.07.06c-.51-.29-1.18-.93-1.52-.79a15.88,15.88,0,0,0-2.6,1.61l-6.86-.5-.81-.7c.17-2.48,2.22-2.78,3.85-3.75-.12-.78-.23-1.57-.33-2.23l.86-2.58-.1.12c2.18-.23,2.15,2.45,4.59,3l2.63-.19,5.85-8.55,3.8,2-.12-.09-1.44,3.48.12.12-2.36-.6c.93,3.26,1.68,5.89,2.59,9.1,0,.16-.27.94-.49,1.72Z"/><path class="cls-1" d="M360.94,447.25c-2.25-3.61-4.33-6.86-6.31-10.17a10.68,10.68,0,0,1-1.9-5.46c0-1.54-.2-3.08-.31-4.76.54-.73,1.12-1.5,1.87-2.49l4,2.72a24.48,24.48,0,0,1,3.46,12.37c.1,2.41-.2,5.27,2.8,7.54Z"/><path class="cls-1" d="M435.7,239.73l-7-3-1.71-.11,1-1c-.78-1.42-1.55-2.86-2.37-4.37l1.33-1.65c6.77-1.05,10.8,1,13.67,6.82C439.86,238.65,437.77,238.89,435.7,239.73Z"/><path class="cls-1" d="M319.11,108.35c-.65,4.68-1.22,8.83-1.84,13.24a11.7,11.7,0,0,1-1.82.3,8.79,8.79,0,0,1-1.86-.36c-1.24,2.53-2,5.15-3.63,7.17s-3.85,3.31-6,4.74c2.39-4.45,4.83-8.81,9.17-12.17L311.26,119c.55-1.89,1.12-3.84,1.89-6.45C314.79,111.92,315.4,108.8,319.11,108.35Z"/><path class="cls-1" d="M352.2,400.62c-2.28-2.8-4.68-5.51-6.83-8.41-1.65-2.24-3-4.71-2.52-7.81a6.6,6.6,0,0,1,1.4-.92,7.37,7.37,0,0,1,1.75-.15c1.74,1.74,1.77,4.88,4.64,5.77l2.19-.15c-.56,4.11,2.66,7.61,1.41,12l-2.15-.43Z"/><path class="cls-1" d="M190,226.33l1.55-.78c1.73.45,3.78.46,5.18,2.63-.92,2.11-1.92,4.43-3,7l4.2,1.32c-.87.93-1.41,1.48-1.94,2l.12.11c-1.14-2-2.7-.2-4.13-.69l-2.51,3.47-1.42-.06-.62-4.16-2.26-.84c.6-1.5,1.2-3,1.78-4.51l4.36-.63c-.6-1.81.31-3.64-1.17-5.06Z"/><path class="cls-1" d="M185.5,176.67c0,1.79.06,3.1.1,4.6,2.05.36,4.08-1.67,7-.08l-5.5,1.29c-.86,1.73-1.31,3.27-2.26,4.37-.77.89-2.14,1.27-3.48,2,0-.35-.07-.82-.08-1.29s0-.8,0-1.23l-1.24-.61,1.11-1c-3-3.09-7.3-2-10.8-3.75l5.08.16,2.27-3.93Z"/><path class="cls-1" d="M390.46,387.64c-1.09.61-.59,1.4-.22,2.15,1,1.94,2,3.87,3,6l4.71,1.87c.43,1.62.79,3,1.08,4.09l3.23.82c-1.21,1.88-2.33,3.62-3.42,5.34,1.25,1.57,2.7,2.95,2.33,5.8l-3.94-5.61c0-.05.14-.72.43-2.17l-2-1.25a34.86,34.86,0,0,0-2.19-4.46c-2.19-3.21-3.8-6.75-5.84-10.05-.89-1.45-1.1-3.33-1.7-5.28,2.59-.2,2.6,2.67,4.39,2.89Z"/><path class="cls-1" d="M189.55,290l-2.69,2.57-2.73-.66L181,288.43l-.21-2.95,6.6-5.48c2.41,1.57,3.1,3.82,3.79,6.09Z"/><path class="cls-1" d="M454.82,321.85c-.32.19-.63.39-1.15.72.47.66.86,1.19,1.26,1.74l2.16-.62c-.56,2.3-2.61,2.28-4.54,3.2l-6-4.38-6.39.06,5.27-1.31c0-.67.05-1.49.08-2.34.62-.62,1.28-1.26,2-2l-2.37-.86,1.23-2c.82.15,1.9,0,2.36.47,2.2,2.28,5,4.13,6,7.36Z"/><path class="cls-1" d="M445.06,476.69c-1.07-1.4-.81-3.49-3-2.8-3.23-2.93-5.13-6.72-6.72-10.83l-1,1.34-.25-3.54.95.78,1.69-2.07c.5.12.84.1,1,.26,1.77,1.58,2.52,3.95,4.74,5.35,1.22.77,1.63,3.13,2,4.86A53.72,53.72,0,0,1,445.06,476.69Z"/><path class="cls-1" d="M189.4,170.7l-1.12,2-8.24-4c.29-2.14.55-4,.8-5.81,1.65-2.11,3.41-1.89,5-.79,0,1.84-.08,3.51-.11,5.15Z"/><path class="cls-1" d="M426.6,206.27l2.13-1.4c0-.88.06-1.58.1-2.48L431,201l7.23,1.54-2,.77c.29.95.52,1.73.87,2.89l-1.87,2.23C432.69,206.74,429.67,208.59,426.6,206.27Z"/><path class="cls-1" d="M332.43,484a15.22,15.22,0,0,1-2.93-6.64c-.51-2.28-1.3-4.5-2-6.85.24-1,.52-2,.82-3.21.39.06.84,0,1.11.21,2,1.49,2.15,3.91,2.57,6C332.67,476.71,334.61,480,332.43,484Z"/><path class="cls-1" d="M331.27,138l-2.73-2.9c.13-2.05.22-3.5.32-5.08l5.46-1.6,2.46,2.35c-.45,1.35-.83,2.5-1.21,3.66-1.17,1.65-4,1.31-4.39,3.67Z"/><path class="cls-1" d="M418.81,320.79l3.15-1.73,2.39,1.54c.09-.79.16-1.38.27-2.27l5.77,1.53c1.61,1.68,1.61,1.68,4.86,2.56l-2.2,2.56Z"/><path class="cls-1" d="M359.66,422.23c0-1.63,0-3.25,0-5.11,2.68.37,4.79,1,5.79,3.54.17.45.68.77,1,1.15l-.12-.1.23,3.32-2.08,2.54-4.91-5.4Z"/><path class="cls-1" d="M368.31,394.05c-1.36,2.06.78,4.69-1,6.87-2.62-1.2-3.8-3.53-5.1-6.14l-.28-4,1.93-1.2Z"/><path class="cls-1" d="M357.93,147.5l2.69,2.66-1.59,4c-2.42,1.42-4.09.37-5.84-.67-.4-1.21-.8-2.4-1.22-3.64C353.36,147.63,355.51,147.35,357.93,147.5Z"/><path class="cls-1" d="M155.32,222.05l1.45,2.94-2.63,4.07c-3-.63-6.16-.09-10.09,1.45.83-1.37,1.14-2.42,1.54-2.45,2.43-.19,3.88-1.95,5.66-3.21C152.49,224,153.75,223.13,155.32,222.05Z"/><path class="cls-1" d="M374.51,186.79a15.57,15.57,0,0,0-7.12-2.9,15.88,15.88,0,0,1-3.24-1.49l1.93-1-.2-2.85,1.6-.27c1.43,2.24,1.43,2.24,1.25,4.79a29.79,29.79,0,0,1,9.89,1.05Z"/><path class="cls-1" d="M169.11,255.89l3.71-1.14c2.34,1.36,2.5,3.24,2.24,5.52l-2.79,3c-3-1.89-3.61-4.45-3.07-7.51Z"/><path class="cls-1" d="M381.69,440l-1.43.25c-1.24-3.26-2.54-6.44-3.62-9.69-.24-.75.3-1.76.5-2.77,2.92.61,2.95,3.2,4.3,4.71C381.61,435,382.16,437.44,381.69,440Z"/><path class="cls-1" d="M201.6,270.53a31.65,31.65,0,0,1-.77,4.49c-.42,1.34-1.24,2.54-2.86,2.44-1.68-3.59-5.82-6.48-3.07-11.34l1.26.88c-.41,2-1.29,3.93.55,5.76,1.71-.53,2.86-2.67,5-2.12Z"/><path class="cls-1" d="M139.64,262.13c-1,3.24-4.61,2.84-6.17,6.17a12.24,12.24,0,0,1,1.27-8.65l3.13-1.35Z"/><path class="cls-1" d="M271,382.12l-2.13,1.36c-3.73-1.89-1.3-6-3.67-8.39l3.1-.68c.18-.48.4-1.07.64-1.73C271.59,375.48,269.34,379,271,382.12Z"/><path class="cls-1" d="M139.86,247.36c.79,1.71,1.29,2.82,1.79,3.9L139.71,255l-4.25,1.5C134.23,252.05,137.37,250.24,139.86,247.36Z"/><path class="cls-1" d="M330.14,487.25c-.78-.56-1.87-.95-2.28-1.71-2.05-3.76-5.37-6-9.07-7.66-2-.91-3.38-2.37-5.22-4.11,3.26,0,5.1,1.93,7.21,3.21a28.88,28.88,0,0,1,8.54,8,7.86,7.86,0,0,1,.74,2.36Z"/><path class="cls-1" d="M408.68,429c-1.38-2.78-2.31-5.76-4.67-8a5,5,0,0,1-1-4.78,5.34,5.34,0,0,1,4.13,3.64c1.08,2.72,2.26,5.36,2.25,8.36l.08-.1-.89,1Z"/><path class="cls-1" d="M231.82,314.91c1.5-2.36,5.29-2,5.17-5.73l1,1.87,1-.14c0,1.16,0,2.31.08,3.8l-1.34,1.71-1-2.27-3.08.47c.37,1.55.68,2.83,1,4.21a8.67,8.67,0,0,0-2-.05c-.58.12-1.11.43-1.09-.5C231.65,317.06,231.76,315.85,231.82,314.91Z"/><path class="cls-1" d="M190.13,226.19l-2.94,2.28-2.95-3.83c.48-2.64,2.75-3.94,4.85-5.71,0,.66.26,1.76,0,1.89-1.37.69-1.08,1.79-1,3l2,2.52Z"/><path class="cls-1" d="M432.65,312.12c1.53,1.64,2.58,2.77,3.89,4.16,0,.92-.09,2.08-.15,3.59-3.31-1.46-5-4.16-7.54-6.34Z"/><path class="cls-1" d="M171.28,245.51l.52-2.73L168,243.85l7.48-7.09.71.49c-1.1,2.25-2.2,4.5-3.35,6.83l1.45,3.14-.46.4Z"/><path class="cls-1" d="M217.44,313.83c1.34-.35,2.66-.76,4-1s2.71-.43,4.07-.64l3.52,2.29-2.94,2.9-2.25-3.84-5.94,2.4c-.12-.69-.24-1.44-.37-2.19Z"/><path class="cls-1" d="M418,169.77c3.7-1.12,6.28-.23,8,2.9l-1.71,1.22C418.71,172.74,418.71,172.74,418,169.77Z"/><path class="cls-1" d="M454.88,196.07l2.45-2.69a4.69,4.69,0,0,1,5.69,2.24l-3.53,2.53Z"/><path class="cls-1" d="M161.14,262.38l4.63-3.28c1.65,1.08,1,3,1.2,4.56a3,3,0,0,1-1.48,3.28c-2.06-.85-2-3.2-3.15-4.61l-1.32,0Z"/><path class="cls-1" d="M193.94,209c-.28,1.16-.57,2.33-.93,3.78l-4.61,2.52.1.08L187.43,213l3-4.41,3.57.4Z"/><path class="cls-1" d="M338.85,415.48c.35-3.79-2.2-6.62-3.83-10.66l3.76,1.54c-.1.85-.2,1.65-.31,2.56,1.21,2.46,3,4.89,2.64,8.41C340.34,416.71,339.78,416.24,338.85,415.48Z"/><path class="cls-1" d="M342.92,139.05l2.76,0c-.86,2.36-1.16,4.51,1.5,6.27L344,146.52l-2.29-1.79C342.1,142.89,342.48,141.12,342.92,139.05Z"/><path class="cls-1" d="M213.43,157.08l-.85.63c0,.8,0,1.71-.07,2.79l-3.54.25c-.53-1.62-1.06-3.26-1.72-5.31a9.75,9.75,0,0,1,2.24.1C210.87,156,212.21,156.6,213.43,157.08Z"/><path class="cls-1" d="M180.28,242.87a5.57,5.57,0,0,1-1.22.34,11.71,11.71,0,0,1-1.71-.16L176,241c.71-.89,1.36-1.73,2-2.58l2.91-.2C182.12,240,181.39,241.46,180.28,242.87Z"/><path class="cls-1" d="M479,418.22,474,410.73l-.7,1.6-.27-3.84c.5-.06,1.26-.37,1.47-.15a29.5,29.5,0,0,1,2.81,3.5A11.42,11.42,0,0,1,479,418.22Z"/><path class="cls-1" d="M444.38,224l-1.63,2.51-4.37-1.7,1.91-2.23c-.15-.37-.39-1-.69-1.72l.9-1.07,2.54,1.48c-.1.74-.18,1.37-.29,2.25Z"/><path class="cls-1" d="M216.55,313.77l.09,1.26c-1.56-1.09-1.56-1.09-1.79-3.06-.16-1.38-.34-2.75-.59-4.67l1-1.6-.72-2.09,2.57-.61c.23.4.38.55.35.63-.75,1.91.09,4.1-1.18,6-1,1.44-1.36,3,.42,4.29Z"/><path class="cls-1" d="M431.42,119.2a43.67,43.67,0,0,1-15.93,8.43l-.3-.23c.2-.2.35-.48.59-.59Q423.6,123,431.42,119.2Z"/><path class="cls-1" d="M458.58,373.81l1.39-.94,2.8,3.66.21,3c-.44.14-.89.46-1.18.35-1-.37-1.91-.88-2.87-1.35a12.31,12.31,0,0,0,.41-2.62A8.15,8.15,0,0,0,458.58,373.81Z"/><path class="cls-1" d="M468,231.84l4.62-.33,3.36,1.94-1.48,1.83C472.2,234.77,469.73,234.85,468,231.84Z"/><path class="cls-1" d="M329.28,371.49c-.42-1.18-.85-2.43-1.3-3.71,2.35-.71,1.92,2.2,3.57,2.36L332.9,369a4.19,4.19,0,0,1,1.67,4.39Z"/><path class="cls-1" d="M326.23,358.61l-1.65,1.28c-2.11-1.49-1.83-4-3.25-5.76.55-.92,1-1.68,1.84-3Z"/><path class="cls-1" d="M128.53,241.15l-5.45,4.4-1.78-3.4C123.4,238.92,125.66,241.1,128.53,241.15Z"/><path class="cls-1" d="M366.85,379.84c2.56,2.45,5.69,4.33,6.89,7.94l-3.47-.81C369.17,384.66,368,382.25,366.85,379.84Z"/><path class="cls-1" d="M199.27,292.5l-3.2,3.32c-1.21-1.64.81-4-.37-6C198.93,288.29,198,292.78,199.27,292.5Z"/><path class="cls-1" d="M293.34,386.86c-2.36-2.21-2.1-4.68-2-7.08,1.79-.79,2.16.48,2.61,1.44C294.76,383,295.31,384.89,293.34,386.86Z"/><path class="cls-1" d="M411.25,222.71q-.78-1.36-1.62-2.88c3.35-.31,5.52,1.94,8.3,3.74C415.54,224.19,413.53,224.35,411.25,222.71Z"/><path class="cls-1" d="M153.11,245.06l4-2.08,2.82,1.18L157,248c-2.5,0-1.6-2.32-2.83-3L153,245Z"/><path class="cls-1" d="M321.13,96.83a14.82,14.82,0,0,0,2.87.85,6.09,6.09,0,0,0,1.94-.57l.88,2-2.5-.61-1.72,3.87L320.3,99Z"/><path class="cls-1" d="M271.08,357.25l3.22-1.56a5.14,5.14,0,0,1-.43,5.95C271.73,361.09,270.66,359.84,271.08,357.25Z"/><path class="cls-1" d="M175,193c-.42,1.59-.81,3-1.22,4.59l-2.51-.09c-.61-2.19-.91-4,1.41-5.27Z"/><path class="cls-1" d="M138.82,203l.18,2.65-2.64,2.08L133.93,206l1.42-3Z"/><path class="cls-1" d="M306.93,369.4a7.58,7.58,0,0,1,4.11,6.36C308.16,375.76,307.06,374.16,306.93,369.4Z"/><path class="cls-1" d="M209.29,294.82l3.56-2.26,2.18,1.62a19.58,19.58,0,0,1-2.23,1,13.09,13.09,0,0,1-2,.38l.28,4.13-2.16-.75.48-4.26Z"/><path class="cls-1" d="M380.66,105.58l-1.77-2.65,1.07-.56c2.44-1.31,2.44-1.31,4.73.15C383.43,104.37,383.43,104.37,380.66,105.58Z"/><path class="cls-1" d="M199.15,170.55c-.07,1.51-.14,3-.23,4.84L197,173.22c.23-.41.57-1,.95-1.65-1-1.85-3.08-1.52-4.87-2.39,0-.75,0-1.62.08-3.24C194.8,168.87,197.45,169.12,199.15,170.55Z"/><path class="cls-1" d="M245.65,350.93l-2.63,3.4c-2.73-1-2.39-3.09-2.33-5.5l2.33.7-.12-.11,1.2.73,1.47.89Z"/><path class="cls-1" d="M245.86,476.53c-2.59-6.62-2.59-6.72-.41-8.54C246.7,471.56,246.77,472.43,245.86,476.53Z"/><path class="cls-1" d="M454.81,291.07l4.51,2.53c.09.63.19,1.26.27,1.84-.46.19-.78.44-.93.36-1.84-.92-3.64-1.9-5.81-3.05Z"/><path class="cls-1" d="M362.15,106.72c-.86,2.42-2.61,2-4.58,1.88,0-.75-.25-1.51,0-2a3.79,3.79,0,0,1,1.71-1.74C360.71,104.32,361.74,104.94,362.15,106.72Z"/><path class="cls-1" d="M423.42,178.16l-3.94.28c-.13-.9-.26-1.68-.4-2.58a7.4,7.4,0,0,1,5.16-.2C424,176.57,423.71,177.28,423.42,178.16Z"/><path class="cls-1" d="M292.67,547.33c-.65-1.64-1.3-3.29-2-5,.29-1.15.59-2.33,1.1-4.32C293.36,541.43,293.1,544.36,292.67,547.33Z"/><path class="cls-1" d="M190.9,263.62c-1.4,1.55-3.3.68-5.13,1,1.91-1.46,1.69-3.61,1.88-5.66h2.11l-1.29,3.78,2.55,1Z"/><path class="cls-1" d="M362.06,172c1.37-2,2.87-1.16,4.56-.17l.16,2.22C365.7,175.21,363.73,174.29,362.06,172Z"/><path class="cls-1" d="M341,136.9,339,138l-2.19-3,2.33-1.7C341.07,134,341.32,135.16,341,136.9Z"/><path class="cls-1" d="M429.39,279.7l2.54-.18,2.05,3.65c-1.68,1.14-2.57,0-3.52-.56S428.7,281.22,429.39,279.7Z"/><path class="cls-1" d="M126.27,257.38l-3.35.72c-.17-.65-.45-1.09-.35-1.41.47-1.58,1.3-2.81,3.46-2.7Z"/><path class="cls-1" d="M371.2,374.07l2.3-.34c1.81,2.1,1.81,2.1,2.3,4.62-.73-.14-1.56,0-1.87-.4A38.5,38.5,0,0,1,371.2,374.07Z"/><path class="cls-1" d="M152.07,255.94l1.88,2.63c-.71.89-1.43,1.79-2.38,3l-1.92-2.46Z"/><path class="cls-1" d="M203.56,175.1l-2.2-2.43c.5-1.16.9-2.11,1.35-3.16.26.15.72.24.87.51.67,1.23,1.26,2.51,2,4l-2.09,1Z"/><path class="cls-1" d="M218.86,115.19c0,.69,0,1.38-.07,2.37l-3.57-.77-1-2.47,1.59-.95,3.19,1.92Z"/><path class="cls-1" d="M279.28,397.83c2.09,2,.42,3.74.56,5.38a16.11,16.11,0,0,1-.18,5.16,9.91,9.91,0,0,1-1-3C278.68,403,279,400.71,279.28,397.83Z"/><path class="cls-1" d="M260.63,375.09c-1.87.55-3.36.8-4.81-.93a4.68,4.68,0,0,0,1.4-.68,10.59,10.59,0,0,0,1.15-1.75l2.08.82Z"/><path class="cls-1" d="M435.19,182.06l-.29-1.39c2.37-1.17,4.24.19,7.14.94-1.34.79-2,1.47-2.52,1.43A32.36,32.36,0,0,1,435.19,182.06Z"/><path class="cls-1" d="M358.17,454.36l-1.91-.93c-.46-1.52-1-3.17-1.51-5C357.53,449.3,357.94,450,358.17,454.36Z"/><path class="cls-1" d="M484.14,352.17c-3.51,0-3.91-2.55-5.44-4.21,2.95-.46,2.95-.46,5.32,1.36l-1.75.87Z"/><path class="cls-1" d="M434,250.16c-.58,1.43-1.08,2.65-1.7,4.16l-2.93-1.22,1-2.52Z"/><path class="cls-1" d="M201.66,269.68c-1.91.29-2.13-1.72-3.8-2.16l5.14-3.1c-.58,2.18-1,3.78-1.42,5.37Z"/><path class="cls-1" d="M149.75,308.26c-1.57,3.83-4.63,6.48-7.52,9.29,1.56-2.89,4.06-5.09,5.83-7.81.5-.76.82-1.41,1.81-1.39Z"/><path class="cls-1" d="M50.13,298.59c3.76.17,4.44,2.16,5.11,4.25l-1.08,1C52.54,302.63,51.72,300.93,50.13,298.59Z"/><path class="cls-1" d="M192.38,177.42l-3.64-.11c-.7-.44-.35-1.92,1.13-3.64C191.22,174.35,192.53,175,192.38,177.42Z"/><path class="cls-1" d="M238.55,465.67c.1,2.2,1.73,4.23-.12,6.43-1.87-1-1.31-2.68-1.48-4.1C236.87,467.26,237,467.25,238.55,465.67Z"/><path class="cls-1" d="M417.35,142.84c-3,.3-4.9,1-6.21-1.45l3.29-1.27Z"/><path class="cls-1" d="M212.68,335.87c-1.68-2.33-1.9-4.55-.22-7.31.46,1.19,1.06,2,1,2.8A32.07,32.07,0,0,1,212.68,335.87Z"/><path class="cls-1" d="M467.61,250.24c-.24.76-.47,1.53-.72,2.35-1.52-.68-3.33-.11-4.25-2.2l1.15-1.55,3.93,1.5Z"/><path class="cls-1" d="M285.83,385l1.48,3.47-.93,2.91c-.47-.25-1-.35-1.08-.59a11.67,11.67,0,0,1-.36-5.68Z"/><path class="cls-1" d="M205.56,97.9l1.65.77.18,2.51c-.56.11-1,.36-1.32.24-1.24-.49-2.44-1.09-3.63-1.64Z"/><path class="cls-1" d="M180.29,219.35,179,216.61l2.59-1.83,1.53,2c-.33.77-.61,1.4-.9,2.07l-2.06.37Z"/><path class="cls-1" d="M282.45,133.73l-2.39.74-2.36-2.75c1.43-2.27,3.22.27,4.81-.31l-.17,2.45Z"/><path class="cls-1" d="M227.28,284.07c-1.19,2.72-1.19,2.72-3.62,3.46l-.26-3.71,4,.35Z"/><path class="cls-1" d="M217.08,358l1,1.72-3.39,2.74c-1.3-2,.47-3.2.84-4.7l1.64.35Z"/><path class="cls-1" d="M404.1,198.84l1.47,2.63-3.87.54c-.15-1-.29-1.89-.46-3Z"/><path class="cls-1" d="M225.64,417.9c-.13-.06-.35-.08-.38-.17a25.44,25.44,0,0,1,.28-9.94c.45,3.72,1.17,6.95,0,10.22Z"/><path class="cls-1" d="M401.59,365.59c.59,1.56-.46,3.16.5,4.84-2.65.28-2.64-1.8-3.53-2.65.33-2.21,2.22-1.33,3.15-2.1Z"/><path class="cls-1" d="M464.93,322.24c3.47-.29,4.28,1.88,5.77,4.17C468.24,325.47,466.38,324.71,464.93,322.24Z"/><path class="cls-1" d="M144.16,270.89c.47-2-.07-3.66,1.93-4.76l1.28.78C147.15,268.63,146.88,270.19,144.16,270.89Z"/><path class="cls-1" d="M351.33,134.59l-3.15,2.29-1.54-1.22C346.5,133.63,348.43,133.2,351.33,134.59Z"/><path class="cls-1" d="M164.44,275.11a1.86,1.86,0,0,1,1.71,2.38c-.27,1.27-1.23,1.7-2.56,1.38C162.83,277.35,162.74,276,164.44,275.11Z"/><path class="cls-1" d="M445.63,276.55c.09-.39.17-.79.41-1.93.8,1.61,1.33,2.69,2,4.06-1.86.24-3.61.94-4.88-1.5l2.51-.7.29.31Z"/><path class="cls-1" d="M121.1,267.24c.08.59.14,1,.2,1.42l-3.16,2.68c-.15-1-.56-1.87-.29-2.36C118.43,267.92,119.19,266.78,121.1,267.24Z"/><path class="cls-1" d="M284.11,349.58c0,1.34-.1,2.69-.06,4a21.59,21.59,0,0,1-.07,4.54c-.48-1.52-1-3-1.53-4.82.27-1.08.6-2.4.92-3.71Z"/><path class="cls-1" d="M420.72,246.08c.34,0,.65-.1.88,0a6.14,6.14,0,0,1,1,.7c-.27,1-.53,1.92-.86,3.16l-2.58-.71Z"/><path class="cls-1" d="M193.05,195.54c.48-2.35.83-4.09,1.21-6l2,.77C195.72,192.13,195.54,194.07,193.05,195.54Z"/><path class="cls-1" d="M173.84,296.54l2.79.57c-.15.37-.19.68-.32.73-1.29.48-.2,3.19-2.68,2.65A3.13,3.13,0,0,1,173.84,296.54Z"/><path class="cls-1" d="M426.81,217.07l-4.45-1.79a3.37,3.37,0,0,1,4.38-.68c.47.26.55,1.24.81,1.89Z"/><path class="cls-1" d="M136.28,276.57c-.9-3-.88-3,1.85-3.86C138.72,274.77,138.72,274.77,136.28,276.57Z"/><path class="cls-1" d="M242,133.12c-3.18-.2-4.21-1.48-4.84-3.49l1.76-1.59a14.46,14.46,0,0,0,.77,3C240,131.67,240.73,132.05,242,133.12Z"/><path class="cls-1" d="M386.21,120.66c2-2,2-2,4-.61C389.06,122.44,389,122.46,386.21,120.66Z"/><path class="cls-1" d="M331.91,96.22l-2.36,3.26-1.71-2.29,1.71-2.73Z"/><path class="cls-1" d="M479.09,390.08l1.26-2.21c1.7,1.06,2.21,3,2.69,5.11l-3.83-3Z"/><path class="cls-1" d="M170.76,224.55l1.37,2.2-3.53,2.58C167.34,226.94,170.73,226.54,170.76,224.55Z"/><path class="cls-1" d="M260,417.34a10.57,10.57,0,0,1,1.24,8l-.78-4.43L259,420C259.2,419.4,259.43,418.78,260,417.34Z"/><path class="cls-1" d="M383.11,115.71l2-1.94,2.57,1.35-2.35,2.06Z"/><path class="cls-1" d="M174.45,517.05c.33-2,.66-3.92,1.06-6.27C176.82,513,176.71,514.06,174.45,517.05Z"/><path class="cls-1" d="M443.43,332.86l-4.18-5C442.57,328.68,442.72,328.82,443.43,332.86Z"/><path class="cls-1" d="M327.83,118.37l-2.24,2.43L323.68,118C325.45,117.09,326.71,116.83,327.83,118.37Z"/><path class="cls-1" d="M379.15,144.52l.12,1.7-3.35.24c-.26-.8-.5-1.54-.82-2.5Z"/><path class="cls-1" d="M192.84,274.27l-3.05-2.84,1.39-1.69C193.37,270.4,193.25,271.91,192.84,274.27Z"/><path class="cls-1" d="M249.48,527l-.58-8.22.69-.22c.29.45.81.87.85,1.34a16.62,16.62,0,0,1-1.09,7Z"/><path class="cls-1" d="M186.13,188.42l3.05-3.25c.82,1.88.87,3.11-.39,4.52Z"/><path class="cls-1" d="M184.78,293.33c.4.88.8,1.74,1.22,2.65l-2.24,1.39a4.61,4.61,0,0,1-.49-3.93Z"/><path class="cls-1" d="M188.4,153.39l-2,1.31c-1.37-.75-1.63-1.81-1-3.39l1.84-.54C187.66,151.65,188,152.36,188.4,153.39Z"/><path class="cls-1" d="M166.51,292.88l-2-1.22,3.08-.65c1.05,1.65.69,3-.4,4.73Z"/><path class="cls-1" d="M369.37,167.12l3.51,2.77-2.29,1.7C369,170.61,369.38,169.34,369.37,167.12Z"/><path class="cls-1" d="M356,52.23l2.28-2.09,1.88,1.48C359,53.52,357.92,54,356,52.23Z"/><path class="cls-1" d="M167.92,152.68l-3.77.26.62-3,1-.14C166.46,150.74,167.17,151.68,167.92,152.68Z"/><path class="cls-1" d="M425.55,154.64l4.48-.07c.2,1.53-.6,2.17-1.91,2a12.08,12.08,0,0,1-2.63-1Z"/><path class="cls-1" d="M355.15,142.32l2.71,1.94c-1.49,1.79-2.68,1.56-4.06-.13Z"/><path class="cls-1" d="M330.15,71.33c-.28-2.28.59-3.07,2.48-3C332.9,70.85,332.9,70.85,330.15,71.33Z"/><path class="cls-1" d="M361.72,169.18,359,167.71l1.17-1.77,2.48,1C362.33,167.6,362.07,168.28,361.72,169.18Z"/><path class="cls-1" d="M220.62,295l1.92,2.89-3.3.23C219,296.76,218.67,295.59,220.62,295Z"/><path class="cls-1" d="M226.81,79.76l-3.08-1.06,2-2.55,1.86,2.69Z"/><path class="cls-1" d="M265.41,121.4c-.35-1.17-.71-2.34-1.11-3.68l1.75-.62a5.88,5.88,0,0,0,.28,2c.28.52.91.84,1.82,1.62l-2.87.59Z"/><path class="cls-1" d="M391.71,163.27c2.58-1.26,3.61.49,5.11,1.51L395.31,166Z"/><path class="cls-1" d="M466.48,338.54c.26,1.35.45,2.35.76,4l-4.13-3.78Z"/><path class="cls-1" d="M189.89,345l1.34.31q.66-1.11,1.35-2.22l.59.22c-.35,1.46-.69,2.93-1.24,5.24Z"/><path class="cls-1" d="M167.09,201.53l.11-1,4.58-.53c-.31.87-.62,1.77-1,2.91L169,201.27l-2.05.15Z"/><path class="cls-1" d="M455.51,180.81l3.4,1.4c-2.16,1.29-2.16,1.29-4.09.53Z"/><path class="cls-1" d="M456.59,330.42c1,1.41,2,2.81,3.32,4.6C456.64,334.81,456.51,332.6,456.59,330.42Z"/><path class="cls-1" d="M255.22,513.27c1,2.8,1,2.8-.19,5.37C254.81,516.72,254.39,515,255.22,513.27Z"/><path class="cls-1" d="M363,380.16a4.86,4.86,0,0,1,2.46,4.58C363.5,383.46,363.5,383.46,363,380.16Z"/><path class="cls-1" d="M376.29,100.41c-1.67,2.25-1.67,2.25-3.8,1.21C373.16,100,374.49,100.17,376.29,100.41Z"/><path class="cls-1" d="M400.56,432l2.25-4.34,1.64,3Z"/><path class="cls-1" d="M331.65,501.94a5.9,5.9,0,0,1-3.31-5.08C330.39,498.36,330.76,500.34,331.65,501.94Z"/><path class="cls-1" d="M422.46,45c-.17,2.8-.17,2.8-3.37,3.13C419.42,46.41,420.9,46,422.46,45Z"/><path class="cls-1" d="M469.38,212.73c.05-.41.1-.83.15-1.29,1.58-.71,2.94-.77,3.92,1.13-1.41,1.49-2.85-.45-4.2.06Z"/><path class="cls-1" d="M301.87,369.08l-1.8-4.27c1.68.94,2.93,2.07,2.74,3.94Z"/><path class="cls-1" d="M164.17,388.62c0-1.95-1.09-4,.49-6.11C165.94,384.83,164.6,386.7,164.17,388.62Z"/><path class="cls-1" d="M132.23,287.21l1.65,1.32c-.42,1.61-1.15,2.36-3.12,1.89C131.25,289.35,131.69,288.4,132.23,287.21Z"/><path class="cls-1" d="M239.63,335.72c-.17-1.33-.34-2.67-.53-4.19l2.2-.63c-.28,1.82-.52,3.32-.75,4.81Z"/><path class="cls-1" d="M181.15,274.35c-.66,2-1,3.18-1.63,5a9.56,9.56,0,0,1-1.1-2.38C178.35,276.06,178.48,276.06,181.15,274.35Z"/><path class="cls-1" d="M196.93,283a3.21,3.21,0,0,1-.24,4l-1.33-.94C195.21,284.62,195.5,283.57,196.93,283Z"/><path class="cls-1" d="M483.07,440.13c.13.56.27,1.16.46,2l-3.09.22C480.65,440.69,481.31,439.93,483.07,440.13Z"/><path class="cls-1" d="M267.13,500.86c-1.87-1.53-1.84-3.26-1.72-5.4C267.5,496.94,266.63,498.92,267.13,500.86Z"/><path class="cls-1" d="M342.66,124.51l2.65,0c.33,2.17-.89,2.27-2.49,2.21Z"/><path class="cls-1" d="M425.94,448.18c.22.65.49,1.39.87,2.49l-2.85-1-.17-2.3Z"/><path class="cls-1" d="M182.11,227.21l-1.69-2.54,2.16-1.13C183.15,225,183.54,226.29,182.11,227.21Z"/><path class="cls-1" d="M99,220.14l3.73,3.45c-1.44-.19-2.1-.08-2.41-.36a24.08,24.08,0,0,1-2-2.34Z"/><path class="cls-1" d="M405.18,403.37c2.23,1.05,2.23,3,1.93,5Q406.14,405.89,405.18,403.37Z"/><path class="cls-1" d="M198.14,257.26l2.45.12c0,1.85-1.46,2.22-3,3.12.26-1.33.46-2.34.65-3.35Z"/><path class="cls-1" d="M151,271l1.22,1.14c-.36.9-.73,1.83-1.3,3.22C149.68,273.52,149.82,272.37,151,271Z"/><path class="cls-1" d="M188.05,295.49l1.34.83-.82,3.57c-1.43-1.48-.86-2.84-1.26-3.95Z"/><path class="cls-1" d="M270,398.36l.32,4.71C268.45,401.3,268.8,399.87,270,398.36Z"/><path class="cls-1" d="M368.76,138.53c-1.62,1.35-2.69,1.53-4.17-.05l2.21-.67Z"/><path class="cls-1" d="M451.45,150a8.31,8.31,0,0,1,1.6.62,10.05,10.05,0,0,1,1,1.15l-2.12,2.19C451.72,152.27,451.61,151.36,451.45,150Z"/><path class="cls-1" d="M313.8,391.94c-.49-1.6-1-3.21-1.47-4.79C313.47,388.17,313.47,388.17,313.8,391.94Z"/><path class="cls-1" d="M305.92,126.73c-.29,2.45-1.72,1.84-3.07,2,.29-.8.54-1.46.83-2.26Z"/><path class="cls-1" d="M264.62,367.06l2.72.89-1.6,2.11C264.81,369.11,263.9,368.51,264.62,367.06Z"/><path class="cls-1" d="M110.55,210.7l1.59,1.94c-.92,1.51-2.15,1.24-3.62,1C109.15,212.73,109.68,212,110.55,210.7Z"/><path class="cls-1" d="M406.82,197.4c1.48-.09,2.79.07,2.59,2.13C407.7,199.77,407.14,198.74,406.82,197.4Z"/><path class="cls-1" d="M128.19,208.14c2.09-.73,3.44-.88,4.41,1.27C131,209.58,129.93,209.1,128.19,208.14Z"/><path class="cls-1" d="M237.79,98c1.25,2,2,3.11,3,4.66C238.75,101.88,237.41,101.12,237.79,98Z"/><path class="cls-1" d="M414.78,345.94c-2,.54-2.59-1.06-3.81-2.58,2.13.23,3.54.61,3.77,2.62Z"/><path class="cls-1" d="M113,186.53l-2.15-2,4.33-.78Z"/><path class="cls-1" d="M320.09,101.52a6.7,6.7,0,0,1-.45,1.4,12,12,0,0,1-1,1.12L316.45,102Z"/><path class="cls-1" d="M129.74,257.55c-.46-1.22-.91-2.4-1.57-4.16C131,255.86,131,255.86,129.74,257.55Z"/><path class="cls-1" d="M230,381.82l-2.18,1.74c-.13-.92-.23-1.67-.35-2.6l1.21-.16c.18-.3.38-.66.78-1.37l.44,2.5Z"/><path class="cls-1" d="M332,113.69c-1.13-2.16-.58-3.06.88-3.76.22.38.51.67.45.82C333,111.58,332.58,112.38,332,113.69Z"/><path class="cls-1" d="M225.49,131l-1.38,1.36c-1.26-.45-1.7-1.2-1.05-2.76Z"/><path class="cls-1" d="M359.35,382.17c-.13.51-.26,1-.39,1.55-1.91,0-2-1.49-2.75-3l3.21,1.51Z"/><path class="cls-1" d="M336.91,122.64l-1.51-1.28c.82-1.56,1.72-1.7,3.2-1Z"/><path class="cls-1" d="M324.55,364.78l2.24,4.4C324.44,368.44,324.23,367.15,324.55,364.78Z"/><path class="cls-1" d="M451.3,332.28c-2.26-.11-2.21-2-3.26-4.23,2.25,1.42,3,2.7,3.17,4.34Z"/><path class="cls-1" d="M271.73,442.74l-1.67-1.31c.28-.83.5-1.47.84-2.45.55,1.21,1,2.17,1.44,3.14Z"/><path class="cls-1" d="M94.41,237c-2.44.38-2.53-1.28-3.61-2.56A3.63,3.63,0,0,1,94.41,237Z"/><path class="cls-1" d="M311.21,139.31l-1.49-.45-.16-2.33C310.6,136.07,311.22,137,311.21,139.31Z"/><path class="cls-1" d="M337.43,143.33l-1.13.08c-.14-.51-.27-1-.46-1.77l2.77-.59Z"/><path class="cls-1" d="M172,177l-3.18.22,1.06-2.68Z"/><path class="cls-1" d="M164,183.5l-1.53,1.34-1.87-1.71C161.88,182.08,162.77,182.18,164,183.5Z"/><path class="cls-1" d="M183.09,235.3c-.22-.47-.44-.94-.71-1.54.34-.58.73-1.21,1.58-2.61.29,1.7.42,2.51.59,3.5l-1.57.56Z"/><path class="cls-1" d="M260.42,544l-1.7,2.9-2.23-1.52C257.8,544.94,258.68,544.62,260.42,544Z"/><path class="cls-1" d="M274.13,437.54l-.28-4C275.33,435.73,275.33,435.73,274.13,437.54Z"/><path class="cls-1" d="M421.12,402.82l-2.79-4.06C420.7,399.42,420.7,399.42,421.12,402.82Z"/><path class="cls-1" d="M313.31,396.78l1.6,4.67C312.28,400.15,313.32,398.31,313.31,396.78Z"/><path class="cls-1" d="M284.31,498.94l-3-1.29C283.27,496.92,283.27,496.92,284.31,498.94Z"/><path class="cls-1" d="M46.87,215.27l2.4-.17c.11.48.35.91.24,1.22a7.54,7.54,0,0,1-1.14,1.58C47.84,217,47.48,216.33,46.87,215.27Z"/><path class="cls-1" d="M392.67,187.46l-.66-1.29a2.37,2.37,0,0,1,.83-.33c.91,0,1.83,0,3.32.1-1.23,1.59-2.59,1.08-3.63,1.41Z"/><path class="cls-1" d="M264.91,459.05c0,2.68,1,4.54-1.1,6.74C264.2,463.4,264.47,461.69,264.91,459.05Z"/><path class="cls-1" d="M233.82,144.91c-.08-1.17-.16-2.35-.23-3.52l-.11.12a3.87,3.87,0,0,0,3.55.61l-.09-.1c-1.05,1-1.57,2.54-3.23,2.79Z"/><path class="cls-1" d="M328.93,416.43l-.59-3.93C329.68,413.89,330.43,414.9,328.93,416.43Z"/><path class="cls-1" d="M382.18,407.38c.43,1.09.85,2.17,1.55,4C381.79,410.1,381.29,409,382.18,407.38Z"/><path class="cls-1" d="M401.91,351.5c1.23.92,2.11,2,1.46,3.69Z"/><path class="cls-1" d="M175,276c0-1.37,0-2.32,0-3.38.66.2,1.09.22,1.13.36C176.43,274,176.7,275.05,175,276Z"/><path class="cls-1" d="M367.52,132.9l-1.93.88a1.76,1.76,0,0,1,.47-2.85l1.37,2.09Z"/><path class="cls-1" d="M234.75,301.41c.33-1,.45-1.37.69-2.1l2.25.85c0,.22,0,.44-.05.66Z"/><path class="cls-1" d="M165.17,123.89c1-.69,1.43-1,2-1.39l2.39,2.29Z"/><path class="cls-1" d="M218.25,301l3.79-1.06.27.61-3.08,1.87-.88-1.54Z"/><path class="cls-1" d="M423.51,336.79c-1.28.45-2.56,1-3.92.31,1.24-.77,2.48-1.49,3.85-.22Z"/><path class="cls-1" d="M199.94,264.36l-2-.85c0-.53,0-1.13,0-2.56l2.29,2.86C200.18,264,200.06,264.17,199.94,264.36Z"/><path class="cls-1" d="M71.12,218.09l3.4,2.83C72.8,221.08,71.84,220.39,71.12,218.09Z"/><path class="cls-1" d="M349.36,122l-2.78.07a1.86,1.86,0,0,1,2.72-1Z"/><path class="cls-1" d="M291.76,369.34c.16,1.16.32,2.32.55,4-1.41-1.4-2-2.48-1.51-3.83Z"/><path class="cls-1" d="M100.75,219.07l3-1.1C103.47,219.41,103.09,220.6,100.75,219.07Z"/><path class="cls-1" d="M294.2,431.4c1.68,1,1.39,2.2,1.22,3.47C293.91,434.17,294,432.94,294.2,431.4Z"/><path class="cls-1" d="M430.72,358.29c1.9,1.19,3,1.95,3,4.1C432.12,361.48,431.57,360.3,430.72,358.29Z"/><path class="cls-1" d="M388.6,181.31l-4,.58c.61-.46.75-.64.91-.67C386.45,181.07,387.37,179.2,388.6,181.31Z"/><path class="cls-1" d="M188.05,190.55l3.31.86-3.59,1.6Z"/><path class="cls-1" d="M447.42,386c1,1.76,1.62,2.88,2.33,4.16H447.9C447.76,389,447.63,387.82,447.42,386Z"/><path class="cls-1" d="M76,299.89c2-.57,2.6.3,2.52,2.31Z"/><path class="cls-1" d="M269.58,65.49l-1.38-1.28,1-1.77,1.53,1.43Z"/><path class="cls-1" d="M414.74,346c1.16.78,2.77,1,3.6,2.94-2.31-.15-3.27-1.17-3.56-3Z"/><path class="cls-1" d="M329.25,107.6l2.59.15-2.08,2.69C329.54,109.21,329.44,108.64,329.25,107.6Z"/><path class="cls-1" d="M326.48,84l-1.87,2-.47-2.59,2-.24Z"/><path class="cls-1" d="M335.54,150.56l.81-1.49,4,1-2.34,1.1.13.1c-.56-1.52-1.73-.83-2.73-.75Z"/><path class="cls-1" d="M164.25,308.32l-1.17,1.27c-1.45-.86-1.43-1.7-.15-2.77Z"/><path class="cls-1" d="M271.88,385.82l1.46.3c0,.88.05,1.79.09,3.52a5,5,0,0,1-1.45-3.95Z"/><path class="cls-1" d="M192.69,278.77l-1.92.13c.19-1,.37-2,.54-2.88l.6-.08C192.16,276.83,192.4,277.72,192.69,278.77Z"/><path class="cls-1" d="M375.74,382.06l1.7,3a2.49,2.49,0,0,1-2.46-2.51Z"/><path class="cls-1" d="M235.62,454.65c0,1.36,0,2.32.07,3.85C234.48,456.41,234.48,456.41,235.62,454.65Z"/><path class="cls-1" d="M389.78,175.4l-2.78-.19v-.65l2.73-.19Z"/><path class="cls-1" d="M236.37,103.24c1.42.86,1.42,1.72.19,2.75Z"/><path class="cls-1" d="M204.85,127.66c1.76,1.88,1,2.66.07,3.8C204.89,130.22,204.88,129.34,204.85,127.66Z"/><path class="cls-1" d="M353.63,110.86,355.2,113l-2.74.43C352.91,112.42,353.15,111.89,353.63,110.86Z"/><path class="cls-1" d="M260.55,129.33h-3.34c.52-1,.82-1.53,1.23-2.31Z"/><path class="cls-1" d="M213.18,70.46c-.28.8-.55,1.6-1,2.8L210.61,71l2.67-.48Z"/><path class="cls-1" d="M286.55,472.59c1.49.84,1.95,1.67,1,3.67C287.11,474.69,286.87,473.79,286.55,472.59Z"/><path class="cls-1" d="M445.73,269.64c1.23-1.43,2.22-.07,3.8.37-1.54.11-2.59.19-3.64.23A3.21,3.21,0,0,1,445.73,269.64Z"/><path class="cls-1" d="M341.87,471.18c0-1.8,0-2.94.07-4.54C343.93,468.26,342.52,469.38,341.87,471.18Z"/><path class="cls-1" d="M412.89,161.32l3.25,1.53-2.63.89-.55-2.5Z"/><path class="cls-1" d="M230.82,472.63c-1.09-1.29-.71-2.47-.13-4.23C232.19,470.32,230.48,471.4,230.82,472.63Z"/><path class="cls-1" d="M222.46,291.79c.58-1,.81-1.47,1.23-2.23l1.86,2.27Z"/><path class="cls-1" d="M324.77,364.14l-2.42-2C324.3,361.4,324.8,362.52,324.77,364.14Z"/><path class="cls-1" d="M410.31,428.93a10.13,10.13,0,0,1,2.14.88c.72.51.58,1.11-.28,1.45l.1.09c-.39-.86-.7-.63-1,.07l.08-.11c-1.17-.49-1-1.52-1-2.48Z"/><path class="cls-1" d="M381.64,15.75l2.25,1.51-1.69,1.59C382,17.77,381.88,17.1,381.64,15.75Z"/><path class="cls-1" d="M249.35,526.94c.16,1.06,1.73,1.94.27,3.31-.9-1.08-1.39-2.07-.14-3.22Z"/><path class="cls-1" d="M200.69,164l.53-3.86C202.75,161.65,201.44,162.83,200.69,164Z"/><path class="cls-1" d="M246,132.27l-.37-2.88,2.36,1.24Z"/><path class="cls-1" d="M219.28,88.79l1.35,1.31-2.35,1.47c0-1.14,0-1.76.05-2.39Z"/><path class="cls-1" d="M365.85,150.83c.17,1.08.24,1.47.37,2.33l-2.69-1Z"/><path class="cls-1" d="M459.45,94.32c-.5,1.06-.78,1.65-1.28,2.73l-1.32-2.35Z"/><path class="cls-1" d="M141.78,259.7c1.3.92,1.41,1.79-.11,2.88C141.71,261.42,141.74,260.56,141.78,259.7Z"/><path class="cls-1" d="M263.2,116.53c-.9-.87-1.2-1.16-1.62-1.55.22-.73.46-1.5.69-2.27h.44C262.85,113.77,263,114.83,263.2,116.53Z"/><path class="cls-1" d="M232.25,117.91c-.17-1.07-.26-1.67-.44-2.79,1,.48,1.57.75,2.34,1.13Z"/><path class="cls-1" d="M355.67,79.93l-1.55-1.85,3-.21Z"/><path class="cls-1" d="M436.2,284.9l2.57,1.62c-.6.3-.92.57-1,.5-.69-.41-1.34-.89-2-1.36a.36.36,0,0,1-.11-.33C435.68,285.22,435.84,285.16,436.2,284.9Z"/><path class="cls-1" d="M262.53,129.92l1-2.94h.65C263.42,127.71,264.86,129.42,262.53,129.92Z"/><path class="cls-1" d="M319,504l1.69,4.44C318.51,507.29,318.72,506,319,504Z"/><path class="cls-1" d="M454.1,312.63,450,311C452.31,310.14,452.87,311.28,454.1,312.63Z"/><path class="cls-1" d="M362.63,163.21l2.4,1-1.63,1.17c-.5-.55-.92-1-1.35-1.48Z"/><path class="cls-1" d="M86,383.86,89.43,387C88,386.82,86.65,386.44,86,383.86Z"/><path class="cls-1" d="M163.9,220.28l-3.26,0,1.12-2.62Z"/><path class="cls-1" d="M389.82,419.88l-1.18-2.06C390.59,417.58,390.87,418.37,389.82,419.88Z"/><path class="cls-1" d="M189,150.06c.11-.73.19-1.24.38-2.4l2.12,2.65Z"/><path class="cls-1" d="M370.49,394.23l1.22-2.59c.47,1,.86,1.76,1.31,2.69l-2.64-.19Z"/><path class="cls-1" d="M227.27,324.93l-1.49,0c.52-1.07,1-2.1,1.53-3.12l.48.11C227.62,322.9,227.45,323.92,227.27,324.93Z"/><path class="cls-1" d="M195.44,383.31,194,381.18l3.05-.05C196.3,382.15,195.93,382.64,195.44,383.31Z"/><path class="cls-1" d="M143.73,325.27l.5,2.43-2.51.87C142.54,327.24,143,326.53,143.73,325.27Z"/><path class="cls-1" d="M344.24,147.74l1.38,1.08-2.83,1.11-.25-.47Z"/><path class="cls-1" d="M395.12,84.74l-1.29-1.37L395,81.92C396.89,83,395.37,83.75,395.12,84.74Z"/><path class="cls-1" d="M225.71,131.77l2-1.94c.38.76.63,1.28,1.13,2.27Z"/><path class="cls-1" d="M426.25,72.64l-1.87-1.09,2.69-2.32C426.74,70.59,426.52,71.52,426.25,72.64Z"/><path class="cls-1" d="M347,529.36c-.13-1-.23-1.81-.34-2.72C348.05,527.69,348.05,527.69,347,529.36Z"/><path class="cls-1" d="M158.78,162.5H157c0-.22,0-.45-.05-.67l1.78-.32C158.73,161.84,158.76,162.17,158.78,162.5Z"/><path class="cls-1" d="M205.35,161.32l.09-2.65C206.54,160.13,206.54,160.13,205.35,161.32Z"/><path class="cls-1" d="M253.46,112.16l-1,1.35-1.32-1.34.3-.57Z"/><path class="cls-1" d="M232,123.23l-1.89.36-.22-.71,1.87-.65Z"/><path class="cls-1" d="M143.08,320.74,146,318.2c.14,2.55-1.8,2.06-3.07,2.42Z"/><path class="cls-1" d="M464.89,297.2l-1.52-1.76.53-.49a9.27,9.27,0,0,1,1,1,4,4,0,0,1,.41,1Z"/><path class="cls-1" d="M427,48.37l3.09-1.68C429.16,48.2,429.16,48.2,427,48.37Z"/><path class="cls-1" d="M218.13,349.93l.28,4.06-.43,0-.28-4Z"/><path class="cls-1" d="M409,481.73a6.51,6.51,0,0,1-1.49-1.25,4.52,4.52,0,0,1-.27-1.71c1.71.61,1.48,2,1.67,3.06Z"/><path class="cls-1" d="M250.23,513.35l-.38-5.45c1.08,3.28,1.08,3.28.25,5.36Z"/><path class="cls-1" d="M469.44,278.44l.35,2.38-2.59-2Z"/><path class="cls-1" d="M250.79,506l-.28-4,.23,0L251,506Z"/><path class="cls-1" d="M416.15,41.77l-2.42,1-.26-.54L415.68,41Z"/><path class="cls-1" d="M263,110c.06-.94.11-1.87.17-2.8l.71.07c-.1.92-.19,1.85-.28,2.77Z"/><path class="cls-1" d="M252.4,118.05c-.33-.57-.65-1.15-1-1.73l-.09.11,2.25.07.34,1.8-1.64-.35Z"/><path class="cls-1" d="M315.24,104.82l-2.63,0C314.06,103.58,314.06,103.58,315.24,104.82Z"/><path class="cls-1" d="M142.25,273.89l-1.1,1.61-1.1-1,1.51-1.33Z"/><path class="cls-1" d="M220.3,437.45c-.48-1.15-.76-1.81-1.2-2.88C221,435,221,435.75,220.3,437.45Z"/><path class="cls-1" d="M457.64,246.33c2-.48,2.54.21,3.09,1.85Z"/><path class="cls-1" d="M314.44,421.14c2.17.49,1.33,1.81,1.36,2.76C315.41,423.12,315,422.34,314.44,421.14Z"/><path class="cls-1" d="M194.75,263.93l-1.38-2.08,3.23,1Z"/><path class="cls-1" d="M357.83,129.09l-2.63,0C356.67,128,356.67,128,357.83,129.09Z"/><path class="cls-1" d="M142,233.79l1.72-1.64.59.54-1.62,1.81Z"/><path class="cls-1" d="M429.09,244c1.83-.59,2.47-.14,2.23,1.78Z"/><path class="cls-1" d="M314.18,130.87c-.7,1.59-1.48,1.81-2.9.43Z"/><path class="cls-1" d="M330,374.93l1.64,1.72-.51.54-1.75-1.62Z"/><path class="cls-1" d="M205.88,134.51c0-.62,0-1.23,0-2C207.2,133.27,207.2,133.27,205.88,134.51Z"/><path class="cls-1" d="M370.08,380.32l-1.71-3.15.42-.4c.38.37.88.67,1.09,1.12A9.81,9.81,0,0,1,370.08,380.32Z"/><path class="cls-1" d="M449.56,217l1.87-.13.13.62-1.92.47Z"/><path class="cls-1" d="M330.23,384.89l-.18-2.51C331.13,383.89,331.13,383.89,330.23,384.89Z"/><path class="cls-1" d="M463.54,218.56l-2.5.53-.11-.35,2.25-1.18Z"/><path class="cls-1" d="M428.32,222.46l-.17-2.39,2.79,1.07-2.74,1.19Z"/><path class="cls-1" d="M256.61,88.18l.13,2-.62.15c-.18-.66-.37-1.31-.56-2Z"/><path class="cls-1" d="M318.85,400.62l1.07,2.58-.7.28c-.35-.86-.7-1.71-1.06-2.57Z"/><path class="cls-1" d="M198.57,138.63c.85-1.33,1.61-1.89,3.13-.49Z"/><path class="cls-1" d="M468.16,221.7,467,222.89c-.44-.54-.87-1-1.3-1.56l.38-.54Z"/><path class="cls-1" d="M328.34,393.72l-1.56-3.34C328.8,391,328.45,392.07,328.34,393.72Z"/><path class="cls-1" d="M463.69,229.22c-.79-.37-1.59-.74-2.44-1.12.34-.45.5-.66.85-1.1l2.11,1.67Z"/><path class="cls-1" d="M284.79,129.75l2.15-.15C286.06,131,286.06,131,284.79,129.75Z"/><path class="cls-1" d="M367.52,86.14l2.11-2.62c.17.74.27,1.18.42,1.88Z"/><path class="cls-1" d="M316.72,396.53c.4.78.79,1.56,1.19,2.33l-.43.33a3.8,3.8,0,0,1-.88-1,6.47,6.47,0,0,1-.31-1.54Z"/><path class="cls-1" d="M235.81,449.76c1.88,1.16.32,2.39.25,3.48Z"/><path class="cls-1" d="M477.53,434.63l2.15,1.92-2.76.19Z"/><path class="cls-1" d="M183.09,197.87c2.14,1.2,1.66,2,.46,3.16C183.39,199.94,183.28,199.15,183.09,197.87Z"/><path class="cls-1" d="M151.21,200.29l.14,2-.61.13-.51-2Z"/><path class="cls-1" d="M310.77,134.21l2.32-.9c-.52,1.17-.79,1.77-1.19,2.65Z"/><path class="cls-1" d="M284.22,362.19l.13,1.93-.64.09-.38-1.91Z"/><path class="cls-1" d="M347.39,70l0,1.94-.71.06c-.11-.64-.21-1.28-.32-1.92Z"/><path class="cls-1" d="M95.12,201.71l2.24,1.15C96,203.44,96,203.44,95.12,201.71Z"/><path class="cls-1" d="M140.56,197.55l1.39,1-1.42,1.29-.56-.31C140.15,198.94,140.34,198.31,140.56,197.55Z"/><path class="cls-1" d="M205.38,118.26l.9,1.63-.67.34-.8-1.67Z"/><path class="cls-1" d="M76.75,263.66l-2.57.52L76,262.26Z"/><path class="cls-1" d="M408,131.54l-1.87-.34.11-.64,1.88.25Z"/><path class="cls-1" d="M225.36,135.19c-.08.5-.17,1-.41,2.44-.64-1.39-.91-2-1.32-2.89l1.85.55Z"/><path class="cls-1" d="M393.83,138.2l1.08.76c-.19.36-.36.69-.54,1C393.18,139.29,393.18,139.29,393.83,138.2Z"/><path class="cls-1" d="M218.2,124.34l-.13-1.89C219.33,122.77,219.59,123.38,218.2,124.34Z"/><path class="cls-1" d="M232.32,125l.81,1.61-.67.32-.88-1.69Z"/><path class="cls-1" d="M191.46,326.45l1.11,3.09C191.56,329.11,191.56,329.11,191.46,326.45Z"/><path class="cls-1" d="M213.83,153c0,.41-.09.82-.18,1.58l-2-.55.05-.57,2.27-.37Z"/><path class="cls-1" d="M425.63,305.25l1.63,1.69-.41.41-1.67-1.56Z"/><path class="cls-1" d="M130.39,249l-1.22,1.86C128.81,249,128.81,249,130.39,249Z"/><path class="cls-1" d="M169.58,251.42l-1,1.55-.46-.17.51-1.92Z"/><path class="cls-1" d="M134.21,131.47c1.3-.54,1.64-.81,1.93-.76s.6.4,1.54,1.07Z"/><path class="cls-1" d="M256.7,132.21c-.38.51-.76,1-1.13,1.5l-1.26-.7,2-1.3Z"/><path class="cls-1" d="M207.6,126.77l-2,.14C206.08,124.89,206.75,125.88,207.6,126.77Z"/><path class="cls-1" d="M395.39,133.23l-2.1.15C394.06,132.1,394.06,132.1,395.39,133.23Z"/><path class="cls-1" d="M98.66,332.44l-1.52,1.62-.53-.41,1.54-1.84Z"/><path class="cls-1" d="M230.66,141.57l-1.93-.1C229.17,139.79,229.75,140.12,230.66,141.57Z"/><path class="cls-1" d="M211.53,178.69l-1.64-.47.17-.73,1.76.32C211.73,178.1,211.63,178.4,211.53,178.69Z"/><path class="cls-1" d="M200,144.52l-1.25-2.45.44-.38c.29.25.68.45.84.77S200,143.15,200,144.52Z"/><path class="cls-1" d="M184,211.06c.12-.65.15-.77.24-1.27l2.49,1.08Z"/><path class="cls-1" d="M96.27,272.62c-.18.61-.37,1.22-.55,1.83l-.77-.26.72-1.77Z"/><path class="cls-1" d="M129.53,219.36l1.94,1.95C129.92,221.4,129.92,221.4,129.53,219.36Z"/><path class="cls-1" d="M434.62,190.42l-1.78-.61.18-.69,1.87.33Z"/><path class="cls-1" d="M165.47,225.24c0-.85,0-1.46,0-2.22C166.75,223.83,166.75,223.83,165.47,225.24Z"/><path class="cls-1" d="M420.28,207.76l2.82,1a7,7,0,0,1-1.77.28,6.16,6.16,0,0,1-1.41-.6Z"/><path class="cls-1" d="M441.28,253.92l1.87.52c-.06.24-.12.48-.17.72l-1.88-.36Z"/><path class="cls-1" d="M439.6,207.44l2.61.7c-1.33.27-1.71.4-2.09.42a9.68,9.68,0,0,1-1.19-.09C439.15,208.13,439.37,207.78,439.6,207.44Z"/><path class="cls-1" d="M476.2,282.34l1.93.63c-.05.19-.09.37-.14.56l-2-.42C476.06,282.85,476.13,282.6,476.2,282.34Z"/><path class="cls-1" d="M188.2,183.68,190,183l.25.57-1.76.85Z"/><path class="cls-1" d="M446.4,183.41l-1.68-.26c0-.19,0-.39,0-.59l1.7-.12Z"/><path class="cls-1" d="M442.89,242.84l1.91.8c-.06.17-.12.35-.17.52l-2-.6Z"/><path class="cls-1" d="M255.36,125l.72,1.76-.66.29-.79-1.71Z"/><path class="cls-1" d="M350.68,156.39l1.73-.89.32.72-1.8.69Z"/><path class="cls-1" d="M190.62,129.6l1.81,1.46-.36.47-1.84-1.43Z"/><path class="cls-1" d="M213.88,162.85l.57-1.92.68.15-.3,2Z"/><path class="cls-1" d="M378.24,170.13l-.45,1.86-.39-.07-.14-1.87Z"/><path class="cls-1" d="M234.94,331.43l1.33.16.39,1.7c-.81-.55-1.39-.94-2-1.35-.07-.05-.16-.22-.14-.24A2.22,2.22,0,0,1,234.94,331.43Z"/><path class="cls-1" d="M387,476.31l-1.11-1.85.37-.3,1.44,1.75Z"/><path class="cls-1" d="M241.12,109l-1.81-.37v-.47l1.81-.24Z"/><path class="cls-1" d="M409.22,363.42l1-1,1.54,2.3c-.63-.06-1.06,0-1.31-.15a12.69,12.69,0,0,1-1.36-1.29Z"/><path class="cls-1" d="M326.44,373.36l-2.29-1c1.15-1.2,1.15-1.2,2.19,1.1Z"/><path class="cls-1" d="M254.55,99.94,253,98.88C254,98,254.7,98.12,254.55,99.94Z"/><path class="cls-1" d="M273.31,467.48l1.4,3.16c-1.92-1.09-1.94-2.1-1.3-3.26Z"/><path class="cls-1" d="M382.92,423.55l-1.11-2.32.63-.27,1,2.36Z"/><path class="cls-1" d="M296.94,464.54l-.72-1.63.62-.32.92,1.65Z"/><path class="cls-1" d="M380.16,89.6l1.56-.91.38.62-1.54,1C380.43,90,380.3,89.82,380.16,89.6Z"/><path class="cls-1" d="M467.41,368.5l-1.79-1.94C467.35,366.25,467.4,367.38,467.41,368.5Z"/><path class="cls-1" d="M268.79,458.78c-.12-1-.25-2.08-.37-3.12l.35,0,.22,3.13Z"/><path class="cls-1" d="M352.48,448.82c-.39-.84-.77-1.69-1.16-2.53l.56-.21,1,2.59Z"/><path class="cls-1" d="M324.69,86.68,326,88.07l-2.69.65C324,87.67,324.28,87.28,324.69,86.68Z"/><path class="cls-1" d="M217.23,404.86l-2.55-.21c1.09-.66,1.44-1,1.81-1s.6.4.9.63C217.33,404.44,217.28,404.65,217.23,404.86Z"/><path class="cls-1" d="M363.52,437c-.44-.76-.87-1.53-1.31-2.3l.44-.38c.31.28.73.5.9.85a6.09,6.09,0,0,1,.36,1.5Z"/><path class="cls-1" d="M178.21,547.9c-1.77-.95-.52-1.83-.09-3.57C178.16,546.06,178.18,546.91,178.21,547.9Z"/><path class="cls-1" d="M365.57,521l-1.93-3.61C365.57,518.05,365.32,519.14,365.57,521Z"/><path class="cls-1" d="M386.19,403c.13,1,.25,2,.38,3.07l-.49.06-.21-3.09Z"/><path class="cls-1" d="M313.34,83.38c.83,1.06.64,1.7-.75,2.16,0-.58-.19-1-.06-1.31S313.05,83.67,313.34,83.38Z"/><path class="cls-1" d="M479.79,310.72l-1.8-.56.25-.71,1.74.69Z"/><path class="cls-1" d="M72.4,378.78c.31-.68.63-1.35.94-2L74,377c-.28.72-.55,1.45-.83,2.17Z"/><path class="cls-1" d="M306.81,83.25l-.91,2.53a10.61,10.61,0,0,1-.53-2,4.09,4.09,0,0,1,.37-1.12Z"/><path class="cls-1" d="M198,115.19l1.69.28,0,.6-1.68.11C198,115.85,198,115.52,198,115.19Z"/><path class="cls-1" d="M414.87,357l1.61,1.48-.32.41-1.86-1.38Z"/><path class="cls-1" d="M208.8,93.8,211,95.39,208.38,95Z"/><path class="cls-1" d="M167.2,249.43c.12-.38.2-.61.27-.84a4.71,4.71,0,0,1,.89.39s-.12.59-.23.6A3.16,3.16,0,0,1,167.2,249.43Z"/><path class="cls-1" d="M279.69,92.44c.16-.35.26-.57.35-.79a4.22,4.22,0,0,1,.83.49c.06,0-.18.6-.26.59A3.63,3.63,0,0,1,279.69,92.44Z"/><path class="cls-1" d="M144,240l-1,1.18-1.28-1Z"/><path class="cls-1" d="M242.32,93.79a4,4,0,0,1,.89-.38c.08,0,.37.5.32.57a4.16,4.16,0,0,1-.78.58Z"/><path class="cls-1" d="M159.46,238.56,158.37,240l-.48-.31.88-1.57Z"/><path class="cls-1" d="M252.66,88.83c-.17.36-.26.58-.36.8a4.22,4.22,0,0,1-.83-.49c-.06-.06.18-.6.26-.6A4.32,4.32,0,0,1,252.66,88.83Z"/><path class="cls-1" d="M357.78,403c.17.53.35,1.06.52,1.6l-.42.22-1-1.44Z"/><path class="cls-1" d="M126.07,248.58l-1.7-.72,1.16-1.93c.22,1.28.34,2,.47,2.74Z"/><path class="cls-1" d="M126.8,247c.25-.54.49-1.08.74-1.61l.57.21c-.2.6-.39,1.2-.59,1.79Z"/><path class="cls-1" d="M313.52,406.41l-1-1.53.42-.34,1.22,1.2Z"/><path class="cls-1" d="M300.83,89.74l-.13-1.91C302.34,88.1,302.08,88.72,300.83,89.74Z"/><path class="cls-1" d="M428.2,222.33c0,.4-.06.81-.12,1.57l-1.57-1.14c.07-.2.14-.4.2-.59l1.61.29Z"/><path class="cls-1" d="M331.61,117.45l-1-.77.27-.52,1.24.47C332,116.9,331.79,117.17,331.61,117.45Z"/><path class="cls-1" d="M372.19,114.21l2.59-.36c-.61.85-.89,1.23-1.22,1.7Z"/><path class="cls-1" d="M306.71,359.42l-1.07-1.71c2.05.1,1.23,1.07,1,1.84Z"/><path class="cls-1" d="M178.74,109.42a4,4,0,0,1,.88-.47c.09,0,.28.31.42.47a3.77,3.77,0,0,1-.75.58S179,109.7,178.74,109.42Z"/><path class="cls-1" d="M447.09,261l-1.35-1,.29-.45,1.55.89Z"/><path class="cls-1" d="M310.56,361.31l-1.08-1.91C311,359.47,310.92,360.33,310.56,361.31Z"/><path class="cls-1" d="M204.06,268.66a2.61,2.61,0,0,1-2.46,1.87l.12.11-.06-1-.08.11,2.6-1Z"/><path class="cls-1" d="M420.51,253.47l.55-.42.5.84c-.24.08-.52.29-.71.22S420.62,253.7,420.51,253.47Z"/><path class="cls-1" d="M338.36,366.69,337,364.88l.39-.42c.3.27.7.48.87.82A4.48,4.48,0,0,1,338.36,366.69Z"/><path class="cls-1" d="M376.31,369.13l2.21.84c-1.89.74-1.88-.27-2.14-.92Z"/><path class="cls-1" d="M211.06,132.1c.4.38.68.64,1.19,1.14l-2.4.39Z"/><path class="cls-1" d="M258.35,377.74l.69,1.78-.5.21c-.24-.59-.48-1.19-.73-1.78Z"/><path class="cls-1" d="M341.61,376.24l.86,1.63-.41.24-.91-1.56Z"/><path class="cls-1" d="M244.14,132l-.84-.45.57-.72.69.68Z"/><path class="cls-1" d="M162.45,259.47c-.17.37-.28.6-.38.83a4.31,4.31,0,0,1-.87-.48s.18-.6.28-.6A3.65,3.65,0,0,1,162.45,259.47Z"/><path class="cls-1" d="M129.68,259.39l.49-.53.6.79c-.24.12-.48.33-.7.31S129.81,259.59,129.68,259.39Z"/><path class="cls-1" d="M269.14,95.45l-1.66-1.36,2.78,0C269.72,94.72,269.48,95,269.14,95.45Z"/><path class="cls-1" d="M264.37,397.09c-.43-.43-.86-.86-1.28-1.3l.39-.49,1.41,1.1Z"/><path class="cls-1" d="M265.13,92.29l1.34,1.39-1.07.95C265.32,94,265.26,93.46,265.13,92.29Z"/><path class="cls-1" d="M115.34,254.2l-.53-.44.78-.67c.1.23.32.48.28.69S115.52,254.07,115.34,254.2Z"/><path class="cls-1" d="M377.24,452.27c-.35-.56-.7-1.12-1-1.69l.45-.29,1.11,1.64Z"/><path class="cls-1" d="M402.94,57.88l-.36.8a3.86,3.86,0,0,1-.84-.49c-.06,0,.18-.6.26-.6A3.77,3.77,0,0,1,402.94,57.88Z"/><path class="cls-1" d="M404.18,56.12l.62-.42c.14.29.27.59.41.89-.24.08-.54.29-.72.21S404.28,56.36,404.18,56.12Z"/><path class="cls-1" d="M383.7,178.5l-1.5-.09c0-.2,0-.4,0-.59l1.67-.12C383.81,178,383.76,178.23,383.7,178.5Z"/><path class="cls-1" d="M257.49,66.34l-.87-.28a3.83,3.83,0,0,1,.42-.89c0-.06.62.12.63.22A3.77,3.77,0,0,1,257.49,66.34Z"/><path class="cls-1" d="M335.7,58.77l2.4-.16-1,1.26Z"/><path class="cls-1" d="M350.37,56.05c.16-.39.26-.62.35-.85a3.89,3.89,0,0,1,.84.5c.06,0-.17.61-.27.61A3.37,3.37,0,0,1,350.37,56.05Z"/><path class="cls-1" d="M384.31,174.07l-2.06.39-.09-.49,2.07-.36C384.26,173.77,384.28,173.92,384.31,174.07Z"/><path class="cls-1" d="M301.61,473.55l.33,2.59-.41.05c-.14-.85-.27-1.71-.41-2.57Z"/><path class="cls-1" d="M389.79,172.19l-1.28-1,.25-.43,1.56.68Z"/><path class="cls-1" d="M178.23,186.49l-.86.86-.9-.62c.17-.39.34-.78.5-1.17Z"/><path class="cls-1" d="M285.52,59.28l-.37.81a4,4,0,0,1-.83-.49c-.06-.06.18-.61.26-.61A4.4,4.4,0,0,1,285.52,59.28Z"/><path class="cls-1" d="M51.69,192.15l1.9,1.41a10.29,10.29,0,0,1-1.35-.23C52.11,193.29,52.07,193,51.69,192.15Z"/><path class="cls-1" d="M310.18,51.59l.6-.4.44.86c-.24.08-.53.27-.7.2S310.29,51.82,310.18,51.59Z"/><path class="cls-1" d="M414.62,156.76l1.74-.12.09.64-1.6.31Z"/><path class="cls-1" d="M250.1,513.26l.2,2.85-.43.08a4.68,4.68,0,0,1-.27-1.44,5,5,0,0,1,.63-1.4Z"/><path class="cls-1" d="M362.88,24l-1.4,1.08-.34-.4,1.14-1.2Z"/><path class="cls-1" d="M106.7,177.51c.45-.65.66-1,1-1.38L109,177Z"/><path class="cls-1" d="M21.26,179.89l-1.82.87-.29-.77,1.93-.56Z"/><path class="cls-1" d="M396.56,505.81c.14.57.29,1.13.43,1.7l-.39.17c-.31-.51-.61-1-.91-1.55Z"/><path class="cls-1" d="M433.18,150.11l-1.34,0v-.68l1.34,0Z"/><path class="cls-1" d="M382.83,153l-2.34.17,0-.38,2.32-.28Z"/><path class="cls-1" d="M193.49,153.65a8.18,8.18,0,0,1-1,.54,4.92,4.92,0,0,1-.35-.61l1.06-.51Z"/><path class="cls-1" d="M337.09,146.68l1.59-.57c.07.12.14.24.2.36l-1.31.83Z"/><path class="cls-1" d="M366.19,144.12c.89-1,1.16-1.23,1.45-1.53l1.33,1Z"/><path class="cls-1" d="M252.51,553.92l.5-.51.61.8c-.23.11-.49.33-.68.28S252.65,554.13,252.51,553.92Z"/><path class="cls-1" d="M420.15,217.61l-2.07-.76C419.25,216.29,419.25,216.29,420.15,217.61Z"/><path class="cls-1" d="M348.43,415.14l.59-.39.42.84c-.23.08-.52.26-.67.18S348.54,415.36,348.43,415.14Z"/><path class="cls-1" d="M295.75,421.5c-1.27-.68-.82-1.76-.67-3.75l.56,3.86Z"/><path class="cls-1" d="M366.66,127.22l.18,1.21-.64.1-.18-1.22Z"/><path class="cls-1" d="M345,420.56l-.88-1.78.4-.2.94,1.74Z"/><path class="cls-1" d="M336.2,422l-1.15-1.77C336.84,419.62,336.34,420.78,336.2,422Z"/><path class="cls-1" d="M176.43,227l-.52-.48.79-.67c.11.24.34.5.3.71S176.63,226.81,176.43,227Z"/><path class="cls-1" d="M224.49,140l-1.05-1,2.26-.31Z"/><path class="cls-1" d="M346.24,130.37a3.85,3.85,0,0,1,.38.9c0,.07-.5.37-.56.31a3.46,3.46,0,0,1-.58-.77Z"/><path class="cls-1" d="M334.51,425.87c.17-.36.26-.58.36-.8a4.22,4.22,0,0,1,.83.49c.06.05-.18.6-.26.6A4.32,4.32,0,0,1,334.51,425.87Z"/><path class="cls-1" d="M219.51,141.39a8.55,8.55,0,0,1-1.09-.55,4,4,0,0,1,.28-.63l1.11.57Z"/><path class="cls-1" d="M345.76,426.72c.51.81.85,1.33,1.19,1.86l-.25.33c-.31-.23-.75-.39-.9-.7S345.76,427.45,345.76,426.72Z"/><path class="cls-1" d="M185.27,214.67l.41-.55.67.75c-.22.12-.45.34-.66.33S185.41,214.86,185.27,214.67Z"/><path class="cls-1" d="M318.08,433.07l-.17-2.41.28,0,.16,2.36Z"/><path class="cls-1" d="M414.3,195.53l-1.87.59-.15-.43,1.81-.76Z"/><path class="cls-1" d="M342.77,433.33,341.6,432l.43-.44,1.27,1.13Z"/><path class="cls-1" d="M141.38,212.69l1.63.22-.68,1.74-.85-2.07Z"/><path class="cls-1" d="M291.43,436.74l.18,2.54-.45,0-.06-2.55Z"/><path class="cls-1" d="M402.54,192.71l-1.8-.47c.05-.19.1-.37.14-.55l1.74.43Z"/><path class="cls-1" d="M190,204.32c.08.7.14,1.2.25,2.15l-1.45-1.07C189.25,205,189.55,204.75,190,204.32Z"/><path class="cls-1" d="M144.08,206.69l2.31-.4.08.49-2.3.42Z"/><path class="cls-1" d="M213.42,145.48c.22-.55.44-1.1.86-2.13.79,1.88-.34,1.77-1,2Z"/><path class="cls-1" d="M115,207.8l1.59-1,.31.51-1.57,1Z"/><path class="cls-1" d="M301.78,444.2l.63,1.88-.36.16c-.33-.6-.66-1.19-1-1.79Z"/><path class="cls-1" d="M371.06,442.18l1,1.5-.41.28-1-1.47Z"/><path class="cls-1" d="M436.63,322.54l2.3-.16,0,.27-2.19.31Z"/><path class="cls-1" d="M465,314.7l1.48.62-.06.35-1.73-.3Z"/><path class="cls-1" d="M468.49,295.55l.36-.78a4,4,0,0,1,.83.49c.06.05-.19.59-.26.59A3.87,3.87,0,0,1,468.49,295.55Z"/><path class="cls-1" d="M140.52,302.54l-1,1.19-.15-2.22Z"/><path class="cls-1" d="M476.67,297.46c.52.25,1.05.48,1.55.76a3.2,3.2,0,0,1-.18.52l-1.61-.8Z"/><path class="cls-1" d="M241.48,339.39l-.07-3.3c.92,1.43,1,2.36-.06,3.2Z"/><path class="cls-1" d="M15,331.14c-.16.37-.26.58-.36.8a3.63,3.63,0,0,1-.83-.49c-.06-.05.18-.6.26-.6A4.32,4.32,0,0,1,15,331.14Z"/><path class="cls-1" d="M351.75,105.32l-1.63.66-.19-.42,1.57-.79Z"/><path class="cls-1" d="M177.43,339.4a10.09,10.09,0,0,1,.69-2.14c1.51.08.12.81.2,1.25C178.34,338.63,178.05,338.8,177.43,339.4Z"/><path class="cls-1" d="M227.94,111.24l-1.05.58a4.84,4.84,0,0,1-.29-.64,7.76,7.76,0,0,1,1-.54Z"/><path class="cls-1" d="M225.47,295l1.85-1.38.4.38a3.43,3.43,0,0,1-.77.87A5.16,5.16,0,0,1,225.47,295Z"/><path class="cls-1" d="M186.58,308.68l1.31-.18.2.61-1.27.58Z"/><path class="cls-1" d="M471.72,311.66l-2-1.44a11.06,11.06,0,0,1,1.42.23C471.29,310.49,471.34,310.83,471.72,311.66Z"/><path class="cls-1" d="M269.15,116.51l-.53-.49.81-.65c.11.24.34.5.3.7S269.36,116.37,269.15,116.51Z"/><path class="cls-1" d="M151.26,294.49l-.92.9-.43-.43.9-.92Z"/><path class="cls-1" d="M199.3,357.65c.23-1.14-.69-2.47.6-3.43l-.1-.08c-.17,1.15.84,2.5-.59,3.43Z"/><path class="cls-1" d="M45.29,306.72l-1.2-1.4.42-.36,1.21,1.39Z"/><path class="cls-1" d="M177.63,306l1.86-1.55.47.38a3.94,3.94,0,0,1-.74,1C179,306.05,178.53,306,177.63,306Z"/><path class="cls-1" d="M259,111l-.16-2.33h.26l.17,2.32Z"/><path class="cls-1" d="M162.54,196.48l-.77-.77.3-.31.79.75Z"/><path class="cls-1" d="M198.21,193.54l.8-.95.54.48c-.27.31-.55.62-.83.92Z"/><path class="cls-1" d="M147.59,256l.77.88c-.1.07-.26.23-.3.21-.31-.19-.59-.42-.88-.64Z"/><path class="cls-1" d="M143,320.62c-.31.56-.63,1.11-1,1.67l-.45-.47,1.52-1.08Z"/><path class="cls-1" d="M186.31,195.92l1.75-1,.2.54-2.06.32Z"/><path class="cls-1" d="M58,348.64l1.24-1.29c.07.25.26.67.19.72A6.89,6.89,0,0,1,58,348.64Z"/><path class="cls-1" d="M347.91,457.51l-.23-1.48L348,456c.09.49.18,1,.26,1.47Z"/><path class="cls-1" d="M146.69,199.08l-1-.62.43-.48.85.74Z"/><path class="cls-1" d="M120.43,343.24l-.68.87-.32-.25.65-.91Z"/><path class="cls-1" d="M29.89,85.32l.84.69-.21.29-.89-.62Z"/><path class="cls-1" d="M200.14,197.23l-.94-.64.42-.6,1,.54Z"/><path class="cls-1" d="M149,267.81l.87-.88c.08.11.23.27.2.31-.19.32-.43.62-.65.92Z"/><path class="cls-1" d="M298.48,395.48l-.82-.75.28-.32.84.74Z"/><path class="cls-1" d="M26.05,262.09l-.94-.89c.11-.07.27-.22.32-.2.34.2.65.44,1,.66Z"/><path class="cls-1" d="M183.63,260.36c.07.47.15.94.22,1.4l-.33.06-.27-1.39Z"/><path class="cls-1" d="M447.87,167.51l1.48,0,0,.28-1.49.1Z"/><path class="cls-1" d="M336.74,138l-.85.84-.86-.69.7-.94Z"/><path class="cls-1" d="M448.23,241.53l.91.74-.33.46-.95-.69Z"/><path class="cls-1" d="M373.7,89.19l.91.74-.33.44-.9-.67Z"/><path class="cls-1" d="M451.57,169l1.2-.08.06.27-1.31.25C451.54,169.31,451.56,169.17,451.57,169Z"/><path class="cls-1" d="M124.86,266.72l1-.8.46.39-.8,1Z"/><path class="cls-1" d="M150,262.35c.59.77.59.77-.15,1.34.09-.53.17-1,.24-1.46Z"/><path class="cls-1" d="M367.34,111.32l-.85.89-.35-.33L367,111Z"/><path class="cls-1" d="M238.19,332.35c.05.48.11.95.16,1.43l-.4.06c-.07-.48-.14-.95-.22-1.42Z"/><path class="cls-1" d="M150.3,339.78l1-.81c.12.14.23.28.35.41l-.93.88Z"/><path class="cls-1" d="M328.11,378l.28,1.68-.44.06-.24-1.68Z"/><path class="cls-1" d="M449.62,302.11l.87.85-.28.29-.88-.83Z"/><path class="cls-1" d="M273.41,467.38l-.85-1.72.49-.17c.09.66.17,1.33.26,2Z"/><path class="cls-1" d="M243.54,121.84l-1.15-.51.33-.6,1,.72Z"/><path class="cls-1" d="M253.54,485.38l-.23-1.58.44-.07.26,1.58Z"/><path class="cls-1" d="M327.93,90.66l.82-.89c.15.11.3.22.44.34l-.65,1Z"/><path class="cls-1" d="M412.21,176l.84.68-.37.58-1.1-.37Z"/><path class="cls-1" d="M170.27,313.23l.89.67-.2.3-1-.61Z"/><path class="cls-1" d="M196,238.56l-.15,1.54-1.13-1,1.4-.4Z"/><path class="cls-1" d="M237.8,410.26c.17.45.33.9.52,1.41-1.49-.12-1.06-.7-.42-1.32Z"/><path class="cls-1" d="M151.45,215.93l-1.6.11v-.25l1.59-.11Z"/><path class="cls-1" d="M302,409.65l-.12-1.72.4,0,0,1.73Z"/><path class="cls-1" d="M163.13,215.65l.89-1,.42.4-.92,1Z"/><path class="cls-1" d="M440.37,198.66l.87-.84.31.32-.84.88Z"/><path class="cls-1" d="M188.61,140c-.29-.19-.58-.37-1.72-1.13l2.05.42Z"/><path class="cls-1" d="M173,217.8l-.94,1c-.13-.12-.25-.24-.37-.37l1-1Z"/><path class="cls-1" d="M359.58,422.17c0,.67-.05,1.34-.08,2l-.43-.12c.2-.61.39-1.22.59-1.83Z"/><path class="cls-1" d="M54.25,352.75l.64-1.07.5.32-.77,1Z"/><path class="cls-1" d="M319,416.29c0,.47,0,.94,0,1.4h-.23l-.1-1.43Z"/><path class="cls-1" d="M27.63,355.67l-.71.87-.31-.24.68-.9Z"/><path class="cls-1" d="M.92,244.28,0,243.44l.3-.33.93.83Z"/><path class="cls-1" d="M424.18,332.3l-.9-.71.44-.51.87.75C424.45,332,424.32,332.15,424.18,332.3Z"/><path class="cls-1" d="M434.57,414.68l1,.83-.36.45-1-.82Z"/><path class="cls-1" d="M427.78,328.06l1.11.88-.39.48-1.09-.91Z"/><path class="cls-1" d="M136.27,233.3l-1.39-.05V233l1.49-.1Z"/><path class="cls-1" d="M160.11,201.76l-.8.88-.47-.42.78-.9Z"/><path class="cls-1" d="M315.38,395.08l-.21-1.58.39-.05c.07.53.13,1.05.2,1.58Z"/><path class="cls-1" d="M235.23,121.23l1.29-.24.08.34-1.29.27C235.29,121.48,235.26,121.35,235.23,121.23Z"/><path class="cls-1" d="M162.9,299.85l-1.25,1.29c-.07-.25-.27-.66-.19-.72A6,6,0,0,1,162.9,299.85Z"/><path class="cls-1" d="M240,450.56c-.07-.5-.15-1-.23-1.51l.46-.08.28,1.5Z"/><path class="cls-1" d="M449.69,281.06l-.9-.82.31-.35.91.82C449.9,280.83,449.8,281,449.69,281.06Z"/><path class="cls-1" d="M183.07,247.13l-1.79.14.11.11,1.16-1.89c.2.85.31,1.3.42,1.76Z"/><path class="cls-1" d="M408.65,434.39l.91.89-.34.36-.92-.87Z"/><path class="cls-1" d="M446.9,226.47l1.61-.21.05.42-1.63.11Z"/><path class="cls-1" d="M367.43,133l1.4-.41c-.18,1.42-.74.89-1.31.29Z"/><path class="cls-1" d="M462.81,224.82l-1.06-.78.45-.52,1,.86C463.06,224.52,462.93,224.67,462.81,224.82Z"/><path class="cls-1" d="M370.91,110.32l-.72,1-.46-.33.8-1Z"/><path class="cls-1" d="M199.84,243.53c-.06-1.1.25-1.89,1.55-1.85l-.06-.05-1.61,1.81Z"/><path class="cls-1" d="M183.22,244l1.59-.11,0,.25-1.6.11Z"/><path class="cls-1" d="M453.4,224.63l-.89-.87.3-.4,1.07.62Z"/><path class="cls-1" d="M479.21,390l-.84-1.76.58-.14.14,2Z"/><path class="cls-1" d="M129.06,344.3l.11,1.51-.3,0-.1-1.51Z"/><path class="cls-1" d="M409.45,428.91l.14,2-.48.09c-.14-.68-.29-1.37-.43-2.05l-.1.11.95-.08Z"/><path class="cls-1" d="M368.41,434.08l-.89-.68.31-.38.89.68Z"/><path class="cls-1" d="M214.76,141.1l1.37.25c-.17.32-.31.59-.64,1.19l-.7-1.48Z"/><path class="cls-1" d="M266.45,360.28l.18,1.21-.34.1-.35-1.27Z"/><path class="cls-1" d="M120.77,279c.13-.23.32-.58.52-.92l.61.43Z"/><path class="cls-1" d="M131.66,112.39c.05.47.11.94.17,1.41l-.41.06-.24-1.4Z"/><path class="cls-1" d="M207.21,364.5c0,.47,0,.94,0,1.41l-.31,0-.24-1.44Z"/><path class="cls-1" d="M248.32,129l-.89-.85.35-.36.88.86Z"/><path class="cls-1" d="M257.68,101.29l-.66.95-.54-.34c.15-.37.29-.74.43-1.11Z"/><path class="cls-1" d="M424.92,256.44l-1-.73.42-.49.91.8Z"/><path class="cls-1" d="M405.71,358l-.75,1-1-.78.71-1Z"/><path class="cls-1" d="M372.69,162.66l1.46-.1,0,.29-1.46.1Z"/><path class="cls-1" d="M169.82,273.18l.87-.9.34.33-.87.89Z"/><path class="cls-1" d="M157.67,294.67c-.29-.24-.58-.48-.86-.73l.27-.34.9.69Z"/><path class="cls-1" d="M241,371l1.49-.58c-.28,1.32-.61,1.87-1.39.46Z"/><path class="cls-1" d="M360.25,137.85,359,139.14c-.07-.25-.27-.65-.19-.72A7,7,0,0,1,360.25,137.85Z"/><path class="cls-1" d="M90.49,295.06l-.91-.84.33-.35.9.85Z"/><path class="cls-1" d="M160.76,296.17c-.23.36-.47.71-.7,1.06l-.45-.31.78-1Z"/><path class="cls-1" d="M20,162.64l1.45-.2.06.32L20,163Z"/><path class="cls-1" d="M257.65,121.86c-.1.71.1,1.66-1.71,1.47l1.82-1.38Z"/><path class="cls-1" d="M282.6,125.2l-1.07,1.57-.42-.51,1.61-1Z"/><path class="cls-1" d="M210.5,27l-.87-.66.25-.34.89.63Z"/><path class="cls-1" d="M329.82,514.26l-.92-.88.29-.32.95.85Z"/><path class="cls-1" d="M197,129.49l1-.74.31.38-.9.86Z"/><path class="cls-1" d="M375.3,154.44l-1.44.1-.08-.34,1.36-.33C375.19,154.06,375.24,154.25,375.3,154.44Z"/><path class="cls-1" d="M355.62,141.09l-.83-.83.35-.34.8.85Z"/><path class="cls-1" d="M302.81,352.13c0-.37.08-.75.14-1.29.39.24.68.4,1.29.76l-1.52.45Z"/><path class="cls-1" d="M129.62,174.12l-1-.72.35-.49,1,.75Z"/><path class="cls-1" d="M168.21,284.52l-.84.71-.25-.31.87-.69Z"/><path class="cls-1" d="M451.09,265.31l.88-1,.41.35-.84,1Z"/><path class="cls-1" d="M154.92,286.44l-.8.94-.44-.37.85-.9Z"/><path class="cls-1" d="M177.45,285.42l.91-.9.35.39-1,.84Z"/><path class="cls-1" d="M252.4,123.65l-.75,1-.45-.4.84-.94Z"/><path class="cls-1" d="M232.55,549.91l-.11-1.59.31,0,.18,1.59Z"/><path class="cls-1" d="M217.86,356.39l.94-.06-.12-.09c0,1.08-.27,1.9-1.6,1.77l.11.11c.26-.61.51-1.23.77-1.85Z"/><path class="cls-1" d="M368.74,165.87l-.85.86-.5-.44.79-.91Z"/><path class="cls-1" d="M470.3,246.53l-1.14-.59.33-.54,1,.77Z"/><path class="cls-1" d="M379.47,46.23c.28-.29.57-.58.86-.86l.3.29-.85.88Z"/><path class="cls-1" d="M255,550l.11,1.56-.25,0-.11-1.56Z"/><path class="cls-1" d="M301.65,371.55l-.76-.78.29-.3.77.78Z"/><path class="cls-1" d="M341.84,94.5l-.76-.72.4-.45.81.67Z"/><path class="cls-1" d="M200.58,288,201,287l.6.27-.54,1Z"/><path class="cls-1" d="M444.58,249.32c-.06.41-.11.82-.18,1.39l-1.33-.86,1.58-.46Z"/><path class="cls-1" d="M134.57,184.61c-.25-.28-.5-.56-.76-.83.11-.07.26-.23.31-.21.3.16.58.36.86.54Z"/><path class="cls-1" d="M360.4,115.47l-.95-.72.36-.52,1,.66Z"/><path class="cls-1" d="M273.85,127.79l.71-.85.39.34-.71.85Z"/><path class="cls-1" d="M360.11,141.59l.82.74-.26.29-.82-.74Z"/><path class="cls-1" d="M466,137.65l-1.25.25-.09-.35,1.26-.28C466,137.39,466,137.52,466,137.65Z"/><path class="cls-1" d="M241.75,104.72l1,.58-.29.46-1.06-.43Z"/><path class="cls-1" d="M233.48,103.21c-.22-.42-.45-.83-.78-1.45,1.64.2,1.58.67.67,1.34Z"/><path class="cls-1" d="M222.68,106.56c.25-.3.5-.6.74-.91l.47.33c-.21.33-.43.65-.65,1Z"/><path class="cls-1" d="M375.44,136l1-.81.44.35-.78,1Z"/><path class="cls-1" d="M328.27,15.85c.05.37.09.61,0,0Z"/><path class="cls-1" d="M469.1,190.26l-.86,0c.08-.08.16-.23.22-.22A3.72,3.72,0,0,1,469.1,190.26Z"/><path class="cls-1" d="M356,420c.27.31.55.61.83.92l-.46.27-.27-1.31Z"/><path class="cls-1" d="M212.8,140.83Z"/><path class="cls-1" d="M198.05,310.54l-.84,0c.08-.09.18-.25.24-.24A3,3,0,0,1,198.05,310.54Z"/><path class="cls-1" d="M351.23,431.8c0-.36,0-.6,0-.84.08.07.22.16.21.22A3.45,3.45,0,0,1,351.23,431.8Z"/><path class="cls-1" d="M416,137.8c-.29,0-.56.1-.85.13-.05,0-.12-.14-.18-.21l1-.21Z"/><path class="cls-1" d="M267.17,541.49l0,.89c-.08-.09-.24-.18-.23-.25A3.31,3.31,0,0,1,267.17,541.49Z"/><path class="cls-1" d="M362.88,72.25l.83,0c-.08.08-.19.23-.26.21A2.4,2.4,0,0,1,362.88,72.25Z"/><path class="cls-1" d="M445.14,286l1.67.22c-.1.07-.2.21-.29.2A12.7,12.7,0,0,1,445.14,286Z"/><path class="cls-1" d="M452.18,135.81l1.1.13a5.58,5.58,0,0,1-.66.3C452.57,136.26,452.46,136.08,452.18,135.81Z"/><path class="cls-1" d="M320.31,420.76l.82.91-.42.26c-.1-.43-.21-.85-.31-1.28Z"/><path class="cls-1" d="M362.17,523.73l0,.83c-.08-.07-.23-.15-.22-.21A3.45,3.45,0,0,1,362.17,523.73Z"/><path class="cls-1" d="M440,188.45l1.72.22c-.1.07-.21.22-.31.21A13.5,13.5,0,0,1,440,188.45Z"/><path class="cls-1" d="M122.2,225l-1.7-.23c.1-.08.21-.22.3-.21A14.17,14.17,0,0,1,122.2,225Z"/><path class="cls-1" d="M460.52,200.15Z"/><path class="cls-1" d="M152.06,221.66c0,.32,0,.64,0,1h-.24v-1Z"/><path class="cls-1" d="M162.63,145.08Z"/><path class="cls-1" d="M241.59,341c-.93-.48-.85-1-.11-1.61l-.13-.1c0,.61.09,1.22.13,1.83Z"/><path class="cls-1" d="M348.86,6.89c.12,0,.29-.18.35-.14s.12.24.18.37a.91.91,0,0,1-.38.07C348.94,7.17,348.91,7,348.86,6.89Z"/><path class="cls-1" d="M169,218.42c-.13.63-.19,1-.26,1.29a3.89,3.89,0,0,1-.28-.74C168.45,218.9,168.65,218.78,169,218.42Z"/><path class="cls-1" d="M189,308.39l1.22-.08v.21Z"/><path class="cls-1" d="M185.67,216.71l.07,1h-.24c0-.32,0-.65,0-1Z"/><path class="cls-1" d="M205.22,8.5Z"/><path class="cls-1" d="M360.58,425.12l-.21,1.81c-.08-.11-.23-.22-.22-.32A13.29,13.29,0,0,1,360.58,425.12Z"/><path class="cls-1" d="M230.84,305.45l1,.16a3.58,3.58,0,0,1-.63.21C231.16,305.83,231.06,305.67,230.84,305.45Z"/><path class="cls-1" d="M201.71,157h0C201.78,157.2,201.84,157.41,201.71,157Z"/><path class="cls-1" d="M413.74,423.92l-.06-.86h.3v.86Z"/><path class="cls-1" d="M151.45,219.45c.09-.57.15-.87.2-1.18a4.59,4.59,0,0,1,.29.69C152,219,151.77,219.13,151.45,219.45Z"/><path class="cls-1" d="M433.83,198.56l-.67.12c0-.07.08-.18.13-.19A3.12,3.12,0,0,1,433.83,198.56Z"/><path class="cls-1" d="M388.47,425.66a5.08,5.08,0,0,1,.26.71c0,.07-.16.17-.25.26l-.2-.93Z"/><path class="cls-1" d="M116.82,219.76c.06.37.09.62,0,0Z"/><path class="cls-1" d="M361.46,428.4l.07,1-.24,0,0-1Z"/><path class="cls-1" d="M120.61,226.33l1-.06v.21l-.94.06Z"/><path class="cls-1" d="M177.76,156.6l1.11.19a4.08,4.08,0,0,1-.67.23C178.13,157,178,156.86,177.76,156.6Z"/><path class="cls-1" d="M380.36,142l-.71,0v-.16l.7-.05Z"/><path class="cls-1" d="M189.51,552.79l.85.05c-.09.07-.19.22-.26.21A3,3,0,0,1,189.51,552.79Z"/><path class="cls-1" d="M332.67,540.31l0,1h-.23v-1Z"/><path class="cls-1" d="M311.83,78.26l1.24.21a3.36,3.36,0,0,1-.67.24C312.32,78.73,312.21,78.56,311.83,78.26Z"/><path class="cls-1" d="M203.93,321.16l-.69.11v-.17l.69-.05Z"/><path class="cls-1" d="M322.69,495.1l.05.76h-.19l-.05-.76Z"/><path class="cls-1" d="M166.83,178c0,.32,0,.64,0,1h-.29c0-.33,0-.65,0-1Z"/><path class="cls-1" d="M142.18,180.31l1.72.24c-.1.08-.2.23-.29.22A12.56,12.56,0,0,1,142.18,180.31Z"/><path class="cls-1" d="M345.81,463.7l-.07-1,.21,0,.07,1Z"/><path class="cls-1" d="M241,112.9c0-.42.07-.85,0-.3.3-.44.08-.12-.14.2Z"/><path class="cls-1" d="M336.64,460.05c-.16,1.11-.2,1.42-.24,1.73-.08-.1-.22-.2-.21-.29A10.65,10.65,0,0,1,336.64,460.05Z"/><path class="cls-1" d="M216.73,149.13l-1,.07V149h1Z"/><path class="cls-1" d="M185.4,193.05l-.66,0,.6-.14A1.2,1.2,0,0,1,185.4,193.05Z"/><path class="cls-1" d="M331.42,458.75c-.14,1.07-.18,1.38-.23,1.68-.07-.09-.21-.2-.2-.29A12.08,12.08,0,0,1,331.42,458.75Z"/><path class="cls-1" d="M395,178.84l1.7.19c-.1.07-.21.2-.3.19A13.06,13.06,0,0,1,395,178.84Z"/><path class="cls-1" d="M389.64,493.86v-.81c.07.07.22.14.21.19A3.77,3.77,0,0,1,389.64,493.86Z"/><path class="cls-1" d="M369.3,163.16l-1,.06,0-.19,1-.07Z"/><path class="cls-1" d="M378.75,496.3l-.07-1h.22l.07,1Z"/><path class="cls-1" d="M227.94,46Z"/><path class="cls-1" d="M331.18,138.08l.84.94-.47.26c-.09-.43-.18-.87-.28-1.3Z"/><path class="cls-1" d="M368.12,481.63c.15-1.11.19-1.43.24-1.74.07.1.22.21.21.3A14.27,14.27,0,0,1,368.12,481.63Z"/><path class="cls-1" d="M376.31,167.78l-.94.07v-.23h.95Z"/><path class="cls-1" d="M395.25,479.75c.14-1.14.19-1.46.23-1.78.07.1.23.21.22.3A14.82,14.82,0,0,1,395.25,479.75Z"/><path class="cls-1" d="M181.65,488.32c.08.65.11.88.15,1.12h-.19C181.62,489.21,181.62,489,181.65,488.32Z"/><path class="cls-1" d="M352.07,136.09l.07,1h-.24l-.07-1Z"/><path class="cls-1" d="M302,479.45l0,.93h-.23v-.94Z"/><path class="cls-1" d="M297,477.27c-.14,1.11-.18,1.43-.22,1.76-.08-.1-.23-.21-.22-.31A13.62,13.62,0,0,1,297,477.27Z"/><path class="cls-1" d="M249.24,57.3c0-.34,0-.57,0-.8.06.08.2.17.19.23A3,3,0,0,1,249.24,57.3Z"/><path class="cls-1" d="M171.68,187.2l-.85,0c.07-.07.15-.22.21-.21A3.66,3.66,0,0,1,171.68,187.2Z"/><path class="cls-1" d="M367.94,487.52l.83,0c-.07.07-.15.22-.2.21A4.24,4.24,0,0,1,367.94,487.52Z"/><path class="cls-1" d="M237.22,116.57l-.08-1.15h.18Z"/><path class="cls-1" d="M220.71,501.4l-.07-1h.23l0,1Z"/><path class="cls-1" d="M236.05,318.9a4.65,4.65,0,0,1-.28-.7c0-.06.18-.17.27-.26.07.31.15.61.22.91Z"/><path class="cls-1" d="M242.19,333.79l-.27-.71h.54Z"/><path class="cls-1" d="M251.2,499.25l-.06-1h.21l.07,1Z"/><path class="cls-1" d="M325.65,137.28l-.92,0v-.23h.93Z"/><path class="cls-1" d="M246.74,337.05c-.05-.39-.09-.62,0,0C246.79,336.44,246.77,336.67,246.74,337.05Z"/><path class="cls-1" d="M427,185.53l-1,.07,0-.21,1-.07Z"/><path class="cls-1" d="M415.57,324.82l.68-.05,0,.22-.68.05Z"/><path class="cls-1" d="M389.92,154.88,389,155v-.24h1Z"/><path class="cls-1" d="M389.57,508.21c.15-1.09.19-1.4.23-1.71.08.1.22.2.21.29A11.21,11.21,0,0,1,389.57,508.21Z"/><path class="cls-1" d="M219,115.29l.26-.21-.36.11Z"/><path class="cls-1" d="M199.1,120.47c0-.29-.06-.58-.1-.88l.28,0,.06.88Z"/><path class="cls-1" d="M244.77,325.55l.73-1.77-.12-.09c-.25.58-.49,1.16-.73,1.75Z"/><path class="cls-1" d="M386.27,437.32l-.84-.9.52-.29c.07.44.15.87.23,1.3Z"/><path class="cls-1" d="M281.94,522.48h0C281.89,523.1,281.91,522.86,281.94,522.48Z"/><path class="cls-1" d="M215.49,35.19h-1V35l1,0Z"/><path class="cls-1" d="M281.25,442.89c.07-.55.11-.87.15-1.2a5.1,5.1,0,0,1,.32.72C281.74,442.48,281.55,442.6,281.25,442.89Z"/><path class="cls-1" d="M256.84,28.74l.05.72-.17,0-.05-.73Z"/><path class="cls-1" d="M466.15,186l.94-.06,0,.21-.95.06Z"/><path class="cls-1" d="M95.49,170.45l-.92,0c0-.12,0-.23,0-.34l.92.06Z"/><path class="cls-1" d="M186.32,196.67l-1.64-.26,1.63-.49-.11-.1c0,.31,0,.63,0,1Z"/><path class="cls-1" d="M155,177.37l-1.11-.12a5.07,5.07,0,0,1,.65-.24C154.61,177,154.71,177.15,155,177.37Z"/><path class="cls-1" d="M175,174.86l.92-.06v.2l-.92.07Z"/><path class="cls-1" d="M203.74,197.56l-.09-.74h.15l0,.74Z"/><path class="cls-1" d="M283.43,70.29c0-.35-.06-.57,0,0C283.49,69.73,283.47,69.94,283.43,70.29Z"/><path class="cls-1" d="M207.75,198.57l-1.47-.13c.07-.15.13-.3.2-.46l1.17.71Z"/><path class="cls-1" d="M218.05,145.48a3.26,3.26,0,0,1,.58-.11s.08.12.12.19Z"/><path class="cls-1" d="M205.52,512.52c0,.37,0,.63,0,.88-.07-.08-.23-.17-.21-.23A3.9,3.9,0,0,1,205.52,512.52Z"/><path class="cls-1" d="M466.25,307.06Z"/><path class="cls-1" d="M202.66,326.37l-.93.07v-.2l.92-.06Z"/><path class="cls-1" d="M192,172.59l1.62.21c-.09.07-.2.21-.29.2A10.77,10.77,0,0,1,192,172.59Z"/><path class="cls-1" d="M207.65,198.69l1.77.71.08-.09-1.75-.74Z"/><path class="cls-1" d="M410,443.1l-.73-.05c.07-.07.16-.21.22-.2A2.12,2.12,0,0,1,410,443.1Z"/><path class="cls-1" d="M264.91,448.9l.09.73h-.16l0-.73Z"/><path class="cls-1" d="M363.5,160.51l.93-.85.27.48-1.29.3Z"/><path class="cls-1" d="M150.34,175l-1,.06v-.28h1Z"/><path class="cls-1" d="M91.74,264.56l-1.69-.23c.1-.07.21-.22.3-.21A13.57,13.57,0,0,1,91.74,264.56Z"/><path class="cls-1" d="M78.5,269.48a3.93,3.93,0,0,1-.66.22c-.06,0-.16-.14-.24-.21l.87-.18Z"/><path class="cls-1" d="M229.86,381.93l.83.9-.5.28-.23-1.29Z"/><path class="cls-1" d="M235.54,101Z"/><path class="cls-1" d="M265,379.8,265,379c.08.09.23.19.22.25A2.33,2.33,0,0,1,265,379.8Z"/><path class="cls-1" d="M244.69,100.58l-1.74-.24c.1-.08.21-.23.3-.21A9.94,9.94,0,0,1,244.69,100.58Z"/><path class="cls-1" d="M191,263.74c.29-.28.59-.55.21-.2l-.33.08Z"/><path class="cls-1" d="M178.69,265.09l-.85,0c.08-.08.18-.23.25-.22A2.44,2.44,0,0,1,178.69,265.09Z"/><path class="cls-1" d="M323.05,94.37c.4,0,.8.1.27,0,.47.26.13.07-.21-.11Z"/><path class="cls-1" d="M173.61,266.05l.88,0c-.08.08-.17.23-.23.22A3.09,3.09,0,0,1,173.61,266.05Z"/><path class="cls-1" d="M198,381.12l0,.84c-.09-.08-.26-.17-.25-.22A3.61,3.61,0,0,1,198,381.12Z"/><path class="cls-1" d="M336.65,123.74l-.95,0v-.23h.95Z"/><path class="cls-1" d="M322.32,116.19l-.66,0q.29-.09.57-.15S322.29,116.13,322.32,116.19Z"/><path class="cls-1" d="M79.78,273.54l.07.95-.22,0-.06-1Z"/><path class="cls-1" d="M181.39,267.17l1-.07v.22l-.94.07Z"/><path class="cls-1" d="M336.74,114.93l-.05-.68h.17l.05.68Z"/><path class="cls-1" d="M160.36,268.75l.07,1-.22,0-.07-1Z"/><path class="cls-1" d="M232.42,131.05h-1v-.22h1Z"/><path class="cls-1" d="M468.53,249.41l.18-.17-.29.07Z"/><path class="cls-1" d="M199.43,133.25Z"/><path class="cls-1" d="M307.94,116.14l.95-.07,0,.22-1,.06Z"/><path class="cls-1" d="M132.78,252.92a4.65,4.65,0,0,1-.7.28c-.06,0-.17-.17-.25-.26l.9-.22Z"/><path class="cls-1" d="M143.87,252.22l0,.69h-.17l-.05-.69Z"/><path class="cls-1" d="M348,125.07l1.56.21c-.09.07-.2.21-.28.2A11.26,11.26,0,0,1,348,125.07Z"/><path class="cls-1" d="M152.26,253.23l-.07-.95.21,0c0,.31.09.63.13.94Z"/><path class="cls-1" d="M274.58,131l.13-1.34.48.21-.72,1Z"/><path class="cls-1" d="M411.65,235.17h-1V235h1Z"/><path class="cls-1" d="M172.8,252.7l1.46-.29,0,.19Z"/><path class="cls-1" d="M417.82,340.59c-.27-.28-.54-.57-.15-.15-.15-.55,0-.15.07.25Z"/><path class="cls-1" d="M431.42,381.8l0,.87c-.08-.08-.24-.17-.23-.24A4.25,4.25,0,0,1,431.42,381.8Z"/><path class="cls-1" d="M66.78,262.53Z"/><path class="cls-1" d="M165.37,254.75l0,.95h-.2l-.06-.94Z"/><path class="cls-1" d="M357.46,387.05l-.07-.95h.24l0,1Z"/><path class="cls-1" d="M421.25,238.07l-1-.18c.11-.09.24-.27.33-.25a3.21,3.21,0,0,1,.72.24Z"/><path class="cls-1" d="M363,123.58l-.91.11,0-.24.91-.07Z"/><path class="cls-1" d="M308.4,388.72l.06.92h-.22c0-.3,0-.61,0-.92Z"/><path class="cls-1" d="M417.74,340.69l1.3.14-.22.48-1-.72Z"/><path class="cls-1" d="M471.36,236Z"/><path class="cls-1" d="M265.49,130.36c-.07-.38-.11-.62,0,0C265.53,129.74,265.52,130,265.49,130.36Z"/><path class="cls-1" d="M236.87,391.15c0-.32,0-.55,0-.77.09.07.25.17.24.21A3.06,3.06,0,0,1,236.87,391.15Z"/><path class="cls-1" d="M464.54,237.35l-.07-1h.22l.06,1Z"/><path class="cls-1" d="M439.09,260.88l1.71.24c-.1.07-.2.22-.29.21A13.16,13.16,0,0,1,439.09,260.88Z"/><path class="cls-1" d="M450.08,261.43l-.83-.05c.09-.07.19-.22.26-.2A2.46,2.46,0,0,1,450.08,261.43Z"/><path class="cls-1" d="M216.36,290.35l.07,1h-.28c0-.32,0-.65,0-1Z"/><path class="cls-1" d="M427.27,263.62l1,0v.22h-.94Z"/><path class="cls-1" d="M14.34,294l1.26.22a5.63,5.63,0,0,1-.69.24C14.83,294.5,14.72,294.34,14.34,294Z"/><path class="cls-1" d="M265.26,363.17c-.27-.31-.55-.61-.18-.21-.13-.53,0-.1.07.32Z"/><path class="cls-1" d="M242.15,123.52l-.86,0c.08-.08.16-.23.22-.22A5,5,0,0,1,242.15,123.52Z"/><path class="cls-1" d="M415.39,112.51l-.22.19.34-.08Z"/><path class="cls-1" d="M276.88,122.57l.95-.06,0,.22-1,.06Z"/><path class="cls-1" d="M280,361.06Z"/><path class="cls-1" d="M415.51,112.62c.3-.28.59-.57.21-.19.52-.14.1,0-.33.08Z"/><path class="cls-1" d="M212.78,360.58l.05.74-.18,0-.05-.74Z"/><path class="cls-1" d="M265.28,121.3c0,.37-.1.74-.06.45l.19-.35Z"/><path class="cls-1" d="M314.65,356c0,.36,0,.6,0,.85-.09-.08-.27-.19-.25-.24A2.68,2.68,0,0,1,314.65,356Z"/><path class="cls-1" d="M218.24,287.35l1-.8.25.48-1.34.23Z"/><path class="cls-1" d="M468.54,269.28l1-.07v.22l-1,.06Z"/><path class="cls-1" d="M195.76,108.82l-.07-1,.28,0,.06,1Z"/><path class="cls-1" d="M424.9,252.78l1-.07v.2l-.94.07Z"/><path class="cls-1" d="M333.91,123l-.07-.95.24,0,.06,1Z"/><path class="cls-1" d="M263.71,104.76l1-.07,0,.21-1,.07Z"/><path class="cls-1" d="M279.91,126.83a4.49,4.49,0,0,1-.77.29c-.06,0-.18-.17-.28-.27l1-.22Z"/><path class="cls-1" d="M170,360.2Z"/><path class="cls-1" d="M284.79,367.37l0,.94h-.28l.06-.94Z"/><path class="cls-1" d="M213.5,269.7l-.88,1c-.1-.16-.21-.31-.31-.46l1.31-.39Z"/><path class="cls-1" d="M332,362.19l1,0v.22h-1Z"/><path class="cls-1" d="M317.71,97.57l1-.06v.21l-.95.07Z"/><path class="cls-1" d="M332,358.69c-.08.6-.12.93-.16,1.25a3,3,0,0,1-.23-.69C331.57,359.16,331.72,359,332,358.69Z"/><path class="cls-1" d="M185.55,132.47l-.06-.9.26,0,.07.9Z"/><path class="cls-1" d="M4.94,289.39l-1.72-.24c.1-.08.2-.23.29-.22A11.89,11.89,0,0,1,4.94,289.39Z"/><path class="cls-1" d="M170.44,133.63l-1,.07,0-.2,1-.07Z"/><path class="cls-1" d="M187.36,107.54l.77,0c-.22,0-.44.12-.67.16C187.44,107.75,187.4,107.61,187.36,107.54Z"/><path class="cls-1" d="M474.59,257.15l-1,.06V257l1-.07Z"/><path class="cls-1" d="M341.47,120.58l.95,0v.22h-.94Z"/><path class="cls-1" d="M247.7,101.76c-.15,1.09-.19,1.41-.23,1.73-.08-.1-.23-.21-.21-.3A9.1,9.1,0,0,1,247.7,101.76Z"/><path class="cls-1" d="M307.3,123.58c0-.42.07-.84,0-.28l-.14.18Z"/><path class="cls-1" d="M217.75,106.43l-.07-1,.23,0,.15,1Z"/><path class="cls-1" d="M187.28,278.88a4.54,4.54,0,0,1-.23-.68c0-.08.14-.18.22-.27l.2.91Z"/><path class="cls-1" d="M245.72,87.1c-.09.58-.14.89-.19,1.2a4,4,0,0,1-.22-.67C245.3,87.55,245.45,87.44,245.72,87.1Z"/><path class="cls-1" d="M130.23,239.28l.69-.05v.17l-.69,0Z"/><path class="cls-1" d="M216.23,351h0C216.28,350.48,216.26,350.69,216.23,351Z"/><path class="cls-1" d="M248,134.57l1.73.25c-.1.08-.21.24-.29.22A10.87,10.87,0,0,1,248,134.57Z"/><path class="cls-1" d="M447.87,284.09c.24.29.47.58.19.24L448,284Z"/><path class="cls-1" d="M218.57,137.19l-1.18-.17a4.92,4.92,0,0,1,.65-.21C218.13,136.8,218.24,137,218.57,137.19Z"/><path class="cls-1" d="M448,284l-1.36-.13.23-.47,1,.72Z"/><path class="cls-1" d="M213.52,299.92a4.21,4.21,0,0,1,.65-.23c.06,0,.16.14.23.22l-.84.18Z"/><path class="cls-1" d="M309.59,105.09c0-.31,0-.62,0-.93h.2l.06.93Z"/><path class="cls-1" d="M336,113.79l-1.85-.25c.1-.08.22-.23.31-.22A13.25,13.25,0,0,1,336,113.79Z"/><path class="cls-1" d="M265.64,108.05l1-.07,0,.21-1,.15Z"/><path class="cls-1" d="M268.06,90.9v.93h-.21c0-.31,0-.62,0-.93Z"/><ellipse class="cls-1" cx="135.21" cy="245.86" rx="0.68" ry="0.15" transform="translate(-16.82 10.03) rotate(-4)"/><path class="cls-1" d="M163.54,243.78l1-.07v.22l-1,.07Z"/><path class="cls-1" d="M352.09,400.53c0,.46,0,.92-.07,1.38l-.53-.24.71-1.05Z"/><path class="cls-1" d="M327.86,401.81l-.05-.68H328c0,.23,0,.46,0,.68Z"/><path class="cls-1" d="M193.14,241.92l-.67.05v-.17l.67,0Z"/><path class="cls-1" d="M295.64,421.61l.81,1-.36.22-.34-1.35Z"/><path class="cls-1" d="M355.14,418.29c.05-.43.11-.86.16-1.3l.45.23-.71,1Z"/><path class="cls-1" d="M174.36,230.55l.17-1.09a4,4,0,0,1,.23.66C174.77,230.19,174.61,230.29,174.36,230.55Z"/><path class="cls-1" d="M127,234.55c0-.32,0-.65,0-1h.25c0,.32,0,.65,0,1Z"/><path class="cls-1" d="M167.92,231.6l-.66.29v-.51Z"/><path class="cls-1" d="M180.47,230.66l-.09-.7.16,0,.05.72Z"/><path class="cls-1" d="M458.71,211.2l.69,0v.16l-.68.05Z"/><path class="cls-1" d="M342.09,129.94l1-.07v.23h-1Z"/><path class="cls-1" d="M453.61,212.61l-1,.06v-.24h1Z"/><path class="cls-1" d="M105.29,237.39l1.73.23c-.1.08-.21.23-.3.22A13.7,13.7,0,0,1,105.29,237.39Z"/><path class="cls-1" d="M308,132.21l1.17.16a3.57,3.57,0,0,1-.68.27C308.41,132.66,308.29,132.49,308,132.21Z"/><path class="cls-1" d="M447.8,214.3l1.67.22c-.1.08-.2.22-.29.21A14.37,14.37,0,0,1,447.8,214.3Z"/><ellipse class="cls-1" cx="228.4" cy="86.46" rx="0.15" ry="0.68" transform="matrix(1, -0.07, 0.07, 1, -5.48, 16.15)"/><path class="cls-1" d="M372.16,411.48l.06.95-.21,0-.07-.95Z"/><path class="cls-1" d="M198.86,140.11l-.75,0Z"/><path class="cls-1" d="M149.8,143.57l-1,.07c0-.08,0-.16,0-.24l1-.07Z"/><path class="cls-1" d="M345.7,410c0,.32,0,.63,0,.94h-.22c0-.32,0-.63,0-.94Z"/><path class="cls-1" d="M348.69,410.65c.13-1.1.17-1.44.22-1.79.07.11.22.23.21.33A13.16,13.16,0,0,1,348.69,410.65Z"/><path class="cls-1" d="M153,245l-.15,1.37-.49-.25.76-1Z"/><path class="cls-1" d="M370.38,394.14l-.15,1.33-.5-.24.76-1Z"/><path class="cls-1" d="M459.57,225l-1,.07v-.21l.95-.07Z"/><path class="cls-1" d="M355.58,395.16h0C355.6,394.4,355.59,394.62,355.58,395.16Z"/><path class="cls-1" d="M206.19,123.26l1-.07v.23l-1,.07Z"/><path class="cls-1" d="M306.64,402.54l-.08-1h.22l.07,1Z"/><path class="cls-1" d="M220.87,136.14l-.87.12,0-.39.89,0Z"/><path class="cls-1" d="M337.77,127l-.68.25v-.52Z"/><path class="cls-1" d="M354.51,97.7l-.05.84c-.08-.09-.22-.18-.21-.25A3,3,0,0,1,354.51,97.7Z"/><path class="cls-1" d="M252.28,118l-.23.36.35-.26Z"/><path class="cls-1" d="M214.73,152.18l.31-.59-.39.53Z"/><path class="cls-1" d="M260.84,131l-.25.41.36-.31Z"/><polygon class="cls-1" points="251.88 132.09 252.1 132 252.08 132.22 251.88 132.09"/><path class="cls-1" d="M251.42,116.32l-.42-.26.33.37Z"/><polygon class="cls-1" points="344.02 35.49 343.94 35.28 344.15 35.31 344.02 35.49"/><path class="cls-1" d="M240.86,112.8c-.1.2-.19.4-.11.22l.22-.12Z"/><path class="cls-1" d="M214,153.12l.78-.94-.08-.06-.82.91Z"/><polygon class="cls-1" points="240.28 0.22 240.15 0 240.42 0.01 240.28 0.22"/><path class="cls-1" d="M225.48,135.29l.24-.43-.36.33Z"/><polygon class="cls-1" points="336.97 104.98 336.89 104.77 337.1 104.8 336.97 104.98"/><path class="cls-1" d="M214.79,141.06l-.4-.29.37.33Z"/><path class="cls-1" d="M382.81,84.17c-.09.2-.18.39-.26.58l.28-.55Z"/><polygon class="cls-1" points="248.65 107.51 248.71 107.78 248.51 107.75 248.65 107.51"/><polygon class="cls-1" points="251.16 120.98 251.38 120.9 251.35 121.13 251.16 120.98"/><polygon class="cls-1" points="250.84 100.68 250.6 100.75 250.62 100.55 250.84 100.68"/><polygon class="cls-1" points="316.77 106.91 316.89 107.16 316.64 107.14 316.77 106.91"/><path class="cls-1" d="M261,131.1l.11-.24-.22.14Z"/><polygon class="cls-1" points="269.86 96.74 270.09 96.67 270.06 96.87 269.86 96.74"/><polygon class="cls-1" points="280.01 128.42 279.75 128.5 279.77 128.28 280.01 128.42"/><path class="cls-1" d="M382.83,84.2l.28-.58-.3.55Z"/><path class="cls-1" d="M323.11,94.29l-.67-.42.61.5Z"/><path class="cls-1" d="M307.18,123.48l-.27.35.39-.25Z"/><polygon class="cls-1" points="247.16 96.68 246.92 96.75 246.94 96.55 247.16 96.68"/><path class="cls-1" d="M257.76,122l.27-.42-.38.33Z"/><polygon class="cls-1" points="349.32 62.38 349.26 62.14 349.46 62.17 349.32 62.38"/><polygon class="cls-1" points="351.25 127.67 351.48 127.61 351.45 127.8 351.25 127.67"/><path class="cls-1" d="M233.37,103.1c-.13.16-.26.32-.26.33l.37-.22Z"/><path class="cls-1" d="M223.07,149.9l.4-.45-.46.4Z"/><path class="cls-1" d="M231.32,134.75l-.32.41.42-.33Z"/><polygon class="cls-1" points="211.76 114.48 211.53 114.55 211.56 114.35 211.76 114.48"/><polygon class="cls-1" points="280.31 99.41 280.55 99.36 280.52 99.54 280.31 99.41"/><polygon class="cls-1" points="356.83 73.61 357.04 73.53 357.01 73.74 356.83 73.61"/><polygon class="cls-1" points="237.77 110.79 237.86 111 237.64 110.98 237.77 110.79"/><path class="cls-1" d="M213.28,70.55c.12-.18.23-.36.27-.41l-.37.32Z"/><polygon class="cls-1" points="279.99 362.79 279.9 362.53 280.11 362.55 279.99 362.79"/><path class="cls-1" d="M265.15,363.28l.4.26-.29-.37Z"/><path class="cls-1" d="M306.62,359.55l.4.26-.31-.39Z"/><path class="cls-1" d="M408.09,349l.23.08c.1.15,0,0-.13-.2Z"/><polygon class="cls-1" points="264.41 359.44 264.63 359.31 264.61 359.61 264.41 359.44"/><polygon class="cls-1" points="327.05 354.27 327.24 354.17 327.23 354.42 327.05 354.27"/><polygon class="cls-1" points="269.59 358.06 269.67 358.37 269.46 358.35 269.59 358.06"/><path class="cls-1" d="M472.33,341.89l-.12.39.22-.3Z"/><path class="cls-1" d="M472.43,342l.25-.59c-.12.17-.24.33-.35.5Z"/><path class="cls-1" d="M199.21,357.57l-.21.32.3-.24Z"/><path class="cls-1" d="M218.8,356.33l.15-.39-.27.3Z"/><path class="cls-1" d="M218,356.27l-.4-.22.3.34Z"/><path class="cls-1" d="M245.57,351l1-.05-.11-.11-.39.52-.41-.47Z"/><path class="cls-1" d="M272,385.69l-.41-.17.31.3Z"/><path class="cls-1" d="M350.07,371.7l-.21.42.33-.32Z"/><path class="cls-1" d="M326.34,373.48l.29.2-.19-.32Z"/><polygon class="cls-1" points="345.27 370.09 345.2 369.81 345.42 369.84 345.27 370.09"/><path class="cls-1" d="M401.71,365.68l.22-.39-.34.3Z"/><path class="cls-1" d="M409.11,363.32l-.24.46.35-.36Z"/><path class="cls-1" d="M241.12,370.83l-.61-.22.51.34Z"/><path class="cls-1" d="M244.65,325.44c-.1.2-.2.4-.11.23l.23-.12Z"/><polygon class="cls-1" points="228.77 324.54 228.7 324.31 228.91 324.35 228.77 324.54"/><path class="cls-1" d="M33.38,336.84l-.11.21.23-.12Z"/><path class="cls-1" d="M33.5,336.93c.07-.19.13-.38.08-.23l-.2.14Z"/><polygon class="cls-1" points="229.66 321.85 229.4 321.96 229.42 321.68 229.66 321.85"/><polygon class="cls-1" points="169.46 317.57 169.72 317.44 169.7 317.75 169.46 317.57"/><path class="cls-1" d="M216.67,313.88l.35-.58.42.53.09-.12-1,.06Z"/><path class="cls-1" d="M478.35,293.89l.25.08-.15-.2Z"/><path class="cls-1" d="M478.45,293.77l-.38-.24.28.36Z"/><polygon class="cls-1" points="228.22 303.43 228.14 303.17 228.33 303.19 228.22 303.43"/><path class="cls-1" d="M149.87,308.35l.23-.42-.35.33Z"/><path class="cls-1" d="M199.9,354.22a3,3,0,0,0,.25-.31l-.35.23Z"/><path class="cls-1" d="M423.44,336.88l.42.28-.35-.37Z"/><path class="cls-1" d="M282.76,346.62l.09.08Z"/><path class="cls-1" d="M250.5,348.11c.17.11.34.21.26.17l-.2-.23Z"/><path class="cls-1" d="M243,349.53l.24-.39-.36.28Z"/><path class="cls-1" d="M451.21,332.39l.09-.11Z"/><path class="cls-1" d="M454.78,321.89l.37.29-.33-.33Z"/><polygon class="cls-1" points="243.33 336.95 243.43 337.14 243.2 337.13 243.33 336.95"/><polygon class="cls-1" points="441.35 318.25 441.27 318 441.5 318.03 441.35 318.25"/><path class="cls-1" d="M248.94,326l-.26.41.38-.32Z"/><path class="cls-1" d="M408.87,481.83a3.22,3.22,0,0,0,.37.19l-.28-.29Z"/><path class="cls-1" d="M330.06,487.35l.33.18-.25-.28Z"/><polygon class="cls-1" points="255.81 490.51 255.73 490.3 255.94 490.32 255.81 490.51"/><path class="cls-1" d="M285.86,549.22l.4.25-.31-.36Z"/><path class="cls-1" d="M286,549.11l-.42-.27.33.38Z"/><polygon class="cls-1" points="246.74 517.43 246.49 517.5 246.52 517.3 246.74 517.43"/><polygon class="cls-1" points="273.54 514.69 273.75 514.6 273.73 514.82 273.54 514.69"/><path class="cls-1" d="M232.89,510.34l.09-.11Z"/><path class="cls-1" d="M233,510.23l-.39-.26.3.37Z"/><polygon class="cls-1" points="329 404.57 328.9 404.31 329.12 404.31 329 404.57"/><path class="cls-1" d="M237.9,410.35l-.1-.09Z"/><polygon class="cls-1" points="249.03 405.51 249.13 405.72 248.9 405.71 249.03 405.51"/><polygon class="cls-1" points="470.02 386.67 470.11 386.95 469.88 386.93 470.02 386.67"/><path class="cls-1" d="M390.37,387.74l.23.08c.14.19,0,0-.14-.18Z"/><polygon class="cls-1" points="240.86 398.72 240.74 398.46 241.03 398.48 240.86 398.72"/><path class="cls-1" d="M386.18,437.43l.35.23-.26-.34Z"/><polygon class="cls-1" points="296.6 440.83 296.52 440.61 296.72 440.63 296.6 440.83"/><path class="cls-1" d="M412.17,431.26c-.11.16-.21.33-.32.5l-.48-.45-.08.11,1-.07Z"/><path class="cls-1" d="M410.38,428.83l-.93.08.08.07-.06-1-.08.1.92.8Z"/><path class="cls-1" d="M366.46,421.81l.23-.43-.35.33Z"/><path class="cls-1" d="M355.1,419.19l.92.78.1-.12-.93-.76Z"/><path class="cls-1" d="M355,418.22l.06,1,.09-.1-.53-.36.48-.44Z"/><path class="cls-1" d="M320.4,420.65l-.42-.29.33.4Z"/><path class="cls-1" d="M225.55,418l.09-.11Z"/><polygon class="cls-1" points="36.48 240.69 36.58 240.9 36.35 240.88 36.48 240.69"/><path class="cls-1" d="M180.17,219.24l-.11.22.23-.11Z"/><path class="cls-1" d="M188.4,215.25c-.07.22-.15.43-.08.25-.14.12,0,0,.18-.17Z"/><path class="cls-1" d="M194,209l.29-.34-.33.31Z"/><path class="cls-1" d="M141.48,212.58l-.4-.25.3.36Z"/><polygon class="cls-1" points="460.23 185.79 460.11 185.6 460.38 185.61 460.23 185.79"/><path class="cls-1" d="M198.28,246.92l-.11.23.23-.11Z"/><polygon class="cls-1" points="153.03 250.72 152.94 250.51 153.16 250.53 153.03 250.72"/><path class="cls-1" d="M181.28,247.27l-.11.22.22-.11Z"/><polygon class="cls-1" points="417.14 228.82 417.04 228.61 417.29 228.64 417.14 228.82"/><path class="cls-1" d="M126,248.67l.43.3-.36-.39Z"/><polygon class="cls-1" points="148.35 245.92 148.24 245.7 148.5 245.73 148.35 245.92"/><polygon class="cls-1" points="185.65 242.57 185.56 242.32 185.75 242.33 185.65 242.57"/><polygon class="cls-1" points="138.91 244.07 138.83 243.85 139.03 243.86 138.91 244.07"/><polygon class="cls-1" points="140.45 240.26 140.55 240.47 140.3 240.44 140.45 240.26"/><path class="cls-1" d="M183,235.21l-.27.42.38-.33Z"/><path class="cls-1" d="M469.25,212.63l-.23.42.36-.32Z"/><path class="cls-1" d="M203.48,175l-.33.4.41-.33Z"/><path class="cls-1" d="M453.43,156.72l-.29.6.38-.53Z"/><path class="cls-1" d="M453.52,156.79l.22-.33-.31.26Z"/><path class="cls-1" d="M363.41,160.44l-.18.32.27-.25Z"/><polygon class="cls-1" points="366.87 155.28 367 155.56 366.74 155.56 366.87 155.28"/><path class="cls-1" d="M340.82,152.76l.23-.43-.34.35Z"/><polygon class="cls-1" points="360.25 145.67 360.35 145.9 360.09 145.88 360.25 145.67"/><path class="cls-1" d="M169.06,205.64l-.07-.06Z"/><path class="cls-1" d="M141,206.68l-.25.37.33-.3Z"/><path class="cls-1" d="M141,206.75l-.08-.07Z"/><path class="cls-1" d="M378.25,188.36l-.25-.1c-.11-.14,0,0,.15.21Z"/><path class="cls-1" d="M209.42,199.4l.41.27-.33-.36Z"/><polygon class="cls-1" points="186.91 199.51 187.02 199.72 186.76 199.71 186.91 199.51"/><path class="cls-1" d="M186.24,196.77l.38.3-.3-.4Z"/><polygon class="cls-1" points="137.65 187.81 137.41 187.86 137.44 187.68 137.65 187.81"/><path class="cls-1" d="M413,161.24l-.69-.19.62.27Z"/><polygon class="cls-1" points="455.05 271.31 454.97 271.1 455.19 271.13 455.05 271.31"/><path class="cls-1" d="M218.12,287.26l-.2.38.32-.29Z"/><polygon class="cls-1" points="437.91 268.81 437.99 269.02 437.79 269.01 437.91 268.81"/><path class="cls-1" d="M460.06,263.65l.4.26-.31-.37Z"/><path class="cls-1" d="M460.15,263.54l-.41-.29.32.4Z"/><path class="cls-1" d="M445.6,263.79l.18.08a1.94,1.94,0,1,1-.11-.17Z"/><path class="cls-1" d="M445.67,263.7l-.65-.2.58.29Z"/><polygon class="cls-1" points="435.57 260.74 435.48 260.54 435.7 260.57 435.57 260.74"/><path class="cls-1" d="M218.35,300.88l-.41-.21s.17.17.31.33Z"/><polygon class="cls-1" points="83 308.15 83.08 308.36 82.87 308.33 83 308.15"/><polygon class="cls-1" points="231.25 297.19 231.15 296.91 231.4 296.93 231.25 297.19"/><path class="cls-1" d="M112,304.92l-.22.37.34-.27Z"/><path class="cls-1" d="M112.16,305l.24-.61-.36.51Z"/><path class="cls-1" d="M209.4,294.7l-.39-.23.28.35Z"/><path class="cls-1" d="M131.23,299.32l-.25.4.36-.31Z"/><path class="cls-1" d="M132,298.42l-.8.9.11.09.8-.9Z"/><polygon class="cls-1" points="89.26 302 89.16 301.79 89.4 301.82 89.26 302"/><path class="cls-1" d="M132.14,298.51l.27-.42-.38.33Z"/><path class="cls-1" d="M128.94,266.28a3.82,3.82,0,0,0-.25.33l.37-.23Z"/><polygon class="cls-1" points="20.08 274.5 20 274.28 20.21 274.3 20.08 274.5"/><path class="cls-1" d="M129.06,266.38c.07-.19.14-.39.09-.24l-.21.14Z"/><polygon class="cls-1" points="454.71 242.37 454.63 242.17 454.85 242.2 454.71 242.37"/><path class="cls-1" d="M161,262.29l-.23.43.35-.34Z"/><path class="cls-1" d="M150.06,262.23l-.42-.26.33.38Z"/><path class="cls-1" d="M190.41,256c-.09.21-.17.43-.08.19l.15-.13Z"/><path class="cls-1" d="M169.2,255.79l-.42-.27.33.37Z"/><polygon class="cls-1" points="158.47 255.18 158.54 255.41 158.34 255.38 158.47 255.18"/><polygon class="cls-1" points="157.62 253.72 157.41 253.81 157.44 253.58 157.62 253.72"/><path class="cls-1" d="M179,250.86l.08.07Z"/><path class="cls-1" d="M179.05,250.93c.1-.24.2-.48.08-.2l-.16.13Z"/><polygon class="cls-1" points="442.95 257.51 443.22 257.46 443.19 257.65 442.95 257.51"/><path class="cls-1" d="M468.42,249.31l-.81.93.11.1.81-.93Z"/><polygon class="cls-1" points="181.5 269.8 181.73 269.72 181.69 269.95 181.5 269.8"/><path class="cls-1" d="M154.84,271.28l-.3.4.39-.32Z"/><path class="cls-1" d="M154.93,271.36l.27-.4-.36.32Z"/><path class="cls-1" d="M444.65,249.39l-.07-.07Z"/><path class="cls-1" d="M253.38,144.3l-2.21-1c1.39-.52,1.39-.52,2.11,1.1Z"/><path class="cls-1" d="M243.14,146l.39,0-.29-.17Z"/><path class="cls-1" d="M246.66,145.61c-.28-.26-.56-.51-.17-.16-.14-.51,0-.12.07.27Z"/><path class="cls-1" d="M242.61,148.43l-.24-.08c-.11-.17,0,0,.14.2Z"/><polygon class="cls-1" points="221.05 190.42 221.33 190.36 221.31 190.55 221.05 190.42"/><path class="cls-1" d="M210,218.12l1.54-1,.21.45-1.86.44Z"/><path class="cls-1" d="M235.9,139.54l-.23.36.35-.26Z"/></g></g></svg>