<svg xmlns="http://www.w3.org/2000/svg" viewBox="0 0 66.24 64.62"><defs><style>.cls-1{fill:#91f2f2;}</style></defs><title>Asset 113</title><g id="Layer_2" data-name="Layer 2"><g id="Layer_6" data-name="Layer 6"><path class="cls-1" d="M24,16.78l-.1-.2h.28l-.11-.15,0-.33-.26-.19.29-.12h0l.17-.21-.39-.14h0a3.29,3.29,0,0,0,.14-1h0l.12-.17-.31-.23.07-.28-.11,0-.19-.71a5.31,5.31,0,0,0,0-1.33c0-.45,0-.89.07-1.36l-.15-.18-.14,0c-.56-.05-.63-.11-.79-.63a1.29,1.29,0,0,0-.08-.28,1.06,1.06,0,0,1-.18-.85l.2-.07.06-.21.41-.21,1.19.83h.34c.39-.17.73-.34,1.08-.47A6,6,0,0,1,27.17,8,1.46,1.46,0,0,1,28,8a1.27,1.27,0,0,0,.48,0A3.23,3.23,0,0,1,30,8.49c.51.27,1,.56,1.52.86s.77.45,1.14.7a3.88,3.88,0,0,0,1.13.43l.81.21a4.25,4.25,0,0,0,.59.15,5.26,5.26,0,0,1,1.16.32,2.45,2.45,0,0,1,1,.72,1.58,1.58,0,0,0,.34.29.43.43,0,0,0,0,.07,13.24,13.24,0,0,0,.51,1.37,2.52,2.52,0,0,1,0,1.49c-.06.48-.2,1-.3,1.43,0,0,0,.06-.09.15-.08-.34,0-.64-.11-.93-.15.37-.15.37,0,1l.1.05H38l-.13.88.17.44.26.18.09.47-.24.32a1.15,1.15,0,0,1-.66,0A1.6,1.6,0,0,0,37,19a1,1,0,0,0-.91.57l-.34.68c.1.48.2,1,.29,1.49a3.23,3.23,0,0,1,0,.53,1.26,1.26,0,0,0,.25.76,2.18,2.18,0,0,1,.32,1.16,9.86,9.86,0,0,0,.16,1.33,3.92,3.92,0,0,1,.06,1.49,2.6,2.6,0,0,1-.22.53l.18.3a.71.71,0,0,1,.53.81,1,1,0,0,1,.39,1,2.39,2.39,0,0,0,.06.69l.21.16-.24,0c-.09.24,0,.43.12.62a1.49,1.49,0,0,0,.84-.05c.47-.09.93-.16,1.44-.24l.19-.14,1.46,0,.41-.37a.21.21,0,0,1,.27.13.49.49,0,0,0,.49.27c.35,0,.7.08,1.07.12l.62.52c.1.3,0,.74.36.95l.15.48c-.05.06-.1.17-.19.21a1,1,0,0,0-.5.77c-.21,0-.06.3-.23.37a1.46,1.46,0,0,0,.07,1.46,1.23,1.23,0,0,1,.15.83,2,2,0,0,0,.35,1.14,1,1,0,0,1,.13.66h-.21l-.18-.63a.86.86,0,0,0-.8.48l-.35,1.5.15.27a1.82,1.82,0,0,0,0,.4,2.75,2.75,0,0,1-.32,1.8,5.48,5.48,0,0,1-.52.77,3.85,3.85,0,0,0-.37.86c-.09.25-.19.5-.28.71l-.49.19a9.48,9.48,0,0,1-.18,1c-.09.3-.23.57-.34.84a.71.71,0,0,1-.17.09,1.17,1.17,0,0,0-.83,1,2.66,2.66,0,0,1-.27.76,2,2,0,0,1-.43.54l-.19.61c-.18.23-.49-.17-.74.17a.59.59,0,0,0-.06.21,4.71,4.71,0,0,0,0,.53,2,2,0,0,1-.12.64,2.6,2.6,0,0,0-.15.84,3.94,3.94,0,0,0,.1,1.41,3.44,3.44,0,0,1,0,1.11l-.86.1-.43.32a1.79,1.79,0,0,1-.55.83,3.23,3.23,0,0,0-.71.72,1.55,1.55,0,0,1-.81.57,6.38,6.38,0,0,1-1.43.24l-.59.06c-.39.09-.72.18-1.07.25s-.9.17-1.35.23a3.35,3.35,0,0,0-.62.17,7.43,7.43,0,0,1-1.14.23A.92.92,0,0,1,28,58c-.41-.3-.92-.5-1.18-1-.24-.14-.35-.44-.73-.48l-.2,0,0-.39a.83.83,0,0,0,0-.84,8.84,8.84,0,0,1-.48-1.24.78.78,0,0,0-.23-.38,6.31,6.31,0,0,1-.73-1l-.39-.49,0-.1-.63-1a1.88,1.88,0,0,0-.16-.23c-.31-.3-.64-.59-.94-.9a1.86,1.86,0,0,0-.85-.53,2.16,2.16,0,0,1-.33-.14l.17-.28c0-.17-.07-.31-.24-.33l-.44.51c0,.25.29,0,.37.13s.07.3,0,.43a.8.8,0,0,1-.62.41l-.21.24-.43-.17-.72,1h0a1.14,1.14,0,0,1,.12-.34c.31-.46.64-.91,1-1.39l0-.61a4.09,4.09,0,0,0,1.08-.78l.15-.87c-.06-.06-.16-.15-.25-.25a.87.87,0,0,1-.36-.74.6.6,0,0,0-.09-.34,1.32,1.32,0,0,1-.15-.75,3.89,3.89,0,0,1,0-.49,1.18,1.18,0,0,1,.11-.39q.33-.59.69-1.14a2.54,2.54,0,0,1,.28-.29,3.32,3.32,0,0,1,.26-.36,2.25,2.25,0,0,1,.8-.48A3.27,3.27,0,0,0,24,41.32c.06-.28.1-.53.16-.78a1.24,1.24,0,0,1,.45-.73c.34-.28.67-.58,1-.84l.42-.3.17-.55.45-.78-.24-.25.43,0,.3-.4a3.27,3.27,0,0,0-.71-.16,5.41,5.41,0,0,1-1.14-.27c-.27-.05-.54-.07-.8-.1a.45.45,0,0,0-.39.16,2.25,2.25,0,0,0-.72.95c-.05.16-.2.28-.28.44a2.52,2.52,0,0,0-.17.41.87.87,0,0,1-.38.53v.18l-.32.11a4.21,4.21,0,0,1-1.31,1.36,3.54,3.54,0,0,0-.51,1.16H20.3c.06.25-.28.46-.1.73h.37a.27.27,0,0,1,0,.31c-.1.16-.21.31-.3.48a.71.71,0,0,0-.06.19l-.19.1c-.26-.25-.14-.51,0-.77-.2-.11-.42,0-.6-.09a1.65,1.65,0,0,0-.95,1.11.5.5,0,0,0,0,.12,1.42,1.42,0,0,1-.41.72,4.1,4.1,0,0,0-.68.7,4.39,4.39,0,0,0-.34.5l-.81,1.17c-.18.26-.37.51-.55.76a1.37,1.37,0,0,1-.18.16c.26.41-.13.69-.2.95a8.69,8.69,0,0,0-.62.73c-.21.33-.37.69-.57,1a.76.76,0,0,1-.26.3,2,2,0,0,0-.75.79,2,2,0,0,1-.21.24l-.78.12c-.64-.12-.58-.64-.68-1.08l.16-.5a4.7,4.7,0,0,1,.24-1.58l-.23-.07.06-.1.16,0c-.05-.17-.11-.34-.15-.51a1.45,1.45,0,0,1,0-.55l.38-1,.37,0a1.4,1.4,0,0,1,.18-.13c.14-.1.33-.15.39-.36,0,0,.12-.2.26-.11.21-.12.5-.12.65-.37l.32,0,.08-.16,1.06-.31a.8.8,0,0,0,.32-.16c.28-.34.73-.47,1-.79a.3.3,0,0,1,.15-.07.46.46,0,0,0,.34-.28.68.68,0,0,1,.47-.34l.62-.94.07.09.34-.62a.89.89,0,0,1,.21-.34,2.31,2.31,0,0,0,.62-.89l.09-.2a1.4,1.4,0,0,0,.52-.58c.13-.26.43-.33.61-.58a4.54,4.54,0,0,1-.05-.66,3.68,3.68,0,0,1,.2-.7c.07-.21.08-.46.26-.58l.23-.64h0l.49-.74a.49.49,0,0,0,.39-.28l0,0,0,0-.09-.12c.29-.05.45-.21.47-.37l.45-.6.26,0-.21-.21.19-.1.09.09,0-.05-.13,0A3.73,3.73,0,0,0,23.67,33c0-.16.07-.36.3-.42l-.08-.1.09-.24.35-.1-.19-.07s0-.06,0-.07l.57-.37.71-.44.19,0,.1.06,0,0-.12,0,.12-.19.95-.31a.71.71,0,0,1,.24-.06,1.12,1.12,0,0,0,.8-.29c.1-.32.21-.65.3-1a1.09,1.09,0,0,1,.39-.6,1.16,1.16,0,0,0,.49-.89,3.49,3.49,0,0,1,.11-.71A3.06,3.06,0,0,0,29.13,26a1.06,1.06,0,0,1,0-.39l0,.09h0a2.52,2.52,0,0,1-.08-.54,3.16,3.16,0,0,1,.11-.6l.22.06-.19-.35.17-.35-.55-.8-.57-.69-.88-.26L26.72,21a2.77,2.77,0,0,1-1.14-.91,5.07,5.07,0,0,1-.91-1.2,2.12,2.12,0,0,1-.11-.21,4.82,4.82,0,0,0-.31-.74,1.09,1.09,0,0,1-.16-.87h0s0,0,0,0a.12.12,0,0,1-.07,0v-.37h.09c0,.11.1.11.2,0l-.21,0,0-.05ZM14.92,48.34l0,0,0,0,0-.06,0,.05,0,0,0,0ZM12,48.16l0,0,0,.06,0,0ZM34.2,10.74l0,0,0,0,0-.05Zm-1.51,4.68c-.12,0-.25-.11-.34.06l0,0,0,0c.11,0,.24.07.33-.06h.2l0-.06Zm1.88,0v.23l.19-.19-.21,0c-.07-.1-.15-.2-.33-.12C34.34,15.47,34.47,15.42,34.57,15.44ZM28.14,32.06,28.05,32l0,0,.12,0a2.83,2.83,0,0,0-1,.51,12.84,12.84,0,0,0-1.08,1.26,4.71,4.71,0,0,1-.55.7,12.64,12.64,0,0,0-.91,1,.39.39,0,0,0-.11.47,4.22,4.22,0,0,1,1.3.25,1.32,1.32,0,0,0,.28,0,1.9,1.9,0,0,1,.25,0l1.19.22a1.19,1.19,0,0,0,.19,0l.76-1.23.11-.92c.13-.22.33-.52.51-.84a2.18,2.18,0,0,0,.45-1.2c0-.08.05-.15.08-.22.12-.3.25-.59.36-.88a2.84,2.84,0,0,1,.44-1s0-.09,0-.14a.61.61,0,0,0,.41-.4,6.73,6.73,0,0,1,.66-1.06,2.23,2.23,0,0,1,.7-.83.93.93,0,0,0,.24-.41c.06-.11.06-.24.12-.34s.25-.35.37-.52l.23,0,.54.51.48-.09.15-.42.17,0,0-.11.4,0,.32-.54a7.61,7.61,0,0,0-.17-1.65c-.16-.5-.35-1-.54-1.51l-.77-.5-.26.13c0,.16-.11.3-.14.44a3.34,3.34,0,0,0-.07.42l.33.4c-.05.59-.18.69-.93.74-.19.22-.4.45-.6.69a1.91,1.91,0,0,0-.28.4,1.91,1.91,0,0,1-.36.53,1.27,1.27,0,0,0-.18.27,6,6,0,0,1-.71,1,1.8,1.8,0,0,0-.52,1.11c0,.06-.08.1-.1.14A6.53,6.53,0,0,1,29.07,30a1.43,1.43,0,0,0-.28.76l.23.17-.07.28h-.1s-.06-.05,0,0,0,0,0,0l.05.33-.29.34ZM40,33.94a1.1,1.1,0,0,0-.67-.47,4.85,4.85,0,0,1-1-.35.4.4,0,0,0-.38,0l-.13.52a6,6,0,0,1,.3.76,1.15,1.15,0,0,0,.4.61c.27.09.4-.11.56-.22s.26-.31.4-.44A5.64,5.64,0,0,1,40,33.94Zm-3.43,1.51a3.72,3.72,0,0,1-.33.51c-.12.15-.31.25-.3.51l.56,0,.51-.34.11-.3C37,35.62,36.91,35.42,36.56,35.45ZM35.11,15.9l.06,0-.09-.35.06-.11-.2-.41-.33.08v.15l.31,0-.06.42ZM32,24.06l-.23-.31-.06,0,0,.37Zm2.52-6.41c.19-.07.35-.09.38-.28C34.77,17.44,34.55,17.35,34.5,17.65Zm0-1.06-.4.09C34.27,16.73,34.41,16.77,34.52,16.59Zm-1.13,1c.09.12.17.19.31.09C33.62,17.49,33.53,17.5,33.39,17.55Zm1.39-.33a.25.25,0,0,0,.36-.1Zm-2,.37c-.05-.05-.07-.08-.1-.09s-.07,0-.12,0S32.65,17.64,32.78,17.59Zm1-7v0l.17.07,0-.07Zm1.35,6.38c-.1-.12-.1-.12-.16,0Zm-5.56-.33-.13,0,.11.23Zm-2.07-.92,0,.16.19-.14Zm7,0V15.6h-.17v.06Zm-2.7,8v-.06h-.17v.06Zm5.34-9.16-.07.06.1.07,0,0ZM15.33,47.82l0,0,.07.09,0,0ZM26.59,31.25l.05,0,0,0ZM24.26,15.37v0h-.08v0Zm9,.28v0h.09l0,0Zm-1.07-5.23Zm1.08.16,0,0h-.06Zm.12,4.52v0h-.09v0Zm.1-4.51v0h-.09v0Zm-.43,7.09v0h.09v0Zm-1.16,5.71v0h-.09v0Zm.65-5.66v0h.09v0Zm1.65-1.36,0-.06H34.2ZM27,15.91v0h.12v0ZM12,48.36v0h.09v0ZM26.29,36.42ZM26.85,31v0h0ZM38,51.77l0,0h0ZM27.43,16h0Zm5.06-.76h0ZM21.32,39.82h0v0Z"/><path class="cls-1" d="M45.31,25.29a1.15,1.15,0,0,0-.48.62c-.29-.19-.32-.34-.19-.7v-.83c-.11-.19-.39-.28-.64-.4a3.87,3.87,0,0,1-.93-.57c-.21-.17-.45-.29-.67-.45a5.66,5.66,0,0,1-.8-.55,3.76,3.76,0,0,1-.56-.75c-.12-.2-.2-.4-.45-.49a1.87,1.87,0,0,1-.43-.3c-.11-.23-.26-.45-.36-.7a5.24,5.24,0,0,1-.2-.64.66.66,0,0,1,.42-.31c.32-.07.61-.22.92-.3l.85-.14.17.06a2.16,2.16,0,0,1,1.54.11,1.5,1.5,0,0,1,.83.77,2.73,2.73,0,0,0,.22.3,1,1,0,0,1-.24.82,4.88,4.88,0,0,0-.51.92,1,1,0,0,1-.1.18c-.1.15-.1.15-.08.42a.18.18,0,0,0,.25,0,1,1,0,0,0,.19-.16,8.8,8.8,0,0,1,1.12-1,15.17,15.17,0,0,1,1.3-.92h1.74a1.18,1.18,0,0,1,.52.76c.06.26.26.5.22.81l-.44.14a1,1,0,0,0-.65.51c-.14.25-.3.48-.46.72a.6.6,0,0,1-.14.2c-.42.26-.52.75-.79,1.11a1.42,1.42,0,0,0-.11.42l-1.06.33v-.13l-.06,0Zm.15-.37,0,0h0Z"/><path class="cls-1" d="M43.46,26.35H43.2l0,.23.43-.06a.41.41,0,0,1,.29.53l-.39.14-.84.54a3.82,3.82,0,0,0-.88,1.84,2,2,0,0,1-1,.45,2.38,2.38,0,0,1-.63.14c-.47,0-.95,0-1.42-.08l-.17-.31a2.47,2.47,0,0,0,.17-.7A1.22,1.22,0,0,1,39.46,28a8.35,8.35,0,0,0,1.07-.45c.37-.23.72-.47,1.08-.72a1,1,0,0,1,.48-.28.26.26,0,0,0,.12-.05A1.16,1.16,0,0,1,43.46,26.35Z"/><path class="cls-1" d="M43,11.69l-.3-.5a4.61,4.61,0,0,1,.17-.62,5.87,5.87,0,0,1,.29-.53.81.81,0,0,0,.37-.26,1.17,1.17,0,0,1,.89-.3c.15,0,.29,0,.43,0a.65.65,0,0,1,0,.72c-.12.19-.28.36-.39.56a2.18,2.18,0,0,0-.2.61l-.16.86L44,11.91l-.33.16,0,.33c-.05,0-.08,0-.1,0l-.31-.2a2.33,2.33,0,0,1-.14-.33c0-.11-.19-.08-.15-.22l0,0Z"/><path class="cls-1" d="M22,14.6c.06.12.15.26.21.4a.66.66,0,0,1,0,.55c-.1.22-.15.46-.25.68a2.08,2.08,0,0,1-.3.38,1.29,1.29,0,0,1-.94-1.08,3.11,3.11,0,0,0-.16-.46c0-.13.07-.26.11-.37a3.07,3.07,0,0,1,.17-.31A2.2,2.2,0,0,1,22,14.6Z"/><path class="cls-1" d="M29.74,62.52l.32-.11c.29.05.43.26.61.46l.09.71-.57.67a.67.67,0,0,1-.58.07l-.17-.17A1.74,1.74,0,0,1,29.74,62.52Z"/><path class="cls-1" d="M14.74,59.75a.73.73,0,0,1-.67.09,3.41,3.41,0,0,1-.31-1.34l.23-.23a.68.68,0,0,1,1.2.35s0,.07,0,.11A2.68,2.68,0,0,1,14.74,59.75Z"/><path class="cls-1" d="M16.3,17.46l.28-.21a.5.5,0,0,1,.78.09l.13.16c.11.62,0,.88-.7,1.12-.26-.12-.27-.4-.35-.63a5.26,5.26,0,0,1-.15-.53Z"/><path class="cls-1" d="M42.4,57.16l-.3-.38,0-.2.85-.34.32.22a1.53,1.53,0,0,1-.22,1l-.39.08-.31-.44Z"/><path class="cls-1" d="M38,63.84l-.27.08-.48.07a1.69,1.69,0,0,1,.65-1.58s.06,0,.07,0l.17.18A4,4,0,0,1,38,63.84Z"/><path class="cls-1" d="M44.59,45.59l.22-.15a.53.53,0,0,0,.11.64,1,1,0,0,1-.2.82l-.37,0L44,46.23C44,45.63,44.13,45.48,44.59,45.59Z"/><path class="cls-1" d="M24.09,54l0,.4c-.15.19-.27.4-.6.36l-.32-.24a.66.66,0,0,1,.06-.81l.29-.13C23.71,53.67,24,53.72,24.09,54Z"/><path class="cls-1" d="M16.38,23.09c-.21-.27-.13-.53-.12-.81l.26-.24a.71.71,0,0,1,.6.22l.09.55c-.13.21-.25.38-.51.41Z"/><path class="cls-1" d="M15.47,58.52l0-.53c.08-.18.26-.24.47-.3l.45.3.05.42C16.24,58.82,15.91,58.86,15.47,58.52Z"/><path class="cls-1" d="M20.6,16.77l.2.27a.51.51,0,0,1,0,.09l0,.4c-.46.23-.46.23-.69.22l-.28-.51c.14-.21.14-.47.39-.6Z"/><path class="cls-1" d="M35.05,62.27,34.73,62l0-.61.34-.29a.59.59,0,0,1,.59.61A1.34,1.34,0,0,1,35.05,62.27Z"/><path class="cls-1" d="M42.71,54.54l0,.34c.05.13.28.06.21.28a.92.92,0,0,0-.72.46,1.88,1.88,0,0,1-.16-.25L41.86,55l.39-.76c.26,0,.34.21.47.33Z"/><path class="cls-1" d="M3.3,37.77l-.5-.49c0-.56.12-.66.63-.61.17.17.17.17.3.67A.64.64,0,0,1,3.3,37.77Z"/><path class="cls-1" d="M19,51.3l.07.34-.44.41c-.23.07-.37,0-.43-.18s-.18-.49.09-.71l.34-.11.38.26Z"/><path class="cls-1" d="M26.87,61.53l.24-.12.41.21.12.44-.26.4-.37,0C26.74,62.18,26.83,61.86,26.87,61.53Z"/><path class="cls-1" d="M18.46,53.89l0-.42c.43-.31.62-.27.91.19-.14.37-.14.37-.55.51Z"/><path class="cls-1" d="M18.33,50.71c0-.46.07-.53.48-.64.39.3.41.51.09.88l-.4,0Z"/><path class="cls-1" d="M43.64,42.23l0-.55a.41.41,0,0,1,.53-.15l0,.77-.27.26a1.63,1.63,0,0,1-.18-.14Z"/><path class="cls-1" d="M46.16,53.4,45.91,53l.31-.3h.26l.25.27,0,.38A.52.52,0,0,1,46.16,53.4Z"/><path class="cls-1" d="M21.26,59.81l-.26,0-.17-.21,0-.39.48-.2.25.27A.47.47,0,0,1,21.26,59.81Z"/><path class="cls-1" d="M23,57.72l.12-.22c.2,0,.36-.27.65-.22l0,.29-.37.46-.34,0Z"/><path class="cls-1" d="M36.89,57.26c0-.44.07-.48.48-.56l.19.3a.47.47,0,0,1-.42.49Z"/><path class="cls-1" d="M53,10.82l.18.17,0,.37-.43.28-.26-.33A.65.65,0,0,1,53,10.82Z"/><path class="cls-1" d="M47.8,50.12l.33,0,.3.53,0,.26-.24.08-.42-.62Z"/><path class="cls-1" d="M21.61,20.5s.07-.06.1-.1.11-.24.19-.39a1.17,1.17,0,0,1,.29.63l-.27.39-.36-.41.06-.13Z"/><path class="cls-1" d="M21.73,61.48l-.24-.18a.45.45,0,0,1,.06-.43.5.5,0,0,1,.52.1C22.08,61.31,22.08,61.31,21.73,61.48Z"/><path class="cls-1" d="M43.24,54.16l.39,0,.13.39-.27.23c-.16,0-.31,0-.43-.14l.16-.42,0,.14h0Z"/><path class="cls-1" d="M43.84,3l0,.44a.42.42,0,0,1-.51,0V3.07l.29-.27Z"/><path class="cls-1" d="M51.18,27.21l.23.38-.1.29-.53-.17,0-.46Z"/><path class="cls-1" d="M39.87,13.05a.7.7,0,0,1,.06,1l-.19,0A1,1,0,0,1,39.87,13.05Z"/><path class="cls-1" d="M59.64,52a.35.35,0,0,1,.44-.17l.28.29-.34.31C59.81,52.34,59.59,52.3,59.64,52Z"/><path class="cls-1" d="M20.23,36.57l.35-.27c.19,0,.3.08.37.28-.19.08-.32.31-.61.24Z"/><path class="cls-1" d="M8.81,50.53l.19.19a.42.42,0,0,1-.43.35l-.22-.28.17-.25Z"/><path class="cls-1" d="M23,53.24l-.25,0c-.17-.15-.14-.28.12-.52l.24,0C23.22,52.9,23.2,53,23,53.24Z"/><path class="cls-1" d="M16.54,16.24,16.21,16l.1-.36.37.05C16.71,15.91,16.74,16.08,16.54,16.24Z"/><path class="cls-1" d="M22.48,57.27l-.18-.22,0-.24c.12-.15.25-.1.37-.08C22.78,57,22.78,57,22.48,57.27Z"/><path class="cls-1" d="M48.75,32.35V32a.52.52,0,0,1,.11-.1s.1,0,.16,0c.05.22.18.41.06.64Z"/><path class="cls-1" d="M35.82,64.18l-.35,0-.06-.34.27-.18C35.84,63.72,35.89,63.88,35.82,64.18Z"/><path class="cls-1" d="M25.57,59.87l-.07.5h-.25L25.16,60l.11-.18Z"/><path class="cls-1" d="M12.26,22.21l-.32-.05,0-.34.33-.1.11.19C12.43,22,12.39,22.11,12.26,22.21Z"/><path class="cls-1" d="M49.41,47.34a.44.44,0,0,1,.29.39l-.15.17-.32-.21,0-.25Z"/><path class="cls-1" d="M56.17,20.49l-.21.17c-.06,0-.08,0-.11,0s-.15-.17-.1-.32L56,20.2C56.15,20.24,56.2,20.32,56.17,20.49Z"/><path class="cls-1" d="M17.93,54.76c.26.14.15.31.17.48l-.26.1-.14-.2Z"/><path class="cls-1" d="M6.17,51.8l.14.34-.15.27-.33-.13C5.94,52.13,6,51.94,6.17,51.8Z"/><path class="cls-1" d="M54.52,47.59h.27c.11.17.08.27-.1.42C54.47,47.92,54.47,47.92,54.52,47.59Z"/><path class="cls-1" d="M34.1,63.79c-.36.08-.39.05-.34-.35l.31,0Z"/><path class="cls-1" d="M61.06,45.41l.31,0,.11.21s0,.1-.08.11l-.27,0A.27.27,0,0,1,61.06,45.41Z"/><path class="cls-1" d="M41.25,24.25l.19-.29c.15,0,.26.07.31.25l-.14.22Z"/><path class="cls-1" d="M63.63,49,64,49l.08.23-.2.09C63.72,49.23,63.56,49.19,63.63,49Z"/><path class="cls-1" d="M44.08,53.74l.14-.23c.22,0,.19.15.29.22l-.16.23C44.18,54,44.11,53.9,44.08,53.74Z"/><path class="cls-1" d="M33.36,63.32l-.21,0L33,63.12c0-.15.1-.18.37-.16Z"/><path class="cls-1" d="M34.49,57.19a1.45,1.45,0,0,1,0,.85A1.37,1.37,0,0,1,34.49,57.19Z"/><path class="cls-1" d="M20.68,50.67c.23.12.27.22.18.32a.18.18,0,0,1-.25,0C20.49,51,20.51,50.86,20.68,50.67Z"/><path class="cls-1" d="M62.47,38c.15,0,.29-.05.36.14l-.17.21C62.5,38.31,62.45,38.23,62.47,38Z"/><path class="cls-1" d="M13.64,12.37c.19.25.19.25,0,.47C13.43,12.63,13.43,12.63,13.64,12.37Z"/><path class="cls-1" d="M20.69,34.06c-.16.2-.35.14-.54.12.11-.17.11-.17.34-.27Z"/><path class="cls-1" d="M39.83,51.4l-.09-.2.11-.19.23,0C40.09,51.3,40.09,51.3,39.83,51.4Z"/><path class="cls-1" d="M64.71,47.39l-.27.15-.19-.24.25-.16Z"/><path class="cls-1" d="M52.07,38.62l-.17.22-.27-.27.28-.15Z"/><path class="cls-1" d="M37.54,61.64c-.2.09-.29,0-.42-.11a1.25,1.25,0,0,1,0-.19s.06,0,.12-.07Z"/><path class="cls-1" d="M8.26,33.15l.24.17c-.19.17-.19.17-.46,0Z"/><path class="cls-1" d="M10.4,46.49l.49-.12v.35h-.07C10.77,46.53,10.56,46.64,10.4,46.49Z"/><path class="cls-1" d="M8.88,29.7a.37.37,0,0,1-.45-.2l.13-.09C8.78,29.52,8.78,29.52,8.88,29.7Z"/><path class="cls-1" d="M13.71,54h-.25v-.26l.3,0Z"/><path class="cls-1" d="M48,57.89c-.18-.08-.37-.11-.34-.37C47.85,57.55,48,57.63,48,57.89Z"/><path class="cls-1" d="M20,59.58a.32.32,0,0,1-.14.4l-.15-.31Z"/><path class="cls-1" d="M19.28,63.26l.27-.11.09.23C19.42,63.49,19.42,63.49,19.28,63.26Z"/><path class="cls-1" d="M35.08,59.64l-.28,0a.56.56,0,0,1,0-.13c0-.14.14-.17.29-.11Z"/><path class="cls-1" d="M19.25,38.87l-.28,0v-.29C19.19,38.68,19.19,38.68,19.25,38.87Z"/><path class="cls-1" d="M23.52,5.61l-.18-.23.23-.28,0,.5Z"/><path class="cls-1" d="M9.12,57.71l.3,0L9.31,58C9.11,58,9.06,57.9,9.12,57.71Z"/><path class="cls-1" d="M47.54,56.74c.09.17.19.31,0,.45C47.4,57,47.4,57,47.54,56.74Z"/><path class="cls-1" d="M16,21.3,16.1,21l.09.1.17-.25s0,.05,0,.06l-.13.31-.3.05Z"/><path class="cls-1" d="M2.3,51l-.21.24L2,51.14C2,51,2.05,51,2.3,51Z"/><path class="cls-1" d="M17.54,60.4l.16.16c-.06.13-.13.2-.28.13s0-.07,0-.1A1.5,1.5,0,0,1,17.54,60.4Z"/><path class="cls-1" d="M15,57.75l0-.32.2-.24s0,.08,0,.1l-.19.48Z"/><path class="cls-1" d="M1.26,38.45c-.14-.1-.1-.23-.06-.37l.16,0A.23.23,0,0,1,1.26,38.45Z"/><path class="cls-1" d="M2.4,29.83l-.21.32L2.07,30A.26.26,0,0,1,2.4,29.83Z"/><path class="cls-1" d="M64,46.35a1,1,0,0,1-.72-.18l.42.08Z"/><path class="cls-1" d="M32.13,63.84l-.42,0,.1-.2.3,0v.12Z"/><path class="cls-1" d="M44.6,40.13l0,.29-.36-.2Z"/><path class="cls-1" d="M16,53.48l.09.26-.32-.07,0-.09Z"/><path class="cls-1" d="M23.75,55.16c.14.14.11.24,0,.33C23.6,55.38,23.58,55.27,23.75,55.16Z"/><path class="cls-1" d="M8.72,49.74l.1.32H8.49Z"/><path class="cls-1" d="M54,48.52c.15.13.14.24,0,.35C53.88,48.75,53.88,48.63,54,48.52Z"/><path class="cls-1" d="M19.7,62.28v.28h-.16C19.46,62.47,19.48,62.42,19.7,62.28Z"/><path class="cls-1" d="M58.8,32.48l-.09.08a.19.19,0,0,1,0-.07.65.65,0,0,1,0-.11H59l0,.32Z"/><path class="cls-1" d="M16.7,11.53l.22-.46h0c0,.13-.07.26-.11.38s-.08.07-.12.1Z"/><path class="cls-1" d="M58.38,23l-.3-.32s0-.07,0-.15C58.27,22.63,58.3,22.85,58.38,23Z"/><path class="cls-1" d="M38,56.45A.35.35,0,0,1,38,56,.3.3,0,0,1,38,56.45Z"/><path class="cls-1" d="M54.12,56.82l-.25,0,0-.15C53.94,56.59,54,56.62,54.12,56.82Z"/><path class="cls-1" d="M59.87,32.53l0,.32-.21-.19.14-.15Z"/><path class="cls-1" d="M30.5,59.82l-.23.17v-.42Z"/><path class="cls-1" d="M24.22,59.07a1.3,1.3,0,0,1,0,.19.62.62,0,0,1-.05.18L24,59.25Z"/><path class="cls-1" d="M39.41,3.64h-.16l.07-.29C39.47,3.44,39.5,3.53,39.41,3.64Z"/><path class="cls-1" d="M11.69,58.25l.22,0-.21.44v-.42Z"/><path class="cls-1" d="M10.9,28l.16-.15.17.23h-.3Z"/><path class="cls-1" d="M31.52,59l.13-.33h.08a.6.6,0,0,1,0,.19,1.14,1.14,0,0,1-.15.17Z"/><path class="cls-1" d="M64.76,41.62a.44.44,0,0,1,.16-.49Z"/><path class="cls-1" d="M36.37,62.33c0-.24,0-.24.32-.22Z"/><path class="cls-1" d="M23,6.88l.41-.24C23.35,6.84,23.25,6.94,23,6.88Z"/><path class="cls-1" d="M47.65,18.2l0-.2h.17l0,.2Z"/><path class="cls-1" d="M63.37,48.41l-.2-.26.4.09Z"/><path class="cls-1" d="M13.25,25.47l-.19,0v-.19l.19,0Z"/><path class="cls-1" d="M23,52.27v-.2h.18l0,.2Z"/><path class="cls-1" d="M22,6.06l-.36.26C21.69,6.1,21.78,6.06,22,6.06Z"/><path class="cls-1" d="M55.24,9.56l.13.32a.3.3,0,0,1-.22-.28Z"/><path class="cls-1" d="M61.67,43.94a.65.65,0,0,1-.3.51,1.54,1.54,0,0,1,.31-.5Z"/><path class="cls-1" d="M29,59.94l0,.33-.11-.05C28.83,60.08,28.83,60.08,29,59.94Z"/><path class="cls-1" d="M24.63,56.74l-.13-.32.27.13Z"/><path class="cls-1" d="M19.67,34.81l-.26,0,.23-.22Z"/><path class="cls-1" d="M47.32,59.21v.32c-.19-.12-.12-.22-.1-.32Z"/><path class="cls-1" d="M16.05,57.16l-.21.2-.05-.29H16Z"/><path class="cls-1" d="M9.1,30l-.2-.14.2-.16Z"/><path class="cls-1" d="M10.43,29.42l-.12-.21h.27Z"/><path class="cls-1" d="M15.73,32.11l.25.15-.19.15Z"/><path class="cls-1" d="M3,52.36l-.38.09,0-.06L3,52.3Z"/><path class="cls-1" d="M10.05,28.47H9.83v-.28Z"/><path class="cls-1" d="M16.28,52.77l0,.14-.21,0,.1-.17.15.07Z"/><path class="cls-1" d="M5.14,41,5,41.2,4.93,41Z"/><path class="cls-1" d="M15.39,42.3l.31-.07C15.6,42.44,15.49,42.36,15.39,42.3Z"/><path class="cls-1" d="M45.07,17.6l.31-.18,0,0s-.07.09-.12.11a.56.56,0,0,1-.18.07Z"/><path class="cls-1" d="M9.16,50.2l.14.23-.27,0Z"/><path class="cls-1" d="M65,22.23l.25.29C65,22.44,65,22.44,65,22.23Z"/><path class="cls-1" d="M39.07,7.12l0,.28C38.92,7.28,38.92,7.28,39.07,7.12Z"/><path class="cls-1" d="M8.26,54.42l-.13-.21.29,0Z"/><path class="cls-1" d="M20.85,56.48l.27,0,0,.22Z"/><path class="cls-1" d="M26.88,63.68l-.23.08,0-.28.21.21Z"/><path class="cls-1" d="M30.74,59.59l-.22-.15.19-.15Z"/><path class="cls-1" d="M36.34,5.91V5.72h.06l0,.19Z"/><path class="cls-1" d="M23.64,4.6l.2-.22.05,0-.18.24Z"/><path class="cls-1" d="M20.83,51.76,21,52l-.29-.06Z"/><path class="cls-1" d="M52,5.46a.33.33,0,0,1,0,.41Z"/><path class="cls-1" d="M43.26,45.76l.15-.12.16.13Z"/><path class="cls-1" d="M61.38,50l-.13-.1.13-.13.07.2Z"/><path class="cls-1" d="M10.84,35.28l0,.25C10.69,35.38,10.69,35.38,10.84,35.28Z"/><path class="cls-1" d="M35.18,2.58l-.11.21-.06,0,.09-.23Z"/><path class="cls-1" d="M22.87,57.75l-.07.18-.14-.13.14-.11Z"/><path class="cls-1" d="M36.2,58.45l0,.2H36.1v-.2Z"/><path class="cls-1" d="M48.27,51.47l.19,0v.06l-.18,0Z"/><path class="cls-1" d="M43.31,45.26h.18v.06l-.2,0Z"/><path class="cls-1" d="M28.77,64.35v-.19h.08v.2Z"/><path class="cls-1" d="M51.91,58.58l.32-.1C52.14,58.65,52.05,58.64,51.91,58.58Z"/><path class="cls-1" d="M29.21,61.47l.14.08v0l-.16,0Z"/><path class="cls-1" d="M.45,38.16V38C.56,38,.66,38.1.45,38.16Z"/><path class="cls-1" d="M61,52.42h-.23C60.8,52.36,60.88,52.26,61,52.42Z"/><path class="cls-1" d="M42.29,12.27H42.1C42.19,12.14,42.19,12.14,42.29,12.27Z"/><path class="cls-1" d="M38,56.58l.1.24-.23-.1Z"/><path class="cls-1" d="M64.26,40.21l-.25,0,.23-.1Z"/><path class="cls-1" d="M43.13,49.35l0-.17h.1l-.08.19Z"/><path class="cls-1" d="M.11,32.23l0,.24-.07,0,.07-.23Z"/><path class="cls-1" d="M59.3,55.44l-.09-.11.08-.1.11.09Z"/><path class="cls-1" d="M35.28,59.09l-.24.08C35.11,59,35.17,59,35.28,59.09Z"/><path class="cls-1" d="M59.67,36.48l-.05.25h-.07l0-.24Z"/><path class="cls-1" d="M9.11,34.44l.22-.29c0,.22-.09.28-.23.28Z"/><path class="cls-1" d="M63.71,21.52l.12-.19.06,0-.11.19Z"/><path class="cls-1" d="M3,47l-.15.09,0-.24L3,47Z"/><path class="cls-1" d="M61.45,44.81l0-.05.08,0s0,0,0,.07Z"/><path class="cls-1" d="M42.89,44V43.8C43,43.9,43,44,42.89,44Z"/><path class="cls-1" d="M7,58.81a.32.32,0,0,1,0,.09s0,0-.06,0a.56.56,0,0,1,0-.08Z"/><path class="cls-1" d="M64.08,50.11l.07.17-.05,0L64,50.14Z"/><path class="cls-1" d="M62,14.28l-.09-.16,0,0,.11.13Z"/><path class="cls-1" d="M50.35,23.62l-.14-.11,0,0,.14.09Z"/><path class="cls-1" d="M62.72,47.31l0-.07.08.06s0,.06,0,.05A.18.18,0,0,1,62.72,47.31Z"/><path class="cls-1" d="M64.8,47.58l0,.23C64.69,47.74,64.64,47.68,64.8,47.58Z"/><path class="cls-1" d="M16.65,59.27l.1,0,0,.06-.08.05Z"/><path class="cls-1" d="M64.73,48.38l-.12-.11.26,0Z"/><path class="cls-1" d="M21.27,64.53l0,.06-.09,0a.09.09,0,0,1,0-.07S21.24,64.53,21.27,64.53Z"/><path class="cls-1" d="M1.84,30.86,1.76,31,1.7,31l.05-.17Z"/><path class="cls-1" d="M63.35,36.86h.13v.05h-.13Z"/><path class="cls-1" d="M34.68,1.89l0,0,.05.08-.07,0S34.69,1.91,34.68,1.89Z"/><path class="cls-1" d="M33.59,2.51l.07-.14h0l-.05.18Z"/><path class="cls-1" d="M40.15,3.85l.06,0,0,.09s-.06,0-.08,0S40.16,3.87,40.15,3.85Z"/><path class="cls-1" d="M5.06,35.69l-.16-.15.12,0S5,35.61,5.06,35.69Z"/><path class="cls-1" d="M25.78,3.14l-.05-.05.08,0s0,0,0,.06S25.8,3.13,25.78,3.14Z"/><path class="cls-1" d="M25,38.58l-.07,0a.56.56,0,0,1,.05-.08s.06,0,.06,0A.36.36,0,0,1,25,38.58Z"/><path class="cls-1" d="M32.63,62.78l-.05.15h0v-.15Z"/><path class="cls-1" d="M38.27,7.26l-.05,0,.08,0s0,0,0,.06S38.29,7.25,38.27,7.26Z"/><path class="cls-1" d="M7.74,29l0-.05.06.09-.07,0S7.75,29,7.74,29Z"/><path class="cls-1" d="M10.91,60.74l.05,0,0,.08-.07,0Z"/><path class="cls-1" d="M50.44,31.51l-.1.07-.05-.08.12,0Z"/><path class="cls-1" d="M34.06,62.05l.09,0s0,.06,0,.06l-.08.05Z"/><path class="cls-1" d="M56.1,41.25h.2C56.23,41.39,56.17,41.35,56.1,41.25Z"/><path class="cls-1" d="M9.47,27.78l-.09-.06,0-.06.09.07Z"/><path class="cls-1" d="M61.51,42.89l0,.07-.09,0a.09.09,0,0,1,0-.07Z"/><path class="cls-1" d="M65.92,43.68l.1-.21c0,.08,0,.12,0,.15a.41.41,0,0,1,0,.09Z"/><path class="cls-1" d="M14.1,26.32H14v-.06l.12,0Z"/><path class="cls-1" d="M11.46,26l-.13.1,0-.05.13-.09Z"/><path class="cls-1" d="M17.08,60.62l.05,0,.05.08-.07,0S17.09,60.64,17.08,60.62Z"/><path class="cls-1" d="M66.24,44h-.16C66.15,43.92,66.15,43.92,66.24,44Z"/><path class="cls-1" d="M36.32,10l0-.23h0V10Z"/><path class="cls-1" d="M41,53.18h-.16C41,53.07,41,53.07,41,53.18Z"/><path class="cls-1" d="M50.74,17.51l0,.16,0,0-.08-.16Z"/><path class="cls-1" d="M20.11,57.92s.05,0,.08,0,0,0,0,.06l-.08,0Z"/><path class="cls-1" d="M58.69,16.27l0-.07.08.05s0,.05,0,.05A.16.16,0,0,1,58.69,16.27Z"/><path class="cls-1" d="M51.4,54.07l.06,0,0,.09s-.06,0-.08,0S51.41,54.1,51.4,54.07Z"/><path class="cls-1" d="M2.63,47.93c0-.1.09-.16.27-.11l-.28.1Z"/><path class="cls-1" d="M54.12,54.3l0-.09h.1l0,.1Z"/><path class="cls-1" d="M52.19,16.45l.16-.09,0,.05-.15.1Z"/><path class="cls-1" d="M38.46,52.77h-.11l0-.09.1,0Z"/><path class="cls-1" d="M54.38,54.79l0,.05-.09,0s0-.05,0-.07Z"/><path class="cls-1" d="M26.41,57.22l.15.08v0l-.16,0Z"/><path class="cls-1" d="M29.68,58.69l.05,0,.05.08-.07,0Z"/><path class="cls-1" d="M55,57.57l.06,0,0,.08s-.06,0-.07,0S55,57.6,55,57.57Z"/><path class="cls-1" d="M12.64,53.38l.11-.13.12.11Z"/><path class="cls-1" d="M8.47,56.1l0-.07s.06,0,.07.06,0,0,0,0S8.5,56.12,8.47,56.1Z"/><path class="cls-1" d="M16.18,48.19s0-.07,0-.06l.08,0s0,0,0,0Z"/><path class="cls-1" d="M10.38,47.85l.12.06,0,.06-.12-.06Z"/><path class="cls-1" d="M17.61,56.32l-.06,0-.05-.08s.06,0,.07,0S17.6,56.3,17.61,56.32Z"/><path class="cls-1" d="M46.34,52.43l-.08.07,0,0,.08-.07Z"/><path class="cls-1" d="M62.76,18.41l.08-.08,0,0-.09.08Z"/><path class="cls-1" d="M50.6,15.73l-.08-.1,0,0,.07.1Z"/><path class="cls-1" d="M25.67,57l-.08-.08.05,0,.08.08Z"/><path class="cls-1" d="M35.79,8.26l-.07.09,0-.06.09-.07Z"/><path class="cls-1" d="M15.51,38.79l0-.14h0v.14Z"/><path class="cls-1" d="M60.62,42.56l-.08-.09,0,0,.08.08Z"/><path class="cls-1" d="M21.71,6.7l-.11.06,0,0,.1-.07Z"/><path class="cls-1" d="M21.28,51.5l-.11.06,0,0,.09-.08Z"/><path class="cls-1" d="M32,61.77l.14-.1,0,.07Z"/><path class="cls-1" d="M14,50.91l-.09.07,0,0,.08-.1Z"/><path class="cls-1" d="M31.05,61.71l-.08-.1.05,0,.08.1Z"/><path class="cls-1" d="M16.29,14.55v.14h0l0-.14Z"/><path class="cls-1" d="M20,54.82l.08-.07,0,0-.07.09Z"/><path class="cls-1" d="M20.74,54.79l.1.07,0,0-.09-.08Z"/><path class="cls-1" d="M13.07,54.56l0-.19,0,0-.08.16Z"/><path class="cls-1" d="M37.77.86l.07-.09.06,0,0,.11Z"/><path class="cls-1" d="M45.78,16.67l-.08-.09,0,0,.08.09Z"/><path class="cls-1" d="M56.15,55.6H56v-.05h.13Z"/><path class="cls-1" d="M26.63,2.45v.16h-.05l0-.16Z"/><path class="cls-1" d="M28.17,63.33l-.07-.08,0,0,.08.07Z"/><path class="cls-1" d="M48.65,32v.15h0V32Z"/><path class="cls-1" d="M46.63,39.47l-.08.07,0,0,.09-.07Z"/><path class="cls-1" d="M23.44,62.77l.07-.08,0,0-.07.08Z"/><path class="cls-1" d="M40.1,53.36v-.14h0l0,.13Z"/><path class="cls-1" d="M53.35,16.37l.09-.07,0,0-.08.08Z"/><path class="cls-1" d="M12.15,46l.14,0V46h-.14Z"/><path class="cls-1" d="M22.89,11.41l-.06.11,0,0,.06-.09Z"/><path class="cls-1" d="M22.08,21.87V22h0v-.17Z"/><path class="cls-1" d="M22.24,21.89V22h0v-.15Z"/><path class="cls-1" d="M35.1,60.13H35v0h.14Z"/><path class="cls-1" d="M23,11.13l-.1.06,0,0,.1-.07Z"/><path class="cls-1" d="M19.38,58.89l.09-.08,0,0-.07.09Z"/><path class="cls-1" d="M51.38,15.54l-.08.07,0,0,.07-.07Z"/><path class="cls-1" d="M52.82,46.64l.08-.09,0,0-.09.09Z"/><path class="cls-1" d="M40.23,60.84v-.16h0v.16Z"/><path class="cls-1" d="M22.42,24v-.3c0,.08.05.1.05.13Z"/><path class="cls-1" d="M59.59,18.77l.09-.07,0,0-.08.08Z"/><path class="cls-1" d="M12.19,58l-.1.14c-.06-.16.06-.11.11-.13Z"/><path class="cls-1" d="M60,44.25l.16-.11s0,.06,0,.07Z"/><path class="cls-1" d="M62.3,18.77l.11-.06,0,0-.09.08Z"/><path class="cls-1" d="M13,59.84l.07-.08,0,0-.08.09Z"/><path class="cls-1" d="M39.51,61.27l-.19,0,.15-.12Z"/><path class="cls-1" d="M52.25,44.35l-.18-.05,0-.07Z"/><path class="cls-1" d="M40.07,58.54v.15h0v-.16Z"/><path class="cls-1" d="M10,23.71H9.9v0H10Z"/><path class="cls-1" d="M46,44.46l0-.11h0l.06.08Z"/><path class="cls-1" d="M33.94,0s0,.08,0,0,0,0,0,0Z"/><path class="cls-1" d="M18.63,11.27l0,.13,0,0,.08-.09Z"/><path class="cls-1" d="M22.33,12.21h-.1v0h.1Z"/><path class="cls-1" d="M37.51,20.52h-.08l0,0Z"/><path class="cls-1" d="M55.54,13.67l-.07-.09.05,0v.13Z"/><path class="cls-1" d="M21.62,20.49s0-.07,0,0,0,0,0,.05Z"/><path class="cls-1" d="M41.08,22.54H41v0h.08Z"/><path class="cls-1" d="M16.32,17.91s0,.05,0,0Z"/><path class="cls-1" d="M34,.05S34,0,34,0s0,0,0,0Z"/><path class="cls-1" d="M50.46,16.71h0C50.48,16.65,50.47,16.67,50.46,16.71Z"/><path class="cls-1" d="M16.29,17.46s0,.07,0,0,0,0,0,0Z"/><path class="cls-1" d="M16.25,25.63l0,.06h-.05Z"/><path class="cls-1" d="M17.8,8.07V8h0v.09Z"/><path class="cls-1" d="M7.56,25.19v-.08h0v.08Z"/><path class="cls-1" d="M49.16,18l-.17,0,0,0Z"/><path class="cls-1" d="M3.25,26.07h0Z"/><path class="cls-1" d="M7.17,26.63h.07v0H7.17Z"/><path class="cls-1" d="M58.14,12l.17.05,0,0Z"/><path class="cls-1" d="M59.36,12.74l-.11,0,.07,0Z"/><path class="cls-1" d="M49.26,32.33h0s0,0,0,0h0Z"/><path class="cls-1" d="M16,21.29l-.09.16h0L16,21.3Z"/><path class="cls-1" d="M46.24,55.2h.07l0,0h-.1Z"/><path class="cls-1" d="M17.63,51.72l.16,0,0,0Z"/><path class="cls-1" d="M47,52.84l.15,0,0,0Z"/><path class="cls-1" d="M62.19,52.7l0,.11a.14.14,0,0,1,0-.07Z"/><path class="cls-1" d="M17.57,49.78v-.09h0v.09Z"/><path class="cls-1" d="M17.18,49.51v-.06S17.19,49.48,17.18,49.51Z"/><path class="cls-1" d="M57.49,51.62l0,.09h0l0-.09Z"/><path class="cls-1" d="M16.27,48.54v.09h0v-.09Z"/><path class="cls-1" d="M18.44,48.66l.11,0h-.07Z"/><path class="cls-1" d="M16.85,48.35l-.08,0h0Z"/><path class="cls-1" d="M59.32,50.81h.09v0h-.09Z"/><path class="cls-1" d="M63.28,50.79l.16,0,0,0Z"/><path class="cls-1" d="M3,47s0-.08,0,0,0,0,0,0Z"/><path class="cls-1" d="M52.21,49.07h0C52.2,49.13,52.2,49.1,52.21,49.07Z"/><path class="cls-1" d="M45,48.32h-.07l0,0h.09Z"/><path class="cls-1" d="M12.71,45.87h0Z"/><path class="cls-1" d="M59.25,48.56l-.1.07,0-.05h.12Z"/><path class="cls-1" d="M65,48.47h-.1v0H65Z"/><path class="cls-1" d="M49.36,46.11v.09h0v-.09Z"/><path class="cls-1" d="M31.73,64.27v-.09h0v.09Z"/><path class="cls-1" d="M32.12,63.85l.13,0,0,0-.1-.08Z"/><path class="cls-1" d="M12,62.17Z"/><path class="cls-1" d="M42.27,62.6l0,.06h0Z"/><path class="cls-1" d="M28,61.42l0-.09,0,0Z"/><path class="cls-1" d="M40.09,60.66h0C40.08,60.72,40.08,60.7,40.09,60.66Z"/><path class="cls-1" d="M33.38,60.35Z"/><path class="cls-1" d="M45.43,60.83l0,.08s0,0,0,0S45.41,60.86,45.43,60.83Z"/><path class="cls-1" d="M35.84,60.17h-.07v0h.07Z"/><path class="cls-1" d="M12.2,58v0l0,0Z"/><path class="cls-1" d="M24.16,58.47h0Z"/><path class="cls-1" d="M7.76,57.41H7.67v0h.09Z"/><path class="cls-1" d="M22.49,58.12h.1v0h-.09Z"/><path class="cls-1" d="M50,58.41h-.1v0l.09,0Z"/><path class="cls-1" d="M14.28,55.4h.09v0h-.09Z"/><path class="cls-1" d="M2.31,54.71l-.14,0s0,0,0,0Z"/><path class="cls-1" d="M20.08,55.6v-.09h0v.09Z"/><path class="cls-1" d="M46.05,57.09,46,57h.06Z"/><path class="cls-1" d="M6.55,54.6h.06v0H6.54Z"/><path class="cls-1" d="M13.06,54.55l0,.13,0,0,.08-.1Z"/><path class="cls-1" d="M5.25,53.88v-.09l0,0Z"/><path class="cls-1" d="M7.79,32.29l-.16,0s0,0,0,0Z"/><path class="cls-1" d="M14.78,33.58h.09v0h-.09Z"/><path class="cls-1" d="M44.31,39.56s0,0,0,0Z"/><path class="cls-1" d="M56.51,40.47h0Z"/><path class="cls-1" d="M23,39,23,39H23Z"/><path class="cls-1" d="M62.23,41.49h-.11v0Z"/><path class="cls-1" d="M15.36,39h.09v0h-.09Z"/><path class="cls-1" d="M18.22,39.23h-.09v0h.09Z"/><path class="cls-1" d="M48.42,41.14h-.09v0h.09Z"/><path class="cls-1" d="M61.86,43.63s0-.08,0,0l0,0Z"/><path class="cls-1" d="M62.78,43.73v-.09h0v.09Z"/><path class="cls-1" d="M61.77,43.79l.09-.16h0l-.09.16Z"/><path class="cls-1" d="M61.68,44l.09-.16h0l-.09.16Z"/><path class="cls-1" d="M47.36,43.71h-.09v0h.09Z"/><path class="cls-1" d="M61.74,46.37v.09h0v-.09Z"/><path class="cls-1" d="M21.3,36.65l0,0,0,0Z"/><polygon class="cls-1" points="18.14 59.35 18.14 59.33 18.16 59.34 18.14 59.35"/><polygon class="cls-1" points="36.34 61.01 36.37 61.01 36.37 61.03 36.34 61.01"/><polygon class="cls-1" points="42.59 61.64 42.56 61.65 42.57 61.62 42.59 61.64"/><polygon class="cls-1" points="60.02 10.85 60.03 10.88 60.01 10.87 60.02 10.85"/><path class="cls-1" d="M11.61,58.16l0,0,0,0Z"/><path class="cls-1" d="M11.6,58.17l.09.08h0l-.08-.09Z"/><path class="cls-1" d="M43.83,13l0,0,0,0Z"/><path class="cls-1" d="M55.53,13.68l0,0,0,0Z"/><path class="cls-1" d="M43.84,13.05l0-.06,0,0Z"/><path class="cls-1" d="M16.65,59.05h0Z"/><path class="cls-1" d="M18.64,11.28l0,0,0,0Z"/><path class="cls-1" d="M16.65,59l0,0,0,0Z"/><polygon class="cls-1" points="18.97 59.3 18.99 59.3 18.98 59.32 18.97 59.3"/><polygon class="cls-1" points="24.79 63.45 24.79 63.43 24.81 63.44 24.79 63.45"/><path class="cls-1" d="M26.89,63.69l0,0,0,0Z"/><path class="cls-1" d="M26,.39h0s0,0,0,0Z"/><path class="cls-1" d="M26,.39l0-.06,0,.06Z"/><polygon class="cls-1" points="33.69 64.46 33.7 64.48 33.67 64.47 33.69 64.46"/><polygon class="cls-1" points="12.01 60.35 12.02 60.37 11.99 60.37 12.01 60.35"/><path class="cls-1" d="M9,34.51l0,0,0,0Z"/><path class="cls-1" d="M9.1,34.43,9,34.51H9l.09-.08Z"/><polygon class="cls-1" points="21.17 5.3 21.18 5.32 21.16 5.31 21.17 5.3"/><polygon class="cls-1" points="15.59 62.23 15.58 62.21 15.6 62.22 15.59 62.23"/><polygon class="cls-1" points="47.01 52.55 46.98 52.55 46.98 52.53 47.01 52.55"/><path class="cls-1" d="M4.58,26.52l0,0,0,0Z"/><path class="cls-1" d="M19,51.31l.09-.08h0L19,51.3Z"/><polygon class="cls-1" points="21.39 52.05 21.39 52.07 21.38 52.06 21.39 52.05"/><path class="cls-1" d="M4.57,26.53l0,0,0,0Z"/><polygon class="cls-1" points="15.09 24.82 15.06 24.83 15.07 24.81 15.09 24.82"/><path class="cls-1" d="M20.33,25.5l0,0,0,0Z"/><path class="cls-1" d="M20.32,25.51l0,0,0,0Z"/><polygon class="cls-1" points="58.7 19.25 58.68 19.25 58.68 19.24 58.7 19.25"/><path class="cls-1" d="M15.88,21.45l0,0,0,0Z"/><path class="cls-1" d="M2.62,47.92l0,0,0,0Z"/><path class="cls-1" d="M60.52,17s0,0,0,0h0Z"/><polygon class="cls-1" points="22.38 55.99 22.37 55.98 22.39 55.98 22.38 55.99"/><polygon class="cls-1" points="23.91 14.58 23.92 14.6 23.9 14.6 23.91 14.58"/><path class="cls-1" d="M42.39,57.15l0,0,0,0Z"/><path class="cls-1" d="M24,14.47l0,0,0,0Z"/><polygon class="cls-1" points="49.31 57.59 49.32 57.62 49.29 57.61 49.31 57.59"/><path class="cls-1" d="M62.12,40.53l0,0,0,0Z"/><path class="cls-1" d="M62.13,40.52l0,0,0,0Z"/><path class="cls-1" d="M16.29,52.79l0,0,0,0Z"/><path class="cls-1" d="M42.72,54.55h0Z"/><path class="cls-1" d="M24.12,15.79l0,0,0,0Z"/><polygon class="cls-1" points="2.52 27.32 2.52 27.35 2.5 27.34 2.52 27.32"/><path class="cls-1" d="M23.89,15.45l0,0,0,0Z"/><path class="cls-1" d="M59.26,48.57h0Z"/><polygon class="cls-1" points="9.79 54.98 9.78 54.96 9.8 54.96 9.79 54.98"/><polygon class="cls-1" points="46.21 47.5 46.21 47.48 46.23 47.48 46.21 47.5"/><path class="cls-1" d="M60.51,17v0h0Z"/><path class="cls-1" d="M25.42,35.34l.21.13-.21.13Z"/><path class="cls-1" d="M28,33.1l.09.19-.24.08Z"/><path class="cls-1" d="M27.58,35l.06,0,.05.07-.07,0Z"/><path class="cls-1" d="M28.66,33.47h-.14v0h.14Z"/><path class="cls-1" d="M26.07,34.5h.15v0h-.15Z"/></g></g></svg>