<svg xmlns="http://www.w3.org/2000/svg" viewBox="0 0 815.17 629.71"><defs><style>.cls-1{fill:#f1e306;}</style></defs><title>Asset 114</title><g id="Layer_2" data-name="Layer 2"><g id="Layer_6" data-name="Layer 6"><path class="cls-1" d="M608.53,312.18,611.1,311c-.08,1.29-.13,2.14-.22,3.6l2.08-1.36,4,.76c1-1.22,1.83-2.24,2.65-3.26.46,1.38.87,2.6,1.27,3.81l-.12-.14,2.59,2.29,2-4.93-.13.11a36.74,36.74,0,0,0,12.36,2.36l-.11-.13,2.16,1.71,3.08-3.8,3.48,1c.17-.49.32-.91.47-1.32l9-2c5.18,1.58,11,1,16.79,1.21s11.26,1.12,17.12,1.74l2.37-1.84c.29-1,.42-1.34.47-1.68.95-7.08,1.73-8,8.51-9.58a18,18,0,0,0,3.46-.93c5-2.37,5.2-2.44,10.95-1.72.21.74.44,1.59.72,2.57l2.64.9,2.36,5.25c-3.65,4.75-7.29,9.47-11.19,14.52,0,1.41-.08,3.25-.11,4.36,1.92,5,3.77,9.41,5.27,13.9,2.08,6.22,2.65,12.72,3.11,19.22.24,3.39.83,6.74-.74,10.12-.83,1.79-.78,4.06-.86,6.12-.25,7.13-3.22,13.31-6.76,19.24-3.79,6.33-7.78,12.55-11.78,18.75-3.07,4.73-6.12,9.49-9.51,14-3.17,4.22-4.52,9.12-6.13,14-1.12,3.37-2.07,6.8-3.11,10.21a56.15,56.15,0,0,0-2.22,7.34c-.81,5.08-2.94,9.69-4.71,14.4a31.26,31.26,0,0,1-9.8,12.95,24.45,24.45,0,0,0-3.87,4.06,4,4,0,0,1-.88.53A149.14,149.14,0,0,0,640.26,495c-6.25,2.63-12.65.78-18.85-.37-6-1.13-11.92-3.08-17.87-4.7a11,11,0,0,1-1.89-1.18c4.32-.82,8.12.76,11.81-.82-4.64-2.17-4.64-2.17-12.16-.89a9,9,0,0,0-.7,1.27,4.06,4.06,0,0,0,0,1.24l-11-2.14-5.7,1.94-2.35,3.21-6.09.83L571.6,490a13,13,0,0,1,0-8.33,19.86,19.86,0,0,0,.75-6.14c.12-5.23-1.85-9.36-6.65-11.88-2.72-1.43-5.41-2.94-8.45-4.6-6.15.89-12.58,1.87-19,2.7a34.71,34.71,0,0,1-6.68.24,16.25,16.25,0,0,0-9.78,2.78c-4.63,2.84-9.64,3.16-14.86,3.26A117.4,117.4,0,0,0,490,469.4a49,49,0,0,1-18.81-.15c-2.26-.52-4.3-2-6.65-3.1l-3.89,2.18c-1.76,5.12-5.87,6.63-10.52,6.21-4,3.76-7.81,5.93-13.29,4.32-2.56-.76-5.62.19-8.68.38l-2.13,2.47c-.13-.9-.28-1.89-.45-3-3-1.28-5.4.22-7.87,1.08-1.6,3.76-.26,7.22.2,10.74.79,5.9,1.39,11.82,2.13,18.36l1.74,2.47c-.18,6.27-.34,12.21-.51,18.43l4.47,5.44c.38,1.66-.47,2.65-1.83,3.3-2.55,1.23-3.54,3.16-3.76,6.05-.35,4.44-1.32,8.83-2.05,13.42l-7,7.49c-3.83,1.13-9.32-.5-12.3,4l-6.15,1.67c-.71-.71-2-1.48-2.52-2.61-1.87-4.15-5.42-5.75-9.44-6.8-.42-2.58-3.75-.86-4.47-3-6.19-3-12.41-3.65-18.55,0-3.34,2-7.16,1.72-10.5,1.35-5.59-.61-10.12,1.42-14.68,3.74a13.09,13.09,0,0,1-8.38,1.3c.05-1,.08-1.59.14-2.71l8-1.93c.49-4.44-1.79-7.61-5.59-10.29L308,545l-3.57,1.73c-1.66-.18-3.36-.69-5-.48-8.18,1-15.66-1-22.59-5.12a85.05,85.05,0,0,1-9.46-7c-3.17-2.52-6.94-3.7-10.58-5.23-3.11-1.31-6.19-2.72-8.83-3.89l-2.07-6.33c-4.35-1-8.47-1.59-12.34-2.9-3.68-1.25-7.11-3.24-10.46-4.82a14,14,0,0,1-1-2.12c-1.69-6.31-5.88-9.64-12.17-11.06a36.63,36.63,0,0,1-9.4-3.87,23.06,23.06,0,0,1-6.53-5.83l-7.66-2.68c-2.76-2.4,2.46-6.07-1.64-9.52a13.83,13.83,0,0,0-2.69-.83c-2.21-.37-4.46-.53-6.69-.75a22.61,22.61,0,0,1-8-1.82c-3.27-1.58-6.9-1.93-10.51-2.34-6-.68-12-1.08-17.84.4-4.75,1.2-9.13-.29-14-.72-.28-3.61-.53-7-.82-10.82l-3.83-5.69a22.38,22.38,0,0,1-10.08-7.43,42.42,42.42,0,0,0-8.78-9.36c-3.63-2.7-5.32-6.46-6.73-10.65-2-5.94-1.54-12.06-2.16-18.1-.27-2.7-.35-5.42-.48-7.54-.88-4.92-1.77-9.26-2.42-13.63-.85-5.73-1.63-11.47-2.21-17.23a48.66,48.66,0,0,0-1.74-7.92,96.76,96.76,0,0,1-2.26-14.56,10.82,10.82,0,0,1,2.16-7.82c4-5.12,6.87-11.4,13.28-14.33,1.87-3,5.81-4.29,6.48-9-.07-.37-.29-1.49-.5-2.54l4.93-.31c2.81,2.31,6.75,2.59,10.57,1.09a108.68,108.68,0,0,1,16-5.37,10.6,10.6,0,0,0,5-2.59c3.72-3.7,8.4-5.9,12.64-8.78,2.08-1.41,4.08-2.93,6.39-4.6l1.29.55c4.54-2.48,9-4.91,13.46-7.36a15.06,15.06,0,0,0,3-1.89c4-3.74,7.83-7.7,12-11.3a23.87,23.87,0,0,0,7.14-10.51,34.9,34.9,0,0,1,2-4l3.41,2.32c2.15-.19,4-.74,4.3-2.88-2.13-2-4.06-3.8-6.18-5.77-3.18.27-.4,3.65-1.86,4.56-2.08,2.06-3.76.7-5.37-.17-3.13-1.71-4.39-4.64-4.9-8.08l-2.81-2.8L188.2,240l-12.08-9.63-.15.11c1.44.55,3.1.8,4.28,1.69,5.6,4.2,11.08,8.58,17,13.19l7.68.82c3,5.06,4.9,10.52,9.23,14.2l10.93,2.35c.78-.73,2-1.9,3.21-3,2.73-2.42,5.37-4.86,9.6-4.07a7.92,7.92,0,0,0,4.4-1,17.12,17.12,0,0,1,9.56-1.37c2.06.24,4.15.33,6.17.74a14.7,14.7,0,0,1,4.83,1.65q7.16,4.5,14.05,9.39c1.36,1,2.26,2.53,3.51,3.67,1.4,1.26,3.19,2.14,4.4,3.55a29.07,29.07,0,0,1,5.57,10.33,42.71,42.71,0,0,0,8,15c3.48.86,6.63,1.52,9.71,2.43a16.28,16.28,0,0,1,9,6.11c3.37,4.47,6.91,8.84,10.05,13.49,1,1.55,2,3.15,3.45,5.47l6.87,2.51,9.62,6.1,3.36-2.85-.59,5.47,4.88,3.93c.9-3.11,2.32-6,2.44-8.86.2-5.15,3-9.41,4.14-14.24.79-3.36,1.18-6.73,1.73-10.09.32-2-.48-3.52-1.82-5-3.37-3.83-6.45-7.82-11.6-9.62-2-.7-3.46-2.68-5.33-3.82a35.22,35.22,0,0,0-5.12-2.3c-3.37-1.35-4.24-2-6.51-5.16l-2.3-.08c-.39-1.36-.75-2.64-1.16-4.1-6.79-3.76-11.24-10-16.38-17.39-3.81-2.47-8.6-5.81-14.42-7.11,0-.3,0-.61.06-1.19-3.26.66-5.61-3.74-9.23-1.68-.07,1.71-.13,3.2-.19,4.69a3.36,3.36,0,0,1-3.89-.37c-1.93-1.39-3.84-2.82-5.82-4.13a10.86,10.86,0,0,0-2.48-.86l-1.05-2.45c3.25-3.15,6.44-1.42,9.68-.05,1.49-2.5.76-5.21,1.51-7.49-2.15-6.94-7.5-10.16-13.45-12.72-.47-.2-1.05-.12-1.52-.32-3.27-1.33-6.57-2.28-8.85-5.6s-5.43-6.17-8.42-9a72.08,72.08,0,0,0-6.18-4.58c-4.79-3.62-9.56-7.24-14.3-10.92-3.12-2.42-6.2-4.91-9.25-7.43a19.09,19.09,0,0,1-2-2.27c-5.3,3-8.6-2.11-11.83-3.15-3.43-3.21-5.91-6.06-8.9-8.19-4-2.88-8.48-5.13-12.65-7.81a9.67,9.67,0,0,1-3.67-3.56c-2.06-4.45-5.75-7.13-9.5-9.85a30.14,30.14,0,0,1-2.9-2.79c-.35-3.3-.74-6.82-1.08-10,1.82-8,8.44-7,14-7.95l6.19,2.34c3.14-.69,14.63,1.73,19.8,3.88.31-.77.71-1.78,1.12-2.78l1.11.81c.19.7.37,1.4.55,2.06,2.21-.55,4.39-1.26,6.63-1.59a16.34,16.34,0,0,1,6.94.3l12.27,5.4c.12,1.51.23,3,.36,4.68.48.67,1.09,1.46,1.62,2.3,1.19,1.9,1.71,4.24,4.22,5.22.41.16,2.51,1.55,1.25,3.26,1.44,2.82,1.29,6.46,4.36,8.44l-.44,4.09,2,1.07c1,4.36,2.06,9,3.25,13.57.38,1.45.85,3.17,1.87,4.11,4.15,3.8,5.42,9.57,9.41,13.44a3.64,3.64,0,0,1,.8,1.88,5.62,5.62,0,0,0,3.3,4.51c2.25,1.11,3.36,3.35,4,6.12l11.56,8.39-1.27.84c2.71,1.6,5.23,3.06,7.71,4.58,1.46.89,3.36,1.57,4.18,2.89,2.61,4.21,7,5.91,10.85,8.34.73.45,1.53.78,2.47,1.26a18.66,18.66,0,0,0,7,7c3.32,1.77,3.95,5.58,7.06,8,2.55-.11,5.5-.67,8.29-.24a40.54,40.54,0,0,1,8.77,2.87c2.61,1.05,5.74,1.3,7.15,3.66l8,3.24-.13-.15,9.1,6.6c.41,2.14,1,4.2,3.33,5.15l.31.45-.44-.34,1.56-1c.43,3.65,2.36,5.75,4.38,6.08l7.24,6.13c.06.74.15,1.89.25,3.26l2.8-2.51,1.13,2.41-1.09,1.1.61.42.4-1.6c4.59,3.11,9.77,4.72,15.06,6.17,2,.56,4.52,1,5.08,4l1.35-1,3,1.24c.26,1.22.5,2.43.94,4.56l1.06-2.37c.29.13.71.18.85.4,1.5,2.45,3,4.91,4.42,7.41,1.66,2.94,3.24,5.92,5,9.19-.12.53-.35,1.49-.57,2.44l-.8,1.21.41.2c.13-.46.27-.92.41-1.38l2.34,1.61c1.1,3.94,2.27,8,3.39,12.15a8.87,8.87,0,0,1,.54,3,14.87,14.87,0,0,0,3.2,10.34c4,1.42,8.12,3,12.35,4.36a13.78,13.78,0,0,1,7.37,5.21,14.51,14.51,0,0,0,10.95,6.71c3,.57,6.07.77,8.87,1.81A38.13,38.13,0,0,0,489.42,372a11.7,11.7,0,0,1,4.91.73l-1.24.41.1.46c2.3-.29,4.63-.94,6.9-.77,2.51.18,5,1.1,7.47,1.71-.29,1-.47,1.57-.87,2.85l4.58-2.32,4.25,2.45,10.53-6.58,9-6.71c1-2.82,2.44-7,3.85-11l14.6-8.83c2.45-6.2,7.46-10,12.14-13.95,4.85-4,9.73-8.21,15.7-10.71a22,22,0,0,1,2.77-1.34,59.05,59.05,0,0,0,9.43-3.42c5.59-2.44,5.5-2.34,11.19-1.5,0-.12.08-.27,0-.35s-.27-.21-.36-.35a7.58,7.58,0,0,1-.47-.85l4.77.14c0,.4-.09.8-.13,1.19-1.38.4-1.41,1.19-.53,2.44.15-1,.28-1.78.4-2.57l.75-.4ZM215,179.31l-.47.27.36-.41.72-.35-.62-.53-.27-.51.42.39C215.05,178.55,215,178.93,215,179.31Zm4-37.23.55.54-.68-.44-.58-.56ZM678.83,444.9l-.54-.55.66.45.56.53ZM620.65,423c.07-1.44,1.51-3.07-.56-4.23l-.24-.45.35.36c-.16,1.45-1,3,.6,4.21,0,.85,0,1.69,0,2.53l.73-.18Zm-1.37,23.85-2.93-.08c1,1.13,1.39,1.56,2.26,2.53.3-1.41.43-2,.56-2.59,1.35-.88,2.58-1.83,1.64-4.13C619.05,443.85,619.58,445.52,619.28,446.88ZM413,355.9l1-1.17-.55-.34c-.16.5-.33,1-.5,1.5-1.73-4.4-2.53-9.21-5.91-12.86a178.1,178.1,0,0,0-15.21-14.38c-2.86-2.44-6.38-4.35-8.58-7.26-3.56-4.74-8.47-7.93-12.44-12.15-1.33-1.41-3.14-2.73-5.91-1.73-.28,5.66-2,11-3.92,16.33a16.88,16.88,0,0,0-.47,3.59c-.13,1-.25,2.06-.48,3.07-1.14,5-2.34,9.94-3.47,14.92a14,14,0,0,0-.07,2.47l15.08,10.28L383.1,360c2.71,1.84,6.45,4.57,10.38,7,4.64,2.85,9,6.5,14.93,6.36.91,0,1.85.69,2.75,1.12,3.63,1.69,7.19,3.55,10.89,5.06,4.11,1.66,8.28,3.12,11.68,6.13.39.35,1.16.27,1.73.38,1,2.64,2.08,4.21,4.9,5.46,4.9,2.17,8.7,5.94,13.05,8.86,3.69,2.47,7.65,5.11,10.07,9.36.89,1.56,3.21,2.39,5,3.34,1.34.72,3,.84,4.27,1.67,2.26,1.51,4.3,3.35,6.3,4.95-.23,1.44-.39,2.44-.46,2.89l-6.8,6.53c.35,2.41.62,4.24.91,6.15l5.11,2.12-.56,2.1,1.44.32c0,1.52.08,3.05.14,5.13l6.62,4.38c7.72-.33,14.48.48,21-1.24s12.7-3.9,19.32-6l6.81-9.35L531,429.35c-2-.76-3.69-1.55-5.48-2.07s-3.58-.74-5.23-1.06l-5.26,4c-7.46-1-8.65-2.7-8.81-12.29-2.65-2.52-5.46-5.28-8.37-7.93a23.34,23.34,0,0,0-4.82-3.75,26.14,26.14,0,0,1-6.58-4.87,15.57,15.57,0,0,0-3.24-2.48,70.72,70.72,0,0,1-12.75-9.53c-3.88-3.58-8.24-6.82-13.8-7.21a11.61,11.61,0,0,0-1.71-1.39c-6-3.13-11.18-7.39-16.18-11.91-2.62-2.37-5.94-3.27-9.53-3.91L427,367.72l-3.4-1.06c-.05-.34-.11-.84-.17-1.34.36-.36.72-.71.23-.23.16-.66,0-.15-.09.37l-4.17.47-4.2-3.82ZM382.26,504.54a14.33,14.33,0,0,0,6.44-8.19c1.44-4.18,2.57-8.47,5-12.25a5.48,5.48,0,0,0,.57-4.88l-6.54-1.93c-3.27,1.2-6.39,2.8-9.69,3.44a14.21,14.21,0,0,0-8,4.67c-1.28,3.29,1.19,5.14,2.5,7.16s3.75,3.44,5.38,5.38A73.36,73.36,0,0,1,382.26,504.54Zm-17-44.19a69,69,0,0,1-6.33-4.49c-1.82-1.62-3-4.13-6.19-4.1l-.76,7.07,4,6.7,3.72,1.5C362.79,466.17,365.37,464.82,365.27,460.35Zm247.87-7c.15.28.29.57.43.85l4.51-.89,1.43.76,5.3-2.23c-.32-1.48-.64-2.93-.94-4.31l-1.78-.19c-.24,1.28-.47,2.5-.75,4l-5.29-1ZM511.88,409.11l4-2.8-.33-.76-4.72.2C511.25,407.08,511.54,408,511.88,409.11Zm79.52,35.58c.75,2.47.94,4.43,3.35,5C593.84,448.14,595.1,445.48,591.4,444.69Zm13.4.84-.87-5.09C603.09,442.25,602.55,444,604.8,445.53ZM593.25,430.7c-1.55,1.05-2.4,2-1.21,3.87C594,433.68,593.86,432.43,593.25,430.7Zm3.47,17.75c-1.3,2.25-.29,3.48,1,4.64C597.43,451.74,597.14,450.38,596.72,448.45ZM593.17,423c.62-.61,1.08-.89,1.24-1.28a4.07,4.07,0,0,0-.06-1.45C592.52,420.35,592.53,421.3,593.17,423Zm88.23,16.51-.62-.21c-.3.73-.61,1.45-.91,2.18l.88.29C681,441,681.19,440.23,681.4,439.48Zm-81.33,13.31c1.57-1.21,1.57-1.21,0-2C600.09,451.43,600.08,452,600.07,452.79Zm7.36-70.07-.38-1.67-3.08,1.3ZM620.2,357l-2,.47,1.69,2.43Zm-3.62,88,.76,0c0-.73,0-1.46,0-2.19l-.68,0C616.67,443.52,616.63,444.24,616.58,445Zm-99.21-38.81.77,0c0-.7,0-1.4,0-2.1l-.75,0ZM630.12,479l-.81-.92c-.28.4-.59.78-.84,1.2,0,.06.21.39.23.38C629.18,479.43,629.65,479.2,630.12,479ZM221.24,184.79l-.42-.57-1.21.88.41.57Zm202.84,152a5.08,5.08,0,0,0-.46.64c0,.05.16.19.25.29Zm202.11-20.16.31.05c0-.33.1-.67.16-1l-.31-.05C626.3,315.91,626.24,316.25,626.19,316.58Zm-8.8,113.87h-.21l0,1.09c.1-.09.3-.18.3-.27A5.93,5.93,0,0,0,617.39,430.45Zm66.75-10.53c-.09-.77,0-.39,0,0Zm-2.7,13.51c.37-.32.57-.41.56-.5a3.87,3.87,0,0,0-.15-.8C681.74,432.47,681.63,432.81,681.44,433.43Zm-57.2-1.1.28,0,.12-1.15-.36,0Zm57,3.92.31.05c.06-.37.13-.74.19-1.11l-.32-.06Zm-89.44-9.56-.23,0-.2,1.13.31,0Zm-71.38-18,.24,0,.12-1.12-.25,0Zm71.08,11.59-.38,0-.12,1.13.38,0Zm16.24,21.66.72.44.11-.65Zm10-91-.45,0-.16,1.57.44,0ZM216.41,142.34l-.29,0-.13,1.19.45,0Zm142.48,187.6h0C358.9,329.16,358.89,329.47,358.89,329.94Zm68.66,10.26.21.21.08-.28ZM158.15,468.94l.24.19.06-.23ZM616,356.3l-.19-.19-.08.27Zm6.66,64.31-.2-.21-.08.27ZM318.85,265.17l.21-.24-.28-.08Z"/><path class="cls-1" d="M488.52,576.88c-1.4-3.41-4.56-4.88-7.58-6.44,2.61-3.64,4.48-3.91,9-2l10.42.41c2.45-1.32,3.83-4.81,5.45-7.92a52.18,52.18,0,0,1,7.73-11.42c2.29-2.49,4-5.51,6-8.25,2.45-3.29,4.61-6.91,7.54-9.71a44.19,44.19,0,0,1,9.74-6.63c2.59-1.39,5.17-2.28,6.42-5.43.76-1.94,2.66-3.42,4.14-5.22,2.85-1.37,5.83-3,9-4.23a72.61,72.61,0,0,1,8.22-2.13,8.48,8.48,0,0,1,3.67,5.56c.75,4,2.4,7.81,3.29,11.75.39,3.37.77,6.74,1.24,10.8-.11.28-.48,1.23-.85,2.16,2,6.8.44,13-2.26,19.36-2.15,5.11-5.69,7.88-10.24,10.1a41.38,41.38,0,0,0-4,2.54c-3.51.7-7.18-.89-10.25-3.45A53.35,53.35,0,0,0,534,559.65a14.57,14.57,0,0,1-2.2-1.29c-1.88-1.35-1.87-1.38-5.26-1.31a2.15,2.15,0,0,0-.23,3.19,13.86,13.86,0,0,0,1.93,2.42c4.79,4.28,8,9.85,12,14.79,4.16,5.19,7.26,11.22,10.9,17-.39,7.52-.78,15-1.13,21.89-2.69,4-6.43,5.36-10,6.11-3.37.72-6.49,3.09-10.39,2.37-.54-2.08-1.06-3.86-1.46-5.67a13.2,13.2,0,0,0-6.1-8.51c-3-1.95-5.89-4.12-8.81-6.21-.84-.59-2-1.07-2.42-1.89-3.05-5.46-9.16-7-13.61-10.62-1.22-1-3.19-1.09-5.19-1.71l-3.61-13.5,1.64-.12-.29-.68Zm4.6,2-.22-.19-.07.23Z"/><path class="cls-1" d="M476.15,552.87l.36-3.37-2.89.12c.16,2,.29,3.65.44,5.5-1.07,2.89-3.14,4.13-6.89,3.37-.51-1.73-1.06-3.61-1.45-5l-6.45-10.93c-5.81-5.21-13.47-10.52-22.72-12.18-3.88-4-4-9-5.09-13.61-.64-2.63-1.43-5.36-1.29-8,.33-6,1.19-12,1.82-17.94l4-1.94c2.76,1.48,5.71,1.95,8.71,2.51,5.81,1.09,10.53,3.53,13,9.86,1.76,4.58,2.61,9.51,5,13.8,2.69,4.78,5.59,9.44,8.51,14.07,1.27,2,3.12,3.69,3.28,6.29a2.57,2.57,0,0,0,.53,1.45C479.27,541.86,478.29,547.41,476.15,552.87Z"/><path class="cls-1" d="M661.77,555.73l6.42-3.56a71.29,71.29,0,0,1,7.77,2.51,60.87,60.87,0,0,1,6.5,4c.31,1.67,1.69,3.31,3.11,4.8,3.13,3.29,3.41,7.29,3.23,11.43-.08,1.86-.38,3.72-.56,5.42a8.34,8.34,0,0,1-9.11-.64c-2.38-1.62-4.39-3.79-6.84-5.27a28.63,28.63,0,0,0-7.59-2.9L653.94,569l4.45-.69c-.69-1.56-1.34-3-1.88-4.22h-4.13c-.15-.57-.4-1-.29-1.18.82-1.29,1.71-2.54,2.66-3.9a22.83,22.83,0,0,1,4.28-1.48c1.36-.21,1.15-2.44,2.84-1.87.13.22.25.44.25.45Z"/><path class="cls-1" d="M637.19,288c-1.5.74-3.28,1.75-5.15,2.5a8.06,8.06,0,0,1-6.92-.36c-2.74-1.35-5.77-2.14-8.46-3.58-1.72-.91-3-2.55-4.62-3.93,2.88-6.58,7.12-10.59,14.13-11.34a34.27,34.27,0,0,0,6-1.69c1.61.56,3.15,1,4.58,1.63a43.62,43.62,0,0,1,3.81,2.23C640.09,278.44,640.55,283.16,637.19,288Z"/><path class="cls-1" d="M27.07,358.34c.43,1.46.85,2.92,1.2,4.11-.74,3.71-3.48,5.33-6.19,7.49l-9,.63L4.91,363c-1.18-1.56-1.43-4.19-.53-7.35l2.3-2.05C17.75,352.64,20.62,353.27,27.07,358.34Z"/><path class="cls-1" d="M70.81,170.34c-1.92-2.79-1.62-5.44-.8-8.48,5.34-2.92,11.35-2.52,17.24-3.13.9,1,1.84,2,2.73,3.06,5.27,6.26,2.86,13.31-5.11,15-.5.1-1,.28-1.51.43C78.57,176.21,74.84,173.21,70.81,170.34Z"/><path class="cls-1" d="M604.39,214.7c.84,1.24,1.7,2.46,2.53,3.71,2.59,3.9,2.11,6.75-1.63,9.77-.66.53-1.35,1-2.09,1.58-7.85,1.05-11.13-1.14-13.77-9.44,1.68-3.24,5.22-3.22,8.19-4.14,2.22-.7,4.55-1,6.83-1.54Z"/><path class="cls-1" d="M5.56,462.49A34.25,34.25,0,0,1,4.72,459c-.26-2-.41-4.06-.61-6.08,7.19-1,15,2.72,19.54,9.08-.08.32-.06.76-.27,1-.73.71-1.54,1.34-2.37,2C15.84,464.64,10.68,464.54,5.56,462.49Z"/><path class="cls-1" d="M232.33,555.94c.7,1.09,1,1.6,1.81,2.81-3.58-1.37-6.24-1-8.2,1.06-3.84.15-7.14-.37-10.23-3l.5-4.66,8.4-4.38C232.22,548.18,234,550.11,232.33,555.94Z"/><path class="cls-1" d="M138.05,291.92l-5.09-.54c-2.23-1.92-4.91-3.64-4.13-7.79l3.24-3.83c3.57-1.85,6.79-1.64,10.2,1.24l1.43,3.65C142.38,287.28,141.68,290.24,138.05,291.92Z"/><path class="cls-1" d="M533.25,212.42c3.46-2.45,6.68-1.31,10.27-.94.93,1.09,2,2.35,2.92,3.43-.33,4-.33,4-3.24,7.38l-6.91.86c-2.58-1.8-4.75-3.39-4.91-6.68Z"/><path class="cls-1" d="M86,180.39l6.67.71c2.25,1.14,2.91,3.41,3.48,6.19-1.27,1.71-2.67,3.62-4,5.45l-5.41.47C81.71,189.85,81.41,185.7,86,180.39Z"/><path class="cls-1" d="M610.66,269.48l-3.57,2.39a6.64,6.64,0,0,1-1.21.15c-1.71-.15-3.41-.35-5-.52-2.61-5.95-2.61-5.95-2.35-8.86l6.64-3.22c2.53,1.86,5.88,1.93,7.35,5.24C612,266.1,611.35,267.68,610.66,269.48Z"/><path class="cls-1" d="M27.17,425.57l3.51-3.89,7.72.82L41.82,427c-.74,5.26-3.79,6.86-8,7C30.22,431.3,28.9,429.67,27.17,425.57Z"/><path class="cls-1" d="M355.25,38.61l6.5-6.09c7,.52,8.25,1.89,7.41,8.39-2.25,2-2.25,2-8.65,3.37C357.84,43.46,356.26,41.57,355.25,38.61Z"/><path class="cls-1" d="M175.17,229.18l-4.41.62L165.85,224c-.74-2.89.39-4.6,2.51-5.37,3.11-1.13,6.35-1.89,9,1.55l1.2,4.38L175,229.3Z"/><path class="cls-1" d="M41.29,322.71l1.33,3-2.83,5.09-5.68,1.26-4.92-3.6.49-4.57C33.12,320.61,37.15,321.9,41.29,322.71Z"/><path class="cls-1" d="M142.68,220.82l5.37.57c3.66,5.71,3,8-2.94,11.43-4.57-2-4.57-2-6.15-7.24Z"/><path class="cls-1" d="M183,221c5.87.55,6.63,1.19,7.77,6.42-4,4.76-6.62,5-11.06.61l.53-5Z"/><path class="cls-1" d="M275.46,545.85l6.87.73c2.36,1.87,2.71,4,1.56,6.77l-9.72.2L271,550c.81-.93,1.3-1.6,1.89-2.15S274.24,546.77,275.46,545.85Z"/><path class="cls-1" d="M66.24,252.8c.14-.87.34-2,.57-3.31l2.75-2.05,4.89.52,2.24,6.14-3.5,3C69.81,257.26,67.36,256.35,66.24,252.8Z"/><path class="cls-1" d="M91.61,275.78l2.8,1.68c.33,2.6,3.16,4.78,2.38,8.33l-3.75.39-5.55-5,.45-4.25Z"/><path class="cls-1" d="M89.33,451.8c5.63.7,6.1,1.14,6.88,6.38l-4,2.25c-3.49-.31-5.22-2.08-5.94-5.65Z"/><path class="cls-1" d="M562.91,280.07a6.58,6.58,0,0,0,1.23,1.29c1.41.85,2.89,1.6,4.78,2.63a14.75,14.75,0,0,1-8.16,3.35l-4.7-3.63,5.35-4.38,1.62.88Z"/><path class="cls-1" d="M44.89,257.71l2.37-2.95c2-.4,3.75-.43,5.43,1.05a6.25,6.25,0,0,1-1.54,6.46C46.83,262.3,46.83,262.3,44.89,257.71Z"/><path class="cls-1" d="M646.45,515.17c-5,3.48-7.48,3.48-12.44.25.15-.71.32-1.49.53-2.46C638.72,512.22,642.63,512,646.45,515.17Z"/><path class="cls-1" d="M360.59,253.29l3.14,4.55c.28,2.48-1.07,3.75-3.66,4.5-1-2.45-3.82-4.13-2.65-7.77Z"/><path class="cls-1" d="M190.82,100.82l-2.48,2.29c-3-.88-4.13-2.71-4.28-5.7l3.68-2.55,3.16,2.24C190.88,98.34,190.85,99.51,190.82,100.82Z"/><path class="cls-1" d="M148.32,278.21l.34-3.21c2-2,3.64-1.53,6.56,1.92l-.55,2.95C152.5,281.62,151.32,281.26,148.32,278.21Z"/><path class="cls-1" d="M619.62,218.47l3-4,4.49,1.45-.81,4.71C623.73,220.79,621.57,221.13,619.62,218.47Z"/><path class="cls-1" d="M97.6,269.64l3-2.11,3,.32c1.84,1.68,1.13,3.25.72,4.74C100.5,273.64,100.5,273.64,97.6,269.64Z"/><path class="cls-1" d="M2.5,434.24c0-1.27,0-2.68,0-4.42l4.34-.61,2.05,3.49C8.39,434.81,6.35,435.32,2.5,434.24Z"/><path class="cls-1" d="M63,307.21l-6.28-1.16c0-1.09.06-2,.1-3.14l4.41-1,2.17,1.58Z"/><path class="cls-1" d="M546.73,160.93c.22-1.05.52-2.46.84-4l4.3-.11c.35,1.39.7,2.75,1.08,4.27-1.05.56-1.75,1-2.47,1.32C549,163.13,547.88,162.67,546.73,160.93Z"/><path class="cls-1" d="M132,213.59c-1.92,3.22-4,1.8-6.17,1.93-.4-1.2-.74-2.24-1.11-3.36l2.68-1.72Z"/><path class="cls-1" d="M176.23,66.69l-4.35,1.53-3.28-2c.57-1.36,1.08-2.54,1.76-4.14C172.21,63.61,174.66,63.78,176.23,66.69Z"/><path class="cls-1" d="M8.45,412.71c-.82-4.6-.39-4.95,4.7-4.09.1,1.06.21,2.24.36,4Z"/><path class="cls-1" d="M504.08,526.16c1.53,1.12,2.46,1.8,3.49,2.57-.39,1.79-1,3.18-3.29,3.76l-2.72-2C502.41,529.05,503.13,527.81,504.08,526.16Z"/><path class="cls-1" d="M14.89,403.62c-.07-.86-.14-1.65-.23-2.64l2.85-1.59c1.89.38,2.22,1.3,1.85,4.7Z"/><path class="cls-1" d="M91.66,421.51a19.41,19.41,0,0,1-10.76-.78C84.58,419.3,88.12,420.76,91.66,421.51Z"/><path class="cls-1" d="M182.15,250.79c-1.75,2.75-3,3.3-4.2,2.1a2.31,2.31,0,0,1-.35-3.2C178.57,248.24,179.84,248.52,182.15,250.79Z"/><path class="cls-1" d="M670.33,184.07c-3.34,2.25-3.34,2.25-5.94-.48C667.06,181.28,667.06,181.28,670.33,184.07Z"/><path class="cls-1" d="M392,260.59c-2.47-2.21-1.58-4.48-1.18-6.87,2,1.39,2,1.39,3.21,4.38Z"/><path class="cls-1" d="M33.62,457.46c-.94-2.59.74-3.63,1.6-5.2a11.08,11.08,0,0,1,2.39.43c.34.13.46.79.86,1.56C37,455.26,35.49,456.22,33.62,457.46Z"/><path class="cls-1" d="M410.75,104l-2.2,3c-2.14-2.55-2.14-2.55-.26-5.88Z"/><path class="cls-1" d="M241,123.25c.45,2.42.77,4.16,1.17,6.28l-4.4-.06c0-.43,0-.86,0-.88C240.27,127.9,238.93,125.18,241,123.25Z"/><path class="cls-1" d="M454.07,113.79c-.73-2.64.53-4.18,2.76-5.49L457.9,110C456.35,112.63,456.35,112.63,454.07,113.79Z"/><path class="cls-1" d="M144,160.7l.33-3.12,3.35.06c0,1.23,0,2.28,0,3.71Z"/><path class="cls-1" d="M70,237.32c-2.38.46-3.86.15-5.08-2l4.06-1.73C69.28,234.88,69.58,236,70,237.32Z"/><path class="cls-1" d="M23.79,225.73c.4,1.06.78,2.09,1.27,3.41l-2.93,1.08C20.84,227.3,20.84,227.3,23.79,225.73Z"/><path class="cls-1" d="M60.4,427.46l.37-3.45a5.3,5.3,0,0,1,1.61,0c1.73.69,2.05,1.94,1.3,3.79Z"/><path class="cls-1" d="M332.08,239.58c-.05-1.17-.09-2.27-.15-3.63l3.65.39C334.47,239,334.47,239,332.08,239.58Z"/><path class="cls-1" d="M749.9,312.87l3.08-2.11,3.45,3.07-6.39,0Z"/><path class="cls-1" d="M99.88,100.49l-.42,3.84L96,102.77C96.42,100.25,97.52,99.66,99.88,100.49Z"/><path class="cls-1" d="M556,208.5l3.51,1.65-1.33,1.08,3,2.24c-.33.21-.62.52-.75.46-1.36-.59-2.69-1.24-3.87-1.79-.19-1.53-.33-2.64-.47-3.75Z"/><path class="cls-1" d="M188.23,18.3l-2.93-2.82c.81-.77,1.37-1.29,1.77-1.68C189,14.09,189.33,15.13,188.23,18.3Z"/><path class="cls-1" d="M61,205.44l-2.09,1.85c-1.61-.78-2.47-1.72-1.57-3.61.43-.07,1-.37,1.33-.18A19.79,19.79,0,0,1,61,205.44Z"/><path class="cls-1" d="M95.88,175.21l4,.44c.87.77,1.85,1.66,2.94,2.64-.47.05-1,.26-1.29.12-2-.86-3.91-1.8-5.86-2.71Z"/><path class="cls-1" d="M347.94,12.45c1.33-1.72,2.85-1.11,4.6-.62-.15.87-.26,1.48-.36,2.05C350.14,14.83,348.84,14.2,347.94,12.45Z"/><path class="cls-1" d="M456.17,31.89,452.27,29l1.56-1.42C455.68,28.27,456.66,29.42,456.17,31.89Z"/><path class="cls-1" d="M9,387.82c-.12-1.59-.24-3.19-.41-5.39L11,383.86c-.22,1.29-.43,2.48-.64,3.74l-1.48.1Z"/><path class="cls-1" d="M301.42,559.18l-3.74-.4,2.83-4.42C300.74,555.61,301,557,301.42,559.18Z"/><path class="cls-1" d="M149.38,190l-3.35,1c.44-1.72.71-2.81,1-3.91l1.14-.42C148.56,187.66,149,188.75,149.38,190Z"/><path class="cls-1" d="M123.64,286.92c-1.93,1.72-3.2,1.32-4.25-.56C120.9,284.86,122.26,284.7,123.64,286.92Z"/><path class="cls-1" d="M200.85,100.08l-4.11,1.18c0-1.52,0-2.59,0-4.21Z"/><path class="cls-1" d="M36,231.58l-3.56,0c0-.88,0-1.5-.06-2C33.66,228.42,34.34,228.79,36,231.58Z"/><path class="cls-1" d="M679.12,223.2l5.69,3.15-.2.54c-1.6-.51-3.23-.94-4.77-1.58-.51-.22-.79-1-1.18-1.51Z"/><path class="cls-1" d="M99,466.25c1.62-.87,3.12-.87,5.06.56C101.88,467.93,100.41,467.76,99,466.25Z"/><path class="cls-1" d="M60.7,369.5c-.63-1-1.05-1.62-1.94-3l5.25.19Z"/><path class="cls-1" d="M73.85,290.61a12.25,12.25,0,0,1-2.38.38,12,12,0,0,1-2.23-.72l2.49-2.33Z"/><path class="cls-1" d="M765.58,514.93l.22-2.12,3.67,1.14C768.07,515.79,767,516.06,765.58,514.93Z"/><path class="cls-1" d="M91.52,132.65c0,.93.08,1.86.12,2.82l-5.45-2.91,5.39.15Z"/><path class="cls-1" d="M473.81,140.32l1.79,2.06-2.92,2.13c0-1.78.06-2.83.09-3.87Z"/><path class="cls-1" d="M70.67,382.86l4.1,1.86-.2,1c-.8,0-1.73.27-2.35-.06a9.67,9.67,0,0,1-2.09-2Z"/><path class="cls-1" d="M25.61,442.2c3,.67,3,.67,2.56,4.2Z"/><path class="cls-1" d="M734.13,306.14c.8,1.53,1.61,3.06,2.81,5.33C734.5,310,733.3,308.74,734.13,306.14Z"/><path class="cls-1" d="M576.79,610.59l2.53.27c0,.73,0,1.34,0,2.25l-2.54.08C576.82,612.31,576.81,611.7,576.79,610.59Z"/><path class="cls-1" d="M505,171.57l.27-2.49,2.46,0c0,.92.07,1.55.11,2.47Z"/><path class="cls-1" d="M160.51,279.15l2.56.28c0,.73,0,1.35,0,2.27l-2.52.11C160.54,280.9,160.53,280.27,160.51,279.15Z"/><path class="cls-1" d="M745.09,293.67l-3-4.66C744.79,289.52,745.24,290.7,745.09,293.67Z"/><path class="cls-1" d="M60.07,350.29l-4.14-.66c.43-.75.57-1.26.73-1.26C58.44,348.28,58.45,348.31,60.07,350.29Z"/><path class="cls-1" d="M103.07,297.2l4.14-1.53L105.45,299Z"/><path class="cls-1" d="M383.09,247.23c.25-1.13.41-1.84.72-3.22l2.7,3Z"/><path class="cls-1" d="M102.84,188.44l-2.48-2.75,3.75-.51c-.06,1.08-.11,1.9-.16,2.71Z"/><path class="cls-1" d="M449.87,116.4l1.9-2.46c.6.86,1,1.47,1.84,2.68Z"/><path class="cls-1" d="M456.68,133.64l2.74-1.42c0,1.22,0,2-.07,3.37Z"/><path class="cls-1" d="M419.63,199l-2.11,3c-.61-.81-1-1.31-1.81-2.4Z"/><path class="cls-1" d="M171.09,25.84c-.3-1.65-.59-3.29-.88-4.94l.71-.12c.3,1.64.61,3.28.91,4.92Z"/><path class="cls-1" d="M468.9,129.33c.07-1.2.1-1.85.16-2.83l3.55.11Z"/><path class="cls-1" d="M158.07,194l-1.64-.49.29-2.7,2.13,1.39-.91,1.92Z"/><path class="cls-1" d="M313.78,60l-2.89-1.74,3.17-.89Z"/><path class="cls-1" d="M291,188.77c.18,1.12.35,2.24.63,4C289.06,191.38,290.21,190,291,188.77Z"/><path class="cls-1" d="M585.92,578.31c.66,1.34,1.33,2.68,2,4l-.5.43a9.38,9.38,0,0,1-1.34-1.56,15.24,15.24,0,0,1-.8-2.33Z"/><path class="cls-1" d="M194.82,105.46l-3,1.64c0-1.27,0-2-.05-3.41Z"/><path class="cls-1" d="M721.85,508.56l-3.6-.38C719.86,506.6,719.86,506.6,721.85,508.56Z"/><path class="cls-1" d="M142,91.66l2.67-1.55-.39,3.68Z"/><path class="cls-1" d="M108.62,249.52c.08,1.8.11,2.51.16,3.48h-2.73Z"/><path class="cls-1" d="M14,321.48c-.22-.81-.45-1.62-.82-3l3.48.57-2.81,2.51Z"/><path class="cls-1" d="M63.55,372.71l2-2.73,1.81,2.5Z"/><path class="cls-1" d="M738.64,474.69l2.41.26c0,.27,0,.54,0,.81l-2.47.12Z"/><path class="cls-1" d="M762.71,315.05l2.58,2.63c-.18.22-.37.43-.55.64l-2.94-2.51Z"/><path class="cls-1" d="M168.29,252l-2.76,1.94c.44-1.69.63-2.4.94-3.61Z"/><path class="cls-1" d="M231.07,539l1.35,2-1.78,2Z"/><path class="cls-1" d="M382.32,135.34l-3.16-.63C381.14,133.46,381.14,133.46,382.32,135.34Z"/><path class="cls-1" d="M781.52,462l-2.68-1.54c.1-.21.2-.43.31-.64l2.9,1.19Z"/><path class="cls-1" d="M91.39,274.35l-2.31-1.07,1.71-1.72,1.32,1.94Z"/><path class="cls-1" d="M74.7,442.4l-2.52-.61.18-.86,2.53.27C74.83,441.6,74.77,442,74.7,442.4Z"/><path class="cls-1" d="M237.36,539.85l-.26,2.37h-.82l-.12-2.44Z"/><path class="cls-1" d="M4.45,345.06l2.46.26,0,.95-2.52,0Z"/><path class="cls-1" d="M40.68,352.28,39.53,354l-.48-.19c.18-.69.36-1.38.53-2.07Z"/><path class="cls-1" d="M352,2.34l2.71.29C353.4,3.88,352.62,5,352,2.34Z"/><path class="cls-1" d="M654.85,546.2l.25-2.37C656.61,545,656.61,545,654.85,546.2Z"/><path class="cls-1" d="M97.3,466.72l-3.06,1.1c.61-1.24.91-1.86,1.37-2.81Z"/><path class="cls-1" d="M185.7,535.19l2.1.37c0,.45,0,.6,0,1.34l-2.31-1.12Z"/><path class="cls-1" d="M427.14,1.56,424.2.82l.22-.82,2.86,1.05Z"/><path class="cls-1" d="M67.25,430.39l-1-3.12C68.33,428.22,68.53,429,67.25,430.39Z"/><path class="cls-1" d="M394,114l3.6,2.91c-2.83-.36-3.59-1.3-3.47-3Z"/><path class="cls-1" d="M239.31,29.49l-1-2,3,.5-2.09,1.58Z"/><path class="cls-1" d="M253.06,535.3l2.89.31C254.61,537.17,253.9,536.9,253.06,535.3Z"/><path class="cls-1" d="M87.27,73a5.07,5.07,0,0,1-1.16.26c-.09,0-.34-.68-.26-.74A4.6,4.6,0,0,1,86.91,72C87,72.28,87.1,72.55,87.27,73Z"/><path class="cls-1" d="M75.78,194.86a4.6,4.6,0,0,1,.27,1.17c0,.09-.68.33-.74.26a4.84,4.84,0,0,1-.55-1.06Z"/><path class="cls-1" d="M6.66,250.08l-.82.37c-.13-.39-.25-.78-.38-1.17.31-.05.72-.23.92-.1S6.58,249.77,6.66,250.08Z"/><path class="cls-1" d="M443.5,24.12l-1.88-1,.31-.69,2.06.72C443.83,23.45,443.67,23.79,443.5,24.12Z"/><path class="cls-1" d="M790.43,456.1l.56.67-1,.6c-.09-.31-.31-.64-.25-.9S790.19,456.21,790.43,456.1Z"/><path class="cls-1" d="M783.23,441.92,785,443l-.15.4-2.19-.64Z"/><path class="cls-1" d="M762.51,524.08l.36.83-1.14.37c0-.31-.23-.71-.1-.9S762.2,524.17,762.51,524.08Z"/><path class="cls-1" d="M380.51,62l2-1.9a11.71,11.71,0,0,1-.47,1.56C382,61.81,381.52,61.79,380.51,62Z"/><path class="cls-1" d="M779.92,342.85l.6-.49.6,1c-.28.08-.62.28-.84.19S780,343.11,779.92,342.85Z"/><path class="cls-1" d="M332.46,312.06c.23-.41.37-.67.5-.93a4.83,4.83,0,0,1,.94.71c.06.07-.29.69-.38.68A4.87,4.87,0,0,1,332.46,312.06Z"/><path class="cls-1" d="M22.1,394.68,20.24,394c0-.15.08-.29.13-.43l1.93.21C22.24,394.06,22.17,394.37,22.1,394.68Z"/><path class="cls-1" d="M720.49,498.36l.63-.57.67,1c-.29.09-.62.3-.87.23S720.63,498.6,720.49,498.36Z"/><path class="cls-1" d="M463.37,99.84l.59.66-1.09.64c-.08-.3-.29-.66-.21-.9S463.16,100,463.37,99.84Z"/><path class="cls-1" d="M60.56,121.39l.49.68-1,.58c-.08-.3-.29-.64-.2-.88S60.3,121.51,60.56,121.39Z"/><path class="cls-1" d="M30.5,413.28a4.62,4.62,0,0,1,.27,1.16c0,.09-.68.34-.75.26a5.25,5.25,0,0,1-.53-1.06Z"/><path class="cls-1" d="M477.93,122.4a8.63,8.63,0,0,1,.82-1.09,4.42,4.42,0,0,1,.69.44l-.84,1.13Z"/><path class="cls-1" d="M493.72,181.78l0-1.55.75-.12c.15.53.3,1,.44,1.58Z"/><path class="cls-1" d="M499.11,148.62,498,146.89l.66-.4,1,1.77Z"/><path class="cls-1" d="M58.52,199.42c.14.24.29.48.44.72l-1.1.56c0-.3-.24-.66-.14-.88S58.24,199.55,58.52,199.42Z"/><path class="cls-1" d="M687,472.15l2.89.31a3.11,3.11,0,0,0,0,.32l-2.88-.31Z"/><path class="cls-1" d="M90.85,239.26a4.43,4.43,0,0,1,.26,1.15,1.21,1.21,0,0,1-.74.26,5.17,5.17,0,0,1-.53-1Z"/><path class="cls-1" d="M227.26,24.17c1.2.5,1.91,1.25,1.18,3.47l-1-3.59Z"/><path class="cls-1" d="M145.26,474.19l.14-1.3,1.17.33-.51,1.14Z"/><path class="cls-1" d="M96,319.36c-.37.62-.75,1.24-1.13,1.86l-.36-.12.54-2.08Z"/><path class="cls-1" d="M75.55,359.85l.54.63-1,.58c-.07-.29-.26-.61-.19-.85S75.34,360,75.55,359.85Z"/><path class="cls-1" d="M152.54,147.62l1.59,1.46-1.41,1.41C152.65,149.43,152.61,148.78,152.54,147.62Z"/><path class="cls-1" d="M120.57,93.23l.88.6a4.76,4.76,0,0,1-.76.9c-.08.06-.69-.35-.66-.44A5.05,5.05,0,0,1,120.57,93.23Z"/><path class="cls-1" d="M216.05,195.28a5.16,5.16,0,0,1,.81.65,3.23,3.23,0,0,1-.73.92s-.64-.36-.61-.48A4.37,4.37,0,0,1,216.05,195.28Z"/><path class="cls-1" d="M223.82,122.22l-.87,1.5-.76-.42.82-1.53Z"/><path class="cls-1" d="M112.51,208.63c-.17-.23-.33-.47-.49-.71l1.09-.58c.07.31.28.67.19.91S112.79,208.51,112.51,208.63Z"/><path class="cls-1" d="M99.86,310.1l1-.94c.2.23.39.46.58.7l-1,.9Z"/><path class="cls-1" d="M709.3,466.49l-1.08-1,.74-.59.91,1.16Z"/><path class="cls-1" d="M335.25,192.3l1.74.4-.06.37-1.83-.2Z"/><path class="cls-1" d="M737.21,289.35l-.69-1.32.51-.3.84,1.25Z"/><path class="cls-1" d="M171.27,257.86l-.71-1.42.41-.36,1,1.17Z"/><path class="cls-1" d="M35.28,387.41l1.14,1.71-.93.22C35.44,388.9,35.39,388.45,35.28,387.41Z"/><path class="cls-1" d="M183,166.32l-.86-1.15.47-.46,1.12,1Z"/><path class="cls-1" d="M36.6,375.33l1.23-.91.57.71-1.2.95Z"/><path class="cls-1" d="M641.22,216.3l-1.87-.07,0-.49,1.79-.15C641.15,215.83,641.18,216.07,641.22,216.3Z"/><path class="cls-1" d="M130.05,240.2l.87,1.15-.48.44-1.06-1Z"/><path class="cls-1" d="M130,249.1l-.87,1.23-.63-.52,1-1.06Z"/><path class="cls-1" d="M137.43,152.25l2.36.51c-.1.19-.2.37-.29.56l-2-1.18Z"/><path class="cls-1" d="M597.19,587.74l1.19-.86.38.52-1.17.87Z"/><path class="cls-1" d="M788.13,354l-2-.21.09-.58,2,.33C788.18,353.74,788.15,353.89,788.13,354Z"/><path class="cls-1" d="M17.76,338l1-.88c.14.14.27.29.4.44l-1,.9Z"/><path class="cls-1" d="M401.38,615.15l-1.85-.2,0-.26,1.85.2Z"/><path class="cls-1" d="M308.54,585.29l-.8-1.1c.13-.11.27-.21.41-.31L309,585Z"/><path class="cls-1" d="M27.59,278.56l.93.93-.4.41-.94-.92Z"/><path class="cls-1" d="M246.28,145.66l.1,1.78-.58,0c0-.59-.07-1.18-.11-1.77Z"/><path class="cls-1" d="M677,301.5l-1.28-.74.49-.69,1.13.9Z"/><path class="cls-1" d="M545.26,285.25l-2.15-.23,0-.45,2.15.23C545.29,285,545.27,285.1,545.26,285.25Z"/><path class="cls-1" d="M545,287.27l-1.91-.2,0-.42,1.92.11C545,286.93,545,287.1,545,287.27Z"/><path class="cls-1" d="M54.11,427.54c0-.6,0-1.21,0-1.82h.43c0,.6,0,1.21,0,1.82Z"/><path class="cls-1" d="M680.45,303.1c-.22-.44-.45-.87-.68-1.3l.5-.29.84,1.24Z"/><path class="cls-1" d="M79,229.53l.85,1.15-.47.43-1.06-1Z"/><path class="cls-1" d="M518.85,288.25l3.74.4c-1,.33-1.35.54-1.63.5A14.09,14.09,0,0,1,518.85,288.25Z"/><path class="cls-1" d="M95.05,139.26l-1.73-1.43c2.08-.6,1.36.88,1.64,1.51Z"/><path class="cls-1" d="M70.71,147.68l1,1-.2.29-1.17-1Z"/><path class="cls-1" d="M529,132l.19-1.78.38,0c0,.6-.07,1.19-.1,1.79Z"/><path class="cls-1" d="M245.87,574.54l1.34-.32c0,.16.11.32.17.47l-1.11.76C246.13,575.15,246,574.84,245.87,574.54Z"/><path class="cls-1" d="M814.25,447.8l-.44-.16.3.29Z"/><path class="cls-1" d="M681.25,247.85l-1.57-.46.38-.55c.35.37.69.75,1,1.13Z"/><path class="cls-1" d="M667.27,294l.12-1.17.26,0-.12,1.16Z"/><path class="cls-1" d="M553.37,481c.09-.39.14-.65.2-.91.06.09.18.21.16.28A4.63,4.63,0,0,1,553.37,481Z"/><path class="cls-1" d="M563,280.21c.44-.2.87-.4.47-.21l-.58.07Z"/><path class="cls-1" d="M525.74,525l.12-1.12.3,0L526,525Z"/><path class="cls-1" d="M598.71,214.68c-.3,0-.6,0,0,0C598.15,214.48,598.43,214.58,598.71,214.68Z"/><path class="cls-1" d="M814.11,447.93l.35.1c.45.48.12.13-.21-.23Z"/><path class="cls-1" d="M604.45,214.64c-.47-.07-.94-.15-.22,0-.64-.37-.24-.14.16.09Z"/><path class="cls-1" d="M501.22,209.4l-.82.19c0-.2.07-.4.11-.6Z"/><path class="cls-1" d="M722.25,239.15l1.15.12,0,.25-1.15-.12Z"/><path class="cls-1" d="M511.77,99.82l1.07.12,0,.28-1.07-.11Z"/><path class="cls-1" d="M578.9,629.71c.41-1.28.53-1.65.65-2,.06.13.22.29.18.39A13.91,13.91,0,0,1,578.9,629.71Z"/><path class="cls-1" d="M503.18,44.83c-.06.29-.13.58-.2.87C503.05,45.41,503.11,45.12,503.18,44.83Z"/><path class="cls-1" d="M493.84,94l-.09.83-.2,0,.08-.83Z"/><path class="cls-1" d="M556.12,208.39l-1.94-1.23-.15.11,2,1.23Z"/><path class="cls-1" d="M170.63,211.63c-.41,1.27-.52,1.63-.64,2-.07-.13-.22-.29-.18-.39A14.55,14.55,0,0,1,170.63,211.63Z"/><path class="cls-1" d="M195.18,211.93l1.12.18,0,.25-1.12-.18Z"/><path class="cls-1" d="M198.85,207.14l1,.21c-.1.06-.23.19-.3.17A5.18,5.18,0,0,1,198.85,207.14Z"/><path class="cls-1" d="M211.6,196.2l-1.15-.13,0-.27,1.15.12Z"/><path class="cls-1" d="M208.84,223.65l-.41,1.32a4.64,4.64,0,0,1-.12-.82C208.31,224.05,208.51,224,208.84,223.65Z"/><path class="cls-1" d="M213.7,203.75l.21-1c.07.09.22.22.2.29A4.88,4.88,0,0,1,213.7,203.75Z"/><path class="cls-1" d="M239.19,29.6c.49,0,1,.1.35,0l-.23-.15Z"/><path class="cls-1" d="M197.68,558.8a5.18,5.18,0,0,1-.12-.88c0-.09.2-.18.32-.28l0,1.15Z"/><path class="cls-1" d="M247.37,152.87l.09-.82.15,0-.08.82Z"/><path class="cls-1" d="M3.75,382.44l1.14.12,0,.25H3.73C3.74,382.68,3.74,382.56,3.75,382.44Z"/><path class="cls-1" d="M8.92,387.7c-.16.53-.31,1.06-.46,1.59L7.94,389,9,387.82Z"/><path class="cls-1" d="M41.84,134.17c-.3,0-.59,0,0,0C41.31,134,41.57,134.06,41.84,134.17Z"/><path class="cls-1" d="M42,337.42l1,.24c-.12.09-.28.27-.35.23A3.53,3.53,0,0,1,42,337.42Z"/><path class="cls-1" d="M52.38,405.65h0C52.57,404.86,52.5,405.16,52.38,405.65Z"/><path class="cls-1" d="M53.24,436.88l0-.93.19,0-.09.91Z"/><path class="cls-1" d="M95,139.34l.38.14-.29-.22Z"/><path class="cls-1" d="M81.45,290.22c0-.87.07-1.15.08-1.44l.19,0C81.66,289.09,81.61,289.36,81.45,290.22Z"/><path class="cls-1" d="M104.48,83.49c.06-.37.11-.75.17-1.13l.27,0c-.06.38-.13.76-.19,1.13Z"/><path class="cls-1" d="M87,269.33l-.12,1.17-.39-.06c.08-.39.17-.77.25-1.15Z"/><path class="cls-1" d="M126.11,167.09l-.12,1.17-.28,0,.12-1.17Z"/><path class="cls-1" d="M141.72,16.25c.37-1.12.49-1.47.61-1.82.07.12.23.28.19.37A10.68,10.68,0,0,1,141.72,16.25Z"/><path class="cls-1" d="M120.18,240.34l1.13.18,0,.3-1.13-.18C120.14,240.54,120.16,240.44,120.18,240.34Z"/><path class="cls-1" d="M140.67,69.82l-.09.81-.19,0,.08-.81Z"/><path class="cls-1" d="M137.54,152.14l-1.6-.52.27-.41,1.22,1Z"/><path class="cls-1" d="M150.58,53.81l1,.24c-.12.07-.27.24-.35.21A4.34,4.34,0,0,1,150.58,53.81Z"/><path class="cls-1" d="M421.88,98.5c.39-1.22.51-1.57.62-1.93.07.13.22.29.19.39C422.6,97.22,422.44,97.45,421.88,98.5Z"/><path class="cls-1" d="M401.59,186.15c-.06.38-.12.76-.17,1.14l-.27,0c.06-.38.12-.76.19-1.14Z"/><path class="cls-1" d="M308.71,555.85c-.37.59-.18.3,0,0Z"/><path class="cls-1" d="M328.14,286.77l.81-.19-.15.69Z"/><path class="cls-1" d="M333.3,190.35l-.12,1.12-.28,0c.07-.37.13-.74.19-1.11Z"/><path class="cls-1" d="M328.12,226.3l.18-1.12.25,0c-.06.37-.13.75-.19,1.12Z"/><path class="cls-1" d="M254.58,592l.13-1.19.26,0-.13,1.19Z"/><path class="cls-1" d="M359,266.74l.35-.4-.48.25Z"/><polygon class="cls-1" points="73.88 213.65 74.14 213.59 74.06 213.85 73.88 213.65"/><polygon class="cls-1" points="42.25 442.7 42.3 443.02 42.06 442.97 42.25 442.7"/><path class="cls-1" d="M92.77,131.79l.37-.37-.49.24Z"/><path class="cls-1" d="M92.65,131.66l-1.13,1,.06.06,1.19-.92Z"/><path class="cls-1" d="M644.16,565.23l-.33-.38.2.48Z"/><path class="cls-1" d="M644,565.33l.76.39-.63-.49Z"/><path class="cls-1" d="M78.59,195l.12-.1Z"/><path class="cls-1" d="M681.1,248c.19.17.37.35.43.41l-.28-.53Z"/><path class="cls-1" d="M78.71,194.89l-.43-.4.31.5Z"/><polygon class="cls-1" points="74 224.05 74 224.35 73.8 224.28 74 224.05"/><polygon class="cls-1" points="18.16 295.3 18.45 295.21 18.37 295.51 18.16 295.3"/><path class="cls-1" d="M13.88,321.6l.4.34s-.13-.25-.25-.46Z"/><path class="cls-1" d="M814.51,347.71l-.1-.09c-.14-.4,0-.14.05.13Z"/><path class="cls-1" d="M814.46,347.75l.71.53-.66-.57Z"/><polygon class="cls-1" points="0.29 407.19 0 407.29 0.08 406.95 0.29 407.19"/><polygon class="cls-1" points="64.83 135.49 64.56 135.58 64.63 135.28 64.83 135.49"/><path class="cls-1" d="M393.15,112.71l-.45-.38.34.47Z"/><path class="cls-1" d="M394.11,113.87l-1-1.16-.11.09c.31.4.63.79.94,1.18Z"/><polygon class="cls-1" points="755.29 283.44 755.03 283.53 755.1 283.23 755.29 283.44"/><polygon class="cls-1" points="38.91 179.63 39.2 179.56 39.1 179.85 38.91 179.63"/><path class="cls-1" d="M496.75,61.31l.38-.37-.51.22Z"/><path class="cls-1" d="M175,229.3l.94,1.17.15-.11-1-1.18Z"/><polygon class="cls-1" points="164.28 258.92 164.01 258.97 164.09 258.72 164.28 258.92"/><path class="cls-1" d="M496.62,61.16l-.34.46s.25-.17.47-.31Z"/><polygon class="cls-1" points="512.03 195.11 512.01 194.8 512.22 194.86 512.03 195.11"/><path class="cls-1" d="M500.43,261l.29-.39-.41.25Z"/><path class="cls-1" d="M500.31,260.84l-.35.36.47-.22Z"/><path class="cls-1" d="M554.18,207.16c-.15-.2-.3-.4-.35-.48,0,.1.12.35.2.59Z"/><path class="cls-1" d="M227.4,24.05l-.36-.43.22.55Z"/><polygon class="cls-1" points="113.82 269.12 114.08 269.06 114.02 269.32 113.82 269.12"/><polygon class="cls-1" points="636.37 312.63 636.08 312.67 636.15 312.44 636.37 312.63"/><path class="cls-1" d="M637.63,314.27l.38-.39-.49.26Z"/><path class="cls-1" d="M157.94,194.08l.44.41-.31-.53Z"/><path class="cls-1" d="M620.91,314.58l.38-.41-.5.27Z"/><polygon class="cls-1" points="487.81 34.78 487.49 34.83 487.54 34.6 487.81 34.78"/><path class="cls-1" d="M625.4,311.8l-.44-.3.31.41Z"/><polygon class="cls-1" points="133.95 110.55 134.26 110.53 134.19 110.77 133.95 110.55"/><polygon class="cls-1" points="207.32 575.3 207.6 575.22 207.5 575.52 207.32 575.3"/><path class="cls-1" d="M373.09,319.57l-1.8,2.6-1.5-2.73Z"/><path class="cls-1" d="M399.91,354l-2.48,1-.92-3.14Z"/><path class="cls-1" d="M376.42,347.14l.51.7-1,.62c-.09-.3-.3-.62-.24-.88S376.12,347.3,376.42,347.14Z"/><path class="cls-1" d="M394.87,361.66l.09-1.79.52,0c0,.6-.06,1.19-.08,1.78Z"/><path class="cls-1" d="M383.34,328.24c0,.67,0,1.34,0,2l-.68,0,.11-2Z"/></g></g></svg>