<svg width="264.58mm" height="176.39mm" version="1.1" viewBox="0 0 264.58 176.39" xmlns="http://www.w3.org/2000/svg">
 <defs>
  <linearGradient id="linearGradient2377" x2="1" gradientTransform="matrix(30.708 57.3 -57.3 30.708 8.1475 152.18)" gradientUnits="userSpaceOnUse">
   <stop style="stop-color:#e040fb" offset="0"/>
   <stop style="stop-color:#e040fb" offset=".0025422"/>
   <stop style="stop-color:#4a148c" offset="1"/>
  </linearGradient>
  <linearGradient id="linearGradient2399" x2="1" gradientTransform="matrix(35.296 35.296 -35.296 35.296 9.7871 171.57)" gradientUnits="userSpaceOnUse">
   <stop style="stop-color:#e040fb" offset="0"/>
   <stop style="stop-color:#e040fb" offset=".0025422"/>
   <stop style="stop-color:#4a148c" offset="1"/>
  </linearGradient>
  <linearGradient id="linearGradient2449" x2="1" gradientTransform="matrix(14.958 16.62 -16.62 14.958 8.0522 174.88)" gradientUnits="userSpaceOnUse">
   <stop style="stop-color:#fff" offset="0"/>
   <stop style="stop-color:#fff" offset="1"/>
  </linearGradient>
  <linearGradient id="linearGradient2487" x2="1" gradientTransform="matrix(0 104.1 -104.1 0 121.23 108.37)" gradientUnits="userSpaceOnUse">
   <stop style="stop-color:#e040fb" offset="0"/>
   <stop style="stop-color:#e040fb" offset=".0025422"/>
   <stop style="stop-color:#4a148c" offset="1"/>
  </linearGradient>
  <linearGradient id="linearGradient3057" x2="1" gradientTransform="matrix(0 96.837 -96.837 0 121.23 98.035)" gradientUnits="userSpaceOnUse">
   <stop style="stop-color:#e040fb" offset="0"/>
   <stop style="stop-color:#e040fb" offset=".0025422"/>
   <stop style="stop-color:#4a148c" offset="1"/>
  </linearGradient>
  <linearGradient id="linearGradient3079" x2="1" gradientTransform="matrix(107.03 25.961 -25.961 107.03 133.31 102.8)" gradientUnits="userSpaceOnUse">
   <stop style="stop-color:#b2ff59" offset="0"/>
   <stop style="stop-color:#b2ff59" offset=".0054007"/>
   <stop style="stop-color:#388e3c" offset="1"/>
  </linearGradient>
  <linearGradient id="linearGradient3101" x2="1" gradientTransform="matrix(86.217 21.455 -21.455 86.217 135.02 102.89)" gradientUnits="userSpaceOnUse">
   <stop style="stop-color:#b2ff59" offset="0"/>
   <stop style="stop-color:#b2ff59" offset=".0054007"/>
   <stop style="stop-color:#388e3c" offset="1"/>
  </linearGradient>
  <linearGradient id="linearGradient3613" x2="1" gradientTransform="matrix(31.884 -17.581 17.581 31.884 -36.308 80.278)" gradientUnits="userSpaceOnUse">
   <stop style="stop-color:#0d47a1" offset="0"/>
   <stop style="stop-color:#18ffff" offset="1"/>
  </linearGradient>
  <linearGradient id="linearGradient3635" x2="1" gradientTransform="matrix(24.938 33.025 -33.025 24.938 66.52 147.37)" gradientUnits="userSpaceOnUse">
   <stop style="stop-color:#b2ff59" offset="0"/>
   <stop style="stop-color:#b2ff59" offset=".0054007"/>
   <stop style="stop-color:#388e3c" offset="1"/>
  </linearGradient>
  <linearGradient id="linearGradient3657" x2="1" gradientTransform="matrix(21.455 48.869 -48.869 21.455 192.91 144.06)" gradientUnits="userSpaceOnUse">
   <stop style="stop-color:#ffb300" offset="0"/>
   <stop style="stop-color:#ffb300" offset=".0073165"/>
   <stop style="stop-color:#ff4081" offset="1"/>
  </linearGradient>
  <radialGradient id="radialGradient3707" cx="0" cy="0" r="1" gradientTransform="matrix(-51.552 -72.112 72.112 -51.552 235.47 191.9)" gradientUnits="userSpaceOnUse">
   <stop style="stop-color:#d4145a" offset="0"/>
   <stop style="stop-color:#d4145a" offset=".012442"/>
   <stop style="stop-color:#ff4081" offset="1"/>
  </radialGradient>
  <linearGradient id="linearGradient3727" x2="1" gradientTransform="matrix(-17.597 6.2925 -6.2925 -17.597 191.05 190.97)" gradientUnits="userSpaceOnUse">
   <stop style="stop-color:#0d47a1" offset="0"/>
   <stop style="stop-color:#18ffff" offset="1"/>
  </linearGradient>
  <linearGradient id="linearGradient3747" x2="1" gradientTransform="matrix(-18.97 3.9609 -3.9609 -18.97 189.24 193.95)" gradientUnits="userSpaceOnUse">
   <stop style="stop-color:#0d47a1" offset="0"/>
   <stop style="stop-color:#18ffff" offset="1"/>
  </linearGradient>
  <linearGradient id="linearGradient3797" x2="1" gradientTransform="matrix(-3.7192 -3.5213 3.5213 -3.7192 179.24 193.69)" gradientUnits="userSpaceOnUse">
   <stop style="stop-color:#fff" offset="0"/>
   <stop style="stop-color:#fff" offset="1"/>
  </linearGradient>
  <linearGradient id="linearGradient3833" x2="1" gradientTransform="matrix(-17.597 6.2925 -6.2925 -17.597 29.127 131.35)" gradientUnits="userSpaceOnUse">
   <stop style="stop-color:#0d47a1" offset="0"/>
   <stop style="stop-color:#18ffff" offset="1"/>
  </linearGradient>
  <linearGradient id="linearGradient3853" x2="1" gradientTransform="matrix(-18.97 3.9609 -3.9609 -18.97 27.316 134.33)" gradientUnits="userSpaceOnUse">
   <stop style="stop-color:#0d47a1" offset="0"/>
   <stop style="stop-color:#18ffff" offset="1"/>
  </linearGradient>
  <linearGradient id="linearGradient3903" x2="1" gradientTransform="matrix(-3.7192 -3.5213 3.5213 -3.7192 17.311 134.07)" gradientUnits="userSpaceOnUse">
   <stop style="stop-color:#fff" offset="0"/>
   <stop style="stop-color:#fff" offset="1"/>
  </linearGradient>
  <linearGradient id="linearGradient3939" x2="1" gradientTransform="matrix(-36.405 13.018 -13.018 -36.405 188.41 86.602)" gradientUnits="userSpaceOnUse">
   <stop style="stop-color:#0d47a1" offset="0"/>
   <stop style="stop-color:#18ffff" offset="1"/>
  </linearGradient>
  <linearGradient id="linearGradient3959" x2="1" gradientTransform="matrix(-39.246 8.1944 -8.1944 -39.246 184.66 92.781)" gradientUnits="userSpaceOnUse">
   <stop style="stop-color:#0d47a1" offset="0"/>
   <stop style="stop-color:#18ffff" offset="1"/>
  </linearGradient>
  <linearGradient id="linearGradient4009" x2="1" gradientTransform="matrix(-7.6944 -7.2848 7.2848 -7.6944 163.97 92.233)" gradientUnits="userSpaceOnUse">
   <stop style="stop-color:#fff" offset="0"/>
   <stop style="stop-color:#fff" offset="1"/>
  </linearGradient>
  <linearGradient id="linearGradient4047" x2="1" gradientTransform="matrix(1.7518 23.431 -23.431 1.7518 46.609 177.6)" gradientUnits="userSpaceOnUse">
   <stop style="stop-color:#b2ff59" offset="0"/>
   <stop style="stop-color:#b2ff59" offset=".0054007"/>
   <stop style="stop-color:#388e3c" offset="1"/>
  </linearGradient>
  <linearGradient id="linearGradient4097" x2="1" gradientTransform="matrix(31.856 .10831 -.10831 31.856 34.731 113.86)" gradientUnits="userSpaceOnUse">
   <stop style="stop-color:#fff" offset="0"/>
   <stop style="stop-color:#fff" offset="1"/>
  </linearGradient>
  <linearGradient id="linearGradient4135" x2="1" gradientTransform="matrix(33.672 30.692 -30.692 33.672 59.024 146.63)" gradientUnits="userSpaceOnUse">
   <stop style="stop-color:#b2ff59" offset="0"/>
   <stop style="stop-color:#b2ff59" offset=".0054007"/>
   <stop style="stop-color:#388e3c" offset="1"/>
  </linearGradient>
  <linearGradient id="linearGradient4185" x2="1" gradientTransform="matrix(6.2577 19.965 -19.965 6.2577 81.476 142.45)" gradientUnits="userSpaceOnUse">
   <stop style="stop-color:#fff" offset="0"/>
   <stop style="stop-color:#fff" offset="1"/>
  </linearGradient>
  <linearGradient id="linearGradient4243" x2="1" gradientTransform="matrix(10.926 6.357 -6.357 10.926 65.906 156.19)" gradientUnits="userSpaceOnUse">
   <stop style="stop-color:#fff" offset="0"/>
   <stop style="stop-color:#fff" offset="1"/>
  </linearGradient>
  <linearGradient id="linearGradient4281" x2="1" gradientTransform="matrix(-1.7879 25.825 -25.825 -1.7879 48.275 174.3)" gradientUnits="userSpaceOnUse">
   <stop style="stop-color:#b2ff59" offset="0"/>
   <stop style="stop-color:#b2ff59" offset=".0054007"/>
   <stop style="stop-color:#388e3c" offset="1"/>
  </linearGradient>
  <linearGradient id="linearGradient4331" x2="1" gradientTransform="matrix(35.489 22.584 -22.584 35.489 122.87 142.66)" gradientUnits="userSpaceOnUse">
   <stop style="stop-color:#fff" offset="0"/>
   <stop style="stop-color:#fff" offset="1"/>
  </linearGradient>
  <linearGradient id="linearGradient4389" x2="1" gradientTransform="matrix(27.415 32.778 -32.778 27.415 158.78 141.4)" gradientUnits="userSpaceOnUse">
   <stop style="stop-color:#fff" offset="0"/>
   <stop style="stop-color:#fff" offset="1"/>
  </linearGradient>
  <linearGradient id="linearGradient4425" x2="1" gradientTransform="matrix(80.456 -15.793 15.793 80.456 -41.404 82.08)" gradientUnits="userSpaceOnUse">
   <stop style="stop-color:#0d47a1" offset="0"/>
   <stop style="stop-color:#18ffff" offset="1"/>
  </linearGradient>
  <linearGradient id="linearGradient4475" x2="1" gradientTransform="matrix(-47.425 0 0 -47.425 22.113 90.268)" gradientUnits="userSpaceOnUse">
   <stop style="stop-color:#fff" offset="0"/>
   <stop style="stop-color:#fff" offset="1"/>
  </linearGradient>
  <linearGradient id="linearGradient4513" x2="1" gradientTransform="matrix(17.879 35.162 -35.162 17.879 111.99 101.72)" gradientUnits="userSpaceOnUse">
   <stop style="stop-color:#e040fb" offset="0"/>
   <stop style="stop-color:#e040fb" offset=".0025422"/>
   <stop style="stop-color:#4a148c" offset="1"/>
  </linearGradient>
  <linearGradient id="linearGradient4535" x2="1" gradientTransform="matrix(16.091 47.28 -47.28 16.091 110.01 90.797)" gradientUnits="userSpaceOnUse">
   <stop style="stop-color:#e040fb" offset="0"/>
   <stop style="stop-color:#e040fb" offset=".0025422"/>
   <stop style="stop-color:#4a148c" offset="1"/>
  </linearGradient>
  <radialGradient id="radialGradient4585" cx="0" cy="0" r="1" gradientTransform="matrix(8.5409 38.659 -38.659 8.5409 183.94 156.82)" gradientUnits="userSpaceOnUse">
   <stop style="stop-color:#d4145a" offset="0"/>
   <stop style="stop-color:#d4145a" offset=".012442"/>
   <stop style="stop-color:#ff4081" offset="1"/>
  </radialGradient>
  <linearGradient id="linearGradient4607" x2="1" gradientTransform="matrix(7.231 19.082 -19.082 7.231 170.76 118.18)" gradientUnits="userSpaceOnUse">
   <stop style="stop-color:#ffb300" offset="0"/>
   <stop style="stop-color:#ffb300" offset=".0073165"/>
   <stop style="stop-color:#ff4081" offset="1"/>
  </linearGradient>
  <linearGradient id="linearGradient4657" x2="1" gradientTransform="matrix(3.0792 8.1449 -8.1449 3.0792 177.34 112.89)" gradientUnits="userSpaceOnUse">
   <stop style="stop-color:#fff" offset="0"/>
   <stop style="stop-color:#fff" offset="1"/>
  </linearGradient>
  <radialGradient id="radialGradient4723" cx="0" cy="0" r="1" gradientTransform="matrix(4.7677 13.608 -13.608 4.7677 171.1 122.67)" gradientUnits="userSpaceOnUse">
   <stop style="stop-color:#d4145a" offset="0"/>
   <stop style="stop-color:#d4145a" offset=".012442"/>
   <stop style="stop-color:#ff4081" offset="1"/>
  </radialGradient>
 </defs>
 <g transform="translate(41.577 -36.448)">
  <path d="m4.6365 194.67c0 7.0485 2.7742 13.448 7.2909 18.168h37.982c4.5166-4.7198 7.2909-11.12 7.2909-18.168 0-14.515-11.767-26.282-26.282-26.282s-26.282 11.767-26.282 26.282" style="fill:url(#linearGradient2377)"/>
  <path d="m7.1663 189.61c0 11.41 9.2498 20.66 20.66 20.66 11.41 0 20.66-9.2498 20.66-20.66 0-11.41-9.2495-20.66-20.66-20.66-11.411 0-20.66 9.2498-20.66 20.66" style="fill:url(#linearGradient2399)"/>
  <path d="m15.739 187.22c-2.0955 0-3.7945-1.699-3.7945-3.7948s1.699-3.7945 3.7945-3.7945c2.0959 0 3.7948 1.6986 3.7948 3.7945s-1.699 3.7948-3.7948 3.7948" style="fill:url(#linearGradient2449)"/>
  <path d="m207.08 36.448c-4.8892 3.2822-9.3147 7.2464-13.049 11.806-8.7895 10.731-13.656 24.062-18.268 37.144-4.6119 13.083-9.2597 26.454-17.721 37.446s-21.594 19.383-35.434 18.456c-27.108-1.8172-44.892-31.726-70.215-39.65-8.152-2.5513-17.684-2.2264-24.482 2.945-9.5074 7.2323-10.62 21.932-5.2426 32.599s15.665 17.961 26.159 23.668c8.0599 4.3833 16.482 8.0998 25.153 11.099 10.926 3.779 22.769 6.7236 30.954 14.888 10.377 10.35 8.2497 18.454 2.5527 25.989h115.52v-176.39z" style="fill:url(#linearGradient2487)"/>
  <path d="m174.94 40.11c0 0.26846-0.21766 0.48578-0.48577 0.48578-0.26882 0-0.48613-0.21731-0.48613-0.48578s0.21731-0.48613 0.48613-0.48613c0.26811 0 0.48577 0.21766 0.48577 0.48613" style="fill:#fff"/>
  <path d="m179.32 40.11c0 0.26846-0.21766 0.48578-0.48613 0.48578-0.26846 0-0.48613-0.21731-0.48613-0.48578s0.21767-0.48613 0.48613-0.48613c0.26847 0 0.48613 0.21766 0.48613 0.48613" style="fill:#fff"/>
  <path d="m183.69 40.11c0 0.26846-0.21766 0.48578-0.48613 0.48578-0.26846 0-0.48613-0.21731-0.48613-0.48578s0.21767-0.48613 0.48613-0.48613c0.26847 0 0.48613 0.21766 0.48613 0.48613" style="fill:#fff"/>
  <path d="m188.07 40.11c0 0.26846-0.21766 0.48578-0.48613 0.48578-0.26846 0-0.48577-0.21731-0.48577-0.48578s0.21731-0.48613 0.48577-0.48613c0.26847 0 0.48613 0.21766 0.48613 0.48613" style="fill:#fff"/>
  <path d="m192.44 40.11c0 0.26846-0.21766 0.48578-0.48577 0.48578-0.26882 0-0.48613-0.21731-0.48613-0.48578s0.21731-0.48613 0.48613-0.48613c0.26811 0 0.48577 0.21766 0.48577 0.48613" style="fill:#fff"/>
  <path d="m196.81 40.11c0 0.26846-0.21766 0.48578-0.48577 0.48578-0.26882 0-0.48613-0.21731-0.48613-0.48578s0.21731-0.48613 0.48613-0.48613c0.26811 0 0.48577 0.21766 0.48577 0.48613" style="fill:#fff"/>
  <path d="m201.19 40.11c0 0.26846-0.21766 0.48578-0.48613 0.48578-0.26846 0-0.48613-0.21731-0.48613-0.48578s0.21767-0.48613 0.48613-0.48613c0.26847 0 0.48613 0.21766 0.48613 0.48613" style="fill:#fff"/>
  <path d="m205.56 40.11c0 0.26846-0.21766 0.48578-0.48613 0.48578-0.26846 0-0.48613-0.21731-0.48613-0.48578s0.21767-0.48613 0.48613-0.48613c0.26847 0 0.48613 0.21766 0.48613 0.48613" style="fill:#fff"/>
  <path d="m209.94 40.11c0 0.26846-0.21766 0.48578-0.48613 0.48578-0.26846 0-0.48577-0.21731-0.48577-0.48578s0.21731-0.48613 0.48577-0.48613c0.26847 0 0.48613 0.21766 0.48613 0.48613" style="fill:#fff"/>
  <path d="m214.31 40.11c0 0.26846-0.21766 0.48578-0.48577 0.48578-0.26882 0-0.48613-0.21731-0.48613-0.48578s0.21731-0.48613 0.48613-0.48613c0.26811 0 0.48577 0.21766 0.48577 0.48613" style="fill:#fff"/>
  <path d="m218.69 40.11c0 0.26846-0.21766 0.48578-0.48577 0.48578-0.26882 0-0.48613-0.21731-0.48613-0.48578s0.21731-0.48613 0.48613-0.48613c0.26811 0 0.48577 0.21766 0.48577 0.48613" style="fill:#fff"/>
  <path d="m174.94 43.998c0 0.26846-0.21766 0.48613-0.48577 0.48613-0.26882 0-0.48613-0.21766-0.48613-0.48613s0.21731-0.48613 0.48613-0.48613c0.26811 0 0.48577 0.21766 0.48577 0.48613" style="fill:#fff"/>
  <path d="m179.32 43.998c0 0.26846-0.21766 0.48613-0.48613 0.48613-0.26846 0-0.48613-0.21766-0.48613-0.48613s0.21767-0.48613 0.48613-0.48613c0.26847 0 0.48613 0.21766 0.48613 0.48613" style="fill:#fff"/>
  <path d="m183.69 43.998c0 0.26846-0.21766 0.48613-0.48613 0.48613-0.26846 0-0.48613-0.21766-0.48613-0.48613s0.21767-0.48613 0.48613-0.48613c0.26847 0 0.48613 0.21766 0.48613 0.48613" style="fill:#fff"/>
  <path d="m188.07 43.998c0 0.26846-0.21766 0.48613-0.48613 0.48613-0.26846 0-0.48577-0.21766-0.48577-0.48613s0.21731-0.48613 0.48577-0.48613c0.26847 0 0.48613 0.21766 0.48613 0.48613" style="fill:#fff"/>
  <path d="m192.44 43.998c0 0.26846-0.21766 0.48613-0.48577 0.48613-0.26882 0-0.48613-0.21766-0.48613-0.48613s0.21731-0.48613 0.48613-0.48613c0.26811 0 0.48577 0.21766 0.48577 0.48613" style="fill:#fff"/>
  <path d="m196.81 43.998c0 0.26846-0.21766 0.48613-0.48577 0.48613-0.26882 0-0.48613-0.21766-0.48613-0.48613s0.21731-0.48613 0.48613-0.48613c0.26811 0 0.48577 0.21766 0.48577 0.48613" style="fill:#fff"/>
  <path d="m201.19 43.998c0 0.26846-0.21766 0.48613-0.48613 0.48613-0.26846 0-0.48613-0.21766-0.48613-0.48613s0.21767-0.48613 0.48613-0.48613c0.26847 0 0.48613 0.21766 0.48613 0.48613" style="fill:#fff"/>
  <path d="m205.56 43.998c0 0.26846-0.21766 0.48613-0.48613 0.48613-0.26846 0-0.48613-0.21766-0.48613-0.48613s0.21767-0.48613 0.48613-0.48613c0.26847 0 0.48613 0.21766 0.48613 0.48613" style="fill:#fff"/>
  <path d="m209.94 43.998c0 0.26846-0.21766 0.48613-0.48613 0.48613-0.26846 0-0.48577-0.21766-0.48577-0.48613s0.21731-0.48613 0.48577-0.48613c0.26847 0 0.48613 0.21766 0.48613 0.48613" style="fill:#fff"/>
  <path d="m214.31 43.998c0 0.26846-0.21766 0.48613-0.48577 0.48613-0.26882 0-0.48613-0.21766-0.48613-0.48613s0.21731-0.48613 0.48613-0.48613c0.26811 0 0.48577 0.21766 0.48577 0.48613" style="fill:#fff"/>
  <path d="m218.69 43.998c0 0.26846-0.21766 0.48613-0.48577 0.48613-0.26882 0-0.48613-0.21766-0.48613-0.48613s0.21731-0.48613 0.48613-0.48613c0.26811 0 0.48577 0.21766 0.48577 0.48613" style="fill:#fff"/>
  <path d="m174.94 47.886c0 0.26846-0.21766 0.48578-0.48577 0.48578-0.26882 0-0.48613-0.21731-0.48613-0.48578s0.21731-0.48613 0.48613-0.48613c0.26811 0 0.48577 0.21766 0.48577 0.48613" style="fill:#fff"/>
  <path d="m179.32 47.886c0 0.26846-0.21766 0.48578-0.48613 0.48578-0.26846 0-0.48613-0.21731-0.48613-0.48578s0.21767-0.48613 0.48613-0.48613c0.26847 0 0.48613 0.21766 0.48613 0.48613" style="fill:#fff"/>
  <path d="m183.69 47.886c0 0.26846-0.21766 0.48578-0.48613 0.48578-0.26846 0-0.48613-0.21731-0.48613-0.48578s0.21767-0.48613 0.48613-0.48613c0.26847 0 0.48613 0.21766 0.48613 0.48613" style="fill:#fff"/>
  <path d="m188.07 47.886c0 0.26846-0.21766 0.48578-0.48613 0.48578-0.26846 0-0.48577-0.21731-0.48577-0.48578s0.21731-0.48613 0.48577-0.48613c0.26847 0 0.48613 0.21766 0.48613 0.48613" style="fill:#fff"/>
  <path d="m192.44 47.886c0 0.26846-0.21766 0.48578-0.48577 0.48578-0.26882 0-0.48613-0.21731-0.48613-0.48578s0.21731-0.48613 0.48613-0.48613c0.26811 0 0.48577 0.21766 0.48577 0.48613" style="fill:#fff"/>
  <path d="m196.81 47.886c0 0.26846-0.21766 0.48578-0.48577 0.48578-0.26882 0-0.48613-0.21731-0.48613-0.48578s0.21731-0.48613 0.48613-0.48613c0.26811 0 0.48577 0.21766 0.48577 0.48613" style="fill:#fff"/>
  <path d="m201.19 47.886c0 0.26846-0.21766 0.48578-0.48613 0.48578-0.26846 0-0.48613-0.21731-0.48613-0.48578s0.21767-0.48613 0.48613-0.48613c0.26847 0 0.48613 0.21766 0.48613 0.48613" style="fill:#fff"/>
  <path d="m205.56 47.886c0 0.26846-0.21766 0.48578-0.48613 0.48578-0.26846 0-0.48613-0.21731-0.48613-0.48578s0.21767-0.48613 0.48613-0.48613c0.26847 0 0.48613 0.21766 0.48613 0.48613" style="fill:#fff"/>
  <path d="m209.94 47.886c0 0.26846-0.21766 0.48578-0.48613 0.48578-0.26846 0-0.48577-0.21731-0.48577-0.48578s0.21731-0.48613 0.48577-0.48613c0.26847 0 0.48613 0.21766 0.48613 0.48613" style="fill:#fff"/>
  <path d="m214.31 47.886c0 0.26846-0.21766 0.48578-0.48577 0.48578-0.26882 0-0.48613-0.21731-0.48613-0.48578s0.21731-0.48613 0.48613-0.48613c0.26811 0 0.48577 0.21766 0.48577 0.48613" style="fill:#fff"/>
  <path d="m218.69 47.886c0 0.26846-0.21766 0.48578-0.48577 0.48578-0.26882 0-0.48613-0.21731-0.48613-0.48578s0.21731-0.48613 0.48613-0.48613c0.26811 0 0.48577 0.21766 0.48577 0.48613" style="fill:#fff"/>
  <path d="m174.94 51.775c0 0.26846-0.21766 0.48613-0.48577 0.48613-0.26882 0-0.48613-0.21766-0.48613-0.48613s0.21731-0.48578 0.48613-0.48578c0.26811 0 0.48577 0.21731 0.48577 0.48578" style="fill:#fff"/>
  <path d="m179.32 51.775c0 0.26846-0.21766 0.48613-0.48613 0.48613-0.26846 0-0.48613-0.21766-0.48613-0.48613s0.21767-0.48578 0.48613-0.48578c0.26847 0 0.48613 0.21731 0.48613 0.48578" style="fill:#fff"/>
  <path d="m183.69 51.775c0 0.26846-0.21766 0.48613-0.48613 0.48613-0.26846 0-0.48613-0.21766-0.48613-0.48613s0.21767-0.48578 0.48613-0.48578c0.26847 0 0.48613 0.21731 0.48613 0.48578" style="fill:#fff"/>
  <path d="m188.07 51.775c0 0.26846-0.21766 0.48613-0.48613 0.48613-0.26846 0-0.48577-0.21766-0.48577-0.48613s0.21731-0.48578 0.48577-0.48578c0.26847 0 0.48613 0.21731 0.48613 0.48578" style="fill:#fff"/>
  <path d="m192.44 51.775c0 0.26846-0.21766 0.48613-0.48577 0.48613-0.26882 0-0.48613-0.21766-0.48613-0.48613s0.21731-0.48578 0.48613-0.48578c0.26811 0 0.48577 0.21731 0.48577 0.48578" style="fill:#fff"/>
  <path d="m196.81 51.775c0 0.26846-0.21766 0.48613-0.48577 0.48613-0.26882 0-0.48613-0.21766-0.48613-0.48613s0.21731-0.48578 0.48613-0.48578c0.26811 0 0.48577 0.21731 0.48577 0.48578" style="fill:#fff"/>
  <path d="m201.19 51.775c0 0.26846-0.21766 0.48613-0.48613 0.48613-0.26846 0-0.48613-0.21766-0.48613-0.48613s0.21767-0.48578 0.48613-0.48578c0.26847 0 0.48613 0.21731 0.48613 0.48578" style="fill:#fff"/>
  <path d="m205.56 51.775c0 0.26846-0.21766 0.48613-0.48613 0.48613-0.26846 0-0.48613-0.21766-0.48613-0.48613s0.21767-0.48578 0.48613-0.48578c0.26847 0 0.48613 0.21731 0.48613 0.48578" style="fill:#fff"/>
  <path d="m209.94 51.775c0 0.26846-0.21766 0.48613-0.48613 0.48613-0.26846 0-0.48577-0.21766-0.48577-0.48613s0.21731-0.48578 0.48577-0.48578c0.26847 0 0.48613 0.21731 0.48613 0.48578" style="fill:#fff"/>
  <path d="m214.31 51.775c0 0.26846-0.21766 0.48613-0.48577 0.48613-0.26882 0-0.48613-0.21766-0.48613-0.48613s0.21731-0.48578 0.48613-0.48578c0.26811 0 0.48577 0.21731 0.48577 0.48578" style="fill:#fff"/>
  <path d="m218.69 51.775c0 0.26846-0.21766 0.48613-0.48577 0.48613-0.26882 0-0.48613-0.21766-0.48613-0.48613s0.21731-0.48578 0.48613-0.48578c0.26811 0 0.48577 0.21731 0.48577 0.48578" style="fill:#fff"/>
  <path d="m174.94 55.663c0 0.26846-0.21766 0.48578-0.48577 0.48578-0.26882 0-0.48613-0.21731-0.48613-0.48578s0.21731-0.48613 0.48613-0.48613c0.26811 0 0.48577 0.21766 0.48577 0.48613" style="fill:#fff"/>
  <path d="m179.32 55.663c0 0.26846-0.21766 0.48578-0.48613 0.48578-0.26846 0-0.48613-0.21731-0.48613-0.48578s0.21767-0.48613 0.48613-0.48613c0.26847 0 0.48613 0.21766 0.48613 0.48613" style="fill:#fff"/>
  <path d="m183.69 55.663c0 0.26846-0.21766 0.48578-0.48613 0.48578-0.26846 0-0.48613-0.21731-0.48613-0.48578s0.21767-0.48613 0.48613-0.48613c0.26847 0 0.48613 0.21766 0.48613 0.48613" style="fill:#fff"/>
  <path d="m188.07 55.663c0 0.26846-0.21766 0.48578-0.48613 0.48578-0.26846 0-0.48577-0.21731-0.48577-0.48578s0.21731-0.48613 0.48577-0.48613c0.26847 0 0.48613 0.21766 0.48613 0.48613" style="fill:#fff"/>
  <path d="m192.44 55.663c0 0.26846-0.21766 0.48578-0.48577 0.48578-0.26882 0-0.48613-0.21731-0.48613-0.48578s0.21731-0.48613 0.48613-0.48613c0.26811 0 0.48577 0.21766 0.48577 0.48613" style="fill:#fff"/>
  <path d="m196.81 55.663c0 0.26846-0.21766 0.48578-0.48577 0.48578-0.26882 0-0.48613-0.21731-0.48613-0.48578s0.21731-0.48613 0.48613-0.48613c0.26811 0 0.48577 0.21766 0.48577 0.48613" style="fill:#fff"/>
  <path d="m201.19 55.663c0 0.26846-0.21766 0.48578-0.48613 0.48578-0.26846 0-0.48613-0.21731-0.48613-0.48578s0.21767-0.48613 0.48613-0.48613c0.26847 0 0.48613 0.21766 0.48613 0.48613" style="fill:#fff"/>
  <path d="m205.56 55.663c0 0.26846-0.21766 0.48578-0.48613 0.48578-0.26846 0-0.48613-0.21731-0.48613-0.48578s0.21767-0.48613 0.48613-0.48613c0.26847 0 0.48613 0.21766 0.48613 0.48613" style="fill:#fff"/>
  <path d="m209.94 55.663c0 0.26846-0.21766 0.48578-0.48613 0.48578-0.26846 0-0.48577-0.21731-0.48577-0.48578s0.21731-0.48613 0.48577-0.48613c0.26847 0 0.48613 0.21766 0.48613 0.48613" style="fill:#fff"/>
  <path d="m214.31 55.663c0 0.26846-0.21766 0.48578-0.48577 0.48578-0.26882 0-0.48613-0.21731-0.48613-0.48578s0.21731-0.48613 0.48613-0.48613c0.26811 0 0.48577 0.21766 0.48577 0.48613" style="fill:#fff"/>
  <path d="m218.69 55.663c0 0.26846-0.21766 0.48578-0.48577 0.48578-0.26882 0-0.48613-0.21731-0.48613-0.48578s0.21731-0.48613 0.48613-0.48613c0.26811 0 0.48577 0.21766 0.48577 0.48613" style="fill:#fff"/>
  <path d="m174.94 59.551c0 0.26846-0.21766 0.48613-0.48577 0.48613-0.26882 0-0.48613-0.21766-0.48613-0.48613s0.21731-0.48578 0.48613-0.48578c0.26811 0 0.48577 0.21731 0.48577 0.48578" style="fill:#fff"/>
  <path d="m179.32 59.551c0 0.26846-0.21766 0.48613-0.48613 0.48613-0.26846 0-0.48613-0.21766-0.48613-0.48613s0.21767-0.48578 0.48613-0.48578c0.26847 0 0.48613 0.21731 0.48613 0.48578" style="fill:#fff"/>
  <path d="m183.69 59.551c0 0.26846-0.21766 0.48613-0.48613 0.48613-0.26846 0-0.48613-0.21766-0.48613-0.48613s0.21767-0.48578 0.48613-0.48578c0.26847 0 0.48613 0.21731 0.48613 0.48578" style="fill:#fff"/>
  <path d="m188.07 59.551c0 0.26846-0.21766 0.48613-0.48613 0.48613-0.26846 0-0.48577-0.21766-0.48577-0.48613s0.21731-0.48578 0.48577-0.48578c0.26847 0 0.48613 0.21731 0.48613 0.48578" style="fill:#fff"/>
  <path d="m192.44 59.551c0 0.26846-0.21766 0.48613-0.48577 0.48613-0.26882 0-0.48613-0.21766-0.48613-0.48613s0.21731-0.48578 0.48613-0.48578c0.26811 0 0.48577 0.21731 0.48577 0.48578" style="fill:#fff"/>
  <path d="m196.81 59.551c0 0.26846-0.21766 0.48613-0.48577 0.48613-0.26882 0-0.48613-0.21766-0.48613-0.48613s0.21731-0.48578 0.48613-0.48578c0.26811 0 0.48577 0.21731 0.48577 0.48578" style="fill:#fff"/>
  <path d="m201.19 59.551c0 0.26846-0.21766 0.48613-0.48613 0.48613-0.26846 0-0.48613-0.21766-0.48613-0.48613s0.21767-0.48578 0.48613-0.48578c0.26847 0 0.48613 0.21731 0.48613 0.48578" style="fill:#fff"/>
  <path d="m205.56 59.551c0 0.26846-0.21766 0.48613-0.48613 0.48613-0.26846 0-0.48613-0.21766-0.48613-0.48613s0.21767-0.48578 0.48613-0.48578c0.26847 0 0.48613 0.21731 0.48613 0.48578" style="fill:#fff"/>
  <path d="m209.94 59.551c0 0.26846-0.21766 0.48613-0.48613 0.48613-0.26846 0-0.48577-0.21766-0.48577-0.48613s0.21731-0.48578 0.48577-0.48578c0.26847 0 0.48613 0.21731 0.48613 0.48578" style="fill:#fff"/>
  <path d="m214.31 59.551c0 0.26846-0.21766 0.48613-0.48577 0.48613-0.26882 0-0.48613-0.21766-0.48613-0.48613s0.21731-0.48578 0.48613-0.48578c0.26811 0 0.48577 0.21731 0.48577 0.48578" style="fill:#fff"/>
  <path d="m218.69 59.551c0 0.26846-0.21766 0.48613-0.48577 0.48613-0.26882 0-0.48613-0.21766-0.48613-0.48613s0.21731-0.48578 0.48613-0.48578c0.26811 0 0.48577 0.21731 0.48577 0.48578" style="fill:#fff"/>
  <path d="m174.94 63.44c0 0.26846-0.21766 0.48578-0.48577 0.48578-0.26882 0-0.48613-0.21731-0.48613-0.48578s0.21731-0.48613 0.48613-0.48613c0.26811 0 0.48577 0.21766 0.48577 0.48613" style="fill:#fff"/>
  <path d="m179.32 63.44c0 0.26846-0.21766 0.48578-0.48613 0.48578-0.26846 0-0.48613-0.21731-0.48613-0.48578s0.21767-0.48613 0.48613-0.48613c0.26847 0 0.48613 0.21766 0.48613 0.48613" style="fill:#fff"/>
  <path d="m183.69 63.44c0 0.26846-0.21766 0.48578-0.48613 0.48578-0.26846 0-0.48613-0.21731-0.48613-0.48578s0.21767-0.48613 0.48613-0.48613c0.26847 0 0.48613 0.21766 0.48613 0.48613" style="fill:#fff"/>
  <path d="m188.07 63.44c0 0.26846-0.21766 0.48578-0.48613 0.48578-0.26846 0-0.48577-0.21731-0.48577-0.48578s0.21731-0.48613 0.48577-0.48613c0.26847 0 0.48613 0.21766 0.48613 0.48613" style="fill:#fff"/>
  <path d="m192.44 63.44c0 0.26846-0.21766 0.48578-0.48577 0.48578-0.26882 0-0.48613-0.21731-0.48613-0.48578s0.21731-0.48613 0.48613-0.48613c0.26811 0 0.48577 0.21766 0.48577 0.48613" style="fill:#fff"/>
  <path d="m196.81 63.44c0 0.26846-0.21766 0.48578-0.48577 0.48578-0.26882 0-0.48613-0.21731-0.48613-0.48578s0.21731-0.48613 0.48613-0.48613c0.26811 0 0.48577 0.21766 0.48577 0.48613" style="fill:#fff"/>
  <path d="m201.19 63.44c0 0.26846-0.21766 0.48578-0.48613 0.48578-0.26846 0-0.48613-0.21731-0.48613-0.48578s0.21767-0.48613 0.48613-0.48613c0.26847 0 0.48613 0.21766 0.48613 0.48613" style="fill:#fff"/>
  <path d="m205.56 63.44c0 0.26846-0.21766 0.48578-0.48613 0.48578-0.26846 0-0.48613-0.21731-0.48613-0.48578s0.21767-0.48613 0.48613-0.48613c0.26847 0 0.48613 0.21766 0.48613 0.48613" style="fill:#fff"/>
  <path d="m209.94 63.44c0 0.26846-0.21766 0.48578-0.48613 0.48578-0.26846 0-0.48577-0.21731-0.48577-0.48578s0.21731-0.48613 0.48577-0.48613c0.26847 0 0.48613 0.21766 0.48613 0.48613" style="fill:#fff"/>
  <path d="m214.31 63.44c0 0.26846-0.21766 0.48578-0.48577 0.48578-0.26882 0-0.48613-0.21731-0.48613-0.48578s0.21731-0.48613 0.48613-0.48613c0.26811 0 0.48577 0.21766 0.48577 0.48613" style="fill:#fff"/>
  <path d="m218.69 63.44c0 0.26846-0.21766 0.48578-0.48577 0.48578-0.26882 0-0.48613-0.21731-0.48613-0.48578s0.21731-0.48613 0.48613-0.48613c0.26811 0 0.48577 0.21766 0.48577 0.48613" style="fill:#fff"/>
  <path d="m174.94 67.328c0 0.26846-0.21766 0.48613-0.48577 0.48613-0.26882 0-0.48613-0.21766-0.48613-0.48613s0.21731-0.48578 0.48613-0.48578c0.26811 0 0.48577 0.21731 0.48577 0.48578" style="fill:#fff"/>
  <path d="m179.32 67.328c0 0.26846-0.21766 0.48613-0.48613 0.48613-0.26846 0-0.48613-0.21766-0.48613-0.48613s0.21767-0.48578 0.48613-0.48578c0.26847 0 0.48613 0.21731 0.48613 0.48578" style="fill:#fff"/>
  <path d="m183.69 67.328c0 0.26846-0.21766 0.48613-0.48613 0.48613-0.26846 0-0.48613-0.21766-0.48613-0.48613s0.21767-0.48578 0.48613-0.48578c0.26847 0 0.48613 0.21731 0.48613 0.48578" style="fill:#fff"/>
  <path d="m188.07 67.328c0 0.26846-0.21766 0.48613-0.48613 0.48613-0.26846 0-0.48577-0.21766-0.48577-0.48613s0.21731-0.48578 0.48577-0.48578c0.26847 0 0.48613 0.21731 0.48613 0.48578" style="fill:#fff"/>
  <path d="m192.44 67.328c0 0.26846-0.21766 0.48613-0.48577 0.48613-0.26882 0-0.48613-0.21766-0.48613-0.48613s0.21731-0.48578 0.48613-0.48578c0.26811 0 0.48577 0.21731 0.48577 0.48578" style="fill:#fff"/>
  <path d="m196.81 67.328c0 0.26846-0.21766 0.48613-0.48577 0.48613-0.26882 0-0.48613-0.21766-0.48613-0.48613s0.21731-0.48578 0.48613-0.48578c0.26811 0 0.48577 0.21731 0.48577 0.48578" style="fill:#fff"/>
  <path d="m201.19 67.328c0 0.26846-0.21766 0.48613-0.48613 0.48613-0.26846 0-0.48613-0.21766-0.48613-0.48613s0.21767-0.48578 0.48613-0.48578c0.26847 0 0.48613 0.21731 0.48613 0.48578" style="fill:#fff"/>
  <path d="m205.56 67.328c0 0.26846-0.21766 0.48613-0.48613 0.48613-0.26846 0-0.48613-0.21766-0.48613-0.48613s0.21767-0.48578 0.48613-0.48578c0.26847 0 0.48613 0.21731 0.48613 0.48578" style="fill:#fff"/>
  <path d="m209.94 67.328c0 0.26846-0.21766 0.48613-0.48613 0.48613-0.26846 0-0.48577-0.21766-0.48577-0.48613s0.21731-0.48578 0.48577-0.48578c0.26847 0 0.48613 0.21731 0.48613 0.48578" style="fill:#fff"/>
  <path d="m214.31 67.328c0 0.26846-0.21766 0.48613-0.48577 0.48613-0.26882 0-0.48613-0.21766-0.48613-0.48613s0.21731-0.48578 0.48613-0.48578c0.26811 0 0.48577 0.21731 0.48577 0.48578" style="fill:#fff"/>
  <path d="m218.69 67.328c0 0.26846-0.21766 0.48613-0.48577 0.48613-0.26882 0-0.48613-0.21766-0.48613-0.48613s0.21731-0.48578 0.48613-0.48578c0.26811 0 0.48577 0.21731 0.48577 0.48578" style="fill:#fff"/>
  <path d="m174.94 71.217c0 0.26846-0.21766 0.48578-0.48577 0.48578-0.26882 0-0.48613-0.21731-0.48613-0.48578s0.21731-0.48613 0.48613-0.48613c0.26811 0 0.48577 0.21766 0.48577 0.48613" style="fill:#fff"/>
  <path d="m179.32 71.217c0 0.26846-0.21766 0.48578-0.48613 0.48578-0.26846 0-0.48613-0.21731-0.48613-0.48578s0.21767-0.48613 0.48613-0.48613c0.26847 0 0.48613 0.21766 0.48613 0.48613" style="fill:#fff"/>
  <path d="m183.69 71.217c0 0.26846-0.21766 0.48578-0.48613 0.48578-0.26846 0-0.48613-0.21731-0.48613-0.48578s0.21767-0.48613 0.48613-0.48613c0.26847 0 0.48613 0.21766 0.48613 0.48613" style="fill:#fff"/>
  <path d="m188.07 71.217c0 0.26846-0.21766 0.48578-0.48613 0.48578-0.26846 0-0.48577-0.21731-0.48577-0.48578s0.21731-0.48613 0.48577-0.48613c0.26847 0 0.48613 0.21766 0.48613 0.48613" style="fill:#fff"/>
  <path d="m192.44 71.217c0 0.26846-0.21766 0.48578-0.48577 0.48578-0.26882 0-0.48613-0.21731-0.48613-0.48578s0.21731-0.48613 0.48613-0.48613c0.26811 0 0.48577 0.21766 0.48577 0.48613" style="fill:#fff"/>
  <path d="m196.81 71.217c0 0.26846-0.21766 0.48578-0.48577 0.48578-0.26882 0-0.48613-0.21731-0.48613-0.48578s0.21731-0.48613 0.48613-0.48613c0.26811 0 0.48577 0.21766 0.48577 0.48613" style="fill:#fff"/>
  <path d="m201.19 71.217c0 0.26846-0.21766 0.48578-0.48613 0.48578-0.26846 0-0.48613-0.21731-0.48613-0.48578s0.21767-0.48613 0.48613-0.48613c0.26847 0 0.48613 0.21766 0.48613 0.48613" style="fill:#fff"/>
  <path d="m205.56 71.217c0 0.26846-0.21766 0.48578-0.48613 0.48578-0.26846 0-0.48613-0.21731-0.48613-0.48578s0.21767-0.48613 0.48613-0.48613c0.26847 0 0.48613 0.21766 0.48613 0.48613" style="fill:#fff"/>
  <path d="m209.94 71.217c0 0.26846-0.21766 0.48578-0.48613 0.48578-0.26846 0-0.48577-0.21731-0.48577-0.48578s0.21731-0.48613 0.48577-0.48613c0.26847 0 0.48613 0.21766 0.48613 0.48613" style="fill:#fff"/>
  <path d="m214.31 71.217c0 0.26846-0.21766 0.48578-0.48577 0.48578-0.26882 0-0.48613-0.21731-0.48613-0.48578s0.21731-0.48613 0.48613-0.48613c0.26811 0 0.48577 0.21766 0.48577 0.48613" style="fill:#fff"/>
  <path d="m218.69 71.217c0 0.26846-0.21766 0.48578-0.48577 0.48578-0.26882 0-0.48613-0.21731-0.48613-0.48578s0.21731-0.48613 0.48613-0.48613c0.26811 0 0.48577 0.21766 0.48577 0.48613" style="fill:#fff"/>
  <path d="m174.94 75.105c0 0.26846-0.21766 0.48613-0.48577 0.48613-0.26882 0-0.48613-0.21766-0.48613-0.48613s0.21731-0.48578 0.48613-0.48578c0.26811 0 0.48577 0.21731 0.48577 0.48578" style="fill:#fff"/>
  <path d="m179.32 75.105c0 0.26846-0.21766 0.48613-0.48613 0.48613-0.26846 0-0.48613-0.21766-0.48613-0.48613s0.21767-0.48578 0.48613-0.48578c0.26847 0 0.48613 0.21731 0.48613 0.48578" style="fill:#fff"/>
  <path d="m183.69 75.105c0 0.26846-0.21766 0.48613-0.48613 0.48613-0.26846 0-0.48613-0.21766-0.48613-0.48613s0.21767-0.48578 0.48613-0.48578c0.26847 0 0.48613 0.21731 0.48613 0.48578" style="fill:#fff"/>
  <path d="m188.07 75.105c0 0.26846-0.21766 0.48613-0.48613 0.48613-0.26846 0-0.48577-0.21766-0.48577-0.48613s0.21731-0.48578 0.48577-0.48578c0.26847 0 0.48613 0.21731 0.48613 0.48578" style="fill:#fff"/>
  <path d="m192.44 75.105c0 0.26846-0.21766 0.48613-0.48577 0.48613-0.26882 0-0.48613-0.21766-0.48613-0.48613s0.21731-0.48578 0.48613-0.48578c0.26811 0 0.48577 0.21731 0.48577 0.48578" style="fill:#fff"/>
  <path d="m196.81 75.105c0 0.26846-0.21766 0.48613-0.48577 0.48613-0.26882 0-0.48613-0.21766-0.48613-0.48613s0.21731-0.48578 0.48613-0.48578c0.26811 0 0.48577 0.21731 0.48577 0.48578" style="fill:#fff"/>
  <path d="m201.19 75.105c0 0.26846-0.21766 0.48613-0.48613 0.48613-0.26846 0-0.48613-0.21766-0.48613-0.48613s0.21767-0.48578 0.48613-0.48578c0.26847 0 0.48613 0.21731 0.48613 0.48578" style="fill:#fff"/>
  <path d="m205.56 75.105c0 0.26846-0.21766 0.48613-0.48613 0.48613-0.26846 0-0.48613-0.21766-0.48613-0.48613s0.21767-0.48578 0.48613-0.48578c0.26847 0 0.48613 0.21731 0.48613 0.48578" style="fill:#fff"/>
  <path d="m209.94 75.105c0 0.26846-0.21766 0.48613-0.48613 0.48613-0.26846 0-0.48577-0.21766-0.48577-0.48613s0.21731-0.48578 0.48577-0.48578c0.26847 0 0.48613 0.21731 0.48613 0.48578" style="fill:#fff"/>
  <path d="m214.31 75.105c0 0.26846-0.21766 0.48613-0.48577 0.48613-0.26882 0-0.48613-0.21766-0.48613-0.48613s0.21731-0.48578 0.48613-0.48578c0.26811 0 0.48577 0.21731 0.48577 0.48578" style="fill:#fff"/>
  <path d="m218.69 75.105c0 0.26846-0.21766 0.48613-0.48577 0.48613-0.26882 0-0.48613-0.21766-0.48613-0.48613s0.21731-0.48578 0.48613-0.48578c0.26811 0 0.48577 0.21731 0.48577 0.48578" style="fill:#fff"/>
  <path d="m174.94 78.993c0 0.26846-0.21766 0.48613-0.48577 0.48613-0.26882 0-0.48613-0.21766-0.48613-0.48613s0.21731-0.48613 0.48613-0.48613c0.26811 0 0.48577 0.21766 0.48577 0.48613" style="fill:#fff"/>
  <path d="m179.32 78.993c0 0.26846-0.21766 0.48613-0.48613 0.48613-0.26846 0-0.48613-0.21766-0.48613-0.48613s0.21767-0.48613 0.48613-0.48613c0.26847 0 0.48613 0.21766 0.48613 0.48613" style="fill:#fff"/>
  <path d="m183.69 78.993c0 0.26846-0.21766 0.48613-0.48613 0.48613-0.26846 0-0.48613-0.21766-0.48613-0.48613s0.21767-0.48613 0.48613-0.48613c0.26847 0 0.48613 0.21766 0.48613 0.48613" style="fill:#fff"/>
  <path d="m188.07 78.993c0 0.26846-0.21766 0.48613-0.48613 0.48613-0.26846 0-0.48577-0.21766-0.48577-0.48613s0.21731-0.48613 0.48577-0.48613c0.26847 0 0.48613 0.21766 0.48613 0.48613" style="fill:#fff"/>
  <path d="m192.44 78.993c0 0.26846-0.21766 0.48613-0.48577 0.48613-0.26882 0-0.48613-0.21766-0.48613-0.48613s0.21731-0.48613 0.48613-0.48613c0.26811 0 0.48577 0.21766 0.48577 0.48613" style="fill:#fff"/>
  <path d="m196.81 78.993c0 0.26846-0.21766 0.48613-0.48577 0.48613-0.26882 0-0.48613-0.21766-0.48613-0.48613s0.21731-0.48613 0.48613-0.48613c0.26811 0 0.48577 0.21766 0.48577 0.48613" style="fill:#fff"/>
  <path d="m201.19 78.993c0 0.26846-0.21766 0.48613-0.48613 0.48613-0.26846 0-0.48613-0.21766-0.48613-0.48613s0.21767-0.48613 0.48613-0.48613c0.26847 0 0.48613 0.21766 0.48613 0.48613" style="fill:#fff"/>
  <path d="m205.56 78.993c0 0.26846-0.21766 0.48613-0.48613 0.48613-0.26846 0-0.48613-0.21766-0.48613-0.48613s0.21767-0.48613 0.48613-0.48613c0.26847 0 0.48613 0.21766 0.48613 0.48613" style="fill:#fff"/>
  <path d="m209.94 78.993c0 0.26846-0.21766 0.48613-0.48613 0.48613-0.26846 0-0.48577-0.21766-0.48577-0.48613s0.21731-0.48613 0.48577-0.48613c0.26847 0 0.48613 0.21766 0.48613 0.48613" style="fill:#fff"/>
  <path d="m214.31 78.993c0 0.26846-0.21766 0.48613-0.48577 0.48613-0.26882 0-0.48613-0.21766-0.48613-0.48613s0.21731-0.48613 0.48613-0.48613c0.26811 0 0.48577 0.21766 0.48577 0.48613" style="fill:#fff"/>
  <path d="m218.69 78.993c0 0.26846-0.21766 0.48613-0.48577 0.48613-0.26882 0-0.48613-0.21766-0.48613-0.48613s0.21731-0.48613 0.48613-0.48613c0.26811 0 0.48577 0.21766 0.48577 0.48613" style="fill:#fff"/>
  <path d="m174.94 82.882c0 0.26846-0.21766 0.48613-0.48577 0.48613-0.26882 0-0.48613-0.21766-0.48613-0.48613s0.21731-0.48578 0.48613-0.48578c0.26811 0 0.48577 0.21731 0.48577 0.48578" style="fill:#fff"/>
  <path d="m179.32 82.882c0 0.26846-0.21766 0.48613-0.48613 0.48613-0.26846 0-0.48613-0.21766-0.48613-0.48613s0.21767-0.48578 0.48613-0.48578c0.26847 0 0.48613 0.21731 0.48613 0.48578" style="fill:#fff"/>
  <path d="m183.69 82.882c0 0.26846-0.21766 0.48613-0.48613 0.48613-0.26846 0-0.48613-0.21766-0.48613-0.48613s0.21767-0.48578 0.48613-0.48578c0.26847 0 0.48613 0.21731 0.48613 0.48578" style="fill:#fff"/>
  <path d="m188.07 82.882c0 0.26846-0.21766 0.48613-0.48613 0.48613-0.26846 0-0.48577-0.21766-0.48577-0.48613s0.21731-0.48578 0.48577-0.48578c0.26847 0 0.48613 0.21731 0.48613 0.48578" style="fill:#fff"/>
  <path d="m192.44 82.882c0 0.26846-0.21766 0.48613-0.48577 0.48613-0.26882 0-0.48613-0.21766-0.48613-0.48613s0.21731-0.48578 0.48613-0.48578c0.26811 0 0.48577 0.21731 0.48577 0.48578" style="fill:#fff"/>
  <path d="m196.81 82.882c0 0.26846-0.21766 0.48613-0.48577 0.48613-0.26882 0-0.48613-0.21766-0.48613-0.48613s0.21731-0.48578 0.48613-0.48578c0.26811 0 0.48577 0.21731 0.48577 0.48578" style="fill:#fff"/>
  <path d="m201.19 82.882c0 0.26846-0.21766 0.48613-0.48613 0.48613-0.26846 0-0.48613-0.21766-0.48613-0.48613s0.21767-0.48578 0.48613-0.48578c0.26847 0 0.48613 0.21731 0.48613 0.48578" style="fill:#fff"/>
  <path d="m205.56 82.882c0 0.26846-0.21766 0.48613-0.48613 0.48613-0.26846 0-0.48613-0.21766-0.48613-0.48613s0.21767-0.48578 0.48613-0.48578c0.26847 0 0.48613 0.21731 0.48613 0.48578" style="fill:#fff"/>
  <path d="m209.94 82.882c0 0.26846-0.21766 0.48613-0.48613 0.48613-0.26846 0-0.48577-0.21766-0.48577-0.48613s0.21731-0.48578 0.48577-0.48578c0.26847 0 0.48613 0.21731 0.48613 0.48578" style="fill:#fff"/>
  <path d="m214.31 82.882c0 0.26846-0.21766 0.48613-0.48577 0.48613-0.26882 0-0.48613-0.21766-0.48613-0.48613s0.21731-0.48578 0.48613-0.48578c0.26811 0 0.48577 0.21731 0.48577 0.48578" style="fill:#fff"/>
  <path d="m218.69 82.882c0 0.26846-0.21766 0.48613-0.48577 0.48613-0.26882 0-0.48613-0.21766-0.48613-0.48613s0.21731-0.48578 0.48613-0.48578c0.26811 0 0.48577 0.21731 0.48577 0.48578" style="fill:#fff"/>
  <path d="m22.67 137.19c5.3774 10.667 15.665 17.961 26.159 23.668 8.0599 4.3833 16.482 8.0998 25.153 11.099 10.926 3.779 22.769 6.7236 30.954 14.888 10.377 10.35 8.2497 18.454 2.5527 25.989h115.52v-33.544c-4.0696 2.9806-8.6325 5.0892-13.617 5.195-9.7737 0.20708-14.881-8.7619-23.496-13.381-6.3355-3.3969-14.154-3.4392-20.914-0.99413-6.7603 2.4451-12.518 7.1907-17.047 12.774-4.1473 5.1135-7.9033 11.367-14.234 13.175-6.0621 1.7307-12.614-1.4072-16.972-5.9616-4.8507-5.0673-5.9443-10.258-8.6455-16.167-2.5689-5.619-9.3267-9.3218-14.899-11.178-6.8965-2.2976-14.244-2.7573-21.417-3.9345-7.9033-1.2972-15.66-3.4847-23.077-6.508-8.3093-3.3874-16.4-7.9999-21.958-15.045-3.7987-4.8154-6.9169-13.066-6.5119-20.358-1.5854 6.6315-0.64911 14.129 2.4539 20.285" style="fill:url(#linearGradient3057)"/>
  <path d="m200.26 96.924c-0.62442 11.851-4.1487 21.801-10.056 29.824-7.8306 10.636-19.848 17.884-34.851 21.679-6.3313 1.6013-12.932 2.673-18.623 5.8279-5.6907 3.1549-10.397 9.0773-9.6806 15.388 0.87912 7.7495 9.2904 12.587 17.2 13.818 16.641 2.5908 35.376-0.0205 46.899-13.439 8.9729-10.448 12.307-25.108 22.29-34.595 2.8508-2.709 6.1362-4.887 9.5673-6.8774v-80.678c-22.006 2.0271-21.875 32.503-22.747 49.052" style="fill:url(#linearGradient3079)"/>
  <path d="m205.64 61.498c5.8371-1.4337 12.254 0.05786 17.368 3.3203v-16.946c-8.9006 0.82197-14.179 6.2988-17.368 13.625m2.837 67.569c-6.865 4.4933-13.493 9.9385-17.011 17.351-2.2638 4.7703-3.1471 10.178-5.9775 14.636-2.6303 4.1416-6.7493 7.1321-11.086 9.428-8.3792 4.4362-17.941 6.6149-27.415 6.2463-4.3466-0.16934-8.7926-0.9077-12.519-3.1514-2.7545-1.6588-5.7542-4.9459-7.0559-8.3756-0.39123 1.4365-0.5341 2.9281-0.3623 4.4425 0.87912 7.7495 9.2904 12.587 17.2 13.818 16.64 2.5908 35.376-0.0205 46.899-13.439 8.9729-10.448 12.307-25.108 22.29-34.595 2.8508-2.709 6.1362-4.887 9.5673-6.8774v-8.7267c-4.6912 3.2801-9.7317 6.1024-14.531 9.2435" style="fill:url(#linearGradient3101)"/>
  <path d="m139.31 173.81c0 0.26846-0.21766 0.48577-0.48577 0.48577-0.26882 0-0.48613-0.21731-0.48613-0.48577s0.21731-0.48613 0.48613-0.48613c0.26811 0 0.48577 0.21767 0.48577 0.48613" style="fill:#fff"/>
  <path d="m143.69 173.81c0 0.26846-0.21766 0.48577-0.48613 0.48577-0.26846 0-0.48613-0.21731-0.48613-0.48577s0.21767-0.48613 0.48613-0.48613c0.26847 0 0.48613 0.21767 0.48613 0.48613" style="fill:#fff"/>
  <path d="m148.06 173.81c0 0.26846-0.21766 0.48577-0.48613 0.48577-0.26846 0-0.48613-0.21731-0.48613-0.48577s0.21767-0.48613 0.48613-0.48613c0.26847 0 0.48613 0.21767 0.48613 0.48613" style="fill:#fff"/>
  <path d="m152.43 173.81c0 0.26846-0.21766 0.48577-0.48613 0.48577-0.26846 0-0.48577-0.21731-0.48577-0.48577s0.21731-0.48613 0.48577-0.48613c0.26847 0 0.48613 0.21767 0.48613 0.48613" style="fill:#fff"/>
  <path d="m156.81 173.81c0 0.26846-0.21766 0.48577-0.48577 0.48577-0.26882 0-0.48613-0.21731-0.48613-0.48577s0.21731-0.48613 0.48613-0.48613c0.26811 0 0.48577 0.21767 0.48577 0.48613" style="fill:#fff"/>
  <path d="m161.18 173.81c0 0.26846-0.21766 0.48577-0.48577 0.48577-0.26882 0-0.48613-0.21731-0.48613-0.48577s0.21731-0.48613 0.48613-0.48613c0.26811 0 0.48577 0.21767 0.48577 0.48613" style="fill:#fff"/>
  <path d="m165.56 173.81c0 0.26846-0.21766 0.48577-0.48613 0.48577-0.26846 0-0.48613-0.21731-0.48613-0.48577s0.21767-0.48613 0.48613-0.48613c0.26847 0 0.48613 0.21767 0.48613 0.48613" style="fill:#fff"/>
  <path d="m169.93 173.81c0 0.26846-0.21766 0.48577-0.48613 0.48577-0.26846 0-0.48613-0.21731-0.48613-0.48577s0.21767-0.48613 0.48613-0.48613c0.26847 0 0.48613 0.21767 0.48613 0.48613" style="fill:#fff"/>
  <path d="m174.31 173.81c0 0.26846-0.21766 0.48577-0.48613 0.48577-0.26846 0-0.48577-0.21731-0.48577-0.48577s0.21731-0.48613 0.48577-0.48613c0.26847 0 0.48613 0.21767 0.48613 0.48613" style="fill:#fff"/>
  <path d="m178.68 173.81c0 0.26846-0.21766 0.48577-0.48577 0.48577-0.26882 0-0.48613-0.21731-0.48613-0.48577s0.21731-0.48613 0.48613-0.48613c0.26811 0 0.48577 0.21767 0.48577 0.48613" style="fill:#fff"/>
  <path d="m183.06 173.81c0 0.26846-0.21766 0.48577-0.48577 0.48577-0.26882 0-0.48613-0.21731-0.48613-0.48577s0.21731-0.48613 0.48613-0.48613c0.26811 0 0.48577 0.21767 0.48577 0.48613" style="fill:#fff"/>
  <path d="m139.31 177.7c0 0.26846-0.21766 0.48613-0.48577 0.48613-0.26882 0-0.48613-0.21767-0.48613-0.48613s0.21731-0.48613 0.48613-0.48613c0.26811 0 0.48577 0.21767 0.48577 0.48613" style="fill:#fff"/>
  <path d="m143.69 177.7c0 0.26846-0.21766 0.48613-0.48613 0.48613-0.26846 0-0.48613-0.21767-0.48613-0.48613s0.21767-0.48613 0.48613-0.48613c0.26847 0 0.48613 0.21767 0.48613 0.48613" style="fill:#fff"/>
  <path d="m148.06 177.7c0 0.26846-0.21766 0.48613-0.48613 0.48613-0.26846 0-0.48613-0.21767-0.48613-0.48613s0.21767-0.48613 0.48613-0.48613c0.26847 0 0.48613 0.21767 0.48613 0.48613" style="fill:#fff"/>
  <path d="m152.43 177.7c0 0.26846-0.21766 0.48613-0.48613 0.48613-0.26846 0-0.48577-0.21767-0.48577-0.48613s0.21731-0.48613 0.48577-0.48613c0.26847 0 0.48613 0.21767 0.48613 0.48613" style="fill:#fff"/>
  <path d="m156.81 177.7c0 0.26846-0.21766 0.48613-0.48577 0.48613-0.26882 0-0.48613-0.21767-0.48613-0.48613s0.21731-0.48613 0.48613-0.48613c0.26811 0 0.48577 0.21767 0.48577 0.48613" style="fill:#fff"/>
  <path d="m161.18 177.7c0 0.26846-0.21766 0.48613-0.48577 0.48613-0.26882 0-0.48613-0.21767-0.48613-0.48613s0.21731-0.48613 0.48613-0.48613c0.26811 0 0.48577 0.21767 0.48577 0.48613" style="fill:#fff"/>
  <path d="m165.56 177.7c0 0.26846-0.21766 0.48613-0.48613 0.48613-0.26846 0-0.48613-0.21767-0.48613-0.48613s0.21767-0.48613 0.48613-0.48613c0.26847 0 0.48613 0.21767 0.48613 0.48613" style="fill:#fff"/>
  <path d="m169.93 177.7c0 0.26846-0.21766 0.48613-0.48613 0.48613-0.26846 0-0.48613-0.21767-0.48613-0.48613s0.21767-0.48613 0.48613-0.48613c0.26847 0 0.48613 0.21767 0.48613 0.48613" style="fill:#fff"/>
  <path d="m174.31 177.7c0 0.26846-0.21766 0.48613-0.48613 0.48613-0.26846 0-0.48577-0.21767-0.48577-0.48613s0.21731-0.48613 0.48577-0.48613c0.26847 0 0.48613 0.21767 0.48613 0.48613" style="fill:#fff"/>
  <path d="m178.68 177.7c0 0.26846-0.21766 0.48613-0.48577 0.48613-0.26882 0-0.48613-0.21767-0.48613-0.48613s0.21731-0.48613 0.48613-0.48613c0.26811 0 0.48577 0.21767 0.48577 0.48613" style="fill:#fff"/>
  <path d="m183.06 177.7c0 0.26846-0.21766 0.48613-0.48577 0.48613-0.26882 0-0.48613-0.21767-0.48613-0.48613s0.21731-0.48613 0.48613-0.48613c0.26811 0 0.48577 0.21767 0.48577 0.48613" style="fill:#fff"/>
  <path d="m139.31 181.59c0 0.26846-0.21766 0.48577-0.48577 0.48577-0.26882 0-0.48613-0.21731-0.48613-0.48577s0.21731-0.48613 0.48613-0.48613c0.26811 0 0.48577 0.21767 0.48577 0.48613" style="fill:#fff"/>
  <path d="m143.69 181.59c0 0.26846-0.21766 0.48577-0.48613 0.48577-0.26846 0-0.48613-0.21731-0.48613-0.48577s0.21767-0.48613 0.48613-0.48613c0.26847 0 0.48613 0.21767 0.48613 0.48613" style="fill:#fff"/>
  <path d="m148.06 181.59c0 0.26846-0.21766 0.48577-0.48613 0.48577-0.26846 0-0.48613-0.21731-0.48613-0.48577s0.21767-0.48613 0.48613-0.48613c0.26847 0 0.48613 0.21767 0.48613 0.48613" style="fill:#fff"/>
  <path d="m152.43 181.59c0 0.26846-0.21766 0.48577-0.48613 0.48577-0.26846 0-0.48577-0.21731-0.48577-0.48577s0.21731-0.48613 0.48577-0.48613c0.26847 0 0.48613 0.21767 0.48613 0.48613" style="fill:#fff"/>
  <path d="m156.81 181.59c0 0.26846-0.21766 0.48577-0.48577 0.48577-0.26882 0-0.48613-0.21731-0.48613-0.48577s0.21731-0.48613 0.48613-0.48613c0.26811 0 0.48577 0.21767 0.48577 0.48613" style="fill:#fff"/>
  <path d="m161.18 181.59c0 0.26846-0.21766 0.48577-0.48577 0.48577-0.26882 0-0.48613-0.21731-0.48613-0.48577s0.21731-0.48613 0.48613-0.48613c0.26811 0 0.48577 0.21767 0.48577 0.48613" style="fill:#fff"/>
  <path d="m165.56 181.59c0 0.26846-0.21766 0.48577-0.48613 0.48577-0.26846 0-0.48613-0.21731-0.48613-0.48577s0.21767-0.48613 0.48613-0.48613c0.26847 0 0.48613 0.21767 0.48613 0.48613" style="fill:#fff"/>
  <path d="m169.93 181.59c0 0.26846-0.21766 0.48577-0.48613 0.48577-0.26846 0-0.48613-0.21731-0.48613-0.48577s0.21767-0.48613 0.48613-0.48613c0.26847 0 0.48613 0.21767 0.48613 0.48613" style="fill:#fff"/>
  <path d="m174.31 181.59c0 0.26846-0.21766 0.48577-0.48613 0.48577-0.26846 0-0.48577-0.21731-0.48577-0.48577s0.21731-0.48613 0.48577-0.48613c0.26847 0 0.48613 0.21767 0.48613 0.48613" style="fill:#fff"/>
  <path d="m178.68 181.59c0 0.26846-0.21766 0.48577-0.48577 0.48577-0.26882 0-0.48613-0.21731-0.48613-0.48577s0.21731-0.48613 0.48613-0.48613c0.26811 0 0.48577 0.21767 0.48577 0.48613" style="fill:#fff"/>
  <path d="m183.06 181.59c0 0.26846-0.21766 0.48577-0.48577 0.48577-0.26882 0-0.48613-0.21731-0.48613-0.48577s0.21731-0.48613 0.48613-0.48613c0.26811 0 0.48577 0.21767 0.48577 0.48613" style="fill:#fff"/>
  <path d="m139.31 185.48c0 0.26846-0.21766 0.48613-0.48577 0.48613-0.26882 0-0.48613-0.21767-0.48613-0.48613s0.21731-0.48577 0.48613-0.48577c0.26811 0 0.48577 0.21731 0.48577 0.48577" style="fill:#fff"/>
  <path d="m143.69 185.48c0 0.26846-0.21766 0.48613-0.48613 0.48613-0.26846 0-0.48613-0.21767-0.48613-0.48613s0.21767-0.48577 0.48613-0.48577c0.26847 0 0.48613 0.21731 0.48613 0.48577" style="fill:#fff"/>
  <path d="m148.06 185.48c0 0.26846-0.21766 0.48613-0.48613 0.48613-0.26846 0-0.48613-0.21767-0.48613-0.48613s0.21767-0.48577 0.48613-0.48577c0.26847 0 0.48613 0.21731 0.48613 0.48577" style="fill:#fff"/>
  <path d="m152.43 185.48c0 0.26846-0.21766 0.48613-0.48613 0.48613-0.26846 0-0.48577-0.21767-0.48577-0.48613s0.21731-0.48577 0.48577-0.48577c0.26847 0 0.48613 0.21731 0.48613 0.48577" style="fill:#fff"/>
  <path d="m156.81 185.48c0 0.26846-0.21766 0.48613-0.48577 0.48613-0.26882 0-0.48613-0.21767-0.48613-0.48613s0.21731-0.48577 0.48613-0.48577c0.26811 0 0.48577 0.21731 0.48577 0.48577" style="fill:#fff"/>
  <path d="m161.18 185.48c0 0.26846-0.21766 0.48613-0.48577 0.48613-0.26882 0-0.48613-0.21767-0.48613-0.48613s0.21731-0.48577 0.48613-0.48577c0.26811 0 0.48577 0.21731 0.48577 0.48577" style="fill:#fff"/>
  <path d="m165.56 185.48c0 0.26846-0.21766 0.48613-0.48613 0.48613-0.26846 0-0.48613-0.21767-0.48613-0.48613s0.21767-0.48577 0.48613-0.48577c0.26847 0 0.48613 0.21731 0.48613 0.48577" style="fill:#fff"/>
  <path d="m169.93 185.48c0 0.26846-0.21766 0.48613-0.48613 0.48613-0.26846 0-0.48613-0.21767-0.48613-0.48613s0.21767-0.48577 0.48613-0.48577c0.26847 0 0.48613 0.21731 0.48613 0.48577" style="fill:#fff"/>
  <path d="m174.31 185.48c0 0.26846-0.21766 0.48613-0.48613 0.48613-0.26846 0-0.48577-0.21767-0.48577-0.48613s0.21731-0.48577 0.48577-0.48577c0.26847 0 0.48613 0.21731 0.48613 0.48577" style="fill:#fff"/>
  <path d="m178.68 185.48c0 0.26846-0.21766 0.48613-0.48577 0.48613-0.26882 0-0.48613-0.21767-0.48613-0.48613s0.21731-0.48577 0.48613-0.48577c0.26811 0 0.48577 0.21731 0.48577 0.48577" style="fill:#fff"/>
  <path d="m183.06 185.48c0 0.26846-0.21766 0.48613-0.48577 0.48613-0.26882 0-0.48613-0.21767-0.48613-0.48613s0.21731-0.48577 0.48613-0.48577c0.26811 0 0.48577 0.21731 0.48577 0.48577" style="fill:#fff"/>
  <path d="m139.31 189.37c0 0.26846-0.21766 0.48577-0.48577 0.48577-0.26882 0-0.48613-0.21731-0.48613-0.48577s0.21731-0.48613 0.48613-0.48613c0.26811 0 0.48577 0.21767 0.48577 0.48613" style="fill:#fff"/>
  <path d="m143.69 189.37c0 0.26846-0.21766 0.48577-0.48613 0.48577-0.26846 0-0.48613-0.21731-0.48613-0.48577s0.21767-0.48613 0.48613-0.48613c0.26847 0 0.48613 0.21767 0.48613 0.48613" style="fill:#fff"/>
  <path d="m148.06 189.37c0 0.26846-0.21766 0.48577-0.48613 0.48577-0.26846 0-0.48613-0.21731-0.48613-0.48577s0.21767-0.48613 0.48613-0.48613c0.26847 0 0.48613 0.21767 0.48613 0.48613" style="fill:#fff"/>
  <path d="m152.43 189.37c0 0.26846-0.21766 0.48577-0.48613 0.48577-0.26846 0-0.48577-0.21731-0.48577-0.48577s0.21731-0.48613 0.48577-0.48613c0.26847 0 0.48613 0.21767 0.48613 0.48613" style="fill:#fff"/>
  <path d="m156.81 189.37c0 0.26846-0.21766 0.48577-0.48577 0.48577-0.26882 0-0.48613-0.21731-0.48613-0.48577s0.21731-0.48613 0.48613-0.48613c0.26811 0 0.48577 0.21767 0.48577 0.48613" style="fill:#fff"/>
  <path d="m161.18 189.37c0 0.26846-0.21766 0.48577-0.48577 0.48577-0.26882 0-0.48613-0.21731-0.48613-0.48577s0.21731-0.48613 0.48613-0.48613c0.26811 0 0.48577 0.21767 0.48577 0.48613" style="fill:#fff"/>
  <path d="m165.56 189.37c0 0.26846-0.21766 0.48577-0.48613 0.48577-0.26846 0-0.48613-0.21731-0.48613-0.48577s0.21767-0.48613 0.48613-0.48613c0.26847 0 0.48613 0.21767 0.48613 0.48613" style="fill:#fff"/>
  <path d="m169.93 189.37c0 0.26846-0.21766 0.48577-0.48613 0.48577-0.26846 0-0.48613-0.21731-0.48613-0.48577s0.21767-0.48613 0.48613-0.48613c0.26847 0 0.48613 0.21767 0.48613 0.48613" style="fill:#fff"/>
  <path d="m174.31 189.37c0 0.26846-0.21766 0.48577-0.48613 0.48577-0.26846 0-0.48577-0.21731-0.48577-0.48577s0.21731-0.48613 0.48577-0.48613c0.26847 0 0.48613 0.21767 0.48613 0.48613" style="fill:#fff"/>
  <path d="m178.68 189.37c0 0.26846-0.21766 0.48577-0.48577 0.48577-0.26882 0-0.48613-0.21731-0.48613-0.48577s0.21731-0.48613 0.48613-0.48613c0.26811 0 0.48577 0.21767 0.48577 0.48613" style="fill:#fff"/>
  <path d="m183.06 189.37c0 0.26846-0.21766 0.48577-0.48577 0.48577-0.26882 0-0.48613-0.21731-0.48613-0.48577s0.21731-0.48613 0.48613-0.48613c0.26811 0 0.48577 0.21767 0.48577 0.48613" style="fill:#fff"/>
  <path d="m139.31 193.25c0 0.26846-0.21766 0.48613-0.48577 0.48613-0.26882 0-0.48613-0.21767-0.48613-0.48613s0.21731-0.48577 0.48613-0.48577c0.26811 0 0.48577 0.21731 0.48577 0.48577" style="fill:#fff"/>
  <path d="m143.69 193.25c0 0.26846-0.21766 0.48613-0.48613 0.48613-0.26846 0-0.48613-0.21767-0.48613-0.48613s0.21767-0.48577 0.48613-0.48577c0.26847 0 0.48613 0.21731 0.48613 0.48577" style="fill:#fff"/>
  <path d="m148.06 193.25c0 0.26846-0.21766 0.48613-0.48613 0.48613-0.26846 0-0.48613-0.21767-0.48613-0.48613s0.21767-0.48577 0.48613-0.48577c0.26847 0 0.48613 0.21731 0.48613 0.48577" style="fill:#fff"/>
  <path d="m152.43 193.25c0 0.26846-0.21766 0.48613-0.48613 0.48613-0.26846 0-0.48577-0.21767-0.48577-0.48613s0.21731-0.48577 0.48577-0.48577c0.26847 0 0.48613 0.21731 0.48613 0.48577" style="fill:#fff"/>
  <path d="m156.81 193.25c0 0.26846-0.21766 0.48613-0.48577 0.48613-0.26882 0-0.48613-0.21767-0.48613-0.48613s0.21731-0.48577 0.48613-0.48577c0.26811 0 0.48577 0.21731 0.48577 0.48577" style="fill:#fff"/>
  <path d="m161.18 193.25c0 0.26846-0.21766 0.48613-0.48577 0.48613-0.26882 0-0.48613-0.21767-0.48613-0.48613s0.21731-0.48577 0.48613-0.48577c0.26811 0 0.48577 0.21731 0.48577 0.48577" style="fill:#fff"/>
  <path d="m165.56 193.25c0 0.26846-0.21766 0.48613-0.48613 0.48613-0.26846 0-0.48613-0.21767-0.48613-0.48613s0.21767-0.48577 0.48613-0.48577c0.26847 0 0.48613 0.21731 0.48613 0.48577" style="fill:#fff"/>
  <path d="m169.93 193.25c0 0.26846-0.21766 0.48613-0.48613 0.48613-0.26846 0-0.48613-0.21767-0.48613-0.48613s0.21767-0.48577 0.48613-0.48577c0.26847 0 0.48613 0.21731 0.48613 0.48577" style="fill:#fff"/>
  <path d="m174.31 193.25c0 0.26846-0.21766 0.48613-0.48613 0.48613-0.26846 0-0.48577-0.21767-0.48577-0.48613s0.21731-0.48577 0.48577-0.48577c0.26847 0 0.48613 0.21731 0.48613 0.48577" style="fill:#fff"/>
  <path d="m178.68 193.25c0 0.26846-0.21766 0.48613-0.48577 0.48613-0.26882 0-0.48613-0.21767-0.48613-0.48613s0.21731-0.48577 0.48613-0.48577c0.26811 0 0.48577 0.21731 0.48577 0.48577" style="fill:#fff"/>
  <path d="m183.06 193.25c0 0.26846-0.21766 0.48613-0.48577 0.48613-0.26882 0-0.48613-0.21767-0.48613-0.48613s0.21731-0.48577 0.48613-0.48577c0.26811 0 0.48577 0.21731 0.48577 0.48577" style="fill:#fff"/>
  <path d="m139.31 197.14c0 0.26846-0.21766 0.48577-0.48577 0.48577-0.26882 0-0.48613-0.21731-0.48613-0.48577s0.21731-0.48613 0.48613-0.48613c0.26811 0 0.48577 0.21767 0.48577 0.48613" style="fill:#fff"/>
  <path d="m143.69 197.14c0 0.26846-0.21766 0.48577-0.48613 0.48577-0.26846 0-0.48613-0.21731-0.48613-0.48577s0.21767-0.48613 0.48613-0.48613c0.26847 0 0.48613 0.21767 0.48613 0.48613" style="fill:#fff"/>
  <path d="m148.06 197.14c0 0.26846-0.21766 0.48577-0.48613 0.48577-0.26846 0-0.48613-0.21731-0.48613-0.48577s0.21767-0.48613 0.48613-0.48613c0.26847 0 0.48613 0.21767 0.48613 0.48613" style="fill:#fff"/>
  <path d="m152.43 197.14c0 0.26846-0.21766 0.48577-0.48613 0.48577-0.26846 0-0.48577-0.21731-0.48577-0.48577s0.21731-0.48613 0.48577-0.48613c0.26847 0 0.48613 0.21767 0.48613 0.48613" style="fill:#fff"/>
  <path d="m156.81 197.14c0 0.26846-0.21766 0.48577-0.48577 0.48577-0.26882 0-0.48613-0.21731-0.48613-0.48577s0.21731-0.48613 0.48613-0.48613c0.26811 0 0.48577 0.21767 0.48577 0.48613" style="fill:#fff"/>
  <path d="m161.18 197.14c0 0.26846-0.21766 0.48577-0.48577 0.48577-0.26882 0-0.48613-0.21731-0.48613-0.48577s0.21731-0.48613 0.48613-0.48613c0.26811 0 0.48577 0.21767 0.48577 0.48613" style="fill:#fff"/>
  <path d="m165.56 197.14c0 0.26846-0.21766 0.48577-0.48613 0.48577-0.26846 0-0.48613-0.21731-0.48613-0.48577s0.21767-0.48613 0.48613-0.48613c0.26847 0 0.48613 0.21767 0.48613 0.48613" style="fill:#fff"/>
  <path d="m169.93 197.14c0 0.26846-0.21766 0.48577-0.48613 0.48577-0.26846 0-0.48613-0.21731-0.48613-0.48577s0.21767-0.48613 0.48613-0.48613c0.26847 0 0.48613 0.21767 0.48613 0.48613" style="fill:#fff"/>
  <path d="m174.31 197.14c0 0.26846-0.21766 0.48577-0.48613 0.48577-0.26846 0-0.48577-0.21731-0.48577-0.48577s0.21731-0.48613 0.48577-0.48613c0.26847 0 0.48613 0.21767 0.48613 0.48613" style="fill:#fff"/>
  <path d="m178.68 197.14c0 0.26846-0.21766 0.48577-0.48577 0.48577-0.26882 0-0.48613-0.21731-0.48613-0.48577s0.21731-0.48613 0.48613-0.48613c0.26811 0 0.48577 0.21767 0.48577 0.48613" style="fill:#fff"/>
  <path d="m183.06 197.14c0 0.26846-0.21766 0.48577-0.48577 0.48577-0.26882 0-0.48613-0.21731-0.48613-0.48577s0.21731-0.48613 0.48613-0.48613c0.26811 0 0.48577 0.21767 0.48577 0.48613" style="fill:#fff"/>
  <path d="m139.31 201.03c0 0.26846-0.21766 0.48613-0.48577 0.48613-0.26882 0-0.48613-0.21767-0.48613-0.48613s0.21731-0.48577 0.48613-0.48577c0.26811 0 0.48577 0.21731 0.48577 0.48577" style="fill:#fff"/>
  <path d="m143.69 201.03c0 0.26846-0.21766 0.48613-0.48613 0.48613-0.26846 0-0.48613-0.21767-0.48613-0.48613s0.21767-0.48577 0.48613-0.48577c0.26847 0 0.48613 0.21731 0.48613 0.48577" style="fill:#fff"/>
  <path d="m148.06 201.03c0 0.26846-0.21766 0.48613-0.48613 0.48613-0.26846 0-0.48613-0.21767-0.48613-0.48613s0.21767-0.48577 0.48613-0.48577c0.26847 0 0.48613 0.21731 0.48613 0.48577" style="fill:#fff"/>
  <path d="m152.43 201.03c0 0.26846-0.21766 0.48613-0.48613 0.48613-0.26846 0-0.48577-0.21767-0.48577-0.48613s0.21731-0.48577 0.48577-0.48577c0.26847 0 0.48613 0.21731 0.48613 0.48577" style="fill:#fff"/>
  <path d="m156.81 201.03c0 0.26846-0.21766 0.48613-0.48577 0.48613-0.26882 0-0.48613-0.21767-0.48613-0.48613s0.21731-0.48577 0.48613-0.48577c0.26811 0 0.48577 0.21731 0.48577 0.48577" style="fill:#fff"/>
  <path d="m161.18 201.03c0 0.26846-0.21766 0.48613-0.48577 0.48613-0.26882 0-0.48613-0.21767-0.48613-0.48613s0.21731-0.48577 0.48613-0.48577c0.26811 0 0.48577 0.21731 0.48577 0.48577" style="fill:#fff"/>
  <path d="m165.56 201.03c0 0.26846-0.21766 0.48613-0.48613 0.48613-0.26846 0-0.48613-0.21767-0.48613-0.48613s0.21767-0.48577 0.48613-0.48577c0.26847 0 0.48613 0.21731 0.48613 0.48577" style="fill:#fff"/>
  <path d="m169.93 201.03c0 0.26846-0.21766 0.48613-0.48613 0.48613-0.26846 0-0.48613-0.21767-0.48613-0.48613s0.21767-0.48577 0.48613-0.48577c0.26847 0 0.48613 0.21731 0.48613 0.48577" style="fill:#fff"/>
  <path d="m174.31 201.03c0 0.26846-0.21766 0.48613-0.48613 0.48613-0.26846 0-0.48577-0.21767-0.48577-0.48613s0.21731-0.48577 0.48577-0.48577c0.26847 0 0.48613 0.21731 0.48613 0.48577" style="fill:#fff"/>
  <path d="m178.68 201.03c0 0.26846-0.21766 0.48613-0.48577 0.48613-0.26882 0-0.48613-0.21767-0.48613-0.48613s0.21731-0.48577 0.48613-0.48577c0.26811 0 0.48577 0.21731 0.48577 0.48577" style="fill:#fff"/>
  <path d="m183.06 201.03c0 0.26846-0.21766 0.48613-0.48577 0.48613-0.26882 0-0.48613-0.21767-0.48613-0.48613s0.21731-0.48577 0.48613-0.48577c0.26811 0 0.48577 0.21731 0.48577 0.48577" style="fill:#fff"/>
  <path d="m139.31 204.92c0 0.26846-0.21766 0.48577-0.48577 0.48577-0.26882 0-0.48613-0.21731-0.48613-0.48577s0.21731-0.48613 0.48613-0.48613c0.26811 0 0.48577 0.21767 0.48577 0.48613" style="fill:#fff"/>
  <path d="m143.69 204.92c0 0.26846-0.21766 0.48577-0.48613 0.48577-0.26846 0-0.48613-0.21731-0.48613-0.48577s0.21767-0.48613 0.48613-0.48613c0.26847 0 0.48613 0.21767 0.48613 0.48613" style="fill:#fff"/>
  <path d="m148.06 204.92c0 0.26846-0.21766 0.48577-0.48613 0.48577-0.26846 0-0.48613-0.21731-0.48613-0.48577s0.21767-0.48613 0.48613-0.48613c0.26847 0 0.48613 0.21767 0.48613 0.48613" style="fill:#fff"/>
  <path d="m152.43 204.92c0 0.26846-0.21766 0.48577-0.48613 0.48577-0.26846 0-0.48577-0.21731-0.48577-0.48577s0.21731-0.48613 0.48577-0.48613c0.26847 0 0.48613 0.21767 0.48613 0.48613" style="fill:#fff"/>
  <path d="m156.81 204.92c0 0.26846-0.21766 0.48577-0.48577 0.48577-0.26882 0-0.48613-0.21731-0.48613-0.48577s0.21731-0.48613 0.48613-0.48613c0.26811 0 0.48577 0.21767 0.48577 0.48613" style="fill:#fff"/>
  <path d="m161.18 204.92c0 0.26846-0.21766 0.48577-0.48577 0.48577-0.26882 0-0.48613-0.21731-0.48613-0.48577s0.21731-0.48613 0.48613-0.48613c0.26811 0 0.48577 0.21767 0.48577 0.48613" style="fill:#fff"/>
  <path d="m165.56 204.92c0 0.26846-0.21766 0.48577-0.48613 0.48577-0.26846 0-0.48613-0.21731-0.48613-0.48577s0.21767-0.48613 0.48613-0.48613c0.26847 0 0.48613 0.21767 0.48613 0.48613" style="fill:#fff"/>
  <path d="m169.93 204.92c0 0.26846-0.21766 0.48577-0.48613 0.48577-0.26846 0-0.48613-0.21731-0.48613-0.48577s0.21767-0.48613 0.48613-0.48613c0.26847 0 0.48613 0.21767 0.48613 0.48613" style="fill:#fff"/>
  <path d="m174.31 204.92c0 0.26846-0.21766 0.48577-0.48613 0.48577-0.26846 0-0.48577-0.21731-0.48577-0.48577s0.21731-0.48613 0.48577-0.48613c0.26847 0 0.48613 0.21767 0.48613 0.48613" style="fill:#fff"/>
  <path d="m178.68 204.92c0 0.26846-0.21766 0.48577-0.48577 0.48577-0.26882 0-0.48613-0.21731-0.48613-0.48577s0.21731-0.48613 0.48613-0.48613c0.26811 0 0.48577 0.21767 0.48577 0.48613" style="fill:#fff"/>
  <path d="m183.06 204.92c0 0.26846-0.21766 0.48577-0.48577 0.48577-0.26882 0-0.48613-0.21731-0.48613-0.48577s0.21731-0.48613 0.48613-0.48613c0.26811 0 0.48577 0.21767 0.48577 0.48613" style="fill:#fff"/>
  <path d="m139.31 208.81c0 0.26846-0.21766 0.48613-0.48577 0.48613-0.26882 0-0.48613-0.21767-0.48613-0.48613s0.21731-0.48577 0.48613-0.48577c0.26811 0 0.48577 0.21731 0.48577 0.48577" style="fill:#fff"/>
  <path d="m143.69 208.81c0 0.26846-0.21766 0.48613-0.48613 0.48613-0.26846 0-0.48613-0.21767-0.48613-0.48613s0.21767-0.48577 0.48613-0.48577c0.26847 0 0.48613 0.21731 0.48613 0.48577" style="fill:#fff"/>
  <path d="m148.06 208.81c0 0.26846-0.21766 0.48613-0.48613 0.48613-0.26846 0-0.48613-0.21767-0.48613-0.48613s0.21767-0.48577 0.48613-0.48577c0.26847 0 0.48613 0.21731 0.48613 0.48577" style="fill:#fff"/>
  <path d="m152.43 208.81c0 0.26846-0.21766 0.48613-0.48613 0.48613-0.26846 0-0.48577-0.21767-0.48577-0.48613s0.21731-0.48577 0.48577-0.48577c0.26847 0 0.48613 0.21731 0.48613 0.48577" style="fill:#fff"/>
  <path d="m156.81 208.81c0 0.26846-0.21766 0.48613-0.48577 0.48613-0.26882 0-0.48613-0.21767-0.48613-0.48613s0.21731-0.48577 0.48613-0.48577c0.26811 0 0.48577 0.21731 0.48577 0.48577" style="fill:#fff"/>
  <path d="m161.18 208.81c0 0.26846-0.21766 0.48613-0.48577 0.48613-0.26882 0-0.48613-0.21767-0.48613-0.48613s0.21731-0.48577 0.48613-0.48577c0.26811 0 0.48577 0.21731 0.48577 0.48577" style="fill:#fff"/>
  <path d="m165.56 208.81c0 0.26846-0.21766 0.48613-0.48613 0.48613-0.26846 0-0.48613-0.21767-0.48613-0.48613s0.21767-0.48577 0.48613-0.48577c0.26847 0 0.48613 0.21731 0.48613 0.48577" style="fill:#fff"/>
  <path d="m169.93 208.81c0 0.26846-0.21766 0.48613-0.48613 0.48613-0.26846 0-0.48613-0.21767-0.48613-0.48613s0.21767-0.48577 0.48613-0.48577c0.26847 0 0.48613 0.21731 0.48613 0.48577" style="fill:#fff"/>
  <path d="m174.31 208.81c0 0.26846-0.21766 0.48613-0.48613 0.48613-0.26846 0-0.48577-0.21767-0.48577-0.48613s0.21731-0.48577 0.48577-0.48577c0.26847 0 0.48613 0.21731 0.48613 0.48577" style="fill:#fff"/>
  <path d="m178.68 208.81c0 0.26846-0.21766 0.48613-0.48577 0.48613-0.26882 0-0.48613-0.21767-0.48613-0.48613s0.21731-0.48577 0.48613-0.48577c0.26811 0 0.48577 0.21731 0.48577 0.48577" style="fill:#fff"/>
  <path d="m183.06 208.81c0 0.26846-0.21766 0.48613-0.48577 0.48613-0.26882 0-0.48613-0.21767-0.48613-0.48613s0.21731-0.48577 0.48613-0.48577c0.26811 0 0.48577 0.21731 0.48577 0.48577" style="fill:#fff"/>
  <path d="m139.31 212.7c0 0.26846-0.21766 0.48613-0.48577 0.48613-0.26882 0-0.48613-0.21767-0.48613-0.48613s0.21731-0.48613 0.48613-0.48613c0.26811 0 0.48577 0.21767 0.48577 0.48613" style="fill:#fff"/>
  <path d="m143.69 212.7c0 0.26846-0.21766 0.48613-0.48613 0.48613-0.26846 0-0.48613-0.21767-0.48613-0.48613s0.21767-0.48613 0.48613-0.48613c0.26847 0 0.48613 0.21767 0.48613 0.48613" style="fill:#fff"/>
  <path d="m148.06 212.7c0 0.26846-0.21766 0.48613-0.48613 0.48613-0.26846 0-0.48613-0.21767-0.48613-0.48613s0.21767-0.48613 0.48613-0.48613c0.26847 0 0.48613 0.21767 0.48613 0.48613" style="fill:#fff"/>
  <path d="m152.43 212.7c0 0.26846-0.21766 0.48613-0.48613 0.48613-0.26846 0-0.48577-0.21767-0.48577-0.48613s0.21731-0.48613 0.48577-0.48613c0.26847 0 0.48613 0.21767 0.48613 0.48613" style="fill:#fff"/>
  <path d="m156.81 212.7c0 0.26846-0.21766 0.48613-0.48577 0.48613-0.26882 0-0.48613-0.21767-0.48613-0.48613s0.21731-0.48613 0.48613-0.48613c0.26811 0 0.48577 0.21767 0.48577 0.48613" style="fill:#fff"/>
  <path d="m161.18 212.7c0 0.26846-0.21766 0.48613-0.48577 0.48613-0.26882 0-0.48613-0.21767-0.48613-0.48613s0.21731-0.48613 0.48613-0.48613c0.26811 0 0.48577 0.21767 0.48577 0.48613" style="fill:#fff"/>
  <path d="m165.56 212.7c0 0.26846-0.21766 0.48613-0.48613 0.48613-0.26846 0-0.48613-0.21767-0.48613-0.48613s0.21767-0.48613 0.48613-0.48613c0.26847 0 0.48613 0.21767 0.48613 0.48613" style="fill:#fff"/>
  <path d="m169.93 212.7c0 0.26846-0.21766 0.48613-0.48613 0.48613-0.26846 0-0.48613-0.21767-0.48613-0.48613s0.21767-0.48613 0.48613-0.48613c0.26847 0 0.48613 0.21767 0.48613 0.48613" style="fill:#fff"/>
  <path d="m174.31 212.7c0 0.26846-0.21766 0.48613-0.48613 0.48613-0.26846 0-0.48577-0.21767-0.48577-0.48613s0.21731-0.48613 0.48577-0.48613c0.26847 0 0.48613 0.21767 0.48613 0.48613" style="fill:#fff"/>
  <path d="m178.68 212.7c0 0.26846-0.21766 0.48613-0.48577 0.48613-0.26882 0-0.48613-0.21767-0.48613-0.48613s0.21731-0.48613 0.48613-0.48613c0.26811 0 0.48577 0.21767 0.48577 0.48613" style="fill:#fff"/>
  <path d="m183.06 212.7c0 0.26846-0.21766 0.48613-0.48577 0.48613-0.26882 0-0.48613-0.21767-0.48613-0.48613s0.21731-0.48613 0.48613-0.48613c0.26811 0 0.48577 0.21767 0.48577 0.48613" style="fill:#fff"/>
  <path d="m-41.577 73.352c4.1324 2.9235 8.6995 5.3619 11.751 9.3652 4.1734 5.4758 4.934 13.175 9.785 18.061 2.5569 2.5753 6.0096 4.0834 9.5141 5.0264 4.9615 1.3346 10.353 1.6192 15.164-0.18309 4.8115-1.8027 8.9143-5.9496 9.7571-11.018 2.2109-13.289-14.781-15.042-23.714-16.496-6.0491-0.9846-10.96-3.3514-14.749-6.833-5.0221-4.6164-8.0701-11.192-9.1782-19.107-0.46708-3.3401-0.64805-6.7889-1.9487-9.8873-1.1698-2.7862-3.5324-5.2881-6.381-5.7549z" style="fill:url(#linearGradient3613)"/>
  <path d="m86.248 148.2c-11.336 2.5329-21.289 10.628-26.077 21.211-4.0492 8.9486 1.361 17.917 11.541 14.154 3.785-1.3988 8.0867-4.3815 12.205-4.427 2.1491-0.0236 4.1585 0.65123 6.1655 1.3257 2.6885 0.90381 5.3732 1.8073 8.3876 1.0329 7.2189-1.8546 9.6351-14.959 7.8669-21.037-0.75953-2.6113-2.1551-5.0045-3.8276-7.149-1.3144-1.6856-2.8367-3.2572-4.7131-4.281-1.9368-1.0566-4.1144-1.4602-6.3313-1.4602-1.7477 0-3.5193 0.25082-5.2165 0.62971" style="fill:url(#linearGradient3635)"/>
  <path d="m170.86 160.6c-5.2737 9.4862-2.432 22.207 5.2454 29.879 7.6782 7.6712 19.237 10.622 30.031 9.4851 5.9052-0.6223 11.74-2.4306 16.869-5.394v-24.207c-0.27411 0.10265-0.56198 0.1979-0.86607 0.28539-4.9096 1.4164-9.9921-1.8101-13.359-5.6543-3.3669-3.8439-5.908-8.5065-10.027-11.53-2.9115-2.1371-6.3916-3.1122-9.9318-3.1126-7.0982-3.6e-4 -14.442 3.9183-17.961 10.248" style="fill:url(#linearGradient3657)"/>
  <path d="m176.11 190.48c7.6782 7.6712 19.237 10.622 30.031 9.4851 5.9052-0.6223 11.74-2.4306 16.869-5.394v-13.171c-0.29916 0.4191-0.60678 0.82867-0.92322 1.2287-5.5312 6.9882-13.46 11.046-21.545 12.045-9.2019 1.1374-19.057-1.814-25.603-9.4855-3.6894-4.324-6.0685-10.252-6.6372-16.302-0.80504 7.7431 2.2168 16.007 7.808 21.594" style="fill:url(#radialGradient3707)"/>
  <path d="m180.35 185.72c-4.8253 0.52211-8.3136 4.8578-7.7914 9.6834 0.52282 4.8253 4.8581 8.3136 9.6834 7.7914 4.8256-0.52282 8.3143-4.8581 7.7918-9.6834-0.48754-4.5046-4.2968-7.8437-8.7267-7.8433-0.31609 0-0.63571 0.0169-0.95709 0.0519" style="fill:url(#linearGradient3727)"/>
  <path d="m187.51 191.29c0.52247 4.826-2.9658 9.1609-7.7914 9.6838-1.9449 0.21025-3.8093-0.23107-5.3777-1.1486 1.8073 2.3396 4.7519 3.7123 7.9061 3.3708 4.8256-0.52282 8.3143-4.8581 7.7918-9.6834-0.31185-2.8811-1.983-5.2843-4.306-6.6432 0.95779 1.2393 1.5967 2.7496 1.7773 4.4207" style="fill:url(#linearGradient3747)"/>
  <path d="m178.98 191.27c0.12277 1.1356-0.69779 2.1558-1.8334 2.2786-1.1356 0.12312-2.1555-0.69779-2.2782-1.833-0.12312-1.1356 0.69779-2.1558 1.833-2.2786 1.1356-0.12277 2.1555 0.69779 2.2786 1.833" style="fill:url(#linearGradient3797)"/>
  <path d="m18.426 126.1c-4.8253 0.52247-8.3136 4.8581-7.7914 9.6838 0.52282 4.8256 4.8581 8.3139 9.6834 7.7914 4.8256-0.52246 8.3143-4.8578 7.7918-9.6838-0.48754-4.5043-4.2968-7.8433-8.7267-7.843-0.31609 0-0.6357 0.0169-0.95709 0.0515" style="fill:url(#linearGradient3833)"/>
  <path d="m25.581 131.67c0.52246 4.8256-2.9658 9.1609-7.7914 9.6838-1.9449 0.21025-3.8093-0.23143-5.3777-1.1486 1.8073 2.3393 4.7519 3.7123 7.9061 3.3708 4.8256-0.52246 8.3143-4.8578 7.7918-9.6838-0.31186-2.8804-1.983-5.2839-4.3057-6.6428 0.95744 1.2393 1.5963 2.7499 1.7769 4.4207" style="fill:url(#linearGradient3853)"/>
  <path d="m17.052 131.65c0.12277 1.1356-0.69779 2.1558-1.8334 2.2786-1.1356 0.12312-2.1555-0.6978-2.2782-1.833-0.12312-1.1356 0.69779-2.1558 1.833-2.2786 1.1356-0.12276 2.1555 0.6978 2.2786 1.833" style="fill:url(#linearGradient3903)"/>
  <path d="m166.27 75.742c-9.9833 1.0806-17.2 10.05-16.119 20.033 1.0806 9.9833 10.05 17.2 20.033 16.119 9.9836-1.0806 17.2-10.05 16.119-20.033-1.0089-9.3186-8.8893-16.227-18.053-16.226-0.65405 0-1.3152 0.03528-1.9798 0.10724" style="fill:url(#linearGradient3939)"/>
  <path d="m181.07 87.264c1.0802 9.9833-6.1366 18.953-16.119 20.033-4.0238 0.43569-7.8814-0.47801-11.126-2.376 3.7391 4.8398 9.8305 7.6803 16.357 6.9734 9.9836-1.0806 17.2-10.05 16.119-20.033-0.64523-5.9598-4.1024-10.932-8.9076-13.744 1.9808 2.5643 3.3024 5.6889 3.677 9.1461" style="fill:url(#linearGradient3959)"/>
  <path d="m163.43 87.237c0.25436 2.3491-1.4439 4.4595-3.7927 4.7138-2.3492 0.25435-4.4595-1.4439-4.7138-3.7927-0.25435-2.3491 1.4439-4.4595 3.7927-4.7138 2.3491-0.25435 4.4595 1.4439 4.7138 3.7927" style="fill:url(#linearGradient4009)"/>
  <path d="m33.901 180.25c-5.3552 8.8392 16.632 15.424 22.11 15.753 1.2421 0.0744 2.5492 0.0628 3.6456-0.52599 1.264-0.67875 2.0705-2.129 1.9801-3.5609-0.11289-1.7791-1.4711-3.2565-3.0021-4.1695-2.5287-1.5081-5.2938-2.2976-7.7287-4.0217-2.2602-1.6009-4.1621-4.1903-6.6735-5.3936-1.1867-0.56903-2.7206-0.90487-4.2676-0.90487-2.4063 0-4.8454 0.81244-6.0642 2.824" style="fill:url(#linearGradient4047)"/>
  <path d="m36.682 108.29c-1.579 1.156-2.4483 3.3909-1.6348 5.171 1.1561 2.5308 4.5604 2.788 7.3374 2.9524 4.9431 0.29316 9.8319 1.4743 14.363 3.4699 1.6489 0.72602 3.2995 1.5723 5.0955 1.7149 1.796 0.14252 3.8164-0.63359 4.4923-2.3036 0.94474-2.334-1.1056-4.7618-3.1376-6.2484-5.9475-4.3508-19.502-9.893-26.516-4.7562" style="fill:url(#linearGradient4097)"/>
  <path d="m99.952 151.79c3.859 5.5587 3.6156 14.109-1.6221 18.393-1.1613 0.95003-2.5523 1.6785-4.0467 1.8143-3.4368 0.31291-6.3405-2.4363-9.6583-3.3849-3.6576-1.046-7.8885 0.3556-10.198 3.3786-2.213 2.8963-2.7503 7.016-5.5926 9.2985-1.9202 1.5416-4.6133 1.8997-7.0037 1.2785 2.2465 1.9205 5.6497 2.5608 9.8817 0.9966 3.785-1.3988 8.0867-4.3815 12.205-4.427 2.1491-0.0236 4.1585 0.65123 6.1655 1.3257 2.6882 0.90381 5.3728 1.8073 8.3876 1.0329 7.2189-1.8546 9.6351-14.959 7.8669-21.037-0.75953-2.6113-2.1551-5.0045-3.8276-7.149-1.3144-1.6856-2.8367-3.2572-4.7131-4.281-0.17921-0.0977-0.36124-0.18662-0.54469-0.2727 1.0065 0.90135 1.9195 1.9075 2.7009 3.0328" style="fill:url(#linearGradient4135)"/>
  <path d="m86.761 158.53c1.7452-0.0649 3.5602 0.69109 5.1922 0.0699 4.9438-1.8817 1.8634-6.1059-1.9921-6.5511-1.8083-0.20849-3.635 0.15346-5.3852 0.6537-1.5854 0.45332-3.1665 1.0365-4.4697 2.0468-1.2778 0.99024-3.6054 3.974-1.6859 5.2529 1.585 1.0555 6.5391-1.4051 8.3407-1.4721" style="fill:url(#linearGradient4185)"/>
  <path d="m76.25 160.98c0 1.1688-0.94791 2.1167-2.1167 2.1167-1.1688 0-2.1167-0.94791-2.1167-2.1167s0.94791-2.1167 2.1167-2.1167c1.1688 0 2.1167 0.94792 2.1167 2.1167" style="fill:url(#linearGradient4243)"/>
  <path d="m56.011 196c1.2421 0.0744 2.5492 0.0628 3.6456-0.52599 1.264-0.67875 2.0705-2.129 1.9801-3.5609-0.11289-1.7791-1.4711-3.2565-3.0021-4.1695-1.6118-0.96132-3.3193-1.6312-4.9766-2.437 0.06985 0.26282 0.17815 0.51752 0.31468 0.73977 0.48578 0.78776 1.2266 1.4383 1.4947 2.3245 0.43991 1.4552-0.63923 3.0406-2.044 3.6234-1.4044 0.58314-3.0081 0.38664-4.482 0.0106-4.6337-1.1811-8.6942-3.9896-12.267-7.1681-1.3335-1.1864-2.6917-2.5841-2.9076-4.3505-4.8204 8.7186 16.814 15.188 22.244 15.514" style="fill:url(#linearGradient4281)"/>
  <path d="m148.45 155.24c-2.0302 0.63571-4.0196 1.4009-5.9517 2.2906-1.6439 0.75671-7.505 4.415-4.2774 6.1383 2.6857 1.4344 6.0325-0.084 8.7711-0.48013 3.7507-0.54186 7.5773-1.2326 11.033-2.8529 1.0756-0.50483 2.178-1.2051 2.5718-2.3262 0.7881-2.2454-1.5547-4.0725-3.5302-4.3416-1.1638-0.1584-2.3453 0.0318-3.4971 0.26211-1.7279 0.34537-3.4375 0.78317-5.1192 1.3099" style="fill:url(#linearGradient4331)"/>
  <path d="m172.51 165.84c-0.36618 1.5353-0.35983 3.2029 0.29422 4.639 0.65369 1.4365 2.0274 2.5922 3.5997 2.7273 0.56162 0.0487 1.1716-0.0483 1.5843-0.43251 0.31892-0.29668 0.47802-0.72143 0.64876-1.1225 0.74331-1.7448 1.899-3.3129 3.3454-4.5395 1.0344-0.87736 2.2451-1.6168 2.9298-2.7876 1.1162-1.9085 0.3362-4.6246-1.5413-5.7926-4.6542-2.8963-9.9099 3.3193-10.861 7.3085" style="fill:url(#linearGradient4389)"/>
  <path d="m-41.577 73.352c4.1324 2.9235 8.6995 5.3619 11.751 9.3652 4.1734 5.4758 4.934 13.175 9.785 18.061 2.5569 2.5753 6.0092 4.0834 9.5141 5.0264 4.9615 1.3346 10.353 1.6192 15.164-0.18309 4.2975-1.6097 8.0218-5.0924 9.3712-9.4287-0.67169 1.0238-1.5282 1.9413-2.4624 2.7347-7.155 6.0794-18.913 4.9244-25.605-1.6609-7.0132-6.9017-8.8029-18.101-16.475-24.262-3.2607-2.619-7.3339-4.0958-11.042-6.0357z" style="fill:url(#linearGradient4425)"/>
  <path d="m10.477 93.963c-0.82268 0.91334-2.2486 1.0968-3.4096 0.6925s-2.0899-1.2958-2.842-2.2684c-0.97049-1.2545-2.9393-3.9924-2.0168-5.6624 0.33796-0.61207 1.0118-1.0238 1.7103-1.0456 0.48895-0.01552 0.96414 0.14534 1.4228 0.31468 1.3381 0.49389 2.6677 1.094 3.7236 2.0532 1.3974 1.2689 2.9224 4.2393 1.4118 5.9161" style="fill:url(#linearGradient4475)"/>
  <path d="m131.3 109.63c-3.5242 2.1565-6.1666 5.6974-9.9928 7.257-5.0486 2.0581-10.753 0.17321-15.869-1.7124-4.1991-1.5469-8.0183-3.9335-12.149-5.6363-2.2073-0.91017-7.657-3.1175-5.7464 1.3342 2.6903 6.2696 8.9489 11.661 14.571 15.267 3.5295 2.2631 7.3674 4.0245 11.453 5.0796 10.844 2.8007 23.453-0.054 30.665-8.6226 4.2968-5.1054 4.1349-12.634-3.1514-14.626-0.93027-0.25435-1.8866-0.37359-2.8455-0.37359-2.4211 0-4.8578 0.7613-6.9356 2.0327" style="fill:url(#linearGradient4513)"/>
  <path d="m133.96 108.36c6.2047 1.9717 6.0353 7.9795 2.068 11.891-6.7261 6.6319-18.034 8.4233-27.563 5.7154-3.5899-1.0202-6.9338-2.601-9.9847-4.5752-3.78-2.4458-7.8542-5.7827-10.497-9.58 2.8868 5.8663 8.7962 10.9 14.135 14.324 3.5295 2.2631 7.3674 4.0245 11.453 5.0796 10.844 2.8007 23.453-0.054 30.665-8.6226 4.2968-5.1054 4.1349-12.634-3.1514-14.626-0.9278-0.25364-1.8814-0.37253-2.837-0.37253-1.4503 0-2.9062 0.27376-4.288 0.76553" style="fill:url(#linearGradient4535)"/>
  <path d="m205.96 163.73c-0.26459 5.6007-5.206 9.6234-8.5517 14.123-0.55457 0.74577-1.0908 1.5766-1.1134 2.5058-0.0445 1.8634 1.9385 3.1189 3.7588 3.5172 3.393 0.74154 6.9825-0.121 10.06-1.7307 3.0773-1.6097 5.721-3.9243 8.2885-6.2629 1.4153-1.2887 2.8515-2.6367 3.6689-4.3677 0.14676-0.31115 0.26424-0.63183 0.37042-0.95603-0.10266 0.0325-0.20002 0.0674-0.30621 0.0981-4.9096 1.4164-9.9921-1.8101-13.359-5.6543-1.0689-1.2199-2.0546-2.5231-3.0335-3.8298 0.17991 0.8262 0.25893 1.6792 0.21731 2.5573" style="fill:url(#radialGradient4585)"/>
  <path d="m177.96 116.16c-1.7653 0.92216-2.7263 2.8466-3.5736 4.6489-1.6542 3.5179-4.6235 6.4449-7.8952 8.539-1.688 1.0802-3.8093 2.6084-3.2403 4.53 0.3115 1.0516 1.4168 1.7152 2.5086 1.8189 1.0918 0.10407 2.1731-0.24518 3.1944-0.64452 3.9832-1.5582 7.8257-3.9504 10.882-6.949 2.4952-2.4483 6.6887-7.2129 3.8298-10.756-0.87242-1.0809-2.2666-1.6768-3.6502-1.6768-0.71261 0-1.422 0.15804-2.056 0.4893" style="fill:url(#linearGradient4607)"/>
  <path d="m178.71 121.15c0.58173-2e-3 1.136-0.34855 1.7134-0.27764 0.39794 0.0487 0.76165 0.29316 1.1624 0.28928 0.59372-6e-3 1.0636-0.59337 1.1038-1.1857 0.0406-0.59231-0.25259-1.1603-0.62512-1.6224-0.9264-1.1494-2.5584-1.6171-3.8033-0.75777-1.2407 0.85584-1.7011 3.5638 0.44873 3.5542" style="fill:url(#linearGradient4657)"/>
  <path d="m184.46 120.21c-0.76835 3.2381-3.9201 5.9697-6.4894 7.8807-2.8755 2.1385-6.2706 3.5818-9.8132 4.1353-1.2834 0.20073-3.0392-0.0138-3.9303-1.1035-6e-3 -8e-3 -0.0113-0.0176-0.018-0.0254-0.78246 0.80433-1.2735 1.7343-0.96343 2.7813 0.3115 1.0516 1.4171 1.7152 2.5086 1.8189 1.0918 0.10407 2.1731-0.24518 3.1944-0.64452 3.9832-1.5582 7.8257-3.9504 10.882-6.949 2.0211-1.9833 5.1555-5.486 4.7544-8.6282-0.0279 0.24765-0.0684 0.49389-0.12559 0.73449" style="fill:url(#radialGradient4723)"/>
  <path d="m-38.912 75.035c0 0.26846-0.21766 0.48578-0.48613 0.48578s-0.48613-0.21731-0.48613-0.48578 0.21766-0.48613 0.48613-0.48613 0.48613 0.21766 0.48613 0.48613" style="fill:#fff"/>
  <path d="m-34.537 75.035c0 0.26846-0.21766 0.48578-0.48613 0.48578s-0.48578-0.21731-0.48578-0.48578 0.21731-0.48613 0.48578-0.48613 0.48613 0.21766 0.48613 0.48613" style="fill:#fff"/>
  <path d="m-30.163 75.035c0 0.26846-0.21766 0.48578-0.48578 0.48578-0.26882 0-0.48613-0.21731-0.48613-0.48578s0.21731-0.48613 0.48613-0.48613c0.26811 0 0.48578 0.21766 0.48578 0.48613" style="fill:#fff"/>
  <path d="m-25.789 75.035c0 0.26846-0.21766 0.48578-0.48578 0.48578-0.26882 0-0.48613-0.21731-0.48613-0.48578s0.21731-0.48613 0.48613-0.48613c0.26811 0 0.48578 0.21766 0.48578 0.48613" style="fill:#fff"/>
  <path d="m-38.912 78.923c0 0.26846-0.21766 0.48613-0.48613 0.48613s-0.48613-0.21766-0.48613-0.48613 0.21766-0.48613 0.48613-0.48613 0.48613 0.21766 0.48613 0.48613" style="fill:#fff"/>
  <path d="m-34.537 78.923c0 0.26846-0.21766 0.48613-0.48613 0.48613s-0.48578-0.21766-0.48578-0.48613 0.21731-0.48613 0.48578-0.48613 0.48613 0.21766 0.48613 0.48613" style="fill:#fff"/>
  <path d="m-30.163 78.923c0 0.26846-0.21766 0.48613-0.48578 0.48613-0.26882 0-0.48613-0.21766-0.48613-0.48613s0.21731-0.48613 0.48613-0.48613c0.26811 0 0.48578 0.21766 0.48578 0.48613" style="fill:#fff"/>
  <path d="m-25.789 78.923c0 0.26846-0.21766 0.48613-0.48578 0.48613-0.26882 0-0.48613-0.21766-0.48613-0.48613s0.21731-0.48613 0.48613-0.48613c0.26811 0 0.48578 0.21766 0.48578 0.48613" style="fill:#fff"/>
  <path d="m-38.912 82.811c0 0.26846-0.21766 0.48578-0.48613 0.48578s-0.48613-0.21731-0.48613-0.48578 0.21766-0.48613 0.48613-0.48613 0.48613 0.21766 0.48613 0.48613" style="fill:#fff"/>
  <path d="m-34.537 82.811c0 0.26846-0.21766 0.48578-0.48613 0.48578s-0.48578-0.21731-0.48578-0.48578 0.21731-0.48613 0.48578-0.48613 0.48613 0.21766 0.48613 0.48613" style="fill:#fff"/>
  <path d="m-30.163 82.811c0 0.26846-0.21766 0.48578-0.48578 0.48578-0.26882 0-0.48613-0.21731-0.48613-0.48578s0.21731-0.48613 0.48613-0.48613c0.26811 0 0.48578 0.21766 0.48578 0.48613" style="fill:#fff"/>
  <path d="m-25.789 82.811c0 0.26846-0.21766 0.48578-0.48578 0.48578-0.26882 0-0.48613-0.21731-0.48613-0.48578s0.21731-0.48613 0.48613-0.48613c0.26811 0 0.48578 0.21766 0.48578 0.48613" style="fill:#fff"/>
  <path d="m-38.912 86.7c0 0.26846-0.21766 0.48613-0.48613 0.48613s-0.48613-0.21766-0.48613-0.48613 0.21766-0.48578 0.48613-0.48578 0.48613 0.21731 0.48613 0.48578" style="fill:#fff"/>
  <path d="m-34.537 86.7c0 0.26846-0.21766 0.48613-0.48613 0.48613s-0.48578-0.21766-0.48578-0.48613 0.21731-0.48578 0.48578-0.48578 0.48613 0.21731 0.48613 0.48578" style="fill:#fff"/>
  <path d="m-30.163 86.7c0 0.26846-0.21766 0.48613-0.48578 0.48613-0.26882 0-0.48613-0.21766-0.48613-0.48613s0.21731-0.48578 0.48613-0.48578c0.26811 0 0.48578 0.21731 0.48578 0.48578" style="fill:#fff"/>
  <path d="m-25.789 86.7c0 0.26846-0.21766 0.48613-0.48578 0.48613-0.26882 0-0.48613-0.21766-0.48613-0.48613s0.21731-0.48578 0.48613-0.48578c0.26811 0 0.48578 0.21731 0.48578 0.48578" style="fill:#fff"/>
  <path d="m-38.912 90.588c0 0.26846-0.21766 0.48578-0.48613 0.48578s-0.48613-0.21731-0.48613-0.48578 0.21766-0.48613 0.48613-0.48613 0.48613 0.21766 0.48613 0.48613" style="fill:#fff"/>
  <path d="m-34.537 90.588c0 0.26846-0.21766 0.48578-0.48613 0.48578s-0.48578-0.21731-0.48578-0.48578 0.21731-0.48613 0.48578-0.48613 0.48613 0.21766 0.48613 0.48613" style="fill:#fff"/>
  <path d="m-30.163 90.588c0 0.26846-0.21766 0.48578-0.48578 0.48578-0.26882 0-0.48613-0.21731-0.48613-0.48578s0.21731-0.48613 0.48613-0.48613c0.26811 0 0.48578 0.21766 0.48578 0.48613" style="fill:#fff"/>
  <path d="m-25.789 90.588c0 0.26846-0.21766 0.48578-0.48578 0.48578-0.26882 0-0.48613-0.21731-0.48613-0.48578s0.21731-0.48613 0.48613-0.48613c0.26811 0 0.48578 0.21766 0.48578 0.48613" style="fill:#fff"/>
  <path d="m-38.912 94.476c0 0.26846-0.21766 0.48613-0.48613 0.48613s-0.48613-0.21766-0.48613-0.48613 0.21766-0.48578 0.48613-0.48578 0.48613 0.21731 0.48613 0.48578" style="fill:#fff"/>
  <path d="m-34.537 94.476c0 0.26846-0.21766 0.48613-0.48613 0.48613s-0.48578-0.21766-0.48578-0.48613 0.21731-0.48578 0.48578-0.48578 0.48613 0.21731 0.48613 0.48578" style="fill:#fff"/>
  <path d="m-30.163 94.476c0 0.26846-0.21766 0.48613-0.48578 0.48613-0.26882 0-0.48613-0.21766-0.48613-0.48613s0.21731-0.48578 0.48613-0.48578c0.26811 0 0.48578 0.21731 0.48578 0.48578" style="fill:#fff"/>
  <path d="m-25.789 94.476c0 0.26846-0.21766 0.48613-0.48578 0.48613-0.26882 0-0.48613-0.21766-0.48613-0.48613s0.21731-0.48578 0.48613-0.48578c0.26811 0 0.48578 0.21731 0.48578 0.48578" style="fill:#fff"/>
  <path d="m-38.912 98.365c0 0.26846-0.21766 0.48578-0.48613 0.48578s-0.48613-0.21731-0.48613-0.48578 0.21766-0.48613 0.48613-0.48613 0.48613 0.21766 0.48613 0.48613" style="fill:#fff"/>
  <path d="m-34.537 98.365c0 0.26846-0.21766 0.48578-0.48613 0.48578s-0.48578-0.21731-0.48578-0.48578 0.21731-0.48613 0.48578-0.48613 0.48613 0.21766 0.48613 0.48613" style="fill:#fff"/>
  <path d="m-30.163 98.365c0 0.26846-0.21766 0.48578-0.48578 0.48578-0.26882 0-0.48613-0.21731-0.48613-0.48578s0.21731-0.48613 0.48613-0.48613c0.26811 0 0.48578 0.21766 0.48578 0.48613" style="fill:#fff"/>
  <path d="m-25.789 98.365c0 0.26846-0.21766 0.48578-0.48578 0.48578-0.26882 0-0.48613-0.21731-0.48613-0.48578s0.21731-0.48613 0.48613-0.48613c0.26811 0 0.48578 0.21766 0.48578 0.48613" style="fill:#fff"/>
  <path d="m-38.912 102.25c0 0.26846-0.21766 0.48613-0.48613 0.48613s-0.48613-0.21767-0.48613-0.48613 0.21766-0.48577 0.48613-0.48577 0.48613 0.21731 0.48613 0.48577" style="fill:#fff"/>
  <path d="m-34.537 102.25c0 0.26846-0.21766 0.48613-0.48613 0.48613s-0.48578-0.21767-0.48578-0.48613 0.21731-0.48577 0.48578-0.48577 0.48613 0.21731 0.48613 0.48577" style="fill:#fff"/>
  <path d="m-30.163 102.25c0 0.26846-0.21766 0.48613-0.48578 0.48613-0.26882 0-0.48613-0.21767-0.48613-0.48613s0.21731-0.48577 0.48613-0.48577c0.26811 0 0.48578 0.21731 0.48578 0.48577" style="fill:#fff"/>
  <path d="m-25.789 102.25c0 0.26846-0.21766 0.48613-0.48578 0.48613-0.26882 0-0.48613-0.21767-0.48613-0.48613s0.21731-0.48577 0.48613-0.48577c0.26811 0 0.48578 0.21731 0.48578 0.48577" style="fill:#fff"/>
  <path d="m-38.912 106.14c0 0.26846-0.21766 0.48577-0.48613 0.48577s-0.48613-0.21731-0.48613-0.48577 0.21766-0.48613 0.48613-0.48613 0.48613 0.21767 0.48613 0.48613" style="fill:#fff"/>
  <path d="m-34.537 106.14c0 0.26846-0.21766 0.48577-0.48613 0.48577s-0.48578-0.21731-0.48578-0.48577 0.21731-0.48613 0.48578-0.48613 0.48613 0.21767 0.48613 0.48613" style="fill:#fff"/>
  <path d="m-30.163 106.14c0 0.26846-0.21766 0.48577-0.48578 0.48577-0.26882 0-0.48613-0.21731-0.48613-0.48577s0.21731-0.48613 0.48613-0.48613c0.26811 0 0.48578 0.21767 0.48578 0.48613" style="fill:#fff"/>
  <path d="m-25.789 106.14c0 0.26846-0.21766 0.48577-0.48578 0.48577-0.26882 0-0.48613-0.21731-0.48613-0.48577s0.21731-0.48613 0.48613-0.48613c0.26811 0 0.48578 0.21767 0.48578 0.48613" style="fill:#fff"/>
  <path d="m-38.912 110.03c0 0.26846-0.21766 0.48613-0.48613 0.48613s-0.48613-0.21767-0.48613-0.48613 0.21766-0.48577 0.48613-0.48577 0.48613 0.21731 0.48613 0.48577" style="fill:#fff"/>
  <path d="m-34.537 110.03c0 0.26846-0.21766 0.48613-0.48613 0.48613s-0.48578-0.21767-0.48578-0.48613 0.21731-0.48577 0.48578-0.48577 0.48613 0.21731 0.48613 0.48577" style="fill:#fff"/>
  <path d="m-30.163 110.03c0 0.26846-0.21766 0.48613-0.48578 0.48613-0.26882 0-0.48613-0.21767-0.48613-0.48613s0.21731-0.48577 0.48613-0.48577c0.26811 0 0.48578 0.21731 0.48578 0.48577" style="fill:#fff"/>
  <path d="m-25.789 110.03c0 0.26846-0.21766 0.48613-0.48578 0.48613-0.26882 0-0.48613-0.21767-0.48613-0.48613s0.21731-0.48577 0.48613-0.48577c0.26811 0 0.48578 0.21731 0.48578 0.48577" style="fill:#fff"/>
  <path d="m-38.912 113.92c0 0.26846-0.21766 0.48613-0.48613 0.48613s-0.48613-0.21767-0.48613-0.48613 0.21766-0.48613 0.48613-0.48613 0.48613 0.21767 0.48613 0.48613" style="fill:#fff"/>
  <path d="m-34.537 113.92c0 0.26846-0.21766 0.48613-0.48613 0.48613s-0.48578-0.21767-0.48578-0.48613 0.21731-0.48613 0.48578-0.48613 0.48613 0.21767 0.48613 0.48613" style="fill:#fff"/>
  <path d="m-30.163 113.92c0 0.26846-0.21766 0.48613-0.48578 0.48613-0.26882 0-0.48613-0.21767-0.48613-0.48613s0.21731-0.48613 0.48613-0.48613c0.26811 0 0.48578 0.21767 0.48578 0.48613" style="fill:#fff"/>
  <path d="m-25.789 113.92c0 0.26846-0.21766 0.48613-0.48578 0.48613-0.26882 0-0.48613-0.21767-0.48613-0.48613s0.21731-0.48613 0.48613-0.48613c0.26811 0 0.48578 0.21767 0.48578 0.48613" style="fill:#fff"/>
  <path d="m-38.912 117.81c0 0.26846-0.21766 0.48613-0.48613 0.48613s-0.48613-0.21767-0.48613-0.48613 0.21766-0.48577 0.48613-0.48577 0.48613 0.21731 0.48613 0.48577" style="fill:#fff"/>
  <path d="m-34.537 117.81c0 0.26846-0.21766 0.48613-0.48613 0.48613s-0.48578-0.21767-0.48578-0.48613 0.21731-0.48577 0.48578-0.48577 0.48613 0.21731 0.48613 0.48577" style="fill:#fff"/>
  <path d="m-30.163 117.81c0 0.26846-0.21766 0.48613-0.48578 0.48613-0.26882 0-0.48613-0.21767-0.48613-0.48613s0.21731-0.48577 0.48613-0.48577c0.26811 0 0.48578 0.21731 0.48578 0.48577" style="fill:#fff"/>
  <path d="m-25.789 117.81c0 0.26846-0.21766 0.48613-0.48578 0.48613-0.26882 0-0.48613-0.21767-0.48613-0.48613s0.21731-0.48577 0.48613-0.48577c0.26811 0 0.48578 0.21731 0.48578 0.48577" style="fill:#fff"/>
  <path d="m147.51 73.314c0 1.0717-0.86854 1.9403-1.9403 1.9403s-1.9403-0.86854-1.9403-1.9403 0.86854-1.9403 1.9403-1.9403 1.9403 0.86854 1.9403 1.9403" style="fill:#fff"/>
  <path d="m216.3 150.22c0 1.0717-0.86854 1.9403-1.9403 1.9403s-1.9403-0.86854-1.9403-1.9403 0.86854-1.9403 1.9403-1.9403 1.9403 0.86854 1.9403 1.9403" style="fill:#fff"/>
  <path d="m82.6 118.47c0 1.0717-0.86854 1.9403-1.9403 1.9403s-1.9403-0.86854-1.9403-1.9403 0.86854-1.9403 1.9403-1.9403 1.9403 0.86854 1.9403 1.9403" style="fill:#fff"/>
  <path d="m55.789 173.15c0 1.0717-0.86854 1.9403-1.9403 1.9403s-1.9403-0.86854-1.9403-1.9403 0.86854-1.9403 1.9403-1.9403 1.9403 0.86854 1.9403 1.9403" style="fill:#fff"/>
  <path d="m-1.7135 203.49c0 1.0717-0.86854 1.9403-1.9403 1.9403-1.0717 0-1.9403-0.86854-1.9403-1.9403s0.86854-1.9403 1.9403-1.9403c1.0717 0 1.9403 0.86854 1.9403 1.9403" style="fill:#fff"/>
  <path d="m145.39 84.603c0 0.48719-0.39476 0.88194-0.88194 0.88194-0.48719 0-0.88195-0.39476-0.88195-0.88194s0.39476-0.88194 0.88195-0.88194c0.48718 0 0.88194 0.39476 0.88194 0.88194" style="fill:#fff"/>
  <path d="m169.03 45.444c0 0.48719-0.39476 0.88194-0.88194 0.88194-0.48719 0-0.88195-0.39476-0.88195-0.88194s0.39476-0.88194 0.88195-0.88194c0.48718 0 0.88194 0.39476 0.88194 0.88194" style="fill:#fff"/>
  <path d="m152.8 73.314c0 0.48719-0.39476 0.88194-0.88194 0.88194-0.48719 0-0.88195-0.39476-0.88195-0.88194s0.39476-0.88194 0.88195-0.88194c0.48718 0 0.88194 0.39476 0.88194 0.88194" style="fill:#fff"/>
  <path d="m210.66 153.75c0 0.48719-0.39476 0.88194-0.88194 0.88194-0.48719 0-0.88195-0.39475-0.88195-0.88194s0.39476-0.88194 0.88195-0.88194c0.48718 0 0.88194 0.39475 0.88194 0.88194" style="fill:#fff"/>
  <path d="m157.74 114.24c0 0.48719-0.39476 0.88194-0.88194 0.88194-0.48719 0-0.88195-0.39475-0.88195-0.88194s0.39476-0.88194 0.88195-0.88194c0.48718 0 0.88194 0.39475 0.88194 0.88194" style="fill:#fff"/>
  <path d="m81.542 112.12c0 0.48719-0.39476 0.88194-0.88194 0.88194-0.48719 0-0.88194-0.39475-0.88194-0.88194s0.39476-0.88194 0.88194-0.88194c0.48719 0 0.88194 0.39475 0.88194 0.88194" style="fill:#fff"/>
  <path d="m90.009 122c0 0.48719-0.39476 0.88194-0.88194 0.88194-0.48719 0-0.88194-0.39475-0.88194-0.88194s0.39476-0.88194 0.88194-0.88194c0.48719 0 0.88194 0.39475 0.88194 0.88194" style="fill:#fff"/>
  <path d="m21.217 150.22c0 0.48719-0.39476 0.88194-0.88194 0.88194-0.48719 0-0.88194-0.39475-0.88194-0.88194s0.39476-0.88194 0.88194-0.88194c0.48719 0 0.88194 0.39475 0.88194 0.88194" style="fill:#fff"/>
  <path d="m56.495 178.44c0 0.48719-0.39476 0.88194-0.88194 0.88194-0.48719 0-0.88194-0.39475-0.88194-0.88194s0.39476-0.88194 0.88194-0.88194c0.48719 0 0.88194 0.39475 0.88194 0.88194" style="fill:#fff"/>
  <path d="m86.128 184.44c0 0.48719-0.39476 0.88194-0.88194 0.88194-0.48719 0-0.88194-0.39475-0.88194-0.88194s0.39476-0.88194 0.88194-0.88194c0.48719 0 0.88194 0.39475 0.88194 0.88194" style="fill:#fff"/>
  <path d="m91.067 180.56c0 0.48719-0.39476 0.88194-0.88194 0.88194-0.48719 0-0.88194-0.39475-0.88194-0.88194s0.39476-0.88194 0.88194-0.88194c0.48719 0 0.88194 0.39475 0.88194 0.88194" style="fill:#fff"/>
  <path d="m60.728 200.31c0 0.48719-0.39476 0.88194-0.88194 0.88194-0.48719 0-0.88194-0.39475-0.88194-0.88194s0.39476-0.88194 0.88194-0.88194c0.48719 0 0.88194 0.39475 0.88194 0.88194" style="fill:#fff"/>
  <path d="m8.1643 137.52c0 0.48719-0.39476 0.88194-0.88194 0.88194s-0.88194-0.39475-0.88194-0.88194 0.39476-0.88194 0.88194-0.88194 0.88194 0.39475 0.88194 0.88194" style="fill:#fff"/>
  <path d="m82.953 179.15c0 0.48719-0.39476 0.88194-0.88194 0.88194-0.48719 0-0.88194-0.39475-0.88194-0.88194s0.39476-0.88194 0.88194-0.88194c0.48719 0 0.88194 0.39475 0.88194 0.88194" style="fill:#fff"/>
  <path d="m18.042 155.86c0 0.48719-0.39476 0.88194-0.88194 0.88194-0.48719 0-0.88194-0.39475-0.88194-0.88194s0.39476-0.88194 0.88194-0.88194c0.48719 0 0.88194 0.39475 0.88194 0.88194" style="fill:#fff"/>
  <path d="m22.275 95.186c0 0.48719-0.39476 0.88194-0.88194 0.88194-0.48719 0-0.88194-0.39476-0.88194-0.88194s0.39476-0.88194 0.88194-0.88194c0.48719 0 0.88194 0.39476 0.88194 0.88194" style="fill:#fff"/>
  <path d="m-1.0079 193.61c0 0.48719-0.39476 0.88194-0.88194 0.88194s-0.88194-0.39475-0.88194-0.88194 0.39476-0.88194 0.88194-0.88194 0.88194 0.39475 0.88194 0.88194" style="fill:#fff"/>
  <path d="m-29.23 180.21c0 0.48719-0.39476 0.88194-0.88194 0.88194-0.48719 0-0.88194-0.39475-0.88194-0.88194s0.39476-0.88194 0.88194-0.88194c0.48719 0 0.88194 0.39475 0.88194 0.88194" style="fill:#fff"/>
  <path d="m-4.8885 189.02c0 0.48719-0.39476 0.88194-0.88194 0.88194s-0.88194-0.39475-0.88194-0.88194 0.39476-0.88194 0.88194-0.88194 0.88194 0.39475 0.88194 0.88194" style="fill:#fff"/>
 </g>
</svg>
