<svg width="264.58mm" height="176.39mm" version="1.1" viewBox="0 0 264.58 176.39" xmlns="http://www.w3.org/2000/svg">
 <defs>
  <linearGradient id="linearGradient2267" x2="1" gradientTransform="matrix(0 -524.03 -524.03 0 375 438.05)" gradientUnits="userSpaceOnUse">
   <stop style="stop-color:#ffb300" offset="0"/>
   <stop style="stop-color:#ffb300" offset=".0073165"/>
   <stop style="stop-color:#ff4081" offset="1"/>
  </linearGradient>
  <clipPath id="clipPath2277">
   <path d="m0 0h750v500h-750z"/>
  </clipPath>
  <clipPath id="clipPath2285">
   <path d="m38.763 500h587.53v-169.6h-587.53z"/>
  </clipPath>
  <clipPath id="clipPath2289">
   <path d="m38.763 500c1.439-3.652 2.901-7.296 4.403-10.923 8.11-19.583 17.574-39.391 33.527-53.347 20.363-17.813 48.544-23.665 75.549-25.293 41.537-2.502 84.395 3.264 123.99-9.528 42.127-13.61 75.358-46.644 116.34-63.386 16.651-6.802 36.146-10.648 52.244-2.627 11.84 5.9 19.85 17.201 27.844 27.741 24.846 32.759 54.151 62.132 86.853 87.052 21.903 16.692 46.011 32.215 66.772 50.311z"/>
  </clipPath>
  <mask id="mask2301" x="0" y="0" width="1" height="1" maskUnits="userSpaceOnUse">
   <path d="m-32768 32767h65535v-65535h-65535z" style="fill:url(#linearGradient2299)"/>
  </mask>
  <linearGradient id="linearGradient2299" x2="1" gradientTransform="matrix(221.31 -592.97 -592.97 -221.31 183.24 900.01)" gradientUnits="userSpaceOnUse">
   <stop style="stop-color:#fff" offset="0"/>
   <stop style="stop-color:#fff;stop-opacity:0" offset="1"/>
  </linearGradient>
  <linearGradient id="linearGradient2317" x2="1" gradientTransform="matrix(221.31 -592.97 -592.97 -221.31 183.24 900.01)" gradientUnits="userSpaceOnUse">
   <stop style="stop-color:#fff" offset="0"/>
   <stop style="stop-color:#fff" offset="1"/>
  </linearGradient>
  <linearGradient id="linearGradient2355" x2="1" gradientTransform="matrix(-94.604 -503.43 -503.43 94.604 346.36 482.11)" gradientUnits="userSpaceOnUse">
   <stop style="stop-color:#ffb300" offset="0"/>
   <stop style="stop-color:#ffb300" offset=".0073165"/>
   <stop style="stop-color:#ff4081" offset="1"/>
  </linearGradient>
  <linearGradient id="linearGradient2377" x2="1" gradientTransform="matrix(87.045 -162.42 -162.42 -87.045 140.95 171.94)" gradientUnits="userSpaceOnUse">
   <stop style="stop-color:#e040fb" offset="0"/>
   <stop style="stop-color:#e040fb" offset=".0025422"/>
   <stop style="stop-color:#4a148c" offset="1"/>
  </linearGradient>
  <linearGradient id="linearGradient2399" x2="1" gradientTransform="matrix(100.05 -100.05 -100.05 -100.05 145.6 116.98)" gradientUnits="userSpaceOnUse">
   <stop style="stop-color:#e040fb" offset="0"/>
   <stop style="stop-color:#e040fb" offset=".0025422"/>
   <stop style="stop-color:#4a148c" offset="1"/>
  </linearGradient>
  <clipPath id="clipPath2409">
   <path d="m0 0h750v500h-750z"/>
  </clipPath>
  <clipPath id="clipPath2417">
   <path d="m151.72 94.128h21.513v-21.513h-21.513z"/>
  </clipPath>
  <clipPath id="clipPath2421">
   <path d="m162.47 72.615c-5.94 0-10.756 4.816-10.756 10.757s4.816 10.756 10.756 10.756c5.941 0 10.757-4.815 10.757-10.756s-4.816-10.757-10.757-10.757"/>
  </clipPath>
  <mask id="mask2433" x="0" y="0" width="1" height="1" maskUnits="userSpaceOnUse">
   <path d="m-32768 32767h65535v-65535h-65535z" style="fill:url(#linearGradient2431)"/>
  </mask>
  <linearGradient id="linearGradient2431" x2="1" gradientTransform="matrix(42.401 -47.112 -47.112 -42.401 140.68 107.58)" gradientUnits="userSpaceOnUse">
   <stop style="stop-color:#fff" offset="0"/>
   <stop style="stop-color:#fff;stop-opacity:0" offset="1"/>
  </linearGradient>
  <linearGradient id="linearGradient2449" x2="1" gradientTransform="matrix(42.401 -47.112 -47.112 -42.401 140.68 107.58)" gradientUnits="userSpaceOnUse">
   <stop style="stop-color:#fff" offset="0"/>
   <stop style="stop-color:#fff" offset="1"/>
  </linearGradient>
  <linearGradient id="linearGradient2487" x2="1" gradientTransform="matrix(0 -295.08 -295.08 0 461.5 296.14)" gradientUnits="userSpaceOnUse">
   <stop style="stop-color:#e040fb" offset="0"/>
   <stop style="stop-color:#e040fb" offset=".0025422"/>
   <stop style="stop-color:#4a148c" offset="1"/>
  </linearGradient>
  <linearGradient id="linearGradient3057" x2="1" gradientTransform="matrix(0 -274.5 -274.5 0 461.51 325.42)" gradientUnits="userSpaceOnUse">
   <stop style="stop-color:#e040fb" offset="0"/>
   <stop style="stop-color:#e040fb" offset=".0025422"/>
   <stop style="stop-color:#4a148c" offset="1"/>
  </linearGradient>
  <linearGradient id="linearGradient3613" x2="1" gradientTransform="matrix(90.381 49.836 49.836 -90.381 14.936 375.76)" gradientUnits="userSpaceOnUse">
   <stop style="stop-color:#0d47a1" offset="0"/>
   <stop style="stop-color:#18ffff" offset="1"/>
  </linearGradient>
  <linearGradient id="linearGradient3635" x2="1" gradientTransform="matrix(70.689 -93.615 -93.615 -70.689 306.42 185.58)" gradientUnits="userSpaceOnUse">
   <stop style="stop-color:#b2ff59" offset="0"/>
   <stop style="stop-color:#b2ff59" offset=".0054007"/>
   <stop style="stop-color:#388e3c" offset="1"/>
  </linearGradient>
  <linearGradient id="linearGradient3833" x2="1" gradientTransform="matrix(-49.881 -17.837 -17.837 49.881 200.42 231)" gradientUnits="userSpaceOnUse">
   <stop style="stop-color:#0d47a1" offset="0"/>
   <stop style="stop-color:#18ffff" offset="1"/>
  </linearGradient>
  <linearGradient id="linearGradient3853" x2="1" gradientTransform="matrix(-53.774 -11.228 -11.228 53.774 195.29 222.53)" gradientUnits="userSpaceOnUse">
   <stop style="stop-color:#0d47a1" offset="0"/>
   <stop style="stop-color:#18ffff" offset="1"/>
  </linearGradient>
  <clipPath id="clipPath3863">
   <path d="m0 0h750v500h-750z"/>
  </clipPath>
  <clipPath id="clipPath3871">
   <path d="m154.5 235.36h11.724v-11.725h-11.724z"/>
  </clipPath>
  <clipPath id="clipPath3875">
   <path d="m166.19 230.12c0.348-3.219-1.978-6.111-5.197-6.459-3.219-0.349-6.11 1.978-6.458 5.196-0.349 3.219 1.978 6.111 5.196 6.459 3.219 0.348 6.11-1.978 6.459-5.196"/>
  </clipPath>
  <mask id="mask3887" x="0" y="0" width="1" height="1" maskUnits="userSpaceOnUse">
   <path d="m-32768 32767h65535v-65535h-65535z" style="fill:url(#linearGradient3885)"/>
  </mask>
  <linearGradient id="linearGradient3885" x2="1" gradientTransform="matrix(-10.543 9.9815 9.9815 10.543 166.93 223.28)" gradientUnits="userSpaceOnUse">
   <stop style="stop-color:#fff" offset="0"/>
   <stop style="stop-color:#fff;stop-opacity:0" offset="1"/>
  </linearGradient>
  <linearGradient id="linearGradient3903" x2="1" gradientTransform="matrix(-10.543 9.9815 9.9815 10.543 166.93 223.28)" gradientUnits="userSpaceOnUse">
   <stop style="stop-color:#fff" offset="0"/>
   <stop style="stop-color:#fff" offset="1"/>
  </linearGradient>
  <linearGradient id="linearGradient3939" x2="1" gradientTransform="matrix(-103.2 -36.902 -36.902 103.2 651.93 357.83)" gradientUnits="userSpaceOnUse">
   <stop style="stop-color:#0d47a1" offset="0"/>
   <stop style="stop-color:#18ffff" offset="1"/>
  </linearGradient>
  <linearGradient id="linearGradient3959" x2="1" gradientTransform="matrix(-111.25 -23.228 -23.228 111.25 641.31 340.32)" gradientUnits="userSpaceOnUse">
   <stop style="stop-color:#0d47a1" offset="0"/>
   <stop style="stop-color:#18ffff" offset="1"/>
  </linearGradient>
  <clipPath id="clipPath3969">
   <path d="m0 0h750v500h-750z"/>
  </clipPath>
  <clipPath id="clipPath3977">
   <path d="m556.93 366.85h24.256v-24.255h-24.256z"/>
  </clipPath>
  <clipPath id="clipPath3981">
   <path d="m581.12 356.03c0.721-6.659-4.093-12.641-10.751-13.362-6.659-0.721-12.641 4.093-13.362 10.751-0.721 6.659 4.093 12.641 10.751 13.362 6.659 0.721 12.641-4.093 13.362-10.751"/>
  </clipPath>
  <mask id="mask3993" x="0" y="0" width="1" height="1" maskUnits="userSpaceOnUse">
   <path d="m-32768 32767h65535v-65535h-65535z" style="fill:url(#linearGradient3991)"/>
  </mask>
  <linearGradient id="linearGradient3991" x2="1" gradientTransform="matrix(-21.811 20.65 20.65 21.811 582.64 341.87)" gradientUnits="userSpaceOnUse">
   <stop style="stop-color:#fff" offset="0"/>
   <stop style="stop-color:#fff;stop-opacity:0" offset="1"/>
  </linearGradient>
  <linearGradient id="linearGradient4009" x2="1" gradientTransform="matrix(-21.811 20.65 20.65 21.811 582.64 341.87)" gradientUnits="userSpaceOnUse">
   <stop style="stop-color:#fff" offset="0"/>
   <stop style="stop-color:#fff" offset="1"/>
  </linearGradient>
  <linearGradient id="linearGradient4047" x2="1" gradientTransform="matrix(4.9656 -66.418 -66.418 -4.9656 249.98 99.884)" gradientUnits="userSpaceOnUse">
   <stop style="stop-color:#b2ff59" offset="0"/>
   <stop style="stop-color:#b2ff59" offset=".0054007"/>
   <stop style="stop-color:#388e3c" offset="1"/>
  </linearGradient>
  <clipPath id="clipPath4057">
   <path d="m0 0h750v500h-750z"/>
  </clipPath>
  <clipPath id="clipPath4065">
   <path d="m216.32 302.21h90.243v-43.624h-90.243z"/>
  </clipPath>
  <clipPath id="clipPath4069">
   <path d="m221.84 296.36c-4.476-3.277-6.94-9.612-4.634-14.658 3.277-7.174 12.927-7.903 20.799-8.369 14.012-0.831 27.87-4.179 40.714-9.836 4.674-2.058 9.353-4.457 14.444-4.861s10.818 1.796 12.734 6.53c2.678 6.616-3.134 13.498-8.894 17.712-16.859 12.333-55.28 28.043-75.163 13.482"/>
  </clipPath>
  <mask id="mask4081" x="0" y="0" width="1" height="1" maskUnits="userSpaceOnUse">
   <path d="m-32768 32767h65535v-65535h-65535z" style="fill:url(#linearGradient4079)"/>
  </mask>
  <linearGradient id="linearGradient4079" x2="1" gradientTransform="matrix(90.3 -.30702 -.30702 -90.3 216.31 280.57)" gradientUnits="userSpaceOnUse">
   <stop style="stop-color:#fff" offset="0"/>
   <stop style="stop-color:#fff;stop-opacity:0" offset="1"/>
  </linearGradient>
  <linearGradient id="linearGradient4097" x2="1" gradientTransform="matrix(90.3 -.30702 -.30702 -90.3 216.31 280.57)" gradientUnits="userSpaceOnUse">
   <stop style="stop-color:#fff" offset="0"/>
   <stop style="stop-color:#fff" offset="1"/>
  </linearGradient>
  <linearGradient id="linearGradient4135" x2="1" gradientTransform="matrix(95.449 -87.002 -87.002 -95.449 285.17 187.68)" gradientUnits="userSpaceOnUse">
   <stop style="stop-color:#b2ff59" offset="0"/>
   <stop style="stop-color:#b2ff59" offset=".0054007"/>
   <stop style="stop-color:#388e3c" offset="1"/>
  </linearGradient>
  <clipPath id="clipPath4145">
   <path d="m0 0h750v500h-750z"/>
  </clipPath>
  <clipPath id="clipPath4153">
   <path d="m338.08 172.5h47.686v-23.46h-47.686z"/>
  </clipPath>
  <clipPath id="clipPath4157">
   <path d="m363.79 153.96c4.947 0.184 10.092-1.959 14.718-0.198 14.014 5.334 5.282 17.308-5.647 18.57-5.126 0.591-10.304-0.435-15.265-1.853-4.494-1.285-8.976-2.938-12.67-5.802-3.622-2.807-10.22-11.265-4.779-14.89 4.493-2.992 18.536 3.983 23.643 4.173"/>
  </clipPath>
  <mask id="mask4169" x="0" y="0" width="1" height="1" maskUnits="userSpaceOnUse">
   <path d="m-32768 32767h65535v-65535h-65535z" style="fill:url(#linearGradient4167)"/>
  </mask>
  <linearGradient id="linearGradient4167" x2="1" gradientTransform="matrix(17.738 -56.594 -56.594 -17.738 348.81 199.51)" gradientUnits="userSpaceOnUse">
   <stop style="stop-color:#fff" offset="0"/>
   <stop style="stop-color:#fff;stop-opacity:0" offset="1"/>
  </linearGradient>
  <linearGradient id="linearGradient4185" x2="1" gradientTransform="matrix(17.738 -56.594 -56.594 -17.738 348.81 199.51)" gradientUnits="userSpaceOnUse">
   <stop style="stop-color:#fff" offset="0"/>
   <stop style="stop-color:#fff" offset="1"/>
  </linearGradient>
  <clipPath id="clipPath4211">
   <path d="m322 153h12v-12h-12z"/>
  </clipPath>
  <clipPath id="clipPath4215">
   <path d="m334 147c0-3.313-2.687-6-6-6s-6 2.687-6 6 2.687 6 6 6 6-2.687 6-6"/>
  </clipPath>
  <mask id="mask4227" x="0" y="0" width="1" height="1" maskUnits="userSpaceOnUse">
   <path d="m-32768 32767h65535v-65535h-65535z" style="fill:url(#linearGradient4225)"/>
  </mask>
  <linearGradient id="linearGradient4225" x2="1" gradientTransform="matrix(30.972 -18.02 -18.02 -30.972 304.68 160.57)" gradientUnits="userSpaceOnUse">
   <stop style="stop-color:#fff" offset="0"/>
   <stop style="stop-color:#fff;stop-opacity:0" offset="1"/>
  </linearGradient>
  <linearGradient id="linearGradient4243" x2="1" gradientTransform="matrix(30.972 -18.02 -18.02 -30.972 304.68 160.57)" gradientUnits="userSpaceOnUse">
   <stop style="stop-color:#fff" offset="0"/>
   <stop style="stop-color:#fff" offset="1"/>
  </linearGradient>
  <linearGradient id="linearGradient4281" x2="1" gradientTransform="matrix(-5.0681 -73.206 -73.206 5.0681 254.7 109.23)" gradientUnits="userSpaceOnUse">
   <stop style="stop-color:#b2ff59" offset="0"/>
   <stop style="stop-color:#b2ff59" offset=".0054007"/>
   <stop style="stop-color:#388e3c" offset="1"/>
  </linearGradient>
  <linearGradient id="linearGradient4425" x2="1" gradientTransform="matrix(228.06 44.768 44.768 -228.06 .49176 370.65)" gradientUnits="userSpaceOnUse">
   <stop style="stop-color:#0d47a1" offset="0"/>
   <stop style="stop-color:#18ffff" offset="1"/>
  </linearGradient>
  <clipPath id="clipPath4435">
   <path d="m0 0h750v500h-750z"/>
  </clipPath>
  <clipPath id="clipPath4443">
   <path d="m123.44 360.45h25.89v-26.024h-25.89z"/>
  </clipPath>
  <clipPath id="clipPath4447">
   <path d="m147.56 336.97c-2.332-2.589-6.374-3.109-9.665-1.963s-5.924 3.673-8.056 6.43c-2.751 3.556-8.332 11.317-5.717 16.051 0.958 1.735 2.868 2.902 4.848 2.964 1.386 0.044 2.733-0.412 4.033-0.892 3.793-1.4 7.562-3.101 10.555-5.82 3.961-3.597 8.284-12.017 4.002-16.77"/>
  </clipPath>
  <mask id="mask4459" x="0" y="0" width="1" height="1" maskUnits="userSpaceOnUse">
   <path d="m-32768 32767h65535v-65535h-65535z" style="fill:url(#linearGradient4457)"/>
  </mask>
  <linearGradient id="linearGradient4457" x2="1" gradientTransform="matrix(-134.43 0 0 134.43 180.54 347.44)" gradientUnits="userSpaceOnUse">
   <stop style="stop-color:#fff" offset="0"/>
   <stop style="stop-color:#fff;stop-opacity:0" offset="1"/>
  </linearGradient>
  <linearGradient id="linearGradient4475" x2="1" gradientTransform="matrix(-134.43 0 0 134.43 180.54 347.44)" gradientUnits="userSpaceOnUse">
   <stop style="stop-color:#fff" offset="0"/>
   <stop style="stop-color:#fff" offset="1"/>
  </linearGradient>
  <linearGradient id="linearGradient4513" x2="1" gradientTransform="matrix(50.681 -99.672 -99.672 -50.681 435.31 314.97)" gradientUnits="userSpaceOnUse">
   <stop style="stop-color:#e040fb" offset="0"/>
   <stop style="stop-color:#e040fb" offset=".0025422"/>
   <stop style="stop-color:#4a148c" offset="1"/>
  </linearGradient>
  <linearGradient id="linearGradient4535" x2="1" gradientTransform="matrix(45.613 -134.02 -134.02 -45.613 429.7 345.94)" gradientUnits="userSpaceOnUse">
   <stop style="stop-color:#e040fb" offset="0"/>
   <stop style="stop-color:#e040fb" offset=".0025422"/>
   <stop style="stop-color:#4a148c" offset="1"/>
  </linearGradient>
  <clipPath id="clipPath4733">
   <path d="m0 0h750v500h-750z"/>
  </clipPath>
  <clipPath id="clipPath4741">
   <path d="m-82 392h126.76v-124h-126.76z"/>
  </clipPath>
 </defs>
 <g transform="translate(41.577 -36.448)">
  <g transform="matrix(.35278 0 0 -.35278 -41.577 212.84)" style="opacity:0">
   <g style="">
    <g style="">
     <g style="">
      <path d="m0 0h750v500h-750z" style="fill:url(#linearGradient2267)"/>
     </g>
    </g>
   </g>
  </g>
  <g transform="matrix(.35278 0 0 -.35278 -41.577 212.84)">
   <g clip-path="url(#clipPath2277)">
    <g clip-path="url(#clipPath2285)">
     <g clip-path="url(#clipPath2289)">
      <g mask="url(#mask2301)">
       <path d="m38.763 500c1.439-3.652 2.901-7.296 4.403-10.923 8.11-19.583 17.574-39.391 33.527-53.347 20.363-17.813 48.544-23.665 75.549-25.293 41.537-2.502 84.395 3.264 123.99-9.528 42.127-13.61 75.358-46.644 116.34-63.386 16.651-6.802 36.146-10.648 52.244-2.627 11.84 5.9 19.85 17.201 27.844 27.741 24.846 32.759 54.151 62.132 86.853 87.052 21.903 16.692 46.011 32.215 66.772 50.311z" style="fill:url(#linearGradient2317)"/>
      </g>
     </g>
    </g>
   </g>
  </g>
  <g transform="matrix(.35278 0 0 -.35278 -41.577 212.84)">
   <path d="m0 0h589.72c13.719 55.893 14.272 115.49-10.968 166.48-27.045 54.645-83.431 93.635-144.11 99.646-69.2 6.856-135.16-26.005-201.04-48.252-22.645-7.647-46.658-14.168-70.217-10.131-37.667 6.453-65.911 38.488-83.629 72.349-17.717 33.861-28.238 71.355-48.429 103.8-8.223 13.213-18.847 25.823-31.333 35.101z" style="fill:url(#linearGradient2355)"/>
  </g>
  <g transform="matrix(.35278 0 0 -.35278 -41.577 212.84)">
   <path d="m131 51.5c0-19.98 7.864-38.121 20.667-51.5h107.67c12.803 13.379 20.667 31.52 20.667 51.5 0 41.145-33.355 74.5-74.5 74.5s-74.5-33.355-74.5-74.5" style="fill:url(#linearGradient2377)"/>
  </g>
  <g transform="matrix(.35278 0 0 -.35278 -41.577 212.84)">
   <path d="m138.17 65.842c0-32.344 26.22-58.564 58.565-58.564 32.344 0 58.563 26.22 58.563 58.564s-26.219 58.564-58.563 58.564c-32.345 0-58.565-26.22-58.565-58.564" style="fill:url(#linearGradient2399)"/>
  </g>
  <g transform="matrix(.35278 0 0 -.35278 -41.577 212.84)">
   <g clip-path="url(#clipPath2409)">
    <g clip-path="url(#clipPath2417)">
     <g clip-path="url(#clipPath2421)">
      <g mask="url(#mask2433)">
       <path d="m162.47 72.615c-5.94 0-10.756 4.816-10.756 10.757s4.816 10.756 10.756 10.756c5.941 0 10.757-4.815 10.757-10.756s-4.816-10.757-10.757-10.757" style="fill:url(#linearGradient2449)"/>
      </g>
     </g>
    </g>
   </g>
  </g>
  <g transform="matrix(.35278 0 0 -.35278 -41.577 212.84)">
   <path d="m465.41 202.78c-76.842 5.151-127.25 89.933-199.04 112.4-23.108 7.232-50.127 6.311-69.397-8.348-26.95-20.501-30.103-62.17-14.861-92.407 15.243-30.238 44.404-50.913 74.151-67.09 22.847-12.425 46.721-22.96 71.299-31.461 30.971-10.712 64.542-19.059 87.744-42.201 29.415-29.34 23.385-52.31 7.236-73.669h327.45c-214.19 180.36-224.64 191.28-284.59 202.78z" style="fill:url(#linearGradient2487)"/>
  </g>
  <g transform="matrix(.35278 0 0 -.35278 -41.577 212.84)">
   <path d="m182.12 214.42c15.243-30.238 44.404-50.913 74.151-67.09 22.847-12.425 46.721-22.96 71.299-31.461 30.971-10.712 64.542-19.059 87.744-42.201 29.415-29.34 23.385-52.31 7.236-73.669h327.45v95.085c-11.536-8.449-24.47-14.426-38.6-14.726-27.705-0.587-42.182 24.837-66.604 37.93-17.959 9.629-40.121 9.749-59.283 2.818-19.163-6.931-35.485-20.383-48.322-36.209-11.756-14.495-22.403-32.221-40.348-37.346-17.184-4.906-35.755 3.989-48.11 16.899-13.75 14.364-16.85 29.077-24.507 45.828-7.282 15.928-26.438 26.424-42.234 31.685-19.549 6.513-40.378 7.816-60.711 11.153-22.403 3.677-44.391 9.878-65.415 18.448-23.554 9.602-46.488 22.677-62.244 42.648-10.768 13.65-19.607 37.037-18.459 57.708-4.494-18.798-1.84-40.05 6.956-57.5" style="fill:url(#linearGradient3057)"/>
  </g>
  <g transform="matrix(.35278 0 0 -.35278 -41.577 212.84)">
   <path d="m0 395.39c11.714-8.287 24.66-15.199 33.309-26.547 11.83-15.522 13.986-37.347 27.737-51.196 7.248-7.3 17.035-11.575 26.969-14.248 14.064-3.783 29.346-4.59 42.984 0.519 13.639 5.11 25.269 16.865 27.658 31.231 6.267 37.671-41.899 42.64-67.221 46.761-17.147 2.791-31.069 9.5-41.807 19.369-14.236 13.086-22.876 31.726-26.017 54.161-1.324 9.468-1.837 19.244-5.524 28.027-3.316 7.898-10.013 14.99-18.088 16.313z" style="fill:url(#linearGradient3613)"/>
  </g>
  <g transform="matrix(.35278 0 0 -.35278 -41.577 212.84)">
   <path d="m362.34 183.22c-32.134-7.18-60.347-30.128-73.919-60.127-11.478-25.366 3.858-50.788 32.714-40.122 10.729 3.965 22.923 12.42 34.596 12.549 6.092 0.067 11.788-1.846 17.477-3.758 7.621-2.562 15.231-5.123 23.776-2.928 20.463 5.257 27.312 42.403 22.3 59.632-2.153 7.402-6.109 14.186-10.85 20.265-3.726 4.778-8.041 9.233-13.36 12.135-5.49 2.995-11.663 4.139-17.947 4.139-4.954 0-9.976-0.711-14.787-1.785" style="fill:url(#linearGradient3635)"/>
  </g>
  <g transform="matrix(.35278 0 0 -.35278 -41.577 212.84)">
   <path d="m170.09 245.88c-13.678-1.481-23.566-13.771-22.086-27.45 1.482-13.679 13.771-23.567 27.449-22.086 13.679 1.481 23.568 13.77 22.087 27.45-1.382 12.768-12.18 22.233-24.737 22.232-0.896 0-1.802-0.048-2.713-0.146" style="fill:url(#linearGradient3833)"/>
  </g>
  <g transform="matrix(.35278 0 0 -.35278 -41.577 212.84)">
   <path d="m190.37 230.09c1.481-13.679-8.407-25.968-22.086-27.45-5.513-0.596-10.798 0.656-15.244 3.256 5.123-6.631 13.47-10.523 22.411-9.555 13.679 1.481 23.568 13.77 22.087 27.45-0.884 8.165-5.621 14.978-12.205 18.83 2.714-3.513 4.525-7.795 5.037-12.531" style="fill:url(#linearGradient3853)"/>
  </g>
  <g transform="matrix(.35278 0 0 -.35278 -41.577 212.84)">
   <g clip-path="url(#clipPath3863)">
    <g clip-path="url(#clipPath3871)">
     <g clip-path="url(#clipPath3875)">
      <g mask="url(#mask3887)">
       <path d="m166.19 230.12c0.348-3.219-1.978-6.111-5.197-6.459-3.219-0.349-6.11 1.978-6.458 5.196-0.349 3.219 1.978 6.111 5.196 6.459 3.219 0.348 6.11-1.978 6.459-5.196" style="fill:url(#linearGradient3903)"/>
      </g>
     </g>
    </g>
   </g>
  </g>
  <g transform="matrix(.35278 0 0 -.35278 -41.577 212.84)">
   <path d="m589.18 388.62c-28.299-3.063-48.756-28.487-45.692-56.787 3.063-28.299 28.488-48.756 56.787-45.692 28.3 3.063 48.757 28.488 45.692 56.787-2.86 26.415-25.198 45.997-51.175 45.996-1.854 0-3.728-0.1-5.612-0.304" style="fill:url(#linearGradient3939)"/>
  </g>
  <g transform="matrix(.35278 0 0 -.35278 -41.577 212.84)">
   <path d="m631.14 355.96c3.062-28.299-17.395-53.724-45.693-56.787-11.406-1.235-22.341 1.355-31.537 6.735 10.599-13.719 27.866-21.771 46.365-19.767 28.3 3.063 48.757 28.488 45.692 56.787-1.829 16.894-11.629 30.989-25.25 38.958 5.615-7.269 9.361-16.126 10.423-25.926" style="fill:url(#linearGradient3959)"/>
  </g>
  <g transform="matrix(.35278 0 0 -.35278 -41.577 212.84)">
   <g clip-path="url(#clipPath3969)">
    <g clip-path="url(#clipPath3977)">
     <g clip-path="url(#clipPath3981)">
      <g mask="url(#mask3993)">
       <path d="m581.12 356.03c0.721-6.659-4.093-12.641-10.751-13.362-6.659-0.721-12.641 4.093-13.362 10.751-0.721 6.659 4.093 12.641 10.751 13.362 6.659 0.721 12.641-4.093 13.362-10.751" style="fill:url(#linearGradient4009)"/>
      </g>
     </g>
    </g>
   </g>
  </g>
  <g transform="matrix(.35278 0 0 -.35278 -41.577 212.84)">
   <path d="m213.95 92.386c-15.18-25.056 47.145-43.722 62.675-44.653 3.521-0.211 7.226-0.178 10.334 1.491 3.583 1.924 5.869 6.035 5.613 10.094-0.32 5.043-4.17 9.231-8.51 11.819-7.168 4.275-15.006 6.513-21.908 11.4-6.407 4.538-11.798 11.878-18.917 15.289-3.364 1.613-7.712 2.565-12.097 2.565-6.821 0-13.735-2.303-17.19-8.005" style="fill:url(#linearGradient4047)"/>
  </g>
  <g transform="matrix(.35278 0 0 -.35278 -41.577 212.84)">
   <g clip-path="url(#clipPath4057)">
    <g clip-path="url(#clipPath4065)">
     <g clip-path="url(#clipPath4069)">
      <g mask="url(#mask4081)">
       <path d="m221.84 296.36c-4.476-3.277-6.94-9.612-4.634-14.658 3.277-7.174 12.927-7.903 20.799-8.369 14.012-0.831 27.87-4.179 40.714-9.836 4.674-2.058 9.353-4.457 14.444-4.861s10.818 1.796 12.734 6.53c2.678 6.616-3.134 13.498-8.894 17.712-16.859 12.333-55.28 28.043-75.163 13.482" style="fill:url(#linearGradient4097)"/>
      </g>
     </g>
    </g>
   </g>
  </g>
  <g transform="matrix(.35278 0 0 -.35278 -41.577 212.84)">
   <path d="m401.19 173.04c10.939-15.757 10.249-39.995-4.598-52.139-3.292-2.693-7.235-4.758-11.471-5.143-9.742-0.887-17.973 6.906-27.378 9.595-10.368 2.965-22.361-1.008-28.909-9.577-6.273-8.21-7.796-19.888-15.853-26.358-5.443-4.37-13.077-5.385-19.853-3.624 6.368-5.444 16.015-7.259 28.011-2.825 10.729 3.965 22.923 12.42 34.596 12.549 6.092 0.067 11.788-1.846 17.477-3.758 7.62-2.562 15.23-5.123 23.776-2.928 20.463 5.257 27.312 42.403 22.3 59.632-2.153 7.402-6.109 14.186-10.85 20.265-3.726 4.778-8.041 9.233-13.36 12.135-0.508 0.277-1.024 0.529-1.544 0.773 2.853-2.555 5.441-5.407 7.656-8.597" style="fill:url(#linearGradient4135)"/>
  </g>
  <g transform="matrix(.35278 0 0 -.35278 -41.577 212.84)">
   <g clip-path="url(#clipPath4145)">
    <g clip-path="url(#clipPath4153)">
     <g clip-path="url(#clipPath4157)">
      <g mask="url(#mask4169)">
       <path d="m363.79 153.96c4.947 0.184 10.092-1.959 14.718-0.198 14.014 5.334 5.282 17.308-5.647 18.57-5.126 0.591-10.304-0.435-15.265-1.853-4.494-1.285-8.976-2.938-12.67-5.802-3.622-2.807-10.22-11.265-4.779-14.89 4.493-2.992 18.536 3.983 23.643 4.173" style="fill:url(#linearGradient4185)"/>
      </g>
     </g>
    </g>
    <g clip-path="url(#clipPath4211)">
     <g clip-path="url(#clipPath4215)">
      <g mask="url(#mask4227)">
       <path d="m334 147c0-3.313-2.687-6-6-6s-6 2.687-6 6 2.687 6 6 6 6-2.687 6-6" style="fill:url(#linearGradient4243)"/>
      </g>
     </g>
    </g>
   </g>
  </g>
  <g transform="matrix(.35278 0 0 -.35278 -41.577 212.84)">
   <path d="m276.63 47.733c3.521-0.211 7.226-0.178 10.334 1.491 3.583 1.924 5.869 6.035 5.613 10.094-0.32 5.043-4.17 9.231-8.51 11.819-4.569 2.725-9.409 4.624-14.107 6.908 0.198-0.745 0.505-1.467 0.892-2.097 1.377-2.233 3.477-4.077 4.237-6.589 1.247-4.125-1.812-8.619-5.794-10.271-3.981-1.653-8.527-1.096-12.705-0.03-13.135 3.348-24.645 11.309-34.772 20.319-3.78 3.363-7.63 7.325-8.242 12.332-13.664-24.714 47.663-43.054 63.054-43.976" style="fill:url(#linearGradient4281)"/>
  </g>
  <g transform="matrix(.35278 0 0 -.35278 -41.577 212.84)">
   <path d="m0 395.39c11.714-8.287 24.66-15.199 33.309-26.547 11.83-15.522 13.986-37.347 27.737-51.196 7.248-7.3 17.034-11.575 26.969-14.248 14.064-3.783 29.346-4.59 42.984 0.519 12.182 4.563 22.739 14.435 26.564 26.727-1.904-2.902-4.332-5.503-6.98-7.752-20.282-17.233-53.611-13.959-72.581 4.708-19.88 19.564-24.953 51.31-46.701 68.775-9.243 7.424-20.789 11.61-31.301 17.109z" style="fill:url(#linearGradient4425)"/>
  </g>
  <g transform="matrix(.35278 0 0 -.35278 -41.577 212.84)">
   <g clip-path="url(#clipPath4435)">
    <g clip-path="url(#clipPath4443)">
     <g clip-path="url(#clipPath4447)">
      <g mask="url(#mask4459)">
       <path d="m147.56 336.97c-2.332-2.589-6.374-3.109-9.665-1.963s-5.924 3.673-8.056 6.43c-2.751 3.556-8.332 11.317-5.717 16.051 0.958 1.735 2.868 2.902 4.848 2.964 1.386 0.044 2.733-0.412 4.033-0.892 3.793-1.4 7.562-3.101 10.555-5.82 3.961-3.597 8.284-12.017 4.002-16.77" style="fill:url(#linearGradient4475)"/>
      </g>
     </g>
    </g>
   </g>
  </g>
  <g transform="matrix(.35278 0 0 -.35278 -41.577 212.84)">
   <path d="m490.05 292.57c-9.99-6.113-17.48-16.15-28.326-20.571-14.311-5.834-30.481-0.491-44.984 4.854-11.903 4.385-22.729 11.15-34.437 15.977-6.257 2.58-21.705 8.837-16.289-3.782 7.626-17.772 25.367-33.055 41.305-43.277 10.005-6.415 20.884-11.408 32.465-14.399 30.738-7.939 66.481 0.153 86.925 24.442 12.18 14.472 11.721 35.813-8.933 41.459-2.637 0.721-5.348 1.059-8.066 1.059-6.863 0-13.77-2.158-19.66-5.762" style="fill:url(#linearGradient4513)"/>
  </g>
  <g transform="matrix(.35278 0 0 -.35278 -41.577 212.84)">
   <path d="m497.58 296.16c17.588-5.589 17.108-22.619 5.862-33.708-19.066-18.799-51.12-23.877-78.132-16.201-10.176 2.892-19.655 7.373-28.303 12.969-10.715 6.933-22.264 16.392-29.754 27.156 8.183-16.629 24.934-30.898 40.067-40.604 10.005-6.415 20.884-11.408 32.465-14.399 30.738-7.939 66.481 0.153 86.925 24.442 12.18 14.472 11.721 35.813-8.933 41.459-2.63 0.719-5.333 1.056-8.042 1.056-4.111 0-8.238-0.776-12.155-2.17" style="fill:url(#linearGradient4535)"/>
  </g>
  <g transform="matrix(.35278 0 0 -.35278 -41.577 212.84)">
   <g clip-path="url(#clipPath4733)">
    <g clip-path="url(#clipPath4741)" style="opacity:.5">
     <g transform="translate(7.5557 390.62)">
      <path d="m0 0c0-0.761-0.617-1.377-1.378-1.377s-1.378 0.616-1.378 1.377 0.617 1.378 1.378 1.378 1.378-0.617 1.378-1.378" style="fill:#fff"/>
     </g>
     <g transform="translate(19.956 390.62)">
      <path d="m0 0c0-0.761-0.617-1.377-1.378-1.377s-1.377 0.616-1.377 1.377 0.616 1.378 1.377 1.378 1.378-0.617 1.378-1.378" style="fill:#fff"/>
     </g>
     <g transform="translate(32.356 390.62)">
      <path d="m0 0c0-0.761-0.617-1.377-1.377-1.377-0.762 0-1.378 0.616-1.378 1.377s0.616 1.378 1.378 1.378c0.76 0 1.377-0.617 1.377-1.378" style="fill:#fff"/>
     </g>
     <g transform="translate(44.755 390.62)">
      <path d="m0 0c0-0.761-0.617-1.377-1.377-1.377-0.762 0-1.378 0.616-1.378 1.377s0.616 1.378 1.378 1.378c0.76 0 1.377-0.617 1.377-1.378" style="fill:#fff"/>
     </g>
     <g transform="translate(7.5557 379.6)">
      <path d="m0 0c0-0.761-0.617-1.378-1.378-1.378s-1.378 0.617-1.378 1.378 0.617 1.378 1.378 1.378 1.378-0.617 1.378-1.378" style="fill:#fff"/>
     </g>
     <g transform="translate(19.956 379.6)">
      <path d="m0 0c0-0.761-0.617-1.378-1.378-1.378s-1.377 0.617-1.377 1.378 0.616 1.378 1.377 1.378 1.378-0.617 1.378-1.378" style="fill:#fff"/>
     </g>
     <g transform="translate(32.356 379.6)">
      <path d="m0 0c0-0.761-0.617-1.378-1.377-1.378-0.762 0-1.378 0.617-1.378 1.378s0.616 1.378 1.378 1.378c0.76 0 1.377-0.617 1.377-1.378" style="fill:#fff"/>
     </g>
     <g transform="translate(44.755 379.6)">
      <path d="m0 0c0-0.761-0.617-1.378-1.377-1.378-0.762 0-1.378 0.617-1.378 1.378s0.616 1.378 1.378 1.378c0.76 0 1.377-0.617 1.377-1.378" style="fill:#fff"/>
     </g>
     <g transform="translate(7.5557 368.58)">
      <path d="m0 0c0-0.761-0.617-1.377-1.378-1.377s-1.378 0.616-1.378 1.377 0.617 1.378 1.378 1.378 1.378-0.617 1.378-1.378" style="fill:#fff"/>
     </g>
     <g transform="translate(19.956 368.58)">
      <path d="m0 0c0-0.761-0.617-1.377-1.378-1.377s-1.377 0.616-1.377 1.377 0.616 1.378 1.377 1.378 1.378-0.617 1.378-1.378" style="fill:#fff"/>
     </g>
     <g transform="translate(32.356 368.58)">
      <path d="m0 0c0-0.761-0.617-1.377-1.377-1.377-0.762 0-1.378 0.616-1.378 1.377s0.616 1.378 1.378 1.378c0.76 0 1.377-0.617 1.377-1.378" style="fill:#fff"/>
     </g>
     <g transform="translate(44.755 368.58)">
      <path d="m0 0c0-0.761-0.617-1.377-1.377-1.377-0.762 0-1.378 0.616-1.378 1.377s0.616 1.378 1.378 1.378c0.76 0 1.377-0.617 1.377-1.378" style="fill:#fff"/>
     </g>
     <g transform="translate(7.5557 357.56)">
      <path d="m0 0c0-0.761-0.617-1.378-1.378-1.378s-1.378 0.617-1.378 1.378 0.617 1.377 1.378 1.377 1.378-0.616 1.378-1.377" style="fill:#fff"/>
     </g>
     <g transform="translate(19.956 357.56)">
      <path d="m0 0c0-0.761-0.617-1.378-1.378-1.378s-1.377 0.617-1.377 1.378 0.616 1.377 1.377 1.377 1.378-0.616 1.378-1.377" style="fill:#fff"/>
     </g>
     <g transform="translate(32.356 357.56)">
      <path d="m0 0c0-0.761-0.617-1.378-1.377-1.378-0.762 0-1.378 0.617-1.378 1.378s0.616 1.377 1.378 1.377c0.76 0 1.377-0.616 1.377-1.377" style="fill:#fff"/>
     </g>
     <g transform="translate(44.755 357.56)">
      <path d="m0 0c0-0.761-0.617-1.378-1.377-1.378-0.762 0-1.378 0.617-1.378 1.378s0.616 1.377 1.378 1.377c0.76 0 1.377-0.616 1.377-1.377" style="fill:#fff"/>
     </g>
     <g transform="translate(7.5557 346.53)">
      <path d="m0 0c0-0.761-0.617-1.377-1.378-1.377s-1.378 0.616-1.378 1.377 0.617 1.378 1.378 1.378 1.378-0.617 1.378-1.378" style="fill:#fff"/>
     </g>
     <g transform="translate(19.956 346.53)">
      <path d="m0 0c0-0.761-0.617-1.377-1.378-1.377s-1.377 0.616-1.377 1.377 0.616 1.378 1.377 1.378 1.378-0.617 1.378-1.378" style="fill:#fff"/>
     </g>
     <g transform="translate(32.356 346.53)">
      <path d="m0 0c0-0.761-0.617-1.377-1.377-1.377-0.762 0-1.378 0.616-1.378 1.377s0.616 1.378 1.378 1.378c0.76 0 1.377-0.617 1.377-1.378" style="fill:#fff"/>
     </g>
     <g transform="translate(44.755 346.53)">
      <path d="m0 0c0-0.761-0.617-1.377-1.377-1.377-0.762 0-1.378 0.616-1.378 1.377s0.616 1.378 1.378 1.378c0.76 0 1.377-0.617 1.377-1.378" style="fill:#fff"/>
     </g>
     <g transform="translate(7.5557 335.51)">
      <path d="m0 0c0-0.761-0.617-1.378-1.378-1.378s-1.378 0.617-1.378 1.378 0.617 1.377 1.378 1.377 1.378-0.616 1.378-1.377" style="fill:#fff"/>
     </g>
     <g transform="translate(19.956 335.51)">
      <path d="m0 0c0-0.761-0.617-1.378-1.378-1.378s-1.377 0.617-1.377 1.378 0.616 1.377 1.377 1.377 1.378-0.616 1.378-1.377" style="fill:#fff"/>
     </g>
     <g transform="translate(32.356 335.51)">
      <path d="m0 0c0-0.761-0.617-1.378-1.377-1.378-0.762 0-1.378 0.617-1.378 1.378s0.616 1.377 1.378 1.377c0.76 0 1.377-0.616 1.377-1.377" style="fill:#fff"/>
     </g>
     <g transform="translate(44.755 335.51)">
      <path d="m0 0c0-0.761-0.617-1.378-1.377-1.378-0.762 0-1.378 0.617-1.378 1.378s0.616 1.377 1.378 1.377c0.76 0 1.377-0.616 1.377-1.377" style="fill:#fff"/>
     </g>
     <g transform="translate(7.5557 324.49)">
      <path d="m0 0c0-0.761-0.617-1.377-1.378-1.377s-1.378 0.616-1.378 1.377 0.617 1.378 1.378 1.378 1.378-0.617 1.378-1.378" style="fill:#fff"/>
     </g>
     <g transform="translate(19.956 324.49)">
      <path d="m0 0c0-0.761-0.617-1.377-1.378-1.377s-1.377 0.616-1.377 1.377 0.616 1.378 1.377 1.378 1.378-0.617 1.378-1.378" style="fill:#fff"/>
     </g>
     <g transform="translate(32.356 324.49)">
      <path d="m0 0c0-0.761-0.617-1.377-1.377-1.377-0.762 0-1.378 0.616-1.378 1.377s0.616 1.378 1.378 1.378c0.76 0 1.377-0.617 1.377-1.378" style="fill:#fff"/>
     </g>
     <g transform="translate(44.755 324.49)">
      <path d="m0 0c0-0.761-0.617-1.377-1.377-1.377-0.762 0-1.378 0.616-1.378 1.377s0.616 1.378 1.378 1.378c0.76 0 1.377-0.617 1.377-1.378" style="fill:#fff"/>
     </g>
     <g transform="translate(7.5557 313.47)">
      <path d="m0 0c0-0.761-0.617-1.378-1.378-1.378s-1.378 0.617-1.378 1.378 0.617 1.377 1.378 1.377 1.378-0.616 1.378-1.377" style="fill:#fff"/>
     </g>
     <g transform="translate(19.956 313.47)">
      <path d="m0 0c0-0.761-0.617-1.378-1.378-1.378s-1.377 0.617-1.377 1.378 0.616 1.377 1.377 1.377 1.378-0.616 1.378-1.377" style="fill:#fff"/>
     </g>
     <g transform="translate(32.356 313.47)">
      <path d="m0 0c0-0.761-0.617-1.378-1.377-1.378-0.762 0-1.378 0.617-1.378 1.378s0.616 1.377 1.378 1.377c0.76 0 1.377-0.616 1.377-1.377" style="fill:#fff"/>
     </g>
     <g transform="translate(44.755 313.47)">
      <path d="m0 0c0-0.761-0.617-1.378-1.377-1.378-0.762 0-1.378 0.617-1.378 1.378s0.616 1.377 1.378 1.377c0.76 0 1.377-0.616 1.377-1.377" style="fill:#fff"/>
     </g>
     <g transform="translate(7.5557 302.44)">
      <path d="m0 0c0-0.761-0.617-1.377-1.378-1.377s-1.378 0.616-1.378 1.377 0.617 1.378 1.378 1.378 1.378-0.617 1.378-1.378" style="fill:#fff"/>
     </g>
     <g transform="translate(19.956 302.44)">
      <path d="m0 0c0-0.761-0.617-1.377-1.378-1.377s-1.377 0.616-1.377 1.377 0.616 1.378 1.377 1.378 1.378-0.617 1.378-1.378" style="fill:#fff"/>
     </g>
     <g transform="translate(32.356 302.44)">
      <path d="m0 0c0-0.761-0.617-1.377-1.377-1.377-0.762 0-1.378 0.616-1.378 1.377s0.616 1.378 1.378 1.378c0.76 0 1.377-0.617 1.377-1.378" style="fill:#fff"/>
     </g>
     <g transform="translate(44.755 302.44)">
      <path d="m0 0c0-0.761-0.617-1.377-1.377-1.377-0.762 0-1.378 0.616-1.378 1.377s0.616 1.378 1.378 1.378c0.76 0 1.377-0.617 1.377-1.378" style="fill:#fff"/>
     </g>
     <g transform="translate(7.5557 291.42)">
      <path d="m0 0c0-0.761-0.617-1.378-1.378-1.378s-1.378 0.617-1.378 1.378 0.617 1.377 1.378 1.377 1.378-0.616 1.378-1.377" style="fill:#fff"/>
     </g>
     <g transform="translate(19.956 291.42)">
      <path d="m0 0c0-0.761-0.617-1.378-1.378-1.378s-1.377 0.617-1.377 1.378 0.616 1.377 1.377 1.377 1.378-0.616 1.378-1.377" style="fill:#fff"/>
     </g>
     <g transform="translate(32.356 291.42)">
      <path d="m0 0c0-0.761-0.617-1.378-1.377-1.378-0.762 0-1.378 0.617-1.378 1.378s0.616 1.377 1.378 1.377c0.76 0 1.377-0.616 1.377-1.377" style="fill:#fff"/>
     </g>
     <g transform="translate(44.755 291.42)">
      <path d="m0 0c0-0.761-0.617-1.378-1.377-1.378-0.762 0-1.378 0.617-1.378 1.378s0.616 1.377 1.378 1.377c0.76 0 1.377-0.616 1.377-1.377" style="fill:#fff"/>
     </g>
     <g transform="translate(7.5557 280.4)">
      <path d="m0 0c0-0.761-0.617-1.378-1.378-1.378s-1.378 0.617-1.378 1.378 0.617 1.378 1.378 1.378 1.378-0.617 1.378-1.378" style="fill:#fff"/>
     </g>
     <g transform="translate(19.956 280.4)">
      <path d="m0 0c0-0.761-0.617-1.378-1.378-1.378s-1.377 0.617-1.377 1.378 0.616 1.378 1.377 1.378 1.378-0.617 1.378-1.378" style="fill:#fff"/>
     </g>
     <g transform="translate(32.356 280.4)">
      <path d="m0 0c0-0.761-0.617-1.378-1.377-1.378-0.762 0-1.378 0.617-1.378 1.378s0.616 1.378 1.378 1.378c0.76 0 1.377-0.617 1.377-1.378" style="fill:#fff"/>
     </g>
     <g transform="translate(44.755 280.4)">
      <path d="m0 0c0-0.761-0.617-1.378-1.377-1.378-0.762 0-1.378 0.617-1.378 1.378s0.616 1.378 1.378 1.378c0.76 0 1.377-0.617 1.377-1.378" style="fill:#fff"/>
     </g>
     <g transform="translate(7.5557 269.38)">
      <path d="m0 0c0-0.761-0.617-1.378-1.378-1.378s-1.378 0.617-1.378 1.378 0.617 1.377 1.378 1.377 1.378-0.616 1.378-1.377" style="fill:#fff"/>
     </g>
     <g transform="translate(19.956 269.38)">
      <path d="m0 0c0-0.761-0.617-1.378-1.378-1.378s-1.377 0.617-1.377 1.378 0.616 1.377 1.377 1.377 1.378-0.616 1.378-1.377" style="fill:#fff"/>
     </g>
     <g transform="translate(32.356 269.38)">
      <path d="m0 0c0-0.761-0.617-1.378-1.377-1.378-0.762 0-1.378 0.617-1.378 1.378s0.616 1.377 1.378 1.377c0.76 0 1.377-0.616 1.377-1.377" style="fill:#fff"/>
     </g>
     <g transform="translate(44.755 269.38)">
      <path d="m0 0c0-0.761-0.617-1.378-1.377-1.378-0.762 0-1.378 0.617-1.378 1.378s0.616 1.377 1.378 1.377c0.76 0 1.377-0.616 1.377-1.377" style="fill:#fff"/>
     </g>
    </g>
    <g transform="translate(536,395.5)">
     <path d="m0 0c0-3.038-2.462-5.5-5.5-5.5s-5.5 2.462-5.5 5.5 2.462 5.5 5.5 5.5 5.5-2.462 5.5-5.5" style="fill:#fff"/>
    </g>
    <g transform="translate(731,177.5)">
     <path d="m0 0c0-3.038-2.462-5.5-5.5-5.5s-5.5 2.462-5.5 5.5 2.462 5.5 5.5 5.5 5.5-2.462 5.5-5.5" style="fill:#fff"/>
    </g>
    <g transform="translate(352,267.5)">
     <path d="m0 0c0-3.038-2.462-5.5-5.5-5.5s-5.5 2.462-5.5 5.5 2.462 5.5 5.5 5.5 5.5-2.462 5.5-5.5" style="fill:#fff"/>
    </g>
    <g transform="translate(276,112.5)">
     <path d="m0 0c0-3.038-2.462-5.5-5.5-5.5s-5.5 2.462-5.5 5.5 2.462 5.5 5.5 5.5 5.5-2.462 5.5-5.5" style="fill:#fff"/>
    </g>
    <g transform="translate(113,26.5)">
     <path d="m0 0c0-3.038-2.462-5.5-5.5-5.5s-5.5 2.462-5.5 5.5 2.462 5.5 5.5 5.5 5.5-2.462 5.5-5.5" style="fill:#fff"/>
    </g>
    <g transform="translate(530,363.5)">
     <path d="m0 0c0-1.381-1.119-2.5-2.5-2.5s-2.5 1.119-2.5 2.5 1.119 2.5 2.5 2.5 2.5-1.119 2.5-2.5" style="fill:#fff"/>
    </g>
    <g transform="translate(597,474.5)">
     <path d="m0 0c0-1.381-1.119-2.5-2.5-2.5s-2.5 1.119-2.5 2.5 1.119 2.5 2.5 2.5 2.5-1.119 2.5-2.5" style="fill:#fff"/>
    </g>
    <g transform="translate(551,395.5)">
     <path d="m0 0c0-1.381-1.119-2.5-2.5-2.5s-2.5 1.119-2.5 2.5 1.119 2.5 2.5 2.5 2.5-1.119 2.5-2.5" style="fill:#fff"/>
    </g>
    <g transform="translate(715,167.5)">
     <path d="m0 0c0-1.381-1.119-2.5-2.5-2.5s-2.5 1.119-2.5 2.5 1.119 2.5 2.5 2.5 2.5-1.119 2.5-2.5" style="fill:#fff"/>
    </g>
    <g transform="translate(565,279.5)">
     <path d="m0 0c0-1.381-1.119-2.5-2.5-2.5s-2.5 1.119-2.5 2.5 1.119 2.5 2.5 2.5 2.5-1.119 2.5-2.5" style="fill:#fff"/>
    </g>
    <g transform="translate(349,285.5)">
     <path d="m0 0c0-1.381-1.119-2.5-2.5-2.5s-2.5 1.119-2.5 2.5 1.119 2.5 2.5 2.5 2.5-1.119 2.5-2.5" style="fill:#fff"/>
    </g>
    <g transform="translate(373,257.5)">
     <path d="m0 0c0-1.381-1.119-2.5-2.5-2.5s-2.5 1.119-2.5 2.5 1.119 2.5 2.5 2.5 2.5-1.119 2.5-2.5" style="fill:#fff"/>
    </g>
    <g transform="translate(178,177.5)">
     <path d="m0 0c0-1.381-1.119-2.5-2.5-2.5s-2.5 1.119-2.5 2.5 1.119 2.5 2.5 2.5 2.5-1.119 2.5-2.5" style="fill:#fff"/>
    </g>
    <g transform="translate(278,97.5)">
     <path d="m0 0c0-1.381-1.119-2.5-2.5-2.5s-2.5 1.119-2.5 2.5 1.119 2.5 2.5 2.5 2.5-1.119 2.5-2.5" style="fill:#fff"/>
    </g>
    <g transform="translate(362,80.5)">
     <path d="m0 0c0-1.381-1.119-2.5-2.5-2.5s-2.5 1.119-2.5 2.5 1.119 2.5 2.5 2.5 2.5-1.119 2.5-2.5" style="fill:#fff"/>
    </g>
    <g transform="translate(376,91.5)">
     <path d="m0 0c0-1.381-1.119-2.5-2.5-2.5s-2.5 1.119-2.5 2.5 1.119 2.5 2.5 2.5 2.5-1.119 2.5-2.5" style="fill:#fff"/>
    </g>
    <g transform="translate(290,35.5)">
     <path d="m0 0c0-1.381-1.119-2.5-2.5-2.5s-2.5 1.119-2.5 2.5 1.119 2.5 2.5 2.5 2.5-1.119 2.5-2.5" style="fill:#fff"/>
    </g>
    <g transform="translate(141,213.5)">
     <path d="m0 0c0-1.381-1.119-2.5-2.5-2.5s-2.5 1.119-2.5 2.5 1.119 2.5 2.5 2.5 2.5-1.119 2.5-2.5" style="fill:#fff"/>
    </g>
    <g transform="translate(353,95.5)">
     <path d="m0 0c0-1.381-1.119-2.5-2.5-2.5s-2.5 1.119-2.5 2.5 1.119 2.5 2.5 2.5 2.5-1.119 2.5-2.5" style="fill:#fff"/>
    </g>
    <g transform="translate(169,161.5)">
     <path d="m0 0c0-1.381-1.119-2.5-2.5-2.5s-2.5 1.119-2.5 2.5 1.119 2.5 2.5 2.5 2.5-1.119 2.5-2.5" style="fill:#fff"/>
    </g>
    <g transform="translate(181,333.5)">
     <path d="m0 0c0-1.381-1.119-2.5-2.5-2.5s-2.5 1.119-2.5 2.5 1.119 2.5 2.5 2.5 2.5-1.119 2.5-2.5" style="fill:#fff"/>
    </g>
    <g transform="translate(115,54.5)">
     <path d="m0 0c0-1.381-1.119-2.5-2.5-2.5s-2.5 1.119-2.5 2.5 1.119 2.5 2.5 2.5 2.5-1.119 2.5-2.5" style="fill:#fff"/>
    </g>
    <g transform="translate(35,92.5)">
     <path d="m0 0c0-1.381-1.119-2.5-2.5-2.5s-2.5 1.119-2.5 2.5 1.119 2.5 2.5 2.5 2.5-1.119 2.5-2.5" style="fill:#fff"/>
    </g>
    <g transform="translate(104,67.5)">
     <path d="m0 0c0-1.381-1.119-2.5-2.5-2.5s-2.5 1.119-2.5 2.5 1.119 2.5 2.5 2.5 2.5-1.119 2.5-2.5" style="fill:#fff"/>
    </g>
   </g>
  </g>
 </g>
</svg>
