<svg width="264.59mm" height="176.74mm" version="1.1" viewBox="0 0 264.59 176.74" xmlns="http://www.w3.org/2000/svg">
 <defs>
  <radialGradient id="radialGradient4723" cx="0" cy="0" r="1" gradientTransform="matrix(4.7677 13.608 -13.608 4.7677 304.9 -90.683)" gradientUnits="userSpaceOnUse">
   <stop style="stop-color:#d4145a" offset="0"/>
   <stop style="stop-color:#d4145a" offset=".012442"/>
   <stop style="stop-color:#ff4081" offset="1"/>
  </radialGradient>
  <linearGradient id="linearGradient4657" x2="1" gradientTransform="matrix(3.0792 8.1449 -8.1449 3.0792 311.14 -100.46)" gradientUnits="userSpaceOnUse">
   <stop style="stop-color:#fff" offset="0"/>
   <stop style="stop-color:#fff" offset="1"/>
  </linearGradient>
  <linearGradient id="linearGradient4607" x2="1" gradientTransform="matrix(7.231 19.082 -19.082 7.231 304.56 -95.173)" gradientUnits="userSpaceOnUse">
   <stop style="stop-color:#ffb300" offset="0"/>
   <stop style="stop-color:#ffb300" offset=".0073165"/>
   <stop style="stop-color:#ff4081" offset="1"/>
  </linearGradient>
  <radialGradient id="radialGradient4585" cx="0" cy="0" r="1" gradientTransform="matrix(8.5409 38.659 -38.659 8.5409 317.74 -56.533)" gradientUnits="userSpaceOnUse">
   <stop style="stop-color:#d4145a" offset="0"/>
   <stop style="stop-color:#d4145a" offset=".012442"/>
   <stop style="stop-color:#ff4081" offset="1"/>
  </radialGradient>
  <linearGradient id="linearGradient4535" x2="1" gradientTransform="matrix(16.091 47.28 -47.28 16.091 243.81 -122.56)" gradientUnits="userSpaceOnUse">
   <stop style="stop-color:#e040fb" offset="0"/>
   <stop style="stop-color:#e040fb" offset=".0025422"/>
   <stop style="stop-color:#4a148c" offset="1"/>
  </linearGradient>
  <linearGradient id="linearGradient4513" x2="1" gradientTransform="matrix(17.879 35.162 -35.162 17.879 245.79 -111.63)" gradientUnits="userSpaceOnUse">
   <stop style="stop-color:#e040fb" offset="0"/>
   <stop style="stop-color:#e040fb" offset=".0025422"/>
   <stop style="stop-color:#4a148c" offset="1"/>
  </linearGradient>
  <linearGradient id="linearGradient4389" x2="1" gradientTransform="matrix(27.415 32.778 -32.778 27.415 292.58 -71.953)" gradientUnits="userSpaceOnUse">
   <stop style="stop-color:#fff" offset="0"/>
   <stop style="stop-color:#fff" offset="1"/>
  </linearGradient>
  <linearGradient id="linearGradient4331" x2="1" gradientTransform="matrix(35.489 22.584 -22.584 35.489 256.67 -70.693)" gradientUnits="userSpaceOnUse">
   <stop style="stop-color:#fff" offset="0"/>
   <stop style="stop-color:#fff" offset="1"/>
  </linearGradient>
  <linearGradient id="linearGradient4281" x2="1" gradientTransform="matrix(-1.7879 25.825 -25.825 -1.7879 182.08 -39.053)" gradientUnits="userSpaceOnUse">
   <stop style="stop-color:#b2ff59" offset="0"/>
   <stop style="stop-color:#b2ff59" offset=".0054007"/>
   <stop style="stop-color:#388e3c" offset="1"/>
  </linearGradient>
  <linearGradient id="linearGradient4243" x2="1" gradientTransform="matrix(10.926 6.357 -6.357 10.926 199.71 -57.163)" gradientUnits="userSpaceOnUse">
   <stop style="stop-color:#fff" offset="0"/>
   <stop style="stop-color:#fff" offset="1"/>
  </linearGradient>
  <linearGradient id="linearGradient4185" x2="1" gradientTransform="matrix(6.2577 19.965 -19.965 6.2577 215.28 -70.903)" gradientUnits="userSpaceOnUse">
   <stop style="stop-color:#fff" offset="0"/>
   <stop style="stop-color:#fff" offset="1"/>
  </linearGradient>
  <linearGradient id="linearGradient4135" x2="1" gradientTransform="matrix(33.672 30.692 -30.692 33.672 192.83 -66.723)" gradientUnits="userSpaceOnUse">
   <stop style="stop-color:#b2ff59" offset="0"/>
   <stop style="stop-color:#b2ff59" offset=".0054007"/>
   <stop style="stop-color:#388e3c" offset="1"/>
  </linearGradient>
  <linearGradient id="linearGradient4047" x2="1" gradientTransform="matrix(1.7518 23.431 -23.431 1.7518 180.41 -35.753)" gradientUnits="userSpaceOnUse">
   <stop style="stop-color:#b2ff59" offset="0"/>
   <stop style="stop-color:#b2ff59" offset=".0054007"/>
   <stop style="stop-color:#388e3c" offset="1"/>
  </linearGradient>
  <linearGradient id="linearGradient4009" x2="1" gradientTransform="matrix(-7.6944 -7.2848 7.2848 -7.6944 297.77 -121.12)" gradientUnits="userSpaceOnUse">
   <stop style="stop-color:#fff" offset="0"/>
   <stop style="stop-color:#fff" offset="1"/>
  </linearGradient>
  <linearGradient id="linearGradient3959" x2="1" gradientTransform="matrix(-39.246 8.1944 -8.1944 -39.246 318.46 -120.57)" gradientUnits="userSpaceOnUse">
   <stop style="stop-color:#0d47a1" offset="0"/>
   <stop style="stop-color:#18ffff" offset="1"/>
  </linearGradient>
  <linearGradient id="linearGradient3939" x2="1" gradientTransform="matrix(-36.405 13.018 -13.018 -36.405 322.21 -126.75)" gradientUnits="userSpaceOnUse">
   <stop style="stop-color:#0d47a1" offset="0"/>
   <stop style="stop-color:#18ffff" offset="1"/>
  </linearGradient>
  <linearGradient id="linearGradient3797" x2="1" gradientTransform="matrix(-3.7192 -3.5213 3.5213 -3.7192 313.04 -19.663)" gradientUnits="userSpaceOnUse">
   <stop style="stop-color:#fff" offset="0"/>
   <stop style="stop-color:#fff" offset="1"/>
  </linearGradient>
  <linearGradient id="linearGradient3747" x2="1" gradientTransform="matrix(-18.97 3.9609 -3.9609 -18.97 323.04 -19.403)" gradientUnits="userSpaceOnUse">
   <stop style="stop-color:#0d47a1" offset="0"/>
   <stop style="stop-color:#18ffff" offset="1"/>
  </linearGradient>
  <linearGradient id="linearGradient3727" x2="1" gradientTransform="matrix(-17.597 6.2925 -6.2925 -17.597 324.85 -22.383)" gradientUnits="userSpaceOnUse">
   <stop style="stop-color:#0d47a1" offset="0"/>
   <stop style="stop-color:#18ffff" offset="1"/>
  </linearGradient>
  <radialGradient id="radialGradient3707" cx="0" cy="0" r="1" gradientTransform="matrix(-51.552 -72.112 72.112 -51.552 369.27 -21.453)" gradientUnits="userSpaceOnUse">
   <stop style="stop-color:#d4145a" offset="0"/>
   <stop style="stop-color:#d4145a" offset=".012442"/>
   <stop style="stop-color:#ff4081" offset="1"/>
  </radialGradient>
  <linearGradient id="linearGradient3657" x2="1" gradientTransform="matrix(21.455 48.869 -48.869 21.455 326.71 -69.293)" gradientUnits="userSpaceOnUse">
   <stop style="stop-color:#ffb300" offset="0"/>
   <stop style="stop-color:#ffb300" offset=".0073165"/>
   <stop style="stop-color:#ff4081" offset="1"/>
  </linearGradient>
  <linearGradient id="linearGradient3635" x2="1" gradientTransform="matrix(24.938 33.025 -33.025 24.938 200.32 -65.983)" gradientUnits="userSpaceOnUse">
   <stop style="stop-color:#b2ff59" offset="0"/>
   <stop style="stop-color:#b2ff59" offset=".0054007"/>
   <stop style="stop-color:#388e3c" offset="1"/>
  </linearGradient>
  <linearGradient id="linearGradient3101" x2="1" gradientTransform="matrix(86.217 21.455 -21.455 86.217 268.82 -110.46)" gradientUnits="userSpaceOnUse">
   <stop style="stop-color:#b2ff59" offset="0"/>
   <stop style="stop-color:#b2ff59" offset=".0054007"/>
   <stop style="stop-color:#388e3c" offset="1"/>
  </linearGradient>
  <linearGradient id="linearGradient3079" x2="1" gradientTransform="matrix(107.03 25.961 -25.961 107.03 267.11 -110.55)" gradientUnits="userSpaceOnUse">
   <stop style="stop-color:#b2ff59" offset="0"/>
   <stop style="stop-color:#b2ff59" offset=".0054007"/>
   <stop style="stop-color:#388e3c" offset="1"/>
  </linearGradient>
  <filter id="filter5130" style="color-interpolation-filters:sRGB">
   <feFlood flood-color="rgb(0,0,0)" flood-opacity=".49804" result="flood"/>
   <feComposite in="SourceGraphic" in2="flood" operator="in" result="composite1"/>
   <feGaussianBlur in="composite1" result="blur" stdDeviation="2.1"/>
   <feOffset dx="1.7" dy="1.7" result="offset"/>
   <feComposite in="SourceGraphic" in2="offset" result="composite2"/>
  </filter>
  <filter id="filter5142" style="color-interpolation-filters:sRGB">
   <feFlood flood-color="rgb(0,0,0)" flood-opacity=".49804" result="flood"/>
   <feComposite in="SourceGraphic" in2="flood" operator="in" result="composite1"/>
   <feGaussianBlur in="composite1" result="blur" stdDeviation="2.1"/>
   <feOffset dx="1.7" dy="1.7" result="offset"/>
   <feComposite in="SourceGraphic" in2="offset" result="composite2"/>
  </filter>
  <filter id="filter5154" style="color-interpolation-filters:sRGB">
   <feFlood flood-color="rgb(0,0,0)" flood-opacity=".49804" result="flood"/>
   <feComposite in="SourceGraphic" in2="flood" operator="in" result="composite1"/>
   <feGaussianBlur in="composite1" result="blur" stdDeviation="2.1"/>
   <feOffset dx="1.7" dy="1.7" result="offset"/>
   <feComposite in="SourceGraphic" in2="offset" result="composite2"/>
  </filter>
  <filter id="filter5166" style="color-interpolation-filters:sRGB">
   <feFlood flood-color="rgb(0,0,0)" flood-opacity=".49804" result="flood"/>
   <feComposite in="SourceGraphic" in2="flood" operator="in" result="composite1"/>
   <feGaussianBlur in="composite1" result="blur" stdDeviation="2.1"/>
   <feOffset dx="1.7" dy="1.7" result="offset"/>
   <feComposite in="SourceGraphic" in2="offset" result="composite2"/>
  </filter>
  <filter id="filter5178" style="color-interpolation-filters:sRGB">
   <feFlood flood-color="rgb(0,0,0)" flood-opacity=".49804" result="flood"/>
   <feComposite in="SourceGraphic" in2="flood" operator="in" result="composite1"/>
   <feGaussianBlur in="composite1" result="blur" stdDeviation="2.1"/>
   <feOffset dx="1.7" dy="1.7" result="offset"/>
   <feComposite in="SourceGraphic" in2="offset" result="composite2"/>
  </filter>
 </defs>
 <g transform="translate(-92.224 176.9)">
  <path d="m334.06-116.43c-0.62442 11.851-4.1487 21.801-10.056 29.824-7.8306 10.636-19.848 17.884-34.851 21.679-6.3313 1.6013-12.932 2.673-18.623 5.8279-5.6907 3.1549-10.397 9.0773-9.6806 15.388 0.87912 7.7495 9.2904 12.587 17.2 13.818 16.641 2.5908 35.376-0.0205 46.899-13.439 8.9729-10.448 12.307-25.108 22.29-34.595 2.8508-2.709 6.1362-4.887 9.5673-6.8774v-80.678c-22.006 2.0271-21.875 32.503-22.747 49.052" style="fill:url(#linearGradient3079);filter:url(#filter5178)"/>
  <path d="m339.44-151.85c5.8371-1.4337 12.254 0.0579 17.368 3.3203v-16.946c-8.9006 0.82196-14.179 6.2988-17.368 13.625m2.837 67.569c-6.865 4.4933-13.493 9.9385-17.011 17.351-2.2638 4.7703-3.1471 10.178-5.9775 14.636-2.6303 4.1416-6.7493 7.1321-11.086 9.428-8.3792 4.4362-17.941 6.6149-27.415 6.2463-4.3466-0.16934-8.7926-0.9077-12.519-3.1514-2.7545-1.6588-5.7542-4.9459-7.0559-8.3756-0.39123 1.4365-0.5341 2.9281-0.3623 4.4425 0.87912 7.7495 9.2904 12.587 17.2 13.818 16.64 2.5908 35.376-0.0205 46.899-13.439 8.9729-10.448 12.307-25.108 22.29-34.595 2.8508-2.709 6.1362-4.887 9.5673-6.8774v-8.7267c-4.6912 3.2801-9.7317 6.1024-14.531 9.2435" style="fill:url(#linearGradient3101)"/>
  <path d="m273.11-39.543c0 0.26846-0.21766 0.48577-0.48577 0.48577-0.26882 0-0.48613-0.21731-0.48613-0.48577s0.21731-0.48613 0.48613-0.48613c0.26811 0 0.48577 0.21767 0.48577 0.48613" style="fill:#fff"/>
  <path d="m277.49-39.543c0 0.26846-0.21766 0.48577-0.48613 0.48577-0.26846 0-0.48613-0.21731-0.48613-0.48577s0.21767-0.48613 0.48613-0.48613c0.26847 0 0.48613 0.21767 0.48613 0.48613" style="fill:#fff"/>
  <path d="m281.86-39.543c0 0.26846-0.21766 0.48577-0.48613 0.48577-0.26846 0-0.48613-0.21731-0.48613-0.48577s0.21767-0.48613 0.48613-0.48613c0.26847 0 0.48613 0.21767 0.48613 0.48613" style="fill:#fff"/>
  <path d="m286.23-39.543c0 0.26846-0.21766 0.48577-0.48613 0.48577-0.26846 0-0.48577-0.21731-0.48577-0.48577s0.21731-0.48613 0.48577-0.48613c0.26847 0 0.48613 0.21767 0.48613 0.48613" style="fill:#fff"/>
  <path d="m290.61-39.543c0 0.26846-0.21766 0.48577-0.48577 0.48577-0.26882 0-0.48613-0.21731-0.48613-0.48577s0.21731-0.48613 0.48613-0.48613c0.26811 0 0.48577 0.21767 0.48577 0.48613" style="fill:#fff"/>
  <path d="m294.98-39.543c0 0.26846-0.21766 0.48577-0.48577 0.48577-0.26882 0-0.48613-0.21731-0.48613-0.48577s0.21731-0.48613 0.48613-0.48613c0.26811 0 0.48577 0.21767 0.48577 0.48613" style="fill:#fff"/>
  <path d="m299.36-39.543c0 0.26846-0.21766 0.48577-0.48613 0.48577-0.26846 0-0.48613-0.21731-0.48613-0.48577s0.21767-0.48613 0.48613-0.48613c0.26847 0 0.48613 0.21767 0.48613 0.48613" style="fill:#fff"/>
  <path d="m303.73-39.543c0 0.26846-0.21766 0.48577-0.48613 0.48577-0.26846 0-0.48613-0.21731-0.48613-0.48577s0.21767-0.48613 0.48613-0.48613c0.26847 0 0.48613 0.21767 0.48613 0.48613" style="fill:#fff"/>
  <path d="m308.11-39.543c0 0.26846-0.21766 0.48577-0.48613 0.48577-0.26846 0-0.48577-0.21731-0.48577-0.48577s0.21731-0.48613 0.48577-0.48613c0.26847 0 0.48613 0.21767 0.48613 0.48613" style="fill:#fff"/>
  <path d="m312.48-39.543c0 0.26846-0.21766 0.48577-0.48577 0.48577-0.26882 0-0.48613-0.21731-0.48613-0.48577s0.21731-0.48613 0.48613-0.48613c0.26811 0 0.48577 0.21767 0.48577 0.48613" style="fill:#fff"/>
  <path d="m316.86-39.543c0 0.26846-0.21766 0.48577-0.48577 0.48577-0.26882 0-0.48613-0.21731-0.48613-0.48577s0.21731-0.48613 0.48613-0.48613c0.26811 0 0.48577 0.21767 0.48577 0.48613" style="fill:#fff"/>
  <path d="m273.11-35.653c0 0.26847-0.21766 0.48614-0.48577 0.48614-0.26882 0-0.48613-0.21767-0.48613-0.48614 0-0.26846 0.21731-0.48613 0.48613-0.48613 0.26811 0 0.48577 0.21767 0.48577 0.48613" style="fill:#fff"/>
  <path d="m277.49-35.653c0 0.26847-0.21766 0.48614-0.48613 0.48614-0.26846 0-0.48613-0.21767-0.48613-0.48614 0-0.26846 0.21767-0.48613 0.48613-0.48613 0.26847 0 0.48613 0.21767 0.48613 0.48613" style="fill:#fff"/>
  <path d="m281.86-35.653c0 0.26847-0.21766 0.48614-0.48613 0.48614-0.26846 0-0.48613-0.21767-0.48613-0.48614 0-0.26846 0.21767-0.48613 0.48613-0.48613 0.26847 0 0.48613 0.21767 0.48613 0.48613" style="fill:#fff"/>
  <path d="m286.23-35.653c0 0.26847-0.21766 0.48614-0.48613 0.48614-0.26846 0-0.48577-0.21767-0.48577-0.48614 0-0.26846 0.21731-0.48613 0.48577-0.48613 0.26847 0 0.48613 0.21767 0.48613 0.48613" style="fill:#fff"/>
  <path d="m290.61-35.653c0 0.26847-0.21766 0.48614-0.48577 0.48614-0.26882 0-0.48613-0.21767-0.48613-0.48614 0-0.26846 0.21731-0.48613 0.48613-0.48613 0.26811 0 0.48577 0.21767 0.48577 0.48613" style="fill:#fff"/>
  <path d="m294.98-35.653c0 0.26847-0.21766 0.48614-0.48577 0.48614-0.26882 0-0.48613-0.21767-0.48613-0.48614 0-0.26846 0.21731-0.48613 0.48613-0.48613 0.26811 0 0.48577 0.21767 0.48577 0.48613" style="fill:#fff"/>
  <path d="m299.36-35.653c0 0.26847-0.21766 0.48614-0.48613 0.48614-0.26846 0-0.48613-0.21767-0.48613-0.48614 0-0.26846 0.21767-0.48613 0.48613-0.48613 0.26847 0 0.48613 0.21767 0.48613 0.48613" style="fill:#fff"/>
  <path d="m303.73-35.653c0 0.26847-0.21766 0.48614-0.48613 0.48614-0.26846 0-0.48613-0.21767-0.48613-0.48614 0-0.26846 0.21767-0.48613 0.48613-0.48613 0.26847 0 0.48613 0.21767 0.48613 0.48613" style="fill:#fff"/>
  <path d="m308.11-35.653c0 0.26847-0.21766 0.48614-0.48613 0.48614-0.26846 0-0.48577-0.21767-0.48577-0.48614 0-0.26846 0.21731-0.48613 0.48577-0.48613 0.26847 0 0.48613 0.21767 0.48613 0.48613" style="fill:#fff"/>
  <path d="m312.48-35.653c0 0.26847-0.21766 0.48614-0.48577 0.48614-0.26882 0-0.48613-0.21767-0.48613-0.48614 0-0.26846 0.21731-0.48613 0.48613-0.48613 0.26811 0 0.48577 0.21767 0.48577 0.48613" style="fill:#fff"/>
  <path d="m316.86-35.653c0 0.26847-0.21766 0.48614-0.48577 0.48614-0.26882 0-0.48613-0.21767-0.48613-0.48614 0-0.26846 0.21731-0.48613 0.48613-0.48613 0.26811 0 0.48577 0.21767 0.48577 0.48613" style="fill:#fff"/>
  <path d="m273.11-31.763c0 0.26846-0.21766 0.48577-0.48577 0.48577-0.26882 0-0.48613-0.21731-0.48613-0.48577s0.21731-0.48613 0.48613-0.48613c0.26811 0 0.48577 0.21767 0.48577 0.48613" style="fill:#fff"/>
  <path d="m277.49-31.763c0 0.26846-0.21766 0.48577-0.48613 0.48577-0.26846 0-0.48613-0.21731-0.48613-0.48577s0.21767-0.48613 0.48613-0.48613c0.26847 0 0.48613 0.21767 0.48613 0.48613" style="fill:#fff"/>
  <path d="m281.86-31.763c0 0.26846-0.21766 0.48577-0.48613 0.48577-0.26846 0-0.48613-0.21731-0.48613-0.48577s0.21767-0.48613 0.48613-0.48613c0.26847 0 0.48613 0.21767 0.48613 0.48613" style="fill:#fff"/>
  <path d="m286.23-31.763c0 0.26846-0.21766 0.48577-0.48613 0.48577-0.26846 0-0.48577-0.21731-0.48577-0.48577s0.21731-0.48613 0.48577-0.48613c0.26847 0 0.48613 0.21767 0.48613 0.48613" style="fill:#fff"/>
  <path d="m290.61-31.763c0 0.26846-0.21766 0.48577-0.48577 0.48577-0.26882 0-0.48613-0.21731-0.48613-0.48577s0.21731-0.48613 0.48613-0.48613c0.26811 0 0.48577 0.21767 0.48577 0.48613" style="fill:#fff"/>
  <path d="m294.98-31.763c0 0.26846-0.21766 0.48577-0.48577 0.48577-0.26882 0-0.48613-0.21731-0.48613-0.48577s0.21731-0.48613 0.48613-0.48613c0.26811 0 0.48577 0.21767 0.48577 0.48613" style="fill:#fff"/>
  <path d="m299.36-31.763c0 0.26846-0.21766 0.48577-0.48613 0.48577-0.26846 0-0.48613-0.21731-0.48613-0.48577s0.21767-0.48613 0.48613-0.48613c0.26847 0 0.48613 0.21767 0.48613 0.48613" style="fill:#fff"/>
  <path d="m303.73-31.763c0 0.26846-0.21766 0.48577-0.48613 0.48577-0.26846 0-0.48613-0.21731-0.48613-0.48577s0.21767-0.48613 0.48613-0.48613c0.26847 0 0.48613 0.21767 0.48613 0.48613" style="fill:#fff"/>
  <path d="m308.11-31.763c0 0.26846-0.21766 0.48577-0.48613 0.48577-0.26846 0-0.48577-0.21731-0.48577-0.48577s0.21731-0.48613 0.48577-0.48613c0.26847 0 0.48613 0.21767 0.48613 0.48613" style="fill:#fff"/>
  <path d="m312.48-31.763c0 0.26846-0.21766 0.48577-0.48577 0.48577-0.26882 0-0.48613-0.21731-0.48613-0.48577s0.21731-0.48613 0.48613-0.48613c0.26811 0 0.48577 0.21767 0.48577 0.48613" style="fill:#fff"/>
  <path d="m316.86-31.763c0 0.26846-0.21766 0.48577-0.48577 0.48577-0.26882 0-0.48613-0.21731-0.48613-0.48577s0.21731-0.48613 0.48613-0.48613c0.26811 0 0.48577 0.21767 0.48577 0.48613" style="fill:#fff"/>
  <path d="m273.11-27.873c0 0.26846-0.21766 0.48613-0.48577 0.48613-0.26882 0-0.48613-0.21767-0.48613-0.48613s0.21731-0.48577 0.48613-0.48577c0.26811 0 0.48577 0.21731 0.48577 0.48577" style="fill:#fff"/>
  <path d="m277.49-27.873c0 0.26846-0.21766 0.48613-0.48613 0.48613-0.26846 0-0.48613-0.21767-0.48613-0.48613s0.21767-0.48577 0.48613-0.48577c0.26847 0 0.48613 0.21731 0.48613 0.48577" style="fill:#fff"/>
  <path d="m281.86-27.873c0 0.26846-0.21766 0.48613-0.48613 0.48613-0.26846 0-0.48613-0.21767-0.48613-0.48613s0.21767-0.48577 0.48613-0.48577c0.26847 0 0.48613 0.21731 0.48613 0.48577" style="fill:#fff"/>
  <path d="m286.23-27.873c0 0.26846-0.21766 0.48613-0.48613 0.48613-0.26846 0-0.48577-0.21767-0.48577-0.48613s0.21731-0.48577 0.48577-0.48577c0.26847 0 0.48613 0.21731 0.48613 0.48577" style="fill:#fff"/>
  <path d="m290.61-27.873c0 0.26846-0.21766 0.48613-0.48577 0.48613-0.26882 0-0.48613-0.21767-0.48613-0.48613s0.21731-0.48577 0.48613-0.48577c0.26811 0 0.48577 0.21731 0.48577 0.48577" style="fill:#fff"/>
  <path d="m294.98-27.873c0 0.26846-0.21766 0.48613-0.48577 0.48613-0.26882 0-0.48613-0.21767-0.48613-0.48613s0.21731-0.48577 0.48613-0.48577c0.26811 0 0.48577 0.21731 0.48577 0.48577" style="fill:#fff"/>
  <path d="m299.36-27.873c0 0.26846-0.21766 0.48613-0.48613 0.48613-0.26846 0-0.48613-0.21767-0.48613-0.48613s0.21767-0.48577 0.48613-0.48577c0.26847 0 0.48613 0.21731 0.48613 0.48577" style="fill:#fff"/>
  <path d="m303.73-27.873c0 0.26846-0.21766 0.48613-0.48613 0.48613-0.26846 0-0.48613-0.21767-0.48613-0.48613s0.21767-0.48577 0.48613-0.48577c0.26847 0 0.48613 0.21731 0.48613 0.48577" style="fill:#fff"/>
  <path d="m308.11-27.873c0 0.26846-0.21766 0.48613-0.48613 0.48613-0.26846 0-0.48577-0.21767-0.48577-0.48613s0.21731-0.48577 0.48577-0.48577c0.26847 0 0.48613 0.21731 0.48613 0.48577" style="fill:#fff"/>
  <path d="m312.48-27.873c0 0.26846-0.21766 0.48613-0.48577 0.48613-0.26882 0-0.48613-0.21767-0.48613-0.48613s0.21731-0.48577 0.48613-0.48577c0.26811 0 0.48577 0.21731 0.48577 0.48577" style="fill:#fff"/>
  <path d="m316.86-27.873c0 0.26846-0.21766 0.48613-0.48577 0.48613-0.26882 0-0.48613-0.21767-0.48613-0.48613s0.21731-0.48577 0.48613-0.48577c0.26811 0 0.48577 0.21731 0.48577 0.48577" style="fill:#fff"/>
  <path d="m273.11-23.983c0 0.26846-0.21766 0.48577-0.48577 0.48577-0.26882 0-0.48613-0.21731-0.48613-0.48577s0.21731-0.48613 0.48613-0.48613c0.26811 0 0.48577 0.21767 0.48577 0.48613" style="fill:#fff"/>
  <path d="m277.49-23.983c0 0.26846-0.21766 0.48577-0.48613 0.48577-0.26846 0-0.48613-0.21731-0.48613-0.48577s0.21767-0.48613 0.48613-0.48613c0.26847 0 0.48613 0.21767 0.48613 0.48613" style="fill:#fff"/>
  <path d="m281.86-23.983c0 0.26846-0.21766 0.48577-0.48613 0.48577-0.26846 0-0.48613-0.21731-0.48613-0.48577s0.21767-0.48613 0.48613-0.48613c0.26847 0 0.48613 0.21767 0.48613 0.48613" style="fill:#fff"/>
  <path d="m286.23-23.983c0 0.26846-0.21766 0.48577-0.48613 0.48577-0.26846 0-0.48577-0.21731-0.48577-0.48577s0.21731-0.48613 0.48577-0.48613c0.26847 0 0.48613 0.21767 0.48613 0.48613" style="fill:#fff"/>
  <path d="m290.61-23.983c0 0.26846-0.21766 0.48577-0.48577 0.48577-0.26882 0-0.48613-0.21731-0.48613-0.48577s0.21731-0.48613 0.48613-0.48613c0.26811 0 0.48577 0.21767 0.48577 0.48613" style="fill:#fff"/>
  <path d="m294.98-23.983c0 0.26846-0.21766 0.48577-0.48577 0.48577-0.26882 0-0.48613-0.21731-0.48613-0.48577s0.21731-0.48613 0.48613-0.48613c0.26811 0 0.48577 0.21767 0.48577 0.48613" style="fill:#fff"/>
  <path d="m299.36-23.983c0 0.26846-0.21766 0.48577-0.48613 0.48577-0.26846 0-0.48613-0.21731-0.48613-0.48577s0.21767-0.48613 0.48613-0.48613c0.26847 0 0.48613 0.21767 0.48613 0.48613" style="fill:#fff"/>
  <path d="m303.73-23.983c0 0.26846-0.21766 0.48577-0.48613 0.48577-0.26846 0-0.48613-0.21731-0.48613-0.48577s0.21767-0.48613 0.48613-0.48613c0.26847 0 0.48613 0.21767 0.48613 0.48613" style="fill:#fff"/>
  <path d="m308.11-23.983c0 0.26846-0.21766 0.48577-0.48613 0.48577-0.26846 0-0.48577-0.21731-0.48577-0.48577s0.21731-0.48613 0.48577-0.48613c0.26847 0 0.48613 0.21767 0.48613 0.48613" style="fill:#fff"/>
  <path d="m312.48-23.983c0 0.26846-0.21766 0.48577-0.48577 0.48577-0.26882 0-0.48613-0.21731-0.48613-0.48577s0.21731-0.48613 0.48613-0.48613c0.26811 0 0.48577 0.21767 0.48577 0.48613" style="fill:#fff"/>
  <path d="m316.86-23.983c0 0.26846-0.21766 0.48577-0.48577 0.48577-0.26882 0-0.48613-0.21731-0.48613-0.48577s0.21731-0.48613 0.48613-0.48613c0.26811 0 0.48577 0.21767 0.48577 0.48613" style="fill:#fff"/>
  <path d="m273.11-20.103c0 0.26846-0.21766 0.48613-0.48577 0.48613-0.26882 0-0.48613-0.21767-0.48613-0.48613s0.21731-0.48577 0.48613-0.48577c0.26811 0 0.48577 0.21731 0.48577 0.48577" style="fill:#fff"/>
  <path d="m277.49-20.103c0 0.26846-0.21766 0.48613-0.48613 0.48613-0.26846 0-0.48613-0.21767-0.48613-0.48613s0.21767-0.48577 0.48613-0.48577c0.26847 0 0.48613 0.21731 0.48613 0.48577" style="fill:#fff"/>
  <path d="m281.86-20.103c0 0.26846-0.21766 0.48613-0.48613 0.48613-0.26846 0-0.48613-0.21767-0.48613-0.48613s0.21767-0.48577 0.48613-0.48577c0.26847 0 0.48613 0.21731 0.48613 0.48577" style="fill:#fff"/>
  <path d="m286.23-20.103c0 0.26846-0.21766 0.48613-0.48613 0.48613-0.26846 0-0.48577-0.21767-0.48577-0.48613s0.21731-0.48577 0.48577-0.48577c0.26847 0 0.48613 0.21731 0.48613 0.48577" style="fill:#fff"/>
  <path d="m290.61-20.103c0 0.26846-0.21766 0.48613-0.48577 0.48613-0.26882 0-0.48613-0.21767-0.48613-0.48613s0.21731-0.48577 0.48613-0.48577c0.26811 0 0.48577 0.21731 0.48577 0.48577" style="fill:#fff"/>
  <path d="m294.98-20.103c0 0.26846-0.21766 0.48613-0.48577 0.48613-0.26882 0-0.48613-0.21767-0.48613-0.48613s0.21731-0.48577 0.48613-0.48577c0.26811 0 0.48577 0.21731 0.48577 0.48577" style="fill:#fff"/>
  <path d="m299.36-20.103c0 0.26846-0.21766 0.48613-0.48613 0.48613-0.26846 0-0.48613-0.21767-0.48613-0.48613s0.21767-0.48577 0.48613-0.48577c0.26847 0 0.48613 0.21731 0.48613 0.48577" style="fill:#fff"/>
  <path d="m303.73-20.103c0 0.26846-0.21766 0.48613-0.48613 0.48613-0.26846 0-0.48613-0.21767-0.48613-0.48613s0.21767-0.48577 0.48613-0.48577c0.26847 0 0.48613 0.21731 0.48613 0.48577" style="fill:#fff"/>
  <path d="m308.11-20.103c0 0.26846-0.21766 0.48613-0.48613 0.48613-0.26846 0-0.48577-0.21767-0.48577-0.48613s0.21731-0.48577 0.48577-0.48577c0.26847 0 0.48613 0.21731 0.48613 0.48577" style="fill:#fff"/>
  <path d="m312.48-20.103c0 0.26846-0.21766 0.48613-0.48577 0.48613-0.26882 0-0.48613-0.21767-0.48613-0.48613s0.21731-0.48577 0.48613-0.48577c0.26811 0 0.48577 0.21731 0.48577 0.48577" style="fill:#fff"/>
  <path d="m316.86-20.103c0 0.26846-0.21766 0.48613-0.48577 0.48613-0.26882 0-0.48613-0.21767-0.48613-0.48613s0.21731-0.48577 0.48613-0.48577c0.26811 0 0.48577 0.21731 0.48577 0.48577" style="fill:#fff"/>
  <path d="m273.11-16.213c0 0.26846-0.21766 0.48577-0.48577 0.48577-0.26882 0-0.48613-0.21731-0.48613-0.48577s0.21731-0.48613 0.48613-0.48613c0.26811 0 0.48577 0.21767 0.48577 0.48613" style="fill:#fff"/>
  <path d="m277.49-16.213c0 0.26846-0.21766 0.48577-0.48613 0.48577-0.26846 0-0.48613-0.21731-0.48613-0.48577s0.21767-0.48613 0.48613-0.48613c0.26847 0 0.48613 0.21767 0.48613 0.48613" style="fill:#fff"/>
  <path d="m281.86-16.213c0 0.26846-0.21766 0.48577-0.48613 0.48577-0.26846 0-0.48613-0.21731-0.48613-0.48577s0.21767-0.48613 0.48613-0.48613c0.26847 0 0.48613 0.21767 0.48613 0.48613" style="fill:#fff"/>
  <path d="m286.23-16.213c0 0.26846-0.21766 0.48577-0.48613 0.48577-0.26846 0-0.48577-0.21731-0.48577-0.48577s0.21731-0.48613 0.48577-0.48613c0.26847 0 0.48613 0.21767 0.48613 0.48613" style="fill:#fff"/>
  <path d="m290.61-16.213c0 0.26846-0.21766 0.48577-0.48577 0.48577-0.26882 0-0.48613-0.21731-0.48613-0.48577s0.21731-0.48613 0.48613-0.48613c0.26811 0 0.48577 0.21767 0.48577 0.48613" style="fill:#fff"/>
  <path d="m294.98-16.213c0 0.26846-0.21766 0.48577-0.48577 0.48577-0.26882 0-0.48613-0.21731-0.48613-0.48577s0.21731-0.48613 0.48613-0.48613c0.26811 0 0.48577 0.21767 0.48577 0.48613" style="fill:#fff"/>
  <path d="m299.36-16.213c0 0.26846-0.21766 0.48577-0.48613 0.48577-0.26846 0-0.48613-0.21731-0.48613-0.48577s0.21767-0.48613 0.48613-0.48613c0.26847 0 0.48613 0.21767 0.48613 0.48613" style="fill:#fff"/>
  <path d="m303.73-16.213c0 0.26846-0.21766 0.48577-0.48613 0.48577-0.26846 0-0.48613-0.21731-0.48613-0.48577s0.21767-0.48613 0.48613-0.48613c0.26847 0 0.48613 0.21767 0.48613 0.48613" style="fill:#fff"/>
  <path d="m308.11-16.213c0 0.26846-0.21766 0.48577-0.48613 0.48577-0.26846 0-0.48577-0.21731-0.48577-0.48577s0.21731-0.48613 0.48577-0.48613c0.26847 0 0.48613 0.21767 0.48613 0.48613" style="fill:#fff"/>
  <path d="m312.48-16.213c0 0.26846-0.21766 0.48577-0.48577 0.48577-0.26882 0-0.48613-0.21731-0.48613-0.48577s0.21731-0.48613 0.48613-0.48613c0.26811 0 0.48577 0.21767 0.48577 0.48613" style="fill:#fff"/>
  <path d="m316.86-16.213c0 0.26846-0.21766 0.48577-0.48577 0.48577-0.26882 0-0.48613-0.21731-0.48613-0.48577s0.21731-0.48613 0.48613-0.48613c0.26811 0 0.48577 0.21767 0.48577 0.48613" style="fill:#fff"/>
  <path d="m273.11-12.323c0 0.26846-0.21766 0.48613-0.48577 0.48613-0.26882 0-0.48613-0.21767-0.48613-0.48613s0.21731-0.48577 0.48613-0.48577c0.26811 0 0.48577 0.21731 0.48577 0.48577" style="fill:#fff"/>
  <path d="m277.49-12.323c0 0.26846-0.21766 0.48613-0.48613 0.48613-0.26846 0-0.48613-0.21767-0.48613-0.48613s0.21767-0.48577 0.48613-0.48577c0.26847 0 0.48613 0.21731 0.48613 0.48577" style="fill:#fff"/>
  <path d="m281.86-12.323c0 0.26846-0.21766 0.48613-0.48613 0.48613-0.26846 0-0.48613-0.21767-0.48613-0.48613s0.21767-0.48577 0.48613-0.48577c0.26847 0 0.48613 0.21731 0.48613 0.48577" style="fill:#fff"/>
  <path d="m286.23-12.323c0 0.26846-0.21766 0.48613-0.48613 0.48613-0.26846 0-0.48577-0.21767-0.48577-0.48613s0.21731-0.48577 0.48577-0.48577c0.26847 0 0.48613 0.21731 0.48613 0.48577" style="fill:#fff"/>
  <path d="m290.61-12.323c0 0.26846-0.21766 0.48613-0.48577 0.48613-0.26882 0-0.48613-0.21767-0.48613-0.48613s0.21731-0.48577 0.48613-0.48577c0.26811 0 0.48577 0.21731 0.48577 0.48577" style="fill:#fff"/>
  <path d="m294.98-12.323c0 0.26846-0.21766 0.48613-0.48577 0.48613-0.26882 0-0.48613-0.21767-0.48613-0.48613s0.21731-0.48577 0.48613-0.48577c0.26811 0 0.48577 0.21731 0.48577 0.48577" style="fill:#fff"/>
  <path d="m299.36-12.323c0 0.26846-0.21766 0.48613-0.48613 0.48613-0.26846 0-0.48613-0.21767-0.48613-0.48613s0.21767-0.48577 0.48613-0.48577c0.26847 0 0.48613 0.21731 0.48613 0.48577" style="fill:#fff"/>
  <path d="m303.73-12.323c0 0.26846-0.21766 0.48613-0.48613 0.48613-0.26846 0-0.48613-0.21767-0.48613-0.48613s0.21767-0.48577 0.48613-0.48577c0.26847 0 0.48613 0.21731 0.48613 0.48577" style="fill:#fff"/>
  <path d="m308.11-12.323c0 0.26846-0.21766 0.48613-0.48613 0.48613-0.26846 0-0.48577-0.21767-0.48577-0.48613s0.21731-0.48577 0.48577-0.48577c0.26847 0 0.48613 0.21731 0.48613 0.48577" style="fill:#fff"/>
  <path d="m312.48-12.323c0 0.26846-0.21766 0.48613-0.48577 0.48613-0.26882 0-0.48613-0.21767-0.48613-0.48613s0.21731-0.48577 0.48613-0.48577c0.26811 0 0.48577 0.21731 0.48577 0.48577" style="fill:#fff"/>
  <path d="m316.86-12.323c0 0.26846-0.21766 0.48613-0.48577 0.48613-0.26882 0-0.48613-0.21767-0.48613-0.48613s0.21731-0.48577 0.48613-0.48577c0.26811 0 0.48577 0.21731 0.48577 0.48577" style="fill:#fff"/>
  <path d="m273.11-8.4328c0 0.26846-0.21766 0.48577-0.48577 0.48577-0.26882 0-0.48613-0.21731-0.48613-0.48577s0.21731-0.48613 0.48613-0.48613c0.26811 0 0.48577 0.21767 0.48577 0.48613" style="fill:#fff"/>
  <path d="m277.49-8.4328c0 0.26846-0.21766 0.48577-0.48613 0.48577-0.26846 0-0.48613-0.21731-0.48613-0.48577s0.21767-0.48613 0.48613-0.48613c0.26847 0 0.48613 0.21767 0.48613 0.48613" style="fill:#fff"/>
  <path d="m281.86-8.4328c0 0.26846-0.21766 0.48577-0.48613 0.48577-0.26846 0-0.48613-0.21731-0.48613-0.48577s0.21767-0.48613 0.48613-0.48613c0.26847 0 0.48613 0.21767 0.48613 0.48613" style="fill:#fff"/>
  <path d="m286.23-8.4328c0 0.26846-0.21766 0.48577-0.48613 0.48577-0.26846 0-0.48577-0.21731-0.48577-0.48577s0.21731-0.48613 0.48577-0.48613c0.26847 0 0.48613 0.21767 0.48613 0.48613" style="fill:#fff"/>
  <path d="m290.61-8.4328c0 0.26846-0.21766 0.48577-0.48577 0.48577-0.26882 0-0.48613-0.21731-0.48613-0.48577s0.21731-0.48613 0.48613-0.48613c0.26811 0 0.48577 0.21767 0.48577 0.48613" style="fill:#fff"/>
  <path d="m294.98-8.4328c0 0.26846-0.21766 0.48577-0.48577 0.48577-0.26882 0-0.48613-0.21731-0.48613-0.48577s0.21731-0.48613 0.48613-0.48613c0.26811 0 0.48577 0.21767 0.48577 0.48613" style="fill:#fff"/>
  <path d="m299.36-8.4328c0 0.26846-0.21766 0.48577-0.48613 0.48577-0.26846 0-0.48613-0.21731-0.48613-0.48577s0.21767-0.48613 0.48613-0.48613c0.26847 0 0.48613 0.21767 0.48613 0.48613" style="fill:#fff"/>
  <path d="m303.73-8.4328c0 0.26846-0.21766 0.48577-0.48613 0.48577-0.26846 0-0.48613-0.21731-0.48613-0.48577s0.21767-0.48613 0.48613-0.48613c0.26847 0 0.48613 0.21767 0.48613 0.48613" style="fill:#fff"/>
  <path d="m308.11-8.4328c0 0.26846-0.21766 0.48577-0.48613 0.48577-0.26846 0-0.48577-0.21731-0.48577-0.48577s0.21731-0.48613 0.48577-0.48613c0.26847 0 0.48613 0.21767 0.48613 0.48613" style="fill:#fff"/>
  <path d="m312.48-8.4328c0 0.26846-0.21766 0.48577-0.48577 0.48577-0.26882 0-0.48613-0.21731-0.48613-0.48577s0.21731-0.48613 0.48613-0.48613c0.26811 0 0.48577 0.21767 0.48577 0.48613" style="fill:#fff"/>
  <path d="m316.86-8.4328c0 0.26846-0.21766 0.48577-0.48577 0.48577-0.26882 0-0.48613-0.21731-0.48613-0.48577s0.21731-0.48613 0.48613-0.48613c0.26811 0 0.48577 0.21767 0.48577 0.48613" style="fill:#fff"/>
  <path d="m273.11-4.5428c0 0.26846-0.21766 0.48613-0.48577 0.48613-0.26882 0-0.48613-0.21767-0.48613-0.48613s0.21731-0.48577 0.48613-0.48577c0.26811 0 0.48577 0.21731 0.48577 0.48577" style="fill:#fff"/>
  <path d="m277.49-4.5428c0 0.26846-0.21766 0.48613-0.48613 0.48613-0.26846 0-0.48613-0.21767-0.48613-0.48613s0.21767-0.48577 0.48613-0.48577c0.26847 0 0.48613 0.21731 0.48613 0.48577" style="fill:#fff"/>
  <path d="m281.86-4.5428c0 0.26846-0.21766 0.48613-0.48613 0.48613-0.26846 0-0.48613-0.21767-0.48613-0.48613s0.21767-0.48577 0.48613-0.48577c0.26847 0 0.48613 0.21731 0.48613 0.48577" style="fill:#fff"/>
  <path d="m286.23-4.5428c0 0.26846-0.21766 0.48613-0.48613 0.48613-0.26846 0-0.48577-0.21767-0.48577-0.48613s0.21731-0.48577 0.48577-0.48577c0.26847 0 0.48613 0.21731 0.48613 0.48577" style="fill:#fff"/>
  <path d="m290.61-4.5428c0 0.26846-0.21766 0.48613-0.48577 0.48613-0.26882 0-0.48613-0.21767-0.48613-0.48613s0.21731-0.48577 0.48613-0.48577c0.26811 0 0.48577 0.21731 0.48577 0.48577" style="fill:#fff"/>
  <path d="m294.98-4.5428c0 0.26846-0.21766 0.48613-0.48577 0.48613-0.26882 0-0.48613-0.21767-0.48613-0.48613s0.21731-0.48577 0.48613-0.48577c0.26811 0 0.48577 0.21731 0.48577 0.48577" style="fill:#fff"/>
  <path d="m299.36-4.5428c0 0.26846-0.21766 0.48613-0.48613 0.48613-0.26846 0-0.48613-0.21767-0.48613-0.48613s0.21767-0.48577 0.48613-0.48577c0.26847 0 0.48613 0.21731 0.48613 0.48577" style="fill:#fff"/>
  <path d="m303.73-4.5428c0 0.26846-0.21766 0.48613-0.48613 0.48613-0.26846 0-0.48613-0.21767-0.48613-0.48613s0.21767-0.48577 0.48613-0.48577c0.26847 0 0.48613 0.21731 0.48613 0.48577" style="fill:#fff"/>
  <path d="m308.11-4.5428c0 0.26846-0.21766 0.48613-0.48613 0.48613-0.26846 0-0.48577-0.21767-0.48577-0.48613s0.21731-0.48577 0.48577-0.48577c0.26847 0 0.48613 0.21731 0.48613 0.48577" style="fill:#fff"/>
  <path d="m312.48-4.5428c0 0.26846-0.21766 0.48613-0.48577 0.48613-0.26882 0-0.48613-0.21767-0.48613-0.48613s0.21731-0.48577 0.48613-0.48577c0.26811 0 0.48577 0.21731 0.48577 0.48577" style="fill:#fff"/>
  <path d="m316.86-4.5428c0 0.26846-0.21766 0.48613-0.48577 0.48613-0.26882 0-0.48613-0.21767-0.48613-0.48613s0.21731-0.48577 0.48613-0.48577c0.26811 0 0.48577 0.21731 0.48577 0.48577" style="fill:#fff"/>
  <path d="m273.11-0.65278c0 0.26846-0.21766 0.48613-0.48577 0.48613-0.26882 0-0.48613-0.21767-0.48613-0.48613s0.21731-0.48613 0.48613-0.48613c0.26811 0 0.48577 0.21767 0.48577 0.48613" style="fill:#fff"/>
  <path d="m277.49-0.65278c0 0.26846-0.21766 0.48613-0.48613 0.48613-0.26846 0-0.48613-0.21767-0.48613-0.48613s0.21767-0.48613 0.48613-0.48613c0.26847 0 0.48613 0.21767 0.48613 0.48613" style="fill:#fff"/>
  <path d="m281.86-0.65278c0 0.26846-0.21766 0.48613-0.48613 0.48613-0.26846 0-0.48613-0.21767-0.48613-0.48613s0.21767-0.48613 0.48613-0.48613c0.26847 0 0.48613 0.21767 0.48613 0.48613" style="fill:#fff"/>
  <path d="m286.23-0.65278c0 0.26846-0.21766 0.48613-0.48613 0.48613-0.26846 0-0.48577-0.21767-0.48577-0.48613s0.21731-0.48613 0.48577-0.48613c0.26847 0 0.48613 0.21767 0.48613 0.48613" style="fill:#fff"/>
  <path d="m290.61-0.65278c0 0.26846-0.21766 0.48613-0.48577 0.48613-0.26882 0-0.48613-0.21767-0.48613-0.48613s0.21731-0.48613 0.48613-0.48613c0.26811 0 0.48577 0.21767 0.48577 0.48613" style="fill:#fff"/>
  <path d="m294.98-0.65278c0 0.26846-0.21766 0.48613-0.48577 0.48613-0.26882 0-0.48613-0.21767-0.48613-0.48613s0.21731-0.48613 0.48613-0.48613c0.26811 0 0.48577 0.21767 0.48577 0.48613" style="fill:#fff"/>
  <path d="m299.36-0.65278c0 0.26846-0.21766 0.48613-0.48613 0.48613-0.26846 0-0.48613-0.21767-0.48613-0.48613s0.21767-0.48613 0.48613-0.48613c0.26847 0 0.48613 0.21767 0.48613 0.48613" style="fill:#fff"/>
  <path d="m303.73-0.65278c0 0.26846-0.21766 0.48613-0.48613 0.48613-0.26846 0-0.48613-0.21767-0.48613-0.48613s0.21767-0.48613 0.48613-0.48613c0.26847 0 0.48613 0.21767 0.48613 0.48613" style="fill:#fff"/>
  <path d="m308.11-0.65278c0 0.26846-0.21766 0.48613-0.48613 0.48613-0.26846 0-0.48577-0.21767-0.48577-0.48613s0.21731-0.48613 0.48577-0.48613c0.26847 0 0.48613 0.21767 0.48613 0.48613" style="fill:#fff"/>
  <path d="m312.48-0.65278c0 0.26846-0.21766 0.48613-0.48577 0.48613-0.26882 0-0.48613-0.21767-0.48613-0.48613s0.21731-0.48613 0.48613-0.48613c0.26811 0 0.48577 0.21767 0.48577 0.48613" style="fill:#fff"/>
  <path d="m316.86-0.65278c0 0.26846-0.21766 0.48613-0.48577 0.48613-0.26882 0-0.48613-0.21767-0.48613-0.48613s0.21731-0.48613 0.48613-0.48613c0.26811 0 0.48577 0.21767 0.48577 0.48613" style="fill:#fff"/>
  <path d="m220.05-65.153c-11.336 2.5329-21.289 10.628-26.077 21.211-4.0492 8.9486 1.361 17.917 11.541 14.154 3.785-1.3988 8.0867-4.3815 12.205-4.427 2.1491-0.0236 4.1585 0.65123 6.1655 1.3257 2.6885 0.90381 5.3732 1.8073 8.3876 1.0329 7.2189-1.8546 9.6351-14.959 7.8669-21.037-0.75952-2.6113-2.1551-5.0045-3.8276-7.149-1.3144-1.6856-2.8367-3.2572-4.7131-4.281-1.9368-1.0566-4.1144-1.4602-6.3313-1.4602-1.7477 0-3.5193 0.25082-5.2165 0.6297" style="fill:url(#linearGradient3635);filter:url(#filter5130)"/>
  <path d="m304.66-52.753c-5.2737 9.4862-2.432 22.207 5.2454 29.879 7.6782 7.6712 19.237 10.622 30.031 9.4851 5.9052-0.6223 11.74-2.4306 16.869-5.394v-24.207c-0.27411 0.10265-0.56198 0.1979-0.86607 0.28539-4.9096 1.4164-9.9921-1.8101-13.359-5.6543-3.3669-3.8439-5.908-8.5065-10.027-11.53-2.9115-2.1371-6.3916-3.1122-9.9318-3.1126-7.0982-2.7e-4 -14.442 3.9183-17.961 10.248" style="fill:url(#linearGradient3657)"/>
  <path d="m309.91-22.873c7.6782 7.6712 19.237 10.622 30.031 9.4851 5.9052-0.6223 11.74-2.4306 16.869-5.394v-13.171c-0.29917 0.4191-0.60679 0.82867-0.92323 1.2287-5.5312 6.9882-13.46 11.046-21.545 12.045-9.2019 1.1374-19.057-1.814-25.603-9.4855-3.6894-4.324-6.0685-10.252-6.6372-16.302-0.80504 7.7431 2.2168 16.007 7.808 21.594" style="fill:url(#radialGradient3707)"/>
  <path d="m314.15-27.633c-4.8253 0.52211-8.3136 4.8578-7.7914 9.6834 0.52282 4.8253 4.8581 8.3136 9.6834 7.7914 4.8256-0.52282 8.3143-4.8581 7.7918-9.6834-0.48754-4.5046-4.2968-7.8437-8.7267-7.8433-0.31609 0-0.63571 0.0169-0.95709 0.0519" style="fill:url(#linearGradient3727)"/>
  <path d="m321.31-22.063c0.52247 4.826-2.9658 9.1609-7.7914 9.6838-1.9449 0.21025-3.8093-0.23107-5.3777-1.1486 1.8073 2.3396 4.7519 3.7123 7.9061 3.3708 4.8256-0.52282 8.3143-4.8581 7.7918-9.6834-0.31185-2.8811-1.983-5.2843-4.306-6.6432 0.95779 1.2393 1.5967 2.7496 1.7773 4.4207" style="fill:url(#linearGradient3747)"/>
  <path d="m312.78-22.083c0.12277 1.1356-0.69779 2.1558-1.8334 2.2786-1.1356 0.12312-2.1555-0.69779-2.2782-1.833-0.12312-1.1356 0.69779-2.1558 1.833-2.2786 1.1356-0.12277 2.1555 0.69779 2.2786 1.833" style="fill:url(#linearGradient3797)"/>
  <path d="m300.07-137.61c-9.9833 1.0806-17.2 10.05-16.119 20.033 1.0806 9.9833 10.05 17.2 20.033 16.119 9.9836-1.0806 17.2-10.05 16.119-20.033-1.0089-9.3186-8.8893-16.227-18.053-16.226-0.65405 0-1.3152 0.0353-1.9798 0.10724" style="fill:url(#linearGradient3939);filter:url(#filter5154)"/>
  <path d="m314.87-126.09c1.0802 9.9833-6.1366 18.953-16.119 20.033-4.0238 0.43569-7.8814-0.47801-11.126-2.376 3.7391 4.8398 9.8305 7.6803 16.357 6.9734 9.9836-1.0806 17.2-10.05 16.119-20.033-0.64523-5.9598-4.1024-10.932-8.9076-13.744 1.9808 2.5643 3.3024 5.6889 3.677 9.1461" style="fill:url(#linearGradient3959)"/>
  <path d="m297.23-126.12c0.25436 2.3491-1.4439 4.4595-3.7927 4.7138-2.3492 0.25435-4.4595-1.4439-4.7138-3.7927-0.25435-2.3491 1.4439-4.4595 3.7927-4.7138 2.3491-0.25435 4.4595 1.4439 4.7138 3.7927" style="fill:url(#linearGradient4009)"/>
  <path d="m167.7-33.103c-5.3552 8.8392 16.632 15.424 22.11 15.753 1.2421 0.0744 2.5492 0.0628 3.6456-0.52599 1.264-0.67875 2.0705-2.129 1.9801-3.5609-0.11289-1.7791-1.4711-3.2565-3.0021-4.1695-2.5287-1.5081-5.2938-2.2976-7.7287-4.0217-2.2602-1.6009-4.1621-4.1903-6.6735-5.3936-1.1867-0.56903-2.7206-0.90487-4.2676-0.90487-2.4063 0-4.8454 0.81245-6.0642 2.824" style="fill:url(#linearGradient4047)"/>
  <path d="m233.75-61.563c3.859 5.5587 3.6156 14.109-1.6221 18.393-1.1613 0.95002-2.5523 1.6785-4.0467 1.8143-3.4368 0.31292-6.3405-2.4363-9.6583-3.3849-3.6576-1.046-7.8885 0.3556-10.198 3.3786-2.213 2.8963-2.7503 7.016-5.5926 9.2985-1.9202 1.5416-4.6133 1.8997-7.0037 1.2785 2.2465 1.9205 5.6497 2.5608 9.8817 0.9966 3.785-1.3988 8.0867-4.3815 12.205-4.427 2.1491-0.0236 4.1585 0.65123 6.1655 1.3257 2.6882 0.90381 5.3728 1.8073 8.3876 1.0329 7.2189-1.8546 9.6351-14.959 7.8669-21.037-0.75953-2.6113-2.1551-5.0045-3.8276-7.149-1.3144-1.6856-2.8367-3.2572-4.7131-4.281-0.17921-0.0977-0.36124-0.18663-0.54469-0.27271 1.0065 0.90136 1.9195 1.9075 2.7009 3.0328" style="fill:url(#linearGradient4135);filter:url(#filter5142)"/>
  <path d="m220.56-54.823c1.7452-0.0649 3.5602 0.6911 5.1922 0.0699 4.9438-1.8817 1.8634-6.1059-1.9921-6.5511-1.8083-0.20848-3.635 0.15347-5.3852 0.65371-1.5854 0.45331-3.1665 1.0365-4.4697 2.0468-1.2778 0.99024-3.6054 3.974-1.6859 5.2529 1.585 1.0555 6.5391-1.4051 8.3407-1.4721" style="fill:url(#linearGradient4185)"/>
  <path d="m210.05-52.373c0 1.1688-0.94791 2.1167-2.1167 2.1167s-2.1167-0.94791-2.1167-2.1167c0-1.1688 0.94791-2.1167 2.1167-2.1167 1.1688 0 2.1167 0.94792 2.1167 2.1167" style="fill:url(#linearGradient4243)"/>
  <path d="m189.81-17.353c1.2421 0.0744 2.5492 0.0628 3.6456-0.52599 1.264-0.67875 2.0705-2.129 1.9801-3.5609-0.11289-1.7791-1.4711-3.2565-3.0021-4.1695-1.6118-0.96132-3.3193-1.6312-4.9766-2.437 0.0699 0.26282 0.17815 0.51752 0.31468 0.73977 0.48578 0.78776 1.2266 1.4383 1.4947 2.3245 0.43991 1.4552-0.63923 3.0406-2.044 3.6234-1.4044 0.58314-3.0081 0.38664-4.482 0.0106-4.6337-1.1811-8.6942-3.9896-12.267-7.1681-1.3335-1.1864-2.6917-2.5841-2.9076-4.3505-4.8204 8.7186 16.814 15.188 22.244 15.514" style="fill:url(#linearGradient4281)"/>
  <path d="m282.25-58.113c-2.0302 0.6357-4.0196 1.4009-5.9517 2.2906-1.6439 0.75671-7.505 4.415-4.2774 6.1383 2.6857 1.4344 6.0325-0.084 8.7711-0.48014 3.7507-0.54185 7.5773-1.2326 11.033-2.8529 1.0756-0.50483 2.178-1.2051 2.5718-2.3262 0.7881-2.2454-1.5547-4.0725-3.5302-4.3416-1.1638-0.1584-2.3453 0.0318-3.4971 0.26211-1.7279 0.34536-3.4375 0.78316-5.1192 1.3099" style="fill:url(#linearGradient4331)"/>
  <path d="m306.31-47.513c-0.36618 1.5353-0.35983 3.2029 0.29422 4.639 0.65369 1.4365 2.0274 2.5922 3.5997 2.7273 0.56162 0.0487 1.1716-0.0483 1.5843-0.43251 0.31892-0.29668 0.47802-0.72143 0.64876-1.1225 0.74331-1.7448 1.899-3.3129 3.3454-4.5395 1.0344-0.87736 2.2451-1.6168 2.9298-2.7876 1.1162-1.9085 0.3362-4.6246-1.5413-5.7926-4.6542-2.8963-9.9099 3.3193-10.861 7.3085" style="fill:url(#linearGradient4389)"/>
  <path d="m265.1-103.72c-3.5242 2.1565-6.1666 5.6974-9.9928 7.257-5.0486 2.0581-10.753 0.17321-15.869-1.7124-4.1991-1.5469-8.0183-3.9335-12.149-5.6363-2.2073-0.91017-7.657-3.1175-5.7464 1.3342 2.6903 6.2696 8.9489 11.661 14.571 15.267 3.5295 2.2631 7.3674 4.0245 11.453 5.0796 10.844 2.8007 23.453-0.054 30.665-8.6226 4.2968-5.1054 4.1349-12.634-3.1514-14.626-0.93027-0.25435-1.8866-0.37359-2.8455-0.37359-2.4211 0-4.8578 0.7613-6.9356 2.0327" style="fill:url(#linearGradient4513);filter:url(#filter5166)"/>
  <path d="m267.76-104.99c6.2047 1.9717 6.0353 7.9795 2.068 11.891-6.7261 6.6319-18.034 8.4233-27.563 5.7154-3.5899-1.0202-6.9338-2.601-9.9847-4.5752-3.78-2.4458-7.8542-5.7827-10.497-9.58 2.8868 5.8663 8.7962 10.9 14.135 14.324 3.5295 2.2631 7.3674 4.0245 11.453 5.0796 10.844 2.8007 23.453-0.054 30.665-8.6226 4.2968-5.1054 4.1349-12.634-3.1514-14.626-0.9278-0.25364-1.8814-0.37253-2.837-0.37253-1.4503 0-2.9062 0.27376-4.288 0.76553" style="fill:url(#linearGradient4535)"/>
  <path d="m339.76-49.623c-0.26459 5.6007-5.206 9.6234-8.5517 14.123-0.55457 0.74577-1.0908 1.5766-1.1134 2.5058-0.0445 1.8634 1.9385 3.1189 3.7588 3.5172 3.393 0.74154 6.9825-0.121 10.06-1.7307 3.0773-1.6097 5.721-3.9243 8.2885-6.2629 1.4153-1.2887 2.8515-2.6367 3.6689-4.3677 0.14676-0.31115 0.26424-0.63183 0.37042-0.95603-0.10266 0.0325-0.20002 0.0674-0.30621 0.0981-4.9096 1.4164-9.9921-1.8101-13.359-5.6543-1.0689-1.2199-2.0546-2.5231-3.0335-3.8298 0.17991 0.82619 0.25893 1.6792 0.21731 2.5573" style="fill:url(#radialGradient4585)"/>
  <path d="m311.76-97.193c-1.7653 0.92216-2.7263 2.8466-3.5736 4.6489-1.6542 3.5179-4.6235 6.4449-7.8952 8.539-1.688 1.0802-3.8093 2.6084-3.2403 4.53 0.3115 1.0516 1.4168 1.7152 2.5086 1.8189 1.0918 0.10407 2.1731-0.24518 3.1944-0.64452 3.9832-1.5582 7.8257-3.9504 10.882-6.949 2.4952-2.4483 6.6887-7.2129 3.8298-10.756-0.87242-1.0809-2.2666-1.6768-3.6502-1.6768-0.71261 0-1.422 0.15804-2.056 0.4893" style="fill:url(#linearGradient4607)"/>
  <path d="m312.51-92.203c0.58173-0.0021 1.136-0.34855 1.7134-0.27764 0.39794 0.0487 0.76165 0.29316 1.1624 0.28928 0.59372-6e-3 1.0636-0.59337 1.1038-1.1857 0.0406-0.59231-0.25259-1.1603-0.62512-1.6224-0.9264-1.1494-2.5584-1.6171-3.8033-0.75777-1.2407 0.85584-1.7011 3.5638 0.44873 3.5542" style="fill:url(#linearGradient4657)"/>
  <path d="m318.26-93.143c-0.76835 3.2381-3.9201 5.9697-6.4894 7.8807-2.8755 2.1385-6.2706 3.5818-9.8132 4.1353-1.2834 0.20073-3.0392-0.01381-3.9303-1.1035-6e-3 -8e-3 -0.0113-0.0176-0.018-0.0254-0.78246 0.80433-1.2735 1.7343-0.96343 2.7813 0.3115 1.0516 1.4171 1.7152 2.5086 1.8189 1.0918 0.10407 2.1731-0.24518 3.1944-0.64452 3.9832-1.5582 7.8257-3.9504 10.882-6.949 2.0211-1.9833 5.1555-5.486 4.7544-8.6282-0.0279 0.24765-0.0684 0.49389-0.12559 0.73449" style="fill:url(#radialGradient4723)"/>
  <path d="m350.1-63.133c0 1.0717-0.86854 1.9403-1.9403 1.9403s-1.9403-0.86854-1.9403-1.9403c0-1.0718 0.86854-1.9403 1.9403-1.9403s1.9403 0.86855 1.9403 1.9403" style="fill:#fff"/>
  <path d="m344.46-59.603c0 0.48719-0.39476 0.88195-0.88194 0.88195-0.48719 0-0.88195-0.39476-0.88195-0.88195 0-0.48718 0.39476-0.88193 0.88195-0.88193 0.48718 0 0.88194 0.39475 0.88194 0.88193" style="fill:#fff"/>
  <path d="m219.93-28.913c0 0.48719-0.39476 0.88194-0.88194 0.88194s-0.88193-0.39475-0.88193-0.88194 0.39475-0.88194 0.88193-0.88194c0.48719 0 0.88194 0.39475 0.88194 0.88194" style="fill:#fff"/>
  <path d="m224.87-32.793c0 0.48719-0.39477 0.88194-0.88195 0.88194-0.48719 0-0.88194-0.39475-0.88194-0.88194s0.39476-0.88194 0.88194-0.88194c0.48719 0 0.88195 0.39475 0.88195 0.88194" style="fill:#fff"/>
  <path d="m194.53-13.043c0 0.48719-0.39475 0.88194-0.88193 0.88194-0.48719 0-0.88194-0.39475-0.88194-0.88194s0.39476-0.88194 0.88194-0.88194c0.48719 0 0.88193 0.39475 0.88193 0.88194" style="fill:#fff"/>
  <path d="m216.75-34.203c0 0.48719-0.39476 0.88195-0.88194 0.88195s-0.88193-0.39476-0.88193-0.88195 0.39475-0.88194 0.88193-0.88194c0.48719 0 0.88194 0.39475 0.88194 0.88194" style="fill:#fff"/>
 </g>
</svg>
