<svg width="162.73mm" height="189.73mm" version="1.1" viewBox="0 0 162.73 189.73" xmlns="http://www.w3.org/2000/svg">
 <defs>
  <filter id="filter36526" style="color-interpolation-filters:sRGB">
   <feFlood flood-color="rgb(104,0,79)" flood-opacity=".49804" result="flood"/>
   <feComposite in="flood" in2="SourceGraphic" operator="in" result="composite1"/>
   <feGaussianBlur result="blur" stdDeviation="33"/>
   <feOffset dx="7.2" dy="6" result="offset"/>
   <feComposite in="SourceGraphic" in2="offset" result="composite2"/>
  </filter>
 </defs>
 <g transform="matrix(-.88571 0 0 .94648 174.11 -49.452)">
  <path transform="matrix(.26458 0 0 .26458 28.157 68.954)" d="m0 0v613.21c9.3573 7.0493 19.861 12.394 31.367 15.346 42.827 10.988 85.864-12.431 126.44-29.996 5.7413-2.4853 11.881-4.9145 18.074-4.0332 2.7707 0.39466 5.4993 1.7128 7.5859 3.6035 2.8587 2.5893 0.38897 7.2484-3.3457 6.291-9.772-2.5067-20.676-0.68416-28.906 5.2012-2.8373 2.028-5.5567 4.7592-3.8047 9.3965 0.97334 2.576 3.0044 4.6294 5.5098 5.7734 29.931 13.661 64.043 2.7242 94.115-9.5078 28.924-11.764 59.702-25.035 90.283-18.732 16.229 3.344 30.884 12.009 46.854 16.432 15.968 4.4213 35.42 3.459 46.102-9.209 2.54-3.012 4.5834-6.6652 8.0527-8.5332 2.1133-1.1387 4.991-1.0915 7.0137 6e-3 1.56 0.84533 1.1743 3.1527-0.53906 3.6113-3.4213 0.91333-6.3011 3.925-7.0918 7.377-0.40133 1.7533 0.53137 3.5617 2.2207 4.1777 30.357 11.072 72.003-21.627 101.3-7.2559-3.1307-13.563-0.0812-28.425 8.1348-39.66 4.7373-6.4773 10.994-11.682 16.121-17.855 8.1986-9.872 13.408-22.479 13.193-35.311-0.21466-12.831-6.2215-25.726-16.715-33.115-4.1773-2.9413-8.9937-5.0231-12.678-8.5644-2.94-2.8253-5.0132-7.0626-4.5039-10.949 0.144-1.1027 1.6469-1.3737 2.1856-0.40039 4.04 7.304 10.428 14.675 18.041 12.309 7.8267-2.4333 8.9857-13.25 6.5684-21.082-5.04-16.32-18.438-28.706-32.691-38.119-14.253-9.412-29.924-16.723-43.244-27.416-19.515-15.668-32.829-37.648-44.637-59.715-4.416-8.2507-8.7697-16.708-15.262-23.445-6.4933-6.7387-15.597-11.63-24.912-10.732-3.3573 0.32266-5.7143 2.5991-8.1836 4.8711-5.4507 5.0133-14.114 4.5497-18.734-1.2383-3.7907-4.7507-5.6624-10.869-9.8438-15.268-3.636-3.8253-8.6471-5.9647-13.039-8.8887-4.3933-2.924-8.4981-7.3106-8.4941-12.588l4.8125-0.0312c-0.83334 4.712 4.958 9.1128 9.2754 7.0488 3.5653-7.2373-2.2491-15.543-8.3691-20.799-16.081-13.809-37.121-21.717-58.318-21.916-4.3653-0.0413-10.41 2.2803-8.6524 6.7109 0.32267 0.81467 0.89184 1.5102 1.5625 2.0742 4.6747 3.9253 10.649 9.5486 8.6113 15.531-2.3453 1.6013-5.9336 1.6061-7.7402-0.58594-1.8067-2.1933-0.41614-6.3483 2.4238-6.4043-17.423-17.599-43.625-22.372-68.062-26.387-24.436-4.0147-50.655-9.0543-67.762-26.961-12.161-12.729-17.858-30.166-27.271-45.043-9.4133-14.877-25.901-28.228-43.08-24.375-27.864 6.2493-58.35-15.577-64.346-43.498-0.828-3.8587-1.1763-8.1442 0.87305-11.518 2.0493-3.3733 7.3354-4.9004 10.023-2.0098 0.49333 1.696-0.99343 3.1999-2.6348 3.6172-1.6733 0.42667-2.8115 2.0049-2.4102 3.6836 1.696 7.096 7.1628 13.218 13.412 17.283 12.576 8.1813 29.139 9.8742 43.111 4.4062 15.22-5.956 28.291-19.918 44.584-18.627 1.6373 0.12933 3.476 0.37528 4.4453-1.6367 0.31733-0.66 0.43382-1.4041 0.39648-2.1348-0.60533-11.751-9.9134-21.404-20.58-26.15-10.348-4.6053-21.911-5.4594-33.201-6.3594-11.292-0.89867-22.871-1.9857-33.035-6.9844-10.3-5.0653-18.314-14.266-22.52-24.922h-28.084zm50.938 46.875c2.0147 0 3.6465 1.6312 3.6465 3.6445 0 2.0147-1.6318 3.6465-3.6465 3.6465-2.0133 0-3.6445-1.6318-3.6445-3.6465 0-2.0133 1.6312-3.6445 3.6445-3.6445zm73.061 186.63c6.0213 0 10.902 4.883 10.902 10.904s-4.881 10.902-10.902 10.902c-6.0227 0-10.904-4.881-10.904-10.902s4.8816-10.904 10.904-10.904zm-49.205 132.97c2.464 0 4.4609 1.997 4.4609 4.4609 0 2.464-1.9969 4.4609-4.4609 4.4609-2.4653 0-4.4629-1.997-4.4629-4.4609 0-2.464 1.9976-4.4609 4.4629-4.4609zm-39.844 14.246c5.2 0 9.416 4.216 9.416 9.416s-4.216 9.416-9.416 9.416-9.416-4.216-9.416-9.416 4.216-9.416 9.416-9.416zm515.74 58.445c2.1493 0 3.8926 1.7432 3.8926 3.8926 0 2.1493-1.7432 3.8926-3.8926 3.8926-2.1507 0-3.8926-1.7432-3.8926-3.8926 0-2.1493 1.7419-3.8926 3.8926-3.8926zm13.545 20.277c0.88266 0 1.5976 0.71499 1.5976 1.5977 0 0.88133-0.71499 1.5976-1.5976 1.5976-0.88134 0-1.5977-0.71632-1.5977-1.5976 0-0.88267 0.71632-1.5977 1.5977-1.5977zm1.3203 56.25c3.6053 0 6.5273 2.922 6.5273 6.5273s-2.922 6.5293-6.5273 6.5293-6.5293-2.924-6.5293-6.5293 2.924-6.5273 6.5293-6.5273zm-374.98 12.291c2.968 0 5.373 2.405 5.373 5.373s-2.405 5.373-5.373 5.373-5.375-2.4051-5.375-5.373 2.407-5.373 5.375-5.373zm-157.52 49.516c6.2893 0 11.389 5.0993 11.389 11.389 0 6.2907-5.0993 11.389-11.389 11.389-6.2893 0-11.391-5.098-11.391-11.389 0-6.2893 5.1013-11.389 11.391-11.389zm30.277 17.221c1.5347 0 2.7773 1.2446 2.7773 2.7793 0 1.5333-1.2427 2.7773-2.7773 2.7773-1.5333 0-2.7773-1.244-2.7773-2.7773 0-1.5347 1.244-2.7793 2.7773-2.7793z" style="fill:#04254e;filter:url(#filter36526)"/>
  <path d="m99.095 171.45c0.52952 0 1.7985-0.10548 2.1389-1.0792 1.6383-2.2225 2.9982-4.6891 4.3131-7.0746 0.3242-0.58808 0.64734-1.1748 0.97402-1.7561 1.0227-1.8217 2.1142-3.6407 3.1701-5.3996 0.75882-1.2644 1.5434-2.5718 2.2959-3.8693 0.0222-0.0381 0.0282-0.0808 0.018-0.12665l-3e-3 -0.0134 4e-3 -0.0127c0.0201-0.0621 0.0325-0.121 0.0377-0.17991 0.0409-0.44662-0.34925-0.85302-0.66251-1.179-0.0586-0.061-0.11465-0.11959-0.16545-0.17533-0.45509-0.50129-0.89782-1.0287-1.3257-1.5385-0.22719-0.27093-0.45473-0.54151-0.6851-0.80998-0.26282-0.30656-0.52423-0.62583-0.7881-0.94791-0.95638-1.168-1.9452-2.376-3.1792-3.1905l-0.0857-0.0568 0.0977-0.0325c0.87983-0.29069 1.5116-0.74295 1.8785-1.3441 0.47272-0.7747 0.66534-1.8383 0.50271-2.7764-0.0109-0.50165-0.32209-0.98319-0.62477-1.3892-0.96203-1.2894-2.279-2.3068-3.5454-3.2382-4.0728-2.9965-7.5759-4.7614-10.71-5.3954-0.29669-0.0596-0.74471-0.15064-1.1642-0.15064-0.38312 0-0.67874 0.072-0.90382 0.21908-0.8703 0.32738-1.6732 0.99518-2.1054 1.7473-0.35137 0.61207-0.44379 1.3846-0.27481 2.2969l0.01905 0.10231-0.09172-0.049c-1.2277-0.65652-2.6596-0.93556-4.0442-1.2054-0.22472-0.0437-0.44768-0.0871-0.66816-0.13194-0.33232-0.0674-0.66428-0.13582-0.99624-0.2039-0.5334-0.10972-1.0672-0.21943-1.6013-0.32562-0.25224-0.0505-0.51329-0.127-0.78952-0.20778-0.48613-0.14253-0.98884-0.28999-1.4559-0.28999-0.06526 0-0.13018 3e-3 -0.19403 9e-3 -0.30656 0.0296-0.52246 0.12242-0.64206 0.27588-0.03245 0.0254-0.04939 0.043-0.06279 0.0649-0.77611 1.2845-1.5452 2.6014-2.2892 3.8749-1.0343 1.7713-2.104 3.6026-3.2089 5.3746-0.3616 0.58067-0.7299 1.1603-1.0993 1.7413-1.4556 2.2924-2.9609 4.6627-4.1077 7.1483-0.62971 0.73624-0.25894 1.887 0.24765 2.6525 0.49071 0.74154 0.96661 1.5099 1.4273 2.2525 0.40816 0.65863 0.83009 1.3395 1.2608 1.9995 1.239 1.8976 2.6091 3.864 4.0728 5.8441 0.80751 1.0918 1.6245 2.1191 2.4296 3.0526 0.12912 0.14994 0.25894 0.30339 0.39017 0.45862 0.6671 0.7881 1.3568 1.6037 2.1675 2.1971 0.03422 0.0353 0.06315 0.0572 0.09596 0.0737 0.03246 0.0219 0.06138 0.0349 0.09737 0.0455 1.8676 0.89183 4.2418 1.2076 6.3366 1.4866 0.30939 0.0413 0.61348 0.0815 0.90946 0.12277 2.3968 0.33549 4.8391 0.59972 7.2591 0.78563 0.77929 0.0596 1.5727 0.10196 2.34 0.14288 0.8576 0.0459 1.7441 0.0931 2.6151 0.1651 0.12171 0.01 0.2473 0.0155 0.37465 0.0155" style="fill:#947f8e"/>
  <path d="m92.977 135.71c-0.81809-0.91475-1.5628-1.8955-2.2239-2.9295-0.12418-0.19367-0.28222-0.41204-0.51223-0.41874-0.33443-0.01-0.48895 0.4138-0.50341 0.74824-0.02046 0.48507 0.04445 0.97402 0.1912 1.4372-0.23036-0.25047-0.37606-0.57714-0.40852-0.91616 0.0067 0.44027 0.07373 0.87912 0.19861 1.3014-0.22719-0.387-0.38065-0.81633-0.4505-1.2594-0.06668 0.58843-0.13335 1.1769-0.20002 1.765-0.20638-0.25718-0.4378-0.4946-0.68968-0.70803-0.06597 0.23707-0.16157 0.46567-0.28399 0.6791-0.03528 0.0614-0.0755 0.12418-0.13794 0.15769-0.10548 0.0568-0.2346 0.0116-0.34572-0.0335-2.165-0.88018-4.3967-1.597-6.6696-2.1421-0.30057-0.072-0.69039-0.10618-0.84702 0.16052-0.12982 0.22119-0.0014 0.49918 0.12982 0.72002 0.69462 1.1691 1.4926 2.2768 2.3816 3.3062 0.33584 0.38876 0.68474 0.76623 1.0333 1.1437 0.54504 0.5902 1.0904 1.1804 1.6355 1.7706 0.63182 0.68403 1.3053 1.4753 1.2615 2.4052-0.0025 0.048-0.0092 0.1009-0.04551 0.13194-0.03951 0.0335-0.09772 0.0282-0.14887 0.0191-0.82726-0.14957-1.4524-0.81033-2.0154-1.4347-0.37077-0.41134-0.74189-0.82303-1.1127-1.2344-0.49248-0.54646-0.98566-1.094-1.4104-1.6944-0.7105-1.0044-1.24-2.1678-2.1819-2.9591 0.31186 0.86502 0.62371 1.7297 0.93557 2.5947 0.20461 0.56691 0.41063 1.1409 0.47308 1.7406 0.06209 0.59937-0.03351 1.2368-0.38629 1.7254-0.36795 0.51011-0.96873 0.80292-1.3843 1.2753 0.58702 0.0339 1.1846-0.19438 1.5998-0.61066-0.3295 0.50871-0.76659 0.94756-1.2742 1.2792 0.39864-0.0536 0.84561-0.12029 1.204-0.30303-0.54292 0.77893-1.4383 1.2446-2.3506 1.5078-0.91193 0.26352-1.8644 0.35278-2.7929 0.54998-2.6208 0.55633-5.0447 2.0006-6.7814 4.0407-0.25118 0.29527-0.49565 0.61736-0.57362 0.99695-0.06844 0.33267-0.0018 0.67839 0.0956 1.0036 0.7687 2.565 3.2868 4.1578 5.7058 5.3061 1.9283 0.91546 4.0802 1.7142 6.1574 1.2234 1.1187-0.26423 2.116-0.883 3.0857-1.4997 0.36901-0.23459 0.74507-0.4773 1.0111-0.82408 0.60748-0.79129 0.50553-1.9103 0.8756-2.8367 0.20849-0.52141 0.56197-0.96908 0.89006-1.4249 0.53446-0.74224 1.0121-1.5247 1.428-2.3389 0.71191-1.3935 1.2608-2.9065 2.3135-4.064 0.59161-0.65087 1.3303-1.1673 2.1445-1.5 0.70661-0.28892 1.4647-0.43991 2.1654-0.74295 0.70097-0.30303 1.3709-0.80292 1.6189-1.5251 0.35736-1.0421-0.26211-2.159-0.96626-3.0064-0.70414-0.84702-1.6288-1.5018-1.8387-2.5834" style="fill:#94979b"/>
  <path d="m97.193 138.5c-2.2539-1.2393-4.2644-2.9192-5.8847-4.917 0.28469 0.72602 0.65299 1.4189 1.0954 2.0609-0.51682-0.3937-0.97226-0.86783-1.3455-1.3998 0.26211 0.82938 0.66922 1.6129 1.1977 2.304-0.56339-0.4893-1.094-1.016-1.5871-1.5759 0.369 0.69497 0.73801 1.39 1.1074 2.0846-0.50271-0.56304-1.0051-1.1261-1.5074-1.6895 0.83185 1.6143 2.0267 3.0399 3.4703 4.1413-2.2331-0.97613-4.106-2.7538-5.1978-4.9329-0.1965 0.56762-0.52493 1.0887-0.95215 1.5106 1.6108 1.2188 3.0466 2.6691 4.2496 4.2926-0.6671-0.30585-1.2742-0.74224-1.7766-1.277 0.68792 0.62018 1.3762 1.24 2.0641 1.8598-0.7045-0.51576-1.409-1.0315-2.1135-1.5473 0.61877 0.59337 1.2379 1.1867 1.857 1.7801-0.60607-0.4251-1.2118-0.84985-1.8179-1.2749 0.51506 0.58914 1.0799 1.1342 1.6866 1.6277-0.84067-0.58561-1.6503-1.216-2.4243-1.8874 0.49001 0.66428 1.0799 1.2548 1.7438 1.7456-1.1328-0.7239-2.1975-1.5543-3.1754-2.4765 0.65687 0.69462 1.1603 1.5335 1.4644 2.4402-0.133 0.16828-0.40111 0.0751-0.58561-0.0346-1.9459-1.1575-3.6421-2.7323-4.9414-4.5865 0.28258 0.50412 0.5655 1.0079 0.84808 1.512-0.51188-0.54998-1.0234-1.1-1.5349-1.6499 0.29916 0.57326 0.63182 1.1292 0.99519 1.664-1.4277-1.4453-2.7488-2.9954-3.949-4.6344-0.03069-0.0416-0.0635-0.0854-0.11148-0.10477-0.16545-0.0674-0.27164 0.1845-0.25612 0.3623 0.0568 0.64593 0.41698 1.2206 0.77188 1.7632 2.1869 3.3412 4.5674 6.5553 7.1254 9.6217 0.15875 0.1898 0.29316 0.33373 0.20532 0.5648-2.4102-0.63394-4.1106-2.7234-5.6367-4.6937 0.66287 2.044 1.7537 3.9479 3.181 5.5541-0.63182-0.48013-1.2633-0.96026-1.8948-1.4404 0.38453 0.52247 0.80927 1.0156 1.2693 1.4732-0.35066-0.22648-0.70132-0.45296-1.052-0.67945 0.36936 0.49883 0.73836 0.99731 1.1077 1.4958-0.59761-0.45967-1.1952-0.91899-1.7925-1.3786 1.052 0.60924 1.4146 2.1572 0.74224 3.1701-0.50976 0.76799-1.4337 1.144-2.3259 1.3744-2.1117 0.54469-4.3706 0.50659-6.4625-0.1083 0.82021 0.57926 1.7586 0.9906 2.7404 1.2012-1.1003 0.11254-2.2218 0.01-3.2829-0.30197 0.70097 0.45367 1.4693 0.80327 2.2719 1.0336-0.81068 0.11253-1.6514 4e-3 -2.407-0.31151 0.71226 0.48013 1.5124 0.82938 2.3484 1.0248-1.5639 0.139-3.156-0.0483-4.645-0.54645-1.36-0.45508-2.7555-1.3201-3.1006-2.7122-0.53552 0.19156-0.77576 0.85584-0.67486 1.4157 0.10089 0.55951 0.45579 1.0354 0.80398 1.4852 2.1837 2.8204 4.5251 5.5188 7.0093 8.079 1.8581 1.9145 3.8753 3.8019 6.3849 4.7078 3.9208 1.4153 8.3104 0.1785 12.047-1.6697 2.7848-1.3772 5.3989-3.0889 7.8334-5.0197 0.68474-0.54328 1.3617-1.1102 1.8941-1.8038 0.53164-0.6925 0.90876-1.499 1.4838-2.1558 0.71225-0.81315 1.7191-1.3628 2.7884-1.5215-4.5731-1.4467-9.4675-1.5483-14.112-2.746-1.5572-0.40147-3.1852-0.99801-4.1247-2.3033-0.15769-0.21872-0.29774-0.48507-0.23601-0.74754 0.11254-0.47589 0.74401-0.56479 1.233-0.54292 2.7439 0.12418 5.4744 0.54151 8.1305 1.2425 0.76941 0.20285 1.5568 0.4318 2.3481 0.34431 0.79128-0.0878 1.5984-0.58314 1.7812-1.3578 0.11183-0.47519-0.0198-0.99342 0.1531-1.4499 0.16299-0.43144 0.58949-0.85266 0.39829-1.2725-0.23707-0.5207-1.0463-0.28822-1.5554-0.55034-0.58808-0.30339-0.58385-1.1275-0.84878-1.7342-0.2406-0.5514-0.73237-0.9451-1.2058-1.3162-1.1458-0.89817-2.0376-1.8831-3.3136-2.5848" style="fill:#808285"/>
  <path d="m68.55 153.56c0.87171 1.4231 1.8327 2.7996 2.7859 4.1688 1.3194 1.8951 2.7009 3.7391 4.1557 5.5326 1.2979 1.5998 2.885 3.0476 4.1106 4.6951 2.092 0.28928 4.1825 1.0036 6.2685 1.378 2.2144 0.39758 4.4369 0.71226 6.6742 0.95144 1.6898 0.18097 3.3934 0.37289 5.092 0.44203 0.9151 0.0374 2.0426 0.12771 2.8152-0.38664 1.7822-3.1644 3.6565-6.2777 5.4367-9.4446 1.5621-2.7795 3.1154-5.63 5.122-8.1227-0.91299 0.10301-2.1442-0.17886-2.6346-0.22683-2.2698-0.22261-4.5339-0.48402-6.792-0.80716-2.3216-0.33267-4.638-0.72355-6.9384-1.1804-1.3106-0.26-2.8138-0.44415-4.0206-1.0682-0.02399-8e-3 -0.04727-0.0187-0.07056-0.0335-0.02187-0.012-0.04127-0.0258-0.05856-0.0406-1.3596-0.90911-2.4176-2.4553-3.4378-3.6946-2.9221-3.5504-5.6459-7.2482-8.225-11.054-0.21131-0.3115-0.72249-0.99166-0.9906-1.6309-1.222 2.9884-2.9905 5.7453-4.6909 8.4758-1.9205 3.0829-3.749 6.2226-5.6656 9.3066-0.08325 0.95497 0.57432 1.9399 1.064 2.7393m42.346-2.467c-0.66816-0.93875-1.4111-1.8235-2.1809-2.6811-1.2157-1.3547-2.7097-2.5093-3.8343-3.9416-0.20532 0.23989-0.40005 0.49248-0.57326 0.73483-0.0438 0.061-0.0833 0.12489-0.12418 0.18803 0.21449-0.0899 0.45861-0.0998 0.75283 0.0169 1.27 0.50553 2.6151 2.5982 3.4096 3.6587 0.22508 0.30056 0.45332 0.63958 0.42898 1.0139-0.0247 0.37465-0.44838 0.72602-0.77223 0.53693l1.1726 0.77399c-5.9757-0.2928-11.927-1.095-17.767-2.395-0.11112-0.0247-0.2219-0.0511-0.33196-0.0804 1.4598 0.56268 3.114 0.7934 4.6323 1.0827 2.6444 0.50341 5.3058 0.92321 7.9633 1.3511 2.2694 0.36583 4.6228 0.90029 6.9243 0.98743 0.16651 6e-3 0.51258 0.061 0.66004-0.0328 0.53199-0.33867-0.11853-0.87383-0.36054-1.2136m-4.312-8.7461c0.19332-0.36125 0.37218-0.80469 0.49248-1.2668-0.28928 0.70662-1.2961 1.3772-1.9018 1.5586 0.23778-0.0713 0.25859-0.44909 0.0617-0.60008-0.19685-0.15134-0.49354-0.0981-0.68898 0.0543-0.19579 0.15275-0.31397 0.38135-0.42615 0.6029 0.12488 0.20602 0.38982 0.31644 0.62406 0.25999-0.63888 0.39264-1.4168 0.55316-2.1586 0.44591 0.64452 0.19121 1.3363 0.21943 1.9942 0.0819-0.58244 0.34678-1.2753 0.50553-1.9509 0.44697 0.24271 0.0303 0.48507 0.0607 0.72778 0.091 1.2735-0.25929 2.5305-0.37253 3.2262-1.6746m-6.6806-8.6311c-1.7985-1.0661-3.6886-2.0433-5.667-2.7312-0.54469-0.18944-2.8554-1.1236-3.2812-0.40393-0.26035 0.43956 0.38065 1.2171 1.0051 1.8348-0.02611-0.19121 0.04233-0.36266 0.25788-0.49107 0.40322-0.24024 1.7117 0.2473 2.1428 0.3549 0.75953 0.18979 1.5064 0.42862 2.2408 0.6992 1.6686 0.61489 3.2692 1.3981 4.8539 2.2017 0.99307 0.50341 1.9971 1.0298 2.9305 1.6422-1.3949-1.1663-2.9214-2.1812-4.4828-3.1066m3.4452 11.723c0.0631-0.13477 0.13828-0.26423 0.22472-0.38841-0.072 0.0413-0.14535 0.0794-0.2212 0.11042-0.44908 0.18485-0.94579 0.21484-1.4312 0.2159-0.71296 1e-3 -1.4256-0.0557-2.1294-0.17039 0.61912 0.25646 1.2622 0.45473 1.9184 0.5909-0.47484-5e-3 -0.94932-0.0106-1.4242-0.0159 0.39652 0.0956 0.79304 0.19121 1.1896 0.28716-0.69286 0.11395-1.4136 0.0536-2.0772-0.17462 0.49565 0.19967 0.99095 0.3997 1.4866 0.59937 0.15839 7e-3 0.31644 9e-3 0.47378 7e-4 0.91299-0.0487 1.4111-0.51082 1.99-1.0552m-14.225-13.43c-0.83749 1.282-0.26176 2.479 0.1263 3.7733 0.0575 0.19191-0.23354 0.30551-0.3235 0.12912-0.14711-0.28893-0.28716-0.60855-0.40675-0.94474-0.14746 0.75635-0.46884 1.4951-1.1165 1.9032-0.15734 0.0988-0.37042-0.0734-0.31574-0.24729 0.14076-0.4445 0.42369-0.82445 0.62477-1.2432 0.13159-0.27376 0.26176-0.5715 0.375-0.87277-1.8129-0.29175-3.5609-1.0566-5.3481-1.4746-1.1211-0.26246-2.2553-0.48824-3.399-0.623-0.41099-0.0483-1.2002-0.36195-1.2375 0.26776-0.0095 0.15945 0.19967 0.44626 0.28857 0.59443 1.1822 1.9763 2.7838 3.7828 4.1956 5.5965 0.59372 0.76306 1.1882 1.5265 1.784 2.2885 1.2827 1.1084 2.6123 2.1625 3.9871 3.1545 0.50835 0.36689 1.0333 0.73061 1.6316 0.91793 0.59796 0.18768 1.2898 0.17568 1.8087-0.17639 0.15593-0.10548 0.30021-0.24236 0.48436-0.28116 0.248-0.0522 0.49107 0.0868 0.70873 0.21625 2.1198 1.2594 4.4768 2.1191 6.9095 2.5202 0.81245 0.13371 1.6895 0.20744 2.4197-0.17215 0.17462-0.0907 0.32878-0.22684 0.47166-0.38559-0.52388 0.24554-1.143 0.36054-1.6284 0.36125-1.844 4e-3 -3.8195-0.71332-5.4928-1.4302-3.5232-1.5095-7.3727-4.3674-8.9616-7.9654-0.04904-0.11183 0.09172-0.23848 0.18239-0.13512 1.8824 2.1463 3.6269 4.1857 5.9658 5.7471 0.18697 0.0113 0.37324-3e-3 0.5521-0.06 0.40252-0.12805 0.74612-0.51646 0.70203-0.93662-0.03175-0.29986-0.24095-0.54575-0.37994-0.81386-0.13864-0.26776-0.18803-0.64276 0.04586-0.83326 0.1083-0.0885 0.23989-0.1076 0.37641-0.091-1.4817-0.93944-2.8494-2.0733-3.8576-3.4473-0.03351-0.0455 0.03986-0.0935 0.0769-0.0568 1.0202 1.0047 2.0186 1.9614 3.2159 2.7608 1.1049 0.73801 2.2768 1.3769 3.4844 1.9293 1.0883 0.49812 2.2052 0.92781 3.3373 1.3141-1.7635-0.75777-3.4847-1.6129-5.1467-2.5735-0.46249-0.2674-0.92816-0.54821-1.2848-0.94544-0.05115-0.0572-0.10301-0.12453-0.09807-0.20108 0.0092-0.14006 0.18274-0.19297 0.31821-0.22966 0.86254-0.2353 1.3441-1.3596 0.91863-2.146 3.0155 1.6775 6.1094 3.3828 9.5162 3.9321 0.81033 0.13088 1.3346 0.0624 1.9311-0.1845-0.51294 0.0568-1.0837-0.0603-1.5409-0.1591-1.899-0.41099-3.7334-1.2831-5.4458-2.1759-2.0214-1.0537-3.9733-2.2698-5.7764-3.6664-1.1268-0.87277-2.3248-1.8292-3.1182-3.0321-0.21096-0.32032-0.43744-0.73942-0.4632-1.1426-0.44097 0.37112-0.82656 0.8255-1.0971 1.2404m-22.097 18.13c1.4358-3.1115 3.4029-5.9958 5.2102-8.8949 1.8986-3.0459 3.6424-6.1786 5.4977-9.2491 0.01799-0.0296 0.04057-0.0522 0.06597-0.0695 0.121-0.15557 0.33549-0.26211 0.67663-0.29527 0.78599-0.0765 1.6884 0.3369 2.4539 0.4893 0.86713 0.17251 1.7318 0.35384 2.5979 0.52987 1.5744 0.31962 3.2911 0.57468 4.7258 1.342-0.14958-0.80821-0.11677-1.6383 0.28081-2.3308 0.44238-0.77012 1.2517-1.4383 2.1213-1.7642 0.57785-0.37818 1.5042-0.19721 2.105-0.0755 3.8386 0.77646 7.6249 3.1193 10.73 5.4038 1.2778 0.9398 2.6 1.9678 3.5556 3.2484 0.30797 0.4131 0.62336 0.90205 0.63394 1.4108 0.16369 0.94474-0.0282 2.0228-0.50906 2.8109-0.41522 0.68051-1.1261 1.1081-1.9057 1.3656 1.5822 1.0446 2.7619 2.7298 3.9779 4.1476 0.67063 0.78211 1.3173 1.5847 2.0098 2.3474 0.32844 0.36195 0.89147 0.8382 0.84067 1.3924-6e-3 0.0691-0.0212 0.13158-0.0402 0.19085 0.0116 0.0526 7e-3 0.10866-0.0236 0.16263-1.7999 3.1034-3.708 6.1383-5.4656 9.2678-1.6686 2.9722-3.2526 6.0727-5.2832 8.8233-0.33584 0.95956-1.5773 1.1783-2.5654 1.0964-1.6489-0.13652-3.3038-0.18132-4.9544-0.30797-2.4275-0.18627-4.851-0.44838-7.2623-0.78564-2.3178-0.3242-5.1125-0.58772-7.2528-1.6108-0.03634-0.0106-0.07232-0.0254-0.10619-0.049-0.04092-0.0205-0.07444-0.0476-0.10301-0.0783-0.97649-0.71438-1.7826-1.754-2.5661-2.6631-0.84914-0.98531-1.6584-2.0098-2.4317-3.0554-1.4122-1.9106-2.7757-3.8573-4.0746-5.8469-0.91687-1.4048-1.7628-2.8533-2.6882-4.2517-0.53305-0.80574-0.88582-1.9614-0.25118-2.7009" style="fill:#231f20"/>
  <path d="m68.203 150.6c0.0314 0.79763 0.55069 1.5116 1.1998 1.9766 0.64876 0.46461 1.4199 0.72073 2.178 0.97014 2.0715 0.68192 4.838 1.4848 7.0058 1.7237-1.5903 0.21979-1.0153 1.3025 0.02469 1.3921 0.69215 0.0593 2.1745 0.1531 1.9001-0.71932-0.24906-0.40252-0.72249-0.65546-1.1952-0.63958 3.3373 0.12558 6.7028-1.2545 8.9916-3.6869-2.0602 4.1458-4.1204 8.292-6.1803 12.438 2.0959-3.574 4.1921-7.1476 6.2879-10.722 0.57397-0.97861 1.2481-2.038 2.3379-2.3541-0.32985 0.31503-0.65934 0.63042-0.98919 0.94545 0.53693-0.51647 1.2097-0.89077 1.9315-1.0746-0.56233 0.33408-1.0851 0.73483-1.554 1.1913 0.62512-0.42792 1.3148-0.7613 2.0387-0.98531-0.83009 0.62053-1.5653 1.3677-2.1721 2.208-0.44097 0.61031-0.79199 1.518-0.26211 2.0532 0.34749 0.35102 0.91017 0.34537 1.3991 0.27623 0.60008-0.0847 1.1913-0.22931 1.7625-0.43075 0.26988-0.0953 0.5835-0.27269 0.56974-0.55844-0.01482-0.31786-0.41381-0.45015-0.73201-0.46249-0.57397-0.0219-1.1525 0.0762-1.6873 0.28645 0.75636-0.7052 1.6267-1.2873 2.5672-1.7173-0.69462-4e-3 -1.3896 0.1591-2.0098 0.47166 0.56021-0.40287 1.1748-0.7306 1.8214-0.97119-0.10724 7e-3 -0.21378 0.0205-0.32068 0.0325 1.9794-0.35348 3.756-0.27375 5.8822 0.0346 1.6101 0.23354 3.2205 0.46708 4.8309 0.70027 0.77294 0.11218 1.5459 0.22436 2.3188 0.33619 0.57609 0.0836 1.7798 0.50942 2.3188 0.3362-0.51082 0.1644-1.022 0.32844-1.5328 0.49283 0.38841 0.0173 0.77646 0.0346 1.1649 0.0522-0.62865 0.36231-0.95673 1.0703-1.2658 1.7268-1.379 2.934-3.1108 5.6864-4.8376 8.4303-1.0978 1.7445-2.329 3.6004-4.2608 4.3187 0.61842 0.17568 1.2704 0.23212 1.9096 0.16474-0.69674 0.27411-1.4524 0.39794-2.2006 0.36054 0.42616 0.11607 0.85196 0.23213 1.2778 0.34819-1.4573 0.27059-2.957 0.0977-4.4281-0.0857-4.082-0.50976-8.1545-1.0982-12.214-1.765-0.67381-0.11077-1.3593-0.22719-1.9678-0.53728-0.75106-0.38276-1.3275-1.0301-1.8852-1.6626-3.3944-3.8509-6.8167-7.7403-9.3098-12.228-0.4565-0.82197-0.89394-1.7441-0.71332-2.667" style="fill:#231f20"/>
  <path d="m137.74 126.37c-0.15663-0.0702-0.31221-0.14393-0.46426-0.22366 0.15699 0.0699 0.31115 0.1457 0.46426 0.22366" style="fill:#d1d3d4"/>
  <path d="m170.55 220.19c0.43039 0.0568 0.65864 0.53481 0.76059 0.95673 0.2166 0.89606 0.21413 1.8288 0.21025 2.7506-2e-3 0.47272-0.0106 0.97155-0.25294 1.3772-0.5782-1.1963-0.66816-2.5615-0.98989-3.8509-0.0374-0.14957-0.078-0.30339-0.14323-0.44344-0.0504-0.10795-0.24871-0.30021-0.25788-0.40675-0.0247-0.28222 0.41028-0.41804 0.6731-0.38347" style="fill:#808285"/>
  <path d="m105.4 137.43c0.0945-0.0695 0.22789-0.0261 0.33302 0.0257 0.71826 0.35349 1.191 0.99625 1.9216 1.3511 0.92851 0.45085 1.983 0.71508 3.0036 0.84279 1.1144 0.13934 2.3319 0.0716 3.2286-0.60466 0.89712-0.67628 1.2626-2.1223 0.5006-2.9475-0.30833-0.33338-0.78352-0.57644-0.75071-1.0862 0.018-0.2854 0.20531-0.53164 0.45261-0.67557 1.0298-0.59937 2.2359 0.10019 2.9986 0.94156 0.70097 0.77364 1.1927 2.0814 0.41346 2.776-0.32562 0.28998-0.83785 0.4251-0.89888 0.89782-0.0279 0.21696 0.0642 0.43462 0.21731 0.59055 0.32067 0.32667 0.768 0.38876 1.1931 0.47025 2.8469 0.54681 5.4187 2.3386 6.9762 4.777 0.27588 0.4318-0.22472 0.94263-0.66922 0.68827-0.11041-0.0631-0.23353-0.12876-0.35806-0.10336-0.23989 0.0487-0.28999 0.36971-0.25789 0.61207 0.1517 1.1395 0.90312 2.105 1.7117 2.9224 0.80822 0.81703 1.7134 1.5639 2.3139 2.5439 0.60078 0.98002 0.83961 2.2899 0.23072 3.265-0.40393 0.64664-1.1095 1.046-1.5762 1.6492-0.75248 0.9719-0.77294 2.3636-0.33373 3.5116 0.25153 0.65687 0.63606 1.2573 0.87348 1.9191 0.27728 0.77152 0.33161 1.6965-0.26635 2.3244-0.28787 0.30268-0.71826 0.45438-1.1268 0.36618-0.5902-0.12665-0.77435-0.61912-0.93733-1.0798-0.27799-0.78352-0.55492-1.6224-0.56903-2.4388-0.20497-0.27658-0.43815-0.53552-0.68298-0.77153-0.70803-0.68262-1.5254-1.2594-2.1294-2.0352-0.60395-0.77576-0.97014-1.8387-0.60219-2.7503 0.19368-0.47942 0.57573-1.0156 0.29633-1.451-0.13652-0.21238-0.39123-0.30974-0.59654-0.45756-0.20497-0.14781-0.37359-0.43003-0.23883-0.64382 0.10477-0.16615 0.33937-0.19438 0.53093-0.15098 0.46813 0.10653 0.81879 0.53728 0.92145 1.0061 0.10301 0.46884-0.0106 0.96379-0.21801 1.3966-0.10513 0.21908-0.23813 0.4498-0.19403 0.68898 0.025 0.13652 0.10583 0.25506 0.1845 0.36936 0.13335 0.19332 0.26705 0.387 0.4004 0.58032 0.13759 0.19967 0.28399 0.4071 0.5006 0.51541 0.2166 0.10865 0.52387 0.0769 0.64593-0.1323 0.16651-0.2861-0.10477-0.62829-0.12171-0.95885-0.0243-0.47836 0.4632-0.79657 0.74754-1.1814 0.51047-0.68968 0.36759-1.6588 0.0868-2.4691-0.78387-2.2634-2.4973-4.1892-4.6542-5.2313-0.60784-0.29351-1.289-0.52282-1.9498-0.38594-0.66075 0.13688-1.2587 0.75741-1.1557 1.4245 0.0811 0.52458 0.53446 0.8957 0.85408 1.3194 0.31961 0.42404 0.47625 1.1144 0.0455 1.4252-0.25612 0.1845-0.60925 0.14252-0.91193 0.0519-1.2231-0.36619-2.208-1.4355-2.4733-2.6846-0.18521-0.87242-0.0395-1.7829-0.15557-2.667-0.22367-1.7053-1.4365-3.1796-2.945-4.0054-1.1571-0.63571-2.3502-0.78811-3.628-0.98461-0.36724-0.0568-0.83855-0.0744-1.046-0.43991-0.13088-0.23072-0.0952-1.2559 0.11889-1.4002 0.0459-0.0311 0.11395-0.0423 0.19156-0.0455-0.25259-0.33691-0.43709-0.71508-0.51647-1.1374-0.0222-0.11783-0.0261-0.26211 0.0709-0.33302" style="fill:#231f20"/>
  <path d="m123.66 165.99c0.32985-0.13723 0.68651 0.10231 0.96344 0.32808 0.10653 0.0871 0.2166 0.1778 0.27834 0.30128 0.084 0.16756 0.0653 0.36583 0.054 0.55315-0.061 0.99977 0.20497 2.1329 0.48825 3.0886 0.15875 0.53587 0.6671 0.87454 1.0619 1.27 0.39476 0.39582 0.69709 1.0414 0.36653 1.4922-0.1725 0.23495-0.47025 0.34008-0.756 0.39688-0.29139 0.0575-0.60007 0.0772-0.88018-0.0215-0.72919-0.25647-0.96379-1.1416-1.2037-1.8761-0.28222-0.8636-0.70979-1.6774-0.94756-2.5545-0.23812-0.87701-0.26388-1.8704 0.2219-2.6384 0.0885-0.1404 0.19967-0.27587 0.35313-0.33972" style="fill:#231f20"/>
  <path d="m126.57 155.15c-0.2353 0-0.23566-0.36583 0-0.36583 0.2353 0 0.23566 0.36583 0 0.36583" style="fill:#fff"/>
  <path d="m126.88 154.5c0.88971-1.5092-0.41945-3.1461-1.4894-4.1137-0.87242-0.78917-2.0426-1.6432-2.3424-2.8476-0.0423-0.16969 0.19932-0.28152 0.28786-0.12136 0.43427 0.7867 0.90453 1.4319 1.5716 2.0433 0.59655 0.54751 1.2365 1.0562 1.7452 1.6909 0.82409 1.0291 1.1416 2.2941 0.37677 3.4361-0.0614 0.0921-0.20673 0.01-0.14958-0.0875" style="fill:#fff"/>
  <path d="m123.67 144.3c-1.2665-1.3635-2.8155-2.14-4.608-2.5718-0.24095-0.0582-0.13512-0.40428 0.10054-0.36512 1.8196 0.30162 3.4731 1.4076 4.6076 2.8367 0.0554 0.0695-0.0367 0.16863-0.10019 0.10019" style="fill:#fff"/>
  <path d="m117.76 141.23c-0.0176-0.0208-0.0328-0.0434-0.0448-0.0677-0.10513-0.18451 0.16086-0.41064 0.3048-0.23531 0.0282 0.0346 0.0543 0.0681 0.078 0.10548 0.13688 0.21943-0.1905 0.393-0.33796 0.19756" style="fill:#fff"/>
  <path d="m126.35 172.99c-0.24236 0-0.24271-0.37641 0-0.37641 0.24236 0 0.24271 0.37641 0 0.37641" style="fill:#fff"/>
  <path d="m126.2 172.17c-0.68827-0.50271-1.7766-1.3906-1.5349-2.376 0.0219-0.09 0.15628-0.0875 0.17957 0 0.115 0.43251 0.19967 0.82162 0.4632 1.1984 0.27975 0.39899 0.64875 0.71261 0.97437 1.0714 0.0487 0.0536-0.0169 0.15381-0.0822 0.10619" style="fill:#fff"/>
  <path d="m165.2 225.06c-2.358-1.2573-4.1804-3.3387-5.6392-5.5778-0.84667-1.2996-1.6016-2.7002-1.8581-4.2302-0.24695-1.4714-0.0226-3.0004-0.35384-4.4552-0.33126-1.4548-1.5272-2.9175-3.0117-2.7672-0.42298 0.043-0.92887 0.18733-1.2174-0.12135-0.34008-0.36336-0.18485-0.81986 0.27623-1.0072 0.62865-0.25541 1.1931 0.13052 1.6824 0.49424l1.9883 1.4774c0.14852 0.11042 0.32702 0.18415 0.51223 0.18062 0.69074-0.0141 0.73343-0.89393 0.52176-1.4711-0.91969-2.5072-3.4678-3.9437-5.6321-5.5083-2.8561-2.0648-5.3097-4.6838-7.184-7.6683-0.64488-1.0269-1.2386-2.1601-1.2157-3.3726 0.0145-0.76517 0.27517-1.5039 0.3609-2.2645 0.0691-0.61559-7e-3 -1.2986-0.35807-1.7875-0.15875-0.22155-0.11501-0.53023 0.10971-0.68404 2e-3 -2e-3 5e-3 -4e-3 8e-3 -5e-3 0.21343-0.14464 0.50412-0.10195 0.66075 0.10301 0.2667 0.3489 0.3235 0.88759 0.33726 1.3547 0.0476 1.597 0.12912 3.247 0.8322 4.6817 0.72284 1.4743 2.28 2.6695 3.9169 2.4109 0.49848-0.079 0.93522-0.41486 1.0922-0.89464 0.1771-0.54222-0.20919-0.68933-0.38029-0.98672-0.1972-0.34325-7e-3 -0.84561 0.3683-0.97155 0.37536-0.12629 0.83044 0.1591 0.88018 0.55175-0.14746 0.53939-0.13864 1.1105-0.0624 1.6644 0.30127 2.1819 1.6196 4.1099 3.212 5.6318s3.4678 2.7083 5.2395 4.0167c0.72883 0.53834 2.812 1.8482 3.218 4.6069 0.21555 1.4647-0.0801 3.1097-0.54504 4.5156-0.29845 0.9017-0.82162 1.718-1.1024 2.6257-0.64029 2.069 0.0864 4.3818 1.4362 6.0759 1.3501 1.6937 3.0646 3.3863 5.1844 3.8301 2.3583 0.49318 4.2721 3.4124 3.5197 4.6743-0.68051-1.8595-2.5739-3.2473-3.5292-3.6862-1.0813-0.49742-2.2151-0.87489-3.2674-1.4362" style="fill:#231f20"/>
  <path d="m140.44 184.95c0.58491 0.0526 1.1952 0.0289 1.7304 0.27058 0.2466 0.11113 0.4879 0.30903 0.51365 0.5782 0.0261 0.26917-0.29775 0.54081-0.51823 0.38453-0.09-0.0639-0.1337-0.17251-0.19227-0.26599-0.2607-0.41522-0.83749-0.52-1.3148-0.40887-0.47766 0.11077-0.89711 0.38664-1.3444 0.58702-1.1924 0.53375-2.6226 0.50659-3.7938-0.0727-1.1712-0.57891-2.0613-1.6986-2.3615-2.9704-0.29245-1.2404-0.0522-2.594-0.54892-3.7677-0.0963-0.22754-0.23425-0.45826-0.46038-0.55703-0.1531-0.067-0.32632-0.0646-0.48754-0.10725-0.16122-0.0427-0.32737-0.15981-0.33337-0.32632-6e-3 -0.17392 0.17568-0.30833 0.34995-0.31256 0.17392-4e-3 0.3355 0.0861 0.4819 0.18027 0.41663 0.26917 0.80151 0.60784 1.0396 1.0432 0.24624 0.45085 0.31927 0.97226 0.46214 1.4662 0.21626 0.74753 0.60114 1.4457 1.1183 2.0274 0.30692 0.34572 0.69603 0.6664 1.1571 0.69709 0.46143 0.031 0.96344-0.36054 0.88688-0.81668-0.0533-0.31644-0.33866-0.53022-0.5782-0.74365-0.23954-0.21344-0.46743-0.52882-0.35877-0.8308 0.0691-0.19191 0.26387-0.3175 0.4646-0.35489 0.2212-0.0409 0.51965 0.0984 0.47273 0.31856-0.0162 0.0748-0.0699 0.13511-0.10584 0.20284-0.14711 0.27552 0.0148 0.6096 0.1838 0.87242 0.81315 1.2644 1.9233 2.7619 3.537 2.9065" style="fill:#231f20"/>
  <path d="m149.54 188.94c0 0.49212 0.39899 0.89112 0.89112 0.89112 0.49212 0 0.89076-0.399 0.89076-0.89112s-0.39864-0.89112-0.89076-0.89112c-0.49213 0-0.89112 0.399-0.89112 0.89112" style="fill:#231f20"/>
  <path d="m158.07 197.21c0 0.30304 0.24589 0.54892 0.54892 0.54892 0.30304 0 0.54892-0.24588 0.54892-0.54892s-0.24588-0.54892-0.54892-0.54892c-0.30303 0-0.54892 0.24588-0.54892 0.54892" style="fill:#231f20"/>
  <path d="m107.39 136.89c0 0.49424 0.4004 0.89464 0.89464 0.89464 0.49425 0 0.89465-0.4004 0.89465-0.89464s-0.4004-0.89464-0.89465-0.89464c-0.49424 0-0.89464 0.4004-0.89464 0.89464" style="fill:#231f20"/>
  <path d="m120.59 139.62c0 0.32773 0.26564 0.59372 0.59372 0.59372 0.32809 0 0.59373-0.26599 0.59373-0.59372 0-0.32808-0.26564-0.59372-0.59373-0.59372-0.32808 0-0.59372 0.26564-0.59372 0.59372" style="fill:#231f20"/>
  <path d="m118.56 150.39c0 0.3877 0.31432 0.70167 0.70167 0.70167 0.38771 0 0.70203-0.31397 0.70203-0.70167s-0.31432-0.70167-0.70203-0.70167c-0.38735 0-0.70167 0.31397-0.70167 0.70167" style="fill:#231f20"/>
  <path d="m156.38 202.27c2.0493 1.451 4.4072 2.975 5.4395 5.3675 0.44062 1.0213 0.60431 2.1512 0.34925 3.2417-0.14781 0.63253-0.42827 1.2241-0.66287 1.8267-0.23671 0.60819-0.30833 1.2192-0.4833 1.838-0.0448 0.1577-0.29175 0.16863-0.33056 0-0.22613-0.97931 0.4445-2.0761 0.77541-2.9654 0.44026-1.1843 0.47731-2.3629 0.0314-3.5595-0.88759-2.3841-3.2018-4.185-5.183-5.6392-0.0645-0.0476-3e-3 -0.15733 0.0642-0.10971" style="fill:#fff"/>
  <path d="m160.75 216.09c-0.31821 0-0.31891-0.49495 0-0.49495 0.31856 0 0.31891 0.49495 0 0.49495" style="fill:#fff"/>
  <path d="m150.08 195.86c-0.97931 0.21731-1.8334 0.24836-2.7051-0.30833-0.61454-0.39264-1.5025-1.0484-1.4108-1.8669 0.0123-0.10971 0.15452-0.16721 0.21872-0.0593 0.40887 0.68756 0.79058 1.1945 1.4916 1.6245 0.73237 0.44908 1.5494 0.44697 2.3816 0.43356 0.0998-2e-3 0.12418 0.15417 0.024 0.17639" style="fill:#fff"/>
  <path d="m150.74 195.89c-0.28575 0-0.2861-0.44415 0-0.44415 0.28575 0 0.2861 0.44415 0 0.44415" style="fill:#fff"/>
  <path d="m95.752 219.71c2.3372-0.19438 4.632-0.79199 6.833-1.5868 4.4838-1.6196 8.6896-3.991 13.274-5.2973 4.5851-1.3063 9.8496-1.4034 13.778 1.2979 0.81633 0.56127 1.7208 1.2711 2.6825 1.0326 0.42968-0.10653 0.81739-0.40075 1.2601-0.39334 0.44274 7e-3 0.84808 0.62653 0.4819 0.87524-1.4072 1.0269-3.3941 0.35242-4.9011-0.52176-1.5071-0.87383-3.1164-1.9636-4.8309-1.6563-0.63924 0.11465-1.2785 0.46849-1.5385 1.0636-0.3055 0.70027 6e-3 1.5505 0.55951 2.0764 0.55386 0.526 1.3014 0.79093 2.0355 1.0012 8.0846 2.3121 16.821-0.41275 25.108 1.0132 3.2646 0.56197 6.3535 1.7484 9.3419 3.1976 0.73624 0.5013 1.4584 1.0224 2.1548 1.5783 0.70097 0.55951 1.4499 1.1688 2.1883 1.821-6.5846-4.1099-14.516-5.9782-22.322-6.2212-9.2146-0.28645-18.359 1.5282-27.34 3.6114-1.8023 0.41804-3.8562 0.80398-5.3728-0.25612-0.24977-0.17427-0.49707-0.44908-0.4244-0.74471 0.11007-0.44732 0.74683-0.42475 1.1952-0.31962 3.1732 0.74436 6.6026 0.34255 9.5176-1.1151 0.39511-0.19755 0.84419-0.55033 0.72742-0.97613-0.061-0.22331-0.26493-0.37395-0.46072-0.49742-2.9453-1.8584-6.767-1.5487-10.122-0.61525-3.3553 0.9331-6.5885 2.4268-10.055 2.7637-3.5422 0.34395-9.4975 0.34395-11.46-1.9569 2.2507 1.3021 5.9965 0.96661 7.6902 0.82585" style="fill:#231f20"/>
  <path d="m109.82 215.86c2.2222-1.325 4.5491-2.2218 7.076-2.7795 0.91616-0.20249 1.8429-0.36477 2.7753-0.47201 0.56339-0.0646 1.2125-0.18274 1.7759-0.0706 0.24836 0.0494 0.16722 0.39652-0.0561 0.41557-1.5102 0.1263-2.9792 0.24448-4.47 0.56868-2.3915 0.52-4.8708 1.2908-7.0146 2.4857-0.0963 0.054-0.18133-0.0914-0.0864-0.14781" style="fill:#fff"/>
  <path d="m122.38 212.62c0.0564-0.20637 0.30797-0.2099 0.43427-0.0632 0.15205 0.17674 0.0187 0.43921-0.20708 0.44627-0.2032 6e-3 -0.38276-0.18204-0.32279-0.38771 0.0617-0.21166 0.33408-0.29668 0.51223-0.17744 0.0769 0.0515 0.11218 0.13441 0.0917 0.22507-7e-3 0.0356-0.0159 0.0702-0.0272 0.10477-0.072 0.24695-0.42333 0.14147-0.37959-0.10477 5e-3 -0.0356 0.0127-0.0713 0.0222-0.10583 0.0303 0.0748 0.061 0.14993 0.0917 0.22507 0.0113-1e-3 0.0226-4e-3 0.0335-8e-3 -7e-3 -0.18908-0.0314-0.21484-0.0741-0.0765-0.0561 0.0469-0.0642 0.078-0.025 0.0938-0.0353-7e-3 -0.0282-7e-3 0.0219 3.5e-4 -0.10266 0.0395-0.19791-0.0773-0.1718-0.1718" style="fill:#fff"/>
  <path d="m136.35 215c0 0.41099 0.33337 0.74436 0.74436 0.74436 0.41134 0 0.74436-0.33337 0.74436-0.74436s-0.33302-0.74436-0.74436-0.74436c-0.41099 0-0.74436 0.33337-0.74436 0.74436" style="fill:#231f20"/>
  <path d="m96.318 217.16c0 0.39229 0.31821 0.71049 0.71049 0.71049 0.39229 0 0.7105-0.3182 0.7105-0.71049s-0.31821-0.71049-0.7105-0.71049-0.71049 0.3182-0.71049 0.71049" style="fill:#231f20"/>
  <path d="m90.663 215.17c0 0.50553 0.40993 0.91546 0.91581 0.91546 0.50553 0 0.91546-0.40993 0.91546-0.91546 0-0.50588-0.40993-0.91581-0.91546-0.91581-0.50588 0-0.91581 0.40993-0.91581 0.91581" style="fill:#231f20"/>
  <path d="m89.07 219.04c-1.0615-0.33267-2.0969-0.75389-3.1785-1.0153-1.7597-0.4251-3.6234-0.41311-5.3774 0.0349-0.97931 0.25012-1.923 0.63288-2.9115 0.84596-0.98813 0.21273-2.0592 0.24342-2.9714-0.19226 0.99307 1.0961 2.6691 1.2315 4.1335 1.0262 1.4647-0.20567 2.9228-0.67522 4.3917-0.50165 0.84138 0.0991 1.6418 0.40569 2.4398 0.68897 3.0678 1.0894 6.2784 1.8754 9.5338 1.8951s6.5705-0.76553 9.259-2.6014c-5.1068 0.393-10.325 1.385-15.319-0.18062" style="fill:#231f20"/>
 </g>
 <g transform="translate(-237.07 -63.316)">
  <g transform="matrix(.35278 0 0 -.35278 258.89 230.36)">
   <path d="m0 0c-0.232 1-0.543 4.451-0.686 6.031l-0.077 0.853c-0.158 1.672-0.302 3.347-0.432 5.022-1.393 17.938-1.802 37.165-1.286 60.509 0.311 14.104 0.986 28.093 2.007 41.578-0.238 1.61-0.44 3.222-0.635 4.781-0.425 3.384-0.864 6.883-1.676 10.282-1.326 5.552-3.583 11.266-6.899 17.471-4.521 8.458-11.009 18.805-21.134 23.789-0.157 0.078-0.194 0.222-0.175 0.331 0.016 0.093 0.082 0.208 0.215 0.223 0.043 5e-3 0.091-1e-3 0.142-0.018 7.281-2.396 14.389-7.104 20.016-13.259 2.801-3.064 5.393-6.839 7.923-11.543l0.113-0.211c0.49-0.91 0.993-1.845 1.487-2.798l0.241 0.11c-2.153 5.401-4.206 9.666-6.461 13.422-3.98 6.63-8.543 12.604-14.093 19.724l-1.009 1.289c-6.416 8.176-16.113 20.531-9.94 30.891l0.024 0.039-6e-3 0.046c-0.374 2.795-0.564 5.78-0.566 8.872-7e-3 8.914 2.149 15.578 6.588 20.372l0.161 0.181c0.135 0.142 0.279 0.223 0.428 0.24 0.232 0.027 0.472-0.104 0.642-0.351 0.211-0.305 0.251-0.689 0.102-0.979-1.097-2.13-1.296-4.855-0.548-7.475l0.133-0.464 0.123 0.467c0.57 2.158 1.731 4.102 2.678 5.555 2.013 3.084 4.093 6.273 5.471 9.931 2.578 6.846 3.428 14.222 4.25 21.354l0.062 0.535c0.895 7.759 1.827 14.731 4.176 21.462 2.381 6.827 6.178 13.332 11.284 19.333 0.098 0.114 0.253 0.191 0.428 0.212 0.213 0.024 0.417-0.037 0.532-0.161 0.093-0.1 0.124-0.235 0.093-0.4-1.288-6.75-0.625-13.771 1.916-20.305l0.254 0.075c-2.549 12.05-0.426 24.655 5.824 34.582 7.502 11.917 20.584 21.118 33.327 23.44l0.066 0.012 0.03 0.06c3.291 6.725 8.996 12.412 14.557 17.66 7.361 6.946 15.783 13.176 25.032 18.517 0.106 0.061 0.216 0.099 0.326 0.112 0.455 0.052 0.817-0.306 0.96-0.662 0.164-0.405 0.071-0.79-0.247-1.033-2.452-1.87-4.341-4.166-5.613-6.825l0.208-0.156c7.833 7.005 16.495 12.736 25.747 17.033 9.386 4.359 19.397 7.294 29.756 8.723 0.608 0.084 1.215 0.161 1.824 0.232 7.248 0.841 14.647 0.783 21.802 0.727 3.268-0.026 6.648-0.052 9.975 7e-3 3.694 0.066 6.943 0.267 9.933 0.614 8.867 1.03 16.025 3.463 21.884 7.438 8.336 5.657 13.237 13.68 13.447 22.014 0.011 0.412 0.229 0.673 0.599 0.716 0.401 0.046 0.909-0.188 1.062-0.66 4.459-13.735 3.325-29.103-3.112-42.162l0.217-0.148c3.898 4.33 6.668 9.416 8.235 15.118 0.088 0.319 0.304 0.515 0.608 0.55 0.415 0.049 0.945-0.224 1.075-0.708 2.65-9.878-1.746-19.477-6.075-27.698-3.041-5.775-4.895-10.308-6.201-15.157-1.265-4.701-2.574-9.562-4.791-14.159-7.437-15.412-22.207-28.153-40.523-34.957l-0.102-0.038 0.017-0.106c0.44-2.906-1.415-5.691-5.516-8.278-3.674-2.317-8.163-3.797-13.34-4.398-0.983-0.115-2.006-0.199-3.042-0.251-6.61-0.33-13.212 0.764-19.596 1.822-2.755 0.457-5.605 0.929-8.419 1.282l-0.125 0.015-0.022-0.123c-2.31-12.585-10.349-22.517-18.123-32.121-3.564-4.403-7.25-8.956-10.33-13.702-10.837-16.696-16.589-36.779-16.198-56.552l0.26-0.035c0.691 2.414 1.143 4.634 1.383 6.787 0.061 0.547 0.494 0.839 0.895 0.885 0.332 0.039 0.767-0.081 0.995-0.534 4.586-9.102 1.146-18.386-1.313-23.11-4.505-8.655-12.186-14.339-18.375-18.324-2.883-1.856-5.875-3.632-8.769-5.349-5.914-3.509-12.029-7.137-17.482-11.619-2.767-2.275-5.503-4.806-8.132-7.525l0.184-0.191c2.324 2.075 4.671 3.996 6.978 5.708 5.982 4.443 15.023 11.156 24.174 12.219 1.64 0.191 3.255 0.197 4.8 0.019 0.306-0.035 0.481-0.283 0.518-0.513 0.033-0.201-0.031-0.462-0.308-0.592-11.565-5.386-21.74-12.138-30.242-20.067-4.996-4.658-9.106-9.148-12.567-13.728-2.436-3.223-4.547-6.705-6.589-10.071-0.698-1.152-1.398-2.305-2.112-3.452l-0.018-0.03-2e-3 -0.034c-0.522-10.687-0.767-21.22-1.013-32.895-0.16-7.607-0.204-15.04-0.131-22.096 0.012-1.168-5e-3 -2.393-0.024-3.69-0.101-7.214-0.216-15.39 4.475-20.189 0.305-0.312 0.422-0.935 0.244-1.306-3.183-6.646-7.415-20.727-8.831-28.064" style="fill-opacity:.97255;fill:#88d1ea;opacity:.33"/>
  </g>
  <g transform="matrix(.35278 0 0 -.35278 293.19 126.6)">
   <path d="M 0,0 C 0.444,0.199 0.885,0.408 1.316,0.634 0.871,0.436 0.434,0.221 0,0" style="fill:#d1d3d4"/>
  </g>
  <g transform="matrix(.35278 0 0 -.35278 333.73 98.965)">
   <path d="m0 0c-4.41-3.222-9.478-5.539-14.8-6.768 3.058 1.747 5.935 3.811 8.569 6.149-2.616-1.414-5.359-2.592-8.185-3.514 3.717 2.053 7.184 4.559 10.301 7.443-1.857-1.126-4.022-1.738-6.194-1.752 1.952 1.652 2.544 3.503 3.657 5.805-3.193-2.288-6.707-4.126-10.407-5.442 2.477 1.526 4.761 3.365 6.78 5.461-3.743-2.062-7.567-3.978-11.46-5.741 3.137 1.906 6.146 4.025 8.999 6.336-6.039-2.944-12.445-5.133-19.023-6.5 3.25 1.804 6.5 3.609 9.75 5.413-4.333-1.613-8.665-3.226-12.997-4.839 5.335 2.553 10.482 5.498 15.386 8.803-5.035-1.422-10.071-2.844-15.106-4.267 2.717 1.394 5.434 2.787 8.151 4.181-3.999-1.614-8.091-2.998-12.248-4.142 4.036 1.99 8.073 3.981 12.11 5.972-9.362-2.94-18.805-5.624-28.313-8.047 2.473 1.409 5.06 2.62 7.726 3.617-3.435-0.871-6.869-1.742-10.303-2.613 3.201 1.618 6.403 3.237 9.605 4.855-9.399-2.112-18.679-4.75-27.783-7.898 3.113 2.031 6.494 3.441 10.013 4.637-8.377-0.683-16.609-3.088-24.037-7.019 1.653 1.781 3.541 3.343 5.601 4.632-9.965-3.304-20.256-6.797-27.972-13.915 2.117 2.456 4.425 4.749 6.894 6.851-6.523-2.649-13.515-5.694-17.022-11.799 1.963 3.3 4.216 6.427 6.725 9.334-3.539-2.736-6.647-6.027-9.176-9.717 1.886 3.388 4.014 6.641 6.362 9.727-3.779-3.438-7.155-7.319-10.036-11.539 1.104 2.197 2.208 4.394 3.312 6.591-2.137-2.529-4.109-5.199-5.898-7.985 2.257 4.582 5.12 8.865 8.49 12.702-7.062-4.707-13.09-10.957-17.539-18.185 1.413 3.51 2.98 6.957 4.695 10.33-2.134-3.044-4.268-6.088-6.402-9.132 0.616 2.802 1.704 5.501 3.205 7.946-3.589-3.334-6.859-7.01-9.753-10.961 2.751 5.176 5.32 10.358 8.511 15.275-8.106-2.523-14.887-8.979-17.805-16.952 0.478 1.852 0.957 3.703 1.435 5.555-4.818-4.148-8.102-10.038-9.097-16.317 0.439 2.951 0.878 5.901 1.317 8.851-1.778-4.087-3.555-8.173-5.333-12.26 0.332 1.801 0.277 3.057 0.608 4.858-2.821-1.94-4.912-4.916-5.781-8.228 0.11 1.664 0.22 3.329 0.329 4.993-1.692-2.686-2.863-5.698-3.431-8.821 0.3 2.648 0.601 5.297 0.902 7.945-2.291-3.445-3.604-7.532-3.749-11.667-0.05 2.956-0.101 5.912-0.151 8.867-3.987-6.327-5.928-13.922-5.465-21.386-0.858 2.798-1.232 5.745-1.101 8.669-0.717-3.9-1.167-7.849-1.345-11.811-0.86 4.981-0.902 10.102-0.122 15.096-3.846-6.987-5.368-15.229-4.27-23.128-1.018 4.087-1.571 8.29-1.642 12.502-0.764-4.371-0.982-8.836-0.648-13.26-0.924 4.709-1.086 9.567-0.478 14.328-2.328-6.415-3.51-13.244-3.473-20.068-0.498 4.35-1.071 8.271-1.57 12.621-3.738-10.018-1.71-21.154 0.361-31.643-2.148 2.224-3.966 4.767-5.376 7.519 0.487-2.166 0.974-4.332 1.462-6.497-1.862 3.927-3.725 7.855-5.587 11.782-1.26-6.053 0.654-12.267 2.546-18.154-2.319 4.717-4.539 9.482-6.66 14.291 0.039-6.006 1.287-12.002 3.648-17.524-1.235 2.004-2.47 4.008-3.705 6.012 1.021-3.147 2.041-6.295 3.062-9.442-2.542 4.009-4.773 8.215-6.668 12.567 0.55-7.336 1.767-14.622 3.631-21.739-1.694 2.162-3.185 4.484-4.445 6.925 1.475-6.338 3.62-12.521 6.388-18.41-1.932 2.008-3.43 4.432-4.363 7.058 1.141-2.835 2.073-5.753 2.784-8.725-2.021 2.661-3.724 5.561-5.064 8.621 0.852-3.558 1.703-7.117 2.555-10.675-2.094 3.433-4.188 6.866-6.282 10.3 0.356-3.221 1.05-6.405 2.066-9.482-1.544 1.748-3.396 3.118-4.49 5.178 0.806-3.596 1.612-7.193 2.418-10.789-1.567 2.094-2.95 4.327-4.126 6.663 0.102-2.555 0.595-5.093 1.455-7.501-1.183 2.435-2.367 4.869-3.551 7.304-0.413-3.901 0.015-7.89 1.246-11.614-1.596 2.591-2.731 5.467-3.334 8.45-1.734-5.989-1.709-12.476 0.069-18.452l-5.379 5.952c0.546-2.876 1.447-5.686 2.676-8.343-1.95 2.902-3.9 5.805-5.85 8.708 0.511-7.237 2.204-14.39 4.993-21.088-1.812 1.797-3.443 3.776-4.86 5.898 0.721-4.191 2.179-8.254 4.287-11.946-2.095 1.803-3.659 4.216-4.45 6.865 0.421-2.936 1.161-5.825 2.202-8.602-1.413 1.049-2.623 2.373-3.54 3.876 0.226-4.462 0.494-9.085 2.571-13.041 1.046-1.992 2.509-3.728 3.961-5.446 4.503-5.332 9.006-10.663 13.51-15.995 1.745-2.066 4.405-3.414 5.51-5.884 1.104-2.469 1.549-5.175 1.983-7.845 0.984-6.039 1.967-12.078 2.95-18.118 0.269-1.652 0.558-3.34 1.239-4.856 0.508 5.583 1.066 11.161 1.701 16.73 3.283 28.78 8.27 57.513 16.235 85.388 7.331 25.657 17.053 51.301 32.58 73.198 8.01 11.295 17.733 21.453 29.018 29.312 0.154 0.016 0.294 0.1 0.38 0.267 3.124 2.155 6.367 4.135 9.726 5.912-12.905-7.311-24.061-17.456-33.448-29.561-8.499-10.962-15.456-23.029-21.289-35.644-0.055-0.088-0.098-0.175-0.12-0.262-5.336-11.575-9.732-23.606-13.473-35.682-8.236-26.586-13.918-54.419-17.341-82.036-1.211-9.774-2.048-19.636-2.8-29.481 1.09-1.248 2.644-2.11 4.267-1.931 1.617 0.179 2.949 1.306 4.159 2.395 7.605 6.842 14.768 14.177 21.427 21.944-5.274-3.058-10.549-6.116-15.824-9.174 4.674 8.465 13.157 14.036 21.465 18.982 8.309 4.946 17.038 9.839 22.789 17.613-1.948-1.922-4.231-3.502-6.716-4.647 3.218 2.808 6.093 6.008 8.542 9.507-1.475-1.561-3.234-2.853-5.166-3.793 2.524 2.244 4.62 4.966 6.145 7.979-1.699-2.437-4.123-4.364-6.881-5.469 2.029 2.174 3.706 4.674 4.946 7.376-1.944-2.202-4.183-4.144-6.638-5.757 2.332 3.426 4.545 6.931 6.635 10.509-1.891-2.564-4.127-4.875-6.628-6.849 2.537 3.153 4.572 6.707 6.008 10.491-2.349-2.659-4.935-5.109-7.717-7.312 2.706 3.706 5.088 7.649 7.108 11.77-2.06-2.352-4.121-4.704-6.182-7.055 3.651 5.128 6.251 10.999 7.596 17.149-2.693-5.632-5.845-10.15-10.854-13.876 2.058 3.322 4.115 6.643 6.172 9.965-1.969-2.129-3.939-4.258-5.909-6.387 3.189 5.144 6.379 10.288 9.568 15.432-2.926-2.217-5.749-4.571-8.456-7.05 2.294 2.97 4.588 5.94 6.881 8.91-2.291-2.306-4.582-4.612-6.872-6.919 2.434 3.752 4.869 7.504 7.303 11.256-2.68-2.081-5.132-4.456-7.299-7.067 1.953 3.735 4.513 7.152 7.548 10.077-2.547-1.801-4.979-3.763-7.278-5.87 2.866 3.805 6.078 7.348 9.584 10.572-2.791-1.834-5.583-3.668-8.374-5.502 3.013 4.437 6.624 8.467 10.706 11.946l-8.694-4.626c2.615 2.295 5.229 4.589 7.844 6.884-2.899-1.286-5.708-2.776-8.398-4.456 3.474 3.859 7.562 7.165 12.063 9.754-3.448-1.35-6.896-2.699-10.344-4.049 3.498 3.27 7.36 6.149 11.493 8.568-3.28-1.844-6.841-3.185-10.522-3.963 3.269 2.297 6.538 4.593 9.806 6.89-2.897-1.436-5.794-2.872-8.691-4.309 5.753 3.633 11.506 7.266 17.259 10.898-4.202-1.862-8.405-3.724-12.607-5.586 6.251 3.773 12.017 8.349 17.11 13.581-4.438-2.42-8.442-3.85-12.928-6.18 5.931 3.544 11.526 7.647 16.689 12.238-2.992-2.032-6.311-3.583-9.789-4.572 5.935 3.273 11.307 7.564 15.812 12.628-2.764-2.233-5.72-4.227-8.825-5.954 6.235 3.713 11.767 8.602 16.217 14.333-4.041-4.191-8.863-7.625-14.145-10.074 5.826 3.831 11.026 8.612 15.331 14.097-4.762-3.471-9.734-6.653-14.88-9.524 4.981 2.735 9.461 6.38 13.152 10.7-2.16-1.748-4.453-3.329-6.845-4.744 3.654 2.221 6.957 5.057 9.422 8.539-3.373-1.957-7.121-3.263-10.979-3.828 1.855 1.678 3.935 3.105 6.163 4.241-2.405-1.08-4.988-1.764-7.614-2.001 2.367 2.222 5.27 3.871 8.392 4.766l-10.341-3.261c5.986 7.053 16.073 8.92 25.323 9.068s18.772-0.929 27.546 2.003c-5.352-0.954-11.005-0.138-15.869 2.291 7.799-0.649 15.652-0.63 23.447 0.055 5.42 0.476 11.151 1.424 15.23 5.026-5.334-1.778-11.219-1.857-16.599-0.225 3.447 0.872 6.894 1.744 10.341 2.616-3.754-0.634-7.633-0.524-11.345 0.322 6.521 0.712 12.966 2.122 19.188 4.199-3.764-1.144-7.228-1.768-11.095-1.035 5.557 1.395 11.043 3.072 16.431 5.021-3.248-1.19-6.828-1.458-10.217-0.766 5.176 0.908 10.257 2.357 15.133 4.316-3.349-0.786-6.773-1.253-10.211-1.394 8.354 2.823 16.423 6.488 24.046 10.921-4.985-2.176-10.379-3.413-15.814-3.628 6.546 3.535 13.092 7.071 19.638 10.607-3.744-2.109-7.919-3.448-12.19-3.908 6.561 3.047 12.935 6.499 19.073 10.327-4.201-1.869-8.591-3.316-13.081-4.311 4.503 2.45 9.007 4.9 13.51 7.35-4.281-1.686-8.6-3.273-12.954-4.76 6.581 4.145 12.97 8.596 19.139 13.334-2.667-1.177-5.334-2.353-8-3.529 5.26 4.303 9.917 9.342 13.794 14.924" style="fill:#04254e;opacity:.708"/>
  </g>
  <g transform="matrix(.35278 0 0 -.35278 331.33 97.034)">
   <path d="m0 0c-8.256-8.728-18.511-15.552-29.75-19.797 6.154 1.913 12.307 3.826 18.46 5.738-19.777-8.568-39.892-16.357-60.282-23.341 5.817 1.51 11.635 3.02 17.453 4.531-7.554-3.578-15.552-6.215-23.753-7.832 8.565 1.401 17.129 2.801 25.694 4.202-11.104-3.474-22.207-6.947-33.311-10.421-7.072-2.213-14.227-4.462-20.544-8.337 8.018 2.515 16.208 4.483 24.494 5.886-3.47-0.996-6.94-1.992-10.41-2.988 8.16 1.461 16.319 2.923 24.479 4.384-17.447-5.789-34.894-11.579-52.341-17.368 5.847 1.321 11.694 2.643 17.541 3.964-3.067-0.982-6.134-1.965-9.201-2.947 6.294 1.438 12.648 2.616 19.04 3.528-3.238-0.932-5.988-2.344-8.89-4.057 9.82 2.143 19.787 3.612 29.807 4.395-12.588-2.266-25.251-4.552-37.259-8.956 9.052 1.746 18.223 2.876 27.428 3.381-12.407-2.273-24.877-4.562-36.758-8.798 8.095 1.922 16.372 3.321 24.691 3.174-13.606-2.057-26.828-6.624-38.804-13.401 10.939 5.157 22.517 10.212 34.594 9.574-16.209-3.062-32.587-8.245-45.013-19.094 6.454 3.653 13.251 6.698 20.273 9.082-6.794-3.565-13.237-7.801-19.203-12.626 3.452 2.558 7.37 4.485 11.503 5.656-5.01-2.728-9.885-5.703-14.603-8.911 4.8 2.168 9.6 4.335 14.4 6.502-4.693-2.798-9.298-5.743-13.807-8.829 9.341 5.735 19.542 10.066 30.155 12.805-13.396-7.565-26.598-15.474-39.588-23.715 8.585 3.481 17.259 6.81 26.157 9.391-9.042-4.755-17.919-9.825-26.608-15.199 6.367 3.12 12.91 5.881 19.586 8.267-8.387-5.228-16.773-10.456-25.16-15.684l11.523 4.896c-4.675-2.365-9.138-5.149-13.317-8.307 8.398 4.287 17.173 7.835 26.19 10.59-2.682-1.463-5.364-2.926-8.046-4.39-8.621-4.703-17.372-9.502-24.308-16.455 7.192 4.753 14.958 8.634 23.077 11.532-7.471-3.802-14.357-8.751-20.342-14.621 3.435 3.009 7.337 5.483 11.523 7.306-5.725-3.39-10.209-8.482-14.591-13.489 4.172 4.027 8.782 7.599 13.722 10.635-4.44-3.465-8.569-7.328-12.321-11.53 4.971 4.672 10.718 8.516 16.933 11.328-6.343-6.054-12.561-12.141-18.903-18.194 4.388 3.243 9.004 6.181 13.801 8.783-5.082-3.281-9.651-7.353-13.492-12.025 5.326 4.526 11.013 8.628 16.988 12.255-8.569-8.232-16.191-17.449-22.669-27.411 5.487 7.68 13.203 13.446 20.974 18.803-6.463-4.56-12.13-10.244-16.672-16.719 5.459 6.582 11.893 12.371 19.111 16.957-9.812-10.463-17.842-22.44-25.825-34.357 4.026 6.181 9.727 11.052 15.346 15.832-4.533-5.41-9.066-10.819-13.599-16.229 3.853 4.655 8.347 8.777 13.316 12.213-4.062-4.228-8.124-8.455-12.186-12.683 6.207 5.069 12.414 10.139 18.621 15.208-5.513-7.433-11.622-14.726-18.438-20.985 3.791 2.475 7.403 5.223 10.798 8.217-2.194-2.76-4.608-5.345-7.212-7.722 5.336 4.056 10.673 8.111 16.008 12.167-7.266-8.933-15.757-16.78-24.215-24.594 4.969 3.481 9.763 7.212 14.358 11.173-2.699-2.593-5.397-5.187-8.096-7.781 6.065 3.256 11.85 7.031 17.273 11.269-4.012-4.758-8.392-9.206-13.088-13.29 4.176 2.914 8.351 5.829 12.527 8.744-2.837-2.846-5.93-5.436-9.229-7.73 3.776 2.052 7.37 4.441 10.723 7.129-1.779-2.017-3.735-3.877-5.839-5.552 3.946 2.106 7.893 4.212 11.839 6.318-9.996-9.156-22.348-15.586-31.685-25.413 8.081 5.635 16.656 10.563 25.593 14.709-8.956-6.532-17.505-13.621-25.582-21.214-3.519-3.307-6.998-6.775-9.323-11.008 2.719 3.099 6.056 5.653 9.757 7.469-8.715-9.846-16.206-20.774-22.246-32.454 0.764 19.151 1.547 38.443 5.957 57.095 2.229 9.427 3.191 19.64 5.039 29.15 1.719 8.844 3.443 17.712 6.17 26.3 1.315 4.144 2.498 8.604 3.873 12.73 0.981 2.94 1.961 5.882 2.942 8.823 1.69 5.069 3.381 10.142 5.363 15.104 5.144 12.88 12.195 24.897 19.218 36.857 7.205 12.27 17.816 22.59 28.713 31.74 2.51 2.107 5.082 4.144 7.804 5.967 2.641 1.768 5.415 3.328 8.225 4.813 17.389 9.19 36.276 15.537 55.686 18.715 18.587 3.042 37.591 8.762 51.763 21.167" style="fill:#ac70d7;opacity:.66"/>
  </g>
  <g transform="matrix(.35278 0 0 -.35278 330.67 97.242)">
   <path d="m0 0c-10.028-6.443-20.892-11.584-32.232-15.253 3.321 1.602 6.601 3.291 9.834 5.066-6.229-1.772-12.457-3.543-18.685-5.314 5.341 1.433 10.391 3.943 14.759 7.335-10.479-3.112-21.095-5.76-31.808-7.933 5.043 1.531 9.875 3.756 14.316 6.594-6.027-1.096-11.891-3.082-17.343-5.875 5.038 2.495 9.835 5.475 14.306 8.883-8.438-2.224-16.738-4.971-24.838-8.218 4.264 3.231 8.698 6.239 13.276 9.007-15.529-4.226-30.16-11.722-42.661-21.857 4.846 4.737 10.018 9.14 15.467 13.169-7.383-2.532-14.091-7.007-19.264-12.852 6.124 8.239 13.225 15.751 21.105 22.329-10.904-5.804-20.848-13.408-29.307-22.411 2.505 3.555 5.009 7.11 7.513 10.665-5.518-6.206-10.594-12.805-15.176-19.732 2.48 5.298 5.248 10.461 8.287 15.459-4.473-5.624-8.521-11.586-12.099-17.818 1.402 4.567 3.262 8.993 5.541 13.192-3.891-5.879-7.781-11.758-11.672-17.638 0.226 5.816 1.233 11.654 3.169 17.143-7.648-12.126-13.506-25.379-17.324-39.197 0.112 4.501 0.225 9.003 0.338 13.505-1.508-3.967-3.015-7.934-4.522-11.901 1.34 8.618 3.219 17.152 5.623 25.535-6.371-10.453-10.087-22.51-10.708-34.736-0.427 6.107-0.523 12.237-0.287 18.354-0.972-5.761-1.767-11.552-2.382-17.362-0.378 7.335-1.732 14.62-4.015 21.601-0.141-7.188-0.61-14.369-1.407-21.514-1.142 4.369-2.284 8.739-3.426 13.108 0.235-8.969 0.471-17.939 0.706-26.909-1.695 5.306-3.653 10.528-5.865 15.64 1.414-7.213 2.076-14.573 1.972-21.923-1.046 4.043-2.092 8.087-3.137 12.13 0.043-7.935-0.558-15.873-1.794-23.711-0.786 6.827-2.038 13.6-3.746 20.256 0.668-8.476 0.904-16.986 0.707-25.486-1.497 5.368-2.993 10.735-4.49 16.103 0.06-6.959 0.438-13.916 1.135-20.841-1.698 3.869-3.397 7.739-5.096 11.609 1.311-6.983 2.623-13.965 3.934-20.948-3.316 5.335-6.152 10.967-8.465 16.807 1.89-7.199 2.918-14.105 4.218-21.433-0.994 4.449-2.691 8.74-5.008 12.666 0.416-4.144 1.261-8.245 2.517-12.216-1.602 4.422-3.814 8.622-6.556 12.444l5.055-20.979c-2.204 4.684-4.408 9.367-6.613 14.051 1.262-5.981 2.524-11.962 3.786-17.943-1.66 3.481-3.32 6.962-4.98 10.444 1.017-4.285 2.033-8.569 3.049-12.853-1.795 3.359-3.59 6.718-5.386 10.077 1.986-6.266 3.972-12.533 5.957-18.8-1.869 4.722-4.321 9.213-7.282 13.339 2.028-7.979 3.493-16.1 4.381-24.285-1.199 3.622-2.398 7.243-3.597 10.865 0.029-4.173 0.611-8.343 1.727-12.364-2.528 6.484-5.867 12.652-9.916 18.313 2.161-6.87 4.321-13.74 6.481-20.611-1.788 5.744-4.635 11.157-8.355 15.885 1.74-6.605 3.817-13.122 6.219-19.516-3.269 5.205-6.84 10.219-10.692 15.009 3.56-8.889 7.12-17.778 10.679-26.668-1.938 4.681-4.455 9.123-7.473 13.192 0.494-2.203 1.4-4.313 2.657-6.188-2.409 3.724-4.995 7.332-7.748 10.81 2.689-6.858 5.378-13.716 8.067-20.575-2.376 4.191-5.303 8.069-8.683 11.502 1.59-2.896 3.18-5.791 4.771-8.687-3.445 3.159-6.89 6.319-10.335 9.478 5.946-8.738 10.323-18.539 12.862-28.799-2.475 3.73-5.193 7.297-8.132 10.674 0.859-2.398 2.088-4.663 3.629-6.691-2.939 3.069-5.724 6.285-8.342 9.632 1.807-5.217 4.298-10.198 7.387-14.775-2.346 2.608-4.692 5.216-7.038 7.823 4.217-6.446 7.65-13.404 10.201-20.672-2.782 4.284-6.327 8.071-10.417 11.132 9.519-10.577 16.8-23.159 21.227-36.683 0.122-0.374-0.569-1.061-0.91-1.258-3.048 7.277-7.328 14.035-12.604 19.901 1.386-3.454 2.995-6.82 4.812-10.068-0.625 1.609-1.577 3.089-2.781 4.325 5.249-10.933 8.933-22.617 10.904-34.584 1.775 26.388 5.437 53.071 10.596 79.01 0.38 1.91 0.77 3.838 0.715 5.785-0.2 7.109 5.013 13.926 6.498 20.882 0.439 2.056 0.819 4.125 1.33 6.164 0.688 2.745 1.609 5.426 2.529 8.103 1.453 4.228 2.906 8.455 4.359 12.683 0.763 2.218 1.525 4.436 2.287 6.654 0.86 2.501 1.72 5.004 2.73 7.449 0.874 2.116 1.859 4.185 2.843 6.253 1.391 2.923 2.783 5.846 4.174 8.769 6.158 12.938 14.82 25.331 24.49 35.904 9.67 10.574 21.32 19.521 34.593 24.919 15.068 6.127 31.348 8.944 47.177 12.689 13.554 3.207 27.358 6.27 39.599 12.915 6.49 3.523 12.218 8.386 18.103 12.846" style="fill:#ac70d7;opacity:.66"/>
  </g>
  <g transform="matrix(.35278 0 0 -.35278 332.1 105.54)" style="fill:#fff">
   <path d="m0 0c-4.452-7.305-12.598-11.849-20.251-15.343-11.685-5.334-23.852-9.208-36.288-12.373-24.492-6.233-49.621-10.183-73.407-18.972-9.228-3.409-18.534-7.885-25.559-14.824 14.147 16.539 35.248 24.642 56.027 29.88 13.211 3.331 26.635 5.849 39.673 9.849 12.145 3.727 23.882 8.768 34.917 15.066 6 3.425 11.806 7.191 17.394 11.253 4.727 3.436 9.498 7.074 12.887 11.881-2.43-5.258-3.674-10.912-5.393-16.417m-2.657-7.059c-0.748-1.601-1.57-3.151-2.459-4.651-2.854-2.889-5.68-5.745-8.911-8.256-3.767-2.926-7.83-5.471-12.104-7.588-8.974-4.445-18.563-6.761-28.532-7.425-10.375-0.692-20.736-0.708-31.068-2.033-10.066-1.292-20.026-3.566-29.686-6.666-5.225-1.678-10.405-3.598-15.454-5.809-3.489-1.256-6.902-2.712-10.2-4.416-6.274-3.241-12.63-7.442-17.617-12.719 3.038 3.642 6.313 6.989 10.222 9.806 5.219 3.762 11.136 6.395 17.12 8.683 12.099 4.627 24.645 7.954 37.238 10.926 24.578 5.801 49.823 10.393 73.123 20.482 7.153 3.097 15.125 7.186 19.925 13.569-0.479-1.318-0.999-2.623-1.597-3.903m-37.827-33.354c-11.021-2.243-22.542-0.397-33.7-0.575-11.607-0.185-23.361-1.184-34.82-3.038-3.934-0.637-7.865-1.422-11.748-2.397 1.077 0.391 2.158 0.775 3.246 1.142 9.98 3.369 20.274 5.759 30.688 7.314 10.307 1.539 20.595 1.695 30.975 2.295 9.811 0.567 19.356 2.306 28.35 6.387 4.678 2.123 9.122 4.778 13.226 7.867 2.059 1.55 4.113 3.216 6.033 5.015-8.029-10.884-19.764-18.775-32.25-24.01m-11.806-11.587c-2.687-1.113-5.549-1.756-8.429-2.111-6.154-0.757-12.343-0.034-18.428 0.934-5.699 0.906-11.375 2.041-17.142 2.432-6.122 0.415-12.121-0.414-18.052-1.925-10.493-2.673-20.866-7.117-30.686-11.653-7.369-3.402-14.012-7.705-19.648-13.334 0.141 0.281 0.285 0.559 0.428 0.839 2.189 2.477 4.437 4.772 7.152 6.749 3.017 2.197 6.281 4.033 9.584 5.759 7.506 3.923 15.345 7.217 23.403 9.824 7.805 2.525 15.912 4.597 24.06 5.633 4.3 0.546 8.534 0.563 12.839 0.112 3.907-0.41 7.805-0.97 11.74-1.031 4.498-0.069 8.982 0.481 13.369 1.459 3.122 0.697 6.302 1.71 8.47 4.119 3.12 2e-3 6.216 0.185 9.249 0.725 1.695-4.159-5.152-7.389-7.909-8.531m-57.323-30.314c-12.641-9.791-27.922-15.204-41.398-23.725-13.405-8.475-25.552-19.445-33.518-33.299-1.516-2.636-2.893-5.379-4.08-8.202 0.89 3.964 1.835 7.919 2.857 11.864 2.051 3.625 3.586 7.347 6.218 10.682 2.805 3.554 6.144 6.672 9.757 9.393 8.174 6.155 17.702 10.371 26.955 14.614 8.247 3.781 16.257 8.208 23.794 13.262 4.313 2.891 8.746 6.03 12.688 9.631-1.069-1.417-2.164-2.822-3.273-4.22m-7.165-9.023c-10.999-9.284-23.338-16.623-35.121-24.845-11.834-8.257-22.609-17.743-30.814-29.707-3.25-4.738-6.292-9.728-8.675-14.991 0.483 2.511 0.991 5.017 1.516 7.521 3.844 11.791 10.463 22.378 19.391 31.283 11.782 11.752 26.165 19.556 40.937 26.863 6.068 3.002 12.247 6.072 17.707 10.112-1.663-2.074-3.326-4.146-4.941-6.236m-16.931-62.4c0.188-0.877 0.333-1.757 0.413-2.637-0.125-13.263-11.811-23.448-22.169-30.564-6.655-4.573-13.525-8.77-20.376-13.037-6.091-3.794-12.032-7.929-16.824-13.325-3.689-4.154-6.853-9.172-8.294-14.614 0.114 1.343 0.234 2.685 0.362 4.027 0.868 2.72 1.835 5.363 3.446 7.863 2.225 3.453 4.907 6.648 7.777 9.578 6.448 6.585 14.262 11.557 22.149 16.225 7.199 4.261 14.847 8.161 21.096 13.808 3.997 3.612 8.6 8.922 9.797 14.568 0.048 0.062 0.097 0.123 0.128 0.197 1.057 2.603 1.843 5.23 2.495 7.911m-5.265-21.568c-5.592-8.01-14.188-13.158-22.443-18.025-15.502-9.139-29.373-19.882-38.644-35.621 3.59 13.512 15.112 22.313 26.608 29.625 6.679 4.248 13.405 8.392 19.857 12.986 5.858 4.172 11.757 8.592 15.924 14.55 1.446 2.068 2.66 4.331 3.556 6.702-0.973-3.612-2.669-7.082-4.858-10.217m-28.641-28.211c4.226 2.504 8.723 4.894 13.618 5.196-10.311-4.998-20.056-11.197-28.654-18.799-7.386-6.531-14.832-14.858-19.235-24.037 0.129 2.285 0.276 4.569 0.436 6.852 0.175 0.073 0.34 0.194 0.477 0.385 5.844 8.166 12.755 15.437 20.618 21.684 4.037 3.207 8.306 6.092 12.74 8.719m47.785 108.1c-6.911-6.139-13.661-12.083-21.788-16.649-6.844-3.845-13.438-7.858-19.445-12.947-11.342-9.609-20.54-21.543-27.199-34.82-2.017-4.021-3.777-8.21-5.195-12.506 0.46 2.705 0.939 5.406 1.439 8.104 2.504 5.672 5.159 11.272 8.577 16.468 3.887 5.91 8.399 11.408 13.451 16.358 10.438 10.227 23.127 17.771 35.25 25.778 5.302 3.502 10.576 7.096 15.538 11.076-0.21-0.287-0.421-0.574-0.628-0.862m-13.244-26.729c-5.987-12.5-14.915-22.813-24.707-32.559-9.963-9.917-20.676-19.132-29.627-30.019-3.716-4.52-7.304-9.224-10.116-14.36 0.098 0.713 0.196 1.425 0.296 2.138 6.426 12.238 12.786 24.414 20.847 35.718 8.885 12.459 19.367 23.225 31.551 32.47 4.567 3.465 9.498 7.022 13.406 11.375-0.592-1.575-1.137-3.165-1.65-4.763m-3.096-11.99c-2.953-4.97-5.734-9.98-9.142-14.696-3.944-5.457-8.307-10.611-13.047-15.392-9.848-9.93-21.732-17.627-31.26-27.867-2.982-3.205-6.173-6.883-8.442-10.913 0.079 0.583 0.157 1.168 0.237 1.751 2.783 5.278 5.92 10.351 9.661 15.018 4.563 5.691 9.733 10.902 14.991 15.946 10.115 9.701 20.866 18.759 29.71 29.698 3.222 3.986 6.214 8.221 8.711 12.718-0.538-2.072-1.006-4.162-1.419-6.263m-1.434-9.515c-0.935-2.151-1.731-4.375-2.768-6.482-1.465-2.977-3.155-5.842-5.023-8.583-3.735-5.485-8.18-10.481-13.069-14.962-10.603-9.721-23.747-16.465-33.533-27.102-2.619-2.847-5.143-5.941-7.02-9.356 0.159 1.199 0.318 2.399 0.478 3.597 0.938 1.911 1.886 3.808 2.973 5.666 1.723 2.946 3.843 5.616 6.136 8.139 4.687 5.154 10.112 9.579 15.538 13.922 5.399 4.321 10.828 8.593 15.74 13.474 4.494 4.466 8.668 9.261 12.471 14.329 3.113 4.147 6.263 8.561 8.852 13.183-0.31-1.932-0.567-3.875-0.775-5.825m-0.569-15.593c-1.496-3.43-2.572-6.84-4.877-9.934-2.589-3.478-5.872-6.36-9.376-8.886-7.534-5.431-15.986-9.481-23.74-14.582-6.555-4.312-12.886-9.175-17.747-15.396-2.221-2.842-4.432-6.315-6.072-9.979 0.159 1.424 0.327 2.846 0.505 4.268 1.991 4.64 4.563 8.986 8.007 12.767 4.744 5.206 10.451 9.422 16.232 13.395 6.012 4.131 12.055 8.198 17.484 13.094 4.672 4.212 8.929 8.888 12.565 14.025 1.975 2.79 3.765 5.713 5.324 8.756 0.641 1.253 1.302 2.557 1.902 3.893-0.259-3.786-0.327-7.596-0.207-11.421m8.209 45.541c-4.193-5.146-9.151-9.33-14.453-13.416-5.985-4.614-11.751-9.388-16.955-14.886-10.21-10.788-18.778-22.954-26.265-35.759-3.235-5.533-6.389-11.157-9.267-16.901 6.342 18.635 13.585 36.631 26.438 51.976 6.996 8.351 15.215 15.454 24.544 21.082 4.694 2.832 9.62 5.246 14.195 8.275 0.895 0.593 1.845 1.209 2.751 1.879-0.335-0.748-0.671-1.496-0.988-2.25m5.207 10.66c-0.434-0.771-0.843-1.553-1.255-2.333-3.013-3.421-7.733-5.978-11.33-8.345-4.627-3.043-9.339-5.982-13.891-9.139-8.316-5.768-15.722-12.736-22.086-20.603-9.557-11.812-17.192-25.765-22.001-40.421 0.25 1.632 0.505 3.264 0.766 4.895 3.755 12.842 9.12 24.983 17.234 35.785 4.51 6.005 9.72 11.544 15.448 16.401 6.056 5.134 12.646 9.325 19.59 13.142 7.259 3.99 13.711 8.907 19.814 14.385-0.802-1.239-1.571-2.492-2.289-3.767m-81.156-169.46c-0.385-13.496-0.825-27.19 0.058-40.681 0.258-3.941 0.978-7.834 3.136-11.065-0.2 0.044-0.409 0.063-0.631 0.044-1.791-0.148-2.542-2.273-2.9-3.734-0.386-1.577-0.621-3.203-0.774-4.847-0.707 13.917-0.493 27.526-0.35 41.763 0.267 26.462 1.839 52.924 4.839 79.218 3.283 28.779 8.27 57.512 16.235 85.387 7.331 25.657 17.053 51.301 32.58 73.198 8.01 11.295 17.733 21.453 29.017 29.312 0.155 0.016 0.294 0.101 0.381 0.267 3.124 2.155 6.366 4.135 9.726 5.912-12.905-7.311-24.062-17.456-33.448-29.561-8.499-10.962-15.456-23.029-21.29-35.644-0.054-0.088-0.097-0.175-0.119-0.262-5.336-11.575-9.732-23.606-13.473-35.682-8.236-26.586-13.918-54.418-17.341-82.035-1.586-12.801-2.531-25.753-3.483-38.617-0.814-11.009-1.849-21.927-2.163-32.973m4.075-53.409c-1.78-3.853-3.269-7.8-4.466-11.843 0.061 1.41 0.122 2.821 0.187 4.232 0.074 1.622 0.151 3.27 0.453 4.869 0.099 0.527 0.225 1.062 0.414 1.565 0.433 1.156 0.713 1.559 1.914 1.669 0.937 0.086 1.087 0.047 1.498-0.492m-15.097 120.73c-4.261 7.211-9.112 13.991-15.725 18.917 5.194-2.895 9.558-6.852 13.378-11.645 2.696-3.382 5.081-6.986 7.134-10.793 2.121-3.931 3.456-8.309 5.646-12.166 0.014-0.025 0.032-0.045 0.048-0.068-0.3-2.924-0.585-5.849-0.848-8.777-1.461 8.652-5.06 16.793-9.633 24.532m-6.417 22.813c-7.495 10.073-20.204 21.688-16.346 35.051 0.81-4.728 2.239-9.318 4.526-13.691 4.685-8.957 11.607-16.59 17.599-24.674 5.353-7.222 9.742-16.315 11.162-25.495-3.66 10.445-10.582 20.262-16.941 28.809m-14.944 41.61c-0.172 2.16-0.261 4.394-0.196 6.628 0.917-6.851 4.175-13.671 7.453-19.375 3.454-6.008 7.056-11.937 10.65-17.861 3.528-5.816 7.277-11.564 10.059-17.789 1.603-3.588 2.91-7.305 3.901-11.108 0.632-2.421 1.066-4.861 1.478-7.31-0.021-0.169-0.043-0.338-0.063-0.506-1.174 5.62-3.693 10.917-6.962 15.852-5.565 8.398-11.85 16.296-17.148 24.872-5.123 8.294-8.396 16.847-9.172 26.597m11.192 23.458c0.035 0.052 0.066 0.108 0.102 0.161-1.663-8.163 3.025-17.041 6.653-24.047 1.741-3.361 3.518-6.692 5.241-10.042-2.123 3.345-4.432 6.568-6.872 9.7-3.575 4.587-6.74 9.437-9.782 14.372 0.225 3.846 2.582 6.769 4.658 9.856m3.113 5.522c-0.489-8.598 3.431-16.848 7.849-24.202 2.844-4.733 5.849-9.365 8.162-14.394 2.436-5.294 4.26-10.86 5.347-16.588 0.624-3.291 1.02-6.632 1.166-9.979 0.095-2.161 0.014-4.306-0.07-6.453-0.711 3.017-1.675 5.978-2.506 8.604-0.853 2.695-1.85 5.358-2.952 7.98-2.761 8.233-7.159 15.916-11.204 23.549-4.611 8.705-10.225 18.455-7.377 28.436 0.572 0.993 1.1 2.009 1.585 3.047m19.509-36.288c-1.678 5.13-3.843 10.087-5.807 15.11-1.988 5.085-4.037 10.075-6.553 14.924-1.449 2.791-2.902 5.622-3.738 8.668-0.488 1.775-0.692 3.5-0.694 5.244 0.33 1.27 0.607 2.555 0.859 3.846 0.391-2.384 1.07-4.737 1.773-6.874 1.606-4.88 3.879-9.496 6.147-14.093 4.888-9.906 9.746-19.901 11.905-30.82 1.063-5.379 1.116-10.881 1.726-16.315-0.191-0.994-0.384-1.987-0.568-2.982-0.71 7.922-2.584 15.756-5.05 23.292m3.408-22.374c-0.755 5.441-2.147 10.805-4.156 15.918-4.053 10.317-11.544 18.823-15.447 29.208-2.014 5.359-2.501 10.674-2.166 16.222 7e-3 0.017 0.015 0.033 0.021 0.05 0.256 0.677 0.486 1.362 0.708 2.049 0.345-2.308 1.132-4.588 2.001-6.607 2.132-4.949 4.851-9.598 6.923-14.586 4.444-10.704 9.388-21.276 11.511-32.746 0.832-4.49 1.336-9.046 1.673-13.607-0.139-0.775-0.282-1.549-0.418-2.324-0.126 2.175-0.36 4.335-0.65 6.423m-2.334-25.434c-0.506 2.839-1.184 5.646-1.867 8.317-1.502 5.866-3.54 11.607-6.099 17.095-2.604 5.584-5.766 10.854-9.362 15.853-3.695 5.137-7.695 10.13-10.568 15.797-1.564 3.083-2.633 6.368-3.262 9.765-0.394 2.123-0.454 4.184-0.34 6.255 0.116-0.79 0.299-1.568 0.543-2.317 1.4-5.524 4.678-9.238 8.278-13.737 4.418-5.523 8.643-11.133 12.087-17.329 3.359-6.041 5.947-12.36 7.86-19.002 0.878-3.052 1.582-6.149 2.178-9.268 0.458-2.398 0.637-4.883 1.15-7.277-0.204-1.383-0.403-2.767-0.598-4.152m-1.039-7.663c-1.973 9.947-6.905 19.305-12.128 27.826-3.555 5.8-7.128 11.589-10.733 17.359-3.566 5.708-7.184 11.672-8.981 18.215-1.428 5.201-1.744 10.487-0.608 15.637 0.274 0.798 0.585 1.581 0.947 2.342-0.501-4.092 0.46-8.503 1.903-12.183 2.247-5.735 5.607-10.84 9.172-15.828 3.773-5.279 7.457-10.565 10.462-16.331 2.994-5.743 5.432-11.781 7.237-18.001 0.994-3.424 1.806-6.904 2.424-10.417 0.317-1.795 0.524-3.606 0.73-5.417-0.143-1.067-0.287-2.134-0.425-3.202m-14.376 114.29c0.213 1.837 0.418 3.679 0.642 5.518 1.429-9.577 6.558-18.5 10.923-27.38 3.606-7.333 6.282-14.872 8.017-22.865 0.852-3.923 1.477-7.912 1.952-11.898 0.404-3.388 0.252-7.003 0.902-10.386-0.617-2.824-1.204-5.654-1.769-8.489-0.683 11.514-4.146 22.786-8.651 33.337-2.691 6.303-5.884 12.37-8.614 18.653-1.408 3.24-2.655 6.565-3.445 10.013-0.521 2.268-0.689 4.498-0.819 6.757 0.331 2.247 0.603 4.501 0.862 6.74m3.396 20.229c-0.015-2.989 0.372-5.983 0.992-8.97 1.219-5.867 3.062-11.65 5.081-17.287 4.213-11.768 11.042-22.593 14.306-34.697 1.244-4.615 1.704-9.171 1.579-13.797-0.303-1.215-0.598-2.431-0.889-3.649-0.34 3.424-0.852 6.82-1.626 10.176-1.733 7.521-4.454 14.702-7.733 21.679-5.698 12.125-13.146 24.549-13.57 38.168 0.466 2.823 1.059 5.622 1.86 8.377m9.801 12.857c-0.729-4.788-0.824-9.478 7e-3 -14.308 0.879-5.111 2.767-9.782 4.78-14.531 4.279-10.094 8.256-20.051 9.761-30.988 0.439-3.189 0.7-6.406 0.774-9.624 0.036-1.579-0.017-3.152-0.08-4.724-0.104 2.168-0.371 4.32-0.742 6.387-1.157 6.456-3.543 12.62-6.241 18.572-5.612 12.383-13.318 25.008-13.088 39.06 0.1 6.112 1.827 11.831 4.963 16.977-0.234-2.289-0.282-4.568-0.134-6.821m-8.782-9.697c1.263 3.576 2.838 7.014 4.706 10.29-2.441-8.045-1.286-17.429 1.006-25.132 3.988-13.398 11.918-25.277 15.528-38.801 0.955-3.577 1.599-7.262 1.731-10.967 0.09-2.54-0.133-4.997-0.529-7.453-0.111-0.419-0.226-0.836-0.335-1.255-0.7 7.614-3.778 15.305-6.698 21.89-2.497 5.633-5.236 11.16-7.455 16.913-2.333 6.052-4.402 12.224-6.047 18.5-1.366 5.21-2.297 10.635-1.907 16.015m13.989-7.292c3.109-8.199 8.09-15.592 10.499-24.088 1.561-5.509 2.178-11.337 2.03-17.053-0.064-2.505-0.295-5.006-0.528-7.5-0.165-1.769-0.548-3.619-0.554-5.424-0.085-0.289-0.173-0.577-0.257-0.866-3e-3 2.967-0.227 5.951-0.523 8.814-0.541 5.24-1.597 10.41-3.144 15.446-1.539 5.011-3.686 9.764-5.725 14.583-2.144 5.065-4.032 10.184-5.363 15.528-1.227 4.93-1.733 10.177-1.427 15.301 0.635-5.154 2.286-10.139 4.992-14.741m6.381 40.845c0.151 0.227 0.315 0.445 0.47 0.669-1.163-3.368-1.694-7.087-2.142-10.356-0.819-5.984-0.852-12.088-0.097-18.081 0.742-5.89 2.232-11.703 4.527-17.181 2.576-6.148 5.487-11.899 6.662-18.537 0.637-3.598 0.798-7.303 0.696-10.952-0.062-2.21-0.345-4.371-0.644-6.534-0.017-0.051-0.035-0.102-0.052-0.153-0.438-1.291-0.861-2.588-1.283-3.885-0.012 1.002-0.034 1.965-0.04 2.856-0.036 5.512-0.528 10.981-1.723 16.369-1.996 9.005-6.374 17.275-10.856 25.307-4.739 13.219-3.337 28.687 4.482 40.478m19.792-25.408c-1.667 7.883-2.704 15.54-2.186 23.625 0.467 7.268 1.246 18.165 8.431 22.134 0.216 0.08 0.434 0.156 0.651 0.233-6.199-5.794-8.322-14.663-8.041-22.99 0.378-11.173 4.476-21.815 5.012-32.966 0.241-5.009-0.454-9.844-1.643-14.636-0.972-2.015-1.911-4.044-2.825-6.084 2.352 10.071 2.736 20.581 0.601 30.684m-0.708-17.227c-0.485-8.056-2.421-15.566-4.09-23.367-0.034-0.085-0.07-0.17-0.104-0.256 1.328 9.93-6e-3 19.983-1.936 29.923-1.326 6.83-3.218 13.622-4.144 20.521-0.894 6.657 1.036 13.026 3.758 19.048 1.806 3.993 4.066 7.706 6.693 11.159-0.836-2.051-1.318-4.349-1.701-6.66-1.356-8.179-1.508-16.488-0.601-24.725 0.945-8.571 2.646-16.973 2.125-25.643m-6.78-24.588c-0.159 3.245-0.849 6.48-1.803 9.58-2.063 6.706-5.098 13.094-6.83 19.904-3.336 13.111-1.967 27.144 3.877 39.343 2.652 5.536 6.233 10.573 10.461 15.007 1.113 0.633 2.247 1.224 3.399 1.777-3.096-3.53-5.755-7.448-7.937-11.601-2.644-5.03-4.954-10.677-5.54-16.374-0.694-6.755 1.688-13.761 3.079-20.305 1.48-6.964 2.885-13.986 3.402-21.099 0.425-5.853 0.366-11.953-0.53-17.843-0.676-1.744-1.333-3.493-1.973-5.245 0.324 2.271 0.508 4.558 0.395 6.856m-9.075 71.539c3.432 4.119 7.542 7.713 12.077 10.648-6.583-7.78-11.107-17.24-13.016-27.274-1.265-6.651-1.367-13.529-0.311-20.216 1.117-7.069 3.872-13.543 6.297-20.224 1.41-3.883 2.624-7.889 3.035-12.015 0.279-2.801 0.134-5.591-0.123-8.378-0.032 1.827-0.169 3.627-0.382 5.339-0.746 5.991-2.291 11.698-4.739 17.216-2.598 5.856-4.83 11.741-6.069 18.048-1.186 6.038-1.572 12.23-1.13 18.367 0.251 3.486 0.764 6.958 1.549 10.365 0.64 2.776 1.362 5.651 2.812 8.124m26.825 15.835c-5.234-8.165-7.26-18.177-5.686-27.755 1.03-6.271 2.292-12.324 2.323-18.719 0.029-5.954-0.723-11.784-1.654-17.644-0.355-0.683-0.701-1.369-1.048-2.055 1.274 7.224 0.185 15.049-1.155 21.994-2.038 10.565-5.275 21.78-2.282 32.487 1.42 5.079 4.193 9.724 8.463 12.89 0.555 0.169 1.111 0.331 1.67 0.48-0.228-0.552-0.437-1.111-0.631-1.678m-4.433-30.52c-1.854 9.453-0.852 18.79 3.496 27.137-1.956-8.854-0.628-18.217-0.621-27.19 5e-3 -6-0.345-11.983-0.993-17.935 6e-3 6.051-0.733 12.127-1.882 17.988m21.922 50.027c4.343 4.115 8.969 7.897 13.826 11.361-7.849-6.557-15.408-13.713-20.302-22.733-6.644-12.244-5.86-26.338-7.676-39.75-1.177-8.691-3.218-17.219-4.82-25.833-0.01-0.053 0-0.1 0.017-0.142-0.427-0.753-0.856-1.504-1.273-2.263 1.606 8.796 2.595 17.696 2.94 26.635 0.36 9.324-0.946 18.936 0.754 28.162 1.871 10.155 9.304 17.711 16.534 24.563m-8.021-49.351c0.922 8.15 2.713 15.896 5.932 23.465 3.222 7.576 7.275 14.99 11.777 21.883 4.224 6.466 9.834 11.586 14.625 17.536 0.306 0.249 0.611 0.497 0.92 0.742-0.346-0.429-0.689-0.86-1.032-1.287-1.906-2.375-3.783-4.772-5.602-7.213-3.57-4.791-6.923-9.759-9.784-15.008-5.731-10.512-8.539-21.949-11.558-33.441-1.646-6.266-3.545-12.407-6.029-18.387-0.537-0.754-1.077-1.506-1.602-2.269 1.386 4.507 1.827 9.33 2.353 13.979m-1.156 14.075c1.801 11.812 5.493 23.097 12.786 32.698 3.57 4.7 7.878 8.797 12.699 12.193-0.079-0.285-0.161-0.568-0.229-0.859-2.947-2.958-5.509-6.37-7.721-9.666-4.49-6.691-8.267-14.093-11.409-21.509-3.001-7.084-4.926-14.293-5.607-21.954-0.657-7.392-0.854-14.527-3.402-21.465-0.83-1.253-1.644-2.517-2.443-3.792 3.066 11.194 3.583 22.92 5.326 34.354m25.928 46.295c-9.05-6.146-16.137-14.944-20.673-24.871-5.113-11.188-6.363-23.524-7.803-35.598-0.878-7.362-2.066-14.559-3.782-21.768-0.839-1.369-1.661-2.749-2.467-4.139 1.526 6.617 2.793 13.301 3.822 20.011 1.09 7.116 1.583 14.252 2.272 21.41 0.659 6.848 1.805 13.682 4.766 19.949 2.716 5.746 6.699 10.786 11.116 15.314 4.283 4.389 9.007 8.298 13.783 12.134-0.401-0.78-0.735-1.601-1.034-2.442m34.41 18.066c-9.083-5.17-16.451-13.197-23.259-21.026-4.541-5.221-9.197-10.489-12.398-16.674-3.433-6.633-5.861-13.846-8.671-20.757-3.205-7.886-6.565-15.722-9.532-23.703-1.536-1.893-3.043-3.81-4.491-5.774 4.158 9.577 6.13 20.035 9.024 30.019 1.63 5.625 3.555 11.139 6.177 16.385 2.699 5.401 5.966 10.504 9.488 15.402 1.95 2.711 3.982 5.363 6.056 7.98 1.522 1.923 3.026 3.871 4.709 5.648 7.033 5.147 14.762 9.334 22.897 12.5m24.495 6.293c-4.417-1.202-8.736-2.786-12.896-4.689-10.251-4.688-19.578-11.507-27.366-19.636-7.168-7.483-13.176-16.172-17.805-25.433-2.422-4.843-4.396-9.857-6.092-14.994-1.895-5.739-3.786-11.243-7.615-16.023-0.053-0.066-0.07-0.138-0.072-0.21-1.673-1.766-3.301-3.584-4.874-5.456-0.137-0.164-0.268-0.334-0.404-0.498 5.472 12.866 10.037 26.113 15.65 38.917 2.912 6.643 7.254 12.215 11.974 17.659 4.464 5.148 8.978 10.288 14.017 14.887 5.231 4.774 11.079 8.855 17.651 11.519 5.821 1.827 11.798 3.154 17.832 3.957m3.311-1.604c0.796 0.186 1.595 0.347 2.396 0.501-11.316-4.939-22.505-10.308-32.194-18.054-5.779-4.619-11.095-10.034-15.953-15.606-4.937-5.664-8.813-12.071-12.293-18.708-3.724-7.102-7.095-14.381-10.909-21.437-0.761-0.692-1.516-1.392-2.259-2.105 4.027 6.637 5.609 14.979 8.68 21.941 4.542 10.295 10.68 19.892 18.446 28.052 7.819 8.216 16.938 14.851 27.235 19.63 5.401 2.506 11.052 4.435 16.851 5.786m40.706 3.265c-5.053-1.308-10.189-2.363-15.228-3.678-9.8-2.557-19.527-5.539-28.881-9.447-16.561-6.919-32.003-16.969-43.29-31.102-5.662-7.09-11.025-15.64-13.169-24.552-0.031-0.131 0.016-0.241 0.095-0.311-2.828-2.053-5.561-4.25-8.191-6.582 6.801 11.903 11.63 24.97 20.157 35.835 9.408 11.988 21.225 21.882 34.692 28.958 6.191 3.252 12.599 6.049 19.046 8.75 0.702 0.122 1.403 0.246 2.105 0.377 2.692 0.503 5.425 0.589 8.113 0.991 8.238-0.06 16.551-0.277 24.551 0.761m22.253 8.03c5.404 3.768 9.799 8.867 12.004 14.891-0.565-10.382-7.93-19.074-17.182-23.889-11.574-6.024-24.909-6.913-37.459-9.645-22.206-4.833-43.865-12.934-60.281-29.215-7.915-7.85-14.193-17.18-17.816-27.756-0.013-0.036-9e-3 -0.068-0.014-0.103-0.469-0.324-0.936-0.653-1.401-0.985 1.392 3.791 2.699 7.583 4.521 11.202 1.93 3.833 4.226 7.472 6.795 10.909 5.088 6.805 11.249 12.815 18.024 17.931 15.828 11.947 34.864 19.033 53.957 23.783 8.941 2.224 18.4 3.61 26.999 7.094 4.112 1.309 8.085 3.156 11.853 5.783m-146.67-107.3c0.059 0.03 0.118 0.061 0.174 0.117 18.384 18.612 43.906 26.263 68.559 32.674 25.434 6.615 50.176 14.3 73.009 27.664 3.273 1.916 6.69 4.079 9.892 6.546-2.251-2.164-4.725-4.111-7.248-5.978-5.242-3.881-10.682-7.496-16.3-10.81-11.207-6.612-23.1-12.132-35.515-16.054-24.37-7.699-50.573-9.955-73.543-21.794-7.727-3.982-15.05-9.002-21.022-15.316 0.159 0.239 0.309 0.483 0.468 0.721 0.502 0.749 1.012 1.491 1.526 2.23m25.233 27.199c18.047 9.928 37.862 15.402 57.668 20.815 20.337 5.558 41.211 11.405 59.04 23.054 7.369 4.814 14.484 10.837 18.826 18.604 1.806 2.387 3.324 4.979 4.527 7.74-1.854-10.223-8.374-19.044-16.432-25.462-10.354-8.245-23.077-12.687-35.46-16.87-13.543-4.575-27.088-9.142-40.636-13.702-12.26-4.127-24.708-7.934-36.656-12.917-8.558-3.569-17.025-7.836-24.246-13.664 4.15 4.482 8.604 8.641 13.369 12.402m21.495 13.106c10.171 3.461 20.445 6.248 30.944 8.617 9.719 2.193 19.525 4.184 29.045 7.164 9.371 2.933 18.479 6.717 27.085 11.448 7.154 3.933 14.118 8.503 19.408 14.713 0.139 0.032 0.278 0.092 0.41 0.194 0.747 0.58 1.466 1.186 2.164 1.812-10.323-12.29-25.41-19.893-40.426-25.521-19.984-7.49-40.997-11.653-61.255-18.278-8.138-2.661-16.225-5.712-23.899-9.558 5.17 3.618 10.674 6.785 16.524 9.409m113.58 63.904c-2.852-5.833-8.66-9.887-14.199-13.06-8.511-4.876-17.532-8.731-26.686-12.221-17.41-6.637-35.728-11.62-52.274-20.325-7.834-4.121-15.276-9.359-20.888-16.27-0.773-0.294-1.54-0.598-2.303-0.913 4.917 6.36 10.498 12.058 17.106 16.723 7.525 5.311 15.821 9.392 24.348 12.821 18.686 7.516 38.288 12.385 56.674 20.709 7.216 3.266 14.91 7.764 18.591 14.979-0.104-0.817-0.227-1.632-0.369-2.443m-108.79-59.876c-0.808-0.309-1.61-0.632-2.41-0.962-0.334-0.115-0.665-0.237-0.998-0.356 11.552 12.89 28.199 19.442 44.15 25.289 18.38 6.737 37.285 12.554 54.466 22.118 4.955 2.759 10.018 6.296 13.017 11.128-2.294-5.663-6.328-10.49-11.003-14.472-6.551-5.58-14.141-10.008-21.871-13.736-8.054-3.884-16.466-6.984-24.999-9.635-8.262-2.567-16.675-4.617-24.924-7.223-8.976-2.836-17.739-6.451-25.357-12.071-0.032-0.024-0.048-0.053-0.071-0.08m101.43 40.686c-6.719-6.389-13.656-12.569-21.785-17.14-8.765-4.929-18.281-8.524-28.032-10.93-15.804-3.9-32.619-5.993-48.15-11.353 14.255 9.351 31.571 12.427 47.61 17.535 16.343 5.205 32.83 12.102 46.166 23.128 3.766 3.114 7.378 6.751 9.841 10.991-1.351-4.257-3.241-8.368-5.65-12.231m-80.222-15.395c9.283 4.773 19.027 8.636 28.907 11.982 9.567 3.24 19.342 5.768 28.946 8.876 7.307 2.365 14.93 5.55 20.218 11.259 5.387 4.821 9.321 11.314 9.86 18.359 0.471-3.633 0.563-7.287 0.279-10.907-3.358-8.334-11.265-13.185-19.212-16.788-9.122-4.135-18.513-7.685-27.989-10.916-17.712-6.039-35.959-11.478-51.647-22.007-7.45-5-14.654-11.017-19.532-18.648-4.501-1.942-8.83-4.231-12.971-6.832 11.185 15.426 26.283 26.955 43.141 35.622m-43.499-35.852c-0.604-0.383-1.205-0.773-1.802-1.17 8.041 21.578 26.436 36.51 47.25 45.272 12.145 5.112 24.857 8.125 37.823 10.253 8.986 1.475 18.227 2.864 26.621 6.421-2.793-1.317-5.72-2.407-8.669-3.365-9.254-3.007-18.677-5.451-27.908-8.543-18.529-6.206-36.835-14.032-52.273-26.229-8.067-6.373-15.446-13.818-21.075-22.45-0.049-0.074-0.02-0.147 0.033-0.189m25.454-34.608c-9.213-10.516-20.482-19.011-33.142-25.005-13.235-6.266-27.637-10.532-39.221-19.82-3.621-2.903-6.874-6.288-9.401-10.153 0.208 0.614 0.423 1.226 0.635 1.839 5.96 10.564 15.963 17.855 26.433 23.687 6.113 3.406 12.315 6.675 18.562 9.828 6.392 3.225 12.929 6.201 19.245 9.572 6.089 3.25 11.578 7.486 16.214 12.597 0.714-0.04 1.427-0.09 2.139-0.151-0.471-0.813-0.958-1.613-1.464-2.394m-82.852-58.27c6.139 11.024 17.168 18.217 28.483 23.407 7.098 3.256 14.426 5.985 21.485 9.328 6.604 3.128 12.827 6.904 18.668 11.292 3.755 2.821 7.286 5.926 10.595 9.253-11.728-14.522-29.677-23.26-46.217-31.273-8.856-4.291-17.617-8.995-24.947-15.653-3.561-3.234-7.073-7.112-9.682-11.429 0.525 1.695 1.063 3.387 1.615 5.075m5.299 14.929c4.886 9.765 13.471 16.838 22.527 22.688 10.859 7.015 22.409 12.978 34.38 17.852 5.133 2.09 10.421 4.235 15.878 5.426 0.374 6e-3 0.746 0.023 1.121 0.021 0.581-3e-3 1.16-0.024 1.739-0.044-4.45-4.64-9.399-8.655-15.043-11.791-6.353-3.528-12.969-6.603-19.401-9.987-11.922-6.274-24.643-12.118-34.964-20.923-3.395-2.896-6.341-6.105-8.668-9.772 0.783 2.187 1.595 4.363 2.431 6.53m73.795 29.804c-6.934-6.024-13.412-12.327-21.085-17.507-8.587-5.797-17.809-10.655-27.077-15.257-8.542-4.243-17.164-8.561-24.545-14.685-3.67-3.044-7.883-7.082-10.735-11.61 0.329 1.167 0.661 2.334 1.001 3.5 3.64 7.734 8.492 14.069 15.483 19.547 8.456 6.626 18.335 11.218 28.056 15.654 9.633 4.396 18.994 9.113 27.557 15.397 6.179 4.534 12.312 9.881 16.547 16.398-1.235-4.037-3.045-7.816-5.202-11.437m-67.323-14.698c7.84 9.513 17.897 15.588 29.091 20.416 10.72 4.624 21.596 9.207 33.235 10.246-3.152-0.999-6.237-2.267-9.25-3.466-6.349-2.526-12.58-5.326-18.672-8.422-10.999-5.59-22.372-11.913-31.408-20.432-3.227-3.043-6.071-6.444-8.221-10.273 1.588 3.968 3.272 7.896 5.064 11.771 0.057 0.045 0.11 0.099 0.161 0.16m29.386 29.272c10.525 4.938 21.988 7.53 33.454 9.125 11.783 1.64 23.622 2.324 35.513 1.992 4.733-0.131 9.561-0.555 14.346-0.621-2.64-2.304-6.478-3.269-9.791-3.97-4.126-0.874-8.379-1.166-12.588-0.957-8.035 0.399-15.82 2.151-23.886 1.06-16.019-2.166-31.857-7.665-46.18-15.073-4.934-2.551-10.633-5.565-14.797-9.717 0.112 0.208 0.225 0.416 0.338 0.624 6.986 7.216 14.348 13.2 23.591 17.537m149.02 81.576c-2.27-3.621-4.773-6.949-7.984-9.943-3.986-3.717-8.467-6.827-13.153-9.595-10.755-6.356-22.215-12.11-33.978-16.332-24.516-8.799-50.759-11.848-74.721-22.422-9.932-4.382-19.455-10.007-27.577-17.244 0.91 1.167 1.838 2.319 2.784 3.453 17.519 16.25 41.203 22.9 63.447 30.378 13.786 4.635 27.575 9.262 41.364 13.888 12.482 4.188 25.413 8.368 36.084 16.335 8.497 6.344 15.482 15.356 17.747 25.793-0.185-4.932-1.865-9.722-4.013-14.311m5.213 21.528c-0.235 0.877-1.651 1.207-1.939 0.159-1.561-5.679-4.349-10.78-8.206-15.064 6.413 13.009 7.614 28.419 3.12 42.262-0.305 0.94-1.889 1.109-1.92-0.093-0.233-9.232-5.959-16.866-13.389-21.908-9.374-6.36-20.66-7.832-31.745-8.029-11.228-0.2-22.447 0.573-33.617-0.968-10.291-1.419-20.369-4.357-29.793-8.733-9.424-4.377-18.058-10.149-25.78-17.055 1.267 2.645 3.121 4.906 5.575 6.777 0.969 0.739-0.112 2.423-1.187 1.803-9.025-5.212-17.472-11.379-25.056-18.536-5.443-5.136-11.233-10.848-14.586-17.698-13.38-2.438-26.263-12.138-33.416-23.5-6.502-10.328-8.332-22.906-5.841-34.679-2.486 6.393-3.214 13.396-1.91 20.232 0.147 0.769-0.884 0.93-1.284 0.46-4.877-5.731-8.825-12.254-11.309-19.375-2.422-6.944-3.344-14.221-4.182-21.491-0.852-7.381-1.669-14.857-4.305-21.857-1.36-3.611-3.366-6.7-5.457-9.906-1.172-1.796-2.171-3.606-2.695-5.593-0.694 2.429-0.611 5.145 0.538 7.377 0.436 0.846-0.579 2.094-1.386 1.242-0.056-0.058-0.105-0.12-0.16-0.179-1e-3 -1e-3 -1e-3 -2e-3 -2e-3 -3e-3 -5.157-5.568-6.63-13.06-6.624-20.463 2e-3 -2.999 0.176-5.967 0.567-8.888-6.553-10.995 4.546-24.104 10.958-32.329 4.945-6.344 9.939-12.807 14.084-19.711 2.589-4.313 4.619-8.806 6.452-13.403-0.533 1.028-1.076 2.035-1.601 3.011-2.208 4.104-4.791 8.123-7.942 11.57-5.429 5.938-12.427 10.779-20.073 13.295-0.52 0.172-0.751-0.55-0.281-0.781 9.72-4.784 16.121-14.465 21.075-23.733 2.968-5.553 5.419-11.299 6.886-17.439 1.184-4.957 1.56-10.012 2.308-15.022-1.047-13.841-1.701-27.712-2.007-41.585-0.445-20.161-0.276-40.408 1.286-60.522 0.13-1.676 0.274-3.351 0.432-5.024 0.168-1.772 0.717-8.515 1.003-7.018 1.392 7.295 5.636 21.457 8.844 28.153 0.21 0.439 0.064 1.115-0.27 1.456-5.499 5.627-4.334 16.201-4.413 23.787-0.076 7.364-0.023 14.73 0.132 22.092 0.231 10.972 0.478 21.941 1.013 32.891 2.837 4.559 5.444 9.213 8.694 13.514 3.742 4.953 8.014 9.481 12.551 13.711 8.891 8.291 19.204 14.918 30.208 20.044 0.657 0.307 0.433 1.278-0.251 1.357-10.534 1.214-21.015-6.282-29.069-12.263-2.419-1.796-4.743-3.712-6.986-5.716 2.554 2.641 5.25 5.154 8.12 7.514 8.109 6.666 17.457 11.305 26.239 16.96 7.421 4.778 14.281 10.42 18.421 18.373 3.751 7.208 5.077 15.762 1.313 23.232-0.506 1.005-2.017 0.71-2.14-0.396-0.256-2.293-0.744-4.549-1.378-6.765-0.392 19.809 5.419 39.905 16.176 56.478 9.789 15.082 25.095 27.47 28.472 45.871 9.341-1.169 18.56-3.578 28.039-3.104 5.745 0.287 11.532 1.57 16.446 4.669 3.059 1.93 6.13 4.751 5.576 8.409 17.038 6.329 32.597 18.447 40.596 35.025 2.196 4.551 3.492 9.323 4.8 14.181 1.467 5.449 3.569 10.152 6.19 15.13 4.503 8.552 8.715 17.994 6.086 27.794" style="fill-opacity:.94118;fill:#8ad5ef"/>
  </g>
 </g>
</svg>
