<svg width="73.306mm" height="38.931mm" version="1.1" viewBox="0 0 73.306 38.931" xmlns="http://www.w3.org/2000/svg" id="path1">
 <path d="m69.026 32.044-3.6377 0.14147q-0.30314 0-0.30314-0.16168 0-0.13136 0.49513-0.20209 0.69722-0.11115 1.9603-0.19199 1.4046-0.0808 1.9704-0.15157l1.445-1.7279q1.162-1.3742 1.4046-1.3742 0.30314 0 0.30314 0.38398 0 0.41429-1.8391 2.7182 1.061-0.0707 1.7582-0.0707 0.46482 0 0.46482 0.18188 0 0.2021-1.1216 0.27283l-1.5359 0.0505-2.2534 2.8192q-2.1321 2.7788-2.1321 3.3143 0 0.25262 0.34357 0.26273 0.34356 0 0.34356 0.16167 0 0.19199-0.44461 0.19199-0.89932 0-0.89932-0.72754 0-0.57597 0.58607-1.6471l0.87911-1.4753-2.991 2.3544q-1.8694 1.4753-2.8798 1.4753-0.12126 0-0.12126-0.13136 0-0.17178 0.20209-0.2223 0.34356-0.0707 1.0408-0.35367 0.67702-0.35366 3.0112-2.1826 1.7279-1.3439 2.1725-1.7481 0.79828-0.72754 1.7784-1.9603zm-10.034 3.5366q2.7788-2.3544 3.9004-2.3544 0.71744 0 0.71744 0.67702 0 0.59618-1.6269 2.1624-1.6269 1.5561-1.6269 1.8795t0.36377 0.35366q0.36377 0.0202 0.36377 0.17178 0 0.2021-0.72754 0.2021-0.83869 0-0.83869-0.74775 0-0.6265 0.80838-1.5864 0.41429-0.49513 1.4955-1.5258 0.80838-0.76796 0.80838-0.92964 0-0.13136-0.18188-0.13136-0.57597 0-2.506 1.5359-1.6066 1.2732-2.3847 2.0917-0.99026 1.0408-1.2025 1.0408-0.16168 0-0.29304-0.15157-0.13136-0.16168-0.13136-0.33346 0-0.23241 1.3944-1.8795l1.6673-1.9704-2.5868 2.1018-1.9098 1.4652q-1.4551 0.99026-2.2331 0.99026-0.13136 0-0.13136-0.12125 0-0.18189 0.28293-0.24252 0.38398-0.0707 0.89932-0.30314 0.73764-0.32335 3.0112-2.1624 2.0412-1.6572 2.9405-2.5363 0.15157-0.15157 0.47492-0.36377 0.16168-0.0606 0.34356-0.0606 0.17178 0 0.34356 0.12126 0.18188 0.11115 0.18188 0.27282 0 0.18189-1.6168 2.3342zm-2.8495-4.5471q-0.48503 0-0.48503-0.49513 0-0.41429 0.49513-0.74775 0.44461-0.30314 0.88921-0.30314 0.52545 0 0.52545 0.57597 0 0.41429-0.52545 0.70733-0.45471 0.26272-0.89932 0.26272zm-4.4663 7.0026q0 0.27283 0.58607 0.27283 0.13136 0 0.13136 0.16167 0 0.19199-0.66691 0.19199-0.75785 0-0.75785-0.72754 0-0.84879 2.2534-3.5468l-2.7586 2.2534q-2.4453 2.0007-3.5468 2.0007-0.12126 0-0.12126-0.13136 0-0.18188 0.20209-0.2223 0.6366-0.12126 1.162-0.4143 0.65681-0.36377 2.7889-2.0512l3.092-2.5969q0.2021-0.0707 0.54566-0.0707t0.34356 0.39409q0 0.42439-1.6269 2.2938-1.6269 1.8593-1.6269 2.1927zm-4.9513-3.86q-0.05052-0.33346-0.05052-0.40419 0-0.27283 0.6467-0.8488 0.65681-0.58607 0.89932-0.58607 0.23241 0 0.23241 0.2122 0 0.18188-0.25262 0.60628 1.1418 0 1.1418 0.90943 0 0.71743-1.4753 2.2938-1.4753 1.5662-1.4753 1.7582 0 0.18188 0.19199 0.20209l0.33346-0.0101q0.14147 0 0.14147 0.16167 0 0.2021-0.58607 0.2021-0.74775 0-0.74775-0.66692 0-0.6568 0.74775-1.637 0.46482-0.61639 1.3843-1.5258 0.74775-0.73764 0.74775-0.80838 0-0.15157-0.17178-0.15157-0.15157 0-0.57597 0.12126-0.4244 0.11115-0.50524 0.18188-4.6987 4.4562-6.3357 4.4562-0.12126 0-0.12126-0.13136 0-0.17178 0.27283-0.2223 0.33346-0.0606 0.87911-0.31325 0.81848-0.36377 2.4453-1.7279 1.445-1.2025 2.2331-2.0715zm-8.3364-1.4147-2.6575 3.1729q-2.2938 2.7283-2.4352 2.7283-0.13136 0-0.35366-0.20209-0.2223-0.2021-0.2223-0.34356 0-0.34356 4.3046-5.4363-1.253-0.19199-1.253-0.57597 0-0.37387 0.52544-0.35366l1.5056 0.0707 3.2537-3.6074q0.78817-0.91953 2.4049-2.5565-3.476 0.48503-6.8914 1.8896-0.2223 0.0909-0.35366 0.0909-0.33346 0-0.33346-0.4244 0-0.82859 3.4659-1.7683 3.4356-0.92964 5.689-0.92964 1.4349 0 2.3847 0.46482 1.253 0.60628 1.253 1.8896 0 2.8394-3.9206 4.5471-3.1021 1.3439-6.366 1.3439zm5.982-7.1946q0.06063 0.13136 0.06063 0.22231 0 0.28293-2.415 3.0011l-2.6777 2.9506q2.1927-0.15157 4.2642-0.80838 2.5565-0.80837 3.7286-2.0917 0.97005-1.0711 0.97005-1.9098 0-1.4248-2.8091-1.4248-0.41429 0-1.1216 0.0606zm-34.307-25.308c-0.25394 0-0.44105 0.07131-0.5625 0.21484-0.12145 0.14353-0.23725 0.42419-0.34766 0.84375-0.02208 0.09937-0.08422 0.28189-0.18359 0.54688-0.6183 0.32019-1.2862 0.7186-2.0039 1.1934-0.89432 0.59621-1.3418 1.1529-1.3418 1.6719 0 0.15457 0.04449 0.30373 0.13281 0.44727 0.13249 0.20978 0.30389 0.31445 0.51367 0.31445 0.1877 0 0.40358-0.07785 0.64648-0.23242 0.4306-0.28707 0.78452-0.50754 1.0605-0.66211-0.30915 0.93848-1.3644 3.1203-3.1641 6.543-0.25394-0.07729-0.45871-0.11719-0.61328-0.11719-0.22082 0-0.42558 0.07785-0.61328 0.23242-0.22082 0.1877-0.33008 0.40817-0.33008 0.66211 0 0.33123 0.22047 0.66291 0.66211 0.99414-2.4401 5.0457-3.6602 8.0427-3.6602 8.9922 0 0.2429 0.08243 0.46991 0.24805 0.67969 0.1877 0.2429 0.4147 0.36328 0.67969 0.36328 0.3754 0 0.6783-0.36963 0.91016-1.1094 0.07729-0.26499 0.4155-1.1913 1.0117-2.7813 0.38644-1.0158 1.1525-2.7167 2.3008-5.1016l0.23242-0.49609c0.55205 0.09937 1.0106 0.14844 1.375 0.14844 1.5237-1e-6 3.0467-0.33626 4.5703-1.0098 1.7666-0.79495 3.247-1.8993 4.4395-3.3125 1.3912-1.6672 2.0859-3.3348 2.0859-5.002 0-0.96057-0.34739-1.8267-1.043-2.5996-0.73975-0.81703-1.6458-1.2266-2.7168-1.2266-0.40852 0-0.90506 0.0556-1.4902 0.16602-0.58517 0.11041-1.2577 0.27723-2.0195 0.49805 1e-6 -0.57413-0.26037-0.86133-0.7793-0.86133zm15.949 0.14844c-1.0379 0-2.3469 1.0376-3.9258 3.1133-1.9763 2.5836-3.9134 5.8677-5.8125 9.8535-0.73975 1.5678-1.2984 2.8991-1.6738 3.9922-0.37539 1.0931-0.5625 1.9481-0.5625 2.5664 0 0.36435 0.09355 0.67379 0.28125 0.92774 0.26498 0.35331 0.60779 0.5293 1.0273 0.5293 0.97161 0 2.0268-0.75496 3.1641-2.2676 1.0931-1.4464 1.6387-2.408 1.6387-2.8828 0-0.27602-0.14262-0.41406-0.42969-0.41406-0.25394-1e-6 -0.49861 0.18906-0.73047 0.56445-0.58517 0.94953-1.0261 1.6063-1.3242 1.9707-0.62934 0.75079-1.1435 1.125-1.541 1.125-0.26498 0-0.39648-0.13804-0.39648-0.41406 0-0.20978 0.08243-0.57941 0.24805-1.1094 0.16562-0.52997 0.41486-1.2247 0.74609-2.0859 0.78391-0.70662 1.4008-1.2699 1.8535-1.6895 1.7224-1.6009 3.2029-3.2018 4.4395-4.8027 2.7602-3.5994 4.1406-6.173 4.1406-7.7188 1e-6 -0.33123-0.11121-0.62301-0.33203-0.87695-0.20978-0.25394-0.47932-0.38086-0.81055-0.38086zm-11.727 1.9043c0.8612 0 1.5023 0.16028 1.9219 0.48047 0.4306 0.30915 0.64648 0.77887 0.64648 1.4082 0 0.69558-0.28261 1.4904-0.8457 2.3848-0.9164 1.4685-2.1856 2.6997-3.8086 3.6934-1.6782 1.0158-3.1476 1.5234-4.4063 1.5234-0.2429 0-0.66814-0.05561-1.2754-0.16602 0.29811-0.64038 0.95493-1.9985 1.9707-4.0742 0.82808-1.7114 1.4247-3.114 1.7891-4.207 0.68454-0.35331 1.359-0.61173 2.0215-0.77734 0.6735-0.17666 1.3349-0.26562 1.9863-0.26562zm10.865 0.01758c0.20978 0 0.31445 0.12038 0.31445 0.36328 0 0.50789-0.46972 1.5409-1.4082 3.0977-1.8107 3.0032-3.8636 5.4878-6.1602 7.4531 1.3028-2.8707 2.6165-5.2997 3.9414-7.2871 1.6009-2.418 2.7052-3.627 3.3125-3.627zm31.648 2.666c-0.19874 0-0.43033 0.13804-0.69531 0.41406-0.1877 0.19874-0.52396 0.62856-1.0098 1.291-0.87224 1.1924-1.5022 2.1364-1.8887 2.832-0.50789 0.16561-0.89517 0.27029-1.1602 0.31445-0.72871 0.09937-1.1363 0.17068-1.2246 0.21484-0.32019 0.16562-0.48047 0.38804-0.48047 0.66406 0 0.23186 0.12233 0.42355 0.36524 0.57812 0.17666 0.11041 0.37947 0.16602 0.61133 0.16602 0.15457 0 0.38158-0.03795 0.67969-0.11524-0.85016 1.6893-1.3689 2.7537-1.5566 3.1953-0.77287 1.7776-1.1602 3.3359-1.1602 4.6719 0 0.60726 0.1158 1.075 0.34766 1.4062 0.37539 0.51893 0.84511 0.7793 1.4082 0.7793 1.0599 0 2.231-0.85047 3.5117-2.5508 1.071-1.4132 1.6055-2.3239 1.6055-2.7324 0-0.09937-0.04253-0.19946-0.13086-0.29883-0.09937-0.09937-0.2217-0.14844-0.36523-0.14844-0.2429 0-0.46991 0.18252-0.67969 0.54688-0.38644 0.64038-0.82737 1.2795-1.3242 1.9199-0.78391 1.0379-1.4519 1.5586-2.0039 1.5586-0.23186 0-0.40784-0.07326-0.5293-0.2168-0.11041-0.14353-0.16602-0.35288-0.16602-0.62891 0-0.97161 0.43635-2.439 1.3086-4.4043 0.60726-1.3801 1.2687-2.629 1.9863-3.7441 0.39748-0.13249 0.80047-0.25941 1.209-0.38086 1.4795-0.4306 2.3143-0.63995 2.502-0.62891 0.46372-0.04416 0.75092-0.09977 0.86133-0.16602 0.20978-0.12145 0.31445-0.30856 0.31445-0.5625 0-0.50789-0.30485-0.76172-0.91211-0.76172-0.52997 0-1.4073 0.16486-2.6328 0.49609 0.19874-0.34227 0.50164-0.78975 0.91016-1.3418 0.6183-0.85016 0.92773-1.418 0.92773-1.7051 0-0.14353-0.06477-0.28811-0.19727-0.43164-0.14353-0.15457-0.28811-0.23047-0.43164-0.23047zm-28.916 5.7129c-0.73975 0-1.5078 0.2872-2.3027 0.86133-1.2145 0.88328-2.2521 2.1479-3.1133 3.793-0.77287 1.4795-1.1582 2.8311-1.1582 4.0566 0 0.49684 0.10467 0.92862 0.31445 1.293 0.33123 0.56309 0.79441 0.84375 1.3906 0.84375 0.68454 0 1.3747-0.42982 2.0703-1.291 0.35331-0.44164 0.71182-0.98267 1.0762-1.623-0.04417 0.50789-0.06641 0.87098-0.06641 1.0918 0 0.65142 0.17598 1.1924 0.5293 1.623 0.4306 0.52997 0.9448 0.79492 1.541 0.79492 0.22082 0 0.41446-0.0713 0.58008-0.21484 0.15457-0.1325 0.23242-0.3039 0.23242-0.51368 0-0.33123-0.13804-0.56282-0.41406-0.69531-0.37539-0.17666-0.6024-0.30357-0.67969-0.38086-0.27602-0.29811-0.41406-0.67886-0.41406-1.1426 0-0.57413 0.1714-1.3356 0.51367-2.2852 0.32019-0.89432 0.64075-1.6113 0.96094-2.1523 0.30915-0.52997 0.46289-0.91072 0.46289-1.1426 0-0.17666-0.08243-0.38142-0.24805-0.61328 0.1877-0.4306 0.28125-0.76686 0.28125-1.0098 0-0.32019-0.13345-0.60738-0.39844-0.86133-0.30915-0.28707-0.69448-0.43164-1.1582-0.43164zm16.893 0.49805c-1.0599 0-2.3023 0.72813-3.7266 2.1855-1.7555 1.7886-2.6328 3.6165-2.6328 5.4824 0 0.68454 0.16028 1.2256 0.48047 1.623 0.47476 0.57413 1.125 0.85938 1.9531 0.85938 0.80599 0 1.6787-0.25383 2.6172-0.76172 0.93849-0.50789 1.8223-1.1647 2.6504-1.9707 1.0599-1.0268 1.5898-1.7549 1.5898-2.1855 0-0.07729-0.03336-0.15972-0.09961-0.24805-0.09937-0.12145-0.21058-0.18164-0.33203-0.18164-0.22082 0-0.49036 0.18057-0.81055 0.54492-1.8107 2.1199-3.407 3.1797-4.7871 3.1797-0.62934 0-1.0814-0.20281-1.3574-0.61133-0.12145-0.17666-0.18164-0.386-0.18164-0.62891v-0.29883c2.2413-0.6735 3.9181-1.8936 5.0332-3.6602 0.54101-0.85016 0.8125-1.5672 0.8125-2.1523 0-0.37539-0.14262-0.68025-0.42969-0.91211-0.23186-0.17666-0.49223-0.26367-0.7793-0.26367zm-6.5586 0.71094c-0.78391 0-2.3291 1.1265-4.6367 3.3789-0.13249 0.13249-0.27053 0.26399-0.41406 0.39648 0.28707-0.55205 0.66128-1.1644 1.125-1.8379 0.32019-0.45268 0.48047-0.80007 0.48047-1.043 0-0.19874-0.0759-0.37472-0.23047-0.5293-0.13249-0.13249-0.27053-0.19922-0.41406-0.19922-0.29811 0-0.65661 0.3029-1.0762 0.91016-0.41956 0.6183-0.99395 1.6133-1.7227 2.9824-1.358 2.5284-2.0371 4.0893-2.0371 4.6855 0 0.2429 0.07589 0.44308 0.23047 0.59766 0.12145 0.13249 0.27715 0.19727 0.46484 0.19727 0.37539 0 0.72736-0.29178 1.0586-0.87695 1.2918-2.4401 2.6898-4.141 4.1914-5.1016-1.1262 1.8107-1.6895 3.4626-1.6895 4.9531 0 0.77287 0.14916 1.4297 0.44726 1.9707 0.30915 0.57413 0.6899 0.86133 1.1426 0.86133 0.19874 0 0.37014-0.0778 0.51367-0.23242 0.13249-0.12146 0.19922-0.24838 0.19922-0.38086 0-0.14354-0.07785-0.34176-0.23242-0.59571-0.33123-0.55205-0.49805-1.133-0.49805-1.7402 0-1.877 1.0552-4.0457 3.1641-6.5078 0.38644-0.45268 0.58008-0.84455 0.58008-1.1758 0-0.47476-0.21588-0.71289-0.64648-0.71289zm-10.914 0.5625c0.17666 0 0.34347 0.06214 0.49805 0.18359 0.15457 0.11041 0.2972 0.2864 0.42969 0.5293-0.23186 0.1877-0.39214 0.34798-0.48047 0.48047-0.17666 0.25394-0.45732 0.77273-0.84375 1.5566-0.58517 1.2035-1.0771 2.1141-1.4746 2.7324-0.70662 1.1262-1.3255 1.6895-1.8555 1.6895-0.20978 0-0.37006-0.07131-0.48047-0.21484-0.09937-0.14353-0.14844-0.35288-0.14844-0.62891 0-1.1262 0.54103-2.502 1.623-4.125 0.98265-1.4685 1.8933-2.2031 2.7324-2.2031zm16.793 0.46484c0.20978 0 0.31445 0.10926 0.31445 0.33008 0 0.20978-0.08243 0.44791-0.24805 0.71289-0.45268 0.75079-1.065 1.4253-1.8379 2.0215-0.44164 0.33123-1.0494 0.62759-1.8223 0.89258 0.62934-1.4464 1.4196-2.5487 2.3691-3.3105 0.52997-0.4306 0.93754-0.64648 1.2246-0.64648z" style="dominant-baseline:auto;fill:none;font-feature-settings:normal;font-variant-alternates:normal;font-variant-caps:normal;font-variant-ligatures:normal;font-variant-numeric:normal;font-variant-position:normal;shape-padding:0;stroke-width:.51736;stroke:#000;text-decoration-color:#000000;text-decoration-line:none;text-decoration-style:solid;text-indent:0;text-orientation:mixed;text-transform:none;white-space:normal"/>
</svg>
